<svg xmlns="http://www.w3.org/2000/svg" viewBox="0 0 1440 1440" version="1">
  <path d="M0 0h1440v1440H0z"/>
  <path stroke="#000" stroke-width=".7" d="M0 1439v1h107l1-5 1-6v-1l1-2 3 4 4 3v1l1 1v5h12l-1-3v-33l1-5v-6l-1-5v-5l-1-3v-3l-1-3-1-3-2 1-1 1h-2l-2-1-2-4-2-4-1-2v-2l-2-5-1-5v-4l-1-5-1-6-1-1v-2l-2-5-2-5-1-1v-3l1-2-2-3-1-3-1-2-1-3v-1l-1-1-1-1v-10l1-6 1-2 1-2 4-1 4-2 2-1 2-1 3-3 3-3 1-1 2-2 3-2 4-2 1-1 2-1v-1l1-2 1-3 2-1 3-2 2-2 3-2 2-1 3-1 1-3 2-3 2-2 2-2 2 1h3l1 1h1l3-1 4-1 2 2 2 2-2 3-2 2h3l4 1 4 1h1l1-1 5-2 6-2h1l1-1 4-3 4-3h1l1-1v-1l1-2 2-3 3-3h4l4 1 5 1 1 2 1 1 4 2 5 2h2l2-4 3-4h1l2-1 4-2 4-3h2l2-1 5 1h5v-1l1-2 4 2 5 2 1-1 2-1 3 2 4 2v2l1 1 2 4 3 4v2l2 5 2 4 1 1 2 1 3 3 4 3 1 1 1 1 3 4 3 3 1 2 1 1 3 4 3 3 1 1h2l3 4 3 3v2l1 1 2 4 3 4 1 2 1 1 2 4 3 4 1 1 1 1 2 4 3 4 1 2 1 1 1 6 1 5 1 1 1 1-1 6-1 5v4l-1 5v5l-1 1 1 5 2 5-1 1h-1l-4 3-4 3-1 1v1l-5 2-4 1v-2l1-1 5-3 5-3v-1l-1-2-1-3-1-2-1-2-2-4-2-5-1-2v-2l-2-4-1-5-1-1-1-2-2-4-1-5-1-2-1-2-5-1-4-2-1-2v-7l1-6v-2l1-2 1-5 2-5-2-1-1-1-1 6v5l-1 2-1 1-3 3-3 3-1-2-1-2h-3l-1-1h-3l-2-1-1-2-1-2-3-3-2-4-2-1-1-1-2-3-1-3-3-1-3-2-1-1v-1l-3-4-3-4h-1l-1-1h-7l-7-1-2-1-1-1h3l1-2 2-3h-1l-1-1-7 1-6 1-1 1h-1l-6 1-6 1-1 1h-12l2-2 2-3-1 1h-1l-6 2-5 1-1 1h-1l-5 2-5 1-1 1-4 4-4 3-1 1-4 5-3 4v1h1l-4 4-3 4-1 1-5 3-4 2-1 1v1l-3 2-3 2-3 2-2 1-3 2-3 1-2 2-2 2-1 4-1 4v6l2 2 3 2 3 1 3 1 3 2 4 1h5l2 3 2 3-1 3v2l4 2 4 2h2l2-1h10l2 1h3l2 2 2 2 2 2 3 2 4 5 4 4 1 7 1 7-3-2-2-2-4 5-4 5-4 3-4 2-1 1-1 1-4 2-4 2-1-1v-1l-4-3-4-3 1 1 1 1 2 5 3 4v1l1 1 4 3 4 3h4l4-2 5-3h1l1-1 1-1 1-2 1-2 2-2 2-3 1 3 2 2 2 3 2 2h1v5l-3 2-3 2-2 2-2 2-3 3-2 2-2 2-1 2-2 4-1 3v4h21l1-3 2-4 1-1 1-1 1-3 2-3 1-1 1-1 5-2 5-2h1l1-1 5-2 5-2h1l2-1 5-1 5-2h1l2-1 5-1 6-2h1l2-1 5-1 5-2h1l2-1 1-1 2-2 3-1 3-1 3-1 3-2 2-1 3-2 2-2 3-2 2-1 3-2h2l3-1-3 2-2 1-3 2-2 2-3 2-2 1 3 1h7l1-1 2-1h3l4-1 2-1 2-1h1l1-1 6-2 7-2 6-1 6-2v-1l1-1 6-2 7-2h18l5-2 5-2h1l1-1 5-3 5-4 4-3 5-3h1l1-1 5-3 6-3h7l7-1 1 1h12l5-1h5l5 1h6l1 1 2 1 4 2 5 2 1 1 1 1 3 4 3 3 1 3 1 2v-2l1-3v-1l1-1 4 1h5v1l1 1h1l6-1 6-1 7-1 8-2 7 1 8 1 6-1 6-2 6-1 7-2 2-2 2-2 1-1 2-1h1l2-1 2 5 2 4-1 2v2l3 3 4 2 2 1h2l6 1h10l4-2 5-2 1-1 2-1 5-1 6-1h4l1 3 2 3-1 1v1l-1 1-4 5-4 4v1l1 1 4-5 4-5 3 4 3 3-5 4-5 4 1 1 2 1 6-2 6-3h1l1-1 3-1 3-2 2-1 2-1h4l5-1h5v1h1l1 1 1 1-4 3-3 2-2 1-2 1-3 3-2 3v4h2l2-1 2-1 2-1 1-1 1-2 2-3 3-4h1l5-2 6-3h1l-1 4v5l-4 4-4 4h-1l-3 3-2 3-1 3v2l2 4 2 4 1-2 1-3 2 4 3 3 5 4 5 3-2-2-1-2 5 1 5 1 4 1 5 1 6 3 6 3v11h694v-23h-1l-1-1h-1v-1l-3-2-3-3-2-2-1-2h1l2-1 2 1 3 1 2 1h2v-401h-5l-2-1-1-2-1-1-1-2 1 3 1 2 2 3 3 3-1 2-1 2-4-1-4-2-1-2-1-3-2-3-1-4-1-3v-3l-1-4-1-5-1 2v6l1 5v7l1 5 1 4 1 2 1 2 1 2 1 2 1 2 1 1-1 4v3l-1 3v3l-2 2-2 2v-4l1-7 2-7v-1l1-1h-7l-1-1-3-6-2-6-4-4-4-5-3-6-3-6-3-5-3-6-3-6-3-6-1-2v-3l-1-4-1-5 1-4 1-5 6 3 6 3 4 4 5 4 4 5 5 4 4 4 4 3 1 3 2 2 1 4 1 3 2 4 2 3 1 3 1 2 3 2 3 1V879l-3 1h-2l-1 1h-1l-2 4-2 4v-3l-1-1-1-1-1-6-1-6-1-1v-1l6-1 6-1h4V767l-1 1h-8l-6-1h-2l-1-1-6 1h-10l-7 1h-6l-1-2-1-3 7-2 7-2h17l7 1 8 1v1h3V564h-3l-3-1-5 1-5 1-2 1-2 1-4 1h-4l-1-1-1-1 1-2 1-2v3l2-1 3-2h1l2-1 4-1 4-2v-4l-3-3-3-3-1-1v-2l-2-5-1-5v-1l1-2v-5l1-6h-1l-2 6-1 5v4l-3-1-2-1v2l1 1 2 5 3 4 1 1 1 1-1 2v2h-2l-1-1-6-1-5-2h-3v-1l-3 1h-2v5l1 5 1 2 2 1 3 3 3 2v2l-1-1-1-2h-2l-2-1-3-2-3-2-2 2-2 1-4-2-3-2v-4h-2l-1-8-1-8-1-7-1-8-2-7-2-7-1 2-1 1v8l1 1 1 1-1 5v12l-1 5-1 4-1 3v2l-2 4-1 4h-3l-2-1-1-1v-2l-2-5-2-5h-1l-1-1-2-5-2-5h-1l-1-1-4-1-3-2-1-1-1-1-1-1-1-1-2-4-2-5-1-8v-9l1-7 2-7 2-3 2-4 2 6 2 5v1l-3 5-2 5v6l1 6v2l1 2 3 5 4 5 3-1 3-1-1-2-1-3-1-1-1-2-1-2-1-3-1-2v-8l1-6v-5l-1-5-1-6-2-1-1-1v-1l1-2-2-1-1-1-1-1-1-1-5-1-5-2 1-2 2-3 7 2 7 1 4 4 5 3h2l1 1 2 1 1 3 1 3 1 1 1 1 2 4 3 4v3h1l1 1h2l2 5 3 4v-3l-2-5-1-6h1l1-1-4-4-3-4h-1l-1-1-2-2-1-3-2-1-1-2-5-3-5-4h-1l-1-1-5-3-4-3v-1l-5-2-4-2h-33l-1 1h-1l-2 5-2 5v3l-2 3-1 3v3l1 6 2 5v3l-2 3-1 2-1-2v-2l-2-4-2-4-1-2v-3l-1-4-1-5-1-1v-2l-2-5-1-6-3-6-2-6-2-7-2-7-1-7-1-8-2-6-2-7v-1l-2-2-2-3-2-2-1-3-2-2-2-3-2-2-1-3-2-3-2-4-2-2-1-2v16l-2-2-1-2-2-2-1-3h-1l-1-1-4-4-4-5-5-4-5-4-5-1-5-2-3 5-2 5 2 3 2 3 1 3 1 3 2 7 2 6v12l1 2v1l1 1 2 7 2 6-1 8v8l-2 6-1 6v1l1 1-1 8v8l-1 2v2l-1 2v1l-2 3-1 3h-7v-1l-2-1-2-2-2-3-2-3-1-2-1-3-1-4-1-5v-5l1-4 1-4 2-1 2-2v-1l1-1 1-3 1-4v-2l1-3 1-3 1-4v-3l1-4v-7l-1-4v-5l-1-3-1-3-1-4v-5l-1-3v-3l-4-1-3-2v3l1 2v5l1 4v2l1 1 1 6 1 5v3l-1 7v9l-2 6-1 6-1 1h-1l-3 5-2 4-1 1v1l-3 5-2 5h-1l-1-1-1-3v-3l-1-2-1-3-1-1-1-2v-4l1-5-1-2v-8l1-6v-2l1-2-1-4v-13l-3-2-2-3-2 1-2 1-1 3-1 3v20l-1 6v5l1 1 1 1 2 5 2 4v2l1 1v7l-1-1-1-2-5-4-4-4-5-4-4-4-3-6-2-7 1-3 2-3 1-3 1-3 1-3 2-4 1-3 1-3-2-1-1-2-2 2-1 2-2 2-2 1-2 3-2 3-1 1v1l-3 4-3 3-5-4-4-4h-1l-1-1-6 1h-6l-4 5-3 5v3l-1 6-1 6v3l1 5 2 4 1 1h1l-4 1h-8l-3-1-3 1h-5l-1-1v-2h-1l-1-1-1-2v-2l-1-3-1-3-1-4-1-4-1-3v-11l1 3 2 2 1 4 1 4 1 2 2 2v2l1 2 1 1 2 1v-5l-1-2v-2l-1-2-1-3-1-3-1-3-1-3-1-4 1-2 2-3v-9h2l3-1-1-1-1-2-2-1-1-1-5-2-4-2h-4l-5-1-5-2-1-1-1-1h-6l-5-1h-2l-1-1h-13l-1 1-1 1-2 2-2 1h11l4-1-1 2-1 2-1 1-4 3-4 3-1 1h-7l-6-1h-29l-1 1h-1l-6 1h-6l-1-1-5 2-4 2-1 1-1 1-1 1v1l-5 3-4 3-4 5-4 4-1 1v1l-2 6-2 5-3 6-3 5-3 6-3 5-1 1v1l-3 5-2 5-5 4-5 3 1-4 2-4v-2l1-2-1-3v-3l-3 6-3 5-4 5-3 5v1l-2 3-1 2-1 4-1 3-3 6-3 6-1 8-1 7v8l1 8-1 8v7l1 8 1 7 1 8 2 7 1 7 2 7 3 6 3 5 2 5 3 5v1l1 1 4 5 4 4 5 4 6 3 4 4 5 4 3 6 3 5 4 5 4 5 4 4 5 4 6 3 6 3 2 3 3 2 2 1 3 1 1 2 2 1 3 2 3 1 1 3 1 2 1 4 2 4 1 2 1 2 2 3 3 3v1l1 1v5l1 5-6 3-5 3-5 4-4 4-6 4-5 3-6 3-6 2-6 4-5 3-5 4-5 3-5 4-4 4-4 6-3 5-5 4-4 3v1l-3 4-3 3-2 1-1 1-4 3-3 2-2 1-1 1-3 3-3 3-1 2-1 1-4 3-3 3-1 2-1 1-3 3-3 3-1 2-1 1-2 4-1 4-1 3-1 2-1 8-1 7-3 6-3 5v-3l1-3v-20l1-3v-4l1-4 1-2 2-2 1-3 2-4 2-1 2-2 2-3 2-4 1-2 1-2 2-2 2-2 1-1 1-2-2-1-1-1-4 3-4 2-1 1-1 1-3 4-3 3-2 1h-15l3-1 4-1v-2l1-3-5-3-5-4-7-1-7-1 6-1 7-1 6 2 7 2 6 2 6 2 4-4 5-4 4-4 5-5-2-5-2-6-2-6-2-7v7l1 6-2 5-1 5-3-6-3-6-4-1-3-1 3-5 4-5h-4l-3-1v-13l1-6 2-7-2-1-1-1v5l-1 1v11l-1 3-1 2h-3l-3-1h-1l-1 4-1 4h-1l-3-4-2-5-1 1-1 1-2 1h-1l-1-1v-1l-4-3-4-3h-1l-1-1-4-2-4-2-1 2v1l-4 3-4 3-1 1v1l-2 4-1 3-1 1-1 1-4 1-3 1-2-4-2-5-1-1v-1l5-1 5-2 4-4 4-5 2-3 3-4 2-1 2-1h7l-7 1h-7l-7 3-6 2-7-1-7-2-7-2-7-2-5-4-4-4-2-5-1-5-7-2-6-3-5 1h-7l-1-1v-2l1-2v-11l-2 2-2 1-2 4-1 3-3-1-2-1-3-1-3-1-3-1-3-2h-4l-3-1 2-1 3-2-1-1v-4l1-2h-4l-3-1-3 2-2 1 1-1 2-2-4-1-3-1-3-1-2-2-2-1-2-2-4-1-3-2-1-1-1-1h2l3-1 1 1h1l5 2 5 2h9l6-1h1l1-1 6-1 6-1h4v-1l1-1h-10l-5-1h-3l-6-1-6-1h-2l-1-1h-2l-1-1-2 1-2 1h-9l-5-1h-3l-3-1-3-1-3-2h-1l-5-4-5-4h-9l4 3 4 3 1 1 1 1 3 3 4 3 1 1 1 1 4 3 5 2 1 1h1l2 5 3 4 1 1 1 1-1 1v1l-3-2-3-3-2-1-2-2-3-2-3-2-3-1-2-1-3-2-3-3-2-1-1-2-1-1v-2l-3-4-2-5v-1l-1-2-1-2 5-2 6-3v-3l-7 1-6 1-1-4-1-4-2 1h-1l-1-1v-17h1l1-1 2 5 3 4h1l1-1-2-5-2-5v-1l1-1 1-5 1-6v-3l2-1 2-2 2-1 3-1 2-3 3-3v-1l1-1h-9l-4 5-3 5-3 3-2 2v-11l1-3v-4l1-5v-3l1-4 1-3 1-4v-8l-1-4v-8l1-3-1-2v-3l-1 4v3l-1 5v11l-1 5v4l-1 1-1 1-1-4v-7l1-4v-10l1-2 1-3-1-4v-5l-1-3v-4l-1-4-1-4-1-3v-16l1-4-1-4-1-5v-6h-2l-1 4v22l-1 3-1 3-1 4v18l1 3v3l1 3v5l1 4v56l1 3-1 4-1 4v3l1 3v22l1 4v25l-1 5v4l-3-4-3-4-1-2-1-3v-10h-1v-1l-2-2-2-3h-6l2-2 2-2 1 1h2l1 1h1l1-3 1-3-1-4-1-4v-7l-1-4v-55l-1-3v-4l-1-4v-12l-1-4v-17l1-4v-15l-1-1v-1l-2-4-1-4v22l-2 1-1 1-1-2v-3l-2-4-1-4-1-2-1-2-1 4-1 4-1-2-1-2-3-3-2-3h-6l-3 1h-3l2 1 3 1 4 1 5 1 1 2 1 2 2 4 2 3v3l1 2v10h-2l-1-1-2-3-2-4-2-1-2-1-4-2-3-2-3-1-2-1-5 1h-8l-2-1h-5l-5-1v3l1 2-4-2-4-2-1-2-1-2-3-2-3-3-1 1 1 4 1 3-1 2v2l1 5 1 4 1 2 1 2 1 4 2 4-2 1h-1l-3-3-3-3-2 1-2 1-1-4v-6l1-3-2-4-1-4-2 1h-2l-4 2-3 2-2 1-2 1 3 1 4 1-2 2-1 1v2h2l3-1-1 2v2l-2 1-2 1-4 2-3 2-2 2-1 2-1 5v5l-1 2-1 2 1 5 1 4v6h-4v-36l1-2v-5l1-5v-17l1-2-2 1h-2v4l-3-1-2-1v-4l-1-6v-11l-2-4-2-5v-7l1-4v-23l-1-2v-21l-1-5v-11l-1-5v-13l-1-3-1-4h-2v8l-1 5v16l1 4v59h1v1l1 1v2l1 2v71l1 4v38l1 6 1 6v27l1 7v20l1 8 2 7v32l1 8 1 8v43l1 8v50l1 1v4l-1 7v26l-1 6v26l-1 7v6l-2 3-1 2v-69l-1-2v-2l-1-5-1-6-1 1h-1l-2 5-1 4-1 2-1 1h-8l1-1 1-2 1-1 1-1 1-3 2-3v-2l1-2 1-5 1-5v-5l-1-4-1-5v4l-2 5-1 5-1 2v2l-2 5-1 4-1 2-1 1-2 5-2 4-2-1-1-2-1-2v-6l2-5 2-5 1-1 1-1-3 2-2 2-1 2v1l-3 3-2 2v1l1 1 1 6 2 5 1 1 1 1-3 1h-3v-1l1-2-3-3-2-4-1 1 1-3 1-4h-6l-1 1v1l-3 3-2 2h-2l-1-1-2 5-1 5-1-1v-2l1-4 2-5 1-1 1-1 1-3 2-3-2 1h-1l-4 2-3 1-1 1h-1l-3 5-2 4v2l1 1 1 5 2 5 1 1 1 1-1 1-1 1-1-1-1-1-1 3-1 2 1 1 1 1-3 2-3 1-1-3v-3l-1-1-1-2v-11l1-5v-5l1-4 2-4h-2l-3 3-2 3-2 2-2 1-3 2-3 2-1 3-1 2-1 1h-1v-2l1-3-1-3-1-4-1-4v-4l-1-4v-13l-1 1h-3l-2-1v-7l-1-4v-5l-1-3v-13l-1-3v-14l-1-3v-16l1-4v-17l-1-4-1-4v-3l-1-2v-19l-1-7v-27l-1-6v-42l-1-1v-1l-1-7v-10l-1-6-1-6v-3l-1-6v-41l-1-1v-20l-1-4v-39l-1-3v-4l-1-4v-4l-1-3v-14h-1l-1-1v30l1 7v10l1 8v26l1 8v8l1 8v35l1 8 1 7v26l1 8v31l1 1 1 1v40l1 4v24l1 5 1 4v12l1 5v58l1 8 1 8v52l1 7 2 7v26l1 8-1 9v16l1 8-3 5-2 5-1-6v-13l-1-2-1-2v-17l-1-4v-12l-1-4v-5l-1-3v-21l-1-4v-47l-1-4-1-4v-17l-1-3v-15l1-1v-22l-1-4v-22l-1-3v-4l-1-4v-12l-1-4v-22l-1-4v-13l-1-6-1-6v-20l-1-7v-27l-1-6-1-6v-38l-1-6-1-7v-3l-1-6v-28l-1-6v-7l-1-1v-18l-1-7v-10l-1-6v-28l-1-4v-12l-1-5-1-5-1 2v46l1 8v37l1 2v6l1 5v11l1 5v27l1 3v2l1 1v62l1 7v8l1 8v18l1 1v7l1 7v43l1 8v1l1 1-2 6-1 5-1-1v-1l-2-6-1-6-1 1v1h-3l-2-1v3l1 6 1 5h-3l-3-1h-3l-5-1-5-1-1 1h-1l-4 4-4 3v-3l1-3 2-1 2-2v-1l1-1 2-1 2-4 3-4v-6l-2 4-2 3-2 2-1 1-4 2-3 2h-2l-1-1 2-4 2-4v-2l1-3-3 2-2 2-2 2-1 1-3 1h-2l-2 1-2 1-2 4-2 3v-4l-2 2-2 1-1-1v-2l1-5 1-5-1 1-2 1h-2l-2 2-1 1-2 4-2 4 1-3 1-4 1-5 1-6v-7l1-8-2 7-2 6-4-2-3-3-2-6-2-7-2 7-1 7-3 4-3 4-2-1-1-1v-12l-3 6-3 5-2-4-2-5-5-2-4-3 4 5 4 4h-6l-5-3-5-4-4-5-3-5-3-5-3-5 1 7 2 7 2 7 3 6 3 4 3 3-7-1-7-2-3 7-2 6-2-5-1-5 1-4 1-5v-8l1-3-1-2v-3l-1-1v-2l-2-6-2-7-1-8-1-8 1-7 1-8-2-3-2-3v34l-1 8-1 8 1 8 1 7-1 9v8l-1 6v6l1 1 1 1 1 4 1 4v3l1 3-1 5v5l-1 3v18l1 4 1 4v8l-1 4-1 4-1 3v3l-1 4-1 4-1 3v3h-4l-3-1-1 1h-6l-4-1-2 1-1 1h-3l1-1 1-1 3-3 3-4v-1l1-1-5 1h-4 2l2-1 5-1 5-2 1-1 2-1 2-4 2-4v-2l1-2v-15l-2-4-2-5-1 2v2h-6v-5l-3-2-2-2v2l1 2v4l1 3v2l1 1-1 5v4l-1 1v1l-3 2-2 2-2 1-1 1-2 1-1 1h-10l-2-1-1-1v2l1 2 1 1 2 1 4 2 4 2v1l1 1-5 1h-5l-2-1-1-1-4-2-3-3-2-1-1-1-3-3-2-4-1-1-1-2-1-6v-12l-1 4-1 3 1 8 1 8 4 5 4 4 4 4 5 4v2l-6-2-6-3-2 2-2 2h-13l6 3 6 2 7 2 8 1 1 2 2 2h-9l-8-1-6-3-5-3h-6l-6-1v-2l1-3 4-4 5-4 1-5 1-5-4 2-4 1-3 3-2 3-2 2-1 1-2 2-2 2-1 1-1 1-1 1v1l-1 1v1l1 6 2 5v1l1 1-1 2v1l-2-2-2-2-2-2-2-3v-3l1-4 1-3 1-4h-3v-6l1-4h-5l-1-3-1-3v-4l1-5v-4h-5l-1 1-1 1h-2l-2-1v2l1 2 2 2 2 1v3l1 2 1 3 2 3v4l1 3-1 4-1 4-1 4v3l-1 2v2l-2 2-2 2-2-2-1-2-2-3-1-3-3-2-2-2-2-2-2-2h-5l-1-1v-4l1-5v-4l-2 3-2 2-2 3-1 2-2 3-2 2h-7l-4-1-3-1-3-1-2-2-3-1-3-2h-6l-1 1h-1l1 1 2 1 1 2 1 2h-2l-2-1-5-1-5-2-2 1h-1l-5 2-5 1-2 1h-2l-5 1H0v4h5l4-1-1 2-1 2 1 1h1l3-2 3-2 2-1 3-1 3-1 3-1-3 2-2 1-3 2-3 2-2 2-1 2-4 2-3 1-3 1H0v479h2l1 5 2 4v6l-2 3-2 2H0v131z" stroke-linejoin="round"/>
  <path fill="#292929" stroke="#292929" stroke-width=".7" d="M107 1440h11v-5l-1-1v-1l-4-3-3-4-1 2v1l-1 6-1 5z" stroke-linejoin="round"/>
  <path fill="#221d1d" stroke="#221d1d" stroke-width=".7" d="M130 1440h1l-1-7v-15l1-4v-2l-2-35-1-35v5l1 4-1 2-1 1h-1v-1l-1-1v-1 12l-1 4v4l-3 1h-2l2 1h2l1-1 2-1 1 3 1 3v3l1 3v5l1 5v6l-1 5v33l1 3z" stroke-linejoin="round"/>
  <path fill="#292929" stroke="#292929" stroke-width=".7" d="M131 1440h8v-1l2-1 3-1 2-2 2-2v-4l1-4 1-3 1-3v-10l-2-2-2-2-2-3-1-3-2-2-1-3-1-4v-16l1-5-1-3v-4l1-1 1-1 14 2 14 2-14-1-13-2 1 3 1 3v1l1 1 2 4 2 4 13 32 13 31h13l2-7 2-8v8l1 7h3l11-16 11-17-2-2-2-3-2-2-1-3-2 3-2 2-1 2-1 2-15-2-14-2-2-3-2-3-1-12v-13l-1-2v-3h9v-3l1-4h1l1-1 5 3 5 2v2h-1l4 2 4 1v3h-2v3l1 3v1l1 1-2 1-1 1-4 2-4 2-2 2-1 1h-5l-5-1-1-1-1-2h-6l1 4 1 3 1 1h1v-1l1-1 3 3 3 2 1 2 2 1h7l2-1 2-1 4-2 4-3 4-5 4-5 2 2 3 2-1-7-1-7-4-4-4-5-3-2-2-2-15-6-15-7-2-3-2-3h-5l-4-1-3-2-3-1-3-1-3-2-2-2v-6l1-4 1-4 2-2 2-2 3-1 3-2 2-1 3-2 3-2 3-2v-1l1-1 11-13 12-13 5-3 5-4 13-2 13-3 19-2 19-2 12 12 13 11 6 8 7 8 4 3 4 2h1l1 2 1 2 3-3 3-3 1-1 1-2v-5l1-6 1 1 2 1-2 5-1 5-1 2v2l-1 6v7l1 2 4 2 5 1 1 2 1 2 1 5 2 4 1 2 1 1 1 5 2 4v2l1 2 2 5 2 4 1 2 1 2 1 1 2 1 2-2 2-3v-2l1-3h1v-5l1-5v-4l1-5 1-6-1-1-1-1-1-5-1-6-1-1-1-2-3-4-2-4-1-1-1-1-3-4-2-4-1-1-1-2-3-4-2-4-1-1v-2l-3-3-3-4h-2l-1-1-3-3-3-4-1-1-1-2-3-3-3-4-1-1-1-1-4-3-3-3-2-1-1-1-2-4-2-5v-2l-3-4-2-4-1-1v-2l-4-2-3-2-2 1-1 1-5-2-4-2-1 2v1h-5l-5-1-2 1h-2l-4 3-4 2-2 1h-1l-3 4-2 4h-2l-5-2-4-2-1-1-1-2-5-1-4-1h-4l-3 3-2 3 3 12 3 12-16 11-15 11-27 20-27 20v14l1 6v4l1 35 2 35 6 1h6l-6 1h-6l-1 4v15l1 7z" stroke-linejoin="round"/>
  <path stroke="#000" stroke-width=".7" d="M139 1439v1h35l-1-3-1-4-2-2-1-2-2-4-1-4-1-2v-3l-2-4-1-4-1-2-1-3-2-4-1-4-1-2v-3l-1-4-1-5-2-1-1-2h-1v-1l-2-4-2-4-1-1v-1l-1-3-1-3h-1v-1l-1 1-1 1v4l1 3-1 5v16l1 4 1 3 2 2 1 3 2 3 2 2 2 2v10l-1 3-1 3-1 4v4l-2 2-2 2-3 1-2 1z" stroke-linejoin="round"/>
  <path fill="#221d1d" stroke="#221d1d" stroke-width=".7" d="M174 1440h2l-13-31-13-32v1h1l1 2 2 1 1 5 1 4v3l1 2 1 4 2 4 1 3 1 2 1 4 2 4v3l1 2 1 4 2 4 1 2 2 2 1 4 1 3z" stroke-linejoin="round"/>
  <path fill="#4e4d4d" stroke="#4e4d4d" stroke-width=".7" d="M189 1440h5l-1-7v-8l-2 8-2 7z" stroke-linejoin="round"/>
  <path fill="#221d1d" stroke="#221d1d" stroke-width=".7" d="M197 1440h2v-4l1-3 2-4 1-2 2-2 2-2 3-3 2-2 2-2 3-2 3-2v-5h-1l-11 17-11 16z" stroke-linejoin="round"/>
  <path fill="#d0cecf" stroke="#d0cecf" stroke-width=".7" d="M220 1440h2l15-9 15-10 20-6 20-6 16-8 17-8h-4l-7 2-6 2-7 2-6 2-2 1h-1l-5 2-5 1-2 1h-1l-6 2-5 1-2 1h-1l-5 2-5 1-2 1h-1l-5 2-5 2-1 1h-1l-5 2-5 2-1 1-1 1-2 3-1 3-1 1-1 1-2 4-1 3z" stroke-linejoin="round"/>
  <path fill="#fefefe" stroke="#fefefe" stroke-width=".7" d="M222 1440h96l13-9 14-9 12-3 12-3 15-11 15-12-15-2-14-3-18 1-17 1-4 1h-3l-2 1-1 1-17 8-16 8-20 6-20 6-15 10-15 9z" stroke-linejoin="round"/>
  <path fill="#d0cecf" stroke="#d0cecf" stroke-width=".7" d="M318 1440h5l14-9 14-10 15-3 15-4 27-11 27-11 1 1h2l2-1 2-2 14-4 14-4 2-3 3-3-6-13-5-14h-7l-1-1-7 1h-7l-6 3-5 3-1 1h-1l-5 3-4 3-5 4-5 3-1 1h-1l-5 2-5 2h-18l-7 2-6 2-1 1v1l-6 2-6 1-7 2-6 2-1 1h-1l-2 1-2 1 17-1 18-1 14 3 15 2-15 12-15 11-12 3-12 3-14 9-13 9z" stroke-linejoin="round"/>
  <path fill="#b29aa0" stroke="#b29aa0" stroke-width=".7" d="M323 1440h32l7-8 8-9 12-7 12-7 18-7 18-8 2-1 3-1-27 11-27 11-15 4-15 3-14 10-14 9z" stroke-linejoin="round"/>
  <path fill="#767676" stroke="#767676" stroke-width=".7" d="M355 1440h10v-4l1-1 3-4 3-5 1-1 3 3 3 3v1h1l2 1h2l1-1 2-2 12-11 12-11 10 5 11 4h1l1-1 1-2 2-2 1-3 2-4 1-3 1-3 2-2 3-3v-5l-2 1h-3l-1 3v2l-1 2v1l-3 4-3 3h-2l-1-1v-4l-1-3v-3l-18 8-18 7-12 7-12 7-8 9-7 8z" stroke-linejoin="round"/>
  <path fill="#4e4d4d" stroke="#4e4d4d" stroke-width=".7" d="M365 1440h16v-1l1-3 2-3h-2l-2-1h-1v-1l-3-3-3-3-1 1-3 5-3 4-1 1v4z" stroke-linejoin="round"/>
  <path stroke="#000" stroke-width=".7" d="M381 1439v1h161l1-5 1-5 2-6 3-6 2-6 3-6-5-1-5-1-5 4-4 4v-5l1-6-3 1-2 1-7 2-6 2-7 2-7 2h-3l-4 1h-9l-6 1h-11l-5 1h-6l-2-1-4 1-4 1-1-2v-2l-2-2-1-2 1-4 1-5-1-2v-2l-3 3-2 2-1 3-1 3-2 4-1 3-2 2-1 2-1 1h-1l-1 3-1 2h-5l-1-3v-4h-3l-3-1-2 3-2 2-3 1-2 1-4 1h-3l-2 3-2 2-3 1-2 1-3 1h-3l-2 2-1 1-2 3-1 3z" stroke-linejoin="round"/>
  <path fill="#221d1d" stroke="#221d1d" stroke-width=".7" d="M542 1440h2l6-18 6-19-9-1-9-2-19 6-18 5h3l7-2 7-2 6-2 7-2 2-1 3-1-1 6v5l4-4 5-4 5 1 5 1-3 6-2 6-3 6-2 6-1 5-1 5z" stroke-linejoin="round"/>
  <path fill="#292929" stroke="#292929" stroke-width=".7" d="M544 1440h1l21-18 22-19-11-4-11-5-13-2-12-3 3-6 4-7 19-6 19-6 16 5 16 4 13 9 14 9v-1l1-2 1-1 2-5 2-6h1l1-1 4-3 4-3v-1l1-1-2-3-1-3h-4l-6 1-5 1-2 1-1 1-5 2-4 2h-10l-6-1h-2l-2-1-4-2-3-3v-2l1-2-2-4-2-5-2 1h-1l-2 1-1 1-36 7-35 6h-1l-1-1v-1h-5l-4-1-1 1v1l-1 3v2l1 4 2 4-15 14-15 13-2-1-1-2-4 2-4 1-6 2-5 2 3-4 3-4-2 1h-1l-6 2-5 1-1-4-1-4v-5l-1-1v-2l-3 1h-2v7l1 2-1 5-1 4 1 2 2 2h52l18-5 19-6 9 2 9 1-6 19-6 18z" stroke-linejoin="round"/>
  <path fill="#221d1d" stroke="#221d1d" stroke-width=".7" d="M545 1440h2v-1l2-2 3-2v-1l1-2 2-4 3-4 1-1 1-2v5l-1 1-1 1v4l1 4 1-1 1-1 3-4 3-4v-1l3-5 4-5h4l4-1 2-1 3-2 1-1 1-1 3-1 4-1h-3l-2 1h-1l-5 2-4 2-2 1h-1l-5 2-5 1h-2l1-1 2-1 3-1 3-2 2-1 3-2 3-1 4-1 2-1 2-1h-2l-1-1-22 19-21 18z" stroke-linejoin="round"/>
  <path stroke="#000" stroke-width=".7" d="M547 1439v1h20v-5l1-4v-1l1-1 3-3 4-4 1-1 1-1-4 1-3 1-1 1-1 1-1 1h-1v1l-3 4-3 4-1 1-1 1-1-4v-4l1-1 1-1v-5l-1 2-1 1-3 4-2 4-1 2v1l-3 2-2 2z" stroke-linejoin="round"/>
  <path fill="#221d1d" stroke="#221d1d" stroke-width=".7" d="M567 1439v1h1l7-13 7-13-3 2-3 2-2 1-1 1-3 3-3 2h1l1-1 1-1 1-1 3-1 4-1-1 1-1 1-4 4-3 3-1 1v1l-1 4v4z" stroke-linejoin="round"/>
  <path fill="#292929" stroke="#292929" stroke-width=".7" d="M568 1440h76l3-2 4-2 1-2 1-3 1-5 1-6-12 2-11 1 8-6 8-6-9-5-8-6-12-1-12-2-3 3-2 2-1 2-1 1-2 1-2 1-4 1-3 1-1 1-1 1-3 2-2 1-7 13-7 13z" stroke-linejoin="round"/>
  <path fill="#221d1d" stroke="#221d1d" stroke-width=".7" d="M583 1440h1v-1l2-5 2-5h1l4-4 4-4 1-1 3-2 3-2v1l-1 7v8l1 4 2 4h1-24z" stroke-linejoin="round"/>
  <path stroke="#000" stroke-width=".7" d="M584 1439v1h22l-2-4-1-4v-8l1-7v-1l-3 2-3 2-1 1-4 4-4 4h-1l-2 5-2 5z" stroke-linejoin="round"/>
  <path fill="#4e4d4d" stroke="#4e4d4d" stroke-width=".7" d="M644 1440h16l16-10 16-10-5 10-4 10h34l-13-13-12-14v-3l1-3 1-2 2-2 2-6 2-6h-2l-1-1h-2l-1 2-1 1-2 1-2 1-17 13-17 12-1 6-1 5-1 3-1 2-4 2-3 2z" stroke-linejoin="round"/>
  <path fill="#767676" stroke="#767676" stroke-width=".7" d="M660 1440h23l4-10 5-10-16 10-16 10z" stroke-linejoin="round"/>
  <path fill="#292929" stroke="#292929" stroke-width=".7" d="M717 1440h28l-27-13-26-14 12 14 13 13z" stroke-linejoin="round"/>
  <path fill="#221d1d" stroke="#221d1d" stroke-width=".7" d="M745 1440h1v-11l-6-3-6-3-5-1-4-1-5-1-5-1 1 2 2 2-5-3-5-4-3-3-2-4-1 3-1 2-2-4-2-4v-2l1-3-1 1-1 1-2 2-1 2-1 3v3l26 14 27 13z" stroke-linejoin="round"/>
  <path fill="#292929" stroke="#292929" stroke-width=".7" d="M567 1425l6-5 1-1 2-1 3-2 3-2-4 1h-4l-4 5-3 5zm-174 4l5-2 2-2 2-3h3l4-1 2-1 3-1 2-2 2-3 3 1h3v4l1 3h5l1-2 1-3-11-4-10-5-12 11-12 11h3l3-1z" stroke-linejoin="round"/>
  <path fill="#221d1d" stroke="#221d1d" stroke-width=".7" d="M655 1420l34-25-2 1h-2v-4l2-3 3-3 2-1 2-1 3-2 4-3-1-1-1-1-17 13-16 13-1 1-1 1-3 3-3 3h-3l-2-1-3 1h-2l-8 6-8 6 11-1 12-2z" stroke-linejoin="round"/>
  <path fill="#292929" stroke="#292929" stroke-width=".7" d="M1402 1425l3-10-2-7-1-7-3-1-3-1 1 7 2 7 1 6 2 6z" stroke-linejoin="round"/>
  <path fill="#4e4d4d" stroke="#4e4d4d" stroke-width=".7" d="M143 1413l-12-1v2h6l6-1z" stroke-linejoin="round"/>
  <path fill="#37231d" stroke="#37231d" stroke-width=".7" d="M965 1422l8-7-3-4-2-4-7-2-6-3-4 5-4 4 5 4 5 4 4 2 4 1z" stroke-linejoin="round"/>
  <path fill="#4e4d4d" stroke="#4e4d4d" stroke-width=".7" d="M177 1417l-2-7h-7l4 4 5 3z" stroke-linejoin="round"/>
  <path stroke="#000" stroke-width=".7" d="M566 1416h2l5-1 5-2h1l2-1 4-2 5-2h1l2-1h3l2-1 2-1 1-1 1-2 2-2 3-3-1 1h-1l-5 2-4 2-2 1-1 1h-2l-2 1-2 1-4 1-3 1-3 2-2 1-3 2-3 1-2 1-1 1z" stroke-linejoin="round"/>
  <path fill="#292929" stroke="#292929" stroke-width=".7" d="M1438 1416l2 1v-9h-2l-2-1-3-1-2-1-2 1h-1l1 2 2 2 3 3 3 2v1h1z" stroke-linejoin="round"/>
  <path fill="#221d1d" stroke="#221d1d" stroke-width=".7" d="M450 1415l8-2 2 1h6l5-1h11l6-1h9l4-1h-52v2l1 2zm-244-9l-1 1-1 1h-1l-5 3-4 2h-4l-4-3-4-3-1-1v-1l-3-4-2-5-1-1-1-1 4 3 4 3v1l1 1 4-2 4-2 1-1 1-1-2 1-2 1h-7l-2-1-1-2-3-2-3-3-1 1v3l1 2 2 3 2 3 14 2 15 2z" stroke-linejoin="round"/>
  <path fill="#4e4d4d" stroke="#4e4d4d" stroke-width=".7" d="M648 1411l5-1 2 1h3l3-3 3-3 1-1 1-1v-3l-5-2-4-3h-6l-4 2-3 1v-3l1-4-14-9-13-9-16-4-16-5-19 6-19 6-4 7-3 6 12 3 13 2 11 5 11 4 1 1h4l1-1 2-1 4-2 5-2h1l1-1 12 2 12 1 8 6 9 5z" stroke-linejoin="round"/>
  <path fill="#221d1d" stroke="#221d1d" stroke-width=".7" d="M187 1408l13-2 4-4 4-5-3 1h-2l-5 4-4 4-4 1-3 1zm276 0l11-4 4-1 4-2v-1l1-2-6-1-6-1-1 1-1 1v2l-3 4-3 4z" stroke-linejoin="round"/>
  <path fill="#292929" stroke="#292929" stroke-width=".7" d="M98 1405l8-7-1-7-1-8-5-1-5-1-2 1h-2l1 7 1 7 3 5 3 4z" stroke-linejoin="round"/>
  <path fill="#a3a2a3" stroke="#a3a2a3" stroke-width=".7" d="M431 1404l3 1 3-3 3-4v-1l1-2v-2l1-3-2 2-2 1h-2l-1-1-3 1-2 1v3l1 3v4z" stroke-linejoin="round"/>
  <path fill="#4e4d4d" stroke="#4e4d4d" stroke-width=".7" d="M455 1404l11-3h1l2-1v-2l1-1 1-1-2 1h-1l-1 1-7 1h-6l-1-1v-2l1 4 1 4zm60-27v1l-22 9-22 9 6 1 6 1-1 2v1l1 2 2 1 15-13 15-14zm-342 19l-1-4h-1l-1-1-1-3-1-4h6l4-1 4-1h3l3-1 4-1 4-1 1-1 2-1-1-3v-3h-3l-2-1-3 1h-18v13l1 12z" stroke-linejoin="round"/>
  <path fill="#292929" stroke="#292929" stroke-width=".7" d="M666 1403l33-26h-1v-1h-5l-5 1h-4l-2 1-2 1-3 2-3 1-2 2-2 2-2 1-2 1-4 2-4 1-2 1-2 1-2 1-1 1h6l4 3 5 2v3zm30 0l2-2 2-3 3-3h1l4-4 4-4v-5l1-4h-1l-6 3-5 2h-1l-3 4-2 3h2l1 1h2l-2 6-2 6z" stroke-linejoin="round"/>
  <path fill="#221d1d" stroke="#221d1d" stroke-width=".7" d="M295 1401l13-4 6-2 7-2h-3l-3-1 2-1 3-2 2-2 3-2 2-1 3-2-3 1h-2l-3 2-2 1-3 2-2 2-3 2-2 1-3 2-3 1-3 1-3 1-2 2-1 1z" stroke-linejoin="round"/>
  <path fill="#767676" stroke="#767676" stroke-width=".7" d="M467 1398l1-1h1l2-1 22-9 22-9-19 1-19 1-1 2-1 1-3 4-3 3-1 1-1 1-5 1-4 1-1-1-1-2h-1v-1l-2-1-1-1v2l1 1v7l1 1h6l7-1z" stroke-linejoin="round"/>
  <path fill="#221d1d" stroke="#221d1d" stroke-width=".7" d="M644 1398l7-3 1-1 2-1 2-1 2-1 4-1 4-2 2-1 2-1 2-2 2-2-1 1h-1l-6 3-6 2-2-1-1-1 5-4 5-4-3-3-3-4-4 5-4 5-1-1v-1l4-4 4-5 1-1-4 3-4 3-1 1h-1l-2 6-2 5-1 1-1 2v1l-1 4v3z" stroke-linejoin="round"/>
  <path fill="#b29aa0" stroke="#b29aa0" stroke-width=".7" d="M458 1394l9-2 1-1 1-1 3-3 3-4 1-1 1-2-1-2-1-2-3 3-2 3-14 4-14 4h3l2-1h2l3-1 1 1 2 1v1h1l1 2 1 1z" stroke-linejoin="round"/>
  <path fill="#767676" stroke="#767676" stroke-width=".7" d="M597 1393l11-2 6-2 6-3 4-3 4-3-6 1-5 1-7-1-7-1-3 6-3 5v2z" stroke-linejoin="round"/>
  <path fill="#a3a2a3" stroke="#a3a2a3" stroke-width=".7" d="M515 1378v-1l-2-4-1-4-1-2-1-3-3-3-3-4-1-1-1-1-5-2-4-2-2-1-1-1h-6l-5-1h-5l-5 1h-5l5 14 6 13 1 2 1 2 19-1 19-1z" stroke-linejoin="round"/>
  <path stroke="#000" stroke-width=".7" d="M176 1387l10 1 1-1 2-2 4-2 4-2 1-1 2-1-1-1v-1l-2 1-1 1-4 1-4 1-3 1h-3l-4 1-4 1 1 2 1 1z" stroke-linejoin="round"/>
  <path fill="#292929" stroke="#292929" stroke-width=".7" d="M653 1386l9-6 1-4 2-4-5 4-5 4-1 3-1 3z" stroke-linejoin="round"/>
  <path fill="#fefefe" stroke="#fefefe" stroke-width=".7" d="M448 1376l-3-23-16 11-15 10 17 1 17 1z" stroke-linejoin="round"/>
  <path fill="#221d1d" stroke="#221d1d" stroke-width=".7" d="M308 1383l13-2 5-3 5-4 2-2 2-2-6 3-6 2-6 3-6 3-2 1-1 1z" stroke-linejoin="round"/>
  <path fill="#292929" stroke="#292929" stroke-width=".7" d="M887 1381l10-1 2-4 2-5 1-3 2-3-3-2-3-2-4-5-3-6h-2l-1-1h-4v-3h-3l-2 1h-2l-1-1h-3l1 2 1 1 4 4 5 4v16l1 4 2 4z" stroke-linejoin="round"/>
  <path fill="#d0cecf" stroke="#d0cecf" stroke-width=".7" d="M490 1379l11-4 2-6 2-7-5 2-5 2-3 6-2 6v1z" stroke-linejoin="round"/>
  <path fill="#221d1d" stroke="#221d1d" stroke-width=".7" d="M337 1377l9-3v-1l1-1 4-3 4-3h1l1-1-2-5-1-5 1-1h-1l-1 3v2l-2 3-2 2-2-1-1-1 1 3 1 2v1l-5 3-5 3-1 1v2z" stroke-linejoin="round"/>
  <path fill="#292929" stroke="#292929" stroke-width=".7" d="M914 1376h15l5-3 6-3 2-3 3-3-3 1h-3l-6 2-6 1h-7l1 2 1 2-7 1h-6l2 2 3 1zm-116-8l-5-12-2-2-2-2-3 2-3 2h-1v-1l-1-1v-1l-2-4-2-4-1-1-1-2 2-4 2-4-4 5-4 4 10 16 11 15 3-3 3-3zm14 4l5-10-2-6-2-7-4-5-3-6h-2v1l-3 4-3 4h-2l2 5 3 5 3 6 4 5 2 2 2 2z" stroke-linejoin="round"/>
  <path fill="#221d1d" stroke="#221d1d" stroke-width=".7" d="M1019 1372l16 1 6-2 6-3-5-4-5-4h-15l-2 1h-1 15l6 2 6 2v2l-5 3-5 2h-17z" stroke-linejoin="round"/>
  <path fill="#292929" stroke="#292929" stroke-width=".7" d="M119 1372l5-1v-4l1-4v-7l-2 2-2 2h-1l-1-1-2-5-1-6h4l4-1v-5l-1-1-1-1-3-1-3-1-1-1v-1l-3-4-2-5-1-1v-2l-3-4-2-4-1 2v3l1 1 2 5 2 5v2l1 1 1 6 1 5v4l1 5 2 5v2l1 2 2 4 2 4zm899-1l1 1h17l5-2 5-3v-2l-6-2-6-2h-17v10h1z" stroke-linejoin="round"/>
  <path fill="#221d1d" stroke="#221d1d" stroke-width=".7" d="M172 1371h18l3-1 2 1h5v-3l-4-1-4-2h-5l-4 1h-12v3l1 2z" stroke-linejoin="round"/>
  <path fill="#4e4d4d" stroke="#4e4d4d" stroke-width=".7" d="M170 1364l-28-4v1h1l13 2 14 1zm769 1l6-1 19-8 19-8 1-1 2-2v-1l1-1h-6l-30 13-30 12h6l6-1 6-2z" stroke-linejoin="round"/>
  <path fill="#767676" stroke="#767676" stroke-width=".7" d="M920 1368h1l30-12 30-13v-2l16-8 16-8 6-16 7-17 12-20 12-20-16-12-15-13-18-8-17-9-5-1-4-2 14 9 15 9 16 11 16 10-3 16-2 15-10 16-10 16-19 7-19 7-14 12-14 12-26-1-26-1-1 3-1 2 3 6 4 5 3 2 3 2 3 1h3l5 1 5 1z" stroke-linejoin="round"/>
  <path fill="#221d1d" stroke="#221d1d" stroke-width=".7" d="M596 1352l-4 4-7 2-6 1-6 2-6 1-8-1-7-1-8 2-7 1-6 1-6 1 35-6 36-7z" stroke-linejoin="round"/>
  <path fill="#4e4d4d" stroke="#4e4d4d" stroke-width=".7" d="M180 1366l7-1h6v-2l-5-2-5-3-1 1h-1l-1 4v3z" stroke-linejoin="round"/>
  <path fill="#292929" stroke="#292929" stroke-width=".7" d="M975 1363l15-2h5l5-1 20-9 20-10 1-20 1-20-5 14-5 14-23 12-23 11-4 1-4 1-6 3-6 3 4 2 5 1z" stroke-linejoin="round"/>
  <path fill="#a3a2a3" stroke="#a3a2a3" stroke-width=".7" d="M945 1347l28-24 19-7 19-7 10-16 10-16 2-15 3-16-16-10-16-11-15-9-14-9-5-3-5-3-4-1-3-1 16 12 16 11 15 11 15 11v31l-28 14-27 13-8-30-7-31v2l1 1-1 2-1 1h-1l-17 18-17 18-2 1h-1l-1 1h-1l-5 2-4 2 11 9 12 9-4 8-3 8-3 3-3 2-2 1-1 1-2 2-1 1-2 2-1 1-3 3-3 2-1 2-1 2 26 1 26 1z" stroke-linejoin="round"/>
  <path fill="#292929" stroke="#292929" stroke-width=".7" d="M860 1360l7-6-4-5-3-5-3 4-3 4 3 4 3 4z" stroke-linejoin="round"/>
  <path fill="#4e4d4d" stroke="#4e4d4d" stroke-width=".7" d="M119 1359l2 1 2-2 2-2v-6l-1-1v-2l-4 1h-4l1 6 2 5z" stroke-linejoin="round"/>
  <path fill="#221d1d" stroke="#221d1d" stroke-width=".7" d="M1000 1360l37-14 2-19 3-20-1-5-1-5-4-2-4-2-3 3-3 3 1 8 2 7v8l1-3 1-4v-3l1 3 1 3 1 1 1 1-2 4-2 4-1 1v1l-5 2-5 2h-1l-1-1 1-1 1-1h-4l-1 2v2l-2 1-2 1-5 1h-5l-2 1-2 1-4 2-3 2-2 1h-2l-2 2-1 1 12-2 13-2-11 4-11 4 23-11 23-12 5-14 5-14-1 20-1 20-20 10-20 9zm-801-2l-4-4h-3l-2-1h-10l-2 1h-2l-4-2-4-2v-2l1-3 15 7 15 6z" stroke-linejoin="round"/>
  <path fill="#4e4d4d" stroke="#4e4d4d" stroke-width=".7" d="M782 1355l1 1 3-2 3-2-2-1-1-1-2-6-2-7-2-1-1-2-2 4-2 4 1 2 1 1 2 4 2 4v1l1 1z" stroke-linejoin="round"/>
  <path stroke="#000" stroke-width=".7" d="M127 1354l2-3-1-4v-9l-1-6v-14l-3 3-2 2v17l1 1 1 1v7l1 1v2l1 1v1h1z" stroke-linejoin="round"/>
  <path fill="#292929" stroke="#292929" stroke-width=".7" d="M87 1319l-7-41-6-10-6-10-3-6-2-7-3 6-2 5 5 21 5 21 3 22 3 22 1 1 1 1 5-12 6-13z" stroke-linejoin="round"/>
  <path fill="#d0cecf" stroke="#d0cecf" stroke-width=".7" d="M939 1337l8-22-17 9-17 9 13 2 13 2z" stroke-linejoin="round"/>
  <path stroke="#000" stroke-width=".7" d="M888 1349l3 1 1-2 1-3 1-2 1-2 3-2 3-3 1-1 2-2 1-1 2-2v-7l-1-1-1-2-4 2-4 1-1 1-1 1-1 1-1 1-1 1v1l-2 3-2 3-2 2-2 2v10h4z" stroke-linejoin="round"/>
  <path fill="#4e4d4d" stroke="#4e4d4d" stroke-width=".7" d="M878 1347l3-1h3v-7h-14l-3-3-2-3v3l1 3 3 4 4 3h3l1 1h1zm-82-1v1h2l3-4 3-4v-1l-3-5-3-5-3-6-3-6-2-2-2-2-2 1h-1l-2 1-1 1v5l1 4 1 3 1 2 3 6 4 5 2 3 2 3z" stroke-linejoin="round"/>
  <path fill="#292929" stroke="#292929" stroke-width=".7" d="M819 1344l12-3v-8l1-8-1-2-1-3-2 4-2 3v2l-6 2-5 2 2 6 2 5zm167 1l4-1 3-2 4-2 2-1 2-1h5l5-1 2-1 2-1v-2l1-2-2-1-1-1-16 6-16 6v2h6l-1 1v1z" stroke-linejoin="round"/>
  <path fill="#221d1d" stroke="#221d1d" stroke-width=".7" d="M74 1342l-6-44-5-21-5-21 2-5 3-6-19-5-19-5-3 1-3 1h-2l-1-1-2-1-1-1-3-3-3-3v-2l1-2 1-2 1-2 10 11 11 11-4 1-4 1 11 4 11 3-1 1v9l1 2h1l5 4 6 4 6 19 6 19 2 17 3 16z" stroke-linejoin="round"/>
  <path fill="#4e4d4d" stroke="#4e4d4d" stroke-width=".7" d="M122 1340v-17l2-2 3-3 27-20 27-20 15-11 16-11-3-12-3-12-1 2v1l-1 1h-1l-4 3-4 3-1 1h-1l-6 2-5 2-1 1h-1l-4-1-4-1h-3l-14 7-13 7-5 1h-4l-1 1h-1l-2 1-1 1-4 2-3 2-2 2-1 1-3 3-3 3-2 1-2 1-4 2-4 1-1 2-1 2-1 6v10l1 1 1 1 10-14 11-14 12-6 13-7 10-1 10-1-8 14-8 14-11 10-11 10-14-2-14-2 1 3 1 2 1 3 2 3 2 4 3 4v2l1 1 2 5 3 4v1l1 1 3 1 3 1z" stroke-linejoin="round"/>
  <path fill="#767676" stroke="#767676" stroke-width=".7" d="M883 1339h1l2-2 2-2 2-3 2-3v-1l1-1 8-5 9-5 3 3 3 3 3-8 4-8-12-9-11-9v-1h-1v-1l1-3 2-3 2-1 3-2v-1l1-2v-1l1-2v-9l-1-1v-2l1-2 2-3 1-3 2-4 1-1 1-1 4-2 5-2h1l2-1 4 1 4 1h3l1 4 2 3-1 2-1 1-1 1v1l-1 2-1 1-3 4-2 3-1 2-1 1-4 3-3 3-1 2-1 1-4 3-3 2v1l17-18 17-18-1-2v-2l-4-1-3-1-3-1-3-1-4-1-3-1h-6l-12 16-12 15-11 2-11 1 12-14 12-14-17 1-16 1-2 1-2 1-1 1h-1l-3 1-2 1-2 3-1 2-1 1-5 2-4 1 2 1h8l1-1 3-2 3-2h1l1-1 5-2 5-2h3l4-1 5-2 5-1 6-1-13 13-13 13-3 4-3 3-1 17-1 16h8l-2 11-1 11 2 3 3 3h13z" stroke-linejoin="round"/>
  <path fill="#4e4d4d" stroke="#4e4d4d" stroke-width=".7" d="M981 1341l32-12 1 1 2 1h4l3-1 3-1 1-1 1-2v-2l1-2v-8l-2-7-1-8 3-3 3-3 10-17 11-18-2-3-1-3-12 20-12 20-7 17-6 16-16 8-16 8z" stroke-linejoin="round"/>
  <path fill="#a3a2a3" stroke="#a3a2a3" stroke-width=".7" d="M870 1334l10-5 3-5 4-5 2-7 2-7h-9l-4 5-4 4-4 6-3 5 1 5 2 4z" stroke-linejoin="round"/>
  <path stroke="#000" stroke-width=".7" d="M1018 1333l2 1 5-2 5-2v-1l1-1 2-4 2-4-1-1-1-1-1-3-1-3v3l-1 4-1 3-1 2v2l-1 2-1 1-3 1-3 1-1 1-1 1z" stroke-linejoin="round"/>
  <path fill="#4e4d4d" stroke="#4e4d4d" stroke-width=".7" d="M815 1333l11-4v-2l2-3 2-4-7-20-6-21v-2l-5-4-5-5 3-6 4-7-5 7-4 7-4 2-3 1-3 9-2 9-6-5-6-5 12 15 12 14 5 12 5 12zm92-4v1l1-1 2-1 3-2 3-3-3-3-3-3-9 5-8 5 1-1 1-1 1-1 1-1 4-1 4-2 1 2 1 1v6z" stroke-linejoin="round"/>
  <path fill="#221d1d" stroke="#221d1d" stroke-width=".7" d="M22 1325l16 1-1-5v-5l-4 2-4 1h7v2l1 2-4 1-4 1h-3l-3-1 2-1 3-2 1-1v-1l-4 3-3 3z" stroke-linejoin="round"/>
  <path fill="#292929" stroke="#292929" stroke-width=".7" d="M23 1324l6 1 4-1 4-1-1-2v-2h-7v1l-1 1-3 2-2 1zm759-1l1 1-1-4v-5l1-1 2-1h1l2-1-3-4-2-4-4-5-4-5-3-6-2-6h-1l-1-1-1 7v6h-1l-1-1-1-1v-1l-2-1-2-2v2l1 2 2 6 3 6 4 5 4 5 4 5 4 4z" stroke-linejoin="round"/>
  <path fill="#221d1d" stroke="#221d1d" stroke-width=".7" d="M34 1305l7-10 1-3 2-4-1 1h-1l-7 8-6 8v-25l-1-3v-4l-1 8-1 7 1 8 1 7 3 1 3 1z" stroke-linejoin="round"/>
  <path fill="#767676" stroke="#767676" stroke-width=".7" d="M127 1309l22-20 8-14 8-14-10 1-10 1-13 7-12 6-11 14-10 14v1l14 2 14 2z" stroke-linejoin="round"/>
  <path fill="#4e4d4d" stroke="#4e4d4d" stroke-width=".7" d="M859 1314l9-3h-8l1-16 1-17-2 2-2 1-4 5-4 5-2 7-2 6 4 5 4 5h5z" stroke-linejoin="round"/>
  <path fill="#292929" stroke="#292929" stroke-width=".7" d="M42 1289l-3 2-4-3-3-3-2-2-1-3v25l6-8 7-8z" stroke-linejoin="round"/>
  <path fill="#d0cecf" stroke="#d0cecf" stroke-width=".7" d="M1020 1275v-31l-15-11-15-11-16-11-16-12-4-3-3-4-4-1-3-1-16 2-16 1-18 9-17 8-22 5-21 4-3 12-3 11h3l3 2 3 2h7l3-1 4-2h3l3-1h4l15-9 16-10 17 5 18 5h4l2 1h3l4 2 5 1 1 1 2 1 1 1 1 1 7 31 8 30 27-13 28-14z" stroke-linejoin="round"/>
  <path fill="#292929" stroke="#292929" stroke-width=".7" d="M1 1308l4-5v-6l-2-4-1-5H0v20h1z" stroke-linejoin="round"/>
  <path fill="#d0cecf" stroke="#d0cecf" stroke-width=".7" d="M905 1304l4-9-5-1-4-1 2 6 3 5z" stroke-linejoin="round"/>
  <path fill="#221d1d" stroke="#221d1d" stroke-width=".7" d="M306 1301l3 1-4-2-4-3-7-8-6-8 1 3 2 3 1 1 2 1 2 4 3 3 1 2 1 2 2 1h3zm-140-1l9-5 1-1 3-4 4-4h-1v-1l3-4 4-5 1-1 4-3 4-4 1-1-5 4-5 3-12 13-11 13z" stroke-linejoin="round"/>
  <path fill="#a3a2a3" stroke="#a3a2a3" stroke-width=".7" d="M897 1268l24-31 3-2 3-2-18-5-17-5-16 10-15 9 2 2 3 1 16-1 17-1-12 14-12 14 11-1 11-2z" stroke-linejoin="round"/>
  <path fill="#292929" stroke="#292929" stroke-width=".7" d="M858 1268v-3l-5 1-5 1h-1l-1-1h-4l-1-1h-1l-4 7-3 6 12-5 13-5z" stroke-linejoin="round"/>
  <path fill="#767676" stroke="#767676" stroke-width=".7" d="M798 1272v-13l2-6 2-7 6-1 7-1 6 3 6 3 1-1 1-1-1-2v-3l-28 10-28 10 8-14 8-14-11 15-10 14 7 8 7 8 6 5 6 5 2-9 3-9z" stroke-linejoin="round"/>
  <path fill="#4e4d4d" stroke="#4e4d4d" stroke-width=".7" d="M765 1293l2 1v-6l1-7-2-6-2-7-3 6-2 5v5l1 4 2 2 2 1v1l1 1zm-726-2l3-2h1l1-1 1-7 1-7v-11h-1l-6 4-6 3 5-6 6-6v-6h-3l-1-1-1-1h-4l-4-1-1 2v1l-2 4-1 4v3l1 2v12l1 3 1 3 2 2 3 3 4 3z" stroke-linejoin="round"/>
  <path fill="#767676" stroke="#767676" stroke-width=".7" d="M817 1277l1-8-1-6-1-6-1-1-1-1-4 7-3 6 5 5 5 4z" stroke-linejoin="round"/>
  <path stroke="#000" stroke-width=".7" d="M900 1288v1l4-2 5-2h1l1-1h1l2-1v-1l3-2 4-3 1-1 1-2 3-3 4-3 1-1 1-2 2-3 3-4 1-1 1-2v-1l1-1h-3l-3-1-1 1v1l-4 4-4 3-1 1v1l-4 4-3 3-1 1v1l-5 3-4 3-3 2-2 1-2 3-1 3v1h1z" stroke-linejoin="round"/>
  <path fill="#4e4d4d" stroke="#4e4d4d" stroke-width=".7" d="M303 1284l6-7h-9l1 4 2 3z" stroke-linejoin="round"/>
  <path fill="#767676" stroke="#767676" stroke-width=".7" d="M45 1263l-1-5-6 6-5 6 6-3 6-4z" stroke-linejoin="round"/>
  <path fill="#221d1d" stroke="#221d1d" stroke-width=".7" d="M288 1281l-25-23-19 2-19 2-13 3-13 2 5-1 5-2h1l1-1 5-1 6-2h1l1-1-2 3-2 2h12l1-1 6-1 6-1h1l1-1 6-1 7-1 1 1h1l-2 3-1 2h-3l1 1 2 1 7 1h7l1 1h1l3 4 3 4v1l1 1 3 2 3 1z" stroke-linejoin="round"/>
  <path fill="#4e4d4d" stroke="#4e4d4d" stroke-width=".7" d="M907 1278l9-6v-1l1-1 3-3 4-4v-1l1-1 4-3 4-4v-1l1-1 3 1h3l1-1 1-2-2-3-1-4h-3v4h-4l-6 2-5 1-1 1h-1l-3 4-3 4h-1l-1-1v-3l-2 3-1 2v2l1 1v9l-1 2v1l-1 2v1z" stroke-linejoin="round"/>
  <path fill="#a3a2a3" stroke="#a3a2a3" stroke-width=".7" d="M828 1243v-1l3-11 3-12 21-4 22-5 17-8 18-9 16-1 16-2h-40l-19 8-18 7-22 5-21 4-17 10-16 9-2 1-1 1-8 14-8 14 28-10 28-10z" stroke-linejoin="round"/>
  <path fill="#4e4d4d" stroke="#4e4d4d" stroke-width=".7" d="M846 1266l2 1 5-1 5-1 1-1v-1l1-2h-1l-1-1h-1v-1h-4l-1 1v1h-1l-5 2-5 2 1 1h4z" stroke-linejoin="round"/>
  <path fill="#654654" stroke="#654654" stroke-width=".7" d="M840 1264v1h1l5-2 5-2h1v-1h-8l-2-1h-1l-1-1h-2l-4-2-3-2-2-1-2-2v-1l-6-3-6-3 4 4 4 3 4 5 5 4 4 2 4 2z" stroke-linejoin="round"/>
  <path fill="#221d1d" stroke="#221d1d" stroke-width=".7" d="M131 1261v1h1l1-1v-1l2-1 2-1h3l3-3 3-3h-4l4-2 4-2v-2l1-2 3-3 3-3h3-3l-2-1-2 2-2 2-2 3-1 3-3 1-2 1-3 2-2 2-3 2-2 1-1 3-1 2z" stroke-linejoin="round"/>
  <path fill="#292929" stroke="#292929" stroke-width=".7" d="M133 1260v1h4l5-1 13-7 14-7 2-2 2-3-2-2-2-2-4 1-3 1h-1l-1-1h-3l-3 3-3 3-1 2v2l-4 2-4 2h4l-3 3-3 3h-3l-2 1-2 1z" stroke-linejoin="round"/>
  <path fill="#654654" stroke="#654654" stroke-width=".7" d="M858 1260l2 1 4-2 5-3 5-3 6-3 1-1 2-2-5 2-4 1h-3l-5 2-5 2-1 1h-1l-3 2-3 2h4v1h1z" stroke-linejoin="round"/>
  <path fill="#292929" stroke="#292929" stroke-width=".7" d="M26 1259l1 1 1-4 2-4v-1l1-2 4 1h4l1 1 1 1h3l1-1-11-3-11-4-1 3v2l2 5 2 5z" stroke-linejoin="round"/>
  <path fill="#d0cecf" stroke="#d0cecf" stroke-width=".7" d="M776 1259l13-2 1-7 2-7-6 2-5 1-4 5-4 4 1 2 2 2z" stroke-linejoin="round"/>
  <path fill="#916d7b" stroke="#916d7b" stroke-width=".7" d="M840 1258l2 1 4-1 5-2 1-1 1-2 2-3-3 1h-3l-1 1h-7l-7-1h-3l-1-1-1-2-1 1-1 1v1l2 2 2 1 3 2 4 2h2z" stroke-linejoin="round"/>
  <path stroke="#000" stroke-width=".7" d="M911 1258l2 1 3-4 3-4h1l1-1 5-1 6-2h4v-4l-4-1-4-1-2 1h-1l-5 2-4 2-1 1-1 1-2 4-1 3v3z" stroke-linejoin="round"/>
  <path fill="#4e4d4d" stroke="#4e4d4d" stroke-width=".7" d="M280 1236l-34-4 3 9 4 8 13-6 14-7z" stroke-linejoin="round"/>
  <path fill="#b29aa0" stroke="#b29aa0" stroke-width=".7" d="M834 1251l14 1 1-1h3l3-1 2-1 3-1h1l1-1 2-1 2-1-3-1-2-2h-4l-3 1h-3l-4 2-3 1h-7l-3-2-3-2h-3v4l1 2 1 2 1 1h3zm115-4l2-3-1-1v-2l-1-1-1-1-2-1-1-1-5-1-4-2h-3l-2-1h-4l-3 2-3 2h6l3 1 4 1 3 1 3 1 3 1 4 1v2l1 2h1z" stroke-linejoin="round"/>
  <path fill="#292929" stroke="#292929" stroke-width=".7" d="M19 1237l6-2v-1l-5-3-5-4-3-3-2-4-1 2-1 2-1 2v2l3 3 3 3 1 1 2 1 1 1h2z" stroke-linejoin="round"/>
  <path fill="#fefefe" stroke="#fefefe" stroke-width=".7" d="M948 1230l8-7-2-5-2-6-5-4-4-5-7-2-6-2-1 8-1 7 2 6 2 6 6 2 7 2h3z" stroke-linejoin="round"/>
  <path fill="#221d1d" stroke="#221d1d" stroke-width=".7" d="M1421 1043l4-4v-3l1-3v-3l1-4-1-1-1-2-1 1v1l-2 7-1 7v4zm4-20l-2-4-1-2-1-2-1-4-1-5v-7l-1-5v-6l1-2 1 5 1 4v3l1 3 1 4 2 3 1 3 1 2 4 2 4 1 1-2 1-2-3-3-2-3-1-2-1-3 1 2 1 1 1 2 2 1h5v-7l-3-1-3-2-1-2-1-3-2-3-2-4-1-3-1-4 2 18 3 17-6 5-6 5h6zm-8-1l2 1-17-31-17-31v3l1 2 3 6 3 6 3 6 3 5 3 6 3 6 4 5 4 4 2 6 3 6z" stroke-linejoin="round"/>
  <path fill="#292929" stroke="#292929" stroke-width=".7" d="M1419 1023l12-10-3-17-2-18-2-2-1-3-4-3-4-4-5-4-4-5-5-4-4-4-6-3-6-3-1 5-1 4 1 5 1 4 17 31 17 31z" stroke-linejoin="round"/>
  <path fill="#221d1d" stroke="#221d1d" stroke-width=".7" d="M1402 1019l4-9-3-6-2-6-2 2-2 2 2 7 2 6v2l1 2z" stroke-linejoin="round"/>
  <path fill="#292929" stroke="#292929" stroke-width=".7" d="M1402 1017l2-9-3-5-3-6 1 8 2 7v3l1 2zM84 978l4-7-11 3-11 2 1 2 2 1h7l8-1z" stroke-linejoin="round"/>
  <path fill="#221d1d" stroke="#221d1d" stroke-width=".7" d="M84 978l21-24-2-3-2-3-13 5-12 4-10-6-9-7-20 5-19 4h11l11-1 11 6 11 6 2 6 2 6 11-2 11-3-2 4-2 3z" stroke-linejoin="round"/>
  <path fill="#4e4d4d" stroke="#4e4d4d" stroke-width=".7" d="M1396 974l10-5-5-3-5-4v12z" stroke-linejoin="round"/>
  <path fill="#221d1d" stroke="#221d1d" stroke-width=".7" d="M184 973l2-3-6-3-5-3-6-3-6-3 3 4 4 4 5 3 6 3 1 1h2z" stroke-linejoin="round"/>
  <path fill="#292929" stroke="#292929" stroke-width=".7" d="M143 966l9-6 2-2 3-3-12 2-12 1-1-1v-1l-2 2-1 1h3l5 3 6 3v1z" stroke-linejoin="round"/>
  <path fill="#221d1d" stroke="#221d1d" stroke-width=".7" d="M20 965l11-4 7-1 7-2h-5l-4-1-6 3-6 2-2 2-2 1z" stroke-linejoin="round"/>
  <path fill="#767676" stroke="#767676" stroke-width=".7" d="M1029 962l23-22h1l2-1h2l16-14 17-14 10-16 10-16 2-1 2-2 3-2 3-3 4-4 4-5 1-2 2-3 2-17 3-17-27-10-26-11-1-2-1-2-3-1-3-1-1 1h-1l-4 4-3 3h-1l-7 18-7 17-5 22-4 22-4 22-4 22-1 5v4l7-18 7-18 3-23 3-24 7-19 7-19 13 7 13 7 14 12 15 11-9 14-9 14-11 16-11 15-25 14-25 13h-1l-8 4-8 4 1-18 1-18 6-18 6-18 4-10 5-11-4 42-4 41 4-27 5-28 4-22 4-22 3-11 4-11-12 7-12 6-9 17-9 17-4 29-3 29 10 21 11 20 1 1h2z" stroke-linejoin="round"/>
  <path fill="#4e4d4d" stroke="#4e4d4d" stroke-width=".7" d="M1029 962l13-3 2-1 3-2v-1l2-2 2-2 1-1 2-2v-4l1-5-2 1h-1l-12 11-11 11z" stroke-linejoin="round"/>
  <path fill="#221d1d" stroke="#221d1d" stroke-width=".7" d="M157 955l-5 5-10-4-9-4-2 4-2 3 1-1 2-2v1l1 1 12-1 12-2zm-46 2l3-10 6-2 6-3h-4l-3-1-4 5-4 4v7z" stroke-linejoin="round"/>
  <path fill="#a3a2a3" stroke="#a3a2a3" stroke-width=".7" d="M1031 938l-1-2 4-41 4-42-5 11-4 10-6 18-6 18-1 18-1 18 8-4 8-4z" stroke-linejoin="round"/>
  <path fill="#221d1d" stroke="#221d1d" stroke-width=".7" d="M159 946l-30-2 6 2 6 1-11 4-11 3 20-4 20-4z" stroke-linejoin="round"/>
  <path fill="#292929" stroke="#292929" stroke-width=".7" d="M1047 955v1l4-3 5-4 4-4 5-4 2-3 2-3-5 3-5 2h-1l-1-1h-2l-1 5v4l-2 2-1 1-2 2-2 2zm-976-1l12-3-8-1-7-1-8-1-7-2-6 2-5 2h15l7 2 7 2zm48-1v1l11-3 11-4-6-1-6-2-3 1-2 1-3 4-2 3z" stroke-linejoin="round"/>
  <path fill="#221d1d" stroke="#221d1d" stroke-width=".7" d="M390 942l-1-16v-8l1-9-1-8v-26l-2-7-1-7v-52l-1-8-1-8v-42l-1 25v24l1 29 1 28 1 25 2 24-2 14-2 13v13l1 6 2-5 3-5z" stroke-linejoin="round"/>
  <path fill="#292929" stroke="#292929" stroke-width=".7" d="M388 906l-3-49-1-28-1-29v6l1 3-3 2-2 2v29l1 29 2 31 2 31 2-13 2-14z" stroke-linejoin="round"/>
  <path fill="#a3a2a3" stroke="#a3a2a3" stroke-width=".7" d="M1082 911l22-31 9-14 9-14-15-11-14-12-13-7-13-7-7 19-7 19-3 24-3 23-7 18-7 18-1 1v1l25-13 25-14z" stroke-linejoin="round"/>
  <path fill="#221d1d" stroke="#221d1d" stroke-width=".7" d="M158 941l-4-9h-6l-6-1 2 1 2 1 5 3 6 3v1l1 1zm226-8l-4-62-1-29v-47l-1-3v-21l-1-1-1-2-1 1v15l1 3v17l1 4 1 4v47l1 4v21l1 3v5l1 4v12l1 4v17l1 2 1 2z" stroke-linejoin="round"/>
  <path fill="#4e4d4d" stroke="#4e4d4d" stroke-width=".7" d="M1005 920l7-58 9-17 9-17 12-6 12-7 1-4 1-4-19 13-19 12-7 20-7 20v24l1 24z" stroke-linejoin="round"/>
  <path fill="#221d1d" stroke="#221d1d" stroke-width=".7" d="M490 898l-2-51-8-10-7-10-1 1-1 1-1 2-1 1h8l1-1 1-2 1-4 2-5h1l1-1 1 6 1 5v2l1 2v69l1-2 2-3z" stroke-linejoin="round"/>
  <path fill="#292929" stroke="#292929" stroke-width=".7" d="M490 898l1-13v-26l1-6v-26l1-7v-4l-1-1v-2l-1-24-1-25-2-35-1-36-23 11-22 11-27-2-26-3v27l1 26 4 27 4 27 4 4 5 3 8-2 9-3-2 11-1 10 10-13 11-13 10-3 11-4-1 11-1 11 7-16 7-17-1 16-1 15 7 10 8 10 1 26 1 25zm939-9l4-8h1l1-1h2l3-1v-11h-4l-6 1-6 1v1l1 1 1 6 1 6 1 1 1 1v3z" stroke-linejoin="round"/>
  <path fill="#221d1d" stroke="#221d1d" stroke-width=".7" d="M1114 887l5-2h-2v-1l1-2v-1l4-4 4-4v-1l3-2 4-2h-1v3l2-4 2-5-4 1h-4v-1l-4 5-4 4-3 3-3 2h2l3-1-3 6-2 5v1z" stroke-linejoin="round"/>
  <path fill="#292929" stroke="#292929" stroke-width=".7" d="M1117 885h2l3-3 4-3 3-4 3-4v-3h1l-4 2-3 2v1l-4 4-4 4v1l-1 2v1z" stroke-linejoin="round"/>
  <path fill="#221d1d" stroke="#221d1d" stroke-width=".7" d="M852 860l6-11 1-7 1-8 1-2 1-3-3 1h-3l9-18 10-18-2 2-2 2-1 2-1 2-2 4-2 3-2 2-2 1-2 4-1 3-2 2-1 2-1 4v4l-1 3v20l-1 3v3zm-426-7l-2-2 1-2 1-3 1 1 1 1 1-1 1-1-1-1-1-1-2-5-1-5-1-1v-2l2-4 3-5h1l1-1 3-1 4-2h1l2-1-2 3-1 3-1 1-1 1-2 5-1 4v2l1 1 1-5 2-5 1 1h2l2-2 3-3v-1l1-1h6l-1 4-1 3 1-1 2 4 3 3-1 2v1h3l3-1-1-1-1-1-2-5-1-6-1-1v-1l2-2 3-3v-1l1-2 2-2 3-2-1 1-1 1-2 5-2 5v6l1 2 1-11 1-11-11 4-10 3-11 13-10 13 1-10 2-11-9 3-8 2-5-3-4-4v4l1 4 1 4 1 3-1 3v2h1l1-1 1-2 1-3 3-2 3-2 2-1 2-2 2-3 3-3h2l-2 4-1 4v5l-1 5v11l1 2 1 1v3l1 3 3-1 3-2z" stroke-linejoin="round"/>
  <path fill="#4e4d4d" stroke="#4e4d4d" stroke-width=".7" d="M1131 857l6-9 3-4 4-5 1-1 1-1-21-13-20-14-3 2-2 1h-1v-1l-5-3-4-3-4-2-3-2 26 11 27 10-3 17-2 17z" stroke-linejoin="round"/>
  <path fill="#292929" stroke="#292929" stroke-width=".7" d="M862 829l19-28 14-12 14-12 4-3 5-4 3-5 4-6 4-4 5-4 5-3 5-4 5-3 6-4 6-2 6-3 5-3 6-4 4-4 5-4 5-3 6-3-1-5v-5l-12-15-12-16-2-1-1-1-3-2-2-3-6-3-6-3-5-4-4-4-4-5-4-5-3-5-3-6-5-4-4-4-6-3-5-4-4-4-4-5-1-1v-1l-8-17-8-18-2-23-2-23 5-24 6-25 1-2 2-3v-1l1-3 2-4 1-2 1-2 2-3 3-3v-2l-12 14-11 14-14 18-13 17 3 9 4 8-4-8-4-9-10 14-9 13-44 3-43 2-15-8-14-9-6-13-6-14-14-9-14-9h-27l-26-1 2 25 3 24 2 11 2 11-2 18-2 18 3 1h4l4 12 4 12 3-10 4-11-13 9-12 9-1 1h-1v17l1 1 12 5 13 5 2 8 2 7 3 2 3 1 3 1h3l5 1h9l2-1 2-1 21 4 21 3 3 6 4 6-28-3-27-4 22 4 23 3 1 1h1l1 1 1 1 2 5 2 4v4l-1 3-1 2-1 2v2l1 1h2l16 5 16 5 10 3 10 3h-24l19 6 20 5 16 1 16 1 8 8 9 7-4-11-3-12-18-1-18-1 26 2 26 2 3 19 4 19 3-5 3-5 6 5 7 5-2-13-2-13 14 13 14 13-17 17-16 16-10 18-9 18h3l3-1z" stroke-linejoin="round"/>
  <path fill="#221d1d" stroke="#221d1d" stroke-width=".7" d="M1147 839l8-7 3-5 3-6 3-6 3-6 2-5 2-5-2 4-1 4-11 15-11 15-1 1-1 1h3z" stroke-linejoin="round"/>
  <path fill="#292929" stroke="#292929" stroke-width=".7" d="M1168 807l3-8 19-30 20-30 13-16 14-17 6-4 7-5-7-9-7-9-14 13-13 12-12 15-11 14-4 4-4 3-13 15-12 15-5 4-5 3-16 2-15 2-1-1v-1l-13-9-12-10 16-13 17-14 7-10 8-11-1-5-1-5-2-23-2-23 8-16 8-17-1-2-1-3-2-6-2-7-1-2-1-3-7 21-7 21-10 15-9 14-3 2-2 1-7 2-7 1h-14v11h1l1 5 2 4h5l1 1 2 1 10 16 11 16-24 5-24 5h-9l-7-1-6-1 18 9 19 9-2 19-2 19v2l9-3 10-3v8l4 2 4 1v2l1 2 4 2 4 2h3l20 14 21 13 11-15 11-15z" stroke-linejoin="round"/>
  <path fill="#221d1d" stroke="#221d1d" stroke-width=".7" d="M464 832l4-9 1-1 1-2 1-4 2-5v-2l1-2 1-5 2-5v-4l1 5 1 4v5l-1 5-1 5-1 2v2l-2 3-1 3 1-15 1-16-7 17-7 16 1 2 2 1z" stroke-linejoin="round"/>
  <path fill="#292929" stroke="#292929" stroke-width=".7" d="M1018 832l38-25-5-8-5-9-12 15-11 14-3 7-2 6z" stroke-linejoin="round"/>
  <path fill="#221d1d" stroke="#221d1d" stroke-width=".7" d="M95 821l1-2-8-7-8-8 8 6 8 6-14-5-14-6 9 9 10 8h4l4-1zm767 8l3-8 1-1 1-2 3-3 3-3 1-1 1-2 3-3 4-3 1-1 1-2 3-3 3-3 1-1 2-1 3-2 4-3 1-1 2-1 3-3 3-4v-1l-14 12-14 12-10 14-9 14zm-836-3l-2-7 1-6 2-6-2-1-2-1-4 5-3 5 4 5 4 4 1 1 1 1z" stroke-linejoin="round"/>
  <path fill="#292929" stroke="#292929" stroke-width=".7" d="M96 819v-3l-8-6-8-6 8 8 8 7z" stroke-linejoin="round"/>
  <path fill="#221d1d" stroke="#221d1d" stroke-width=".7" d="M398 817l-8-54-1-26v-27l-2-5-1-5v3l1 4 1 4v17l-1 4v16l1 3v14l1 3v13l1 3v5l1 4v7l2 1h3l1-1v13l1 4zm-275-7l-1-2-2-5-1-6v-1l1-1v-1l1-1-1-17-1-18 5-10 6-10-6-1-5-1-13 16-13 16-1 2-1 1-2 2-1 1 1 4 2 4-1 1-1-1-1-1-1-2-1-3-3-1-3-2-2 2-2 1-3 2-3 2-1-1v-1l3-2 3-2 2-1 3-2 3-1 4-2h6l-11 7-11 6-18 3-17 2h1l1-1h6l3 2 3 1 2 2 3 1 3 1 4 1h7l2-2 2-3 1-2 2-3 2-2 2-3v4l-1 5v4l1 1h5l2 2 2 2 2 2 3 2 1 3 2 3 1 2 2 2 2-2 2-2v-2l1-2v-3l1-4 1-4 1-4-1-3v-4l-2-3-1-3-1-2v-3l-2-1-2-2-1-2v-2l2 1h2l1-1 1-1h5v4l-1 5v4l1 3 1 3h5l-1 4v6h3l-1 4-1 3-1 4v3l2 3 2 2 2 2 2 2v-1l1-2z" stroke-linejoin="round"/>
  <path fill="#4e4d4d" stroke="#4e4d4d" stroke-width=".7" d="M379 813l5-4-1-3v-30l1-25v-16l-1-5v-12l-1-4-1-5v-24l-1-4v-40l-1-1-1-1-4 12-3 12v4l1 4v22l1 4v12l1 4v4l1 3v22l1 4v22l1 2 1 1v21l1 3v18z" stroke-linejoin="round"/>
  <path fill="#221d1d" stroke="#221d1d" stroke-width=".7" d="M492 813v-48l-1-8v-43l-1-8-1-8v-32l-2-7-1-8v21l1 21 1 36 2 35 1 25 1 24zm607-1l1 1 2-1 3-2h-3l-4-2-4-2-1-2v-2l-4-1-4-2v-1h-4l1 2 1 2 3 2 4 2 4 3 5 3zm-669-3l9-2-7-2-6-2-7-1-7-1 1 4 1 3 8 1h8zM0 808v1h2l3-1 3-1 4-2 1-2 2-2 3-2 3-2 2-1 3-2-3 1-3 1-3 1-2 1-3 2-3 2H8l-1-1 1-2 1-2-4 1H0v10z" stroke-linejoin="round"/>
  <path fill="#292929" stroke="#292929" stroke-width=".7" d="M1349 808l3-12v-15l-2-7-2-7-2 3-1 3-1 6v14l1 7 2 4 2 4z" stroke-linejoin="round"/>
  <path fill="#221d1d" stroke="#221d1d" stroke-width=".7" d="M54 807l2-1-6-3-5-3h-5l-4-1 5 3 6 3 3 1 4 1zm158-5l1-6 1-4 1-4v-3l1-3 1-4 1-4v-8l-1-4-1-4v-18l1-3v-5l1-5-1-3v-3l-1-4-1-4-1-1-1-1 1 24 1 23-4 14-3 14v-44l-5 1-5 1-16-8-15-9-3 2-3 1v38l4 10 5 9-9-17-8-17v12l1 6 1 2 1 1 2 4 3 3 1 1 2 1 3 3 4 2 1 1 2 1h5l5-1-1-1v-1l-4-2-4-2-2-1-1-1-1-2v-2l1 1 2 1h10l1-1 2-1 1-1 2-1-5-7-4-8-9-4-9-4 7-4 7-4 4 1h5l4 3 5 2-1-2v-2l2 2 3 2v5h6v-2l1-2 2 5 2 4v15l-1 2v2l-2 4-2 4-2 1-1 1-5 2-5 1-2 1h-2 4l5-1-1 1v1l-3 4-3 3-1 1-1 1h3l1-1 2-1 4 1h6l1-1 3 1h4zm236 4l-3-6-6-3-5-3h-16l3 2 4 2 6 3 6 2 5 2 6 1z" stroke-linejoin="round"/>
  <path fill="#221d1d" stroke="#221d1d" stroke-width=".7" d="M154 805l17 1-2-2-1-2-8-1-7-2-6-2-6-3h13l2-2 2-2 6 3 6 2v-2l-5-4-4-4-4-4-4-5-1-8-1-8 1-3 1-4-2 14-1 14-10 2-10 1 2-3 3-3 4-1 4-2-1 5-1 5-5 4-4 4-1 3v2l6 1h6l5 3 6 3zm301 0v-9l-6-2-5-2 4 4 4 4 1 3 2 2zm399-1l4-1 3-3 3-4 1-1 1-1 4-2 4-3 1 1 2 1-1 2-1 1 16-16 17-17-4 3-3 2 2-4 3-4v-2l1-3-1-4-1-5v-1l1-2 2 4 2 4 1 2 2 1-2 4-2 3-1 1v1l-14-13-14-13 2 13 2 13-7-5-6-5-3 5-3 5-4-19-3-19 1 1 2 1-2 7-1 6v13l3 1h4l-4 5-3 5 3 1 4 1 3 6 3 6 1-5 2-5-1-6v-7l2 7 2 6 2 6 2 5-5 5-4 4-5 4-4 4-6-2-6-2-7-2-6-2-7 1-6 1 7 1 7 1 5 4 5 3-1 3v2l-4 1-3 1h13z" stroke-linejoin="round"/>
  <path fill="#4e4d4d" stroke="#4e4d4d" stroke-width=".7" d="M1065 804h1l3-3 4-4h1l1-1 3 1 3 1h4v1-8l-10 3-9 3-1 4v3z" stroke-linejoin="round"/>
  <path fill="#292929" stroke="#292929" stroke-width=".7" d="M103 775l-3 13h-8l-3 2-2 1 8-8 8-8z" stroke-linejoin="round"/>
  <path fill="#292929" stroke="#292929" stroke-width=".7" d="M215 758l-2-47-1-26v-50l1-25-1-27-1-27-2 23-2 22v84l-31 8-30 7-21-2-21-2-16-1-15-2-17 2-16 1-20 1H0v49l13 3 13 2H0v6l18 7 18 6-18 2-18 1v20l5-1 5-1h3l4-1 3-1 4-2h9l3-1 17-2 18-3 11-6 11-7 13-16 13-16 5 1 6 1-6 10-5 10 4-1 5-1-5 1-4 1 1 18 1 17 1-1 1-1 2-2 2-2 1-1 2-2 10-1 10-2 1-14 2-14 8 17 9 17-5-9-4-10v-38l3-1 3-2 15 9 16 8 5-1 5-1v44l3-14 4-14z" stroke-linejoin="round"/>
  <path fill="#221d1d" stroke="#221d1d" stroke-width=".7" d="M1171 799l23-28 8-16 8-16-20 30-19 30zm-60-20l-15-3-5-8-5-8 12 10 13 9zM0 793v1h5l5-1h2l2-1 5-1 5-2h1l2-1 5 2 5 1 2 1h2l-1-2-1-2-2-1-1-1-3 1h-9l-4 2-3 1-4 1h-3l-5 1-5 1zm405 0l10-5 4-4 5-4h-6l-5 4-4 4-2 3-2 2zm17-3l12-3 2-5 2-6-5 5-4 4-4 3-3 2z" stroke-linejoin="round"/>
  <path stroke="#000" stroke-width=".7" d="M90 783l1-1-2-4-1-4 1-1 2-2 1-1 1-2h-6l-4 2-3 1-3 2-2 1-3 2-3 2v1l1 1 3-2 3-2 2-1 2-2 3 2 3 1 1 3 1 2 1 1 1 1z" stroke-linejoin="round"/>
  <path fill="#221d1d" stroke="#221d1d" stroke-width=".7" d="M1112 781l31-4-2-1-2-1h-7l-7 3-6 2h-4l-4-1v1l1 1z" stroke-linejoin="round"/>
  <path stroke="#000" stroke-width=".7" d="M176 778l8-7 2-6 3-6-4 2-3 1-4 4-3 4-4 1-3 1 4 3 4 3z" stroke-linejoin="round"/>
  <path fill="#221d1d" stroke="#221d1d" stroke-width=".7" d="M81 757l-23-11-2 13-1 12 13-7 13-7zm1062 19v1l5-3 5-4 12-15 13-15-4 3-4 2-5 5-4 4-4 5-3 5-4 5-4 5-2 1-1 1z" stroke-linejoin="round"/>
  <path fill="#292929" stroke="#292929" stroke-width=".7" d="M190 775l5-4v-1l1-1v-4l1-5-1-1v-2l-1-3v-4l-5-2-4-3h-5l-4-1-7 4-7 4 9 4 9 4 4 8 5 7z" stroke-linejoin="round"/>
  <path stroke="#000" stroke-width=".7" d="M887 775l8-7-3-3-3-4h-4v7l1 7h1zm-830-1l7-8-1-7v-7l-6-2-6-2v15l1 1 2 1 2-7 2-7v23h-1z" stroke-linejoin="round"/>
  <path fill="#221d1d" stroke="#221d1d" stroke-width=".7" d="M1191 751l11-17-1 1v1l-1 1h-1l-3 5-3 4-1 1v1l-4 3-4 3-1 1h-1l-4 3-3 2v-1l1-2 3-2 3-2v-1l1-1-2 1h-1l-4 5-4 4-4 5-4 5 13-10 14-10zM0 772v1l18-1 18-2-18-6-18-7v15zm129-1l9-6 2-6 2-7-1-4-1-4-2 7-2 6-3 6-3 5-1 2v1zm973-1l2-9v-5l-4 3-4 3 3 4 3 4z" stroke-linejoin="round"/>
  <path fill="#292929" stroke="#292929" stroke-width=".7" d="M896 738l-3 21 2 2 3 1-1-12-1-12z" stroke-linejoin="round"/>
  <path fill="#221d1d" stroke="#221d1d" stroke-width=".7" d="M1393 768l13-1h10l6-1 1 1h2l6 1h8l1-1v-1h-48l20-2 20-3 2 1h3v-1l-8-1-7-1h-17l-7 2-7 2 1 3 1 2z" stroke-linejoin="round"/>
  <path stroke="#000" stroke-width=".7" d="M901 766l7-5v-1l1-1 2-3 2-4-2-1-1-2-2-4-2-4-1 2v1l1 5 1 4-1 3v2l-3 4-2 4z" stroke-linejoin="round"/>
  <path fill="#292929" stroke="#292929" stroke-width=".7" d="M1392 766h48v-4h-6l-2-1-20 3-20 2z" stroke-linejoin="round"/>
  <path stroke="#000" stroke-width=".7" d="M161 764l1-12v-4l1-4-2 5-2 5 1 5 1 5z" stroke-linejoin="round"/>
  <path fill="#221d1d" stroke="#221d1d" stroke-width=".7" d="M236 762l4-7-2-7-1-7-3 6-3 6 2 5 3 4zm-108-6l-9 2 4-1 5-1zm-89 4l-2-9-2-7-1-7-1-7v-8l-2 7-2 6 1 8 1 7 4 5 4 5z" stroke-linejoin="round"/>
  <path stroke="#000" stroke-width=".7" d="M1175 760l7-5h1l1-1 4-3 4-3v-1l1-1 3-4 3-5h1l1-1v-1l1-1h-4l-4 5-3 5-4 4-4 3-1 1v1l-3 2-3 2-1 2v1z" stroke-linejoin="round"/>
  <path fill="#221d1d" stroke="#221d1d" stroke-width=".7" d="M26 751l-26-5v5h26zm775 2l2-2 1-3 2-4v-1l1-1 4-3 4-3v-1l1-2 4 2 4 2 1 1h1l4 3 4 3v1l1 1h1l2-1 1-1 1-1 2 5 3 4h1l1-4 1-4h1l-9-7-8-8-16-1-16-1-20-5-19-6h24l-10-3-10-3-16-5-16-5h5l5-1 6 3 7 2 1 5 2 5 4 4 5 4 7 2 7 2 7 2 7 1 6-2 7-3h7l7-1h-7l-2 1-2 1 6 6 7 5-8-2-7-3 1-3 1-3-3 4-2 3-4 5-4 4-5 2-5 1v1l1 1 2 5 2 4 3-1 4-1z" stroke-linejoin="round"/>
  <path stroke="#000" stroke-width=".7" d="M36 756l-3-8v-8l1-8-1-1-1-1v13l2 7 2 6z" stroke-linejoin="round"/>
  <path fill="#221d1d" stroke="#221d1d" stroke-width=".7" d="M855 745l2-5v-11l1-1v-5l-26-2-26-2 18 1 18 1 3 12 4 11 3 1h3zm248-14l-2 2v6l-5 4-5 3-6 1h-12l-5-1-3-1-2-1h3l3-1 1-1h-6l-5-1h-4l24-5 24-5z" stroke-linejoin="round"/>
  <path stroke="#000" stroke-width=".7" d="M1079 747l12-1 5-3 5-4v-6l-2 2-2 2-1 1-6 2-5 2h-15l-1 1-3 1h-3l2 1 3 1 5 1h6z" stroke-linejoin="round"/>
  <path fill="#292929" stroke="#292929" stroke-width=".7" d="M1119 747l9-2v-1h1l1-1 5-2 6-2 1-1 1-3 1-3-1 1-5 3-4 2h-3l-5 4-5 3-1 1-1 1z" stroke-linejoin="round"/>
  <path fill="#221d1d" stroke="#221d1d" stroke-width=".7" d="M99 744l8-7v-3l1-3-4-3-4-3v6l1 6-1 4-1 3zm1029 0v1l6-2 6-2 4-4 5-4-3-1-2-2-5 4-5 3v1l4-2 5-3 1-1-1 3-1 3-1 1-6 2-5 2-1 1h-1z" stroke-linejoin="round"/>
  <path fill="#292929" stroke="#292929" stroke-width=".7" d="M812 725l-2 6 7 3 8 2-7-5-6-6z" stroke-linejoin="round"/>
  <path fill="#221d1d" stroke="#221d1d" stroke-width=".7" d="M922 742l10-5 4-4 4-5-1-4v-5l-3 6-2 6-5 4-5 3-1 2-1 2z" stroke-linejoin="round"/>
  <path fill="#4e4d4d" stroke="#4e4d4d" stroke-width=".7" d="M1070 742h15l5-2 6-2 1-1 2-2 2-2 1-1 1-1-11-16-10-16-2 1-2 1-7 2-6 2h-5l1 16 2 16-19-3-19-4 3-14 4-14h-2l-1-1h-3l-2-1h-2l-1-1h-6l-3 4-3 3 11 16 11 16 1 1h1l6 1 7 1h13l5 1h6z" stroke-linejoin="round"/>
  <path fill="#767676" stroke="#767676" stroke-width=".7" d="M1060 705l-11-1h-3l-2-1h-6l-6-1-4 14-3 14 19 4 19 3-2-16-1-16z" stroke-linejoin="round"/>
  <path fill="#221d1d" stroke="#221d1d" stroke-width=".7" d="M323 738l6-9 4-4 5-4h-8l-3 6-3 5-1 3v3zm566-25l13 9-10 1-10 1 10 2 10 2-7-7-6-8zm41 17l4-11-1-5-1-6-2 7-1 6v5l1 4zm11-1l8-7-2-5-2-6-1 6-1 6-1 3-1 3z" stroke-linejoin="round"/>
  <path fill="#a3a2a3" stroke="#a3a2a3" stroke-width=".7" d="M1071 729l13-2-5-3-5-4-2 5-1 4z" stroke-linejoin="round"/>
  <path fill="#221d1d" stroke="#221d1d" stroke-width=".7" d="M191 727l6-3-7-1-7-2-6-2-5-3 3 5 4 5 6 1h6z" stroke-linejoin="round"/>
  <path fill="#4e4d4d" stroke="#4e4d4d" stroke-width=".7" d="M487 693l-1-42v-20l-1-7v-27l-1-6-1-6v-38l-1-4v-4l-1-29v-42l-1-1v-1h-1l-10 37-9 36-14-6-14-6-27-5-27-6v41l1 6v3l1 6 1 6v10l1 7v1l1 1v42l1 6v27l1 7v19l1 2 1 5 2 5 26 3 27 2 22-11 23-11z" stroke-linejoin="round"/>
  <path fill="#221d1d" stroke="#221d1d" stroke-width=".7" d="M327 722l8-7h1l1-1 5 1 5 1h3l3 1h3l-1-5-1-6v-3l2 1h3v-1l1-1 1 6 2 6v1l1 1 1-5 2-6-1-1v-1l-1-8v-43l-1-7v-7l-1-1v-18l-1-8v-8l-1-7v-62l-1-1v-2l-1 28v48l1 21 2 18 2 18v47l-4-16-4-16-5 9-5 9-7 8-7 8-2 2-2 1-1 3v3zm-99-3l9-6 6-2 7-2-3-2-3-2-7 2-6 2-2 5-1 5zm939 0l2-9 3-3 4-3h-8l-7-1v1l1 1 2 6 3 6v2z" stroke-linejoin="round"/>
  <path fill="#292929" stroke="#292929" stroke-width=".7" d="M346 697l10-18 4 16 4 16v-47l-2-18-2-18-1-21v-21l-12-13-12-14-19-7-19-7-15-12-14-12h-40l-8 16-8 15 2 24 3 24 4-6 4-6 2 18 3 17-2-12-2-12h-2v74l1 2-1 3v8l6 1h6v-21l9 9 9 9 3-12 4-13 16-8 16-8-14 12-14 12 1 3 2 3-1 5-1 5 11-11 12-12 2 13 2 13 5 2 5 2h13l5 8 6 7 6-13 6-13-2 16-2 15-2 1-1 1v1l7-8 7-8z" stroke-linejoin="round"/>
  <path fill="#221d1d" stroke="#221d1d" stroke-width=".7" d="M292 712l4-8 1-1 2-2h2l2-1 1-1-1 5-1 5v2l1 1 2-1 2-2v4l2-3 2-4 2-1 2-1h2l3-1 1-1 2-2 2-2 3-2-1 3v2l-2 4-2 4 1 1h2l3-2 4-2 1-1 2-2 2-3 2-4v6l-3 4-2 4 2-15 2-16-6 13-6 13-6-7-5-8h-13l-5-2-5-2-2-13-2-13-12 12-11 11 1-5 1-5-2-3-1-3 14-12 14-12-16 8-16 8-4 13-3 12-9-9-9-9v21h-6l-6-1-1 5-1 4 1 5 2 5 2-6 3-7 7 2 7 1-3-3-3-4-3-6-2-7-2-7-1-7 3 5 3 5 3 5 4 5 5 4 5 3h6l-4-4-4-5 4 3 5 2 2 5 2 4 3-5 3-6v12l1 1 2 1 3-4 3-4 1-7 2-7 2 7 2 6 3 3 4 2 2-6 2-7-1 8v7l-1 6-1 5-1 4-1 3zm-79-1l1-12v-8l1-9-1-7-1-8 1-8 1-8v-34l2 3 2 3-1 8-1 7 1 8 1 8 2 7 2 6v2l1 1v-71l-1 2v2l-1-5v-7l1-2h1l1-1-4 6-4 6-3-24-2-24-1 2v2l1 27 1 27-1 25v50l1 26zm573-2l5-2-3-5-3-6-1 6v5l1 1 1 1z" stroke-linejoin="round"/>
  <path fill="#221d1d" stroke="#221d1d" stroke-width=".7" d="M227 708l9-6 6-1 6-2-8-1-7-2-3 6-3 5v1z" stroke-linejoin="round"/>
  <path fill="#292929" stroke="#292929" stroke-width=".7" d="M1009 706l6-7h6l1 1h2l1-3 2-4v-5h-2l-2-1v-2l-2-4-1-4h-9l-5-1-1-1-1-2h-1v-4l1-3-17-20-17-21 8 20 8 19 8 18 8 18 3 3 4 3z" stroke-linejoin="round"/>
  <path stroke="#000" stroke-width=".7" d="M1049 704l11 1h5l6-2 7-2 2-1 2-1-2-1-1-1h-22l-3-2-3-3-7-2-7-2h-10v5l-2 4-1 3 2 1h3l1 1h2l6 1h6l2 1h3z" stroke-linejoin="round"/>
  <path fill="#4e4d4d" stroke="#4e4d4d" stroke-width=".7" d="M207 685v-84l2-22 2-23v-2l1-2 8-15 8-16h40l14 12 15 12 19 7 19 7 12 14 12 13v-27l1-28-1-3v-27l-1-5v-11l-1-5v-6l-1-2v-32l-22 1-22 1-22-1-22-2-20 1-20 1-13 13-13 13-18 8-17 7-21 2-20 1-18 1H90l-16 4-15 3-30-2-29-2v208h20l20-1 16-1 17-2 15 2 16 1 21 2 21 2 30-7 31-8z" stroke-linejoin="round"/>
  <path fill="#221d1d" stroke="#221d1d" stroke-width=".7" d="M1132 702l-2-44 7-17 8-18h-1l-8 17-8 16 2 23 2 23zm-135-1l-1-2-3-3-2-3-1-2-1-2-2-4-1-4-1-2-1-3-3-1-3-2-2-1-1-2-3-1-2-1 1 1 2 1 12 16 12 15z" stroke-linejoin="round"/>
  <path fill="#37231d" stroke="#37231d" stroke-width=".7" d="M1057 697h17l-2-4-1-5h-1v-11h-1l-1-1h-2l-1-1h-10l-8 1-7 1h-20l1 4 2 4v2l2 1h12l7 2 7 2 3 3 3 2z" stroke-linejoin="round"/>
  <path fill="#221d1d" stroke="#221d1d" stroke-width=".7" d="M727 687l4-3v11l1-2 1-3v-4l-2-4-2-5-1-1-1-1h-1l-1-1-8 3-8 3 8-3 8-3-23-3-22-4 2 2 2 1 2 2 3 1 3 1 4 1-2 2-1 1 2-1 3-2 3 1h4l-1 2v4l1 1-3 2-2 1 3 1h4l3 2 3 1 3 1 3 1 2 1 3 1 1-3 2-4zm1-25l-42-7 1 1h2l1 1h2l6 1 6 1h3l5 1h10l-1 1v1h-4l-6 1-6 1-1 1h-1l-6 1h-9l-5-2-5-2h-1l-1-1-3 1h-2l1 1 1 1 3 2 4 1 27 4 28 3-4-6-3-6z" stroke-linejoin="round"/>
  <path fill="#767676" stroke="#767676" stroke-width=".7" d="M378 639v-31l-1-8v-26l-1-7-1-8v-35l-1-8v-8l-1-8v-26l-1-8v-10l-5-3-4-3-2-22-2-23v28l1 6v10l1 7v18l1 1v7l1 6v28l1 6v3l1 7 1 6v38l1 6 1 6v27l1 7v20l1 6 1 6v9l3-12 4-12z" stroke-linejoin="round"/>
  <path fill="#292929" stroke="#292929" stroke-width=".7" d="M725 674l-16 6 8-3 8-3z" stroke-linejoin="round"/>
  <path fill="#221d1d" stroke="#221d1d" stroke-width=".7" d="M673 677l-2-2-3-4-2-5h-1l-1-1-5-2-4-3-1-1-1-1-4-3-3-3-1-1-1-1-4-3-4-3v1l2 5 3 4 12 7 12 7-12-7-12-7v2l1 1 1 2 2 1 3 3 3 2 2 1 3 1 3 2 3 2 2 2 2 1 3 3 3 2v-1l1-1z" stroke-linejoin="round"/>
  <path fill="#4e4d4d" stroke="#4e4d4d" stroke-width=".7" d="M1122 642l14-42 3-24 4-24-26-12-26-12h-2l-1-1h-3l-16-2-15-2-1-2-1-2 12-8 13-9v1l1 1 3 4 4 3 1-1 2 1 2 1 5 1h30l3-2 3-2 1-2 2-2 1-3 2-4-3-2-3-2-10-15-9-15v-2l-19 1h-19l-10-3-9-3-4-1-3-1-6 2-6 1h-10l-25 3-24 3-2 2-2 1v1l1 1-1 3v3l1 3 2 2-3 1-3 1-3 1-3 1v19l16 1 17 1-1-2-1-3h2l6 2 6 1 1 1h1l3 4 4 3v14l-20 3-20 3 14 9 14 8 8-7 9-8h12l13-1 16 10 16 10 17 4 18 3 10 9 11 9-4 21-4 21-15 8-15 8-4 14-4 14-23-2-22-3-38-21-38-22v8l1 2 17 21 17 20h23l4 1h5l3-1 3-1h12l4-1 4 1h5l3 1h21l3 1h3l3 2 3 2 9-14 10-15z" stroke-linejoin="round"/>
  <path fill="#221d1d" stroke="#221d1d" stroke-width=".7" d="M1006 676l10 1h24l7-1 8-1h-8l-4 1h-8l-3-1h-9l-4 1h-4l-4-1-3-1-2-2-1-3 3-1 3-2h-7l-1 3v4h1l1 2 1 1z" stroke-linejoin="round"/>
  <path stroke="#000" stroke-width=".7" d="M1068 676l2 1h14l7-1 7-2 2-1 3-2-3-2-3-2h-3l-3-1h-21l-3-1h-5l-4-1-4 1h-12l-3 1-3 1h-5l-4-1h-16l-3 2-3 1 1 3 2 2 3 1 4 1h4l4-1h9l3 1h8l4-1h18l1 1h2z" stroke-linejoin="round"/>
  <path fill="#221d1d" stroke="#221d1d" stroke-width=".7" d="M620 674l1-9v-25l-1-4v-22l-1-3v-3l1-4 1-4-1-3v-56l-1-4v-5l-1-3v-3l-1-3v-4l-1 2v1l1 24 2 24v48l-2 12-1 11-3-22-3-22-1-47-1-47h-1v-1 13l-1 4v17l1 4v12l1 4v4l1 3v55l1 4v7l1 4 1 4-1 3-1 3h-1l-1-1h-2l-1-1-2 2-2 2h6l2 3 2 2v1h1v10l1 3 1 2 3 4 3 4z" stroke-linejoin="round"/>
  <path fill="#292929" stroke="#292929" stroke-width=".7" d="M619 618v-48l-2-24-1-24-1 3v3l-1 2v2l-2-5-1-5v-4l-1-6v-6l-1-1-1-2 1 47 1 47 3 22 3 22 1-11 2-12zm46 50l-24-14 12 7 12 7z" stroke-linejoin="round"/>
  <path stroke="#000" stroke-width=".7" d="M259 666l11-4 4-4 4-5 5-3 6-4-5 1-4 1-4 5-4 4-6 3-6 3-1 2v1z" stroke-linejoin="round"/>
  <path fill="#767676" stroke="#767676" stroke-width=".7" d="M1045 658l45 5 4-14 4-14 15-8 15-8 4-21 4-21-11-9-10-9-18-3-17-4-16-10-16-10-13 1h-12l-9 8-8 7-14-8-14-9h-2l-1-1-1 10v10l-6 16-5 16 1 8 2 8 1 8 1 7v1l1 1 38 22 38 21z" stroke-linejoin="round"/>
  <path fill="#4e4d4d" stroke="#4e4d4d" stroke-width=".7" d="M866 648h44l4-7 5-8-12-14-12-14-11-14-10-15-20-4-19-4-21 2-20 1-17 2-17 2h-9l-8-1h-4l-21 5-20 5-10 14-10 14 12 14 12 14 18 7 19 7 20 2 21 1h38l24-4 24-5z" stroke-linejoin="round"/>
  <path fill="#221d1d" stroke="#221d1d" stroke-width=".7" d="M230 623l-5-35 2 4 2 4v3l1 3v5l1 4v8l-1 4-1 4v12l1 4-1 3v7h-1l-1-3v-3l-1-4-1-4v-3l1-3v-4l1-5v-3l1-4v-10l-1-3v-3l-1-1v-1l2 12 2 12z" stroke-linejoin="round"/>
  <path fill="#a3a2a3" stroke="#a3a2a3" stroke-width=".7" d="M1027 656l8-7-7-2-6-2-6 3-5 2 5 3 6 3h5z" stroke-linejoin="round"/>
  <path stroke="#000" stroke-width=".7" d="M229 653v-7l1-3-1-4v-12l1-4 1-4v-8l-1-4v-5l-1-3v-3l-2-4-2-4-1 1h-1l-1 2v7l1 5v-2l1-2h2v1l1 1v3l1 3v10l-1 4v3l-1 5v4l-1 3v3l1 4 1 4v3l1 3h1z" stroke-linejoin="round"/>
  <path fill="#221d1d" stroke="#221d1d" stroke-width=".7" d="M251 640l-10 10-2-4-2-4h1l1-1 4-1 4-1 1 1 1 1 3 2 3 2-1 1v1l-5 2-5 2h-1l-1-1h-1l5-5 5-5zm404 12h1l-2-7-2-8-13-5-12-5h1l2-1 1 4 1 4 6-1 7-1v3l-6 3-5 2 1 2 1 2h9l5 4 5 4z" stroke-linejoin="round"/>
  <path stroke="#000" stroke-width=".7" d="M242 650l2 1 5-2 5-2v-1l1-1-3-2-3-2-1-1-1-1-4 1-4 1-1 1h-1l2 4 2 4h1z" stroke-linejoin="round"/>
  <path fill="#221d1d" stroke="#221d1d" stroke-width=".7" d="M1038 642l7 1v-5h13l1-1 1-1-1-1-1-2h-7l-3 1h-13l-3 1-2 1 3 2 3 2h-5l3 1 4 1z" stroke-linejoin="round"/>
  <path fill="#4e4d4d" stroke="#4e4d4d" stroke-width=".7" d="M1045 642v1l6-1 7-2 5-3 6-3 4-5 4-5-1-4-1-5-2-2-1-3v5l1 5-3 6-3 5-4 3-3 2-1 1-1 1h-13v4z" stroke-linejoin="round"/>
  <path fill="#221d1d" stroke="#221d1d" stroke-width=".7" d="M268 640l13-2-7-2-6-2h-6l-5-1 5 4 5 3h1z" stroke-linejoin="round"/>
  <path stroke="#000" stroke-width=".7" d="M1030 639l1 1h5l-3-2-3-2 2-1 3-1h13l3-1h7l1 2 1 1 3-2 4-3 3-5 3-6-1-5v-5l-2 1h-2l-3 6-3 5-9 1h-21l-8-1-7-1-3 3-2 2 4 4 5 4 4 3 5 2z" stroke-linejoin="round"/>
  <path fill="#221d1d" stroke="#221d1d" stroke-width=".7" d="M266 612l2 6 5 3 6 3-3-2-2-3-3-1-2-2-4-1-3-1-2-1-1-2 3 2 4 1h7l3 2 4 1 2 2 2 2-1 2v2h-2l-2-1-15-6-14-6-6-14-5-15 2 3 2 3v1l1 1-1 4-1 4v-3h-5l14 17 14 16v-8l1-9z" stroke-linejoin="round"/>
  <path stroke="#000" stroke-width=".7" d="M271 629l-5-6-6-2-6-3-7-2-6-3-2-3-2-4 2 7 2 6 6 2 6 2 6 2 7 2 2 1 3 1zm12-4l1-4-2-2-2-2-4-1-3-2h-7l-4-1-3-2 1 2 2 1 3 1 4 1 2 2 3 1 2 3 3 2 2 1h2z" stroke-linejoin="round"/>
  <path fill="#221d1d" stroke="#221d1d" stroke-width=".7" d="M653 590l-7 21-4-12-4-12-2 2-2 1v3l-1 6-1 5-1 1v1l2 5 2 5-1 1h-1l-3-4-2-5 12-9 13-9z" stroke-linejoin="round"/>
  <path fill="#a3a2a3" stroke="#a3a2a3" stroke-width=".7" d="M1061 598l26 6 11-7 11-7-15-11-15-11-14-12-13-13-15 5-15 4-7 18-7 18 6 15 7 14 20-9 20-10z" stroke-linejoin="round"/>
  <path fill="#221d1d" stroke="#221d1d" stroke-width=".7" d="M595 614l2-13-2 1-1 1-4 3-4 3 3 2 4 2 1 1h1z" stroke-linejoin="round"/>
  <path fill="#d0cecf" stroke="#d0cecf" stroke-width=".7" d="M1020 609l16 1 7-1 7-2v-18l-3-6-2-6-6-2-6-3-5 5-4 4-3 6-3 5-3 6-3 6 4 3 4 2z" stroke-linejoin="round"/>
  <path fill="#221d1d" stroke="#221d1d" stroke-width=".7" d="M273 607l4-9-4-3-3-3-3 2-2 1 3 5 4 5v1l1 1z" stroke-linejoin="round"/>
  <path stroke="#000" stroke-width=".7" d="M213 606l3-12-1-7v-7l-1 8-1 8v10z" stroke-linejoin="round"/>
  <path fill="#221d1d" stroke="#221d1d" stroke-width=".7" d="M901 602l-5-10-3-5-3-6-2-7-1-7-2-7-1-8-1-7-1-8v-7l1-8-1-8v-8l1-7 1-8 3-6 3-6 1-3 1-4-6 25-5 24 2 23 2 23 8 18 8 17z" stroke-linejoin="round"/>
  <path stroke="#000" stroke-width=".7" d="M242 599l2-8-1-1v-1l-2-3-2-3h-1v-1l-1-2v-2l1-4 2-4h2l3-1v-1h1l1-1v-2l-1 1-1 1-5 2-4 2-1 1-1 1-3 4-3 4v1l2 6 2 6 2 1 3 1h5v3z" stroke-linejoin="round"/>
  <path fill="#221d1d" stroke="#221d1d" stroke-width=".7" d="M633 587l7-10h9l-1 1v1l-3 3-2 3-3 1-2 1h-4l-3-1 2-18 2-18-2-11-2-11-3-24-2-25-1-1-1-1-1-1v-1l1 5 1 4-1 4v16l1 3 1 4 1 4v4l1 3v5l1 4-1 3-1 2v10l-1 4v7l1 4 1-1 1-1v-4l1-5v-11l1-5v-3l1-4v3l1 2-1 3v8l1 4v8l-1 4-1 3-1 4v3l-1 5v4l-1 3v11l2-2 3-3zm37 2l10-5 3-4 4-4 5-4 5-4-5 1-4 1-5 4-4 4-4 5-4 5-1 1zm-432-7l1 1 1-3 2-3 4-2 4-3-3-1-2-2-3 1h-2l-2 4-1 4v2l1 2z" stroke-linejoin="round"/>
  <path fill="#221d1d" stroke="#221d1d" stroke-width=".7" d="M227 581l1 1v-1l3-4 3-4 1-1 1-1 4-2 5-2 1-1 1-1v2l-1 1h-1v1h6l6-1-3-2-3-3-7 3-6 2-5 4-4 4-1 3-1 2z" stroke-linejoin="round"/>
  <path fill="#4e4d4d" stroke="#4e4d4d" stroke-width=".7" d="M963 582l11-32v-10l1-10-4 1-3 1-1 4v3l-2 3-1 2-1 5v4l-1 8-1 7 1 7 1 7z" stroke-linejoin="round"/>
  <path fill="#221d1d" stroke="#221d1d" stroke-width=".7" d="M717 577l13-2h4l5-1h4v-1l1-1 6-2 6-2-7 1h-7l-8 1-7 1-5 3-5 3zm-217-11v-6l-1-4-1-5 1-2 1-2v-5l1-5 1-2 2-2 3-2 4-2 2-1 2-1v-2l1-2-3 1h-2v-2l1-1 2-2-4-1-3-1 2-1 2-1 3-2 4-2h2l2-1 1 4 2 4-1 3v6l1 4 2-1 2-1 3 3 3 3h1l2-1-2-4-1-4-1-2-1-2-1-4-1-5v-2l1-2-1-3-1-4 1-1 3 3 3 2 1 2 1 2 4 2 4 2-1-2v-3l5 1h5l2 1h8l5-1 2 1 3 1 3 2 4 2 2 1 2 1 2 4 2 3 1 1h2v-10l-1-2v-3l-2-3-2-4-1-2-1-2-5-1-4-1-3-1-2-1h3l3-1h6l2 3 3 3 1 2 1 2 1-4 1-4 1 2 1 2 1 4 2 4v3l1 2 1-1 2-1v-22l1 4 2 4v1l1 1v-3l-1-4v-5l-1-3-1-3-2-3-1-3-2-3-1-3 1 21 2 21-12-9-11-9-4 8-3 7-20-6-20-6-6 4-5 3-7 1h-7v-5l1-6 4-4 5-5-11 5-11 5-4-14-4-15v-5l-1 4v7l2 5 2 4v11l1 6v4l2 1 3 1v-4h2l2-1-1 2v17l-1 5v5l-1 2v36h4zm920 1l4-2 5-1 5-1 3 1h3v-2h-1v-1h-1l-1-1-2-2-2-3-1-3v-11l-5-4-4-4-1-4v-5l-2-4-2-4-5 4-5 4 1 12 2 11-12-13-12-14 7 14 7 13v1h3l5 2 6 1 1 1h2v-2l1-2-1-1-1-1-3-4-2-5-1-1v-2l2 1 3 1v-4l1-5 2-6h1l-1 6v5l-1 2v1l1 5 2 5v2l1 1 3 3 3 3v4l-4 2-4 1-2 1h-1l-3 2-2 1v-3l-1 2-1 2 1 1 1 1h4l4-1z" stroke-linejoin="round"/>
  <path fill="#221d1d" stroke="#221d1d" stroke-width=".7" d="M1406 568v-2l-3-2-3-3-2-1-1-2-1-5v-5h2l3-1v-1l-4 1h-4v6l-1 4-1 3-4-1-3-2-1-1v-1 4l3 2 4 2 2-1 2-2 3 2 3 2 2 1h2l1 2 1 1zm-767-1l11-4 2-2 3-2 3-5 3-5v-7l-5 4-5 3-6 2-6 2-2 5-1 5 1 2 2 2z" stroke-linejoin="round"/>
  <path stroke="#000" stroke-width=".7" d="M640 565l11-4 1-4 2-4-5 3-4 2 2-3 3-3-5 4-5 3v6z" stroke-linejoin="round"/>
  <path fill="#221d1d" stroke="#221d1d" stroke-width=".7" d="M1366 562l3-8v-2l1-3 1-4 1-5v-12l1-5-1-1-1-1v5l-1 4v4l-6 8-5 8-3-10-2-10-1-1v-1l-3 1-3 1-4-5-3-5-1-2v-2 4l1 4 2 4-1 1-1 1h-2l-1-1 1 1 1 1 1 1 1 1 3 2 4 1 1 1h1l2 5 2 5 1 1h1l2 5 2 5v2l1 1 2 1h3z" stroke-linejoin="round"/>
  <path stroke="#000" stroke-width=".7" d="M1439 561l1 1v-5h-1v-1l-1-3-1-3v-2l-1-6-1-7h-1v-1l-1 4-1 3v11l1 3 2 3 2 2 1 1h1z" stroke-linejoin="round"/>
  <path fill="#292929" stroke="#292929" stroke-width=".7" d="M1370 534h-6l-4-1-3-2h-2l-1-1 2 10 3 10 5-8 6-8z" stroke-linejoin="round"/>
  <path fill="#292929" stroke="#292929" stroke-width=".7" d="M1391 560l2-7v-6h4l4-1v1l-7-13-7-14 12 14 12 13-2-11-1-12 5-4 5-4 2 4 2 4v5l1 4 4 4 5 4v-8l2-3 2-4 2-1 2-1v-48l-12-9-11-10-14-23-13-24-8 1h-7l-13-13-12-14-6 17-5 17 2 3 3 2v9h-15l-3-2-2-2v-9l-8-7-8-7 12 6 13 5-11-10-11-11-13-8-12-9-4-9-4-9-5-15-5-15-16-4-15-4-7 5-6 4-14 10-13 9-9 10-8 10h-3l-2 4-2 3-1 3-1 2-2-2-1-3 1-2 2-3-3 1h-2l-4 1h-9l-1 3-1 2 6 2 7 2v2l-1 3-1 2 2-1 2-1 2 3 3 2v20l1 19-1 4-1 3 1 2 1 1 1 3 1 2v3l1 3 8-31 9-32 5 2 5 1 2 1 2 1v2l1 1 1 3 2 2v-10l-2-6-2-7-1-3-1-3 15 3 16 2 8-4 8-5 11 8 12 7-15-4-15-5 2 4 2 3 1 3 2 2 2 3 2 2 1 3 2 2 2 3 2 2 9 33 9 33 5 9 6 8 1-14 2-15-5-4-4-4-5-20-5-20 4 15 4 15 39 9 39 8-6-2-5-2-12-3-11-3 15-11 15-11 3-1 4-2-2 21-2 20-10-1-10-1v1l4 3 5 3 1 1h1l5 4 5 3 1 2 2 1 5 19 6 19 4 20 4 19v1l1 1 3 2 4 1z" stroke-linejoin="round"/>
  <path fill="#221d1d" stroke="#221d1d" stroke-width=".7" d="M1439 556l1 1v-33l-2 1-2 1-2 4-2 3v8l1-3 1-4v1h1l1 7 1 6v2l1 3 1 3zm-58-1h2l-4-19-4-20-6-19-5-19 1 3 2 2 1 1h1l3 4 4 4-1 1h-1l1 6 2 5v3l-3-4-2-5h-2l-1-1h-1v6l1 6v2l1 1 1 1 1-1 1-2 2 7 2 7 1 8 1 7 1 8 1 8z" stroke-linejoin="round"/>
  <path fill="#292929" stroke="#292929" stroke-width=".7" d="M1143 552l6-10v-8l1-8-1-2v-2l-21 8-20 7v-1l-1-1-1-1-6-2-6-3h-2l-1-1 26 12 26 12z" stroke-linejoin="round"/>
  <path fill="#221d1d" stroke="#221d1d" stroke-width=".7" d="M669 550l11-4v-6l1-6-4-5-3-6-1 3v9l1 6-3 5-2 4zm-33-4l12-3 4-3 5-3 6-2 7-3-3-4-2-4-7 2-6 2-5 4-4 3-4 5-3 5v1z" stroke-linejoin="round"/>
  <path stroke="#000" stroke-width=".7" d="M674 545l7-6-3-4-3-5v7l1 6-1 1-1 1z" stroke-linejoin="round"/>
  <path fill="#4e4d4d" stroke="#4e4d4d" stroke-width=".7" d="M835 537l19-27h1l13-17 14-18 11-14 12-14 1-2 2-2 4-18 4-18 14-7 14-7 26-11 26-12h3l3 2 3 1 2 2 3 2 1 1h1l2-1 2-1h2l3-1 2-1 2-2 1-1 1-1h13l1 1h2l5 1h6l1 1 1 1 5 2 5 1h4l4 2 5 2 1 1 2 1 1 2 1 1 1 3 1 2 3 1 3 1 4-3 4-4h7l7-1 6 1 6 1h3v1h1l4 4 4 4h1l2-1 2-1 2-2 1-2 2-2 1 2 2 1-1 3-1 3-2 4-1 3-1 3-1 3 3 1 4 1 2-2 2-2h5v-12l1-3 1-3 1-2 1-3v-2l-7-2-6-2 1-2 1-3-17 4-16 4-20-1-20-2-18-8-18-8-15 6-14 5-14-10-13-11 2-6 3-7 11-5 12-5 16 4 17 3 17 7 17 7 16-4 16-4 13-5 13-5 9-7 10-7h13l14-1v28l-11 14-10 13h2l3-1-2 3-1 2 1 3 2 2 1-2 1-3 2-3 2-4v-2l1-3 1-1 3-3 4-4 5-3 5-4h1l13-9 14-10 6-4 7-5 15 4 16 4 5 15 5 15 3 4 3 4v1l1 1 2 5 2 4h-1v-1h-2l12 9 13 8 11 11 11 10 2 1h2l1 1h1l5-17 6-17 16 7 17 7v1l3 1 3 1v5l1 4 13 24 14 23 11 10 12 9V342l-18 5-18 4h-38l-16-2-15-2-18-7-17-8-14-12-13-13-18-5-18-5-10-8-10-8-19-2-19-3-20 2-19 1-19 7-19 7-20 1h-19l-17 10-17 10 5-1 5-2v-1l1-1 5-2 5-2v-1l1-1h11v1h14l1 1h1l5 2 6 2 1 6 2 6v3l-1 6v5-1l-3-6-2-7-7-1-7-2-8 1-8 1h-11l5-3 5-4-3-1-3-1-6 3-6 2h-10v-2h-32l-14 12-14 12-15 11-15 11-14 12-14 12-11 16-10 15-8 16-7 16-23 3-22 2-18-8-17-9-21-5-21-5-19 1h-18l-23-2-22-2-3-12-3-12 2-10 3-11-20 3-20 3-9 10-9 10-14-13-13-13-22 1h-21l-29 2-28 1v13l1 5v11l1 5v21l1 2v28l20-4 20-5 36 7 36 6 1 3 2 3 1 3 2 3 1 3 1 3v5l1 4v6h1l1 2 1 1v6l1 6v4l1 5 2 5v-2l1-2v-3l1-3v-1l1-2v-14l1-4 1-3 1-3v-22l1-4h2v7l1 1 1 1 1 1 26 1h27l14 9 14 9 6 14 6 13 14 9 15 8 43-2 44-3z" stroke-linejoin="round"/>
  <path fill="#292929" stroke="#292929" stroke-width=".7" d="M964 544l3-5v-3l1-4 3-1 4-1 1 1h2l20-3 20-3h-1v-1l-1-1-1-2-3-3-3-4-1-1-1-2-4-2-3-3h-2l-1-1-17-1-16-1v2l1 8 2 7-1 8-1 7-1 5v4z" stroke-linejoin="round"/>
  <path fill="#221d1d" stroke="#221d1d" stroke-width=".7" d="M1270 542l4-11-2-7-1-7-4-2-4-2 2 6 3 6 1 8 1 7v2z" stroke-linejoin="round"/>
  <path fill="#767676" stroke="#767676" stroke-width=".7" d="M479 466v-59l-1-4v-16l1-5v-8h2l1 4 1 3 28-1 29-2h21l22-1 13 13 14 13 9-10 9-10 20-3 20-3-3 11-2 10 3 12 3 12 22 2 23 2h18l19-1 21 5 21 5 17 9 18 8 22-2 23-3 7-16 8-16 10-15 11-16 14-12 14-12 15-11 15-11 14-12 14-12h34l17-10 17-10h19l20-1 19-7 19-7 19-1 20-2 19 3 19 2 10 8 10 8 18 5 18 5 13 13 14 12 17 8 18 7 15 2 16 2h38l18-4 18-5v-52h-68l-21-1-25-2-24-2-11 3-10 2-13-6-13-6-15-1-15-1-20-6-20-6-23 3-22 3h-36l-10 5-10 5-21 4-21 4-19 6-19 6-17 10-16 10-16 10-16 10-18-6-17-7-22 4-21 3-24-1-23-2-17-9-17-10h-19l-18-1h-48l-17 10-16 9-18 8-18 8-15-7-15-8-23-3-22-4-24 3-23 2-14-2-13-3-1 25v24l-5 22-5 21h-22l-21-1-24-1-23-2-3 4-2 3 1 1h1v14l1 3v4l1 4v4l1 3v39l1 4v20l1 1 27 6 27 5 14 6 14 6 9-36 10-37z" stroke-linejoin="round"/>
  <path stroke="#000" stroke-width=".7" d="M644 540l11-4 5-3 6-3h-4l-3-1-6 3-5 3-2 3-2 2z" stroke-linejoin="round"/>
  <path fill="#292929" stroke="#292929" stroke-width=".7" d="M482 539v-67l-1-2v-2 42l1 29z" stroke-linejoin="round"/>
  <path fill="#221d1d" stroke="#221d1d" stroke-width=".7" d="M1108 537l41-15-2 3-2 2-7 2-6 2-6 2-6 2-6 1h-6v1zm-209-34l16-36-10 16-9 15-3 4-3 4 1 12 2 11-2-11-1-12-1 3v2l-1 8-1 7 6-11 6-12z" stroke-linejoin="round"/>
  <path fill="#292929" stroke="#292929" stroke-width=".7" d="M1085 527l5-15-2-1-2-1-1 1-4-3-3-4-11 8-11 7h-4l1 2 1 2 15 2 16 2zm-192 2l-3-23 1 12 2 11z" stroke-linejoin="round"/>
  <path stroke="#000" stroke-width=".7" d="M998 534l11-4v-9l-7-2-6-3-2-1-1-1h-3l-4-1-3-1v2l1 2 2 2 3 1 3 2 3 1-1 3-1 2v4l2 2 3 1z" stroke-linejoin="round"/>
  <path fill="#4e4d4d" stroke="#4e4d4d" stroke-width=".7" d="M1364 534h6v-4l1-4v-13l-1-1-1-1v-2l-1-6v-9l-3-4-2-4-1-1-1-1-3 2-3 1-2 3-1 2-2 2-2 2v10l-1 5v4l1 3 1 2 1 2 1 1 1 3 1 2v1l1 1 1 1h2l3 2 4 1z" stroke-linejoin="round"/>
  <path fill="#221d1d" stroke="#221d1d" stroke-width=".7" d="M855 510h-1l4 9 4 8-4-8-3-9zm137 20l1 1v-4l1-2 1-3-3-1-3-2-3-1-2-2-1-2v-2l3 1 4 1h3l-6-1-5-2 1 4 2 4 3 6 4 5z" stroke-linejoin="round"/>
  <path fill="#292929" stroke="#292929" stroke-width=".7" d="M1340 530l2-2-2-4-1-4v-4l-1-6v-6l2-5 3-5v-1l-2-5-2-6-2 4-2 3-2 7-1 7v9l1 8 2 5 2 4 1 1h2z" stroke-linejoin="round"/>
  <path fill="#4e4d4d" stroke="#4e4d4d" stroke-width=".7" d="M1403 492l-13-19-3 13-2 12 9-3 9-3z" stroke-linejoin="round"/>
  <path fill="#292929" stroke="#292929" stroke-width=".7" d="M532 528l-2-11-1-7v-7l-1 6-1 6-1 7-1 6h7z" stroke-linejoin="round"/>
  <path fill="#221d1d" stroke="#221d1d" stroke-width=".7" d="M1085 527h3l9-5 9-6 18-2 18-2-1 2-1 2 6-10 6-11-1-4-1-5-18 14-18 13h-19l-5-1-3 8-2 7zm-29-8l22-15-1-1v-1l-13 9-12 8h4z" stroke-linejoin="round"/>
  <path stroke="#000" stroke-width=".7" d="M1017 524l1 1v-14l-4-3-3-4h-1l-1-1-6-1-6-2h-2l1 3 1 2 1 1h2l3 3 4 2 1 2 1 1 3 4 3 3 1 2 1 1z" stroke-linejoin="round"/>
  <path fill="#221d1d" stroke="#221d1d" stroke-width=".7" d="M655 519l3-4-6-2-6-3-6 2-5 1 3 1 4 1 6 2 7 2z" stroke-linejoin="round"/>
  <path fill="#292929" stroke="#292929" stroke-width=".7" d="M1150 486l-8-10-5-4-5-4-4-1-3-2 3 15 3 14 3 2 3 2-2 4-1 3-2 2-1 2-3 2-3 2h-11l18-13 18-14zm-572 8l23 18-2-21-1-21-36-6-36-7-20 5-20 4 4 15 4 14 11-5 11-5-5 5-4 4-1 6v5h7l7-1 5-3 6-4 20 6 20 6 3-7 4-8z" stroke-linejoin="round"/>
  <path fill="#221d1d" stroke="#221d1d" stroke-width=".7" d="M1347 515l1-9v-16l1-5-3-4-2-4v-1l-3-1-3-1 1 1 1 1 1 1 2 1-1 2v1l1 1 2 1 1 6 1 5v5l-1 6v8l1 2zm-768-5l-5-6-7-1-7-2-7-2-7-2v5l6 2 7 2 7 2 8 1 2 1h3z" stroke-linejoin="round"/>
  <path fill="#767676" stroke="#767676" stroke-width=".7" d="M1056 495l37 5h12l13-1-5-17-4-18-18 1-18 1-18-1-18-2-22-1-22-1-1 13v12l16 10 16 10 16-5 16-6z" stroke-linejoin="round"/>
  <path fill="#221d1d" stroke="#221d1d" stroke-width=".7" d="M1292 493v-3l-2-5-1-6v-3l1-3 2-3v-3l2-5 2-5h1l1-1h33l4 2 5 2 10 1 10 1 2-20 2-21-4 2-3 1-15 11-15 11 11 3 12 3 5 2 6 2 1-2 2-2-1-8v-9l-2 2-1 2-3 6-3 6-8-1-7-1-4-1-4-2 8-1 8-1 5-3 6-3v-31l2 6 3 6 1 8 2 7-1 8v8l-2 3-2 3-39-8-39-9 3 3 4 2h3l5 1h6l1 1 1 1 2 3 2 2h-2l-1-1-4-2-4-3-2 1-1 1-6-1-5-1-1-1-1-1-3-4-2-4v-4l-1-6v-7l-1-1-1-1 1 2 2 2v2l1 1 1 6 1 5v2l1 2h1l-4-15-4-15 5 20 5 20 4 4 5 4-2 15-1 14-6-8-5-9v2l1 1 1 5 1 4v3l1 2 2 4 2 4v2l1 2 1-2 2-3z" stroke-linejoin="round"/>
  <path fill="#292929" stroke="#292929" stroke-width=".7" d="M898 498l5-10 2-6 3-6-4 5-4 5-1 6-1 6z" stroke-linejoin="round"/>
  <path fill="#221d1d" stroke="#221d1d" stroke-width=".7" d="M1131 494l-6-29-1-1-1-2h-11v2l9 15 10 15z" stroke-linejoin="round"/>
  <path fill="#767676" stroke="#767676" stroke-width=".7" d="M59 493l31-7h18l18-1 20-1 21-2 17-7 18-8 13-13 13-13 20-1 20-1 22 2 22 1 22-1 22-1v-5l-1-8v-46l1-2v-15l-1-3-1-3-16 13-16 12-25 1h-47l-22-1-14 12-14 12-12 11-11 11h-44l-45 1H44l-22-3-22-4v66l29 2 30 2z" stroke-linejoin="round"/>
  <path fill="#a3a2a3" stroke="#a3a2a3" stroke-width=".7" d="M372 456l-1-15v-22l2-3 3-4 23 2 24 1 21 1h22l5-21 5-22v-24l1-25 13 3 14 2 23-2 24-3 22 4 23 3 15 8 15 7 18-8 18-8 16-9 17-10h48l18 1h19l17 10 17 9 23 2 24 1 21-3 22-4 17 7 18 6 16-10 16-10 16-10 17-10 19-6 19-6 21-4 21-4 10-5 10-5h36l22-3 23-3 20 6 20 6 15 1 15 1 13 6 13 6 10-2 11-3 24 2 25 2 21 1h68v-53h-24l-24-1-23 1-23 1-36-4-35-4v11l-2 6-1 6-1-6v-6l-1-2v-3l-1-5-1-5v-5l1-5 1-5 1 1h2l20-3 21-4 21-4 22-5-4-8-4-8-25 2-24 1-24 2-23 1-24 3-23 3-19 7-19 7 19 5 19 5 24-2 24-2 4 17 4 17-25 2-25 1-26 1h-25l-23 3-23 3-19 6-19 6-22 5-21 4-22 2-22 1-31 3-30 2h-24l-24-1h-68l-26 1-26 1-25 1-25 1-25 2-24 2-23 1-23 1-19-6-19-6-21 3-21 3-23 3-23 3-9 17-9 16-13 13-12 12-24-1-23-2-17 6-16 5-6 2-5 2v15l1 5 1 5v12l1 4 2 23 2 22 4 3 5 3z" stroke-linejoin="round"/>
  <path fill="#292929" stroke="#292929" stroke-width=".7" d="M1348 495v1l2-2 2-2 1-2 2-3 3-1 3-2-1-3-1-3-2-1-1-1h-3l-1-1-3-1-2-2-2-1-2-1-4-1-4-2h-7l2 2 3 1 2 2 2 1v1h1l3 1 3 1v1l2 4 3 4-1 5v5z" stroke-linejoin="round"/>
  <path fill="#221d1d" stroke="#221d1d" stroke-width=".7" d="M1224 461l4-38h-1l-7-19-6-19 2 23 3 23-1 22v21l-15 2-14 2 17-8 18-9z" stroke-linejoin="round"/>
  <path fill="#292929" stroke="#292929" stroke-width=".7" d="M964 483v1l3-1 3-1 3-1 3-1-2-2-1-3v-3l1-3-1-1v-1l-3 5-3 4-2 4-1 3z" stroke-linejoin="round"/>
  <path fill="#221d1d" stroke="#221d1d" stroke-width=".7" d="M1201 481h6l1-3 2-3v-1l1-2-3-2-3-2h-1l-1-1-3 3-3 3h-1v-1l-2-6-2-7 1-6 1-7v-3l1-4-1 1v1l-2 2-2 1-1 4-1 4v5l1 5 1 4 1 3 1 2 2 3 2 3 2 2 2 1v1h1z" stroke-linejoin="round"/>
  <path fill="#a3a2a3" stroke="#a3a2a3" stroke-width=".7" d="M1000 480l8-7-6-3-5-3-3 5-2 4 4 2 4 2zm78-3l14-1 6-1 6-2-6-2-5-3-7 2-7 1-7 2-7 1 6 2 7 1z" stroke-linejoin="round"/>
  <path fill="#221d1d" stroke="#221d1d" stroke-width=".7" d="M1352 475l2 1-5-3-4-4-7-1-7-2-2 3-1 2 5 2 5 1h-1v-1l-2-1-2-2-3-1-2-2h7l4 2 4 1 2 1 2 1 2 2 3 1z" stroke-linejoin="round"/>
  <path fill="#4e4d4d" stroke="#4e4d4d" stroke-width=".7" d="M1203 467l2 1 3 2 3 2v-2l1-2v-8l1-8-1-1v-1l1-6 2-6v-8l1-8-2-6-2-7-1-1v-1l-1-2v-2l-2-2-1-3-1-1v-2l-2-1-2-1v6l1 5v3l-2 7-1 6-1 4-1 3-1 3v2l-1 4-1 3-1 4v3l-1 7-1 6 2 7 2 6v1h1l3-3 3-3z" stroke-linejoin="round"/>
  <path fill="#221d1d" stroke="#221d1d" stroke-width=".7" d="M1265 442l-13-35h-12l-6-4-6-5 8 13 9 13-4 7-3 6-6-7-5-7 7 13 7 12 3-12 3-12 5 12 6 11 3-2 4-3zm15 27l-18-66v1l2 7 2 6 1 8 1 7 2 7 2 7 2 6 3 6 1 6 2 5zm-385-3l7-10 3-5 3-6v3l1 3-1 2v2h1l2-3 2-4v-2l1-3-1-2v-2l-2 2-1 1-1 1h-1l-2 2-1 2v2l-3 3-2 3-1 2-1 2-2 4-1 3z" stroke-linejoin="round"/>
  <path fill="#292929" stroke="#292929" stroke-width=".7" d="M905 463l10-7 2-5 3-5v-1l1-1 3-5 3-6 3-5 3-6 2-5 2-6v-1l1-1 4-4 4-5 4-3 5-3v-1l1-1 1-1 1-1 19-10 19-10-26 12-26 11-14 7-14 7-4 18-4 18h1l1-1 1-1 2-2v2l1 2-1 3v2l-2 4-2 3h-1l-2 4-1 4zm322-40l11 14 3-6 4-7-9-13-8-13-8-7-7-8v1l1 1 6 19 7 19z" stroke-linejoin="round"/>
  <path stroke="#000" stroke-width=".7" d="M1365 450l1-16-2-7-1-8-3-6-2-6v31l-6 3-5 3-8 1-8 1 4 2 4 1 7 1 8 1 3-6 3-6 1-2 2-2v9l1 8-2 2-1 2 2-3 2-3z" stroke-linejoin="round"/>
  <path fill="#221d1d" stroke="#221d1d" stroke-width=".7" d="M1026 458h7l1-2 2-3h-1l-1-1 2-2 2-2 1 1h2l3 2 3 2v1l1 1 3 1 4 1-1-1-1-2-5-3-4-3h-9l-8-1 2 4 2 3-3 2-2 2z" stroke-linejoin="round"/>
  <path fill="#292929" stroke="#292929" stroke-width=".7" d="M1036 458l12-3-1-1v-1l-3-2-3-2h-2l-1-1-2 2-2 2 1 1h1l-2 3-1 2h3zm226-1l3-10-2-7-1-7-2-7-1-8-2-3-2-4-4 3-3 3 2 7 3 6 3 6 3 5 1 8 2 7v1z" stroke-linejoin="round"/>
  <path fill="#221d1d" stroke="#221d1d" stroke-width=".7" d="M1079 455l12-3h11l-7-2-7-2-5 4-4 3z" stroke-linejoin="round"/>
  <path fill="#767676" stroke="#767676" stroke-width=".7" d="M1204 454l5-10-5-3-4-3-1 8v7l2 1h3z" stroke-linejoin="round"/>
  <path fill="#221d1d" stroke="#221d1d" stroke-width=".7" d="M1177 454l5-10v-1l1-1 2-4 3-5h1l1-1 1-6 2-6v-9l1-7v-3l-1-5-1-6-9 32-8 31 1 1h1z" stroke-linejoin="round"/>
  <path stroke="#000" stroke-width=".7" d="M1310 452l-4-5-1-1-1-1h-6l-5-1h-3l-4-2-3-3h-1l-1-2v-2l-1-5-1-6-1-1v-2l-2-2-1-2 1 1 1 1v7l1 6v4l2 4 3 4 1 1 1 1 5 1 6 1 1-1 2-1 4 3 4 2 1 1h2z" stroke-linejoin="round"/>
  <path fill="#221d1d" stroke="#221d1d" stroke-width=".7" d="M1390 410l-1-9-3-1-3-1 2 5 2 4v2l1 2 1 5 1 4v5l1 5 1 5-1 2v2l-2 3-2 3-1-2-1-2-1-1v-1l-2-5-2-5-1-1v-2l-1-5-1-6-1-1v-2l-1-6v-7l-1-1v-2l2-1 3-1 1 1 1 1 1 1h1l-17-7-16-7 12 14 13 13h7l8-1z" stroke-linejoin="round"/>
  <path fill="#292929" stroke="#292929" stroke-width=".7" d="M1166 448v-7l-1-1v-2l-2-4-2-5-1-1-1-1v-5l1-6v-8h-5l-2 2-2 2-4-1-3-1-2 3-1 3 2 7 3 6 4 4 5 4 4 4 5 4 1 2 1 1z" stroke-linejoin="round"/>
  <path stroke="#000" stroke-width=".7" d="M1387 446l4-6v-2l1-2-1-5-1-5v-5l-1-4-1-5-1-2v-2l-2-4-2-5v-1h-1l-1-1-1-1-1-1-3 1-2 1v2l1 1v7l1 6v2l1 1 1 6 1 5v2l1 1 2 5 2 5v1l1 1 1 2 1 2z" stroke-linejoin="round"/>
  <path fill="#292929" stroke="#292929" stroke-width=".7" d="M1039 440l-3-29 8-1 9-2-2-5-1-5 3-2 4-3h-16l-15-1 1 17 1 17 5 7 6 7z" stroke-linejoin="round"/>
  <path fill="#221d1d" stroke="#221d1d" stroke-width=".7" d="M1082 441l6-1 3 1h8l4-1h-1l-1-1-7-2-7-2-1-1v-1l-2-5-1-5v5l-2-1-1-1v1l1 1v2l-1 4-1 4v2l1 1h2zm-43-1l-4-10v-7l1-7 6-3 6-3 2-1 3-1-9 2-8 1 1 15 2 14z" stroke-linejoin="round"/>
  <path fill="#292929" stroke="#292929" stroke-width=".7" d="M1101 439l-3-9v-3l1-6 1-6v-3l3-5 4-5h6l6-1 1 1h1l4 4 5 4 3-3 3-4v-1l1-1 2-3 2-3-2 1h-1l-4-4-4-4h-1v-1h-3v1l1 1-2 3-2 2h-3l-2-1h-3l-3-1h-2l-2-1-4-1-3-2-1-1v-1l-4 4-4 3-3-1-3-1-1-2-1-3-3 1h-2v9l-2 3-1 2 7 9 7 9h-8v2l1 2 1 5 2 5v1l1 1 7 2 7 2z" stroke-linejoin="round"/>
  <path fill="#221d1d" stroke="#221d1d" stroke-width=".7" d="M1170 439l2-7-1-19v-20 13l1 4-1 2v2l-1 6v8l1 2-1 5v4z" stroke-linejoin="round"/>
  <path fill="#292929" stroke="#292929" stroke-width=".7" d="M1077 437l2 1 1-4 1-4v-2l-1-1v-1l-1-2v-2l-2-2-1-2-1-4-1-4-2-2-1-3v11l1 3 1 4 1 4 1 3 1 3v2l1 2z" stroke-linejoin="round"/>
  <path fill="#221d1d" stroke="#221d1d" stroke-width=".7" d="M1315 423l-29-23 3 5 3 5 14 12 14 12-3-5-2-6z" stroke-linejoin="round"/>
  <path fill="#a3a2a3" stroke="#a3a2a3" stroke-width=".7" d="M133 429h44l11-11 12-11 14-12 14-12 22 1h47l25-1 16-12 16-13-7-19-6-20-21 5-20 4-24 3-23 3-22-4-22-4-8 17-8 17-14 4-13 3h-26l-26-1-24 1H33l-33-1v57l22 4 22 3h44l45-1z" stroke-linejoin="round"/>
  <path fill="#4e4d4d" stroke="#4e4d4d" stroke-width=".7" d="M1338 432h6v-9h-2l-1-1-4-1-3-1h-7l-3-1v9l2 2 3 2h9z" stroke-linejoin="round"/>
  <path fill="#221d1d" stroke="#221d1d" stroke-width=".7" d="M1341 422l3 1-3-2-2-3h-1l-1-1h-2l-2-1-13-5-12-6 8 7 8 7 3 1h7l3 1 4 1z" stroke-linejoin="round"/>
  <path fill="#37231d" stroke="#37231d" stroke-width=".7" d="M1090 419l-14-18 1 4 1 3 1 3 1 3 1 3 1 2h8z" stroke-linejoin="round"/>
  <path fill="#221d1d" stroke="#221d1d" stroke-width=".7" d="M1200 420l3-13v-3l-1-5v-6l-5-1-5-2-1-1v-2l-1-4v-5l-1-2v-3l3 2 4 1v3l1 3v5l1 4 1 3 1 3v5l1 4v7l-1 4v3z" stroke-linejoin="round"/>
  <path fill="#d0cecf" stroke="#d0cecf" stroke-width=".7" d="M367 360l33-11 23 2 24 1 12-12 13-13 9-16 9-17 23-3 23-3 21-3 21-3 19 6 19 6 23-1 23-1 24-2 25-2 25-1 25-1 26-1 26-1h25l26-1 32 1 33 1 30-2 31-3 22-1 22-2 21-4 22-5 19-6 19-6 23-3 23-3h25l26-1 25-1 25-2-4-17-4-17-24 2-24 2-19-5-19-5 19-7 19-7 23-3 24-3 23-1 24-2 24-1 25-2 4 8 4 8-22 5-21 4-21 4-20 3 1 6 1 5v7l35 4 36 4 23-1 23-1 24 1h24V135h-3l-3-1h-3l-2-1-1-1 3-2 4-3h2l2-1h1V85l-21 8-21 8-2 13-2 13-23-1-23-1-45 4-45 3-16-10-15-11-21-5-20-6-33-14-32-14-19-10-19-11h-18l-17-1-21-6-20-6-21-5-20-6-22-4-21-5-36-6-35-6h-21l-2 1h-8l-5-1h-20l-7-1-7-2-3-1-2-2h-36l20 7 21 7 21 4 22 3h48l21 4 22 3 22 5 22 4 21 5 21 5 20 6 21 5 18 3 19 2 18 8 18 8 17 9 18 9-16 7-15 6-18 4-17 3 12 13 13 12 23-3 24-3 20-5 21-6 20 6 20 6 20 2 21 1h52l-3 11-3 10-20 6-20 6-8-1-7-2-24 3-23 2-25 2-24 2-24 2-23 1-24 1h-23l-23-1-22-2-24-2-24-2-24-2-24-3-21-4-20-5 23-3 23-3 24-1 25-2 24-2 24-2 17-9 18-9-11-13-10-14-24-2-23-3-20 5-19 4-25-1-25-2-20 6-20 6h-48l-24-2-24-2-23-3-22-4-24-2-24-3-24 2-24 2-19 8-18 7-22-4-21-5-25 2-25 1-20 6-20 6 11 13 11 13 23 3 23 3 23 3 23 3 18 2 19 2 24 2 25 1 25 1 25 1 25-1 25-1h53l20 6 21 5 24 2 24 2 22 4 23 3 22 4 22 4-13 3-13 2-24-1-24-1-25-1-24-2h-26l-25-1h-44l-25 2-25 1-24 2-24 2-24 3-23 2-21 2-21 2-24 3-23 3-25 2-24 1-16 9-16 9-13 10-13 10-21 2-21 2-23 8-23 7-6-21-5-21-20 5-20 5-19 1h-18l-19-7-19-7-20 5-20 5-4 23-4 22-23 1H89l-45-1-44-1v75l33 1h57l24-1 26 1h26l13-3 14-4 8-17 8-17 22 4 22 4 23-3 24-3 20-4 21-5 6 20 7 19 1 3 1 3 5-2 6-2z" stroke-linejoin="round"/>
  <path fill="#221d1d" stroke="#221d1d" stroke-width=".7" d="M962 396l13-2 6-1 7-1 2-1 3-2h-7l-7-1-7 3-6 2-2 2-2 1z" stroke-linejoin="round"/>
  <path fill="#4e4d4d" stroke="#4e4d4d" stroke-width=".7" d="M797 388l-13-11-19 3-18 2 25 3 25 3z" stroke-linejoin="round"/>
  <path fill="#221d1d" stroke="#221d1d" stroke-width=".7" d="M1118 393l5 1 2-2 2-3-1-1v-1l-6-1-6-1-7 1h-7v1l1 1 3 2 4 1 2 1h2l3 1h3z" stroke-linejoin="round"/>
  <path stroke="#000" stroke-width=".7" d="M1120 392l2-5-7 1-6 1 5 2 6 1z" stroke-linejoin="round"/>
  <path fill="#221d1d" stroke="#221d1d" stroke-width=".7" d="M958 390l9-4 1 1h6l6-1h1l1-1h29l6 1h7l1-1 4-3 4-3 1-1h-23l-1-1-3-2-2-2-3-1-3-2h-3l-19 10-19 10zm283-13v-5l1 2 2 2 15 5 15 4-12-7-11-8-8 5-8 4 1 3 2 2 1 2 2 2v-11z" stroke-linejoin="round"/>
  <path fill="#767676" stroke="#767676" stroke-width=".7" d="M1153 374h9l4-1 10-13 11-14v-28l-14 1h-13l-10 7-9 7-13 5-13 5-16 4-16 4-17-7-17-7-17-3-16-4-12 5-11 5-3 7-2 6 13 11 14 10 14-5 15-6 18 8 18 8 20 2 20 1 16-4 17-4z" stroke-linejoin="round"/>
  <path fill="#292929" stroke="#292929" stroke-width=".7" d="M1034 378l2-4-4 1h-11l-3 1h-2l-2 1-2 1h22z" stroke-linejoin="round"/>
  <path fill="#221d1d" stroke="#221d1d" stroke-width=".7" d="M1180 370l17-20h-1l-5 4-5 3-4 4-3 3-1 1-1 3v2h3zm55 9l-31-5-2-3-2-3 2-5 3-5 5 2 5 1 5 4 5 4 4 5 4 4 1 1h1zm53-1l1 1-2-4-2-5-1-1v-1l-3-4-3-4 4 9 4 9h2z" stroke-linejoin="round"/>
  <path fill="#a3a2a3" stroke="#a3a2a3" stroke-width=".7" d="M1120 349l-40 6-13 1-13 1 17 9 18 8h18l18-1-3-12-2-12z" stroke-linejoin="round"/>
  <path fill="#d0cecf" stroke="#d0cecf" stroke-width=".7" d="M1114 365l6-5-6-2-6-3 3 5 3 5z" stroke-linejoin="round"/>
  <path fill="#221d1d" stroke="#221d1d" stroke-width=".7" d="M1260 358l-10-6 2 4 3 3-5 1h-5l2-4 3-4-6 3-6 2 11 1h11z" stroke-linejoin="round"/>
  <path fill="#a3a2a3" stroke="#a3a2a3" stroke-width=".7" d="M1176 339l-20-8-5 15-4 14 14-10 15-11z" stroke-linejoin="round"/>
  <path stroke="#000" stroke-width=".7" d="M1245 360l10-1-3-3-2-4-3 4-2 4z" stroke-linejoin="round"/>
  <path fill="#a3a2a3" stroke="#a3a2a3" stroke-width=".7" d="M1033 356l10-5-4-3-4-4-9 1h-8l3 4 3 3 4 2 5 2z" stroke-linejoin="round"/>
  <path stroke="#000" stroke-width=".7" d="M1091 335l1-11v-3l-2-6-1-6-6-2-5-2h-1l-1-1h-14v-1h-11l-1 1v1l-5 2-5 2-1 1v1l-5 2-5 1h-2v2h10l6-2 6-3 3 1 3 1-5 4-5 3h11l8-1 8-1 7 2 7 1 2 7 3 6v1z" stroke-linejoin="round"/>
  <path fill="#292929" stroke="#292929" stroke-width=".7" d="M1116 323l13-2 2-4 2-5h-2l-1-1-2 2-1 1h-1v-1l-5 1h-7l-5-1-5-2h-1v2l1 1 5 4 5 3 1 1 1 1z" stroke-linejoin="round"/>
  <path stroke="#000" stroke-width=".7" d="M1116 314l10-1v1h1l1-1 2-2h-2l-2-1h-3l-2-1h-1l-5-1-4-1h-5l-2 2-1 2h1l5 2 5 1h2z" stroke-linejoin="round"/>
  <path fill="#292929" stroke="#292929" stroke-width=".7" d="M1121 309l5 1-3-3-2-3 1-1 1-2v-1h-4l-4-1-2-1-1-2-5 1-5 1 2 4 2 3v2h5l4 1 5 1h1z" stroke-linejoin="round"/>
  <path fill="#fefefe" stroke="#fefefe" stroke-width=".7" d="M402 267l42-4 13-10 13-10 16-9 16-9 24-1 25-2 23-3 24-3 21-2 21-2 23-2 24-3 24-2 24-2 25-1 25-2h44l25 1h26l24 2 25 1 24 1 24 1 13-2 13-3-22-4-22-4-23-3-22-4-24-2-24-2-21-5-20-6h-53l-25 1-25 1-25-1-25-1-25-1-24-2-19-2-18-2-23-3-23-3-23-3-23-3-11-13-11-13 20-6 20-6 25-1 25-2 21 5 22 4 18-7 19-8 24-2 24-2 24 3 24 2 22 4 23 3 24 2 24 2h48l20-6 20-6 25 2 25 1 19-4 20-5 23 3 24 2 10 14 11 13-18 9-17 9-24 2-24 2-25 2-24 1-23 3-23 3 20 5 21 4 24 3 24 2 24 2 24 2 22 2 23 1h23l24-1 23-1 24-2 24-2 25-2 23-2 24-3 7 2 8 1 20-6 20-6 3-10 3-11h-52l-21-1-20-2-20-6-20-6-21 6-20 5-24 3-23 3-13-12-12-13 17-3 18-4 15-6 16-7-18-9-17-9-18-8-18-8-19-2-18-3-21-5-20-6-21-5-21-5-22-4-22-5-22-3-21-4h-48l-22-3-21-4-21-7-20-7H0v291l44 1 45 1h70l23-1 4-22 4-23 20-5 20-5 19 7 19 7h18l19-1 20-5 20-5 5 21 6 21 23-7 23-8z" stroke-linejoin="round"/>
  <path stroke="#000" stroke-width=".7" d="M1123 300v1h33l8-1 8-1h13l-1-1v-2l-2-1-2-1h-5l-4-1-3 1h-28l-2-1-1-2h-2l-4 1-4 1-7 2-7 1h-1l1 2 2 1 4 1h4z" stroke-linejoin="round"/>
  <path fill="#221d1d" stroke="#221d1d" stroke-width=".7" d="M1185 299l1-5h-1l-1-1h-4l-1-1h-17l-7 1h-10l1-3 1-3-6 2-6 2h2l1 2 2 1h28l3-1 4 1h5l2 1 2 1v2l1 1z" stroke-linejoin="round"/>
  <path fill="#292929" stroke="#292929" stroke-width=".7" d="M1184 293l2 1-2-4-2-4h-33l-1 1h-1l-1 3-1 3h10l7-1h17l1 1h4z" stroke-linejoin="round"/>
  <path fill="#c5b5b8" stroke="#c5b5b8" stroke-width=".7" d="M929 285l-65-2-26 1h-25 68l24 1h24zm-242-14h72l22-1-47 1h-47z" stroke-linejoin="round"/>
  <path fill="#a3a2a3" stroke="#a3a2a3" stroke-width=".7" d="M687 271l94-1 1-1 26-1 27-1h24l24-1 25-1 14-5 14-5-24-2-24-3h-52l-25-1-25-1-26 1h-25l-24 3-24 2-10 8-9 7 9 1 10 1z" stroke-linejoin="round"/>
  <path fill="#c5b5b8" stroke="#c5b5b8" stroke-width=".7" d="M782 269h41l9-1h22l5-1h-24l-27 1-26 1z" stroke-linejoin="round"/>
  <path stroke="#000" stroke-width=".7" d="M1272 253l3-12v-18l-1-5-1-6h-2l-1-1-1 5-1 5v5l1 5 1 5v3l1 2v6l1 6z" stroke-linejoin="round"/>
  <path fill="#a3a2a3" stroke="#a3a2a3" stroke-width=".7" d="M1348 125l46 2 2-13 2-13 21-8 21-8v-5l-20 6-20 6-18 8-18 8-20 6-20 6-35-8-35-8 11-14 12-15 14-11 15-12 14-11 15-12 18-14 18-15h-66l-14 17-13 17-14 13-13 12-15 11-15 11-47-6-46-6-4 2-3 1 32 14 33 14 20 6 21 5 15 11 16 10 45-3 45-4zm86 9l6 1v-9h-1l-2 1h-2l-4 3-3 2 1 1 2 1h3z" stroke-linejoin="round"/>
  <path fill="#767676" stroke="#767676" stroke-width=".7" d="M1324 120l40-12 18-8 18-8 20-6 20-6V15h-1l-1-1-3-1-2-2h-3l-5-2-5-3h-1V5l-2-2-2-3h-44l-18 15-18 14-15 12-14 11-15 12-14 11-12 15-11 14 35 8 35 8z" stroke-linejoin="round"/>
  <path fill="#4e4d4d" stroke="#4e4d4d" stroke-width=".7" d="M1361 100l37-13-6-15-6-15-18-5-17-6-17 10-17 9-14 12-14 12 10 10 10 10 26-4 26-5z" stroke-linejoin="round"/>
  <path fill="#767676" stroke="#767676" stroke-width=".7" d="M1221 81l30-22 13-12 14-13 13-17 14-17h-18l-13 16-12 16-14 13-13 12-52 1h-51l-2-1-1-2-1 1v1l-2 2-2 1-1 4v3l2 1 3 1 46 6 47 6z" stroke-linejoin="round"/>
  <path fill="#4e4d4d" stroke="#4e4d4d" stroke-width=".7" d="M1235 57l27-25 12-16 13-16h-16l-14 9-14 8-8 14-8 14-16-8-15-8 20-14 21-15h-85l2 18 2 18-12 11-12 11h51l52-1z" stroke-linejoin="round"/>
  <path fill="#b29aa0" stroke="#b29aa0" stroke-width=".7" d="M1121 72l7-3-3-1-2-1-19-11-18-12-31-7-31-7-26-4-26-4-18-8-17-8-5-3-5-3h-69l2 2 3 1-4 1-4 1-2 1h-1l35 6 36 6 21 5 22 4 20 6 21 5 20 6 21 6 17 1h18l19 11 19 10z" stroke-linejoin="round"/>
  <path fill="#916d7b" stroke="#916d7b" stroke-width=".7" d="M1123 67l1-7 2-1 2-2v-1l1-1-18-7-17-7-19-11-19-11-17-9-16-10h-96l5 3 5 3 20 5 21 4 23 8 23 7 31 7 31 7 18 12 19 11z" stroke-linejoin="round"/>
  <path fill="#654654" stroke="#654654" stroke-width=".7" d="M1132 58l24-22-2-18-2-18h-90l-2 6-1 5-1 2v1l-1 3-1 2 19 11 19 11 17 7 18 7 1 2 2 1zm95-13l16-28 14-8 14-9h-34l-21 15-20 14 15 8 16 8z" stroke-linejoin="round"/>
  <path fill="#c295a7" stroke="#c295a7" stroke-width=".7" d="M1024 30l-46-15-21-4-20-5 17 8 18 8 26 4 26 4z" stroke-linejoin="round"/>
  <path fill="#733c58" stroke="#733c58" stroke-width=".7" d="M1056 19l2-5v-1l1-2 1-5 2-6h-39l16 10 17 9z" stroke-linejoin="round"/>
  <path fill="#a3a2a3" stroke="#a3a2a3" stroke-width=".7" d="M1438 14l2 1V0h-25l2 3 2 2v1h1l5 3 5 2h3l2 2 3 1z" stroke-linejoin="round"/>
  <path fill="#b29aa0" stroke="#b29aa0" stroke-width=".7" d="M803 6h13l1-1h6l3-1 3-2h1l2-1V0h-55l2 2 3 1 7 2 7 1h7z" stroke-linejoin="round"/>
  <path fill="#a3a2a3" stroke="#a3a2a3" stroke-width=".7" d="M816 6l11 1h2l2-1h22l2-1 4-1 4-1-3-1-2-2h-26v1l-2 1h-1l-3 2-3 1h-6l-1 1z" stroke-linejoin="round"/>
</svg>
