<svg xmlns="http://www.w3.org/2000/svg" viewBox="0 0 1440 1440" version="1">
  <path d="M0 0h1440v1440H0z"/>
  <path stroke="#000" stroke-width=".7" d="M0 1439v1h212v-5l4-3c2-1.5 6-4 8-5l5-2 1-1c.5-.5 4-2 7-3 3.5-1.5 8-3.5 9-4l2-1 4-1c2-1 7-2.5 10-3l7-2 7-2c3.5-1.5 8.5-3.5 10-4l3-1 3-1c2-.5 7-2 10-3l7-3 7-1c3.5-1 9-2.5 11-3l5-1 2-1 9-3c3-1.5 6.5-3 7-3h2l5-1c3-1 8-3 10-4l5-2h2c1-.5 5.5-1.5 9-2 4-.5 9-.5 10 0h3l4-1c2.5-1 7-3.5 9-5l5-3 5-4c3-2 7-4.5 8-5l3-2h1l1-1 5-2c2.5-1 5.5-2 6-2h37c1 0 3 .5 4 1h3l4 1c2.5.5 6 1.5 7 2l2 1 3 3c1.5 1 3 3 3 4l1 1 2 4 2 4 1 3c1 1 1.5 5 1 8v5l-1 1c0 .5-.5 2-1 3v2l-4 2c-2 1-7.5 2-11 2h-7c-.5-.5-4.5-1.5-8-2-3.5-1-8-1-9 0l-2 1-3 2-3 1-2 1c-1 .5-5 1.5-8 2l-5 1h-2c-.5-.5-1.5-2-2-3l-1-2-3 3-2 3-1 2-1 2-1 1c-.5.5-3.5 2.5-6 4-2 1.5-5.5 3-7 3l-2-1-1-1c0-.5-2-3-4-5l-3-4-1 2-1 1h-1l-4 4c-1.5 2-4.5 5.5-6 7l-3 3-2 1c-.5.5-3.5 2.5-6 4l-5 3-2 2-1 1-1 2c0 1-1 3-2 4l-1 1h281l1-3 1-3 3-1c1.5-1 5.5-3.5 8-5 3-1.5 6.5-3 7-3h1l5-3c2.5-1.5 6.5-2.5 8-2l4 1v3c0 1.5-2.5 5.5-5 8l-5 5v1l-1 1v1h755V461h-4l-3 1h-3l-2 1c-1 0-4 .5-6 1l-4 1 1-2c1-1.5-.5-4-3-5l-5-3-4-4-5-5v-2l-1 3-1 2 3 6c2 2.5 3.5 7 3 9l-1 4-1 3-3 6-2 4-1-1c0-.5-2-3.5-4-6-1.5-2.5-3.5-6-4-7l-1-3 2-2 2-3v-3c0-2 .5-4.5 1-5l1-1v-9l-1-5c-.5-3-1-7-1-8v-3l-1-5c-.5-3-2.5-8-4-10l-2-5-1-1c0-.5-.5-1.5-1-2l-1-2-4-1c-1.5-1-3.5-.5-4 1v11h-3l-2-1-3-4-2-4-4-3-4-3v4c.5 1.5-1 3-3 3l-4-1 1 3c.5 1 2.5 3 4 4l4 2 1 2 2 1v2c0 .5-2 2.5-4 4l-3 3v7l-3 3c-1 1-6 1.5-10 1l-7-1-6-1-6-1-1 1h-1l3 2 4 2h3c2 0 4.5.5 5 1h1l4 1c2.5 0 6.5.5 8 1h3v1h3c1.5-.5 3 1 3 3 0 1.5-.5 3-1 3v-1l-6-1-6-1v-1h-6l-6-1-2 1c-1 0-5.5.5-9 1-3.5 0-8-.5-9-1l-1-1-1-1-1-1h-5c-2-.5-5.5-1-7-1l-3-1-2-1-2-1-3-5c-1.5-2.5-3.5-7-4-9l-1-5-1-2c-.5-1-3-3.5-5-5s-4-2-4-1v2l1 6c.5 2.5.5 8.5 0 12v6h-1c-.5 0-2-3-3-6-1-3.5-2.5-8-3-9v-3l-1-4c-.5-2.5-2.5-7.5-4-10l-3-6-3-5-3-5 3 2 3 1 1 1 1 1 3 1 4 1-1-1v-2l-4-1-3-2-5-3c-2.5-1.5-7-4-9-5l-3-3h-2l-1-1-6-3c-3-2-7-4-8-4l-1-1-4-2c-1.5-1.5-5-4-7-5l-4-3h-6v2c.5 1 2 2 3 2h2l1 1c1 .5 1 2.5 0 4l-2 2-5 1h-4l2 5 3 5h-1l-5-5c-2-2-4.5-5-5-6l-1-2h-1v-1h-4l-2-1v6c.5 2.5 1.5 6 2 7l1 1 1 5c1 2.5 2 8.5 2 12l1 6v3l-2-6c-1-3.5-3-8-4-9l-1-2-1 5c0 2.5 1 8.5 2 12l2 6-2 3-1 3-3-6c-1.5-3.5-3.5-8.5-4-10v-4l1-3c.5-2 .5-8 0-12v-9l-1-1-1-2-1 5-1 4v3c.5 1 0 6-1 10l-1 7v3l1 7c.5 3 1 8 1 10v4l-1 1v1l2 6c1.5 2.5 3.5 5.5 4 6l2 1-2 2c-.5.5-1 .5-1 0s-1.5-4-3-7l-2-6v-2l-2-1c-.5-.5-1-5-1-9v-20l-3-3c-1-1.5-3-1.5-4 0l-2 2-1 4c0 2-.5 5.5-1 7v2l-1 4c0 2-.5 4.5-1 5h-1l-3 4c-1 1.5-2.5 2.5-3 2 0-1-.5-2.5-1-3l-1-2-2 1h-1v3l-1-7c-.5-3.5-.5-8 0-9l1-2 1-4c.5-2.5-1-4-3-3l-4 1-5 2-4 1-2 3-2 2-3-2-2-2-6-1c-2.5-.5-6-.5-7 0l-1 1-4 3-4 2-2 6-1 6-1 7-1 6-1-4-1-4-1-7v-7l-1-2c-.5-1 .5-2 2-2h3l1-3c.5-1.5-2-4-5-5l-6-2v-4c.5-.5 3.5-1 6-1l5-1h1c1-.5 1.5-1.5 1-2v-1h-3c-1-.5-2.5-1-3-1h-4l-2-1-5-2c-2-1-5.5-2.5-7-3l-2-2-4-1c-1.5-.5-3.5-1-4-1l-1-1h-1c-.5-.5-2-1-3-1h-2l1 2 2 2h-3c-1-.5-3-1-4-1-.5-.5-2.5-1-4-1l-3-1h-2c-1 0-3 .5-4 1h-1l-5 1c-2 .5-4.5 1-5 1-.5-.5-1-2-1-3l1-2v-1c0-.5-.5-1-1-1h-2c-1 0-4.5 2-7 4l-5 3h-6l-2 1c-.5 0-2 .5-3 1l-2 1 2 1h6l-1 1c0 .5-2 1.5-4 2h-5c-1-.5-5.5-.5-9 0l-7 1h-1l-2 1-1 1-4-3-3-3-4 2c-1.5 1-4 2.5-5 3h-1v1l-3 3c-1 1-5 3.5-8 5l-5 2-1 1c-.5.5-3 3.5-5 6-2 2-4.5 5-5 6l-1 2-3 4c-1 1.5-4 5.5-6 8l-3 4-5 3c-2 1-5 3.5-6 5l-1 3-2 3c-.5 1.5-3 6-5 9l-3 5-4 5c-1.5 2.5-4.5 6.5-6 8l-2 3-1 2c0 1-1.5 4.5-3 7l-2 5v7l-1 6c0 3-.5 9-1 12l-1 6-1 2c0 .5-1 3-2 5l-1 4-4 2-4 2h-11l-3 1c-1 0-3 .5-4 1l-1 1-5 2c-2 .5-5.5 1.5-7 2l-2 1-2 2-2 2-2 6c-.5 3 0 7.5 1 9l3 2v2l1 1 3 6c2 3 4.5 6.5 5 7l2 1 3 3c2 1 5.5 2.5 7 3h3l1-1 1-1-3-3c-1-1.5 0-3.5 2-4l5-2-2-6c-.5-3-1-6.5-1-7l1-1 3 1c2 0 4.5 1 5 2l1 2 1 6 1 5 3 5 3 5-1-4v-4l-1-3v-11l1-8v1l1 1 1 6c1 3 2.5 8.5 3 11l2 5v2c.5.5 2 4 3 7l4 8 1 2 2 4c1.5 1.5 4.5 5 6 7l4 4 4 6c2.5 2.5 5.5 6.5 6 8l2 2-1 2c0 1-2.5 0-5-2l-5-4-3 3c-1.5 1-3.5 2.5-4 3v1l-2 2-2 1-5-1c-2-1-7-2.5-10-3l-6-1-1-1-1-1v7l-4-1-3-1-2 2c-1 1-2.5 2-3 2h-1l-4-2c-1.5-1-3.5.5-4 3v4h-2c-.5-.5-2.5-1.5-4-2l-3-2-1 1v1l-2 3-1 2-2 1c-1 .5-2.5 0-3-1 0-1.5-2-2.5-4-2l-3 1-1-1c0-1-.5-3-1-4v-2l-2-3c-.5-2-2-2.5-3-1l-1 2h-3c-1.5-.5-7-1-11-1l-8-1-3 1h-2l-1 2-1 1-1 1c-.5.5-3 2-5 3l-3 1h-6l-3-1h-2l-2-1-4 2-3 1-2-1c-.5-1-3-3-5-4l-3-2-4-2-3-2-7-1c-3.5-1-9.5-2-12-2h-5l-3-1-4-2-1-1h-3c-.5-.5-2.5-1.5-4-2-1-.5-2.5-1-3-1l-1-1-5-2c-2-1.5-5-5-6-7l-1-4-1 1-1 1-1 1 3-4c1.5-2.5 4-5.5 5-6l2-2v-4c.5-2 2.5-5.5 4-7l3-3 2 3c1 1.5 2 3.5 2 4l1 1 2-2c1.5-1 4.5-5 6-8l3-7 1 2 2 1 6 1 6 1 2-1 2-2h2c1.5 0 4.5.5 6 1l4 1h11l-2-3c-.5-2-2-6.5-3-9-.5-2.5-1.5-5-2-5l3-2c1.5-1 4-1 5 0l2 2 1 1h1l1 5c.5 2 2 7 3 10l3 5 2 2c1 .5 2.5-.5 3-2l1-3 1-1 1-1 3-4c2-2 4.5-2.5 5-1l2 3 1-2c1-1.5 3.5-2.5 5-2 2 .5 4 1.5 4 2h1v1h1l2 2 2 1-3-5-2-6 3 3 4 3-2-5-1-5 1-1c1-.5 3.5 1.5 5 4 1.5 2 4 4.5 5 5h2l5 2c2.5.5 4.5-1 4-3l-1-4h-1c-.5-.5-2.5-1.5-4-2l-2-2v-4c0-2-1-5-2-6l-2-3-1-2v-3l-6-2c-2.5-1.5-5.5-3-6-3l-2 2c-.5.5-4 1-7 1l-6-1-2-1-1-1 2 3c1 1 2.5 3 3 4l1 1-2 2-1 2-2 1h-1v-1l-2 4-1 3-1 1-2-1c-.5-1-.5-3 0-4l1-3-3-1-2-1h-2c-.5-.5-1.5-1-2-1-.5-.5-3-1.5-5-2l-4-1h-6c-1.5 0-5 2-7 4-2 1.5-5 2.5-6 2l-1-1 2-3c1-2 2.5-4 3-4h1l1-1c.5-.5 3-1.5 5-2l4-1h9c2-.5 6-1 8-1h5-1v-1h-2c-1-.5-5-1.5-8-2-2.5-.5-6-.5-7 0h-1l-4-1c-1.5-1-4.5 0-6 2l-3 3h-2l-2 2c-1 .5-4.5 2.5-7 4-2 1.5-4.5 3-5 3l-2-1-2-1h-2l-2-1h-1l-4-4-3-4-2-6-2-6-2-3-2-3-3-4-2-4h-2c-1 0-2 .5-2 1v1l-1 4c-.5 1.5-1.5 2-2 1 0-1-1-3-2-4l-1-2-1 2c-.5 1-2.5 0-4-2l-2-5-1-1v-2l-1-2c-.5-1.5-2-3.5-3-4l-1-1-1 1h-1l1 2c1 1 2 3.5 2 5v2h-6l-10-2c-2.5-1-5.5-2-6-2h-1v-2c.5-1 3.5-1.5 6-1l6 1 1-1 2-1h-1v-1h-2c-.5-.5-3-2-5-3l-3-3-6 2c-3 1-7 2-8 2l-2-1-3-1-3-2 1 4 2 3-3 1-3 1v1l1 1 3 2 4 2 1 2 1 1-6-1c-2.5-.5-5.5 0-6 1l-1 1-3 1c-1.5.5-3.5-1.5-4-4l-1-6v-2c0-1-.5-6-1-10s-1.5-8.5-2-9v-1 5c0 .5-1 5-2 9-.5 3.5-1 8.5-1 10v3l-1 5v30c.5 4.5 1 11.5 1 14v4l-1 4v15c0 1.5-.5 4-1 5v1l-1 5-1 4-1-3v-23c.5-3.5 1-8 1-9v-2l-1-5-2-12-1-7-1-9c0-5-.5-11.5-1-13v-3l-1-4c0-2.5-.5-8.5-1-12l-1-8-3-6c-1.5-3-3.5-5-4-4v4c.5 1.5 2 7 3 11l2 8h-2l-1-1-2-1c-1-.5-2.5-.5-3 0v1l-3 4-2 3 1-4 1-4 1-1-4-1c-1.5-.5-2-2-1-3l3-3-1-1v-1l-3-1c-1-.5-3-2.5-4-4l-1-3-1-1v-2l-1 7-1 6-2 2-1 1 2 1 3 1-7 1h-8v-1l-3 1-2 1-5 3-4 2-4 2-3 2-2-1-3-3-1-2-1-1v-1l-3 2c-1 1-4 3-6 4l-4 2-1 1c-.5 0-3 2-5 4l-3 4 1-2 2-2 1-3c1-1.5 4-5 6-7l5-4h1l-1-1-1-1-3 1h-3l-3 2c-1 .5-2.5 1.5-3 2l-1 1v1l-5 4c-2.5 1.5-5 2.5-5 2v-3l1-1v-1l1-2-5 2c-2 1-5 2-6 2l-1-1 4-2 5-3-1-3v-3l3-3c1.5-2 2.5-4 2-4h-1l-3 1-3 1v1l-2 3c-1 1-3.5 4.5-5 7l-2 4h-2l-2-1v-3c0-1.5-1-5.5-2-8-.5-2.5-1-6-1-7v-3l-2-2c-1-1-1.5-3.5-1-5l1-3v-21c.5-4 .5-8.5 0-9v-2l-1-6c-.5-3-1.5-7-2-8v-3l-1 1c0 .5-.5 2-1 3v46l1 9v42c.5 4 1 9 1 10v10c.5 3.5 1 10 1 13v29l1 2v33c.5 2.5 1 9 1 13v35l1 4c.5 1.5 1 7.5 1 12v8l-1 8v18l1 4c1 1.5 1.5 6 1 9l-1 5-1 1v-3c0-2-1-5-2-6l-2-2v-3l1-3-2-1-1-2-1 1-2-4-1-4-2 2-1 2v-4c.5-2 1-4.5 1-5l1-1-2-1c-1-1-3 0-4 2l-2 4-1 2c-.5.5-3.5 1.5-6 2l-4 1-1-3c0-2-3-6-6-8l-5-4-4 1h-5l-1-1h-2l-1-1h-2c-.5 0-1-1.5-1-3l1-3-3 2-3 1-3 1c-1 0-2-.5-2-1v-2h-12v-2c0-1.5-2.5-3-5-3h-5l-2 1c-.5.5-3.5 1-6 1-2-.5-4-2-4-3v-2l-1-5c0-2.5.5-8 1-11l1-7-1-1c0-.5-.5-5-1-9 0-4-.5-9.5-1-11v-3l-1-4c0-2.5-.5-9-1-13v-36l-1-4v-4l-1-3v-42l-1-2v-19l-1-2v-4c0-1.5-.5-5.5-1-8v-6l-1 2v45c.5 4 1 10 1 12v29l1 1v49l1 4v7l1 10 1 9v21l1 5v25l1 1v15c.5 1.5 1 5.5 1 8v52l1 5v15c.5 4 1 9 1 10v29l-2-5-1-6-1-5v-5l-1-3c0-2-.5-8.5-1-13v-17c0-4-.5-10.5-1-13v-29l-1-1v-2l-1-8v-18l-1-3c0-2-.5-8-1-12 0-4-.5-8.5-1-9v-30c0-1.5-.5-7-1-11v-23c0-2-.5-6.5-1-9l-1-6v-2c0-1-.5-6-1-10 0-4.5-.5-10-1-11v-45l-1-5v-6l-1-1c0-1-.5-6-1-10v-15l-1-5c0-2.5-.5-8.5-1-12v-8l-1-8v-14l-1 1-1 1v49l1 5v3c.5 1 1 4 1 6v10l1 6v55l-2 4-1 3v-1l-1-1v-1l-1 6v18l1 3c.5 1.5 1 6.5 1 10v6l-5-4c-2.5-2-6.5-4.5-8-5l-3-2c.5-.5.5-2.5 0-4l-1-4-6-1c-3-.5-8.5 0-11 1l-4 1h-2c-1-.5-.5-3 1-5s2-4 1-4h-2l-2-1c-1-1-2.5-3.5-3-5l-1-3-1 1c0 .5-1 .5-2 0-.5-1-1.5-2.5-2-3v-2l-3-2c-1.5-1.5-2.5-3.5-2-4l1-1-2-2-2-2h-2l-2-1-3-1c-1-.5-4.5-1-7-1-2.5-.5-5.5-1.5-6-2v-1l-3-3-2-3h-10l-5-1-6 2c-2.5 1-6 1.5-7 1l-2-1-2-1-1-1h-3c-1.5 0-1.5-2 0-4l4-4h1c.5-.5 4-2 7-3l8-4 3-1h4c2.5 0 8 .5 11 1l7 1-6 3c-3 1-7.5 3-9 4l-3 2-3 1h-3l4 1h5l1-1c1-.5 3-1 4-1l2-1h3c2-.5 4.5-3.5 5-6l2-5h-1v-1h-1c-.5-.5-4.5-2-8-3s-8.5-1.5-10-1h-3l-5 1h-17l-2 2-1 1-3 4-2 3v2c.5 1 1 2.5 1 3v1l-2 5-1 4-3 5-2 4-1-1c0-1-1-2.5-2-3-1-1-2-1-2 0v2l-2 5-2 5v-15c0-1-1-2-2-2-.5 0-1.5 1.5-2 3l-1 2-1 5c-.5 2-1 6.5-1 9l1 4 1 7c.5 3 1 8 1 10v9c0 2-1 3.5-2 3l-2-1-2 1c-.5.5-.5 3.5 0 6l1 4 1 2c.5 1 1 6.5 1 11 .5 4 1 9 1 10v1l1 6c.5 3 1 9.5 1 13v6l-1 2c0 .5-1 2-2 3s-2.5 1-3 0v-3l-1-4c-.5-2.5-3-4-5-3l-3 1-6 1-5 1v1c0 .5 1 1.5 2 2l2 1v1c.5.5-1 1-3 1l-4-1-2 1-2 1-7 2c-3 .5-7.5 2.5-9 4l-2 3-2-5c-.5-3-1.5-6.5-2-7v-1l-2-1-1-1h-1l-4 3c-2 1.5-5.5 3.5-7 4l-2 1-4 2c-1.5.5-5.5 2-8 3l-5 2 1-1c1-1 4-3.5 6-5 2.5-1.5 5.5-3 6-3l2-1 2-2 3-2h-2c-.5 0-3 .5-5 1l-3 1-4 1h-3l-2 2-1 1-3 2c-1 .5-2 .5-2 0v-1l-2-1c-.5-.5-4 0-7 1l-6 2-2-1-2-2-3-1-6-4-3-3h-2l-2-1-2 2-8 4-5 2-5 3-5 3 1-2 2-2 1-1h-2c-1-.5-2.5-1-3-1h-3l-1-1c.5-.5.5-1 0-1v-1l-3-1-2-2-8 1-7 1-6 2-5 2 3 1h7l-4 1h-3l3 2 3 1 1 1c.5 0 4 1 7 2 3 .5 6 2.5 6 4l1 3-1 3c-.5 1.5-2.5 2.5-4 2-1-.5-3.5-2-5-3l-3-3-2-1-6-3-4-3h-4l-3-1-5-4c-2.5-2-6.5-4.5-8-5l-2-1v742z" stroke-linejoin="round"/>
  <path fill="#9d734d" stroke="#9d734d" stroke-width=".7" d="M212 1440h9l8-6c4-3 13-8.5 18-11 5.5-2.5 17.5-7 24-9 7-2 20-6 26-8l26-8c7-2 19-5.5 24-7s15-5 20-7c5.5-2 17.5-3 24-2 6.5.5 20-6 27-13l14-15-1 1h-1l-3 2c-1 .5-5 3-8 5l-5 4-5 3c-2 1.5-6.5 4-9 5l-4 1h-3c-1-.5-6-.5-10 0-3.5.5-8 1.5-9 2h-2l-5 2c-2 1-7 3-10 4l-5 1h-2c-.5 0-4 1.5-7 3l-9 3-2 1-5 1c-2 .5-7.5 2-11 3l-7 1-7 3c-3 1-8 2.5-10 3l-3 1-3 1c-1.5.5-6.5 2.5-10 4l-7 2-7 2c-3 .5-8 2-10 3l-4 1-2 1c-1 .5-5.5 2.5-9 4-3 1-6.5 2.5-7 3l-1 1-5 2c-2 1-6 3.5-8 5l-4 3v5z" stroke-linejoin="round"/>
  <path fill="#c78c4c" stroke="#c78c4c" stroke-width=".7" d="M221 1440h19l11-5c5.5-2.5 17-7.5 23-10 6.5-2.5 19-7 25-9 6.5-2.5 16.5-2.5 20 0 3.5 2 3 9-1 14l-7 10h7l5-8c3-4.5 9-10.5 12-12s6.5-.5 7 2c1 2 5 .5 8-3s7.5-5 9-3 6.5 2 10 0 10-5 13-6c3.5-1.5 10-6 13-9 3.5-3.5 11-8 15-9 4-1.5 11.5-4.5 15-6 4-1.5 9.5-.5 11 2 1.5 2 5.5.5 8-3 3-4 9.5-5.5 13-3 4 2 9.5.5 11-3 2-4 2.5-12 1-16-1-4.5-7.5-10-13-11l-11-2h-2c-.5 0-3.5 1-6 2l-5 2-14 15c-7 7-20.5 13.5-27 13-6.5-1-18.5 0-24 2-5 2-15 5.5-20 7s-17 5-24 7l-26 8c-6 2-19 6-26 8-6.5 2-18.5 6.5-24 9-5 2.5-14 8-18 11l-8 6z" stroke-linejoin="round"/>
  <path fill="#f0a54c" stroke="#f0a54c" stroke-width=".7" d="M240 1440h71l7-10c4-5 4.5-12 1-14-3.5-2.5-13.5-2.5-20 0-6 2-18.5 6.5-25 9-6 2.5-17.5 7.5-23 10l-11 5z" stroke-linejoin="round"/>
  <path fill="#9d734d" stroke="#9d734d" stroke-width=".7" d="M318 1440h28l5-6c3-3.5 10-7.5 14-8 4-1 11.5-3 15-4 3.5-1.5 11.5-6.5 16-10 4.5-4 15-9.5 21-11 6-2 16-5.5 20-7 4.5-2 14-3.5 19-3 5 0 15-2.5 20-5 5.5-2.5 16-9.5 21-14l10-9-1-1c0-1-1.5-3-3-4l-3-3-2-1c-1-.5-4.5-1.5-7-2l-4-1-2 2c-1 .5-2.5 1-3 1s-4-.5-7-1c-2.5-.5-6-1-7-1h-16c-.5 0-1-.5-1-1v-1h-6l11 2c5.5 1 12 6.5 13 11 1.5 4 1 12-1 16-1.5 3.5-7 5-11 3-3.5-2.5-10-1-13 3-2.5 3.5-6.5 5-8 3-1.5-2.5-7-3.5-11-2-3.5 1.5-11 4.5-15 6-4 1-11.5 5.5-15 9-3 3-9.5 7.5-13 9-3 1-9.5 4-13 6s-8.5 2-10 0-6-.5-9 3-7 5-8 3c-.5-2.5-4-3.5-7-2s-9 7.5-12 12l-5 8z" stroke-linejoin="round"/>
  <path fill="#745a4e" stroke="#745a4e" stroke-width=".7" d="M346 1440h9v-3l1-3v2c.5.5 2.5 0 4-1 2-1 4.5-2.5 5-3l4-2 2-1h2c1.5 0 4 .5 5 1h6l1-2c.5-1 1-2.5 1-3 .5-1 2.5-3.5 4-5 2-2 4.5-4 5-4l6-3c2-1.5 4.5-3.5 5-4s1.5-1 2-1h3l1-1 1-2v-1c.5-1 3.5-1.5 6-1s5.5 1.5 6 2c1 0 3.5.5 5 1h5c1 0 2.5-.5 3-1l1-1 2-3 3-3v-1l2-2 1-2 8 1c4.5.5 13-1 17-3 4.5-2.5 17-4.5 25-4h16v-5c.5-3 0-7-1-8l-1-3-2-4-2-4-10 9c-5 4.5-15.5 11.5-21 14-5 2.5-15 5-20 5-5-.5-14.5 1-19 3-4 1.5-14 5-20 7-6 1.5-16.5 7-21 11-4.5 3.5-12.5 8.5-16 10-3.5 1-11 3-15 4-4 .5-11 4.5-14 8l-5 6z" stroke-linejoin="round"/>
  <path fill="#50444f" stroke="#50444f" stroke-width=".7" d="M355 1440h12v-2c0-1 .5-2.5 1-3l2-4 1-2-2 1-4 2c-.5.5-3 2-5 3-1.5 1-3.5 1.5-4 1v-2l-1 3v3z" stroke-linejoin="round"/>
  <path fill="#16172a" stroke="#16172a" stroke-width=".7" d="M367 1439v1h10l1-1c1-1 2-3 2-4l1-2 1-1 2-2h-6c-1-.5-3.5-1-5-1h-2l-1 2-2 4c-.5.5-1 2-1 3v1z" stroke-linejoin="round"/>
  <path fill="#2e2e4e" stroke="#2e2e4e" stroke-width=".7" d="M658 1440h27v-1l1-1v-1l5-5c2.5-2.5 5-6.5 5-8v-3l-4-1c-1.5-.5-5.5.5-8 2l-5 3h-1c-.5 0-4 1.5-7 3-2.5 1.5-6.5 4-8 5l-3 1-1 3-1 3z" stroke-linejoin="round"/>
  <path fill="#16172a" stroke="#16172a" stroke-width=".7" d="M384 1430c7.5-4.5 10.5-6.5 11-7l2-1 3-3c1.5-1.5 4.5-5 6-7l4-4h-2c-.5 0-1.5.5-2 1s-3 2.5-5 4l-6 3c-.5 0-3 2-5 4-1.5 1.5-3.5 4-4 5 0 .5-.5 2-1 3l-1 2zm-250-8l1-14-2 4c-.5 2-.5 5.5 0 7l1 3zm292-6c6.5-4.5 9.5-6.5 10-7l1-1 1-2 1-2-1 1c-.5.5-2 1-3 1h-5c-1.5-.5-4-1-5-1-.5-.5-3.5-1.5-6-2s-5.5 0-6 1v1l3 4c2 2 4 4.5 4 5l1 1 2 1h3zm218-10c9.5-1.5 13-3 13-4 0-1.5-2.5-1.5-5 0s-6 3.5-7 4h-1zm-74-3c6.5-4.5 12-6 15-6h9l-3-1c-1-.5-4-1-6-1-2-.5-5-1-6-1l-1-1-4 3c-1.5 1.5-3.5 4-4 5v2zm-124-1l3 1 5-1c3-.5 7-1.5 8-2l2-1h-4c-1.5-.5-4-1-5-1-.5 0-3-1-5-2l-3-3-1 2-2 2v1l1 2 1 2z" stroke-linejoin="round"/>
  <path fill="#2e2e4e" stroke="#2e2e4e" stroke-width=".7" d="M513 1400c7.5-3.5 9.5-8 9-11v-6l-3 7c-1 3-3 7-4 8l-2 2z" stroke-linejoin="round"/>
  <path fill="#50444f" stroke="#50444f" stroke-width=".7" d="M464 1399l6-3 2-1c1-1 5.5-1 9 0 3.5.5 7.5 1.5 8 2h7c3.5 0 9-1 11-2l4-2v-2c.5-1 1-2.5 1-3l1-1h-16c-8-.5-20.5 1.5-25 4-4 2-12.5 3.5-17 3l-8-1 3 3c2 1 4.5 2 5 2 1 0 3.5.5 5 1h4z" stroke-linejoin="round"/>
  <path fill="#16172a" stroke="#16172a" stroke-width=".7" d="M135 1397c1.5-9.5 1.5-16 1-19l-1-7-1 8c-.5 4-.5 10.5 0 13l1 5z" stroke-linejoin="round"/>
  <path fill="#2e2e4e" stroke="#2e2e4e" stroke-width=".7" d="M594 1397c18-6.5 27.5-10.5 31-12l8-3v-1c.5-.5.5-2 0-3 0-1-1.5-1.5-3-1-1.5 0-5.5.5-8 1h-13l-2-1h-3l-1 1c-.5 0-1.5.5-2 1l-3 5c-1 2.5-2.5 5.5-3 6l-8 1h-7l-1 1-1 1 1 1c1 0 4 .5 6 1 2 0 5 .5 6 1l3 1z" stroke-linejoin="round"/>
  <path fill="#16172a" stroke="#16172a" stroke-width=".7" d="M580 1390v1h7l8-1c.5-.5 2-3.5 3-6l3-5c.5-.5 1.5-1 2-1l1-1h-5c-2 0-5 3-6 6-1 2.5-5 5.5-8 6l-5 1z" stroke-linejoin="round"/>
  <path fill="#9d734d" stroke="#9d734d" stroke-width=".7" d="M508 1384v-7 7z" stroke-linejoin="round"/>
  <path fill="#16172a" stroke="#16172a" stroke-width=".7" d="M638 1372c-22 1.5-34 0-39-2l-9-5h1c1 0 2.5 1 3 2 1 .5 3 2 4 3l2 2 3 3 4 2 2 1h13c2.5-.5 6.5-1 8-1 1.5-.5 3 0 3 1 .5 1 .5 2.5 0 3v1l2-5 3-5zm-462 5c11 0 17-1 19-2l5-2h-8c-3.5-.5-8.5-.5-10 0l-3 1h4c2-.5 4.5-1 5-1s1.5.5 2 1 1 1.5 1 2l-8 1h-7zm402 0l8-3h-2c-.5-.5-1-2-1-3l1-3c.5 0 1.5-.5 2-1l2-2h-2c-.5-.5-4.5 0-8 1-3 1-7.5 3-9 4l-2 1 6-2 7-2-4 4c-2 1.5-2.5 4-1 5l3 1z" stroke-linejoin="round"/>
  <path fill="#0e1a4a" stroke="#0e1a4a" stroke-width=".7" d="M176 1376v1h7l8-1c0-.5-.5-1.5-1-2s-1.5-1-2-1-3 .5-5 1h-4l-3 1-2 1h2z" stroke-linejoin="round"/>
  <path fill="#c78c4c" stroke="#c78c4c" stroke-width=".7" d="M494 1376c6.5-4.5 7.5-7.5 6-9-1-1.5-3 0-4 3l-2 6z" stroke-linejoin="round"/>
  <path fill="#2e2e4e" stroke="#2e2e4e" stroke-width=".7" d="M583 1373l3 1 4-2c2.5-1 6-1.5 7-1l3 1-2-2c-1-1-3-2.5-4-3-.5-1-2-2-3-2h-3l-2 2c-.5.5-1.5 1-2 1l-1 3v2z" stroke-linejoin="round"/>
  <path fill="#50444f" stroke="#50444f" stroke-width=".7" d="M924 1365l9-3 1-1c1-.5 3.5-1 5-1 1.5-.5 5-1.5 7-2l6-3c1-.5 4-1.5 6-2l4-2 10-7c5.5-3.5 17-9.5 23-12 6-3 14.5-7.5 17-9l6-4 1-3c1-2 2-5 2-6l1-2 2-6c1-3 2.5-6 3-6h2l6-11c3-6 7-18 8-24 1.5-6-.5-15-4-18l-7-7 5 8c2.5 3.5 4.5 11.5 4 16 0 4.5-3.5 14.5-7 20-3.5 5-10 16-13 22-2.5 6-11 15-17 18-5.5 3-16.5 9.5-22 13-5 3-16 9-22 12-6 2.5-25.5 5.5-39 6l-27 1 4 5c2 2 9.5 5 15 6l11 2z" stroke-linejoin="round"/>
  <path fill="#2e2e4e" stroke="#2e2e4e" stroke-width=".7" d="M935 1363c9-2 15-4 18-5 3-1.5 6.5-4 7-5l2-2-4 2c-2 .5-5 1.5-6 2l-6 3c-2 .5-5.5 1.5-7 2-1.5 0-4 .5-5 1l-1 1 1 1h1z" stroke-linejoin="round"/>
  <path fill="#745a4e" stroke="#745a4e" stroke-width=".7" d="M948 1350c18-8 29-14 34-17 5.5-3.5 16.5-10 22-13 6-3 14.5-12 17-18 3-6 9.5-17 13-22 3.5-5.5 7-15.5 7-20 .5-4.5-1.5-12.5-4-16l-5-8-5-3c-2-1.5-7-4-10-5l-6-3 9 9c5 4 12.5 13.5 15 19 3 5 2.5 15.5-1 21-3.5 5-10.5 15.5-14 21-3.5 5-12 14-17 18-5 3.5-16.5 9.5-23 12-6 2.5-17.5 8.5-23 12-5 3-22 8-34 10s-22.5.5-21-3c1.5-4 6.5-11 10-14 4-3 12-8.5 16-11s7-6 6-7c-.5-1.5-5 0-9 3-3.5 2.5-10 2.5-13 0-2.5-3-8-9-11-12s-8.5-1.5-11 3l-4 8 1-7c.5-3.5-1.5-10-4-13-2.5-3.5-6.5-10.5-8-14-1.5-4 0-11.5 3-15 3-4 9-11 12-14 3.5-3.5 8-11.5 9-16l2-9-7 6c-3 2.5-10.5 7.5-15 10-4 2-13 5.5-18 7s-15 3-20 3c-4.5-.5-13.5-3-18-5-4-2.5-12.5-3.5-17-2-4 1.5-10 7.5-12 12-2 4-7.5 8.5-11 9-3.5 0-8.5-4.5-10-9l-3-9-2 4-2 4 8 10c4 4.5 12 6 16 3 4-3.5 11.5-11 15-15 3.5-4.5 12.5-6 18-3 6 3 22.5 5 33 4l21-3-1 5c0 2-2 6.5-4 9l-3 4-5 8c-2 4-3 13-2 18 1 4.5 2.5 14 3 19 1 5 6 11 10 12 4.5.5 11-2.5 13-6 2.5-4 9-6 13-4l9 3-8 11c-3.5 5.5-7.5 13.5-8 16v5l27-1 27-1z" stroke-linejoin="round"/>
  <path fill="#0e1a4a" stroke="#0e1a4a" stroke-width=".7" d="M785 1357c-1.5-8-3.5-14-5-17l-2-6-2-1c-.5-.5-1.5 1-2 3v6l2 6c1 2.5 3.5 6 5 7l4 2z" stroke-linejoin="round"/>
  <path fill="#745a4e" stroke="#745a4e" stroke-width=".7" d="M481 1354c1.5 0 3-.5 4-1l2-2h-3c-1-.5-3-1-4-1h-29v1c0 .5.5 1 1 1h16c1 0 4.5.5 7 1l6 1z" stroke-linejoin="round"/>
  <path fill="#9d734d" stroke="#9d734d" stroke-width=".7" d="M947 1343c15.5-9.5 27-15.5 33-18 6.5-2.5 18-8.5 23-12 5-4 13.5-13 17-18 3.5-5.5 10.5-16 14-21 3.5-5.5 4-16 1-21-2.5-5.5-10-15-15-19l-9-9-11-5c-5-3-16-9-22-12-5.5-3-17-9-23-12-5.5-3-17.5-7-24-8-6.5-1.5-19 0-25 3-5.5 2.5-15.5 7-20 9l-8 4-3 2c-1.5 1-6.5 3-10 4-3.5.5-11 1-15 1h-8v-1l-13 4c-6.5 2-18.5 7.5-24 11-5.5 3-16.5 9.5-22 13-5 3-11 7-12 8l-1 2 3 9c1.5 4.5 6.5 9 10 9 3.5-.5 9-5 11-9 2-4.5 8-10.5 12-12 4.5-1.5 13-.5 17 2 4.5 2 13.5 4.5 18 5 5 0 15-1.5 20-3s14-5 18-7c4.5-2.5 12-7.5 15-10l7-6-2 9c-1 4.5-5.5 12.5-9 16-3 3-9 10-12 14-3 3.5-4.5 11-3 15 1.5 3.5 5.5 10.5 8 14 2.5 3 4.5 9.5 4 13l-1 7 4-8c2.5-4.5 8-6 11-3s8.5 9 11 12c3 2.5 9.5 2.5 13 0 4-3 8.5-4.5 9-3 1 1-2 4.5-6 7s-12 8-16 11c-3.5 3-8.5 10-10 14-1.5 3.5 9 5 21 3l24-4z" stroke-linejoin="round"/>
  <path fill="#16172a" stroke="#16172a" stroke-width=".7" d="M799 1347c4.5-2 4.5-6 3-9-1-3-2.5-6.5-3-7l-1-1v2c.5.5 1.5 3 2 5s0 4.5-1 5c-1 0-3-.5-4-1l-1-1 1 2c.5.5 1.5 2 2 3l2 2z" stroke-linejoin="round"/>
  <path fill="#2e2e4e" stroke="#2e2e4e" stroke-width=".7" d="M886 1345l5-4-2-1c-1-.5-2.5-1-3-1h-8c-3 0-7-.5-8-1l-1-1 3 3c2 1.5 6.5 3.5 9 4l5 1z" stroke-linejoin="round"/>
  <path fill="#0e1a4a" stroke="#0e1a4a" stroke-width=".7" d="M797 1342c3-.5 3.5-3 3-5s-1.5-4.5-2-5v-2l-2-4c-1-2.5-4-7-6-9l-4-5h-6v3l4 8 6 12 3 5h1l1 1 2 1z" stroke-linejoin="round"/>
  <path fill="#16172a" stroke="#16172a" stroke-width=".7" d="M773 1341l1 1v-6c.5-2 1.5-3.5 2-3l2 1-2-4-2-4-1 6c-.5 3-1 7-1 8l1 1z" stroke-linejoin="round"/>
  <path fill="#50444f" stroke="#50444f" stroke-width=".7" d="M891 1341c4.5-5 7-8 8-9l2-3-2-2c-.5-1.5.5-4 2-5s3.5-2 4-2h5l-9-3c-4-2-10.5 0-13 4-2 3.5-8.5 6.5-13 6-4-1-9-7-10-12-.5-5-2-14.5-3-19-1-5 0-14 2-18l5-8-7 7c-3 3.5-8 11-10 15l-3 8 1 5c1 2 2.5 4 3 4s3.5 1 6 2c3 1 6 2.5 6 3 .5 0 .5 3 0 6v5l2 6 2 6 1 1c1 .5 5 1 8 1h8c.5 0 2 .5 3 1l2 1z" stroke-linejoin="round"/>
  <path fill="#c78c4c" stroke="#c78c4c" stroke-width=".7" d="M922 1339c9.5-1.5 16-3 19-4 3-1.5 8.5-5 11-7s3-6.5 1-9c-1.5-2.5-6.5-3.5-10-2-3 1-8.5 4-11 6-2.5 1.5-7.5 5-10 7-2 2-3 5.5-2 7l2 2z" stroke-linejoin="round"/>
  <path fill="#16172a" stroke="#16172a" stroke-width=".7" d="M117 1335c-1-9-1.5-13-2-14l-1-3 1 4c.5 2 .5 4.5 0 5 0 .5-1 .5-2 0l-1-2 1 3c.5 1 1.5 3.5 2 5l2 2zm701-2c7.5-2 10.5-6 11-9 .5-3.5.5-7.5 0-8l-1-1-2 6c-.5 2.5-3.5 6-6 7l-4 1v2c0 .5.5 1.5 1 2h1z" stroke-linejoin="round"/>
  <path fill="#2e2e4e" stroke="#2e2e4e" stroke-width=".7" d="M1015 1329c8-3 11.5-6.5 12-9l2-6-1-1c0-.5-.5-2.5-1-4v-3l-2 3c-.5 1.5-1.5 3.5-2 4s-1 0-1-1v-4l-1 2c0 1-1 4-2 6l-1 3 1 3c1 1 .5 3.5-1 5l-3 2z" stroke-linejoin="round"/>
  <path fill="#0e1a4a" stroke="#0e1a4a" stroke-width=".7" d="M115 1328c.5-1.5.5-4 0-6l-1-4h-1c0-.5-.5-1-1-1v-1h-3l-2-1 1 4c.5 1.5 1.5 4 2 5l2 1 1 2 2 1z" stroke-linejoin="round"/>
  <path fill="#2e2e4e" stroke="#2e2e4e" stroke-width=".7" d="M816 1329c6.5-2 9.5-5.5 10-8l2-6-1-1c0-1-1-3-2-4l-1-2-2-1c-.5-.5-1.5-2-2-3s-2-3-3-4l-1-3v-16l-2 4c-.5 2-3 3.5-5 3l-3-2v2c0 .5-1 1.5-2 2h-1l-2-4c-.5-2-1.5-4-2-4v-1 2c0 .5-2 2-4 3-2 .5-4.5.5-5 0s-2.5-1.5-4-2l-2-2 8 12c4 6 11.5 17.5 15 23 3.5 5 7.5 10.5 8 11l1 1zm85 0l5-9h-1c-.5 0-2.5 1-4 2s-2.5 3.5-2 5l2 2zm-36-5v1-5c.5-3 .5-6 0-6 0-.5-3-2-6-3-2.5-1-5.5-2-6-2s-2-2-3-4l-1-5-1 2c0 .5 1.5 4 3 7 1.5 2.5 5 6 7 7 2.5.5 5.5 3 6 5l1 3zm-753-8l-8-21 4 2c2 .5 7 4 10 7 3 2.5 9.5 0 13-5 4-5 9-11 10-12l3-3 1-1c.5-1 1.5-2 2-2s2-1.5 3-3l3-4 1-2c.5-1 2-5 3-8 1-3.5 2-8 2-9l1-2-1-1c-.5-1-2-1.5-3-1h-3l-10 7c-5 3.5-15.5 10.5-21 14-5 3.5-13.5 12.5-17 18-3 5.5-4 14.5-2 18l4 7 2 1h3z" stroke-linejoin="round"/>
  <path fill="#c78c4c" stroke="#c78c4c" stroke-width=".7" d="M1000 1307c12-14 16.5-24.5 17-30 .5-6 .5-18 0-24 0-6-5.5-15.5-11-19-5-3.5-15.5-10-21-13-5-3.5-16-10-22-13-5.5-3-17-9-23-12-5.5-3-15-3-19 0-4 2.5-5.5 11-3 17 2.5 5.5 10.5 14 16 17s12.5 10.5 14 15c2 4.5 5 14 6 19 1.5 5 5.5 15 8 20 2.5 4.5 13 12.5 21 16l17 7z" stroke-linejoin="round"/>
  <path fill="#16172a" stroke="#16172a" stroke-width=".7" d="M1022 1314c1.5-1.5 2.5-3.5 3-5l2-3v3c.5 1.5 1 3.5 1 4l1 1v-18h-2c-.5 0-2 3-3 6l-2 6v6zm-242-2h6l-7-11c-3-6-9.5-17.5-13-23l-6-11-1 4v3l5 9c2.5 4 4.5 10.5 4 13v4l5 5 6 6 1 1zm44-4c3-17 6-22.5 8-22l5 1-1-3c-.5-1.5-1.5-3.5-2-4s-2.5-1-4-1-3-.5-3-1v-6l1-5 1 2c1 1 3.5 3 5 4s3.5 2 4 2h2l-9-7c-4-4-8-2-8 4 .5 6-1 15.5-3 19l-4 6 1 3c1 1 2.5 3 3 4s1.5 2.5 2 3l2 1z" stroke-linejoin="round"/>
  <path fill="#c78c4c" stroke="#c78c4c" stroke-width=".7" d="M905 1304c3.5-6 2.5-9 0-10-2-1-3 1-2 4l2 6z" stroke-linejoin="round"/>
  <path fill="#0e1a4a" stroke="#0e1a4a" stroke-width=".7" d="M769 1291l-10-17v2c0 1 .5 5.5 1 9 1 3.5 3.5 9 5 11l3 4v-4l1-5z" stroke-linejoin="round"/>
  <path fill="#16172a" stroke="#16172a" stroke-width=".7" d="M840 1301l3-8h-2c-.5-.5-1.5-1-2-1v-6l1-5-2 1c-.5 0-1 1-1 2v2l1 6c.5 3 1 7 1 8l1 1zm-698-8c6-5 8-7 8-7v-1h-1c-.5-.5-.5-1.5 0-2 1-.5 2.5-2 3-3l2-3v-1l-1-1v-1l-3 4c-1 1.5-2.5 3-3 3s-1.5 1-2 2l-1 1-1 4c-.5 2-1 4.5-1 5z" stroke-linejoin="round"/>
  <path fill="#2e2e4e" stroke="#2e2e4e" stroke-width=".7" d="M840 1292l3 1 1-5c1-2.5 1-6.5 0-8-.5-1.5-2-3.5-3-4l-1-1h-2c-.5 0-2.5-1-4-2s-4-3-5-4l-1-2-1 5v4l5 2c3 .5 6.5 1.5 7 2l1 1-1 5v6h1z" stroke-linejoin="round"/>
  <path stroke="#000" stroke-width=".7" d="M803 1290c2-.5 3-1.5 3-2v-20l-1-1c0-1-1.5-1-3 0-1.5.5-3.5 2.5-4 4v6l1 4v1c.5 0 1.5 2 2 4l2 4z" stroke-linejoin="round"/>
  <path fill="#50444f" stroke="#50444f" stroke-width=".7" d="M813 1289l3-8-3-14c-1-7 3-12.5 8-11 5 1 16 4 22 6 6.5 1.5 18 0 23-3l11-7-21 3c-10.5 1-27-1-33-4-5.5-3-14.5-1.5-18 3-3.5 4-11 11.5-15 15-4 3-12 1.5-16-3l-8-10 2 7c1 3 4 8 6 10 2.5 2 6 5.5 7 7l3 2 2 2c1.5.5 3.5 1.5 4 2s3 .5 5 0c2-1 4-2.5 4-3v-2l-1-4v-6c.5-1.5 2.5-3.5 4-4 1.5-1 3-1 3 0l1 1v18l3 2 4 1z" stroke-linejoin="round"/>
  <path fill="#16172a" stroke="#16172a" stroke-width=".7" d="M42 1281v-1l-5-4c-2-2.5-2.5-7.5-1-10 1.5-3 3.5-6.5 4-7l2-1-6 4c-2.5 1.5-2.5 7 0 11l6 8z" stroke-linejoin="round"/>
  <path fill="#262437" stroke="#262437" stroke-width=".7" d="M837 1287v-3c0-1 .5-2 1-2l2-1-1-1c-.5-.5-4-1.5-7-2l-5-2v2c0 .5 1.5 1 3 1s3.5.5 4 1 1.5 2.5 2 4l1 3z" stroke-linejoin="round"/>
  <path fill="#745a4e" stroke="#745a4e" stroke-width=".7" d="M923 1277c12-14 16.5-23.5 17-28 1-4.5-5.5-8-13-7-7 1-16.5 8.5-19 15-2 6.5.5 15 5 17l10 3z" stroke-linejoin="round"/>
  <path fill="#2e2e4e" stroke="#2e2e4e" stroke-width=".7" d="M148 1284l2 1 3-3c2-2 5.5-6.5 7-9 1.5-3 3-7.5 3-9l1-4-3 6c-1.5 2.5-4 6.5-5 8l-2 2v1l-2 3c-.5 1-2 2.5-3 3l-1 1zm-106-4c0-3 .5-7.5 1-11 .5-4 .5-8.5 0-9l-1-2-2 1c-.5.5-2.5 4-4 7-1.5 2.5-1 7.5 1 10l5 4z" stroke-linejoin="round"/>
  <path fill="#745a4e" stroke="#745a4e" stroke-width=".7" d="M810 1280c3.5-7.5 4.5-13 4-16l-1-7-2 3c-1 1.5-2 7-2 11 .5 4 1 8.5 1 9z" stroke-linejoin="round"/>
  <path fill="#16172a" stroke="#16172a" stroke-width=".7" d="M179 1262c1.5-9.5 1.5-13.5 1-14l-1-2-1 8v8h1z" stroke-linejoin="round"/>
  <path fill="#c78c4c" stroke="#c78c4c" stroke-width=".7" d="M780 1260c6.5-4.5 9.5-9 10-12 .5-3.5-2-5.5-5-4s-7.5 5.5-9 8c-1 2.5-.5 6 1 7l3 1z" stroke-linejoin="round"/>
  <path fill="#16172a" stroke="#16172a" stroke-width=".7" d="M160 1253c3-6 2-8 0-8-2-.5-5 1-6 3l-1 3h3c1-.5 2.5 0 3 1l1 1zm82-7c3.5-7.5 6-11.5 7-13l2-4-4 6c-1.5 2.5-3.5 6.5-4 8l-1 3z" stroke-linejoin="round"/>
  <path fill="#c78c4c" stroke="#c78c4c" stroke-width=".7" d="M863 1241c16.5-9.5 26-17.5 30-22 4.5-4.5 4-9-1-9-5-.5-17 .5-24 2l-26 6c-6.5 1.5-15 6.5-17 10-1.5 3.5 7 8.5 17 10l21 3z" stroke-linejoin="round"/>
  <path fill="#745a4e" stroke="#745a4e" stroke-width=".7" d="M843 1211c11 0 18.5-.5 22-1 3.5-1 8.5-3 10-4l3-2-4 1c-1.5 0-7 .5-11 1-4 0-11.5 1-15 2l-6 2v1h1z" stroke-linejoin="round"/>
  <path fill="#2e2e4e" stroke="#2e2e4e" stroke-width=".7" d="M1028 960c10.5-.5 16-3 18-5 2-2.5 2-6 0-7l-3-2h-1l-3 5c-1.5 2-3.5 4-4 4s-3 1-5 2l-4 1 1 1 1 1z" stroke-linejoin="round"/>
  <path fill="#50444f" stroke="#50444f" stroke-width=".7" d="M1026 958c6-2 8.5-3 9-3s2.5-2 4-4l3-5h1l10-7c5.5-4 15.5-12 20-16 5-4 12.5-12 15-16l6-8-7 6-12 12c-3 3-10 9-14 12s-13 6-18 6l-10-1-2 5-1 5v-15l-10-1c-5-1-8.5-8.5-7-15 2-7 6-20.5 8-27 2.5-6.5 7-19.5 9-26l5-13 2 21 3 20-1 7c0 3-.5 7.5-1 9v2l4-9c2.5-4.5 6-16.5 7-24 1.5-7.5 4.5-22 6-29 2-7 8-18 12-22 4.5-4.5 13.5-4.5 18 0l18 16c5 4 10.5 13 11 18 .5 4.5-3.5 16-8 23l-8 13 6-7c3-4 10-12.5 14-17l9-9 4-10c2-5-.5-13-5-16-4-3-14.5-8-21-10-6.5-2.5-17.5-9-22-13-4.5-4.5-13-5-17-1l-7 8-5 16c-2 7.5-6.5 20.5-9 26l-4 11 2-15c1-8 3.5-22 5-28l4-12-6 2c-3 1-9 6-12 10s-8 12-10 16l-9 18c-2 4.5-5.5 17.5-7 26l-3 16 1 14c1 7 5 20 8 26 3 5.5 7.5 12 9 13l3 2z" stroke-linejoin="round"/>
  <path fill="#745a4e" stroke="#745a4e" stroke-width=".7" d="M1030 929l1-9 1-3c.5-2 2-7.5 3-11l2-8 1-5 2-5-3-20-2-21-5 13c-2 6.5-6.5 19.5-9 26-2 6.5-6 20-8 27-1.5 6.5 2 14 7 15l10 1z" stroke-linejoin="round"/>
  <path stroke="#000" stroke-width=".7" d="M1030 944l3-10v-3c.5-2 1-5 1-6v-2l1-5c.5-3 1.5-7.5 2-9l1-3v-2c.5-1.5 1-6 1-9l1-7-2 5-1 5-2 8c-1 3.5-2.5 9-3 11l-1 3-1 5v19z" stroke-linejoin="round"/>
  <path fill="#745a4e" stroke="#745a4e" stroke-width=".7" d="M1053 935c12-9 19-15 22-18l12-12 7-6v-1c.5-.5 1.5-2 2-3l2-3 8-13c4.5-7 8.5-18.5 8-23-.5-5-6-14-11-18l-18-16c-4.5-4.5-13.5-4.5-18 0-4 4-10 15-12 22-1.5 7-4.5 21.5-6 29-1 7.5-4.5 19.5-7 24l-4 9-1 3c-.5 1.5-1.5 6-2 9l-1 5v2c0 1-.5 4-1 6v3l10 1h10z" stroke-linejoin="round"/>
  <path fill="#2e2e4e" stroke="#2e2e4e" stroke-width=".7" d="M1005 903c4.5-24.5 8-37.5 10-42l9-18c2-4 7-12 10-16s9-9 12-10l6-2 1-2c1-1 2-3 2-4v-2l-4-1-3-1-9 10c-4 5-11 13.5-14 17-3 3-9 12-12 18-2.5 6-6 20-7 28-1 7.5-2 17.5-2 20l1 5z" stroke-linejoin="round"/>
  <path fill="#9d734d" stroke="#9d734d" stroke-width=".7" d="M1076 888c9-.5 13.5-3 15-5 1.5-2.5 4-7 5-9 1.5-2.5 1-6-1-7-2-1.5-5-.5-6 2-.5 2-4 4.5-7 5-2.5.5-6 3.5-7 6-1 2-1.5 5-1 6l2 2z" stroke-linejoin="round"/>
  <path fill="#2e2e4e" stroke="#2e2e4e" stroke-width=".7" d="M1127 859c9-15 10.5-25 9-30-1.5-5.5-11-12-19-13-7.5-1-19.5-5-24-8l-8-6-2-7c-1-3.5-5.5-4-9-1l-7 5-1 3-4 8c-1.5 2.5-3 5.5-3 6v1l7-8c4-4 12.5-3.5 17 1 4.5 4 15.5 10.5 22 13 6.5 2 17 7 21 10 4.5 3 7 11 5 16l-4 10z" stroke-linejoin="round"/>
  <path fill="#16172a" stroke="#16172a" stroke-width=".7" d="M384 842v-29c0-1-.5-6-1-10v-15l-1-5v-52c0-2.5-.5-6.5-1-8v-4 45c.5 8 .5 29 0 42v25l1 6 2 5zm761-6c5-6 7-11.5 7-15 .5-3.5-1-7.5-3-8-1.5-1-2.5 2-2 6 .5 3.5 0 9.5-1 12l-1 5z" stroke-linejoin="round"/>
  <path fill="#0e1a4a" stroke="#0e1a4a" stroke-width=".7" d="M381 831c.5-38 .5-59 0-67v-17h-2l-2-1v29c.5 2.5 1 9 1 13v17c.5 4.5 1 11 1 13l1 3v5l1 5z" stroke-linejoin="round"/>
  <path fill="#16172a" stroke="#16172a" stroke-width=".7" d="M1055 807l4-9-5 3c-2.5 1-5.5 2.5-6 3v1l3 1 4 1zm30-5c2-6.5 2-12 1-15-.5-3-2.5-8-4-10l-3-5-2 4-2 3 1-7 1-8-2 7c-1 3.5-3.5 12.5-5 18l-3 10 7-5c3.5-3 8-2.5 9 1l2 7z" stroke-linejoin="round"/>
  <path fill="#0e1a4a" stroke="#0e1a4a" stroke-width=".7" d="M1079 772l-2-8-1 8-1 7 2-3 2-4z" stroke-linejoin="round"/>
  <path fill="#2e2e4e" stroke="#2e2e4e" stroke-width=".7" d="M381 747v-39l-1-1v-25l-1-5v-21l-1-9-1-10-1 7-1 7-2-4c-.5-2.5-1-6-1-7 0-1.5-.5-4-1-5v-3 20c.5 4 1 9.5 1 11v30c.5.5 1 5 1 9 .5 4 1 10 1 12l1 3v18l1 8v2l1 1 2 1h2zm713-8c7.5-18.5 7-27.5 4-30l-5-6-3 1h-16l-13 1c-6 0-18.5-2-25-4-6-2-14-4-16-4l-3-1-3 2c-1.5.5-3 2-3 3v1l4 12c2.5 5.5 10.5 14.5 16 18 5.5 3 24 6.5 37 7h26z" stroke-linejoin="round"/>
  <path fill="#50444f" stroke="#50444f" stroke-width=".7" d="M1087 723c-15-11-28-15.5-36-16-8-1-19.5 2-23 6-3 4-.5 11 5 14 6 3 22.5 3.5 33 1l21-5z" stroke-linejoin="round"/>
  <path fill="#16172a" stroke="#16172a" stroke-width=".7" d="M486 734l1-1 1-5c.5-3 0-7.5-1-9l-1-4v-5l-2 4-1 3-1 3v3l2 2c1 1 2 4 2 6v3zM45 722l2-6-1-3c0-1.5-3-3.5-6-4-3-1-6.5-2-7-2l-1-1-3-1-3-2h3l4-1h-7l-3-1h-2c-.5 0-1 1-1 2 .5 1 1 3 1 4l1 1 4 3 6 3 2 1 3 3c1.5 1 4 2.5 5 3l3 1zm420-13l2-3 2-4c1-2 3-3 4-2l2 1-1 1c0 .5-.5 3-1 5v4l1-2 2-2 1 4 2 4 1-1-1-13c-.5-6.5-3.5-11.5-6-10-2 1.5-5.5 2.5-7 2l-3-2-1 2c0 .5-.5 2-1 3 0 1-.5 2.5-1 3l-2 2c0 .5-.5.5-1 0-.5-1-1.5-2-2-2h-3l-6-4-5-4 1-1 3 2 4 1h1l1-1 1-2-4-1c-2-1-4.5-2-5-2v-1l-2 3c-1 1-2 2.5-2 3s-1.5 2-3 3l-2 1 1 1h5l4-1 5 4c3 2 6 6 6 8l1 3 4-1 5-1z" stroke-linejoin="round"/>
  <path fill="#2e2e4e" stroke="#2e2e4e" stroke-width=".7" d="M483 717l3-7v-13l1-8v-8c0-4.5-.5-10.5-1-12l-1-4v-35c0-4-.5-10.5-1-13v-33l-1-2v-3l-1-3v-5c0-1.5-.5-3-1-3l-3 11c-1.5 5.5-16 12.5-29 14-12.5 1.5-36 2-47 1l-22-2v26c.5 4 1 10.5 1 13l1 4v3c.5 1.5 1 7 1 11 .5 4 1 8.5 1 9l1 1-1 7c-.5 3-1 8.5-1 11l1 5v2c0 1 2 2.5 4 3 2.5 0 5.5-.5 6-1l2-1h5c2.5 0 5 1.5 5 3v2h12l2-1c1-.5 2.5-1.5 3-2 1-.5 3.5-2 5-3 2-1.5 4-2 4-1 .5 1 .5 4.5 0 7l-1 5 1 1h2l2-1c1.5-1 3-2.5 3-3s1-2 2-3l2-3v1c.5 0 3 1 5 2l4 1 1 1c1 .5 3 2 4 3 1.5 1 3 1.5 3 1 .5-1 1.5-2.5 2-3l1-1 3 2c1.5.5 5-.5 7-2 2.5-1.5 5.5 3.5 6 10l1 13 1 2 2 1z" stroke-linejoin="round"/>
  <path fill="#16172a" stroke="#16172a" stroke-width=".7" d="M162 710c3.5-4.5 8-6.5 11-7l7-2 2-1 2-1h-14l-3 1c-1.5.5-3.5.5-4 0 0-1 .5-3.5 1-5 .5-2 1.5-5 2-6l1-2-4 1c-1.5 0-3.5.5-4 1l-1 1v-2l1-3 1 1h1l1-1h-3c-1.5-.5-3 0-3 1 .5 1 .5 4 0 6l-1 3 1 1 2 1v1c.5.5 1.5 4 2 7l2 5zm-28-4l7-3 2-1c1.5-.5 5-2.5 7-4l4-3-1-6c0-3-2-9.5-4-13l-4-7-2 2c-1 1-1 3 0 4l3 2-1 2c0 1-2 3.5-4 5l-4 2v-1l1-6c1-3 2-6.5 2-7v-1l-2 2c-.5.5-2 2.5-3 4-1 1-3 3.5-4 5-.5 1-1 4.5-1 7 0 2 1 4.5 2 5h2l2-3 4-4c.5-.5 2 0 3 1 1 .5 1 1.5 0 2-.5 0-.5 1 0 2l1 1v3l-3 2-2 2-2 1c-.5 0-3.5 1.5-6 3-2 1.5-5 4-6 5l-1 1 5-2 5-2zm67 2c1.5-8 .5-10.5-1-10-1 .5-1.5 3.5-1 6l2 4z" stroke-linejoin="round"/>
  <path fill="#2e2e4e" stroke="#2e2e4e" stroke-width=".7" d="M22 708c-1-2-1.5-4-2-5 0-1 .5-2 1-2h2l5-2 6-2 7-1 8-1v-6c.5-1 2-1 3 0s2.5 3 3 4c1 1 2 3 2 4v2h2l1-5c.5-2.5 1.5-5 2-5l1-1v1c0 .5 1 2 2 3l3 2v2c.5 1 2 1 3 0 1-1.5 3-4 4-5s3.5-1.5 5-1c2 .5 4 1.5 4 2v1l2 1h2l3 3 6 4 3 1h1c1-.5 1-1.5 0-2l-4-4-2-3 4-2c2-1 6-2 8-2 2-.5 5.5-1.5 7-2s5.5 2.5 8 6l5 6h3l4-1 3-1c2-.5 4.5-1 5-1h2v-3h-4c-1.5 0-4 .5-5 1h-3c-1-.5-2-3-2-5 0-2.5.5-6 1-7 1-1.5 3-4 4-5 1-1.5 2.5-3.5 3-4l2-2 2-3c1-2 3.5-4.5 5-5l3-1 7 5c3.5 2 7 7 7 10l1 5 3-1c1.5-1 3.5-1.5 4-1h1l-2 3-1 3 1 1c.5 0 .5 2 0 4 0 1.5-1.5 4-3 5-1.5.5-2 1.5-1 2l3 1h2v-1c0-1 .5-2 1-2 1-.5 2.5-1.5 3-2l1-1 1-1c1-1 3-1.5 4-1 1.5.5 3.5 1.5 4 2l1 1 5-1 6-1 3-1c2-1 4.5.5 5 3l1 4v3c.5 1 2 1 3 0s2-2.5 2-3l1-2v-6c0-3.5-.5-10-1-13l-1-6v-1c0-1-.5-6-1-10 0-4.5-.5-10-1-11l-1-2-1-4c-.5-2.5-.5-5.5 0-6l2-1 2 1c1 .5 2-1 2-3v-9c0-2-.5-7-1-10l-1-7-1-4c0-2.5.5-7 1-9l1-5 1-2c.5-1.5 1.5-3 2-3 1 0 2 1 2 2v15l2-5 2-5v-2c0-1 1-1 2 0 1 .5 2 2 2 3l1 1 2-4 3-5v-2c0-1.5-1-2.5-2-2s-2-.5-2-2c.5-2 2-5 3-6l2-3h1l2-3 3-4-2 1c-.5.5-2.5 1-4 1s-2-1-1-2c1.5-1 4-3 5-4 1.5-1 4-2 5-2 1.5 0 3 1 3 2v1h14l5-1h3c1.5-.5 6.5 0 10 1s7.5 2.5 8 3h1v1h1l1 2c.5.5.5 2.5 0 4 0 1.5-1.5 4-3 5s-4 3-5 4l-3 3h-1l2 3 3 3v1c.5.5 3.5 1.5 6 2 2.5 0 6 .5 7 1l3 1 2 1h2l3-4 4-4v6c0 2.5 1.5 5 3 5l4-1h6c1.5 0 6 1.5 9 3l8 4h2l-1-3c-.5-1.5-3.5-4.5-6-6l-4-3c0-.5 3 .5 6 2 3 1 6.5 3.5 7 5l1 2 3 2c1.5 1 2.5 4.5 2 7l-1 4-1 1h-6l-1 2c-.5 1-.5 2.5 0 3h1l9-8 10-9v1l1 1v1l1-11c.5-6 .5-23 0-34v-23l-10-3c-5-2-14.5-4.5-19-5s-15-2-21-3-16.5-3.5-21-5-15-4-21-5c-5.5-1.5-16-2-21-1s-15.5 4-21 6c-5 1.5-12 6.5-14 10s-5 13-6 19c-1 5.5-8 13-14 15s-17.5 5-23 6c-5 .5-16 1.5-22 2-6 0-19-1-26-2s-19-1-24 0c-4.5.5-14 3.5-19 6-5 2-18 5-26 6-7.5.5-24.5 2-34 3l-18 1v110l2 1c1.5.5 5.5 3 8 5l5 4 3 1h4z" stroke-linejoin="round"/>
  <path fill="#16172a" stroke="#16172a" stroke-width=".7" d="M59 707l10-6 5-2 8-4 2-2v-1c0-.5-2-1.5-4-2-1.5-.5-4 0-5 1s-3 3.5-4 5c-1 1-2.5 1-3 0v-3c0-.5-1.5-.5-3 0-1 0-3 1.5-4 3l-2 3h-2v2h1c.5 0 2 .5 3 1h2l-1 1-2 2-1 2zm349-1c3-5 3.5-8 3-9 0-1-3.5-2-7-2s-8 1.5-9 3c-.5 1.5 1.5 3.5 4 4 3 .5 6.5 2 7 3l2 1zm-304-1c9-3 12.5-3.5 13-3l2 1v1c0 .5 1 .5 2 0l3-2-2-4c-1-2.5-8.5-5-15-5H95l2 3 4 4c1 .5 1 1.5 0 2h-1l2 2 2 1zm983-1l6-1-3-1c-1-1-4.5-1-7 0-2.5.5-6 1.5-7 2h-2 13z" stroke-linejoin="round"/>
  <path fill="#262437" stroke="#262437" stroke-width=".7" d="M458 702c.5-1.5 1.5-2.5 2-3s1-2 1-3c.5-1 1-2.5 1-3l1-2-1 1c-.5.5-1.5 2-2 3 0 .5-1.5 0-3-1-1-1-3-2.5-4-3l-1-1-1 2-1 1 2 3 3 3c.5 0 1.5 1 2 2l1 1zm-334 0l3-3-5-6c-2.5-3.5-6.5-6.5-8-6s-5 1.5-7 2c-2 0-6 1-8 2l-4 2h12c6.5 0 14 2.5 15 5l2 4zm40-1l6-2-3-1c-1-.5-.5-1.5 1-2 1.5-1 3-3.5 3-5 .5-2 .5-4 0-4l-1-1-2 1h-1l-1 2c-.5 1-1.5 4-2 6-.5 1.5-1 4-1 5l1 1z" stroke-linejoin="round"/>
  <path fill="#16172a" stroke="#16172a" stroke-width=".7" d="M1011 702c0-2 1.5-3.5 3-4l3-2 6-4c3.5-2.5 15-5 23-5 8.5-.5 22.5-1.5 28-2l11-2-14-1c-6.5-.5-20.5-1.5-28-2-7.5-1-19.5 2.5-24 7-4.5 4-9 10-9 12l1 3z" stroke-linejoin="round"/>
  <path fill="#262437" stroke="#262437" stroke-width=".7" d="M54 700l3 1v-4c0-1-1-3-2-4-.5-1-2-3-3-4s-2.5-1-3 0v6l2 2 3 1v1c.5 0 .5.5 0 1z" stroke-linejoin="round"/>
  <path fill="#16172a" stroke="#16172a" stroke-width=".7" d="M192 700l-1-2-2-1c-1-.5-2-1.5-2-2v-1l-1-1c-.5-.5-2.5-1.5-4-2-1-.5-3 0-4 1l-1 1 2 2c1.5 1 3.5 2.5 4 3 .5 0 1 .5 1 1l4 1h4zm1060 0c-4.5-3.5-9-5.5-12-6l-5-1 3 2c2 .5 6.5 2 9 3l5 2z" stroke-linejoin="round"/>
  <path stroke="#000" stroke-width=".7" d="M10 699l9-6h-3c-.5 0-1-2-1-4v-5l-2 4-2 4-1 4v3z" stroke-linejoin="round"/>
  <path fill="#262437" stroke="#262437" stroke-width=".7" d="M173 699h11c0-.5-.5-1-1-1-.5-.5-2.5-2-4-3l-2-2-1 1c-.5.5-2 1.5-3 2-.5 0-1 1-1 2v1h1z" stroke-linejoin="round"/>
  <path stroke="#000" stroke-width=".7" d="M452 699h3l-3-3-2-3h-1l-4-1-3-2-1 1 5 4 6 4z" stroke-linejoin="round"/>
  <path fill="#262437" stroke="#262437" stroke-width=".7" d="M59 699c3-4.5 5-6 6-6 1.5-.5 3-.5 3 0v1l-3-2c-1-1-2-2.5-2-3v-1l-1 1c-.5 0-1.5 2.5-2 5l-1 5z" stroke-linejoin="round"/>
  <path fill="#16172a" stroke="#16172a" stroke-width=".7" d="M428 695h3l1-5c.5-2.5.5-6 0-7 0-1-2-.5-4 1-1.5 1-4 2.5-5 3-.5.5-2 1.5-3 2l-2 1v2c0 .5 1 1 2 1l3-1 3-1 3-2-1 3v3z" stroke-linejoin="round"/>
  <path fill="#262437" stroke="#262437" stroke-width=".7" d="M154 695h1l1-3c.5-2 .5-5 0-6 0-1 1.5-1.5 3-1h3l1-1 2-2-1-5c0-3-3.5-8-7-10l-7-5v2l-3 3-2 2 4 7c2 3.5 4 10 4 13l1 6zm-139-2h3l2-3c1-1.5 0-4-2-5-1.5-1-3-1.5-3-1v9zm119 1c2-.5 4.5-1 6-1h4l-1-1c-.5-1-.5-2 0-2 1-.5 1-1.5 0-2-1-1-2.5-1.5-3-1l-4 4-2 3z" stroke-linejoin="round"/>
  <path stroke="#000" stroke-width=".7" d="M158 690c1.5-1.5 3.5-2 5-2l4-1h1l2-1 1-3 2-3h-1c-.5-.5-2.5 0-4 1l-3 1-2 2-1 1-1 1h-1l-1-1-1 3v2z" stroke-linejoin="round"/>
  <path fill="#2e2e4e" stroke="#2e2e4e" stroke-width=".7" d="M1106 683c.5-3 3-3 5-2 2 .5 5-.5 6-2l2-4 1-14c.5-7.5 4-20.5 7-26 3.5-5.5 7.5-19 8-27 .5-8.5 2.5-24 4-31 1.5-7.5 3-20 3-25l1-10-13-1c-6-.5-17-1.5-22-2l-9-1-3-3c-1.5-1.5-5.5-4-8-5-2.5-1.5-6.5-2.5-8-2l-3 1v3c0 1.5-1.5 3-3 3l-2-1h-1v-1l-8-5-8-5 4 1h4l2 2 2 1 17-7 18-8-7-7c-3-4-13-7-20-6-7 .5-18.5 5-23 9-4.5 3.5-5.5 11.5-2 16 4 4.5 13.5 11.5 19 14s16 9 21 13c5 3.5 17 6.5 24 6 7-1 15.5 3.5 17 9 2 5.5 3 18.5 2 26-1 7-5.5 19.5-9 25-3 5-11.5 13-17 16-5 3-13 11-16 16-2.5 5-13 10.5-21 11-8 0-30-1-44-2-13.5-1.5-31-8-35-13l-14-20-7-10 4 14c2.5 7 8.5 19.5 12 25 3.5 5 15.5 10 24 10h34c8.5-.5 25 0 33 1 8 .5 18.5.5 21 0l6-2 1 7c.5 3.5-.5 9.5-2 12l-2 5v3l2-3 3-4z" stroke-linejoin="round"/>
  <path fill="#16172a" stroke="#16172a" stroke-width=".7" d="M1112 690c4.5-6.5 6-10.5 6-12l1-3-2 4c-1 1.5-4 2.5-6 2-2-1-4.5-1-5 0v2l2 2c1 1 2.5 3 3 4l1 1zm-13-4l2 1 2-5c1.5-2.5 2.5-8.5 2-12l-1-7-3 3c-1 1.5 0 4 2 5 2 .5 1.5 3-1 5s-4.5 5.5-4 7l1 3z" stroke-linejoin="round"/>
  <path stroke="#000" stroke-width=".7" d="M137 685c0 1 2 0 4-1 2-1.5 4-4 4-5l1-2-3-2c-1-1-1-3 0-4l2-2 2-2 3-3v-2l-3 1c-1.5.5-4 3-5 5l-2 3v1c0 .5-1 4-2 7l-1 6z" stroke-linejoin="round"/>
  <path fill="#0e1a4a" stroke="#0e1a4a" stroke-width=".7" d="M1033 685c11 0 17-.5 19-1l5-1-8-1c-3.5-1-11.5-2-16-2-4 0-8 1-8 2 .5 1 2.5 2.5 4 3h4z" stroke-linejoin="round"/>
  <path fill="#16172a" stroke="#16172a" stroke-width=".7" d="M1125 680c.5-10.5 0-14-1-14-.5 0-.5 3.5 0 7l1 7z" stroke-linejoin="round"/>
  <path fill="#2e2e4e" stroke="#2e2e4e" stroke-width=".7" d="M158 672v-7 7z" stroke-linejoin="round"/>
  <path fill="#50444f" stroke="#50444f" stroke-width=".7" d="M1054 660c24-.5 34.5-6 37-11 3-5 11-13 16-16 5.5-3 14-11 17-16 3.5-5.5 8-18 9-25 1-7.5 0-20.5-2-26-1.5-5.5-10-10-17-9-7 .5-19-2.5-24-6-5-4-15.5-10.5-21-13s-15-9.5-19-14c-3.5-4.5-2.5-12.5 2-16 4.5-4 16-8.5 23-9 7-1 17 2 20 6l7 7h6l5-6c3-3 5-13 4-20-1-7.5-8-18.5-14-22l-12-7-13 3c-6 1-19.5.5-27-1-7-1.5-21-2.5-28-2-6.5.5-17 1-21 1h-8l-8 10c-3.5 4.5-10.5 13-14 17-3 4-2.5 10.5 1 13 4 2.5 12.5 3.5 17 2 5-2 14.5 0 19 4 5 4 9.5 15 9 22-.5 6.5-6 17-11 21-4.5 4-13 7.5-17 7-3.5-.5-12.5 4-18 9l-10 9 2 15c1 7 3 17.5 4 21l2 7 7 10 14 20c4 5 21.5 11.5 35 13l28 2z" stroke-linejoin="round"/>
  <path fill="#745a4e" stroke="#745a4e" stroke-width=".7" d="M1025 654l9-4-6-2c-3-1.5-5.5-.5-5 2l2 4z" stroke-linejoin="round"/>
  <path fill="#50444f" stroke="#50444f" stroke-width=".7" d="M375 651l2-14v-7l-1-4v-49l-1-1v-1h-1l-1 1v1l-2-6c-1-3-2-6.5-2-7s-.5-4.5-1-8c0-3.5-.5-7.5-1-8v-2 45c.5 1 1 6.5 1 11 .5 4 1 9 1 10v2l1 6c.5 2.5 1 7 1 9v6c.5 1 1 3.5 1 5 0 1 .5 4.5 1 7l2 4z" stroke-linejoin="round"/>
  <path fill="#16172a" stroke="#16172a" stroke-width=".7" d="M819 647c-3-5-7.5-8-11-9-3-1-9-1.5-12-1s-6 1.5-6 2c.5.5 4.5 1.5 8 2 3.5 0 10 1 13 2s6.5 2.5 7 3l1 1zm14-1l4-2 1-2 2-3h-2c-.5 0-2.5-2-4-4l-3-6v-2l-2 2c-1 .5-2.5 1.5-3 2s-1.5 2-2 3l-1 2v2c.5 1 1 3 1 4l1 1 3-1c2-.5 4 .5 4 2l1 2zm-474-1c0-9.5-.5-14.5-1-16l-1-3h-9c-.5 0-1-1-1-2 .5-1 1.5-2 2-2 .5-.5 2.5-2 4-3l4-2v-9l1-6-10 9-9 8-5-2-5-3h16l1-1h-1v-1l-5-1c-2.5-1-7.5-4-10-6s-7-3.5-9-3l-4 1-2 2c-1 .5-2-.5-2-2l1-3-1 1h-1l-4-1-4-2-1 1c-.5.5.5 2.5 2 4l3 2v2c.5.5 1.5 2 2 3 1 .5 2 .5 2 0l1-1 1 3c.5 1.5 2 4 3 5l2 1h2c1 0 .5 2-1 4s-2 4.5-1 5h2l4-1c2.5-1 8-1.5 11-1l6 1 1 4c.5 1.5.5 3.5 0 4l3 2c1.5.5 5.5 3 8 5l5 4z" stroke-linejoin="round"/>
  <path stroke="#000" stroke-width=".7" d="M1034 642l23-2 4-2 4-2 3-4 3-5v-1c0-1-1-4.5-2-7-1-3-2.5-6-3-6l-1 2-1 2-11 3-11 3-13-1-12-1-3 3-3 2 7 7 8 6 4 2 4 1z" stroke-linejoin="round"/>
  <path fill="#16172a" stroke="#16172a" stroke-width=".7" d="M759 642l7-3-21-11-20-11-1 1c-.5 0-2 1-3 2l-1 1h8c2.5 0 6 1 7 2 1.5.5 4.5 2 6 3 1.5.5 4 2 5 3s2 3 2 4l1 2 3 2c2 1 4.5 3 5 4l2 1zm17-1h3l3-1c2-1 4.5-2.5 5-3l1-1h-1c-.5 0-1.5-1-2-2 0-1-1-2-2-2-1-.5-3.5.5-5 2-1.5 1-3.5 2-4 2h-1l-2 2-1 2 3 1h3zm74 0c.5-6.5 2.5-8 4-7l4 2h1c.5 0 2-1 3-2l2-2-1-1-1-1-1 1h-8c-.5-.5-2.5 0-4 1s-3.5 2-4 2l-2-2-1-2-2-1c-.5-1-1-2.5-1-3v-1l-1 4c-.5 1.5-1 3.5-1 4s1 2 2 3l2 1 3 2c1.5.5 3.5 1.5 4 2h2zm-161-2c10.5-.5 13.5-1.5 13-2-.5-1-5-2-9-2-3.5-.5-6.5.5-6 2l2 2z" stroke-linejoin="round"/>
  <path fill="#2e2e4e" stroke="#2e2e4e" stroke-width=".7" d="M770 640l3-4h1c.5-.5 3-2 5-3 2-1.5 4.5-3 5-3s2 1 3 2l3 1h2l3-1 8 1c4 0 9.5.5 11 1h3l1-2c1-1.5 2.5-1 3 1l2 3 1-2c.5-1 1.5-2.5 2-3s2-1.5 3-2l2-2v2l3 6c1.5 2 3.5 4 4 4h2v-1l1-1-2-1c-1-1-2-2.5-2-3s.5-2.5 1-4l1-4v1c0 .5.5 2 1 3l2 1v-1c.5-1 2.5-1.5 4-1 2 0 5.5.5 7 1 2 .5 4 .5 4 0 .5-1 2-1 3 0l2 1 1 1 1 1 3 1 4 1v-7h12c6.5 0 13.5 1 14 2l1 2v-1c.5-.5 2.5-2 4-3l3-3 5 4c2.5 2 5 3 5 2l1-2-2-2c-.5-1.5-3.5-5.5-6-8l-4-6-4-4c-1.5-2-4.5-5.5-6-7l-2-4-1-2-4-8c-1-3-2.5-6.5-3-7v-2l-2-5c-.5-2.5-2-8-3-11l-1-6-1-1v-1l-1 8v11l1 3v4l1 4-3-5-3-5-1-5-1-6-2-1c-.5-.5-1 0-1 1v7l1 5v1c.5.5.5 3 0 5-.5 1.5-2 3-3 3h-5l-3-1h-3c-1.5-.5-5-2-7-3l-3-3-2-1c-.5-.5-3-4-5-7l-3-6-1 5c0 2 .5 4 1 4h1l-5 2-5 1h-4c-2 0-6 1-8 2s-5 2-6 2l-2-1-2-1-2-2h-1c-.5-.5-3-.5-5 0-1.5.5-3 1.5-3 2l2 9 2 9-4-5-3-6-1-1c-.5-.5-1.5-.5-2 0l-2 5-2 4v-10l1-6-1 1c0 .5-1 1-2 1h-1l-1 1-1 1-1 3c-.5 1.5-2 2.5-3 2l-2-2-3-5c-1-3-2.5-8-3-10l-1-5h-1l-1-1h-2c-.5 0-.5 1.5 0 3l1 2v7c0 3.5-7.5 7-15 7l-14-1-6-1-6-1-1 2c-.5.5-1.5 2-2 3 0 1-1 3.5-2 5l-1 2-1 2c-.5.5-2 2.5-3 4l-2 3 1 2c1 1 2.5 2 3 2s.5 2 0 4-.5 5 0 6l1 2 2 1c1 .5 2.5 1 3 1h7l20 11 21 11 2 1h2z" stroke-linejoin="round"/>
  <path fill="#262437" stroke="#262437" stroke-width=".7" d="M786 636h2l1-1 1-2-3-1c-1-1-2.5-2-3-2s-3 1.5-5 3c-2 1-4.5 2.5-5 3h-1 1c.5 0 2.5-1 4-2 1.5-1.5 4-2.5 5-2 1 0 2 1 2 2l1 2z" stroke-linejoin="round"/>
  <path fill="#16172a" stroke="#16172a" stroke-width=".7" d="M1065 636c5-6.5 6.5-13 6-17 0-4-1.5-7.5-3-7l-2 1c.5 0 2 3 3 6 1 2.5 2 6 2 7v1l-3 5-3 4z" stroke-linejoin="round"/>
  <path fill="#2e2e4e" stroke="#2e2e4e" stroke-width=".7" d="M749 635c-1-3-2-5-3-6s-3.5-2.5-5-3c-1.5-1-4.5-2.5-6-3-1-1-4.5-2-7-2h-8l-1 1c0 .5-.5 1-1 1h-3l-1-1v-1l-2-1-1-2-8-7c-4-3.5-8-4.5-8-2 .5 2 4.5 7 8 10l7 5 1 1 4 2 3 1h5c2.5 0 8.5 1 12 2l7 1 3 2 4 2z" stroke-linejoin="round"/>
  <path fill="#262437" stroke="#262437" stroke-width=".7" d="M845 634c.5 0 2.5-1 4-2s3.5-1.5 4-1h8l1-1-2-1c-1-1-2.5-1-3 0 0 .5-2 .5-4 0-1.5-.5-5-1-7-1-1.5-.5-3.5 0-4 1v1l1 2 2 2z" stroke-linejoin="round"/>
  <path fill="#16172a" stroke="#16172a" stroke-width=".7" d="M894 634l4-3-1-2c-.5-1-7.5-2-14-2h-12l1 1 1 1 6 1c3 .5 8 2 10 3l5 1z" stroke-linejoin="round"/>
  <path fill="#2e2e4e" stroke="#2e2e4e" stroke-width=".7" d="M709 632l8-1-6-2c-3-1.5-8-2.5-10-2l-4 1 6 2 6 2z" stroke-linejoin="round"/>
  <path fill="#16172a" stroke="#16172a" stroke-width=".7" d="M1029 632c12 1 20 1 24 1l8-1h-8c-3.5-.5-11-.5-15 0h-9zm-805-6l4-9-3 4c-1.5 1.5-2.5 3.5-2 4l1 1z" stroke-linejoin="round"/>
  <path fill="#2e2e4e" stroke="#2e2e4e" stroke-width=".7" d="M347 626h10v-9l-4 2c-1.5 1-3.5 2.5-4 3-.5 0-1.5 1-2 2v2z" stroke-linejoin="round"/>
  <path fill="#16172a" stroke="#16172a" stroke-width=".7" d="M706 623l2 1-5-2c-2-1.5-4.5-3-5-3-.5-.5-3-2.5-5-4-1.5-2-3.5-4.5-4-5 0-.5-.5-1.5-1-2l-1-1 1 4c1 2 4 5.5 6 7l5 2 1 1c.5 0 2 .5 3 1l3 1z" stroke-linejoin="round"/>
  <path fill="#262437" stroke="#262437" stroke-width=".7" d="M708 624h2l-7-5c-3.5-3-7.5-8-8-10 0-2.5 4-1.5 8 2l8 7-5-10c-2.5-5-8.5-7.5-12-5l-7 4 1 1c.5.5 1 1.5 1 2 .5.5 2.5 3 4 5 2 1.5 4.5 3.5 5 4 .5 0 3 1.5 5 3l5 2zm9-1c1.5 0 2-.5 2-1l1-1 1-1c1-1 2.5-2 3-2l1-1h-7c-.5 0-2-.5-3-1l-2-1v3l1 3v1l1 1h2zm-378-4c-1.5-.5-1.5-2-1-3l1-2h-10l5 3 5 2z" stroke-linejoin="round"/>
  <path fill="#16172a" stroke="#16172a" stroke-width=".7" d="M714 621l-1-6-1-2c-.5-1-.5-4 0-6s.5-4 0-4-2-1-3-2l-1-2-3-2-2-2c0-.5 1.5-1 3-1s4-1 5-2l3-2 1-2c1-1.5 2-4 2-5 .5-1 1.5-2.5 2-3l1-2-2-1-1-2-3 7c-1.5 3-4.5 7-6 8l-2 2-1-1c0-.5-1-2.5-2-4l-2-3-3 3c-1.5 1.5-3.5 5-4 7v4l-2 2c-1 .5-3.5 3.5-5 6l-3 4 1-1 1-1 1-1 7-4c3.5-2.5 9.5 0 12 5l5 10 1 2 2 1z" stroke-linejoin="round"/>
  <path fill="#745a4e" stroke="#745a4e" stroke-width=".7" d="M1060 611c8-10.5 16.5-10.5 22-7 5.5 3 16 4 21 2 5.5-2 9.5-10 8-16s-9-14.5-15-17c-6-3-16.5-10-21-14l-8-8-2-2-4-4-2-2-13-6c-6.5-3-17-1-21 4-4 4.5-13 13-18 17-4.5 4-15.5 9.5-22 11-6 1.5-12 10.5-12 18 .5 7 6 16.5 11 19 5 2 15.5 5.5 21 7 6 1.5 22.5 2 33 1l22-3z" stroke-linejoin="round"/>
  <path stroke="#000" stroke-width=".7" d="M345 612l1 1 1-4c.5-2.5-.5-6-2-7l-3-2-1-2c-.5-1.5-4-4-7-5-3-1.5-6-2.5-6-2l4 3c2.5 1.5 5.5 4.5 6 6l1 3h-2l-8-4c-3-1.5-7.5-3-9-3h-6l-5 1-5 1 4 2 4 1h1l1-1-1 3c0 1.5 1 2.5 2 2l2-2 4-1c2-.5 6.5 1 9 3s7.5 5 10 6l5 1z" stroke-linejoin="round"/>
  <path fill="#16172a" stroke="#16172a" stroke-width=".7" d="M362 598v-55l-1-6v-6l-1 3v26c.5 11 .5 28 0 34l-1 11 1-3 2-4z" stroke-linejoin="round"/>
  <path fill="#9d734d" stroke="#9d734d" stroke-width=".7" d="M1053 612c6.5-19.5 10.5-31.5 12-37 2-5.5-1-15-6-19-4.5-4-14.5-7-20-6-5 .5-12.5 7.5-15 14-2.5 6-8 18-11 24-2.5 6 6 15 17 18l23 6z" stroke-linejoin="round"/>
  <path fill="#16172a" stroke="#16172a" stroke-width=".7" d="M884 607c-2.5-7.5-5-10.5-7-11-1.5-.5-1.5 2 0 5 2 2.5 4.5 5.5 5 6h2z" stroke-linejoin="round"/>
  <path fill="#50444f" stroke="#50444f" stroke-width=".7" d="M475 590l6-22v-28c.5-2 1-4.5 1-5v-5c0-1-.5-6-1-10v-42l-1-9v-26l-1 13c0 6.5-1 20-2 27-.5 7-9 15-17 16l-32 2c-8 0-25 2-34 4l-17 3v19l1 2v5c.5 2.5 1 6 1 7v37l1 4v10l22 2c11 1 34.5.5 47-1l26-3z" stroke-linejoin="round"/>
  <path fill="#262437" stroke="#262437" stroke-width=".7" d="M708 599c3-4.5 4.5-6.5 5-7l1-2-3 2c-1 1-3.5 2-5 2s-3 .5-3 1l2 2 3 2zm-404-1l10-2-4 1c-1.5 0-3-2.5-3-5v-6l-4 4-3 4 2 2 2 2zm492-3l-4-18-2 1c-.5 0-1 1.5-1 3v3l3 6 4 5z" stroke-linejoin="round"/>
  <path fill="#16172a" stroke="#16172a" stroke-width=".7" d="M614 594l2-9v-1c.5-1 1-3.5 1-5v-4l-2 2c-1 .5-2 .5-2 0v-2 16l1 3zm168-2c3-6.5 4-9 4-9 .5-.5 1.5-.5 2 0l1 1v-3c0-1.5.5-3 1-3l2-1c0-.5 1.5-1.5 3-2 2-.5 4.5-.5 5 0h1-1v-1h-1c0-.5-2-1.5-4-2-1.5-.5-4 .5-5 2l-1 2-2-3c-.5-1.5-3-1-5 1l-3 4h1c1 0 2-.5 2-1l1-1-1 6v10z" stroke-linejoin="round"/>
  <path fill="#50444f" stroke="#50444f" stroke-width=".7" d="M0 587c27.5-2 44.5-3.5 52-4 8-1 21-4 26-6 5-2.5 14.5-5.5 19-6 5-1 17-1 24 0s20 2 26 2c6-.5 17-1.5 22-2 5.5-1 17-4 23-6s13-9.5 14-15c1-6 4-15.5 6-19s9-8.5 14-10c5.5-2 16-5 21-6s15.5-.5 21 1c6 1 16.5 3.5 21 5s15 4 21 5 16.5 2.5 21 3 14 3 19 5l10 3v-3l1-3v-4c0-2-.5-5-1-6v-3l-1-5v-11l-1-5v-26c0-2-.5-5-1-6v-3l-13 3c-6.5 1-21 2.5-29 3-8 0-23.5-1.5-31-3-7-1.5-21.5-2.5-29-2s-22.5 2.5-30 4c-7 1.5-16.5 9.5-19 16-2.5 6-11 13.5-17 15-5.5 1.5-19 4-27 5-7.5 1-22.5 3.5-30 5-7 1-22 2.5-30 3-7.5.5-22 2-29 3-6.5 1-21 3-29 4-8 .5-23 2-30 3l-14 1v65z" stroke-linejoin="round"/>
  <path fill="#2e2e4e" stroke="#2e2e4e" stroke-width=".7" d="M249 585l11-4 5 1h5c0-.5-.5-1.5-1-2v-2h-5l-4-1h-4c-1-.5-4-1-6-1-2-.5-5-.5-6 0s-1.5 2.5-1 4l2 3 2 1 2 1z" stroke-linejoin="round"/>
  <path fill="#262437" stroke="#262437" stroke-width=".7" d="M761 581v-14 3c.5 1.5 1 4.5 1 6 .5 1-1 3-3 4-2 .5-5.5 1-7 1-1-.5-2.5-1-3-1l-1-1-4-1c-1.5-.5-4.5-1-6-1h-2l-2 2-2 1 14 1h15z" stroke-linejoin="round"/>
  <path fill="#16172a" stroke="#16172a" stroke-width=".7" d="M231 585l3-9v-1c0-.5-.5-2-1-3v-2h-1l-2 3c-1 1-2.5 4-3 6 0 1.5 1 2.5 2 2s2 .5 2 2v2zm626-2l7 1v-2c0-1.5-1.5-3.5-3-4-1-1-.5-2 1-2h5l1-1-1-5v-7c0-1 .5-1.5 1-1l2 1-1-2c-.5-1-3-2-5-2l-3-1-1 1c0 .5.5 4 1 7l2 6-5 2c-2 .5-3 2.5-2 4l3 3-1 1-1 1z" stroke-linejoin="round"/>
  <path fill="#262437" stroke="#262437" stroke-width=".7" d="M864 584c2 0 3.5-1.5 4-3 .5-2 .5-4.5 0-5v-1l-1 1h-5c-1.5 0-2 1-1 2 1.5.5 3 2.5 3 4v2z" stroke-linejoin="round"/>
  <path fill="#16172a" stroke="#16172a" stroke-width=".7" d="M245 583c-2.5-4.5-2-6.5-1-7s4-.5 6 0c2 0 5 .5 6 1h7l3-1 3-2c1.5-1 6-3 9-4l6-3-7-1c-3-.5-8.5-1-11-1h-4l-3 1-8 4c-3 1-6.5 2.5-7 3h-1l-4 4c-1.5 2-1.5 4 0 4h3l1 1 2 1z" stroke-linejoin="round"/>
  <path fill="#16172a" stroke="#16172a" stroke-width=".7" d="M270 581v1h6l3-3c1-1 3.5-3 5-4s3-3.5 3-5c.5-1.5.5-3.5 0-4l-1-2-2 5c-.5 2.5-3 5.5-5 6h-3l-2 1c-1 0-3 .5-4 1l-1 1v2l1 1zm480-1c3.5 1 7 .5 9 0 2-1 3.5-3 3-4 0-1.5-.5-4.5-1-6v-3l-1-2c-.5-1.5-.5-3 0-3h2l-2-2c-1-1-3.5-1-5 0l-3 2c.5 0 1.5 2.5 2 5 1 2.5 2.5 7 3 9l2 3h-11l1 1h1z" stroke-linejoin="round"/>
  <path fill="#2e2e4e" stroke="#2e2e4e" stroke-width=".7" d="M617 575v-11l1-4v-4c0-2.5-.5-9.5-1-14v-30l1-5v-3c0-1.5.5-6.5 1-10 1-4 2-8.5 2-9v-5l1-1c1-.5 2 0 2 1 0 .5.5 4.5 1 8 .5 3 1 7 1 8v5l1 3 1-2c.5-1 2-3.5 3-5l2-3 7-1c4-1 15.5-.5 23 1l15 3 1 1c1 .5 2.5 2.5 3 4l1 2v2l1 1h1c.5 0 1-.5 1-1s1.5-1 3-1c1.5-.5 3-1.5 3-2 .5-.5 2.5-1 4-1 2-.5 4.5-.5 5 0 .5 0 1 .5 1 1l2 2 3 1 2 2 2 1 2 1h2l2 1c1.5.5 4 .5 5 0 1.5-.5 4 0 5 1s1 3 0 4c-1 .5-3.5 2-5 3l-3 1-3 1c-1.5 0-3.5-.5-4-1v-2l-4-3c-1.5-1.5-4-3.5-5-4l-1-1h-1v1l2 4 3 4 2 3 2 3 1 1c1 .5 3 3.5 4 6 1 2 2.5 4.5 3 5s1.5 3 2 5l2 3 2 1h2l1-3c.5-2 4.5-4 8-4h11l3-3c1.5-2 4.5-3 6-2l4 1h1c1-.5 4.5-.5 7 0 3 .5 7 1.5 8 2h4c1 0 2.5-.5 3-1 1-.5 3.5-1 5-1 2-.5 6-.5 8 0 2 0 6.5.5 9 1h7c1.5-.5 6.5-2 10-3l7-2h1l6-2 9-3 4-1-1 2c0 1-3 3.5-6 5-3 1-7 2-8 2h-1l-5 2c-2.5 1-6.5 2.5-8 3h-2l-2 3-2 2h9l2-1c1.5-.5 5-1.5 7-2l4-2 2-1c1.5-.5 5-1.5 7-2l5-2 1-1c1-.5 3-1 4-1l3-1-1-2v-2l-1-2c-.5-1-1.5-3.5-2-5s-2-4-3-5l-3-3c0-1 1-1.5 2-1h3l3 1c2 0 4.5 1.5 5 3l2 2 3 4 4 4h1c1 0 2 .5 2 1 .5 0 1.5.5 2 1h2l1-4c1-2 2-4.5 2-5l1-2 1-6c.5-3 1-9 1-12l1-6v-7l-1-3v-7c.5-1.5 2-4.5 3-6 1-2 2.5-4 3-4s1 1.5 1 3v3l2-3c1.5-1.5 4.5-5.5 6-8l4-5 3-5c2-3 4.5-7.5 5-9l2-3 1-3c1-1.5 4-4 6-5l5-3 3-4c2-2.5 5-6.5 6-8l3-4 1-2c.5-1 3-4 5-6 2-2.5 4.5-5.5 5-6l1-1 3-3 5-5c1-.5 3.5-1 5-1l3-1v-1h1c1-.5 3.5-2 5-3l4-2v-1c.5-.5 1.5-1 2-1 .5-.5 3.5-2 6-3s6-2 7-2 1.5-1 1-2l-1-3-15 3c-7.5 1-19.5 6.5-24 11-4.5 4-15 10-21 12s-14 11-16 18c-1.5 7-7 17-11 20l-8 6-1 1c0 .5-1.5 3.5-3 6l-3 5v-3l-5 11c-2.5 5-8 13-11 16s-11.5 8-17 10c-5 2-17 5.5-24 7s-20 3.5-26 4c-5.5 0-23.5-2-36-4-12-2-29.5-6.5-35-9-5.5-3-18-8-25-10-6.5-2-21-5-29-6-7.5-1-22.5-2-30-2-7 0-19 3-24 6s-14 1.5-18-3c-3.5-4.5-13.5-11-20-13-6-2-19.5-4-27-4-7.5-.5-22 .5-29 2-6.5 1.5-21 6-29 9l-16 5v2l3 5c2 2.5 4 9.5 4 14 .5 4 3.5 5.5 6 3l5-5 3-1 3-1 10 2 10 1-12 5-11 5-5 3-4 2 1 1c1 0 4-1 6-2l5-2v-1l1-2 1-1h1l2-1c1.5-1 4.5-1.5 6-1 1.5 0 3 .5 3 1h4l3-1 3-1c1.5-.5 3.5.5 4 2l1 2v1l1 1 1 2 3 3 2 1-3-12-2-13 5 6 6 5-3-5c-1-3-2-7-2-8 .5-1.5 4.5 2.5 8 8l7 10 2-1 3-1v1h1l4-3c2.5-1.5 5.5-3 6-3h2l1-6 1-7v2l1 1 1 3c1 1.5 3 3.5 4 4l3 1 2-1c1-.5 3 1 4 3 1.5 1.5 3 4.5 3 6 .5 1 1 2.5 1 3l1 1h2l-2-8c-1-4-2.5-9.5-3-11v-4c.5-1 2.5 1 4 4l3 6 1 8c.5 3.5 1 9.5 1 12l1 4v3c.5 1.5 1 8 1 13l1 9 1 7 2 12 1 5v2c0 1-.5 5.5-1 9v9c0 .5 1 .5 2 0l2-2z" stroke-linejoin="round"/>
  <path fill="#16172a" stroke="#16172a" stroke-width=".7" d="M809 579c6-3 10-4 12-4h4l3-1c2-.5 1.5-3-1-5-2-2.5-5.5-5.5-7-6l-2-1 2 2c1.5.5 3.5 1.5 4 2h1l1 4c.5 2-1.5 3.5-4 3l-5-2h-2c-1-.5-3.5-3-5-5-1.5-2.5-4-4.5-5-4l-1 1 1 5 2 5-4-3-3-3 2 6 3 5 2 1h2z" stroke-linejoin="round"/>
  <path fill="#262437" stroke="#262437" stroke-width=".7" d="M483 579v-26c0-3-.5-9.5-1-13v-7 2c0 .5-.5 3-1 5v28c.5 0 1 1.5 1 3v5l1 3z" stroke-linejoin="round"/>
  <path fill="#745a4e" stroke="#745a4e" stroke-width=".7" d="M373 577l1-2v-52l-1-13c0-6.5.5-15 1-17l1-5v6c.5 2.5 1 6.5 1 8v4l1 2 17-3c9-2 26-4 34-4l32-2c8-1 16.5-9 17-16 1-7 2-20.5 2-27l1-13v-20c.5-1 1-2.5 1-3l1-1 5-7c3-3.5 13-7.5 20-8 7.5-1 23-1.5 31-1 8.5.5 24 2.5 31 4 7.5 1.5 21 5.5 27 8 6.5 2.5 20 5 27 5 7-.5 21 .5 28 2s21.5 4 29 5c8 1 23.5 2 31 2 8 0 22.5.5 29 1 7 .5 21.5 1 29 1 8 0 23.5 1 31 2 8 .5 23.5 1.5 31 2 7.5 0 22.5-1 30-2 7.5-1.5 18-8.5 21-14 3.5-5.5 10.5-16 14-21 4-5 12.5-14 17-18s14.5-11 20-14c5.5-3.5 17.5-8.5 24-10 6.5-2 19-2 25 0 6 1.5 21.5 4 31 5l19 1 3 1h3l11 2c6 .5 18 4 24 7 6 2.5 19 5.5 26 6h27c7-.5 18-2.5 22-4 4.5-1.5 12-8 15-13 3.5-5 11.5-13 16-16 5-3 9-11.5 8-17-.5-5.5-4-14.5-7-18s-12-5.5-18-4c-6 1-11.5 3-11 4 .5.5-1.5 5.5-4 10-2 4.5-8 12-12 15-3.5 3-10.5 7-14 8-3 .5-12 1.5-18 2-5.5.5-14.5 1.5-18 2l-6 1 7 3c4 1.5 14 3 20 3 6.5 0 14 4.5 15 9 1 4-10 7.5-22 7-11.5-1-29-4.5-35-7-5.5-3-5.5-9.5 0-13l11-7-1-1c0-1-3-2.5-6-3-2.5-.5-6-.5-7 0-.5 0-3.5 1-6 2-2 1-5 2-6 2h-3l-2-1-20 6c-9.5 3-17.5 2-16-2 2-4 12-7 20-6l16 2-10-3c-4.5-1.5-13.5-4-18-5-4-1-13.5-1-19 0-5 1-9.5-1-9-4 1-3 7-9 12-12 5.5-3 17-6 23-6 6.5-.5 18.5-4 24-7 5.5-3.5 18-7 25-7 7-.5 21-2.5 28-4 7.5-1.5 21.5-5 28-7 7-2 21-5 28-6 7.5-1.5 21-1 27 1 6.5 2 18.5 6.5 24 9 6 2.5 16 9 20 13 4 3.5 14.5 7 21 7 7 0 19 2.5 24 5 5.5 2 16.5 7.5 22 11 5.5 3 17.5 8.5 24 11 6.5 2 19 4 25 4 6.5 0 18 1 23 2 5.5 1 18 2.5 25 3s22.5 0 31-1l18-2v-35l-12 2c-5.5.5-16 1-21 1-4.5-.5-16-.5-23 0-6.5 0-19 .5-25 1-5.5 0-16.5-1.5-22-3-5-2-15-5-20-6s-15.5-1.5-21-1-14-2.5-17-6c-2.5-3.5-10-7.5-15-8s-14 0-18 1c-3.5.5-11.5-1.5-16-4s-12.5-7.5-16-10c-3-3-12-7-18-8s-17.5-1-23 0c-5 .5-15.5 2.5-21 4s-15.5 4.5-20 6-14 4-19 5c-4.5.5-14.5 1.5-20 2-5 .5-15.5 2-21 3s-17 2.5-23 3c-5.5 0-15.5 1.5-20 3s-13.5 5-18 7c-4 1.5-12.5 6-17 9-4 2.5-11 8-14 11s-10.5 9-15 12c-4 2.5-11.5 7.5-15 10s-11.5 8-16 11c-4 2.5-13 5.5-18 6-5 0-16.5-.5-23-1-6-1-17-2-22-2s-16.5-.5-23-1c-6-1-18-2-24-2-5.5-.5-17.5-1-24-1s-17-2-21-4-12.5-4.5-17-5-14.5-.5-20 0-17.5 1.5-24 2c-6 0-18 .5-24 1-5.5.5-17 2.5-23 4-5.5 1-17 2.5-23 3-5.5 0-17 1-23 2-5.5.5-14.5-1.5-18-4-3-3-10.5-8.5-15-11s-14-6-19-7-15.5-3.5-21-5-17-3-23-3-18 1-24 2-16 4.5-20 7c-4 2-8 11-8 18v26c0 6-.5 19-1 26 0 6.5-.5 18.5-1 24s-6 12.5-11 14-15.5 2.5-21 2-17-1-23-1h-23c-5.5 0-14.5 3-18 6s-7 12.5-7 19c0 6-2 12-4 12s-5-5.5-6-11l-1-12v18l1 8v8c.5 3.5 1 9.5 1 12l1 5v15c.5 4 1 9 1 10l1 1v6l1 5v2c.5.5 1 4.5 1 8 .5 3.5 1 7.5 1 8s1 4 2 7l2 6z" stroke-linejoin="round"/>
  <path fill="#262437" stroke="#262437" stroke-width=".7" d="M825 575l10-3h-1c-.5 0-1-2-1-4l1-5-1-1v-1h-2c-.5-.5-2-3-3-5s-5-5.5-8-7c-2.5-1.5-3.5-3.5-2-4l4-1h-9v3l1 2 2 3c1 1 2 4 2 6v4l2 1c1.5.5 5 3.5 7 6 2.5 2 3 4.5 1 5l-3 1z" stroke-linejoin="round"/>
  <path fill="#453738" stroke="#453738" stroke-width=".7" d="M374 575h1v-28c0-2-.5-8-1-12v-8 48zm5-1v-33c0-1-.5-4.5-1-7v-5 42l1 3z" stroke-linejoin="round"/>
  <path fill="#262437" stroke="#262437" stroke-width=".7" d="M268 572l6-5-7 1c-3.5 0-7.5 1-8 2 0 .5 2 1.5 4 2h5z" stroke-linejoin="round"/>
  <path fill="#2e2e4e" stroke="#2e2e4e" stroke-width=".7" d="M962 572c15.5-14 24.5-18.5 28-18 4 .5 12.5-3 17-7 5-4 10.5-14.5 11-21 .5-7-4-18-9-22-4.5-4-14-6-19-4-4.5 1.5-13 .5-17-2-3.5-2.5-4-9-1-13 3.5-4 10.5-12.5 14-17l8-10-11 5c-5 2-12.5 10.5-15 17-2.5 6-2 17.5 1 23s12.5 11.5 19 12c7 .5 16.5 3.5 19 6l5 4 1 1c.5 0 1-.5 1-1l1-1-1-3c-.5-1.5-3-5-5-7-2-2.5-4.5-5-5-5v-1l-5-3c-2.5-1.5-4.5-3.5-4-4l2-1 2 1c1.5 0 6 1.5 9 3s6 3.5 6 4l1 1 2 5c1 2.5 2 6.5 2 8v5c0 .5-.5 2.5-1 4s-2 4-3 5l-1 2 1-3c.5-2 .5-4 0-4-.5-.5-2-.5-3 0l-1 1-3 2c-1 1-5.5 1-9 0s-8.5-4.5-10-7c-1.5-3-3.5-6-4-6l-3 1c-1 0-2.5 2-3 4s-1 4.5-1 5l-2 3c-.5 1.5-1.5 3-2 3v-6c0-2.5-.5-6-1-7l-1-3-4 14c-2 6.5-4.5 19-5 25l-1 12z" stroke-linejoin="round"/>
  <path fill="#16172a" stroke="#16172a" stroke-width=".7" d="M843 566c-2.5-6-4.5-9.5-6-11l-3-4 3 6c2 2.5 4.5 6 5 7l1 2z" stroke-linejoin="round"/>
  <path fill="#262437" stroke="#262437" stroke-width=".7" d="M229 565c4.5 0 6.5-.5 7-1l2-1 1-1 2-2h3v-1c0-1-1.5-2-3-2-1 0-3.5 1-5 2-1 1-3.5 3-5 4l-2 2z" stroke-linejoin="round"/>
  <path fill="#16172a" stroke="#16172a" stroke-width=".7" d="M830 560l3 1v-1l-3-2c-1-1.5-1.5-6-1-9l2-6 2-2 2-2-4 2c-2 .5-5.5 1.5-7 2l-2 1-4 1c-1.5.5-.5 2.5 2 4 3 1.5 7 5 8 7l2 4zm-51-1l1-1 1-3 2-4v-1c.5-.5.5-1 0-1h-10l2 1 3 1-1 3c-.5 1-.5 3 0 4l2 1z" stroke-linejoin="round"/>
  <path fill="#262437" stroke="#262437" stroke-width=".7" d="M1082 558c-3-5-7-8-10-9-3-1.5-8-3.5-10-4l-3-2 2 2 4 4 2 2 2 2c1.5 1 5.5 3 8 4l5 1z" stroke-linejoin="round"/>
  <path fill="#16172a" stroke="#16172a" stroke-width=".7" d="M743 552c6-5 9.5-7 11-7h6-1l-1-1h-3c-1 0-4.5.5-7 1-2 0-3.5-.5-3-1l1-1h-1c-.5 0-2 2-3 4l-2 3 1 1 2 1z" stroke-linejoin="round"/>
  <path fill="#262437" stroke="#262437" stroke-width=".7" d="M783 552l3-1-1-3c0-1.5-.5-3.5-1-4s-1 0-1 1c0 .5-1 1.5-2 2h-1l1 1 1 1h1c.5 0 .5.5 0 1v2z" stroke-linejoin="round"/>
  <path fill="#16172a" stroke="#16172a" stroke-width=".7" d="M786 551l3-4-1-1c-.5-1-2-3-3-4l-2-3 1 1 2 1 6 1c3 0 6.5-.5 7-1l2-2c.5 0 3.5 1.5 6 3l6 2 2-2 2-3h-6v-1h-2l-2-1h1l1-1h-5c-2.5-.5-7-1-9-1-2-.5-6-.5-8 0-1.5 0-4 .5-5 1-.5.5-2 1-3 1h-2v1h1-5c-2 0-6 .5-8 1h-3l2 2c1.5.5 6 2.5 9 4l6 2h2c1-.5 2-1.5 2-2 0-1 .5-1.5 1-1s1 2.5 1 4l1 3z" stroke-linejoin="round"/>
  <path fill="#262437" stroke="#262437" stroke-width=".7" d="M731 548c6.5-4.5 10-6.5 11-7l2-2h-9c-3.5 0-7.5 2-8 4l-1 3 2 1 2 1h1z" stroke-linejoin="round"/>
  <path fill="#2e2e4e" stroke="#2e2e4e" stroke-width=".7" d="M770 548l3 1h9l-1-1-1-1h-1l-6-2c-3-1.5-7.5-3.5-9-4l-2-2h-6v2c0 .5.5 1.5 1 2l1 1 1 1h1l4 1c2 .5 4.5 1.5 5 2h1z" stroke-linejoin="round"/>
  <path fill="#262437" stroke="#262437" stroke-width=".7" d="M744 545c6.5-.5 10-1 11-1h3l-1-1c-.5-.5-1-1.5-1-2v-2l-4 1c-2 .5-4.5 1.5-5 2l-1 1-1 1-1 1z" stroke-linejoin="round"/>
  <path fill="#16172a" stroke="#16172a" stroke-width=".7" d="M720 544l2 1-2-3c-.5-2-1.5-4.5-2-5s-2-3-3-5c-1-2.5-3-5.5-4-6l-1-1 2 6 2 6 3 4 3 3zm423-2c-6-4.5-12-5.5-16-5-3.5.5-11 1-15 1-3.5-.5-8.5-.5-10 0h-3l9 1c5 .5 16 1.5 22 2l13 1z" stroke-linejoin="round"/>
  <path stroke="#000" stroke-width=".7" d="M811 538c0 1 1.5 1 3 1h5c1.5-.5 5.5-2 8-3l5-2h1c1 0 5-1 8-2 3-1.5 6-4 6-5l1-2-4 1-9 3-6 2h-1l-7 2c-3.5 1-8.5 2.5-10 3h-2l-1 1h-1l2 1h2z" stroke-linejoin="round"/>
  <path fill="#262437" stroke="#262437" stroke-width=".7" d="M1014 538c2-3 3.5-5.5 4-7s1-3.5 1-4v-2l-2 1-1 1-1-1v-2l-1 1c0 .5-.5 1-1 1l-1-1-1 4v3l1-1c1-.5 2.5-.5 3 0 .5 0 .5 2 0 4l-1 3zm-39-1l3-6v1c0 .5-.5 1-1 1s-1-2.5-1-5v-7l1-1v-1l-3 1-2 1 1 3c.5 1 1 4.5 1 7v6h1z" stroke-linejoin="round"/>
  <path fill="#16172a" stroke="#16172a" stroke-width=".7" d="M734 536c3.5-3 3.5-5 2-6l-2-2-1 3v2-1l-2-1-2-2 2 3c1 1.5 2 3.5 2 4h1z" stroke-linejoin="round"/>
  <path fill="#2e2e4e" stroke="#2e2e4e" stroke-width=".7" d="M1370 530v-16l-1-7-1-8-3-6c-1-3-4-8-6-10-2-2.5-5.5-5.5-7-6l-2-2-1 2-1 2v15c0 7 2.5 20 5 26s8 11.5 11 11l6-1z" stroke-linejoin="round"/>
  <path fill="#16172a" stroke="#16172a" stroke-width=".7" d="M1072 534c3.5 1 5-.5 5-2v-3l4-7c2.5-4 9-8.5 13-9l8-1-18 8-17 7 3 3c2 1.5 3.5 3.5 3 4h-1zm-96-1c1.5 0 2-.5 2-1v-1c0-.5.5-3 1-5s2-4 3-4l3-1-4-1-4-1v1l-1 1v12z" stroke-linejoin="round"/>
  <path stroke="#000" stroke-width=".7" d="M1071 533l1 1h1c.5-.5-1-2.5-3-4l-3-3-2-1-2-2h-4l-4-1 8 5 8 5zm-338-1v1-2l1-3-4-1-4-1 1 2 2 1 2 2 2 1z" stroke-linejoin="round"/>
  <path fill="#16172a" stroke="#16172a" stroke-width=".7" d="M857 531h11l4-2 4-2h-2c-.5-.5-1.5-1-2-1 0-.5-1-1-2-1h-1l-1 2v1h-2c-1-.5-4-3.5-6-6-1.5-2.5-2.5-5-2-5l1-1 1 1h2l-2-2c-.5-1.5-3-3-5-3l-3-1v2c.5 1 1 2.5 1 3 .5.5 1.5 3.5 2 6l1 5v2l1 2z" stroke-linejoin="round"/>
  <path fill="#2e2e4e" stroke="#2e2e4e" stroke-width=".7" d="M1403 530l4-11-2 4c-1 1.5-2 4-2 5v2z" stroke-linejoin="round"/>
  <path stroke="#000" stroke-width=".7" d="M868 528l1-3-4-4-3-4h-2l-1-1-1 1c-.5 0 .5 2.5 2 5 2 2.5 5 5.5 6 6h2zm148-1l3-2v-3c0-1.5-1-5.5-2-8l-2-5-1-1c0-.5-3-2.5-6-4s-7.5-3-9-3l-2-1-2 1c-.5.5 1.5 2.5 4 4l5 3v1c.5 0 3 2.5 5 5 2 2 4.5 5.5 5 7l1 3v2l1 1z" stroke-linejoin="round"/>
  <path fill="#262437" stroke="#262437" stroke-width=".7" d="M856 527c-1.5-7.5-2.5-10.5-3-11 0-.5-.5-2-1-3v-2h-3c-1-.5-2 0-2 1l3 3c1 1 2.5 3.5 3 5s1.5 4 2 5l1 2z" stroke-linejoin="round"/>
  <path fill="#2e2e4e" stroke="#2e2e4e" stroke-width=".7" d="M1399 498c-7-18-14.5-25-20-26-5-1-10.5-1.5-11-1h-1l1 2 2 1 4 8c2.5 3.5 6.5 11.5 8 16l3 8h-2c-.5 0-1.5.5-2 1l2 4 3 4 6 3c3 1.5 6-2.5 6-8l1-12z" stroke-linejoin="round"/>
  <path fill="#453738" stroke="#453738" stroke-width=".7" d="M374 523v-33l1-2-1 5c-.5 2-1 10.5-1 17l1 13z" stroke-linejoin="round"/>
  <path fill="#16172a" stroke="#16172a" stroke-width=".7" d="M1380 522c3-3.5 4.5-5.5 5-6l1-1-3-4-2-4c.5-.5 1.5-1 2-1h2l-3-2-5-5-2-3 2 7c1 3 2 9.5 2 13l1 6z" stroke-linejoin="round"/>
  <path fill="#745a4e" stroke="#745a4e" stroke-width=".7" d="M0 522c21-2 36-3.5 44-4 8-1 22.5-3 29-4 7-1 21.5-2.5 29-3 8-.5 23-2 30-3 7.5-1.5 22.5-4 30-5 8-1 21.5-3.5 27-5 6-1.5 14.5-9 17-15 2.5-6.5 12-14.5 19-16 7.5-1.5 22.5-3.5 30-4s22 .5 29 2c7.5 1.5 23 3 31 3 8-.5 22.5-2 29-3l13-3v-5c.5-2.5 1-6 1-7l1-3 1-1-1-13c-.5-7-4-19.5-7-25-3-6-13-12.5-20-13-6.5-1-21-3-29-4l-30-4c-7.5-1.5-23-2-31-1-8 .5-21 5-26 9-5 3.5-11.5 14-13 21s-6.5 19.5-10 25c-3.5 5-14 9-21 8-6.5-1-21-1.5-29-1-7.5.5-23.5 1.5-32 2-8.5 0-24 1.5-31 3s-21.5 2-29 1c-7.5-1.5-24-5-33-7l-18-4v79z" stroke-linejoin="round"/>
  <path fill="#16172a" stroke="#16172a" stroke-width=".7" d="M713 521l6-1c0-.5.5-2 1-3 .5-1.5.5-3 0-3l-3-2-2-2h-2l-2-1 1 5c.5 2.5.5 5 0 5v1l1 1zm-18-1l2-7v-1c0-.5 1-1 2-1h2v-1l-1-1c0-1 .5-3 1-4l1-2c0-.5-.5-1-1-1-.5-.5-3-.5-5 0-1.5 0-3.5.5-4 1 0 .5-1.5 1.5-3 2-1.5 0-3 .5-3 1s-.5 1-1 1h-1l2 5c1.5 2 3.5 3 4 2l1-2 1 2c1 1 2 3 2 4l1 2zm681 0c-1-9-2.5-14.5-4-17-1-2.5-2.5-4.5-3-4h-1l1 8 1 7v-7l1-7 1 7c1 3.5 2.5 8.5 3 10l1 3z" stroke-linejoin="round"/>
  <path fill="#262437" stroke="#262437" stroke-width=".7" d="M719 519v1l3-1c1.5-1 4-2.5 5-3 1-1 1-3 0-4s-3.5-1.5-5-1c-1 .5-3.5.5-5 0l-2-1 2 2 3 2c.5 0 .5 1.5 0 3l-1 2z" stroke-linejoin="round"/>
  <path stroke="#000" stroke-width=".7" d="M712 518v1c.5 0 .5-2.5 0-5l-1-5-2-1-2-2-3-1-2-2-1 2c-.5 1-1 3-1 4l1 1h1l1 1c1 .5 3.5 2.5 5 4l4 3z" stroke-linejoin="round"/>
  <path fill="#16172a" stroke="#16172a" stroke-width=".7" d="M632 511c1.5-2 4.5-2.5 7-2l6 1-1-1-1-2-4-2-3-2-2 1c-1 0-3 1.5-4 3s-2.5 3-3 3v-6l-1-3v-5c0-1-.5-5-1-8-.5-3.5-1-7.5-1-8 0-1-1-1.5-2-1l-1 1v1c.5.5 1.5 5 2 9s1 9 1 10v2l1 6c.5 2.5 2.5 4.5 4 4l3-1z" stroke-linejoin="round"/>
  <path fill="#2e2e4e" stroke="#2e2e4e" stroke-width=".7" d="M1134 509c7.5-3.5 10-7 10-9l1-5h-1c-.5 0-1.5.5-2 1l-4-3c-1.5-1.5-3.5-2.5-4-2l-1 1-5-3c-2-1.5-7-8.5-10-14-3-6-11.5-13.5-17-15l-10-3 12 7c6 3.5 13 14.5 14 22 1 7-1 17-4 20l-5 6h4c2 0 8.5-.5 13-1l9-2z" stroke-linejoin="round"/>
  <path fill="#16172a" stroke="#16172a" stroke-width=".7" d="M516 512c5-6 7.5-8 8-8l1-1 4-2c2-1 5-3 6-4l3-2-1-2c-.5-1.5-2.5-2.5-4-2l-3 1 1 1 1 1h-1l-5 4c-2 2-5 5.5-6 7l-1 3-2 2-1 2z" stroke-linejoin="round"/>
  <path fill="#262437" stroke="#262437" stroke-width=".7" d="M1053 511c9-2 13.5-4.5 15-6l4-3-8 1c-3.5 0-6.5 1-6 2 1 1 0 3-2 4l-3 2zm-426-1c.5 0 2-1.5 3-3s3-3 4-3l2-1-1-1v-1l-2-2c-1-1.5-1.5-3.5-1-4l1-1-2 3c-1 1.5-2.5 4-3 5l-1 2v6z" stroke-linejoin="round"/>
  <path fill="#16172a" stroke="#16172a" stroke-width=".7" d="M494 500c3.5-6.5 6-10 7-11l2-3v-1l-5 5c-2.5 2.5-5.5 1-6-3 0-4.5-2-11.5-4-14l-3-5-1 3c-.5 1.5 0 4 1 5l2 2v3c0 1 .5 4.5 1 7 1 2.5 2 6.5 2 8v3l2 1h2zm13 6l10-7v-1l-4 2-3 2c0-.5 1-1.5 2-2 1-1 1.5-3 1-4l-1-2h-1l-1 1-1 2v1l-1 2v1l-1 1v4z" stroke-linejoin="round"/>
  <path fill="#2e2e4e" stroke="#2e2e4e" stroke-width=".7" d="M668 506l11 1v-2c0-1.5-1-4-2-5l-1-2h-6v1h1l-2 1-1 1-6-1c-2.5-.5-5.5 0-6 1v2h1c.5 0 3.5 1 6 2l5 1z" stroke-linejoin="round"/>
  <path fill="#16172a" stroke="#16172a" stroke-width=".7" d="M590 503l5-7v-1c.5-.5 2-.5 3 0l2 1c0-.5-.5-2-1-3 0-1.5-1.5-4.5-3-6-1-2-3-3.5-4-3l-2 1v1l1 1-3 3c-1 1-.5 2.5 1 3l4 1-1 1-1 4-1 4z" stroke-linejoin="round"/>
  <path fill="#9d734d" stroke="#9d734d" stroke-width=".7" d="M372 481c0-18.5 3.5-28 7-31s12.5-6 18-6h23c6 0 17.5.5 23 1s16-.5 21-2 10.5-8.5 11-14 1-17.5 1-24c.5-7 1-20 1-26v-26c0-7 4-16 8-18 4-2.5 14-6 20-7s18-2 24-2 17.5 1.5 23 3 16 4 21 5 14.5 4.5 19 7 12 8 15 11c3.5 2.5 12.5 4.5 18 4 6-1 17.5-2 23-2 6-.5 17.5-2 23-3 6-1.5 17.5-3.5 23-4 6-.5 18-1 24-1 6.5-.5 18.5-1.5 24-2s15.5-.5 20 0 13 3 17 5 14.5 4 21 4 18.5.5 24 1c6 0 18 1 24 2 6.5.5 18 1 23 1s16 1 22 2c6.5.5 18 1 23 1 5-.5 14-3.5 18-6 4.5-3 12.5-8.5 16-11s11-7.5 15-10c4.5-3 12-9 15-12s10-8.5 14-11c4.5-3 13-7.5 17-9 4.5-2 13.5-5.5 18-7s14.5-3 20-3c6-.5 17.5-2 23-3s16-2.5 21-3c5.5-.5 15.5-1.5 20-2 5-1 14.5-3.5 19-5s14.5-4.5 20-6 16-3.5 21-4c5.5-1 17-1 23 0s15 5 18 8c3.5 2.5 11.5 7.5 16 10s12.5 4.5 16 4c4-1 13-1.5 18-1s12.5 4.5 15 8c3 3.5 11.5 6.5 17 6s16 0 21 1 15 4 20 6c5.5 1.5 16.5 3 22 3 6-.5 18.5-1 25-1 7-.5 18.5-.5 23 0 5 0 15.5-.5 21-1l12-2v-72h-20c-9.5-.5-27 0-35 1-8 .5-24 2-32 3-8 .5-24 2-32 3-7.5.5-22 2-29 3-7 .5-15-7-16-15-.5-8 5-18 11-20 6-2.5 19.5-6 27-7 7.5-1.5 21.5-4.5 28-6 7-2 10.5-7.5 7-11-3.5-4-15.5-7.5-24-7-8 .5-24 1-32 1-8-.5-23 0-30 1-6.5 1-21.5 2.5-30 3-8 0-23.5 1.5-31 3-7.5 1-21.5 4.5-28 7-6.5 2-11.5 8.5-10 13 1.5 4 11.5 8 20 8 9 0 25.5-1 33-2s22-2.5 29-3c7.5-.5 16.5 6 18 13 2 7-1.5 16.5-7 19-5.5 2-19 5-27 6-8 .5-24.5 1.5-33 2h-34c-8.5 0-24 .5-31 1-6.5.5-20 3-27 5-7 1.5-19.5 6-25 9-5.5 2.5-18.5 6-26 7-7 .5-20.5-1-27-3-6.5-2.5-17.5-9-22-13-4.5-4.5-17-9.5-25-10-8-1-24.5-2-33-2-8.5-.5-25-1.5-33-2s-24.5-1-33-1c-8.5-.5-24.5-1.5-32-2-7-.5-22.5-.5-31 0-8 .5-24.5 1.5-33 2-8.5 0-25 .5-33 1s-24 2-32 3c-8 .5-25 1-34 1-8.5 0-24.5-.5-32-1l-15-2 11-4c6-2 18.5-6 25-8s11-6.5 9-9c-1.5-2.5-11-4-19-3-8 .5-21 4-26 7-5 2.5-16.5 7.5-23 10-6.5 2-20.5 3.5-28 3-7-1-21.5-2.5-29-3-7-.5-22.5-1-31-1-8.5-.5-25.5-1-34-1-8 0-17.5 7.5-19 15-1 7.5-2 23.5-2 32s-3 23-6 29c-2.5 6-11.5 12-18 12-6.5-.5-20.5-2-28-3-7.5-1.5-23.5-3-32-3-8 0-18 6.5-20 13s-5.5 20.5-7 28l-2 15-2-16c-.5-8-2-24-3-32-.5-8-4.5-21.5-8-27-3-5.5-13-9.5-20-8-6.5 1.5-19 5.5-25 8s-19.5 5-27 5c-7.5-.5-21.5-3-28-5-6.5-2.5-20.5-6.5-28-8-7-1.5-17.5 2.5-21 8-3.5 5-10.5 15.5-14 21-3 5-13 10.5-20 11-6.5.5-20.5-.5-28-2-7-1.5-22-2.5-30-2-8 0-23.5 1.5-31 3-7.5 1-23 1.5-31 1s-23-3-30-5l-14-5v122l18 4c9 2 25.5 5.5 33 7 7.5 1 22 .5 29-1s22.5-3 31-3c8.5-.5 24.5-1.5 32-2 8-.5 22.5 0 29 1 7 1 17.5-3 21-8 3.5-5.5 8.5-18 10-25s8-17.5 13-21c5-4 18-8.5 26-9 8-1 23.5-.5 31 1l30 4c8 1 22.5 3 29 4 7 .5 17 7 20 13 3 5.5 6.5 18 7 25l1 13v3c.5 1 1 3 1 4v5l1 12c1 5.5 4 11 6 11h4z" stroke-linejoin="round"/>
  <path fill="#262437" stroke="#262437" stroke-width=".7" d="M510 502l7-4 1-1c.5-.5 2-1.5 3-2l3-2h-1c0-.5-1.5-1-3-1-1.5-.5-4.5 0-6 1l-2 1 1 2c.5 1 0 3-1 4-1 .5-2 1.5-2 2z" stroke-linejoin="round"/>
  <path fill="#16172a" stroke="#16172a" stroke-width=".7" d="M545 503l7-4 4-2 5-3-7-10c-3.5-5.5-7.5-9.5-8-8 0 1 1 5 2 8l3 5-6-5-5-6 2 13 3 12z" stroke-linejoin="round"/>
  <path fill="#262437" stroke="#262437" stroke-width=".7" d="M359 502v-38l1-1 1-1v-9c0-1-.5-3-1-4v-3l-1 1-1 3c0 1-.5 4.5-1 7v8c.5 1 1 4 1 6v26l1 5z" stroke-linejoin="round"/>
  <path fill="#16172a" stroke="#16172a" stroke-width=".7" d="M635 501l6-2-2-3-1-4 3 2 3 1 2 1c1 0 5-1 8-2l6-2 3 3c2 1 4.5 2.5 5 3h9l1-1-15-3c-7.5-1.5-19-2-23-1l-7 1-1 1c-.5.5 0 2.5 1 4l2 2z" stroke-linejoin="round"/>
  <path fill="#50444f" stroke="#50444f" stroke-width=".7" d="M792 495c17-.5 30-2.5 37-4s19-5 24-7c5.5-2 14-7 17-10s8.5-11 11-16l5-11 4-11 5-12-1 7c-.5 3-1 6.5-1 7l8-6c4-3 9.5-13 11-20 2-7 10-16 16-18s16.5-8 21-12c4.5-4.5 16.5-10 24-11l15-3 6 2c3 1 8 3 10 4l5 2h6l5-3c2.5-2 6-4 7-4h2l4-1 4-1h-1c0-.5-1.5-1.5-3-2s-2.5-1.5-2-2l1-1-19-1c-9.5-1-25-3.5-31-5-6-2-18.5-2-25 0-6.5 1.5-18.5 6.5-24 10-5.5 3-15.5 10-20 14s-13 13-17 18c-3.5 5-10.5 15.5-14 21-3 5.5-13.5 12.5-21 14-7.5 1-22.5 2-30 2-7.5-.5-23-1.5-31-2-7.5-1-23-2-31-2-7.5 0-22-.5-29-1-6.5-.5-21-1-29-1-7.5 0-23-1-31-2-7.5-1-22-3.5-29-5s-21-2.5-28-2c-7 0-20.5-2.5-27-5-6-2.5-19.5-6.5-27-8-7-1.5-22.5-3.5-31-4-8-.5-23.5 0-31 1-7 .5-17 4.5-20 8l-5 7v3c.5 1 1.5 5 2 8l1 6v2c.5.5.5 5 0 9v19l16-5c8-3 22.5-7.5 29-9 7-1.5 21.5-2.5 29-2 7.5 0 21 2 27 4 6.5 2 16.5 8.5 20 13 4 4.5 13 6 18 3s17-6 24-6c7.5 0 22.5 1 30 2 8 1 22.5 4 29 6 7 2 19.5 7 25 10 5.5 2.5 23 7 35 9l25 4z" stroke-linejoin="round"/>
  <path fill="#262437" stroke="#262437" stroke-width=".7" d="M1142 496c.5-.5 1.5-1 2-1h1v-2c0-1.5-.5-3.5-1-4v-2h-2l-2-2c-.5-1-3-3-5-4-1.5-1.5-4-3.5-5-4s-2.5-2.5-3-4v-3h-2c-1 0-1 3 0 6 1.5 3 4 8.5 5 11l3 5 1-1c.5-.5 2.5.5 4 2l4 3z" stroke-linejoin="round"/>
  <path fill="#16172a" stroke="#16172a" stroke-width=".7" d="M506 496l23-10-10-1-10-2h1c.5 0-.5 2-2 4l-3 3v3l1 3zm61-3l14-1-3-1-2-1 1-1 2-2h-2c-.5 0-3.5 1.5-6 3l-4 3z" stroke-linejoin="round"/>
  <path fill="#745a4e" stroke="#745a4e" stroke-width=".7" d="M1058 488c24.5-1.5 37.5-5.5 42-9 5-3.5 4.5-9-1-11-5-2-17.5-3-25-2-7 .5-20.5 1-27 1-6 0-20-.5-28-1-8-1-20.5 1-25 4-4.5 2.5-3.5 8.5 2 12 5.5 3 23.5 6 36 6h26z" stroke-linejoin="round"/>
  <path fill="#2e2e4e" stroke="#2e2e4e" stroke-width=".7" d="M1143 487h1l-3-4c-1.5-2-5.5-6-8-8-2-2-4.5-4-5-4l-1-1v3c.5 1.5 2 3.5 3 4s3.5 2.5 5 4c2 1 4.5 3 5 4l2 2h1z" stroke-linejoin="round"/>
  <path fill="#262437" stroke="#262437" stroke-width=".7" d="M883 485c3.5-7.5 5-11 5-12l1-2v-3c0-1.5-.5-3-1-3s-2 2-3 4c-1 1.5-2.5 4.5-3 6v7l1 3z" stroke-linejoin="round"/>
  <path fill="#16172a" stroke="#16172a" stroke-width=".7" d="M1368 476l2-2-2-1-1-2 8-6c4.5-3.5 7-12 5-17-1.5-5-3.5-10-4-10v2c0 .5.5 4 1 7 .5 2.5.5 5.5 0 6l-5 3c-2 1-4.5 2-5 2l-1-1-4 7c-1.5 3.5-1 8.5 1 10l5 2z" stroke-linejoin="round"/>
  <path fill="#2e2e4e" stroke="#2e2e4e" stroke-width=".7" d="M1403 473l2-5 1-4c.5-2-1-6.5-3-9l-3-6 1-2 1-3 9 4 10 4-6-7-5-8h-4c-1.5-.5-2-2-1-3 1.5-1 4-2 5-2h30v-40l-24 3c-12 1-29-2-34-6-4.5-4-16-9.5-23-11s-19.5-5.5-25-8l-22-12c-5.5-3.5-16.5-10-22-13-5.5-3.5-22-10.5-33-14l-21-7h-3c-1 0-3.5.5-5 1-1.5 0-4 .5-5 1l-2 1v2c0 .5-1 2.5-2 4-.5 1.5-2 4-3 5s-4 2.5-6 3c-1.5.5-5 1-7 1h-5l-1 3v2l9 1c4.5 0 15.5-2 22-4 7-2 14.5-2 15 0l1 4 5 4 6 3h1l4 4c2.5 2 4.5 4.5 4 5l-1 1h-4l-1 1c-.5 0-2 1-3 2l-1 2 3 2c1.5.5 2.5 2.5 2 4l-1 2h-2l-6-2-5-2-3 1h-2l1 1h2l3 3c2 1 6.5 3.5 9 5l5 3 3 2 4 1 3 2c1.5.5 3.5 1.5 4 2 1 0 4 1 6 2 2.5 1 5 2.5 5 3l1 2c1 .5 3.5 2 5 3s4.5 2 6 2h5c1.5-.5 4-.5 5 0 1.5 0 3.5 1.5 4 3 1 1 3 2.5 4 3 1 0 3 .5 4 1l2 1 10 4 10 3-10-2-10-2h-3c-1 0-2 1-2 2l1 1v1c.5.5 2 2.5 3 4s2 4 2 5l1 1 6 1 6 1 7 1c4 .5 9 0 10-1l3-3v-11c.5-2.5 1.5-5.5 2-6l2-2-4-2c-1.5-1-3.5-3-4-4l-1-3 1-2 1-3c.5-.5 3.5-.5 6 0 3 .5 6 1.5 6 2 .5.5 1 1.5 1 2v1l2 4 3 4 2 1h3l-1-1c0-.5-.5-3-1-5v-4l-1-1c0-1-.5-4.5-1-7l-1-5v-1l-13 1-12 1 5-3c3-2 12.5.5 19 5l14 9 1 2c.5.5 1 1.5 1 2l1 1 2 5c1.5 2 3.5 7 4 10l1 5v3c0 1 .5 5 1 8l1 5 1 15 2 15-3-6-2-6-2 3-2 2 1 3c.5 1 2.5 4.5 4 7 2 2.5 4 5.5 4 6l1 1 2-4 2-4z" stroke-linejoin="round"/>
  <path fill="#0e1a4a" stroke="#0e1a4a" stroke-width=".7" d="M1345 478l3 1 1-2 1-2-2-1c-1-1-5-2-8-2l-6-1 5 4 6 3z" stroke-linejoin="round"/>
  <path fill="#2e2e4e" stroke="#2e2e4e" stroke-width=".7" d="M1200 476c-1.5-8-2-12-2-13s1.5-1.5 3-1c2 .5 4 2 4 3v10l3-14c1.5-7 3-21.5 3-29 .5-7.5-1-21.5-3-28l-4-14-1 11c0 5.5-2 18-4 25-1.5 7-4.5 20-6 26-1 5.5 0 14.5 2 18l5 6z" stroke-linejoin="round"/>
  <path fill="#16172a" stroke="#16172a" stroke-width=".7" d="M1200 476l5-1v-10c0-1-2-2.5-4-3-1.5-.5-3 0-3 1s.5 5 1 8l1 5zm198-5l-3-30v9l-1 1c-.5.5-1 3-1 5v3l2 6 3 6zm28-8l4-1h3l3-1-4-2c-1.5-1.5-.5-6 2-9l6-7v-11h-23l-2 2c-1 .5-2.5 1-3 1l-1 1-1 1 5 8 6 7-10-4-9-4v2l5 5 4 4 5 3c2.5 1 4 3.5 3 5l-1 2 4-1 4-1z" stroke-linejoin="round"/>
  <path fill="#262437" stroke="#262437" stroke-width=".7" d="M1436 461h4v-18l-6 7c-2.5 3-3.5 7.5-2 9l4 2z" stroke-linejoin="round"/>
  <path fill="#2e2e4e" stroke="#2e2e4e" stroke-width=".7" d="M1366 457c1.5 1 4 0 6-1l5-3c.5-.5.5-3.5 0-6-.5-3-1-6.5-1-7v-2l-3-4-3-5-1 5c0 2.5-.5 8.5-1 12 0 3.5-.5 8-1 9l-1 2z" stroke-linejoin="round"/>
  <path fill="#16172a" stroke="#16172a" stroke-width=".7" d="M911 452c5-6 6.5-8.5 6-9v-1l-3 5-3 5z" stroke-linejoin="round"/>
  <path fill="#50444f" stroke="#50444f" stroke-width=".7" d="M1205 452c3-8 1.5-10.5-1-10-2 .5-3 3.5-2 6l3 4z" stroke-linejoin="round"/>
  <path fill="#16172a" stroke="#16172a" stroke-width=".7" d="M886 450c4.5-7.5 6-10.5 6-11l1-1c0-.5.5-4 1-7l1-7-5 12-4 11v3zm472-4c0-5-1.5-6.5-3-6h-3l-4 1-3 1v1l6 1 6 1v1h1zm-321-1c-1.5-5-3-9.5-4-12l-1-5v8c.5 3.5 2 7.5 3 8l2 1z" stroke-linejoin="round"/>
  <path fill="#2e2e4e" stroke="#2e2e4e" stroke-width=".7" d="M1222 444h2v-4c.5-2 1-4.5 1-5 .5-1 1-4.5 1-7l1-5-2-1c-.5-1-2-5.5-3-9l-1-8v36l1 3z" stroke-linejoin="round"/>
  <path fill="#16172a" stroke="#16172a" stroke-width=".7" d="M1224 444c3-8 4-15 4-19l1-8-1 2c-.5 1-1 2.5-1 3v1l-1 5c0 2.5-.5 6-1 7 0 .5-.5 3-1 5v4z" stroke-linejoin="round"/>
  <path fill="#2e2e4e" stroke="#2e2e4e" stroke-width=".7" d="M1315 443c10.5-.5 15-1 16-1l2-1 6 1h6l3-1 4-1v-1h-3c-1.5-.5-5.5-1-8-1l-4-1h-4c-1.5 0-4.5.5-6 1h-15l-1 1h-1l1 1 1 1 1 1 2 1z" stroke-linejoin="round"/>
  <path fill="#16172a" stroke="#16172a" stroke-width=".7" d="M1179 440l3-3-2-1c-.5-.5-2.5-3.5-4-6l-2-6v2l2 6c1.5 3 3 6.5 3 7v1z" stroke-linejoin="round"/>
  <path fill="#2e2e4e" stroke="#2e2e4e" stroke-width=".7" d="M1260 440c.5-9 .5-15 0-18v-7h-1c-.5-.5-2-1-3-1-.5-.5-1.5 2.5-2 6v7l2 6c1 3 2.5 6.5 3 7h1z" stroke-linejoin="round"/>
  <path fill="#262437" stroke="#262437" stroke-width=".7" d="M1310 439l2-1h-1c-.5-.5-2.5-1-4-1-1.5-.5-3-2-3-3v-2l-5-7c-2.5-4-.5-8.5 4-9 5-1 10-1.5 10-1l1 1 1 2 2 2-1-1c0-1 1-2 2-2h3v-3l-2-1c-1-.5-3-1-4-1-1-.5-3-2-4-3-.5-1.5-2.5-3-4-3-1-.5-3.5-.5-5 0h-2l-1 4c0 1.5-2 5.5-4 8l-3 5 1 4c.5 1.5 1 3.5 1 4 .5.5 1 2.5 1 4v2l3 1c1.5 0 5 .5 7 1h5z" stroke-linejoin="round"/>
  <path fill="#16172a" stroke="#16172a" stroke-width=".7" d="M1312 438h15c1.5-.5 4.5-1 6-1h4-1c-.5-.5-3-1-5-1h-3l-4-2-3-2h1l1-1-1-1c0-1-1-3.5-2-5s-2.5-3.5-3-4v-1l-2-2-1-2-3 5c-1.5 2-2 6.5-1 9l3 4-5-1-4-1v2c0 1 1.5 2.5 3 3 1.5 0 3.5.5 4 1h1z" stroke-linejoin="round"/>
  <path fill="#2e2e4e" stroke="#2e2e4e" stroke-width=".7" d="M1295 437c0-3.5-.5-5.5-1-6 0-.5-.5-2.5-1-4l-1-4-1-1c0-.5-.5-2-1-3 0-1-1-4-2-6s-3-4.5-4-5c-.5-1-2.5-3.5-4-5-1-2-2-4.5-2-5v-1h-2c-.5 0-3.5-.5-6-1-2-.5-5-1-6-1l-2-2-1-2-1-1-1-1-3-1-3-2 3 5 3 5 3 6c1.5 2.5 3.5 7.5 4 10l1 4v3c.5 1 2 5.5 3 9 1 3 2.5 6 3 6h1v-6c.5-3.5.5-9.5 0-12l-1-6v-2c0-1 2-.5 4 1s4.5 4 5 5l1 2 1 5c.5 2 2.5 6.5 4 9l3 5 2 1 2 1z" stroke-linejoin="round"/>
  <path fill="#262437" stroke="#262437" stroke-width=".7" d="M1403 436l7 1 1-1 1-1c.5 0 2-.5 3-1l2-2h-7c-1 0-3.5 1-5 2l-2 2z" stroke-linejoin="round"/>
  <path fill="#2e2e4e" stroke="#2e2e4e" stroke-width=".7" d="M1313 434c-4-6.5-3.5-11-2-13l3-5-1-1c0-.5-5 0-10 1-4.5.5-6.5 5-4 9l5 7 4 1 5 1z" stroke-linejoin="round"/>
  <path fill="#0e1a4a" stroke="#0e1a4a" stroke-width=".7" d="M1091 431c-1-9-2-15-3-18l-1-6h-1c-.5 0-1 2.5-1 5v8c.5 1 1.5 3.5 2 5l2 3 1 2 1 1z" stroke-linejoin="round"/>
  <path fill="#16172a" stroke="#16172a" stroke-width=".7" d="M1095 430l2-13 1-6 2-6h-1c-.5 0-2 1-3 2s-2.5 2-3 2l-1-1v7l1 7 1 4 1 4zm-7-3l1 1-2-3c-.5-1.5-1.5-4-2-5v-8c0-2.5.5-5 1-5h1l-1-1v-1l-3 4c-1 1.5-1 6 0 9l4 8 1 1zm165-1l1 1v-7c.5-3.5 1.5-6.5 2-6 1 0 2.5.5 3 1h1l-2-3c-1-1.5-4-2.5-6-2-1.5 0-2.5 2.5-2 5 1 2.5 2 6.5 2 8l1 3zm-79-2l1-2v-4c0-2-.5-7-1-10l-1-7v-3l-1-2-1-2v20c0 4 .5 8.5 1 9l2 1z" stroke-linejoin="round"/>
  <path fill="#2e2e4e" stroke="#2e2e4e" stroke-width=".7" d="M1188 410c-3-9.5-4-15.5-4-18l1-5 1 2c1 1 3 5.5 4 9l2 6v-3l-1-6c0-3.5-1-9.5-2-12l-1-5-1-1c-.5-1-1.5-4.5-2-7v-6h-1l-3-3c-1-1-1.5-2.5-1-3l1-1-2 1c-.5 0-2.5 2.5-4 5l-3 4-2 5-2 5-8 2c-3.5 1-8.5 2.5-10 3h-3l-1 2c0 .5-1 2-2 3-.5.5-2.5 1.5-4 2l-2 1-1 2c-.5.5-1 1.5-1 2h1l-5 1c-2 .5-4 1.5-4 2l1 1 2 1 4-1 5-2 4-1c2-1 3.5.5 3 3l-1 4-1 2c-.5 1-.5 5.5 0 9l1 7v-3h1l2-1 2-3c1-1.5 2.5-3 3-3 .5-.5 2-1.5 3-2l3-2v-2c.5-1.5 1-5 1-7l1-4 2-2c1-1.5 3-1.5 4 0l3 3 1 2 1 2 1-7c1-4 1.5-9 1-10v-3l1-4 1-5 1 2 1 1v9c.5 4 .5 10 0 12l-1 3v4c.5 1.5 2.5 6.5 4 10l3 6 1-3 2-3z" stroke-linejoin="round"/>
  <path fill="#16172a" stroke="#16172a" stroke-width=".7" d="M1152 422l5-7h1c.5-.5 1-3 1-5l1-4-3 2c-1 .5-2.5 1.5-3 2-.5 0-2 1.5-3 3l-2 3 1 2c.5.5 1 2 1 3l1 1zm140 1c5-7.5 7-11.5 7-13l1-4h-3c-1.5 0-4.5-1-6-2s-4-2.5-5-3l-1-2h-1c-.5-.5-2-1-3-1-1-.5-2.5-1-3-1v1c0 .5 1 3 2 5 1.5 1.5 3.5 4 4 5 1 .5 3 3 4 5s2 5 2 6c.5 1 1 2.5 1 3l1 1zm63 0c5-4.5 7-6.5 7-7v-2l-2-1-1-2-2 2c-.5.5-1.5 3.5-2 6v4zm-14-2l-20-7v3l10 2 10 2z" stroke-linejoin="round"/>
  <path fill="#2e2e4e" stroke="#2e2e4e" stroke-width=".7" d="M1098 405h2l4-2 4-3 1-1c1-.5 4.5-.5 7 0l6 1-18-4-18-5v3l6 2c3 1 5.5 3.5 5 5l-1 3h-3c-1.5 0-2.5 1-2 2l1 2 1 1c.5 0 2-1 3-2l2-2z" stroke-linejoin="round"/>
  <path fill="#16172a" stroke="#16172a" stroke-width=".7" d="M1375 411v-11c.5-1.5 2.5-2 4-1l4 1-14-9c-6.5-4.5-16-7-19-5l-5 3 12-1 13-1 2 1c1 .5 2 2 2 3 .5.5.5 2 0 3-.5.5-1 2.5-1 4v7c.5 2 1 4.5 1 5l1 1zm-244-12l-3-2h-1c-.5-.5-.5-1 0-1l2-1 3-3c1-1 2.5-2 3-2h3l2-1c1.5-.5 3.5-1.5 4-2 1-1 2-2.5 2-3l1-2v-1h-1l-4 2c-1.5 1-5 2.5-7 3h-3l-2 2c-.5.5-1.5 1-2 1l-1 2c-.5 1-3.5 2-6 2l-5-1h-3c-1.5-.5-4-1-5-1h-2v-2c.5-1 2-2.5 3-3l2-2h-5c-2.5 0-5.5.5-6 1h-1v1c.5.5 0 1.5-1 2h-1l-5 1c-2.5 0-5.5.5-6 1v1l18 5 18 4 2 2 3 2 2-2 2-3z" stroke-linejoin="round"/>
  <path fill="#16172a" stroke="#16172a" stroke-width=".7" d="M1358 403l-1-7 4 3 4 3v-1c0-.5-.5-1.5-1-2 0-.5-3-1.5-6-2-2.5-.5-5.5-.5-6 0l-1 3-1 2 4 1h4z" stroke-linejoin="round"/>
  <path fill="#262437" stroke="#262437" stroke-width=".7" d="M1373 401c0-4.5.5-6.5 1-7 .5-1 .5-2.5 0-3 0-1-1-2.5-2-3l-2-1v1l1 5c.5 2.5 1 6 1 7l1 1zm-90-3l2 1c0-.5-2.5-2-5-3-2-1-5-2-6-2-.5-.5-2.5-1.5-4-2l-3-2v2l1 1-4-1-3-1 1 2 2 2c1 0 4 .5 6 1 2.5.5 5.5 1 6 1h2c.5 0 2 .5 3 1h2z" stroke-linejoin="round"/>
  <path fill="#50444f" stroke="#50444f" stroke-width=".7" d="M1440 392v-48l-18 2c-8.5 1-24 1.5-31 1s-19.5-2-25-3c-5-1-16.5-2-23-2-6 0-18.5-2-25-4-6.5-2.5-18.5-8-24-11-5.5-3.5-16.5-9-22-11-5-2.5-17-5-24-5-6.5 0-17-3.5-21-7-4-4-14-10.5-20-13-5.5-2.5-17.5-7-24-9-6-2-19.5-2.5-27-1-7 1-21 4-28 6-6.5 2-20.5 5.5-28 7-7 1.5-21 3.5-28 4-7 0-19.5 3.5-25 7-5.5 3-17.5 6.5-24 7-6 0-17.5 3-23 6-5 3-11 9-12 12-.5 3 4 5 9 4 5.5-1 15-1 19 0 4.5 1 13.5 3.5 18 5l10 3 2 1h3c1 0 4-1 6-2 2.5-1 5.5-2 6-2 1-.5 4.5-.5 7 0 3 .5 6 2 6 3l1 1 2 3 2 2 6-1c3.5-.5 12.5-1.5 18-2 6-.5 15-1.5 18-2 3.5-1 10.5-5 14-8 4-3 10-10.5 12-15 2.5-4.5 4.5-9.5 4-10-.5-1 5-3 11-4 6-1.5 15 .5 18 4s6.5 12.5 7 18c1 5.5-3 14-8 17-4.5 3-12.5 11-16 16-3 5-10.5 11.5-15 13-4 1.5-15 3.5-22 4h-27c-7-.5-20-3.5-26-6-6-3-18-6.5-24-7l-11-2h2c1 0 5 1 8 2 3.5 1 9 3.5 11 5l5 3 1 1c.5 0 2.5.5 4 1l4 1 2 2c1.5.5 5 2 7 3l5 2h16c.5-.5 3.5-1.5 6-2s5.5 0 6 1l1 2h2l3 1c1.5 0 5 .5 7 1h7c2-.5 5.5-2 7-3l4-2v-1l1-2h1c.5-.5 4.5-1.5 8-2 4-.5 9-1.5 10-2l2-2 2-2 2-3 3-4c1.5-2.5 3.5-5 4-5l2-1 4-2c2.5-1 5.5-2.5 6-3l3-3 3-2v-2l1-3 9-9c5-4.5 14.5-9 19-9h10l21 7c11 3.5 27.5 10.5 33 14 5.5 3 16.5 9.5 22 13l22 12c5.5 2.5 18 6.5 25 8s18.5 7 23 11c5 4 22 7 34 6l24-3z" stroke-linejoin="round"/>
  <path fill="#262437" stroke="#262437" stroke-width=".7" d="M1126 396l2 1c0-.5 2-1.5 4-2l5-1h-1c0-.5.5-1.5 1-2l1-2h-3c-.5 0-2 1-3 2l-3 3-2 1h-1z" stroke-linejoin="round"/>
  <path fill="#16172a" stroke="#16172a" stroke-width=".7" d="M947 396c8-3.5 12-6 13-7l3-3-3 1c-1.5 0-4 .5-5 1l-5 5-3 3z" stroke-linejoin="round"/>
  <path stroke="#000" stroke-width=".7" d="M1116 392c7.5 1 10.5 0 11-1l1-2c.5 0 1.5-.5 2-1l2-2h-4c-2-.5-5.5-1-7-1l-3-1h-7l-2 2c-1 .5-2.5 2-3 3v2h2c1 0 3.5.5 5 1h3z" stroke-linejoin="round"/>
  <path fill="#c78c4c" stroke="#c78c4c" stroke-width=".7" d="M365 344c6-19.5 16-26 24-26 8.5 0 24.5 1.5 32 3 7.5 1 21.5 2.5 28 3 6.5 0 15.5-6 18-12 3-6 6-20.5 6-29s1-24.5 2-32c1.5-7.5 11-15 19-15 8.5 0 25.5.5 34 1 8.5 0 24 .5 31 1 7.5.5 22 2 29 3 7.5.5 21.5-1 28-3 6.5-2.5 18-7.5 23-10 5-3 18-6.5 26-7 8-1 17.5.5 19 3 2 2.5-2.5 7-9 9s-19 6-25 8l-11 4 15 2c7.5.5 23.5 1 32 1 9 0 26-.5 34-1 8-1 24-2.5 32-3s24.5-1 33-1c8.5-.5 25-1.5 33-2 8.5-.5 24-.5 31 0 7.5.5 23.5 1.5 32 2 8.5 0 25 .5 33 1s24.5 1.5 33 2c8.5 0 25 1 33 2 8 .5 20.5 5.5 25 10 4.5 4 15.5 10.5 22 13 6.5 2 20 3.5 27 3 7.5-1 20.5-4.5 26-7 5.5-3 18-7.5 25-9 7-2 20.5-4.5 27-5 7-.5 22.5-1 31-1h34c8.5-.5 25-1.5 33-2 8-1 21.5-4 27-6 5.5-2.5 9-12 7-19-1.5-7-10.5-13.5-18-13-7 .5-21.5 2-29 3s-24 2-33 2c-8.5 0-18.5-4-20-8-1.5-4.5 3.5-11 10-13 6.5-2.5 20.5-6 28-7 7.5-1.5 23-3 31-3 8.5-.5 23.5-2 30-3 7-1 22-1.5 30-1 8 0 24-.5 32-1 8.5-.5 20.5 3 24 7 3.5 3.5 0 9-7 11-6.5 1.5-20.5 4.5-28 6-7.5 1-21 4.5-27 7-6 2-11.5 12-11 20 1 8 9 15.5 16 15 7-1 21.5-2.5 29-3 8-1 24-2.5 32-3 8-1 24-2.5 32-3 8-1 25.5-1.5 35-1h20V133h-2l-4-2c-.5-1-1.5-2-2-2 0-.5 1.5-2 3-3l4-2 1-1V84l-12 4c-5.5 1.5-14.5 7.5-18 12l-12 18c-3 4-14 9-22 10-7.5 1-23 1-31 0-7.5-1-22-.5-29 1s-27.5 2.5-41 2c-13-1-30.5-4-35-6-4-2-12.5-6.5-17-9-4-2.5-13-6.5-18-8-4.5-2-14.5-5-20-6-5-1.5-14.5-5-19-7l-18-8-18-8-18-8c-4.5-2-13-6.5-17-9s-12.5-5-17-5c-4 0-12.5-1-17-2-4.5-1.5-15-4-21-5-5.5-1-16-3.5-21-5l-20-6c-5-1.5-15.5-4-21-5-5-1.5-15.5-4-21-5s-16-3.5-21-5-16-3.5-22-4l-22-4c-5-1.5-16-3.5-22-4-6-1-18-1.5-24-1-5.5.5-18 1-25 1-6.5 0-19-.5-25-1s-18-3.5-24-6l-11-5h-33l14 5c7 2.5 20.5 7.5 27 10l26 8c7 2 21.5 5 29 6s23.5 2 32 2c9 0 25 1.5 32 3l30 6c7.5 1 23 3 31 4 8 .5 22.5 3 29 5l28 6c7.5 1.5 21.5 5 28 7l28 8c7 1.5 20 3.5 26 4 6.5.5 18 4.5 23 8s3.5 9.5-3 12c-6.5 2-20.5 4-28 4-7 0-22-.5-30-1-8-1-23.5-3-31-4-7.5-1.5-22.5-4-30-5s-23-1-31 0c-7.5 1-23.5 2-32 2-8.5-.5-25.5-.5-34 0-8 .5-24 2-32 3-8 .5-24 1-32 1-7.5-.5-22.5-2-30-3-7.5-1.5-23-4-31-5-7.5-1-23.5-2-32-2-8.5-.5-25.5-.5-34 0-8.5 0-25 1-33 2-7.5.5-22.5 2.5-30 4-7.5 1-22 3-29 4-7 .5-22 2-30 3-8 .5-24.5 1.5-33 2h-34c-8.5 0-23.5 2-30 4-6 2-15.5 9.5-19 15-3.5 5-5 15-3 20 2 4.5 5 16.5 6 24s8 16 14 17c6.5 1 21.5 2 30 2h70c8.5-.5 16.5 6 16 13 0 6.5-7.5 14-15 15-7.5.5-23.5 1.5-32 2-8 .5-24.5 1.5-33 2-8.5 0-29.5 1.5-42 3-12.5 1-33.5 1.5-42 1-8-.5-25-1-34-1-8.5 0-24.5-.5-32-1l-30-4c-7.5-1-22-4-29-6-6.5-2-20.5-3-28-2-7.5.5-21-1-27-3-5.5-2-16-8-21-12-4.5-4-16-9-23-10s-17 4-20 10c-3 5.5-11.5 14.5-17 18-5 3.5-18.5 7.5-27 8-8 .5-23.5 0-31-1-7.5-1.5-21.5-5-28-7-6-2.5-19.5-6-27-7-7-1-25-4.5-36-7l-22-6v135l14 5c7 2 22 4.5 30 5s23.5 0 31-1c7.5-1.5 23-3 31-3 8-.5 23 .5 30 2 7.5 1.5 21.5 2.5 28 2 7-.5 17-6 20-11 3.5-5.5 10.5-16 14-21 3.5-5.5 14-9.5 21-8 7.5 1.5 21.5 5.5 28 8 6.5 2 20.5 4.5 28 5 7.5 0 21-2.5 27-5s18.5-6.5 25-8c7-1.5 17 2.5 20 8 3.5 5.5 7.5 19 8 27 1 8 2.5 24 3 32l2 16 2-15 3-15z" stroke-linejoin="round"/>
  <path fill="#16172a" stroke="#16172a" stroke-width=".7" d="M980 386l3-2h-1c-.5-.5-1.5-2-2-3 0-1.5 1.5-3.5 3-4s5-1 7-1c2.5 0 6.5 1 8 2l3 1h1l2-1c1-.5 2.5-1 3-1l2-1-5-2c-2-1-7-3-10-4l-6-2 1 3c.5 1 0 2-1 2s-4.5 1-7 2-5.5 2.5-6 3c-.5 0-1.5.5-2 1v1l3 3 4 3z" stroke-linejoin="round"/>
  <path fill="#453738" stroke="#453738" stroke-width=".7" d="M1094 384l5 1h1c.5-.5 3.5-1 6-1h10l-1-2c-.5-1-3.5-1.5-6-1s-5.5 1.5-6 2h-16l2 1h5z" stroke-linejoin="round"/>
  <path fill="#262437" stroke="#262437" stroke-width=".7" d="M981 383l2 1h1c0-.5 2-1.5 4-2 2.5-1 6-1.5 7-1 1 0 3-.5 4-1l3-1h-1l-3-1c-1.5-1-5.5-2-8-2-2 0-5.5.5-7 1s-3 2.5-3 4l1 2z" stroke-linejoin="round"/>
  <path fill="#16172a" stroke="#16172a" stroke-width=".7" d="M984 383v1l7-1c3.5-.5 8-.5 9 0h5c2-.5 4-1.5 4-2l1-1h-6l-2-1-3 1c-1 .5-3 1-4 1-1-.5-4.5 0-7 1l-4 1z" stroke-linejoin="round"/>
  <path stroke="#000" stroke-width=".7" d="M1147 381v1h3c1.5-.5 6.5-2 10-3l8-2 2-5 2-5-2 3-2 2-2 2c-1 .5-6 1.5-10 2-3.5.5-7.5 1.5-8 2h-1l-1 2v1h1z" stroke-linejoin="round"/>
  <path fill="#2e2e4e" stroke="#2e2e4e" stroke-width=".7" d="M1202 378l2 1-3-5-2-5-4-1-3-2 1 2c.5 1 3 4 5 6l4 4z" stroke-linejoin="round"/>
  <path stroke="#000" stroke-width=".7" d="M1258 378c1.5-3.5.5-5.5-1-6l-3-2h-2l-2-1-2 1c-.5 0-1.5 1-2 2l-1 2 5 2 6 2h2z" stroke-linejoin="round"/>
  <path fill="#16172a" stroke="#16172a" stroke-width=".7" d="M1031 376l9-2h1c1-.5 3-1 4-1h2l-2-1-1-2-1-1c0-.5-.5-1-1-1h-3l-2-1-4 1-4 1c.5 0 1 .5 1 1v1l-1 2c0 1 .5 2.5 1 3h1z" stroke-linejoin="round"/>
  <path fill="#2e2e4e" stroke="#2e2e4e" stroke-width=".7" d="M1056 375l5 1-2-2-1-2-1-1c-.5-.5-2-1.5-3-2s-3.5-.5-5 0c-1 .5-3 1-4 1h-1l1 2 2 1 3 1c1.5 0 3.5.5 4 1h2z" stroke-linejoin="round"/>
  <path fill="#16172a" stroke="#16172a" stroke-width=".7" d="M1240 375l5-1 1-2c.5-1 1.5-2 2-2l2-1 2 1h2l1-2c1-1 2.5-2 3-2l1-1-4-3c-1.5-2-4-3-5-2l-2 1-1-1c-.5-.5-2-1.5-3-2l-2-2-3 2-2 1 4 1 5 1 1 3c.5 1-2.5 3-6 4l-7 1v-1l-1-1v-1l2-1 3-2-7-1c-3.5-1-7.5-2-8-2h-1 2l3-1-4-1c-1.5-.5-5.5-1-8-1-2-.5-5.5-.5-7 0h-3 5l4 3c2 1 5.5 3.5 7 5l4 2 1 1c1 0 5 2 8 4l6 3z" stroke-linejoin="round"/>
  <path fill="#9d734d" stroke="#9d734d" stroke-width=".7" d="M1123 371c-3-12.5-10.5-17-17-17-6 0-16-1.5-20-3l-7-3-2-2-2-3-11 7c-5.5 3.5-5.5 10 0 13 6 2.5 23.5 6 35 7l24 1z" stroke-linejoin="round"/>
  <path fill="#453738" stroke="#453738" stroke-width=".7" d="M1062 372l2 1-5-3c-2-1.5-7.5-4-11-5-3-1-7-2-8-2h-5l-3-1-1 1c-.5.5.5 1.5 2 2s3 1.5 3 2h1l2 1h3c.5 0 1 .5 1 1l1 1h1c1 0 3-.5 4-1 1.5-.5 4-.5 5 0s2.5 1.5 3 2l1 1h4z" stroke-linejoin="round"/>
  <path fill="#16172a" stroke="#16172a" stroke-width=".7" d="M1212 363l-3-2h-2c-1 0-2.5-1-3-2v-2l7-3c3.5-1.5 12.5-2 18-1l11 2-2-3-2-4h8l-1-4c-.5-2-8-2-15 0-6.5 2-17.5 4-22 4l-9-1-3 2-3 3c-.5.5-3.5 2-6 3l-4 2-1 1c-.5.5 0 2 1 3l3 3h1l2 1h4v1h1l3 2 4 1h4l5-1 2-2 2-3z" stroke-linejoin="round"/>
  <path stroke="#000" stroke-width=".7" d="M1234 368c0 1 3.5.5 7 0 3.5-1 6.5-3 6-4l-1-3-5-1-4-1h-10l-3 1h-2 1c.5 0 4.5 1 8 2l7 1-3 2-2 1v1l1 1zm29-3c1.5-1.5-.5-4-3-6l-4-4h-1l-6-3-5-4h-8l2 4 2 3 1 1h1l2 2c1 .5 2.5 1.5 3 2l1 1 2-1c1-1 3.5 0 5 2l4 3h4z" stroke-linejoin="round"/>
  <path fill="#9d734d" stroke="#9d734d" stroke-width=".7" d="M1166 341l11-12-12 1c-6 0-15.5 5.5-19 11l-6 11 13-5 13-6zm-122 1c-24-3-34 0-36 4-1.5 4 6.5 5 16 2l20-6z" stroke-linejoin="round"/>
  <path fill="#2e2e4e" stroke="#2e2e4e" stroke-width=".7" d="M1227 359h10l2-1 3-2h-1l-1-1-11-2c-5.5-1-14.5-.5-18 1l-7 3h4c1.5-.5 5-.5 7 0 2.5 0 6.5.5 8 1l4 1z" stroke-linejoin="round"/>
  <path fill="#453738" stroke="#453738" stroke-width=".7" d="M1198 342h2v-2c0-1 1-3 2-4 1.5-1.5 4-3.5 5-4l6-2c2-1 5-2 6-2l2-1 2-1c1-.5 3.5-1 5-1 1.5-.5 4-1 5-1h3-10c-4.5 0-14 4.5-19 9l-9 9z" stroke-linejoin="round"/>
  <path fill="#50444f" stroke="#50444f" stroke-width=".7" d="M1200 341v1h3c2 0 5.5-.5 7-1 2-.5 5-2 6-3s2.5-3.5 3-5c1-1.5 2-3.5 2-4v-2l-2 1c-1 0-4 1-6 2l-6 2c-1 .5-3.5 2.5-5 4-1 1-2 3-2 4v1z" stroke-linejoin="round"/>
  <path fill="#16172a" stroke="#16172a" stroke-width=".7" d="M1235 335l10-3h-7c-3.5-.5-6.5 0-6 1s1.5 2 2 2h1z" stroke-linejoin="round"/>
  <path fill="#262437" stroke="#262437" stroke-width=".7" d="M1088 328v-14c.5-1.5-2-4.5-5-6s-9-2-12-1l-6 1 4 2c2.5 1 6 2.5 7 3l3 1c.5 0 2 1.5 3 3s2.5 4 3 5l1 1 1 3 1 2z" stroke-linejoin="round"/>
  <path fill="#453738" stroke="#453738" stroke-width=".7" d="M1085 322l1 1-1-1c-.5-1-2-3.5-3-5s-2.5-3-3-3l-4 1-4 1 6 3c3.5 1 7 2.5 7 3h1z" stroke-linejoin="round"/>
  <path fill="#2e2e4e" stroke="#2e2e4e" stroke-width=".7" d="M1122 315c.5-4.5-1.5-5.5-4-5l-4 1 4 2 4 2z" stroke-linejoin="round"/>
  <path fill="#453738" stroke="#453738" stroke-width=".7" d="M1128 302c12 1 18.5 0 21-1l5-2v-1h-1c-.5 0-2-1-3-2l-1-2-4 2c-1.5 1-6 3-9 4-3 .5-6.5 1.5-7 2h-1z" stroke-linejoin="round"/>
  <path stroke="#000" stroke-width=".7" d="M1154 298v1h26l-2-3-2-4-13 1h-13l-1 1 1 2c1 1 2.5 2 3 2h1z" stroke-linejoin="round"/>
  <path fill="#453738" stroke="#453738" stroke-width=".7" d="M1149 289c10.5-.5 17.5-1.5 21-2l8-1h-8c-4 0-12 .5-16 1-3.5.5-6.5 1.5-6 2h1z" stroke-linejoin="round"/>
  <path fill="#c78c4c" stroke="#c78c4c" stroke-width=".7" d="M655 285c25.5-.5 41-1.5 48-2l14-2-11-3c-5.5-2-19-3.5-27-3s-24.5 1.5-33 2h-17l13 4 13 4z" stroke-linejoin="round"/>
  <path fill="#9d734d" stroke="#9d734d" stroke-width=".7" d="M750 224c9.5-1.5 14.5-4 16-6 2-2 1-4.5-2-5s-9.5 0-13 1c-3.5.5-5.5 3.5-4 6l3 4z" stroke-linejoin="round"/>
  <path fill="#f0a54c" stroke="#f0a54c" stroke-width=".7" d="M499 213c25.5-.5 42-1.5 50-2 8.5-.5 24.5-1.5 32-2 7.5-1 15-8.5 15-15 .5-7-7.5-13.5-16-13h-70c-8.5 0-23.5-1-30-2-6-1-13-9.5-14-17s-4-19.5-6-24c-2-5-.5-15 3-20 3.5-5.5 13-13 19-15 6.5-2 21.5-4 30-4h34c8.5-.5 25-1.5 33-2 8-1 23-2.5 30-3 7-1 21.5-3 29-4 7.5-1.5 22.5-3.5 30-4 8-1 24.5-2 33-2 8.5-.5 25.5-.5 34 0 8.5 0 24.5 1 32 2 8 1 23.5 3.5 31 5 7.5 1 22.5 2.5 30 3 8 0 24-.5 32-1 8-1 24-2.5 32-3 8.5-.5 25.5-.5 34 0 8.5 0 24.5-1 32-2 8-1 23.5-1 31 0s22.5 3.5 30 5c7.5 1 23 3 31 4 8 .5 23 1 30 1 7.5 0 21.5-2 28-4 6.5-2.5 8-8.5 3-12s-16.5-7.5-23-8c-6-.5-19-2.5-26-4l-28-8c-6.5-2-20.5-5.5-28-7l-28-6c-6.5-2-21-4.5-29-5-8-1-23.5-3-31-4l-30-6c-7-1.5-23-3-32-3-8.5 0-24.5-1-32-2s-22-4-29-6l-26-8c-6.5-2.5-20-7.5-27-10l-14-5H0v14h65c7 0 20 .5 26 1 6 0 18 1 24 2 6 .5 17.5 1 23 1 6 0 18 1 24 2 6 .5 16.5-.5 21-2 5-1.5 16-3.5 22-4 6-1 18-1.5 24-1 6 0 17.5 1.5 23 3 6 1 16.5 3.5 21 5 5 1.5 14 5.5 18 8 4.5 2.5 10 9.5 11 14 1 4-1 12-4 16-3 3.5-10.5 9-15 11-4.5 1.5-14.5 4.5-20 6-5 1.5-15.5 4-21 5-5.5.5-16.5 2.5-22 4l-20 6c-5 1-18.5 4-27 6-8.5 1.5-25 2.5-33 2s-24-.5-32 0c-7.5.5-23.5 1.5-32 2-8 .5-24 .5-32 0-8-1-23-2.5-30-3L0 97v89l22 6c11 2.5 29 6 36 7 7.5 1 21 4.5 27 7 6.5 2 20.5 5.5 28 7 7.5 1 23 1.5 31 1 8.5-.5 22-4.5 27-8 5.5-3.5 14-12.5 17-18 3-6 13-11 20-10s18.5 6 23 10c5 4 15.5 10 21 12 6 2 19.5 3.5 27 3 7.5-1 21.5 0 28 2 7 2 21.5 5 29 6l30 4c7.5.5 23.5 1 32 1 9 0 26 .5 34 1 8.5.5 29.5 0 42-1l25-3z" stroke-linejoin="round"/>
  <path fill="#f0a54c" stroke="#f0a54c" stroke-width=".7" d="M642 206c24-2 40-3.5 48-4 8.5-.5 25-1.5 33-2 8-1 24-2 32-2 8.5-.5 25-1.5 33-2 8.5-.5 25.5-1 34-1 9 0 26 .5 34 1l34 2c8.5 0 25 .5 33 1l16 1-5-5c-2-2.5-12-6-20-7-7.5-1-23.5-2.5-32-3l-32-2c-8-1-24.5-2-33-2l-32-2c-8-1-24.5-2.5-33-3-8-.5-25-1-34-1h-34c-8.5-.5-25-1.5-33-2s-22.5 0-29 1c-6 1-4 9.5 4 17l16 15zm435-32c18-.5 32.5-.5 41 0h34c8.5-.5 24-2 31-3 7.5-1.5 23-3.5 31-4 8-1 23.5-2.5 31-3 7.5-1 15.5-7 16-12 1-5-6.5-10-15-10-8.5-.5-25.5-1-34-1s-25.5.5-34 1c-8.5 0-25.5.5-34 1-8 .5-24 2-32 3-8 .5-22.5 1.5-29 2-6.5 0-21 1-29 2-7.5.5-23 2-31 3-8 .5-22 3-28 5l-11 4 14 3 30 6c7.5 1 23.5 2.5 32 3h17z" stroke-linejoin="round"/>
  <path fill="#9d734d" stroke="#9d734d" stroke-width=".7" d="M680 162h48c9 0 24.5-2 31-4 7-2 11-8.5 8-13s-12.5-10.5-19-12c-6.5-2-20.5-5.5-28-7-7-1.5-21.5-3.5-29-4-7.5-1-22.5-2-30-2-7 0-21.5.5-29 1s-16 8-17 15c-.5 7 4.5 17 10 20 6 3 22.5 6 33 6h22zm157-5c8-7.5 5-13-1-16-5.5-3-17-3.5-23-1l-12 4 18 7 18 6zm64-1c24.5-1.5 41-2.5 49-3 8-1 22-4.5 28-7 6.5-2.5 10.5-9.5 8-14-2-5-11.5-11-19-12-7.5-1.5-21.5-1.5-28 0-6.5 1-20.5 3.5-28 5-7.5 1-20.5 5.5-26 9-5 3.5-3.5 11 3 15l13 7z" stroke-linejoin="round"/>
  <path fill="#f0a54c" stroke="#f0a54c" stroke-width=".7" d="M1280 155c9-2 12-5.5 12-8 .5-2.5-3.5-4.5-8-4-4 0-7 3-6 6l2 6z" stroke-linejoin="round"/>
  <path fill="#9d734d" stroke="#9d734d" stroke-width=".7" d="M590 150c-4.5-18.5-13-27-20-29-6.5-2-21-3.5-29-3-7.5.5-21.5 3.5-28 6-6 2-10.5 8.5-9 13 1.5 4 10 9.5 17 11 7.5 1.5 28.5 3 42 3l27-1z" stroke-linejoin="round"/>
  <path fill="#c78c4c" stroke="#c78c4c" stroke-width=".7" d="M340 150c3.5-21 0-31.5-5-35-5-4-17.5-7.5-25-7-7.5 0-23 1-31 2-7.5.5-23 2-31 3-8 .5-22 4-28 7-6 2.5-8 9-4 13 4.5 4 17 9 25 10 8 .5 23.5 2 31 3 8 .5 29 2 42 3l26 1zm109-9l-2-9 1 5 1 4z" stroke-linejoin="round"/>
  <path fill="#9d734d" stroke="#9d734d" stroke-width=".7" d="M1302 132c21-4.5 35.5-5 43-4 8 1 23.5 1 31 0 8-1 19-6 22-10l12-18c3.5-4.5 12.5-10.5 18-12l12-4v-6l-10 4c-5 1.5-16 5.5-22 8s-18.5 7.5-25 10c-6 2.5-18.5 7.5-25 10-6.5 2-20.5 5.5-28 7-7 1.5-28 1.5-42 0-13.5-2-25.5-10-24-16 1.5-6.5 7-17.5 11-22 4.5-4.5 13.5-13 18-17 5-4 15-11.5 20-15 5-4 15-11.5 20-15s15.5-10 21-13c5.5-3.5 14.5-10 18-13l7-6h-74l-7 10c-3.5 5-10 13.5-13 17l-13 13-14 12c-3 3-10 9-14 12-4 2.5-11.5 8-15 11-3.5 2.5-16.5 7.5-26 10-9.5 2-25.5 2-32 0s-19-7-25-10c-5.5-3-17-8.5-23-11-6-3-17.5-9-23-12-5.5-3.5-15-8-19-9-3.5-1-13-3.5-19-5-5.5-2-17.5-5.5-24-7-6.5-2-19-7-25-10-5.5-3-21.5-9.5-32-13l-21-8H761l11 5c6 2.5 18 5.5 24 6s18.5 1 25 1c7 0 19.5-.5 25-1 6-.5 18 0 24 1 6 .5 17 2.5 22 4l22 4c6 .5 17 2.5 22 4s15.5 4 21 5 16 3.5 21 5c5.5 1 16 3.5 21 5l20 6c5 1.5 15.5 4 21 5 6 1 16.5 3.5 21 5 4.5 1 13 2 17 2 4.5 0 13 2.5 17 5s12.5 7 17 9l18 8 18 8 18 8c4.5 2 14 5.5 19 7 5.5 1 15.5 4 20 6 5 1.5 14 5.5 18 8 4.5 2.5 13 7 17 9 4.5 2 22 5 35 6l27 1zm134 0l4 1v-10l-1 1-4 2c-1.5 1-3 2.5-3 3 .5 0 1.5 1 2 2l2 1z" stroke-linejoin="round"/>
  <path fill="#c78c4c" stroke="#c78c4c" stroke-width=".7" d="M372 131l6-3-3 2-3 1z" stroke-linejoin="round"/>
  <path fill="#745a4e" stroke="#745a4e" stroke-width=".7" d="M1316 120c21.5-4.5 35.5-8 42-10 6.5-2.5 19-7.5 25-10 6.5-2.5 19-7.5 25-10s17-6.5 22-8l10-4V21l-13-6c-6.5-3-15-8-17-10l-3-5h-28l-7 6c-3.5 3-12.5 9.5-18 13-5.5 3-16 9.5-21 13s-15 11-20 15c-5 3.5-15 11-20 15-4.5 4-13.5 12.5-18 17-4 4.5-9.5 15.5-11 22-1.5 6 10.5 14 24 16l28 3z" stroke-linejoin="round"/>
  <path fill="#c78c4c" stroke="#c78c4c" stroke-width=".7" d="M190 93c15-3.5 25-6.5 30-8 5.5-1.5 16.5-3.5 22-4 5.5-1 16-3.5 21-5 5.5-1.5 15.5-4.5 20-6 4.5-2 12-7.5 15-11 3-4 5-12 4-16-1-4.5-6.5-11.5-11-14-4-2.5-13-6.5-18-8-4.5-1.5-15-4-21-5-5.5-1.5-17-3-23-3-6-.5-18 0-24 1-6 .5-17 2.5-22 4-4.5 1.5-15 2.5-21 2-6-1-18-2-24-2-5.5 0-17-.5-23-1-6-1-18-2-24-2-6-.5-19-1-26-1H0v83l14 1c7 .5 22 2 30 3 8 .5 24 .5 32 0 8.5-.5 24.5-1.5 32-2 8-.5 24-.5 32 0s24.5-.5 33-2l17-4z" stroke-linejoin="round"/>
  <path fill="#50444f" stroke="#50444f" stroke-width=".7" d="M1335 103c21.5-4.5 34.5-9 40-12 6-3 10.5-12.5 9-19-1-6.5-8-15.5-14-18-5.5-3-18-4-25-2-6.5 2-18.5 7.5-24 11-5.5 3-15.5 10.5-20 15-4 4.5-5.5 13.5-3 18 2.5 4 13 8 21 8l16-1z" stroke-linejoin="round"/>
  <path fill="#745a4e" stroke="#745a4e" stroke-width=".7" d="M1222 80c10.5-8 18-13.5 22-16 4-3 11-9 14-12l14-12 13-13c3-3.5 9.5-12 13-17l7-10h-14l-8 10c-4 4.5-12.5 13.5-17 18-4 4.5-13 13-18 17-4.5 4-14 12-19 16-5 3.5-21.5 7.5-33 8s-29-.5-35-2c-6-2-17.5-7-23-10-5.5-3.5-17-9.5-23-12s-16.5-9-21-13c-4-4-14.5-10-21-12-6-2-16.5-8-21-12l-9-8h-83l21 8c10.5 3.5 26.5 10 32 13 6 3 18.5 8 25 10 6.5 1.5 18.5 5 24 7 6 1.5 15.5 4 19 5 4 1 13.5 5.5 19 9 5.5 3 17 9 23 12 6 2.5 17.5 8 23 11 6 3 18.5 8 25 10s22.5 2 32 0l19-5z" stroke-linejoin="round"/>
  <path fill="#c78c4c" stroke="#c78c4c" stroke-width=".7" d="M502 77c23-3 39-4.5 47-5 8.5-.5 24-2.5 31-4 7.5-1.5 20.5-2.5 26-2s18.5 0 26-1c8-1 23.5-3 31-4 7.5-1.5 22-4.5 29-6 7.5-1.5 22.5-4 30-5 8-1 22-4 28-6 6.5-2.5 8-8.5 3-12-5-4-18-9-26-10l-30-4c-7.5-1.5-23-3.5-31-4-8-1-24-2-32-2s-20.5 1.5-25 3c-4.5 1-16.5 1.5-24 1-7-.5-22-1.5-30-2-8-1-24-2.5-32-3-8-1-24-1.5-32-1-7.5 0-18 6-21 12-2.5 6-4.5 20.5-4 29 .5 8 9.5 18.5 18 21l18 5z" stroke-linejoin="round"/>
  <path fill="#50444f" stroke="#50444f" stroke-width=".7" d="M1219 68c15-11 24.5-19 29-23 5-4 14-12.5 18-17 4.5-4.5 13-13.5 17-18l8-10h-248l9 8c4.5 4 15 10 21 12 6.5 2 17 8 21 12 4.5 4 15 10.5 21 13s17.5 8.5 23 12c5.5 3 17 8 23 10 6 1.5 23.5 2.5 35 2l23-1z" stroke-linejoin="round"/>
  <path fill="#9d734d" stroke="#9d734d" stroke-width=".7" d="M1440 21V0h-33l3 5c2 2 10.5 7 17 10l13 6z" stroke-linejoin="round"/>
</svg>
