<svg xmlns="http://www.w3.org/2000/svg" viewBox="0 0 1440 1440" version="1">
  <path d="M0 0h1440v1440H0z"/>
  <path stroke="#000" stroke-width=".7" d="M0 1439v1h210l1-2 1-3 5-4c2.5-2 6.5-4.5 8-5l3-2 3-1c1.5-1 6-3.5 9-5l7-3 6-2c3-1 8-2.5 10-3l4-2h2c1.5-.5 3.5-1 4-1l2-1 2-1c1.5-.5 5-1.5 7-2l4-1h1l2-1 7-2c4-1.5 8.5-3 9-3l1-1 5-1c3-1 8.5-2.5 11-3l6-2h1c1 0 5.5-1 9-2s8-2.5 9-3l2-1 4-1c2-1 7-3 10-4l6-2 8-1c4-1 9.5-1.5 11-1l4 1h3c2-.5 6.5-2.5 9-4l5-3h1l1-1 3-2 3-3 4-3 5-4 5-3c2.5-1.5 7-3.5 9-4l5-1 2 1h29c3.5 0 8 .5 9 1l2 1 3 1h4l1 1 5 5 4 4 1 2 2 2 1 1c.5.5 1.5 5 2 9 1 3.5 2 8 2 9v4l-2 4c-1 1.5-5 3.5-8 4l-5 1-1 1h-1l-1 1c-.5 0-4.5 1-8 2l-9 3h-3l-4 1h-3l4-1c2-1 5.5-2 7-2l3-1 2-1 2-2-4-1-6-2-2-1-3 1c-1.5.5-7 1.5-11 2h-8v-2l-2-1c-1-.5-4 .5-6 2l-3 3-1 5c-.5 2-3.5 6-6 8l-4 4-5 1-4 1-1-1c-.5-.5-3-1.5-5-2-2-1-5-1.5-6-1l-2 1-4 2-3 1-2 2-4 4-2 2-3 1h-3l-2 4-4 6-2 2v1h284l-2-2c-.5-1.5-.5-4 0-5l1-3 4-1c2-.5 7-2 10-3l6-3h1l4-4c2-2.5 5-3.5 6-2l2 3 1 2c1 1 0 4.5-2 7s-4.5 5.5-5 6l-1 3-1 2h753V459l-2 1-2 1-3 1c-1.5 0-5.5 1-8 2l-5 1-2 2-1 1h-2c-.5-.5-2.5-1.5-4-2l-2-1-2 1c-.5 0-2.5 2-4 4l-2 3-1 2c0 1-1 4.5-2 7-1 2-2 5.5-2 7v2l2 3c1 1 2.5 5 3 8l2 6v4l1 3-3 4c-1 2-2.5 4-3 4v-1l-6-4c-3-2-7-5-8-6l-1-2-2-3c-1-1.5-.5-3.5 1-4l4-2h-1v-1l-2-3c-1-2-3-7-4-10l-1-7v-1l-1-2c-.5-1-3-3-5-4l-4-2-4 1h-3l-5-2c-2.5-1.5-6.5-4-8-5l-3-2h3c1.5 0 4-1 5-2 1.5-1 3-2.5 3-3v-2l1-6c1-3 3.5-5 5-4l3 2v1l1 1 2-1 2-2-1-2v-18l4 5c2 2.5 4 5.5 4 6h1l2 3 2 3 2 5c1.5 2.5 3 5.5 3 6v2h1l1-4c.5-2 2-5.5 3-7l2-4v-3l-1-4c0-2-.5-7.5-1-11l-1-7-2-6c-1-3.5-3-7.5-4-8l-1-2h-1v-1l-3-2c-1.5-1.5-4 0-5 3l-2 5v1l-2 1c-.5 0-2-1.5-3-3l-2-4-2 1h-1l-3 1c-1 0-2 1.5-2 3v4l2 2 2 1 1 3c1 1 1.5 2.5 1 3h-2v-1l-3 3-3 3-1 3c0 1-1 3.5-2 5l-1 3h-4c-2-.5-7 .5-10 2l-5 3-6 1c-2.5.5-7 0-9-1l-4-2-1-2c-.5-1-4-3-7-4-3-1.5-6.5-3.5-7-4l-1-1h-2c-.5-.5-1.5-2-2-3v-3h-2v5c.5 2 1 5 1 6v2l-3-3c-1.5-1.5-4-5.5-5-8l-2-6-3-5-3-6-2 2-2 1v3l1 9c.5 4.5.5 10.5 0 12l-1 2-2-3c-.5-2-2-7.5-3-11l-1-8-2-6c-1-3.5-3.5-8-5-9l-2-3-2-2c-.5-1-2-4.5-3-7l-2-5-1 1-1 1-6-3-9-6-2-2 1-2c.5-1 4-3 7-4l7-2 1-3c.5-1.5 1-4.5 1-6v-6l-3-1-3-2-2 3c-.5 1.5-1 3.5-1 4h1v3l-5 1c-2.5.5-7.5 1-10 1l-4-1h-1l-2 2c-.5 1-2.5 2.5-4 3l-3 1 1 2 1 1 1 1h2l-4 3c-1.5 1-4.5 1.5-6 1-1-1-3-1.5-4-1l-1 1-3-2-2-2-4-1c-1.5-.5-4.5-1-6-1l-2-1v4c.5 2 2 7.5 3 11l3 6-4 5c-1.5 2.5-2.5 7-2 9l1 4 1 3c.5 1 .5 4.5 0 7l-1 4-2-3c-.5-1.5-2.5-6-4-9l-2-7 1-6c.5-3.5.5-9 0-11v-8l1-3-2 6c-1 3-2 7-2 8v1l-2 5c-.5 2-2.5 3-4 2l-3-3h-3c-1 0-2.5 4-3 8-.5 3.5-1.5 8-2 9l-1 1-4 3c-1.5 1-5 2.5-7 3l-3 1-1-1v-4l1-4-2-2c-1-1.5-2.5-2.5-3-2l-3 4c-1.5 1.5-3.5 2.5-4 2l-3-3-1-3 2-2c1.5-1.5 5.5-4 8-5l6-2v-1l-2-3-1-3-5 1h-5l-3 1-2 1-3 2c-1 1-5.5 2-9 2h-25l-1-1h-2c-.5-.5-1.5-1-2-1l-1-1v-7h1l-5-2-4-3-6-2-5-2-4 1-4 1-8-1c-4-1-9.5-2.5-11-3l-2-2h-9l-3 2c-1 1-4 2.5-6 3l-3 1h-5l-4-1 1 3c.5 1 .5 2.5 0 3h-1l-6 1-12 2-5 1-2 2c-.5.5-4.5 1.5-8 2-3 .5-6.5 1.5-7 2l-1 1-5 2-4 1-4 1-4 1-2 2-1 1-4 5c-1.5 2.5-4 6.5-5 8l-2 3-2 2c-1 1-4 3.5-6 5l-4 2-3 5c-1.5 2.5-4 7-5 9l-2 3-1 2c-.5 1-3 4.5-5 7-1.5 2.5-3.5 6-4 7l-1 1-3 4c-1 2-3.5 6-5 8l-3 4-1 1c0 .5-1 4.5-2 8s-2.5 8.5-3 10v2l-1 5c0 2.5-1 8.5-2 12l-1 7-1 4-1 3-1 1v1l-1 2c-.5.5-3 2-5 3l-3 1h-4c-1.5 0-5.5 1.5-8 3-2.5 1-5.5 2-6 2l-1-1h-4l-3-1-4 1-3 1-1 4v6c.5 1 .5 4 0 6l-1 3v1c.5.5 1 1.5 1 2h1l2 5c1.5 2.5 3 5.5 3 6l1 1 2 2 3 2 2 2 3 2h1c.5-.5-.5-2-2-3l-2-2v-1c0-.5-1-2-2-3l-1-3v-2c.5-1 2.5-.5 4 1l3 3h2c1-.5 3.5-1.5 5-2l4-2v-2c.5-1 .5-2.5 0-3v-1h-2c-.5-.5-2.5-3-4-5-1.5-2.5-2.5-6.5-2-8l1-4 1-2 2-3-1 5c-.5 2.5-1 5.5-1 6l3 4c2 1.5 5 3.5 6 4l2 1 1 1 2 1v2c0 .5.5 4 1 7l2 6 2 2 3 1-1-3c0-1.5-.5-7.5-1-12l-1-9 1-2 1-3 1 5 1 5 1 2c.5 1 2 5.5 3 9 1 3 2 7 2 8l1 1 1 5c1 2.5 3.5 7.5 5 10l3 4v1c.5.5 3 3.5 5 6 2 2 4.5 5 5 6l2 2 2 3c1.5 1.5 3.5 5.5 4 8l2 4-7-1c-3-1-7.5-1.5-9-1h-2l-1-3-1-3-4 2c-1.5.5-5 1.5-7 2h-11l-3-1c-1.5-.5-4-.5-5 0l-2 1 1 2 2 1 2 3c1.5 1 1.5 4 0 6l-2 3 8 1c4.5.5 8.5 1.5 8 2h-4c-1.5 0-6 .5-9 1-2.5.5-5.5 1-6 1l-2-4c-1-2.5-1.5-6.5-1-8l2-4h-4l-1 1c0 .5-2 0-4-1l-4-2h-7l-1 1h-1v1c.5.5 1 4 1 7s-.5 6.5-1 7h-1l-4 4c-1.5 1.5-5 4.5-7 6l-4 2v-1c.5-1 2-4.5 3-7l2-5-5 4c-2 2-5 4-6 4h-2l-1-2c-.5-1.5-.5-6 0-9l1-6h-1v-1l-2-2-2-3-3 2c-1 1-3.5 2.5-5 3h-7l-2 2c-.5.5-3 2.5-5 4l-3 2h-2c-.5 0-1-1.5-1-3 .5-1.5-1-2.5-3-2l-3 1h-13l-5-1-4-2-1-1c-.5-.5-4.5-1.5-8-2-3-.5-7.5-1-9-1l-3-1h-6c-2.5 0-8-1-11-2l-6-2-2-6-2-7-3-1-2-2v2c0 1-2.5 3-5 4l-5 2-1-1c0-.5-1.5-3.5-3-6s-2-5-1-5l2-1v-1l1-1c.5-1 3-4 5-6s4.5-4 5-4l2-1h3c2 0 5-2.5 6-5l3-5v-1c0-1 2.5-1.5 5-1h20c3.5-.5 9-.5 11 0l4 1v-2c.5-.5.5-3.5 0-6-.5-3-2-7-3-8l-1-2-4-1c-1.5-.5-3-2.5-3-4v-3l-1-2-1-3 2-2c1-1.5 4.5-4 7-5l5-3-1-1v-3l-4-3c-2-1.5-5.5-4-7-5l-3-3-2-1c-1-1-5.5-2-9-2h-6l-3 1h-5c-1 0-2.5-1-3-2 0-1.5 1-4.5 2-6l2-3h-1v-1h-2c-1-.5-4.5-2.5-7-4l-4-3-3 1-2 1 1 6c.5 2.5 1.5 7 2 9l1 3-2 2c-.5.5-3-1-5-3-1.5-2.5-3.5-5-4-5l-1-1-3-5c-1-2.5-2.5-5.5-3-6v-1h-1c-.5-.5-2-.5-3 0l-2 1-5 1c-2 .5-7 0-10-1l-6-2-4-4c-2-2.5-4-5.5-4-6l1-1-2 1-2 1h-1c-.5-.5-2.5-2-4-3l-2-2h-4l-4-1v3l-4-5c-1.5-3-3-7.5-3-9v-3h-1l-1 1v1l-1 9c0 4-.5 9.5-1 11v2l-1 5c0 2.5-.5 9-1 13v14l1 7v12l-1 2c0 1-.5 5.5-1 9 0 3.5-.5 6.5-1 6v-4l-1-4v-5l-1-3c-.5-1.5-1.5-5-2-7v-4l-1-3c0-2-.5-8-1-12l-1-9-1-7c0-4-.5-10.5-1-13v-5l-1-3c0-1.5-1.5-4-3-5-1-1-2-1-2 0v2l-3 1h-3l-2 4-1 3 1 1 1 1-2 3c-1 1-5 2.5-8 3l-6 1-8 1c-3.5 0-9-.5-11-1l-3-1h-1l-4 1c-2 .5-4.5 1-5 1 0-.5-1-3.5-2-6l-1-5v-2c0-1 .5-2 1-2h1l-1-3v-8l1-4h-2l-2 5c-.5 2.5-2.5 7-4 9l-2 4-1 1c-.5.5-5 1-9 1-3.5 0-7.5-.5-8-1v-2l-2-1c-.5-1-2.5-2.5-4-3l-2-1-1 1h-1l-2 1-1 1-5 5c-2 2-5 3-6 2l-1-2v-2h-1c-.5-.5-1.5-2-2-3 0-1.5-.5-5-1-7l-1-5-1-2v-16c.5-4 1-9 1-10v-3l-1-6c0-3-1-8-2-10l-2-5v1l-1 5v13l1 8-1 9v13l1 3v47l1 7v2l1 1v1c.5.5 1 5.5 1 10v51c.5 4 1 9.5 1 11v19l1 3v3l1 3v27l-1 5v4l1 7 1 6-1 9c0 4-.5 10-1 12l-1 4v3c.5 1.5 1 4.5 1 6v3l1 5 1 5-2 7-1 6-1-2c0-1-.5-2.5-1-3l-1-1-2-4c-.5-2-.5-5 0-6l2-2-1-3-1-3-2-7c-1-4-1.5-9.5-1-11l1-3-1-4c0-2-.5-4-1-4l-1-1v3l-1 4c-.5 1.5-3 5.5-5 8l-3 4-4 5c-1.5 2-3.5 3-4 2v-3l-1-1-1-1v-2c0-1-1.5-4.5-3-7-1-3-3-6-4-6l-2-1-2-2-1-3-1-3c0-1.5-.5-3.5-1-4l-1-1-2 4c-.5 2-3 2-5 0l-3-4-1 1c0 .5-.5 1.5-1 2v1l2 7c1.5 3 2.5 6.5 2 7h-1l-3 4c-1.5 2-4 4-5 4h-1l-1-2c0-1-1-1.5-2-1-1 0-2.5 1-3 2l-1 2h-4c-2-.5-4.5-2.5-5-4l-1-3v-2c.5-1-2-1-5 0l-5 1-2-2c-1-1.5-.5-4 1-5l3-2v-4l-5 1c-2 .5-5 0-6-1l-2-3-1-3c-.5-2-.5-8 0-12l1-8-1-7c-.5-4-1.5-10-2-12v-5l-1-3c0-1.5-.5-7-1-11v-18c.5-3.5 1-7.5 1-8v-2l-1-4v-5l-1-4-1-5-1-7v-20c0-4.5-.5-10.5-1-12v-3 97c.5 4 1 9 1 10v3c.5.5 1 5 1 9 .5 4 1 9.5 1 11v9c.5 2.5 1 9 1 13v17c.5 4.5 1 11 1 13l1 3v49l1 4v35c0 3.5-.5 10-1 13v6l-1-4-2-10-1-5v-3c0-1.5-.5-7-1-11v-19c0-3.5-.5-10-1-13v-8c0-1-.5-6-1-10v-20c0-3-.5-9.5-1-13v-8l-1-8c-.5-4.5-1-11-1-13v-5l-1-3v-23l-1-7v-15l-1-1v-2l-1-9v-13l1-4-1-4c0-2-.5-8-1-12v-36l-1-5c-.5-3-1-9.5-1-13v-9c0-1-.5-5.5-1-9-.5-4-1-9.5-1-11v-4l-1-5c0-2.5-.5-8.5-1-12v-8l-2-1-1-2v27c.5 3.5 1 10 1 13v8c.5 1 1 6.5 1 11l1 9v2h1v60c0 2-1 4.5-2 5l-2 1-2 1c-.5.5-1 2-1 3l1 2v7c0 3-1 8-2 10l-1 3-1 2c-.5.5-1 2.5-1 4v3l-6-1c-2.5-.5-4.5-2-4-3l1-3v-6l-3-1c-1-.5-2.5-1-3-1l-5 1h-5l-1 1h-1l-1 3c0 1.5 1.5 4 3 5l3 1h-3c-1.5 0-6-1-9-2l-6-2-1-5c0-2.5.5-6 1-7l2-3-1-4c-.5-2-1-5.5-1-7l1-3h-5l-4-1-5-1-4-1-2 4c-1 1.5-2.5 3.5-3 4l-3 5c-1.5 2.5-2.5 7-2 9l2 4 1 2c.5 1 .5 2.5 0 3 0 .5-.5.5-1 0l-1-1-1-2c0-1-2-4-4-6-2-2.5-4-5.5-4-6v-2l4-2c2.5-1 6-4.5 7-7l3-5v-1l1-1-1-4v-4l-2-2-2-3 2-4 3-4-3 2-3 2-3 1-2 1-6 1h-8l-5-2-5-3h2l3-1v-1c0-1-.5-2-1-2l1-2 2-3h-10l-2 1-1 1-5 4c-2.5 2-6 5.5-7 7l-2 3-2-4c-.5-2.5-1.5-5.5-2-6l-1-1-1 1h-1l-2 2c-1 .5-3.5 2.5-5 4l-3 3-1 1-1 6c-.5 3-1.5 8.5-2 11l-1 4-1 1c-.5.5-1.5 5-2 9 0 3.5-.5 8-1 9l-1 2-1 5c0 2.5 1 8 2 11l3 5-1 7c-.5 3-1 8-1 10v8c.5 2 .5 6 0 8l-1 4-1 2-1 2v-1h-1l-1-1-1 6c0 2.5-1 4.5-2 4l-2-1-1 4c-.5 1.5-3 5-5 7l-3 3-2-1c-1-.5-5-1.5-8-2l-6-1 5-3 5-3-2 1h-16l-2 3-2 3-3 1h-3l-4-1c-1.5-.5-1.5-2 0-3l3-2h1l1-4c.5-2.5 1.5-7 2-9l1-4h-2l-2-1h-2l-5 3c-2 1-4.5 1-5 0v-3h-6l-1 2c0 .5-1.5 3-3 5l-2 4-1 3v2l-3 1h-2l-4 1h-9l-3 1h-2l-3 1c-1.5 0-5-1.5-7-3s-4.5-3.5-5-4v-1h-1l-2-1c-.5-1-2-2-3-2h-3c-.5-.5-3.5-1-6-1h-5l-1 1c0 .5-1 1-2 1h-3l-3 1c-1 .5-3.5 2-5 3l-2 2-2 1c-1 .5-4-.5-6-2l-3-4-2-1-1-1-5 3-8 4-4 1h-3c-1.5 0-3-2-3-4l1-4-3 1-3 1h-1l-3-3-1-3-1 3v9l-6-1-5-2v742z" stroke-linejoin="round"/>
  <path fill="#df9451" stroke="#df9451" stroke-width=".7" d="M210 1440h3l8-6c4.5-3.5 15-9.5 21-12l22-11 11-5-2 1c-.5 0-2.5.5-4 1h-2l-4 2c-2 .5-7 2-10 3l-6 2-7 3c-3 1.5-7.5 4-9 5l-3 1-3 2c-1.5.5-5.5 3-8 5l-5 4-1 3-1 2z" stroke-linejoin="round"/>
  <path fill="#d46b40" stroke="#d46b40" stroke-width=".7" d="M213 1440h8l7-5c3.5-3 12.5-8.5 18-11 6-3 18.5-8 25-10s19.5-5.5 26-7l26-8c6.5-2.5 18-6.5 23-8 5.5-1.5 16-5 21-7 5.5-2 17-3 23-2 6.5.5 18.5-4 24-9l11-11h-6l-3 3-3 2-1 1h-1l-13 5-26 8c-6 2-18.5 6.5-25 9-6.5 2-24 6-35 8l-21 3-2 1h-1l-4 1c-2 .5-5.5 1.5-7 2l-2 1-11 5-22 11c-6 2.5-16.5 8.5-21 12l-8 6z" stroke-linejoin="round"/>
  <path fill="#c8422e" stroke="#c8422e" stroke-width=".7" d="M221 1440h19l11-5c5.5-2.5 17.5-7 24-9 6.5-2.5 19-7.5 25-10s15.5-2.5 19 0c3.5 2 3 9-1 14l-8 10h8l5-8c2.5-4 8-8.5 11-9 3.5-1 8.5-2.5 10-3 2-1 7.5-2.5 11-3 4-.5 11.5-2.5 15-4 4-1.5 12.5-5 17-7l18-10c5-2.5 14.5-7 19-9 5-2.5 12.5-4 15-3 2.5.5 8.5 1 12 1 4 0 11-4.5 14-9 3.5-4.5 0-12.5-7-16l-14-8-2 1c-.5 0-4 1.5-7 3-2.5 1.5-6.5 4-8 5l-2 1-11 11c-5.5 5-17.5 9.5-24 9-6-1-17.5 0-23 2-5 2-15.5 5.5-21 7-5 1.5-16.5 5.5-23 8l-26 8c-6.5 1.5-19.5 5-26 7s-19 7-25 10c-5.5 2.5-14.5 8-18 11l-7 5z" stroke-linejoin="round"/>
  <path fill="#bd191c" stroke="#bd191c" stroke-width=".7" d="M240 1440h70l8-10c4-5 4.5-12 1-14-3.5-2.5-13-2.5-19 0s-18.5 7.5-25 10c-6.5 2-18.5 6.5-24 9l-11 5z" stroke-linejoin="round"/>
  <path fill="#d46b40" stroke="#d46b40" stroke-width=".7" d="M318 1440h28l5-8c3-4 9.5-7.5 13-7 3.5 0 11-1 15-2 4-1.5 12-6.5 16-10 4.5-4 15-10 21-12 6-2.5 16-6.5 20-8 4.5-1.5 14-2.5 19-2 5 0 15-3 20-6 5.5-3 16-10.5 21-15l10-9-4-4-5-5-1-1h-4l-3-1-11 1c-5 .5-16 1-22 1h-12l14 8c7 3.5 10.5 11.5 7 16-3 4.5-10 9-14 9-3.5 0-9.5-.5-12-1-2.5-1-10 .5-15 3-4.5 2-14 6.5-19 9l-18 10c-4.5 2-13 5.5-17 7-3.5 1.5-11 3.5-15 4-3.5.5-9 2-11 3-1.5.5-6.5 2-10 3-3 .5-8.5 5-11 9l-5 8z" stroke-linejoin="round"/>
  <path fill="#df9451" stroke="#df9451" stroke-width=".7" d="M346 1440h9v-7l2 3c1.5 1 3.5 1 4 0 1-1 3.5-2.5 5-3l3-1 2-2c1-1 2.5-2 3-2 1 0 3 .5 4 1h4c.5 0 2-.5 3-1l2-1h1l1-2c1-1 2.5-2 3-2l4-4 5-5 4-4c2-1.5 4.5-3.5 5-4s1.5-1 2-1l1-1 2-1 2-1 1-1c1-.5 3.5-.5 5 0h4l1 2 3 3 2 1 3-2c1.5-1 3-2.5 3-3l2-2 1-1 3-3c2-1.5 5-2.5 6-2l2 1 9-2c5-1 13.5-1.5 17-1 4 0 14.5-1.5 21-3l14-3v-2c0-1-1-5.5-2-9-.5-4-1.5-8.5-2-9l-1-1-2-2-1-2-10 9c-5 4.5-15.5 12-21 15-5 3-15 6-20 6-5-.5-14.5.5-19 2-4 1.5-14 5.5-20 8-6 2-16.5 8-21 12-4 3.5-12 8.5-16 10-4 1-11.5 2-15 2-3.5-.5-10 3-13 7l-5 8z" stroke-linejoin="round"/>
  <path fill="#e7b861" stroke="#e7b861" stroke-width=".7" d="M355 1440h18c0-.5-1.5-1.5-3-2-1-.5-2-2-2-3l1-2v-1l-3 1c-1.5.5-4 2-5 3-.5 1-2.5 1-4 0l-2-3v7z" stroke-linejoin="round"/>
  <path fill="#c4ab58" stroke="#c4ab58" stroke-width=".7" d="M373 1439v1h6v-1l2-2 4-6 2-4-2 1c-1 .5-2.5 1-3 1h-4c-1-.5-3-1-4-1-.5 0-2 1-3 2l-2 2v1l-1 2c0 1 1 2.5 2 3l3 1z" stroke-linejoin="round"/>
  <path fill="#f2d86f" stroke="#f2d86f" stroke-width=".7" d="M663 1440h24l1-2 1-3c.5-.5 3-3.5 5-6s3-6 2-7l-1-2-2-3c-1-1.5-4-.5-6 2l-4 4h-1l-6 3c-3 1-8 2.5-10 3l-4 1-1 3c-.5 1-.5 3.5 0 5l2 2z" stroke-linejoin="round"/>
  <path fill="#4e4624" stroke="#4e4624" stroke-width=".7" d="M388 1427l5-1 2-2 4-4 2-2 3-2 4-4c1-1 2.5-3.5 3-5l2-3-1 1c-.5 0-1.5.5-2 1s-3 2.5-5 4l-4 4-5 5-4 4c-.5 0-2 1-3 2l-1 2z" stroke-linejoin="round"/>
  <path fill="#2e2915" stroke="#2e2915" stroke-width=".7" d="M431 1416c6.5-6 9.5-10 10-12l1-5-1 1-2 2c0 .5-1.5 2-3 3l-3 2-2 2c-1 .5-3 1-4 1h-4c-1-.5-3-2.5-4-4-.5-1.5-1.5-3-2-3v-1l-2 1-2 1-2 3c-.5 1.5-2 4-3 5l-4 4-3 2 3-1 4-2 2-1c1-.5 4 0 6 1 2 .5 4.5 1.5 5 2l1 1 4-1 5-1z" stroke-linejoin="round"/>
  <path fill="#c4ab58" stroke="#c4ab58" stroke-width=".7" d="M421 1409l4 1c0-.5-.5-1.5-1-2 0-1-.5-2.5-1-3 0-.5 1-1.5 2-2l2-2h-4c-1.5-.5-4-.5-5 0l-1 1v1c.5 0 1.5 1.5 2 3l2 3z" stroke-linejoin="round"/>
  <path fill="#e7b861" stroke="#e7b861" stroke-width=".7" d="M425 1409v1h2c1 0 3-.5 4-1l2-2-2-1-3-3-1-2-2 2c-1 .5-2 1.5-2 2 .5.5 1 2 1 3l1 1z" stroke-linejoin="round"/>
  <path fill="#2e2915" stroke="#2e2915" stroke-width=".7" d="M643 1406c-1.5-3.5-2-8-2-11v-7l-4 5c-1.5 2-1.5 6.5 0 9 1.5 2 3.5 4 4 4h2zm-174-1l7-1h3l9-3c3.5-1 7.5-2 8-2l1-1h1l1-1h-2c-1 0-4 .5-6 1h-4l-2 2-2 1-3 1c-1.5 0-5 1-7 2l-4 1z" stroke-linejoin="round"/>
  <path fill="#df9451" stroke="#df9451" stroke-width=".7" d="M334 1394c19.5-6.5 32-11 38-13l26-8 13-5-5 3c-2.5 1.5-7 3.5-9 4h-3l-4-1c-1.5-.5-7 0-11 1l-8 1-6 2c-3 1-8 3-10 4l-4 1-2 1c-1 .5-5.5 2-9 3s-8 2-9 2h-1l-6 2c-2.5.5-8 2-11 3l-5 1-1 1c-.5 0-5 1.5-9 3l-7 2 21-3 22-4z" stroke-linejoin="round"/>
  <path fill="#e7b861" stroke="#e7b861" stroke-width=".7" d="M469 1396l6-2 2 1 6 2 4 1h4c2-.5 5-1 6-1h2l5-1c3-.5 7-2.5 8-4l2-4v-2l-14 3c-6.5 1.5-17 3-21 3-3.5-.5-12 0-17 1l-9 2v2h8l8-1z" stroke-linejoin="round"/>
  <path fill="#f2d86f" stroke="#f2d86f" stroke-width=".7" d="M604 1396c18.5-7.5 30-13.5 35-17l10-8-13 2c-6.5.5-19-1.5-25-4-6-3-16.5-4.5-21-3l-9 3 8 1 8 1 3 2c2 1 3 2.5 2 3-.5.5-2.5 3-4 5-1 2-2.5 4.5-3 5h-1l-5 2-5 2 10 3 10 3z" stroke-linejoin="round"/>
  <path fill="#2e2915" stroke="#2e2915" stroke-width=".7" d="M594 1385v1h1c.5-.5 2-3 3-5 1.5-2 3.5-4.5 4-5 1-.5 0-2-2-3l-3-2v1l-3 5c-1.5 2.5-2.5 6-2 7l2 1z" stroke-linejoin="round"/>
  <path fill="#f2d86f" stroke="#f2d86f" stroke-width=".7" d="M176 1376c12 1 16 0 16-1 0-1.5-4-2-8-1-3.5.5-7.5 1.5-8 2z" stroke-linejoin="round"/>
  <path fill="#c8422e" stroke="#c8422e" stroke-width=".7" d="M494 1376c6-5 7-8 6-9-1-1.5-3 0-4 3l-2 6z" stroke-linejoin="round"/>
  <path fill="#2e2915" stroke="#2e2915" stroke-width=".7" d="M899 1368c-4.5-3.5-7.5-7.5-9-10-1.5-3-2.5-8-2-10l2-5-2 1-2 1c0-.5-1-1-2-1h-1v4c0 1.5 1.5 6 3 9s5.5 7.5 8 9l5 2z" stroke-linejoin="round"/>
  <path fill="#df9451" stroke="#df9451" stroke-width=".7" d="M425 1362c3.5-2 7.5-4.5 10-6 3-1.5 6.5-3 7-3l2-1h12c6 0 17-.5 22-1l11-1-2-1c-1-.5-5.5-1-9-1h-29l-2-1-5 1c-2 .5-6.5 2.5-9 4l-5 3-5 4-4 3h6z" stroke-linejoin="round"/>
  <path fill="#e7b861" stroke="#e7b861" stroke-width=".7" d="M937 1365c18-8 29-14.5 34-18 5.5-3.5 16.5-10 22-13l18-9 6-4v-2c.5-1.5 1.5-4 2-5l1-2v-1c0-.5-.5-2.5-1-4v-3l-6 8c-2.5 4-11.5 10.5-18 13-6 2.5-17.5 8.5-23 12-5 3.5-16.5 9.5-23 12-6 2.5-23 4.5-34 4l-21-1 1 3c1 1 12 4 22 6l20 4z" stroke-linejoin="round"/>
  <path fill="#df9451" stroke="#df9451" stroke-width=".7" d="M937 1354c18.5-7.5 30-13.5 35-17 5.5-3.5 17-9.5 23-12 6.5-2.5 15.5-9 18-13l6-8v-2c.5-1 1.5-2.5 2-3l2-4 2-2 7-11c4-6 6-20.5 4-29l-4-17-4-3c-1.5-1.5-6-4.5-9-6s-8-3.5-10-4l-3-2 6 6c3 2.5 10.5 9 15 13s9.5 12 10 16c1 3.5-.5 12-3 17-2.5 4.5-8.5 14-12 19s-10 13.5-13 17c-2.5 3-11 7.5-17 9-5.5 1.5-16 6.5-21 10s-14 9.5-18 12c-3.5 2-19 5.5-31 7-12 1-20.5-2.5-17-7 3.5-5 12-13.5 17-17 5.5-3.5 10.5-8 10-9-.5-1.5-5.5-1.5-10 0-4.5 1-13-2.5-17-7s-11.5-5-15-1c-3.5 3.5-7 2-7-3 0-5.5-3-15.5-6-20-2.5-4.5-1.5-14 2-19 4-5 11.5-14.5 15-19l8-10-6 1c-3 0-12 3-18 6-5.5 3-18 7-25 8-6.5 1-18.5-.5-24-3-5-2.5-15.5-3-21-1s-14 9.5-17 15c-3 5-8.5 3-11-4l-4-15-4 4c-2 2-4 7.5-4 11v6l10 8c5 3.5 13.5 2 17-3 3.5-5.5 12.5-12.5 18-14 5.5-2 17-1.5 23 1s19.5 3 27 1l16-4 1 2c.5 1-1 4.5-3 7-2 2-5 5.5-6 7l-2 2-5 9c-2 4-3 12.5-2 17 1.5 4.5 3.5 14.5 4 20 .5 5 5.5 10.5 10 11 4.5 0 12.5-4 16-8 3.5-4.5 9.5-6.5 12-4l6 5-6 9c-3 4.5-7 12.5-8 16l-2 7 21 1 22 1z" stroke-linejoin="round"/>
  <path fill="#f2d86f" stroke="#f2d86f" stroke-width=".7" d="M783 1356c1.5-6.5.5-12-1-15-1-3-4-8.5-6-11l-4-5v6c0 2.5 1 8.5 2 12 1.5 3 4.5 8 6 10l3 3z" stroke-linejoin="round"/>
  <path fill="#d46b40" stroke="#d46b40" stroke-width=".7" d="M946 1344c11-6.5 20-12.5 25-16s15.5-8.5 21-10c6-1.5 14.5-6 17-9 3-3.5 9.5-12 13-17s9.5-14.5 12-19c2.5-5 4-13.5 3-17-.5-4-5.5-12-10-16s-12-10.5-15-13l-6-6-1-1c-.5-.5-4-2-7-3-3-1.5-8-3.5-10-4l-4-2-13-4c-6.5-2.5-18.5-8-24-11-5.5-3.5-18-6.5-25-6s-20 4-26 7c-5.5 3-21.5 7.5-32 9l-21 2-7 2c-3.5.5-10 2.5-13 4s-7 4-8 5l-2 1-1 2c0 1-1 2.5-2 3-.5.5-3 2.5-5 4-1.5 1-4 2.5-5 3s-4 1.5-6 2c-1.5.5-3.5 1-4 1l-1-1-1 1c-.5 0-4 1.5-7 3-2.5 1.5-5 3.5-5 4l4 15c2.5 7 8 9 11 4 3-5.5 11.5-13 17-15s16-1.5 21 1c5.5 2.5 17.5 4 24 3 7-1 19.5-5 25-8 6-3 15-6 18-6l6-1-8 10c-3.5 4.5-11 14-15 19-3.5 5-4.5 14.5-2 19 3 4.5 6 14.5 6 20 0 5 3.5 6.5 7 3 3.5-4 11-3.5 15 1s12.5 8 17 7c4.5-1.5 9.5-1.5 10 0 .5 1-4.5 5.5-10 9-5 3.5-13.5 12-17 17-3.5 4.5 5 8 17 7l24-3z" stroke-linejoin="round"/>
  <path fill="#f2d86f" stroke="#f2d86f" stroke-width=".7" d="M886 1344c0 1 1 .5 2 0l2-1v-1l1-1h-2c-1-.5-2.5-1-3-1h-8l-6-1v1c.5.5 3.5 2 6 3l5 1h3z" stroke-linejoin="round"/>
  <path fill="#2e2915" stroke="#2e2915" stroke-width=".7" d="M1012 1335c12.5-13.5 17-21.5 17-25v-7l-2 1c-.5 0-2 3-3 6-.5 2.5-1 6-1 7 0 .5-1 3-2 5l-2 3-14 6-14 5h10l11-1z" stroke-linejoin="round"/>
  <path fill="#f2d86f" stroke="#f2d86f" stroke-width=".7" d="M794 1323c-11.5-15-18-26-21-32-2.5-6-7-11.5-9-11-2 0-1.5 6 1 12 3 6 9.5 17 13 22s9 10 11 10l5-1z" stroke-linejoin="round"/>
  <path fill="#e7b861" stroke="#e7b861" stroke-width=".7" d="M891 1341c4.5-5 8-9 10-11 2-2.5 5-6 6-7l3-3-6-5c-2.5-2.5-8.5-.5-12 4-3.5 4-11.5 8-16 8-4.5-.5-9.5-6-10-11-.5-5.5-2.5-15.5-4-20-1-4.5 0-13 2-17l5-9-8 8c-4 4-9 14-10 20-.5 5.5 2.5 15.5 6 20 4 4.5 9.5 12 11 15l4 6 6 1h8c.5 0 2 .5 3 1h2z" stroke-linejoin="round"/>
  <path fill="#c8422e" stroke="#c8422e" stroke-width=".7" d="M921 1338c9.5-1.5 16-3 19-4 3.5-1 9.5-4 12-6s3-6.5 1-9c-1.5-2.5-6-3.5-9-2l-12 6c-2.5 1.5-7.5 5-10 7-2 2-3.5 5-3 6l2 2z" stroke-linejoin="round"/>
  <path fill="#f2d86f" stroke="#f2d86f" stroke-width=".7" d="M828 1312c-1-19.5-.5-26 0-26l2-1-1-1-2-2-1-1-2 2c-.5.5-2.5 4-4 7l-2 6-1-5v-5l-1 2c0 .5-2.5.5-5 0l-5-2-2 2-1 1-2-3-1-4-3 2-4 2c-1 .5-3.5 0-5-1l-3-3 7 11c3.5 5 10.5 15.5 14 21 3.5 5 10.5 7 14 4l8-6zm-719-7c13.5 2.5 21-2.5 24-8 3.5-5.5 12-14.5 17-18 5-4 10.5-12.5 11-17 .5-5-1.5-11-4-12-2-1.5-9 1-14 5-4.5 4-14 12-19 16-5 3.5-14.5 11.5-19 16-4 4.5-5 15-2 21l6 11v-14z" stroke-linejoin="round"/>
  <path fill="#8e7e40" stroke="#8e7e40" stroke-width=".7" d="M1019 1324v1l2-3c1-2 2-4.5 2-5 0-1 .5-4.5 1-7 1-3 2.5-6 3-6l2-1v-9l-3 3c-1 1.5-2.5 4-3 5 0 .5-1 3.5-2 6l-1 4-1 2c-.5 1-1.5 3.5-2 5v2l1 2 1 1z" stroke-linejoin="round"/>
  <path fill="#c8422e" stroke="#c8422e" stroke-width=".7" d="M1000 1307c12-14 16.5-25 17-31 .5-6.5.5-18.5 0-24-.5-6-6.5-15-12-18-5.5-3.5-16.5-10-22-13-5-3.5-16-10-22-13-5.5-3-17-9-23-12-5.5-3-14.5-3-18 0-3 3-4 12-2 18 2.5 6 11 14.5 17 17s13 10 14 15c1 4.5 3.5 14 5 19 2 5 6 15.5 8 21 2 5 12.5 13 21 16l17 5z" stroke-linejoin="round"/>
  <path fill="#c4ab58" stroke="#c4ab58" stroke-width=".7" d="M1020 1312c2-6.5 3-9.5 3-10 .5-1 2-3.5 3-5l3-3 1-1 2-2v-1l-4 2-3 1-2 2-2 4c-.5.5-1.5 2-2 3v5c.5 1.5 1 3.5 1 4v1z" stroke-linejoin="round"/>
  <path fill="#c8422e" stroke="#c8422e" stroke-width=".7" d="M905 1304c3-6.5 1.5-9.5-1-10-2-.5-3 2-2 5l3 5z" stroke-linejoin="round"/>
  <path fill="#e7b861" stroke="#e7b861" stroke-width=".7" d="M1025 1293l7-3 7-12c4-6.5 6-19 4-25-1.5-6-5-13-7-14l-4-3 4 17c2 8.5 0 23-4 29l-7 11zm-209-4l1-3v-26l-4 10-3 10-2-11c-.5-6 1.5-11 4-10l5 1h6c3.5 0 14 1.5 21 3 7 1 19-1 24-4l11-7-16 4c-7.5 2-21 1.5-27-1s-17.5-3-23-1c-5.5 1.5-14.5 8.5-18 14-3.5 5-12 6.5-17 3l-10-8 2 4c1 2 4 6.5 6 9 2.5 2 6 4.5 7 5l2 1 3 3c1.5 1 4 1.5 5 1l4-2 3-2-1-5-1-5v-3c.5-1.5 2.5-3 4-3 1.5-.5 3-.5 3 0l1 1v19l5 2 5 1z" stroke-linejoin="round"/>
  <path fill="#f2d86f" stroke="#f2d86f" stroke-width=".7" d="M35 1289c5-6 7.5-11.5 8-15 1-3.5 1-10.5 0-14s-4-5.5-6-4c-2 1-4.5 6.5-5 11 0 4 .5 11.5 1 15l2 7z" stroke-linejoin="round"/>
  <path stroke="#000" stroke-width=".7" d="M803 1289l3-3v-19l-1-1c0-.5-1.5-.5-3 0-1.5 0-3.5 1.5-4 3v3l1 5 1 5 1 4 2 3z" stroke-linejoin="round"/>
  <path fill="#c4ab58" stroke="#c4ab58" stroke-width=".7" d="M837 1286c6.5-4.5 10-7.5 11-9 1.5-1.5-.5-3.5-4-4s-9.5-3-12-5c-2-2-4.5-1.5-5 1v10c0 .5 2 1 4 1 2.5-.5 5-.5 5 0 .5.5.5 2 0 3v3h1z" stroke-linejoin="round"/>
  <path fill="#df9451" stroke="#df9451" stroke-width=".7" d="M923 1277c12.5-13.5 17.5-22.5 18-27 .5-5-6.5-9-14-8-7 1-16.5 8.5-19 15-2 6.5.5 15 5 17l10 3z" stroke-linejoin="round"/>
  <path fill="#8e7e40" stroke="#8e7e40" stroke-width=".7" d="M830 1285h6v-2c.5-1 .5-2.5 0-3 0-.5-2.5-.5-5 0-2 0-4-.5-4-1v-5l-1 4v3l1 1 2 2 1 1z" stroke-linejoin="round"/>
  <path fill="#df9451" stroke="#df9451" stroke-width=".7" d="M810 1280l7-20-5-1c-2.5-1-4.5 4-4 10l2 11z" stroke-linejoin="round"/>
  <path fill="#c8422e" stroke="#c8422e" stroke-width=".7" d="M780 1260c6.5-4.5 9-9 9-12 .5-3-2-4.5-5-3-2.5 1-6.5 4.5-8 7-1 2.5-.5 6 1 7l3 1zm82-20c17-9 27-16.5 31-21 4-5 2.5-10-3-10-5 0-16.5 2-23 4-6.5 1.5-20 4.5-27 6-6.5 1-14 5.5-15 9-.5 3.5 8.5 8.5 18 10l19 2z" stroke-linejoin="round"/>
  <path fill="#df9451" stroke="#df9451" stroke-width=".7" d="M791 1235c5-1.5 8-2.5 9-3s3.5-2 5-3c2-1.5 4.5-3.5 5-4 1-.5 2-2 2-3l1-2-4 3-10 5c-2.5 1.5-6.5 4-8 5l-2 1 1 1h1zm94-32c17-9 30-12.5 37-13s19.5 2.5 25 6c5.5 3 17.5 8.5 24 11l13 4-11-6c-5-3-15.5-9-21-12-5.5-3.5-18.5-7-26-7-7-.5-20 2-26 5-5.5 3-18 8-25 10-7 1.5-18.5 4-23 5l-9 2 21-2 21-3z" stroke-linejoin="round"/>
  <path fill="#f2d86f" stroke="#f2d86f" stroke-width=".7" d="M1029 960c9.5-1.5 15-4 17-6 2.5-2 5.5-5.5 6-7 1-2 0-4-2-4h-4l-1 1c-.5 0-1.5.5-2 1 0 .5-1.5 3.5-3 6-1.5 2-3.5 4.5-4 5l-5 2-5 1 1 1h2z" stroke-linejoin="round"/>
  <path fill="#e7b861" stroke="#e7b861" stroke-width=".7" d="M1026 959c7.5-2 10-3 10-3 .5-.5 2.5-3 4-5 1.5-2.5 3-5.5 3-6 .5-.5 1.5-1 2-1l1-1 3-2 4-3 1-1-4 2c-1.5.5-4 1.5-5 2-.5.5-3 .5-5 0s-5-1.5-6-2l-2-1-2 4-1 3-6-1c-3-.5-8-6-10-11-1.5-5-2-15-1-20 1.5-5.5 5-15.5 7-20s5.5-14 7-19 5-14.5 7-19l4-10 1 10c.5 4.5.5 15 0 21 0 6 1 14 2 16 1.5 2 5-.5 7-5 2.5-4.5 5-15 5-21 .5-6 2.5-17 4-22 1.5-5.5 5.5-15 8-19s8.5-6.5 12-5c4 1 11.5 5 15 8l14 12c4 3 9.5 9.5 11 13 2 3.5-.5 13.5-5 20l-8 13 8-8c4.5-4.5 11.5-12 14-15l5-7 2-8c1-4.5-2-12-6-15-3.5-3-14.5-11-22-16l-14-10-1-1-1-1-14 2-13 1-4 12c-2 6-5 20-6 28-1 7.5-4 13.5-6 12-1.5-1.5-1.5-10 0-17l6-21 3-8-8 3c-4 1.5-11.5 8.5-15 14l-12 22c-3 5.5-8.5 18.5-11 26l-4 14 1 15c.5 7.5 3 21.5 5 28 2.5 6.5 7.5 15.5 10 18l6 5z" stroke-linejoin="round"/>
  <path fill="#df9451" stroke="#df9451" stroke-width=".7" d="M1029 945l1-11v-3c0-1.5.5-6.5 1-10 1-4 2-8.5 2-9v-2l1 2c1 .5 1.5 4 1 7l-1 5v3c0 1-.5 4.5-1 7l-1 4 2 1c1 .5 4 1.5 6 2s4.5.5 5 0c1-.5 3.5-1.5 5-2l4-2 2-1c1.5-1 5.5-3.5 8-5 2.5-2 6-5 7-6l3-2 5-7c2.5-3.5 8-10 11-13l6-6 2-3 3-6 2-2 8-13c4.5-6.5 7-16.5 5-20-1.5-3.5-7-10-11-13l-14-12c-3.5-3-11-7-15-8-3.5-1.5-9.5 1-12 5s-6.5 13.5-8 19c-1.5 5-3.5 16-4 22 0 6-2.5 16.5-5 21-2 4.5-5.5 7-7 5-1-2-2-10-2-16 .5-6 .5-16.5 0-21l-1-10-4 10c-2 4.5-5.5 14-7 19s-5 14.5-7 19-5.5 14.5-7 20c-1 5-.5 15 1 20 2 5 7 10.5 10 11l6 1z" stroke-linejoin="round"/>
  <path stroke="#000" stroke-width=".7" d="M1029 945l3-7 1-4c.5-2.5 1-6 1-7v-3l1-5c.5-3 0-6.5-1-7l-1-2v2c0 .5-1 5-2 9-.5 3.5-1 8.5-1 10v3l-1 6v5z" stroke-linejoin="round"/>
  <path fill="#e7b861" stroke="#e7b861" stroke-width=".7" d="M1074 923c6.5-5 10.5-9.5 12-12 2-2.5 5.5-7 7-9l3-5-6 6c-3 3-8.5 9.5-11 13l-5 7z" stroke-linejoin="round"/>
  <path fill="#f2d86f" stroke="#f2d86f" stroke-width=".7" d="M1004 893c6.5-21.5 12-34.5 15-40l12-22c3.5-5.5 11-12.5 15-14l8-3 1-8 2-9-10 7c-5 3.5-14 12-18 17-3.5 5-10 16-13 22-2.5 6-7 19-9 26-1.5 7-3 16.5-3 19v5z" stroke-linejoin="round"/>
  <path fill="#d46b40" stroke="#d46b40" stroke-width=".7" d="M1076 888c9-.5 13-3 14-5 1.5-2 4.5-6.5 6-9s1-6-1-7c-2-1.5-5-.5-6 2-.5 2-4 4.5-7 5-2.5.5-6 3.5-7 6-1 2-1.5 5-1 6l2 2z" stroke-linejoin="round"/>
  <path fill="#f2d86f" stroke="#f2d86f" stroke-width=".7" d="M1130 856c9-14 12-22.5 12-26 0-4-7-9.5-14-11-7-2-20-6-26-8l-12-4 14 10c7.5 5 18.5 13 22 16 4 3 7 10.5 6 15l-2 8zm-748-31c.5-9 1-15.5 1-19v-35l-1-4v-49l-1-3c0-2-.5-8.5-1-13v-17c0-4-.5-10.5-1-13v-9c0-1.5-.5-7-1-11 0-4-.5-8.5-1-9v-2l-3-2c-1-1.5-2.5-5-3-7l-1-5v15l1 7v23l1 3v5c0 2 .5 8.5 1 13l1 8v8c.5 3.5 1 10 1 13v20c.5 4 1 9 1 10v8c.5 3 1 9.5 1 13v19c.5 4 1 9.5 1 11v3l1 5 2 10 1 4zm706-20c-2.5-18.5-7-21-11-17s-10 11-12 14l-4 6 13-1 14-2z" stroke-linejoin="round"/>
  <path fill="#2e2915" stroke="#2e2915" stroke-width=".7" d="M1099 794c-1-3-3-6-5-8l-4-5 2 6c1.5 2.5 4 5.5 5 6l2 1z" stroke-linejoin="round"/>
  <path fill="#f2d86f" stroke="#f2d86f" stroke-width=".7" d="M1074 784c3.5-7.5 4.5-13 4-16l-1-7-2 8c-.5 3.5-1 9-1 11v4z" stroke-linejoin="round"/>
  <path fill="#2e2915" stroke="#2e2915" stroke-width=".7" d="M485 741l3-13-1-5-1-5v1c0 .5-1 2-2 3l-2 1-2 2c-.5 1-.5 4 0 6l2 4 1 1c.5.5 1 2 1 3l1 2z" stroke-linejoin="round"/>
  <path fill="#f2d86f" stroke="#f2d86f" stroke-width=".7" d="M1094 738c8-16.5 6.5-26 2-30-4.5-4.5-16-7.5-23-6-7 1-21.5 1-29 0-7.5-1.5-18-3.5-21-4l-5-2-1 1h-2l1 12c.5 6 5.5 16 10 20 5 4 24.5 8.5 39 9h29z" stroke-linejoin="round"/>
  <path fill="#e7b861" stroke="#e7b861" stroke-width=".7" d="M1087 723c-15-11-28-15.5-36-16-8-1-19.5 2-23 6-3 4-.5 11 5 14 6 3 22.5 3.5 33 1l21-5z" stroke-linejoin="round"/>
  <path fill="#2e2915" stroke="#2e2915" stroke-width=".7" d="M1107 730c6-5 7-9 6-11l-1-4-3 6c-1.5 3-3 7-3 8l1 1z" stroke-linejoin="round"/>
  <path fill="#f2d86f" stroke="#f2d86f" stroke-width=".7" d="M486 720v-5c0-1.5-.5-4.5-1-6v-3l1-4c.5-2 1-8 1-12l1-9-1-6-1-7v-10c0-4-.5-8-1-8v-21l1-3-1-3v-19c0-1.5-.5-7-1-11v-11h-1c-.5-.5-1-1.5-1-2v-11l-4 11c-1.5 5-7 12.5-11 15-3.5 2-17 3-27 2-9.5-1.5-24.5-3.5-30-4-5-1-15-1.5-20-1l-9 1v2c0 .5-.5 4.5-1 8v18c.5 4 1 9.5 1 11l1 3v5c.5 2 1.5 8 2 12l1 7-1 8c-.5 4-.5 10 0 12l1 3 2 3c1 1 4 1.5 6 1l5-1 15-1 16-1v-1c.5-.5 1-1.5 1-2l1-1 3 4c2 2 4.5 2 5 0l2-4 1 1c.5.5 1 2.5 1 4l1 3h27l1 1 1 1 1-1 1-1 1 1c.5 0 1 2 1 4l1 4-1 3c-.5 1.5 0 7 1 11l2 7 1 3 1 3 2-1 2-2z" stroke-linejoin="round"/>
  <path fill="#2e2915" stroke="#2e2915" stroke-width=".7" d="M45 722c5-3 5-6.5 3-9-1.5-2.5-6.5-5.5-10-6s-6.5.5-6 2c1 1.5 3 5 4 7 1.5 1.5 4.5 4 6 5l3 1zm1167-3c6-5 9-9 10-11 1.5-2 5.5-6 8-8l5-4h-2l-2-1-4 3c-1.5 1-5.5 4.5-8 7-2 2-4.5 6.5-5 9-.5 2-1.5 4.5-2 5z" stroke-linejoin="round"/>
  <path fill="#6f6332" stroke="#6f6332" stroke-width=".7" d="M459 715l7-9 3-4c2-2.5 4.5-6.5 5-8l1-4v-3l-1 1-1 1-1-1-1-1-5 4c-2 2-5 8-6 12l-2 7v3l1 2z" stroke-linejoin="round"/>
  <path fill="#2e2915" stroke="#2e2915" stroke-width=".7" d="M199 702l2-7 2 1c1 .5 2-1.5 2-4l1-6h-2l-1-1-2 3-2 2-2 2c-1 1-3.5 2-5 2h-3l-2 3-1 2-5 3-5 3 6 1c3 .5 7 1.5 8 2l2 1 3-3 4-4zm217 4c1.5-3 3-4 4-4 1-.5 2 0 2 1l1 2h1c1 0 3.5-2 5-4l3-4h1c.5-.5-.5-4-2-7l-2-7-16 1-15 1v4l-3 2c-1.5 1-2 3.5-1 5l2 2 5-1c3-1 5.5-1 5 0v2l1 3c.5 1.5 3 3.5 5 4h4z" stroke-linejoin="round"/>
  <path fill="#8e7e40" stroke="#8e7e40" stroke-width=".7" d="M462 695l9-8h-27l1 3 2 2 2 1c1 0 3 3 4 6 1.5 2.5 3 6 3 7v2l1 1 1 1 2-7 2-8z" stroke-linejoin="round"/>
  <path fill="#2e2915" stroke="#2e2915" stroke-width=".7" d="M159 707l5-1h-1c0-.5-.5-1.5-1-2 0-.5-.5-1.5-1-2s-1.5-1-2-1h-2l-3 2c-1.5 1-1.5 2.5 0 3l4 1h1z" stroke-linejoin="round"/>
  <path fill="#8e7e40" stroke="#8e7e40" stroke-width=".7" d="M163 705l1 1 2-3 2-3h-1c-.5-.5-1.5-1-2-1 0-.5-.5-2.5-1-4s.5-3 2-3c1.5-.5 3-2 3-3l2-4 2-3c.5-.5 1-3 1-5v-5l-1 2-1 1-1 2c0 .5-1 2-2 3s-3.5 2.5-5 3l-2 1-1 4c-.5 2-1.5 6.5-2 9l-1 4h1c.5 0 1.5.5 2 1s1 1.5 1 2l1 1zm-59-2l6-1h2l3-1v-1c0-.5-1-1.5-2-2l-1-1-5-1-6-3c-.5-.5-2.5 0-4 1l-2 1v1c.5.5 3 2.5 5 4l4 3z" stroke-linejoin="round"/>
  <path fill="#4e4624" stroke="#4e4624" stroke-width=".7" d="M1254 702c-4-4.5-8-7-11-8-3-1.5-7.5-2-9-1l-3 2 2 1h3c1 0 5 1.5 8 3 3 1 7 2.5 8 3h2z" stroke-linejoin="round"/>
  <path fill="#f2d86f" stroke="#f2d86f" stroke-width=".7" d="M11 700v-9l1-3 2-2c1.5-1.5 4.5-.5 6 2l3 4-1 4c0 2 1.5 4 3 4h3l4-1 8-4 5-3 1 1 2 1v-5c0-2.5.5-5 1-5 1 0 3 2 4 4 1.5 1.5 3.5 3 4 3 1-.5 1.5-2.5 1-4l-1-3-8-1c-4-.5-9-1.5-10-2l-2-1 10-1c5-1 10.5-1 11 0l1 2 6 1c3 0 6.5.5 7 1 1 .5 1 3.5 0 6l-2 4h2c1 0 2-.5 2-1l1-1h5c2.5 0 5.5.5 6 1h2l1-2c.5-1.5 2.5-2.5 4-2 2 0 5-.5 6-1l3-2 4-6c2-3.5 4.5-7 5-7s-1 4.5-3 9-4 9.5-4 10h1l2-6 3-6 1 1c1 .5 1.5 1.5 1 2 0 .5.5 2 1 3s1.5 2 2 2h6c2-.5 4-.5 4 0h6v-7l3-3 3-2 1-2c1-1 3.5-4.5 5-7 2-2.5 4.5-5 5-5h1l6 1c3 .5 6.5 4.5 7 8 1 3 4 6 6 6l4-1 1-1 1-2v5c0 2-.5 4.5-1 5l1 2c1 1 2.5 1.5 3 1l1-2 1-2c.5-1 2.5-.5 4 1 2 1.5 4.5 4 5 5 .5.5 3 1 5 1 2.5-.5 5 0 5 1v1h1l2-2 2-3v-1c0-1 1-3 2-4s2.5-.5 3 1l2 3 1-4c.5-2 .5-6 0-8v-8c0-2 .5-7 1-10l1-7-3-5c-1-3-2-8.5-2-11l1-5 1-2c.5-1 1-5.5 1-9 .5-4 1.5-8.5 2-9l1-1 1-4c.5-2.5 1.5-8 2-11l1-6 1-1 3-9c1.5-4.5 8-11.5 13-14 5.5-2.5 16-6.5 21-8l11-3-9 5-9 5 1 1h3c1 0 5.5-.5 9-1 4-.5 9-.5 10 0h7l1 1h1l1 1c1 0 3 2.5 4 5s1.5 5.5 1 6l-4 4c-1.5 2-3 4.5-3 5l2-1 3-1 3-2 3-2-3 4-2 4 2 3 2 2h11c5.5-.5 11.5 1 12 3l2 3 12 1 13 1 1 1 2 1 8-3c4-1.5 7.5 0 7 3v5l2-1c1-.5 2-3 2-5v-9l-1-18v-35l-11-3c-5-1.5-17.5-3.5-25-4-7.5-1-22-3.5-29-5-7-2-21.5-5.5-29-7-7-1.5-21-1-28 1-6.5 1.5-17 7.5-21 12-4 4-10 15-12 22-2 6.5-11.5 14-19 15-7 1-21.5 3.5-29 5-7 1.5-21.5 2-29 1s-21.5-1.5-28-1c-6 .5-18.5 3.5-25 6-6 2.5-20.5 5.5-29 6-8.5 0-24.5 1-32 2l-15 1v111l5 2 6 1z" stroke-linejoin="round"/>
  <path fill="#c4ab58" stroke="#c4ab58" stroke-width=".7" d="M55 701l4-2 2-2c1.5-1 4-2.5 5-3l3-1c0-.5-1.5-1-3-1-1 0-2.5-2-3-4 0-2-1-4.5-2-5-.5-.5-1.5-1-2-1v-1l-1 2-1 1 1 3c.5 1.5 0 3.5-1 4-.5 0-2.5-1.5-4-3-1-2-3-4-4-4-.5 0-1 2.5-1 5v5l3 4 4 3z" stroke-linejoin="round"/>
  <path fill="#4e4624" stroke="#4e4624" stroke-width=".7" d="M120 701l8-1-2-1c-1-.5-2-1.5-2-2 0-1-2-2-4-2s-5 .5-6 1l-2 1 1 1c1 .5 2 1.5 2 2v1h5z" stroke-linejoin="round"/>
  <path fill="#c4ab58" stroke="#c4ab58" stroke-width=".7" d="M128 700l5-1v-2l1-3h-2c-.5-.5-1-2.5-1-4v-3h-6c0-.5-2-.5-4 0h-4l-4 3-3 2c.5-.5 1-3.5 1-6s-.5-5.5-1-6v-1l-3 6-2 6-1 1c-.5 0-1-1-1-2 0-1.5-.5-3.5-1-4v-1l-3 2c-1 .5-4 1-6 1-1.5-.5-3.5.5-4 2l-1 2h1c1 0 2.5 1 3 2l2 1h1l2-1c1.5-1 3.5-1.5 4-1l6 3 5 1 2-1c1-.5 4-1 6-1s4 1 4 2c0 .5 1 1.5 2 2l2 1zm38-1l2 1h16l2-1 1-2 2-3h-1c0-.5-2-3-4-5s-4.5-4-5-4l-1-1v-1l-1 2c-.5.5-2 0-3-1l-1-2-2 3-2 4c0 1-1.5 2.5-3 3-1.5 0-2.5 1.5-2 3s1 3.5 1 4h1z" stroke-linejoin="round"/>
  <path fill="#2e2915" stroke="#2e2915" stroke-width=".7" d="M1105 698c6-3.5 9-7 10-9l2-5-2 1c-.5 0-1.5-2-2-4 0-2.5-1.5-4-3-3-1 .5-2.5 1.5-3 2l-1 1-2 5c-1 2-1.5 6-1 8l2 4zm-90-2v1h2l1-1 3-1c2-1 6.5-3 9-4 2.5-1.5 6-3 7-3l2-1h-1c-.5-.5-3.5-1-6-1-2-.5-4.5-1-5-1 0-.5-2-1.5-4-2l-4-1-1 2c0 1-1 4.5-2 7l-1 5z" stroke-linejoin="round"/>
  <path fill="#c4ab58" stroke="#c4ab58" stroke-width=".7" d="M15 693l2 1 3-1 3-1-3-4c-1.5-2.5-4.5-3.5-6-2l-2 2 1 3 2 2z" stroke-linejoin="round"/>
  <path fill="#6f6332" stroke="#6f6332" stroke-width=".7" d="M131 693l3 1 2-4c1.5-2 3-4.5 3-5l1-2v-3c.5-1.5 0-2.5-1-2-.5 0-1.5-.5-2-1v-2l-3 2-3 3v13z" stroke-linejoin="round"/>
  <path fill="#e7b861" stroke="#e7b861" stroke-width=".7" d="M188 693l1 1h3c1.5 0 4-1 5-2l2-2h-1v-1c0-1-2.5-1.5-5-1-2 0-4.5-.5-5-1-.5-1-3-3.5-5-5-1.5-1.5-3.5-2-4-1l-1 2v1l1 1c.5 0 3 2 5 4l4 4zm-119-1v1h1l2-4c1-2.5 1-5.5 0-6-.5-.5-4-1-7-1l-6-1v1c.5 0 1.5.5 2 1 1 .5 2 3 2 5 .5 2 2 4 3 4h3zm41 0l7-5h-2c-.5 0-1.5-1-2-2s-1-2.5-1-3c.5-.5 0-1.5-1-2l-1-1v1c.5.5 1 3.5 1 6s-.5 5.5-1 6zm-7 0l2-1h-1c0-.5 2-5.5 4-10s3.5-9 3-9-3 3.5-5 7l-4 6v1c.5.5 1 2.5 1 4v2z" stroke-linejoin="round"/>
  <path fill="#6f6332" stroke="#6f6332" stroke-width=".7" d="M147 688l9-5h-1c0-.5-1-3-2-5l-2-4c0-.5-2-1.5-4-2l-3-1v2c.5.5 2 1.5 3 2s1 2.5 0 4c-.5 1.5-1 3.5-1 4v3l1 2z" stroke-linejoin="round"/>
  <path fill="#c4ab58" stroke="#c4ab58" stroke-width=".7" d="M208 688l2-4-2-3c-.5-1.5-2-2-3-1s-2 3-2 4v1l1 1h2l1 1h1v1z" stroke-linejoin="round"/>
  <path fill="#f2d86f" stroke="#f2d86f" stroke-width=".7" d="M1037 686l2 1 6-1c3-.5 7-2.5 8-4 1.5-1.5-1.5-3-6-3-4-.5-12-.5-16 0-4 0-9 1-10 2l-2 1 4 1c2 .5 4 1.5 4 2 .5 0 3 .5 5 1h5zm77-1l3-1 3-10c2-5.5 6-17 8-23 2-6.5 5-17.5 6-22 1-5 2-18 2-26 0-8.5 1.5-23.5 3-30 2-7 1.5-19.5-1-25-2.5-6-13-12-21-12-7.5 0-19-2.5-23-5l-7-5-2 1c-.5 0-4 .5-7 1h-5v-1h-3c-1-.5-2.5-1-3-1-.5-.5-.5-2.5 0-4 .5-2 2-4.5 3-5s4-1.5 6-2c2-1 4.5-2 5-2h8c3.5-.5 8-1 9-1l3-1-2-1-4-2c-1-.5-3-2.5-4-4-1-2-2.5-4.5-3-5s-3.5-.5-6 0c-2.5 0-6.5.5-8 1l-3 1v3c.5 1 .5 2 0 2h-13c-.5 0-1-1-1-2l1-2h-3c-1.5 0-4.5 5.5-6 11-1.5 5 1.5 14 6 18 5 4 16.5 9.5 23 11 7 1.5 18.5 6.5 23 10s15 7 21 7c6.5 0 12 7 11 14-.5 7-2.5 21.5-4 29-1.5 7-6.5 18.5-10 23-3 4.5-9.5 10-13 11s-10.5 7-14 12c-3 5-14 10.5-22 11-7.5.5-28.5 1-42 1-13 0-28.5-3.5-31-7l-10-14c-2.5-3.5-8-10.5-11-14l-6-7 4 11c2.5 5.5 8.5 16.5 12 22 3.5 5 15 11 23 12 8 .5 23.5 1 31 1 8-.5 24-.5 32 0 8.5.5 23.5-.5 30-2 6.5-2 12-1 11 2l-1 5-4 4c-1.5 2-3.5 4.5-4 5v2l1 1h1l1-1c.5-.5 2-1.5 3-2 1.5-1 3 .5 3 3l1 4z" stroke-linejoin="round"/>
  <path fill="#e7b861" stroke="#e7b861" stroke-width=".7" d="M41 682l16 2 1-1 1-2-1-2c-.5-1-6-1-11 0l-10 1 2 1 2 1z" stroke-linejoin="round"/>
  <path fill="#c4ab58" stroke="#c4ab58" stroke-width=".7" d="M162 684c3.5-1.5 6-3 7-4s2-2.5 2-3l1-2-4 1c-2 0-5-3-6-6-.5-3.5-4-7.5-7-8l-6-1-1 4-1 3 1 1c1 .5 3.5 2 5 3 2 1 5 2 6 2 1.5 0 1.5 1.5 0 3-1 1-3 2-4 2-.5 0 0 1 1 2l2 2 2 1h2z" stroke-linejoin="round"/>
  <path fill="#4e4624" stroke="#4e4624" stroke-width=".7" d="M140 682v1h6c0-.5.5-2.5 1-4 1-1.5 1-3.5 0-4s-2.5-1.5-3-2v-3c.5-.5 1.5-1 2-1l1-1 1-3 1-4h-1c-.5 0-3 2.5-5 5-1.5 2.5-4 6-5 7l-1 2v2c.5.5 1.5 1 2 1 1-.5 1.5.5 1 2v2z" stroke-linejoin="round"/>
  <path fill="#8e7e40" stroke="#8e7e40" stroke-width=".7" d="M155 682v1h3l-2-2c-1-1-1.5-2-1-2 1 0 3-1 4-2 1.5-1.5 1.5-3 0-3-1 0-4-1-6-2-1.5-1-4-2.5-5-3l-1-1-1 1c-.5 0-1.5.5-2 1v1l3 1c2 .5 4 1.5 4 2l2 4 2 4z" stroke-linejoin="round"/>
  <path fill="#2e2915" stroke="#2e2915" stroke-width=".7" d="M1093 680h11v-2c.5-.5 2.5-3 4-5l4-4h-1c-.5 0-4 1.5-7 3s-7.5 4.5-9 6l-3 2h1zm-607-12l1-9v-27l-1-3v-3l-1 3v21c.5 0 1 4 1 8v10z" stroke-linejoin="round"/>
  <path fill="#e7b861" stroke="#e7b861" stroke-width=".7" d="M1055 660c23-1.5 34-7 37-12 3.5-5 10.5-11 14-12s10-6.5 13-11c3.5-4.5 8.5-16 10-23 1.5-7.5 3.5-22 4-29 1-7-4.5-14-11-14-6 0-16.5-3.5-21-7s-16-8.5-23-10c-6.5-1.5-18-7-23-11-4.5-4-7.5-13-6-18 1.5-5.5 4.5-11 6-11h15l1-1 3-1c1.5-.5 5.5-1 8-1 2.5-.5 5.5-.5 6 0s2 3 3 5c1 1.5 3 3.5 4 4l4 2 2 1 4 1h5l6-7c3-3.5 4-15 2-23l-4-17-13-4c-6-2-19-3-26-2-6.5 1-16.5.5-20-1l-7-3-3 1c-1 .5-2.5 2-3 3 0 .5-2 1-4 1h-13l-1-1h-2c-1-.5-3.5-1-5-1-1.5-.5-3.5-1-4-1h-8c-3.5-.5-7.5-1-8-1h-6l-3 2-3 1-2 8c-1 3.5-5 10.5-8 14-3 3-4.5 10.5-3 15 2 4.5 8.5 8.5 13 8l10-2h1c1-.5 2-1.5 2-2v-1h-2c-.5-.5-2-1-3-1-1-.5-3-1-4-1-1-.5-.5-1.5 1-2s4-.5 5 0c1 0 3 1 4 2l3 1 1 2c.5.5 2 1.5 3 2 1.5 0 4.5 1.5 6 3 1.5 1 3.5 3 4 4s1.5 4.5 2 7l1 5v2c0 .5-.5 4-1 7s-1.5 6-2 6h-2l-1-1-2 7c-1 3.5-8.5 8.5-15 10-6.5 1-18.5 6-24 10l-10 7 2 15c1.5 7.5 3.5 20 4 25l2 9 6 7c3 3.5 8.5 10.5 11 14l10 14c2.5 3.5 18 7 31 7h27zm-964-2h15l-7-1c-3-.5-6.5-.5-7 0l-1 1z" stroke-linejoin="round"/>
  <path fill="#2e2915" stroke="#2e2915" stroke-width=".7" d="M824 655c6-3.5 9.5-6.5 11-8l4-4h1c.5-.5 1-4 1-7s-.5-6.5-1-7v-1l-3 4c-1.5 1.5-7.5 2.5-12 2l-9-1-1 6c-.5 3-.5 7.5 0 9l1 2h2c1 0 4-2 6-4l5-4-2 5c-1 2.5-2.5 6-3 7v1z" stroke-linejoin="round"/>
  <path fill="#df9451" stroke="#df9451" stroke-width=".7" d="M1025 654l9-4-6-2c-3-1.5-5.5-.5-5 2l2 4z" stroke-linejoin="round"/>
  <path fill="#e7b861" stroke="#e7b861" stroke-width=".7" d="M377 641c0-2-.5-7-1-11v-53l-4-6c-1.5-3-3-7-3-8s-.5-4.5-1-7l-1-5v31c.5 4 1 10 1 12l1 4-1 4v13l1 9v2l1 1 1 5c.5 2 2 5.5 3 7l3 2z" stroke-linejoin="round"/>
  <path fill="#2e2915" stroke="#2e2915" stroke-width=".7" d="M852 645c-1-6-1.5-9.5-2-11v-3l-2 6c-.5 2.5 0 6 1 7l3 1zm12 0c8-1.5 12.5-2 14-2h4c.5-.5-3.5-1.5-8-2l-8-1 2-3c1.5-2 1.5-5 0-6l-2-3-2-1-1-2-1 2v2l-2 4c-.5 1.5 0 5.5 1 8l2 4h1z" stroke-linejoin="round"/>
  <path stroke="#000" stroke-width=".7" d="M1036 641l23-2 7-6 7-7-4-7-3-7-9 6-8 5h-13l-13-1-3 4-3 3 8 6 8 6h3z" stroke-linejoin="round"/>
  <path fill="#8e7e40" stroke="#8e7e40" stroke-width=".7" d="M783 640h3l3-2c2-1.5 4.5-3.5 5-4l2-2h-3l-2-1c0-.5-1-1-2-1h-10l-1 2v1c.5 0 .5 1 0 2l-1 1 3-1c2-.5 3.5.5 3 2v3z" stroke-linejoin="round"/>
  <path fill="#2e2915" stroke="#2e2915" stroke-width=".7" d="M351 638v-1h-3l-2-1v-2l1-2c0-.5-1.5-2.5-3-4l-2-3v6l-1 3c-.5 1 1.5 2.5 4 3l6 1z" stroke-linejoin="round"/>
  <path fill="#4e4624" stroke="#4e4624" stroke-width=".7" d="M346 636l5 1v-2c0-1.5.5-3.5 1-4l1-2 1-3c1-2 2-7 2-10v-6l-2 1c-.5 0-2 .5-3 1l-1 1v-1h-3c-1.5 0-3.5.5-4 1-.5 0-2.5 2.5-4 5l-3 5c.5 0 2 .5 3 1l3 1 2 3c1.5 1.5 3 3.5 3 4l-1 2v2z" stroke-linejoin="round"/>
  <path fill="#f2d86f" stroke="#f2d86f" stroke-width=".7" d="M764 636c5-1.5 6.5-2.5 6-3 0-1 2-2 4-2l5-1h9l2-1c1.5-1 4-2 5-2s4.5-.5 7-1l5-1-1 1c0 .5 1 1 2 1h3l2 3 2 2v1h1l9 1c4.5.5 10.5-.5 12-2l3-4h1l1-1h7v-5c0-2.5 3-2 6 1l6 6h1v-2l1-2 2-1c1-.5 3.5-.5 5 0l3 1v-1c.5-.5 2-1.5 3-2 1-1 2-3 2-4s.5-2 1-2l1-1-2-5c-1-3-.5-7 1-8 1.5-1.5 3.5-1 4 1l2 4 2 2c1 .5 3 2.5 4 4s2.5 4.5 3 6l1 2 1 3 1 3h2c1.5-.5 6 0 9 1l7 1-2-4c-.5-2.5-2.5-6.5-4-8l-2-3-2-2c-.5-1-3-4-5-6-2-2.5-4.5-5.5-5-6v-1l-3-4c-1.5-2.5-4-7.5-5-10l-1-5-1-1c0-1-1-5-2-8-1-3.5-2.5-8-3-9l-1-2-1-5-1-5-1 3-1 2 1 9c.5 4.5 1 10.5 1 12l1 3-3-1-2-2-4 4c-1.5 2-3.5 4-4 4v-1l-8-1-7-1-3-2-2-2-3-2-2-2-6 1h-14l-1 3c-.5 1.5-1.5 3.5-2 4l-5 3c-2.5 1-5.5 2-6 2 0-.5-.5-1-1-1h-1l-4-4c-1.5-1.5-4-3.5-5-4l-2-1v3c.5 1 1 3 1 4 .5 1 1 3.5 1 5l1 3 2 4c1 1.5 1 3 0 3-1-.5-3.5-2-5-3s-3.5-2.5-4-3v-18l-1-1v-2l-4 1-3 1-3 6c-1.5 2.5-4 6-5 7l-1 2v-6c0-1.5-.5-4-1-5l-1-2-1 1c-.5.5-2.5 1.5-4 2l-2 1-9 3c-4.5 1-14.5 4-20 6-5.5 1.5-15 8-19 13l-8 10 2 7 2 6 6 2c3 1 8.5 2 11 2h6l3 1c1.5 0 6 .5 9 1 3.5.5 7.5 1.5 8 2l1 1 4 2 5 1z" stroke-linejoin="round"/>
  <path fill="#c4ab58" stroke="#c4ab58" stroke-width=".7" d="M767 636h10l1-1c.5-1 .5-2 0-2v-1l1-2-5 1c-2 0-4 1-4 2 .5.5-1 1.5-3 2l-3 1h3z" stroke-linejoin="round"/>
  <path fill="#2e2915" stroke="#2e2915" stroke-width=".7" d="M329 634c-4.5-2-6-4.5-6-6l1-3-2-8c-1-4.5 3-12 8-15l10-6-13-1-12-1v2c0 .5-1 2-2 3l-1 2-1 3c0 1.5.5 5 1 7l1 4-2 3c-.5 1-1 4.5-1 7l1 5 6 2c3 1 7.5 2 9 2h3z" stroke-linejoin="round"/>
  <path fill="#e7b861" stroke="#e7b861" stroke-width=".7" d="M165 631c10.5-.5 15.5-1.5 17-2l3-2-9 1c-4 0-9.5.5-11 1-1 .5-1.5 1.5-1 2h1zm626 0l5 1h7c1.5-.5 4-2 5-3l3-2h-3c-1 0-2-.5-2-1l1-1-5 1c-2.5.5-6 1-7 1s-3.5 1-5 2l-2 1h1c1 0 2 .5 2 1zm66 0l1-2h3l-6-6c-3-3-6-3.5-6-1v5l4 2 4 2z" stroke-linejoin="round"/>
  <path fill="#2e2915" stroke="#2e2915" stroke-width=".7" d="M287 630c.5-1.5.5-3 0-4l-1-2-2-4c-.5-2 .5-6.5 2-9l3-5c.5-.5 2-2.5 3-4l2-4h-1c-.5-.5-1.5-1-2-1v-1l-1 1v1l-3 5c-1 2.5-4.5 6-7 7l-4 2v2c0 .5 2 3.5 4 6 2 2 4 5 4 6l1 2 1 1 1 1z" stroke-linejoin="round"/>
  <path fill="#8e7e40" stroke="#8e7e40" stroke-width=".7" d="M324 625l2-1h5l5-1 3-5c1.5-2.5 3.5-5 4-5 .5-.5 2.5-1 4-1h3l-1-3c0-1.5-.5-3.5-1-4-.5-1-2-3-3-4l-2-3-2-1-1-1-10 6c-5 3-9 10.5-8 15l2 8z" stroke-linejoin="round"/>
  <path fill="#c4ab58" stroke="#c4ab58" stroke-width=".7" d="M873 625h11c2-.5 5.5-1.5 7-2l4-2-1-2c-.5-1.5-2-4.5-3-6s-3-3.5-4-4l-2-2v1l-3 4-2 3-1 1c-.5 0-1 1-1 2s-1 3-2 4c-1 .5-2.5 1.5-3 2v1zm-157-2c8-1.5 12.5-3 14-4 2-1 2.5-2.5 1-3l-3-2 1-1 2-1h-1c-.5-.5-2-1-3-1s-3.5 1-5 2c-1 1-3.5 2.5-5 3h-3v-1l1 4 1 4z" stroke-linejoin="round"/>
  <path fill="#2e2915" stroke="#2e2915" stroke-width=".7" d="M226 622c6.5-4.5 8.5-6.5 8-7-.5-1-3-.5-5 1s-4 4-4 5l1 1z" stroke-linejoin="round"/>
  <path fill="#df9451" stroke="#df9451" stroke-width=".7" d="M1060 611c9.5-10.5 18-10.5 23-7 5.5 3.5 16 4.5 21 2 5.5-2.5 8.5-10.5 6-16-2-6-10-14.5-16-17-6-3-16.5-10-21-14-4.5-4.5-14.5-12.5-20-16-5-3.5-14.5-5-19-3-4.5 1.5-13.5 7.5-18 12-4 4-14.5 9.5-21 11-6 1.5-15 8.5-18 14-2.5 5.5-2.5 17.5 0 24 2.5 6 11 11.5 17 11 6.5-.5 19.5 1 26 3 7 1.5 20.5 1.5 27 0l13-4z" stroke-linejoin="round"/>
  <path fill="#c4ab58" stroke="#c4ab58" stroke-width=".7" d="M702 612v-4l2 2 3 1 8-10c4-5 13.5-11.5 19-13 5.5-2 15.5-5 20-6l9-3h-9l-4-1c-2-.5-7.5-.5-11 0h-14l-2 1h-1v1c.5.5.5 1.5 0 2l-2 6c-1 2.5-2.5 5.5-3 6l-4 3c-1.5 1.5-3.5 3-4 3h-5c-2 0-5 .5-6 1-.5 0-3 .5-5 1l-4 1-2 1c-1 0-.5 2.5 1 5s3 5.5 3 6l1 1 5-2 5-2z" stroke-linejoin="round"/>
  <path fill="#e7b861" stroke="#e7b861" stroke-width=".7" d="M745 617c-4.5-3.5-8.5-5.5-11-6-2.5-1-7.5-1-10 0-2 .5-5.5 2-7 3l-3 1v1h3c1.5-.5 4-2 5-3 1.5-1 4-2 5-2s2.5.5 3 1h1l-2 1-1 1h1c.5 0 4 .5 7 1 3.5.5 7.5 1.5 8 2h1zm135-2c3.5-5 5-7 5-7v-1l-2-4c-.5-2-2.5-2.5-4-1-1.5 1-2 5-1 8l2 5zm-530-2c2-1.5 3.5-2 4-2l2-1v-1l-1-2c0-1 .5-2.5 1-3l2-1v-5c.5-3-3-4.5-7-3l-8 3 2 3c1 1 2.5 3 3 4 .5.5 1 2.5 1 4l1 3v1z" stroke-linejoin="round"/>
  <path fill="#d46b40" stroke="#d46b40" stroke-width=".7" d="M1053 611c6.5-19.5 10.5-31 12-36 1.5-5.5-2-15-7-19-4.5-4-14-7-19-6s-13 8-16 14c-2.5 6-8 18-11 24-2.5 6 6.5 15 18 18l23 5z" stroke-linejoin="round"/>
  <path fill="#e7b861" stroke="#e7b861" stroke-width=".7" d="M460 599c11-6.5 16.5-14 18-19l4-11v-31l1-7-1-1v-2l-1-7v-47l-1-3v-4l-2 13c-.5 6.5-5.5 15-10 17-4 1.5-15 3-22 3-6.5 0-21 .5-29 1s-22 2.5-28 4l-12 3v20l1 4v2c.5.5 1 2.5 1 4v26c0 3-.5 6.5-1 7v4l1 5 1 4v5l1 4 9-1c5-.5 15 0 20 1 5.5.5 20.5 2.5 30 4l20 2z" stroke-linejoin="round"/>
  <path fill="#8e7e40" stroke="#8e7e40" stroke-width=".7" d="M689 602v1l4-1c2-.5 4.5-1 5-1 1-.5 4-1 6-1h5v-1c.5-1 2.5-4.5 4-7s4.5-7 6-9l3-4h1l2-1h-6c-2.5-.5-5 0-5 1v1l-3 5c-1 2.5-4 5-6 5h-3l-2 1c-.5 0-3 2-5 4s-4.5 5-5 6l-1 1z" stroke-linejoin="round"/>
  <path fill="#c4ab58" stroke="#c4ab58" stroke-width=".7" d="M303 600l9 1 1-2c1-1 2-2.5 2-3v-2l-2-3c-.5-2-6.5-3.5-12-3h-11v4l1 4v1c.5 0 1.5.5 2 1h1l4 1 5 1z" stroke-linejoin="round"/>
  <path fill="#f2d86f" stroke="#f2d86f" stroke-width=".7" d="M710 600c5-4.5 7-6 7-6 .5-.5 2-3.5 3-6l2-6c.5-.5.5-1.5 0-2v-1l-3 4c-1.5 2-4.5 6.5-6 9s-3.5 6-4 7v1h1z" stroke-linejoin="round"/>
  <path fill="#c4ab58" stroke="#c4ab58" stroke-width=".7" d="M796 597c3 1 3-.5 2-2l-2-4v1h-1c-.5 0-2-1-3-2-.5-1.5-1.5-2.5-2-2l-1 1v3c.5.5 2.5 2 4 3l3 2z" stroke-linejoin="round"/>
  <path fill="#8e7e40" stroke="#8e7e40" stroke-width=".7" d="M794 592h2v-1l-1-3c0-1.5-.5-4-1-5 0-1-.5-3-1-4v-3l-1-1v-2l-2 1-1 1v14l1-1c.5-.5 1.5.5 2 2l2 2z" stroke-linejoin="round"/>
  <path stroke="#000" stroke-width=".7" d="M772 588c2-3 4.5-6.5 6-9l3-6v-1l-1-3c0-2-.5-5.5-1-7l-1-4-1-2v-3l2-1c1-1 2-3 2-4v-3l-4-1-3-1h-3c-1.5-.5-4-1-5-1l-2-1-7 2-6 1-4 5-3 4 1 2c.5 1 1.5 2 2 2h6c2.5-.5 6.5 1 8 3l4 4v2c0 .5 1 3 2 5l3 4 1 2c.5 1 1 3.5 1 5v6z" stroke-linejoin="round"/>
  <path fill="#6f6332" stroke="#6f6332" stroke-width=".7" d="M362 588v-51h-1v33l1 18z" stroke-linejoin="round"/>
  <path fill="#e7b861" stroke="#e7b861" stroke-width=".7" d="M0 586c22.5-2 38.5-3 47-3 8.5-.5 23-3.5 29-6 6.5-2.5 19-5.5 25-6 6.5-.5 20.5 0 28 1s22 .5 29-1c7.5-1.5 22-4 29-5 7.5-1 17-8.5 19-15 2-7 8-18 12-22 4-4.5 14.5-10.5 21-12 7-2 21-2.5 28-1 7.5 1.5 22 5 29 7 7 1.5 21.5 4 29 5 7.5.5 20 2.5 25 4l11 3-1-9c0-4.5-.5-10-1-11v-8c0-3-.5-9.5-1-13v-27h-59c-6.5 0-18-1-23-2-5-1.5-16-2.5-22-2-5.5.5-16.5 2-22 3-5 1-14 5-18 8-4 2.5-10 9.5-12 14-1.5 4.5-8 10.5-13 12-4.5 1-14.5 2.5-20 3-5 0-16.5.5-23 1s-18 2.5-23 4c-4.5 1-15.5 3-22 4-6 .5-17 1-22 1-4.5 0-14 1.5-19 3-5 1-15 2.5-20 3-5 0-17.5 1-25 2l-15 1v64z" stroke-linejoin="round"/>
  <path fill="#2e2915" stroke="#2e2915" stroke-width=".7" d="M236 584c3-4.5 6.5-8 9-10l5-4 1-1 2-1 4-1 4-1c.5-.5 4-1 7-1 3-.5 6.5-1 7-1h6v-4h-1l-1-1-1 2c-.5.5-5 1.5-9 2l-7 1-7 1c-3.5.5-8.5 1.5-10 2h-3l2-2c1.5-1 4-2.5 5-3l2-1 1-1h-2l-1-1-2 1c-1 0-3.5.5-5 1-1 0-3 1.5-4 3l-4 4-2 4-1 1 1 1c.5.5 1.5 3.5 2 6l2 4z" stroke-linejoin="round"/>
  <path fill="#e7b861" stroke="#e7b861" stroke-width=".7" d="M338 585l12-3h-3c-1 0-4 1-6 2l-3 1zm468 0c.5 1 3.5 0 6-1l5-3c.5-.5 1.5-2.5 2-4l1-3h-1c0-.5-.5-1.5-1-2 0-.5-.5-1-1-1v-1l-2-1-2-2-3-1-3-2-1 3c-.5 1-1.5 3.5-2 5v12l1 1h1z" stroke-linejoin="round"/>
  <path fill="#c4ab58" stroke="#c4ab58" stroke-width=".7" d="M803 584l2 1-1-1v-7h-1c0-.5-.5-1-1-1 0-.5-2-2-4-3-1.5-1.5-4-3-5-3h-1v5l1 1 2 1c1 .5 3.5 2.5 5 4l3 3zm62-1c.5 1 2.5-1 4-3l4-4-2-6c-.5-3-1-6.5-1-7v-2l-2-1-1-1-3 1-2 1v1c.5.5.5 2 0 3v5c.5 1 .5 2.5 0 3s-.5 2.5 0 4l2 4 1 2zm-646 0c4.5-4.5 7-6.5 8-7l2-2h1l1-1 1-1 2-4 4-4c1-1.5 3-3 4-3 1.5-.5 4-1 5-1l2-1 9-5 9-5-11 3c-5 1.5-15.5 5.5-21 8-5 2.5-11.5 9.5-13 14l-3 9zm50-1l11-1c0-.5 1.5-3 3-5l4-4c.5-.5 0-3.5-1-6s-3-5-4-5l-1-1v6c0 .5-1 1.5-2 2h-2l-2 2-3 3c-.5.5-3.5 1.5-6 2l-5 1-3 1h-2l5 3 5 2h3z" stroke-linejoin="round"/>
  <path fill="#2e2915" stroke="#2e2915" stroke-width=".7" d="M865 583l-3-6c-.5-1.5-.5-3.5 0-4s.5-2 0-3v-3l-4 2c-1.5.5-4 1.5-5 2h-2l-3-3c-1.5-1.5-3.5-2-4-1v2l1 3c1 1 2 2.5 2 3v1l2 2c1.5 1 2.5 2.5 2 3h-1l7 1 8 1zm-383-2l2 1v-40c0-4.5-.5-9.5-1-10v-1l-1 7v43zm272-3v1h9l2-1c1.5-.5 3.5-1.5 4-2l1-1-3-4c-1-2-2-4.5-2-5v-2l-4-4c-1.5-2-5.5-3.5-8-3h-6c-.5 0-1.5-1-2-2l-1-2h-1v3c0 1.5 1.5 3.5 3 4l4 1 1 2c1 1 2.5 5 3 8 .5 2.5.5 5.5 0 6v1z" stroke-linejoin="round"/>
  <path fill="#df9451" stroke="#df9451" stroke-width=".7" d="M376 577v-3l-1-28-1-29v-11c0-3 .5-6 1-6h2v8l12-3c6-1.5 20-3.5 28-4s22.5-1 29-1c7 0 18-1.5 22-3 4.5-2 9.5-10.5 10-17l2-13v-9l1-9-1-8v-13l1-5v-1l9-8c5-4 17.5-9 25-10 8-1 23.5-1 31 0 8 .5 23 2.5 30 4 7.5 1.5 21 5.5 27 8 6 2 19 4 26 4 7.5 0 22.5 1.5 30 3l30 4c7.5 1 22.5 2.5 30 3h28c7 0 21.5.5 29 1 8 .5 24 2 32 3 8 .5 23.5 1 31 1s21-2.5 27-5c6.5-2.5 16-10.5 19-16 3-6 10-16.5 14-21 4.5-4.5 13.5-13 18-17 5-4 15.5-10.5 21-13 6-3 18-6 24-6 6-.5 18 .5 24 2 6.5 1.5 21 3 29 3h16l3 1h4l13 3c7 1 23.5 5.5 33 9l19 6h6l5-1h12c6 0 14.5-3 17-6 3-3 10.5-8 15-10 5-2 14.5-8 19-12 4.5-4.5 10-14 11-19 1.5-5-1.5-14-6-18-4.5-4.5-15-9-21-9s-10.5 2-9 4c1.5 1.5 0 7.5-3 12-3 4-10 11.5-14 15-4 3-13 5.5-18 5-4.5-.5-14.5 1-20 3s-16 1-21-2c-5-3.5-16-6.5-22-6-5.5.5-16 .5-21 0-4.5-.5-14-1-19-1-5-.5-15.5-.5-21 0l-11 1 6-7c3.5-3.5 11.5-9 16-11 5-2 16-5.5 22-7 6.5-1.5 18.5-6 24-9 5.5-3.5 18-6.5 25-6 7.5 0 22-1.5 29-3 7.5-1.5 21.5-5 28-7 6.5-2.5 20.5-5.5 28-6 7.5-1 21.5 0 28 2 6.5 1.5 18 6.5 23 10s14 10 18 13c4 2.5 15 5 22 5 7-.5 19 2 24 5 5.5 3 16.5 9.5 22 13 5.5 3 17.5 8 24 10s19 4.5 25 5c6 0 17.5 1 23 2 5.5.5 18 1 25 1 7.5 0 22.5-.5 30-1l16-2v-35l-15 1c-7.5 0-23 .5-31 1-7.5.5-23.5 1-32 1-8 0-22.5-2-29-4s-20.5-4-28-4c-7 0-19-3.5-24-7-4.5-3.5-15-6-21-5-5.5 1-17-.5-23-3-6-3-17-9.5-22-13s-18-7.5-26-8c-8-1-23 0-30 2-7 1.5-20.5 4.5-27 6-6 1.5-19 4.5-26 6-6.5 1.5-20 4.5-27 6-6.5 1-20.5 3-28 4-7.5.5-21.5 2.5-28 4-6 1.5-17.5 6.5-23 10-5 3.5-15 11-20 15-4.5 4-14.5 11.5-20 15-5 3-15 10-20 14-5 3.5-17 7.5-24 8-6.5.5-21 1-29 1-7.5 0-22.5-1-30-2-7.5-1.5-23.5-3-32-3l-32-2c-7.5-.5-20.5-3.5-26-6-5-2.5-18-4-26-3-7.5 1-23 2.5-31 3-7.5.5-22.5 2-30 3s-23 3-31 4c-8 .5-22.5 1-29 1-6.5-.5-18-4.5-23-8-5-4-17-10-24-12-6.5-2-20.5-5-28-6-7-1.5-22-2.5-30-2-7.5.5-21 4-27 7-5.5 3-11 15-11 24v35c0 8.5-.5 24.5-1 32 0 7-5.5 16-11 18-5.5 1.5-19 3.5-27 4-8 0-24-1-32-2-7.5-1-20 1-25 4-4.5 3-10.5 17.5-12 29l-3 22-2-12c-.5-6.5-1.5-19-2-25 0-6-1-17.5-2-23l-2-22c-.5-6-5-14.5-9-17-3.5-2.5-12.5-5.5-18-6-5-.5-16-1.5-22-2-5.5-.5-16-1.5-21-2-4.5-.5-14.5-2-20-3-5.5-1.5-17-2.5-23-2-5.5.5-16 3-21 5-4.5 1.5-12 6.5-15 10-2.5 3.5-6 13-7 19-1 5.5-3.5 16-5 21-1 5-7.5 10.5-13 11-5.5 0-16-.5-21-1-5-1-16-2-22-2-5.5 0-17 .5-23 1-5.5.5-17 2-23 3-5.5 1-17 2.5-23 3-5.5.5-16.5 0-22-1l-20-4c-5-1.5-15-4-20-5l-10-2v79l15-1c7.5-1 20-2 25-2 5-.5 15-2 20-3 5-1.5 14.5-3 19-3 5 0 16-.5 22-1 6.5-1 17.5-3 22-4 5-1.5 16.5-3.5 23-4s18-1 23-1c5.5-.5 15.5-2 20-3 5-1.5 11.5-7.5 13-12 2-4.5 8-11.5 12-14 4-3 13-7 18-8 5.5-1 16.5-2.5 22-3 6-.5 17 .5 22 2 5 1 16.5 2 23 2h59l1 2 2 1v8c.5 3.5 1 9.5 1 12l1 5v4c0 1.5.5 7 1 11 .5 3.5 1 8 1 9v9c0 3.5.5 10 1 13l1 5v5l1 5c.5 2.5 1 6 1 7s1.5 5 3 8l4 6z" stroke-linejoin="round"/>
  <path fill="#2e2915" stroke="#2e2915" stroke-width=".7" d="M803 576l1 1v-5c.5-1.5 1.5-4 2-5l1-3-1-4v-5l-1 3-1 3-2 3c-.5 1-2 2.5-3 3-1 0-3.5 1-5 2l-2 1h1c1 0 3.5 1.5 5 3 2 1 4 2.5 4 3h1z" stroke-linejoin="round"/>
  <path fill="#8e7e40" stroke="#8e7e40" stroke-width=".7" d="M261 576c7.5-1.5 10.5-2.5 11-3l3-3 2-2h-14l-2 3-1 2c.5 0 1 1 1 2v1z" stroke-linejoin="round"/>
  <path fill="#2e2915" stroke="#2e2915" stroke-width=".7" d="M378 575v-43l-1-4v-4h-1l-1-3-1-4 1 29 1 28v-41 3c.5 1.5 1 7.5 1 12v20l1 7z" stroke-linejoin="round"/>
  <path stroke="#000" stroke-width=".7" d="M789 574v1l1-1 2-1v-3l2-1c1.5-1 4-2 5-2 1-.5 2.5-2 3-3l2-3 1-3 1-3v5l1 4 3 2 3 1 2 2 2 1 1-2c.5-1.5 1-3.5 1-4v-1l-1-2-1-2v-3c0-1.5-.5-4-1-5l-1-2h-2l-1 4v4l-2-3c-.5-1.5-3.5-3.5-6-4l-4-2-3-2c-1.5-1.5-4.5-3-6-3l-2-1-1 1-1 1h1l-1 4c0 1.5-1 4-2 5l-1 1v4l1 4v3c0 1 .5 3 1 4l2 2v2l1 1z" stroke-linejoin="round"/>
  <path fill="#c4ab58" stroke="#c4ab58" stroke-width=".7" d="M829 574l11-1-1-1c0-.5-1.5-3.5-3-6l-2-5h-1c0-.5-.5-1.5-1-2v-1h-1c0-.5-1-2-2-3-1-1.5-2.5-3-3-3h-3c0-.5-2-1.5-4-2l-4-1 1 2c.5 1 1 3.5 1 5v3l1 2 1 2 2 1c1 0 3.5 1 5 2s2.5 3.5 2 5v3h1z" stroke-linejoin="round"/>
  <path fill="#2e2915" stroke="#2e2915" stroke-width=".7" d="M819 573l1 1h8v-3c.5-1.5-.5-4-2-5s-4-2-5-2l-2-1v1c0 .5-.5 2.5-1 4l-1 2v1c.5 0 1 .5 1 1l1 1zm-38-1v1l3-1 4-1-2-2c-.5-1-1-3-1-4v-3l-1-4v-4l-1 1c-.5 0-2 1-3 2-.5.5-1.5 1-2 1l1 4c.5 1.5 1 5 1 7l1 3z" stroke-linejoin="round"/>
  <path fill="#c4ab58" stroke="#c4ab58" stroke-width=".7" d="M378 572c.5-1.5 1-5 1-8v-26c0-1.5-.5-3.5-1-4v-2 40z" stroke-linejoin="round"/>
  <path fill="#f2d86f" stroke="#f2d86f" stroke-width=".7" d="M962 569c15.5-11 27.5-16 34-17 6.5-1.5 14-6.5 15-10l2-7h-2c-1-.5-2.5-1-3-1l-1-1-5 1c-2.5 0-6-.5-7-1l-1-1-2-2c-.5-1-2-2.5-3-3-.5-.5-3-2-5-3-1.5-1.5-3.5-3-4-3l-2 9-2 8-2-9-2-10-5 11c-2 5.5-4.5 18-5 25v14z" stroke-linejoin="round"/>
  <path stroke="#000" stroke-width=".7" d="M242 567c4.5-.5 9.5-1.5 13-2l7-1 7-1c4-.5 8.5-1.5 9-2l1-2h-7c-1-.5-6-.5-10 0-3.5.5-8 1-9 1h-1l-1 1-2 1c-1 .5-3.5 2-5 3l-2 2z" stroke-linejoin="round"/>
  <path fill="#4e4624" stroke="#4e4624" stroke-width=".7" d="M253 568h26c1-.5 2-1.5 2-2v-2h-6c-.5 0-4 .5-7 1-3 0-6.5.5-7 1l-4 1-4 1z" stroke-linejoin="round"/>
  <path fill="#e7b861" stroke="#e7b861" stroke-width=".7" d="M616 566c.5-10.5 1-15 1-16l1-2v-12l-1 1c-.5.5-1 4.5-1 8s-.5 7-1 7h-1v5l1 4v4l1 1z" stroke-linejoin="round"/>
  <path fill="#2e2915" stroke="#2e2915" stroke-width=".7" d="M859 560l3 1 2-1 3-1-2-1c-1-.5-4-2.5-6-4l-3-4c0-.5.5-3.5 1-6l1-5-2 3-1 2-1 4c-.5 1.5.5 5.5 2 8l3 4z" stroke-linejoin="round"/>
  <path fill="#8e7e40" stroke="#8e7e40" stroke-width=".7" d="M779 558c2-2 3.5-3 4-3l1-1 1-1c1-1 2-3.5 2-5l1-4h-1v2c0 1-1.5 1.5-3 1l-3-2v3c0 1-1 3-2 4l-2 1v3l1 2h1z" stroke-linejoin="round"/>
  <path fill="#2e2915" stroke="#2e2915" stroke-width=".7" d="M812 557l1-8-1-1c0-1-.5-3.5-1-5s0-3 1-3c1-.5 2.5-1 3-1l2-1h-2l-1-1 3-2 3-2-8 1c-3.5.5-9.5 1-12 1l-5-1-1 2c0 .5-1.5 1-3 1-1 0-2 1.5-2 3v2l2 1c1.5 0 4.5 1.5 6 3l3 2 4 2c2.5.5 5.5 2.5 6 4l2 3zm19 0l1 1 1-3c.5-2 .5-5 0-6v-6l1-4-3 1c-1.5 0-4 1-5 2l-2 1-1 1v2c.5.5 1.5 2.5 2 4l1 2c.5 0 2 1.5 3 3l2 2z" stroke-linejoin="round"/>
  <path fill="#e7b861" stroke="#e7b861" stroke-width=".7" d="M219 555c5-6 8.5-8 10-8 2 0 3-2 2-4-.5-2.5-3-3-5-1l-6 8c-1 2-2 4.5-2 5h1z" stroke-linejoin="round"/>
  <path fill="#f2d86f" stroke="#f2d86f" stroke-width=".7" d="M616 552c0-10.5.5-14.5 1-15l1-1-1-7v-14c.5-4 1-10.5 1-13l1-5v-2c.5-1.5 1-7 1-11l1-9-6 1c-3 .5-8-2-10-5-1.5-3.5-7.5-9.5-12-12-4-2.5-15-6.5-22-8-6.5-2-18.5-3-24-2-5 .5-15.5 2.5-21 4-5 1.5-16.5 5.5-23 8l-12 4 4-1c2-.5 2.5 3 1 7l-3 7-1 3c0 1.5-.5 4.5-1 6v4l1 2c1 1 4 0 6-2l5-5 1-1 2-1 4-5 5-5-4 5-3 4 2 1c1.5.5 3.5 2 4 3l2 1v2c.5.5 4.5 1 8 1 4 0 8.5-.5 9-1l1-1 2-4c1.5-2 3.5-6.5 4-9l2-5h2l6 6c3.5 3 9 7 11 8s4.5 3 5 4l2 2 6-5c3.5-3 9.5-5 12-4 2.5.5 5.5 1.5 6 2h5l3-1v-2c0-1 1-1 2 0 1.5 1 3 3.5 3 5l1 3v5c.5 2.5 1 9 1 13l1 7 1 9c.5 4 1 10 1 12l1 3v4c.5 2 1.5 5.5 2 7l1 3h2z" stroke-linejoin="round"/>
  <path fill="#8e7e40" stroke="#8e7e40" stroke-width=".7" d="M743 553h1l3-4 4-5 6-1 7-2-1-1c0-1-2-2-4-2h-4l-5 3c-2.5 1-6 3.5-7 5l-2 2 1 3 1 2zm80-2c0 1 .5 1 1 1h2l-1-2c-.5-1.5-1.5-3.5-2-4v-2l1-1-5-1-4-1 2-1 2-2h-2l-2 1c-.5 0-2 .5-3 1-1 0-1.5 1.5-1 3s1 4 1 5l1 1h2l4 1 4 1z" stroke-linejoin="round"/>
  <path fill="#c4ab58" stroke="#c4ab58" stroke-width=".7" d="M787 548v-4l1-1 1-1v-2c0-1.5 1-3 2-3 1.5 0 3-.5 3-1l1-2-9 1h-21l-11-1v3l1 1h4c2 0 4 1 4 2l1 1 2 1c1 0 3.5.5 5 1h3l3 1 4 1 3 2 3 1z" stroke-linejoin="round"/>
  <path fill="#2e2915" stroke="#2e2915" stroke-width=".7" d="M1358 546l8-5h-1c-.5 0-2 .5-3 1-1 0-3-1.5-4-3-.5-2-1-5-1-6v-3h-1v-1l-1 5c0 2.5.5 7 1 9l2 3z" stroke-linejoin="round"/>
  <path fill="#f2d86f" stroke="#f2d86f" stroke-width=".7" d="M824 543c3-2 5.5-3 7-3l3-1 3-1 4-1v-1c.5-.5 4-2 7-3s6.5-2.5 7-3l2-1-1-9c-.5-5 3.5-7 8-4 5 3 10.5 7 11 8l2 2 1-3 1-4 1-7c1-3.5 2-9.5 2-12l1-5v-2c.5-1.5 2-6.5 3-10s2-7.5 2-8l1-1 3-4c1.5-2 4-6 5-8l3-4 1-1c.5-1 2.5-4.5 4-7 2-2.5 4.5-6 5-7l1-2 2-3c1-2 3.5-6.5 5-9l3-5 4-2c2-1.5 5-4 6-5l2-2 2-3c1-1.5 3.5-5.5 5-8l4-5 1-1 2-2 1-2c1-1 2.5-2 3-2l6-3c2.5-1.5 5.5-3 6-3l1-1 1-1c.5-.5 3-2 5-3 2.5-1.5 5.5-3 6-3l1-1h1v-1c.5-.5 3-1.5 5-2l6-3c1-.5 2.5-1 3-1l1-1h-11c-5.5-.5-15 1.5-19 4-3.5 2-10.5 7.5-14 11-3.5 3-11 7.5-15 9-4 1-11.5 5.5-15 9-3.5 3-8 11.5-9 17-1 5-5 12.5-8 15-3 2-8 8-10 12s-7 11.5-10 15c-2.5 3-8.5 9.5-12 13-3 3-11 8-16 10-4.5 1.5-14.5 4.5-20 6-5 1-16 3-22 4-6 .5-23.5.5-35 0-11-1-26-4-30-6s-12.5-5-17-6-13-4-17-6c-3.5-2.5-13-6-19-7s-17-3-22-4-16-2-22-2c-5.5-.5-15.5 2-20 5l-8 5h1v3c0 1.5 1.5 6 3 9l4 5v-3l4 1h4v-1c0-1 1-3.5 2-5 1.5-1.5 3.5-2.5 4-2 1 .5.5 2.5-1 4-1 1.5-1 3.5 0 4l4 2 2 1-1 1c0 .5 2 3.5 4 6l4 4 6 2c3 1 8 1.5 10 1l5-1 2-1c1-.5 2.5-.5 3 0h4l4-1-7-3c-3.5-2-5-5-3-6 2.5-1 7-.5 9 1l5 3 2 1c1.5 0 3.5.5 4 1s1 1.5 1 2l1 1 4 3c2.5 1.5 6 3.5 7 4h2v1h4c1-.5 2.5-1 3-1 1-.5 4 0 6 1 2 .5 4.5 1.5 5 2h2l-4 2-4 2-2 1c-.5 0-1.5.5-2 1v2h6c3.5 0 8 1 9 2l2 1 3 3c1.5 1 5 3.5 7 5l4 3 11 1h21l9-1 5 1c2.5 0 8.5-.5 12-1l8-1h6l3-1c2-1 4.5-1 5 0l1 1-7 3c-3 1-7 2-8 2h-1l-2 2-2 1 4 1 5 1z" stroke-linejoin="round"/>
  <path fill="#4e4624" stroke="#4e4624" stroke-width=".7" d="M1360 542c3-.5 4.5-1 5-1h1l1-1 1-2-6-4-5-4v3c0 1 .5 4 1 6l2 3z" stroke-linejoin="round"/>
  <path fill="#2e2915" stroke="#2e2915" stroke-width=".7" d="M850 539c7.5-3.5 11.5-5 13-5h4l3-1c2-1 4.5-2.5 5-3l1-2h-3c-1 0-3.5 1-5 2-1 .5-3.5 1-5 1-1.5-.5-4-1-5-1l-1-1-2 1c-.5.5-4 2-7 3s-6.5 2.5-7 3v1l3 1h4l1 1h1z" stroke-linejoin="round"/>
  <path fill="#c4ab58" stroke="#c4ab58" stroke-width=".7" d="M976 538l4-17-3-1c-1-.5-3-1-4-1h-1l2 10 2 9z" stroke-linejoin="round"/>
  <path stroke="#000" stroke-width=".7" d="M814 537l3 1h3c1 0 5-1 8-2l7-3-1-1c-.5-1-3-1-5 0l-3 1h-6l-3 2-3 2z" stroke-linejoin="round"/>
  <path fill="#f2d86f" stroke="#f2d86f" stroke-width=".7" d="M1368 538c1.5-19.5 0-32.5-2-39-2-7-9-17.5-14-21l-10-8 4 6c2 2.5 3.5 10.5 3 16s1 17.5 3 24c2 6 4 12.5 4 13v1h1l5 4 6 4z" stroke-linejoin="round"/>
  <path fill="#c4ab58" stroke="#c4ab58" stroke-width=".7" d="M1016 536c.5 0 1.5-3 2-6s1-6.5 1-7v-2h-2c-.5 0-1.5-.5-2-1l-1-1v3c0 1-1 2-2 2h-2l-2 5-1 4 1 1c.5 0 2 .5 3 1h2l1 1h2z" stroke-linejoin="round"/>
  <path fill="#2e2915" stroke="#2e2915" stroke-width=".7" d="M994 532c-1.5-8-5.5-11.5-9-12-3.5-1-8.5-1.5-10-1h-3 1c1 0 3 .5 4 1l3 1c.5 0 2.5 1.5 4 3 2 1 4.5 2.5 5 3 1 .5 2.5 2 3 3l2 2z" stroke-linejoin="round"/>
  <path fill="#4e4624" stroke="#4e4624" stroke-width=".7" d="M860 530c4.5 1 7 .5 8 0 1.5-1 4-2 5-2h3v-1l1-1-2-2c-.5-1-6-5-11-8-4.5-3-8.5-1-8 4l1 9 1 1h2z" stroke-linejoin="round"/>
  <path fill="#2e2915" stroke="#2e2915" stroke-width=".7" d="M1073 528c8-.5 11.5-1 12-1l2-1-4-4-4-4-2 2c-.5.5-1.5 2.5-2 4s-1.5 3-2 3v1z" stroke-linejoin="round"/>
  <path fill="#e7b861" stroke="#e7b861" stroke-width=".7" d="M793 526l10-5h-2c-.5 0-3 1.5-5 3l-3 2z" stroke-linejoin="round"/>
  <path fill="#c4ab58" stroke="#c4ab58" stroke-width=".7" d="M1068 526l5 1c.5 0 1.5-1.5 2-3s1.5-3.5 2-4l2-2 2-2 3-2h-1v-1h-2c-.5 0-3 1-5 2-2 .5-5 1.5-6 2s-2.5 3-3 5c-.5 1.5-.5 3.5 0 4h1z" stroke-linejoin="round"/>
  <path fill="#2e2915" stroke="#2e2915" stroke-width=".7" d="M698 525l3-3-1-3c-.5-2-1.5-6.5-2-9l-1-6 2-1 3-1-1-1c0-.5-.5-1.5-1-2s-2.5-1-4-1l-2-1-2 3-2 2-4 1h-3v1c.5.5 2 3.5 3 6l3 5 1 1c.5 0 2.5 2.5 4 5l4 4z" stroke-linejoin="round"/>
  <path stroke="#000" stroke-width=".7" d="M376 524h1v-24h-2c-.5 0-1 3-1 6v11l1 4 1 3z" stroke-linejoin="round"/>
  <path fill="#f2d86f" stroke="#f2d86f" stroke-width=".7" d="M1010 524c3 0 4-1 4-2v-3l-1-2c-.5-1-3.5-4-6-6-2-2-6-5-8-6l-4-3-10 2c-4.5.5-11-3.5-13-8-1.5-4.5 0-12 3-15 3-3.5 7-10.5 8-14l2-8-9 9c-4.5 4-9.5 15-10 22s5 16 11 18c6 1.5 17 6.5 22 10l11 6z" stroke-linejoin="round"/>
  <path fill="#c4ab58" stroke="#c4ab58" stroke-width=".7" d="M1399 523l5-8h-6c-1.5-.5-3.5-1.5-4-2 0-.5-1.5-3-3-5-1-2.5-3-5.5-4-6l-1-1-4 2c-1.5.5-2 2.5-1 4l2 3 1 2c1 1 5 4 8 6l6 4v1h1z" stroke-linejoin="round"/>
  <path fill="#8e7e40" stroke="#8e7e40" stroke-width=".7" d="M713 521h7l3-1v-2c.5-.5 1.5-1 2-1l2-1c0-.5-.5-1.5-1-2l-2-2c-.5-.5-2.5-1-4-1l-2-1h-2l-2 3c-1 1.5-2 4.5-2 6l1 2z" stroke-linejoin="round"/>
  <path fill="#2e2915" stroke="#2e2915" stroke-width=".7" d="M1016 521h3l-1-5c-.5-2.5-1.5-6-2-7s-2.5-3-4-4c-1.5-1.5-4.5-3-6-3-1-.5-2.5-1.5-3-2l-1-2-2 1h-2v1c0 .5-1 1.5-2 2h-1l4 3c2 1 6 4 8 6 2.5 2 5.5 5 6 6l1 2 1 1 1 1z" stroke-linejoin="round"/>
  <path fill="#f2d86f" stroke="#f2d86f" stroke-width=".7" d="M1402 515h2l-1-3v-4l-2-6c-.5-3-2-7-3-8l-2-3v-2c0-1.5 1-5 2-7 1-2.5 2-6 2-7l1-2 2-3c1.5-2 3.5-4 4-4l2-1v-1c0-1-1-3.5-2-5l-3-6-3-6-1-4v-2c0-1 1-3.5 2-5l3-4-2-2-2-3-1-2c0-1.5.5-4 1-5 1-1 3.5-1 5 0 2 .5 4.5 1.5 5 2 1 .5.5 1.5-1 2l-2 1 1 1c1 0 2 1 2 2 0 .5 1 1.5 2 2 1.5 0 5 .5 7 1 2 0 4 .5 4 1l3 1h4l1-1h4l4-1v-41l-6 3c-3 1.5-17.5 1.5-29 0-11-2-27.5-7-33-10-5-3.5-14-6-18-5-3.5.5-10.5-3-14-7-3-4-11.5-8.5-17-9-5.5-1-16-5-21-8l-18-12c-4.5-3.5-14-8-19-9-4.5-1.5-13.5-5.5-18-8-4-2.5-12.5-2.5-17 0-4.5 2-14.5 9-20 14l-10 9 1 3c1 1 1.5 3 1 4 0 .5.5 1 1 1h11c1 0 3 .5 4 1h4l4 1c2.5 0 7.5-.5 10-1l5-1h-7c-1-.5-3-1-4-1s-2-1-2-2v-5l1-2h-2c-.5-.5-.5-1.5 0-2s1-1.5 1-2c.5-1 1.5-3.5 2-5l1-3v2c.5.5 2.5 1.5 4 2l4 1h5c1.5 0 2 1.5 1 3-.5 1.5-1.5 3.5-2 4l3 2 3 1 3 5c1.5 2.5 1.5 8 0 11-1.5 2.5-2.5 8-2 11l1 5 2 5c1 2.5 2.5 6 3 7l2 2 2 3c1.5 1 4 5.5 5 9l2 6 1 8c1 3.5 2.5 9 3 11l2 3 1-2c.5-1.5.5-7.5 0-12l-1-9v-3l-2-3c-1-2-3-5.5-4-7l-2-4 1-3c.5-2 5-2 9 0 4.5 2 8 5 7 6-1 .5-3 1-4 1h-1l-2 1c-.5 0-.5 1 0 2 1 1 2 2.5 2 3v1l3 6 3 5 2 6c1 2.5 3.5 6.5 5 8l3 3v-2c0-1-.5-4-1-6v-5l-1-2-2-6v-3l1-3 2-3 1-2c1-1.5 3-2.5 4-2 1 0 4 .5 6 1l4 1 3 1c1.5 0 4 1 5 2 1.5.5 2.5 2.5 2 4 0 1 .5 2.5 1 3h1l1 1 2 1 3 1c2 .5 3.5 1.5 3 2s-3.5 1-6 1-5.5.5-6 1c0 .5-1 .5-2 0l-2-2-1 2c0 1 .5 3 1 4l2 1-5 1c-2 .5-5.5 1-7 1l-2-1-1 1-1 1 1 1c.5.5 4 2.5 7 4 3 1 6.5 3 7 4l1 2 4 2c2 1 6.5 1.5 9 1l6-1 5-3c3-1.5 8-2.5 10-2h4l1-3c1-1.5 2-4 2-5l1-3h-1c-.5-.5-1.5-2-2-3 0-1-.5-2.5-1-3 0-.5 1.5-2 3-3s3-2.5 3-3v-3l-4-6-4-7 8 3 8 2 2 4c1 1.5 2.5 3 3 3l2-1v-1l-1-2c0-1-.5-3-1-4v-5l-9-4c-4.5-2-16.5-4.5-24-5l-14-1 15-1 16-1 11 2c6 1 13.5 5.5 15 9l3 7 1 2c1 .5 3 4.5 4 8l2 6 1 7c.5 3.5 1 9 1 11l1 4 1 1c.5.5 1 2 1 3 .5.5 1 4.5 1 8 0 3-.5 7-1 8-.5.5-2.5 2-4 3l-3 1-2 2c-.5.5-1.5 1-2 1h-1l-2 3c-1 1-2.5 4-3 6 0 2-.5 4-1 4v1l1 7c1 3 3 8 4 10l2 3v1h1l1 1c1 .5 3 3.5 4 6 1.5 2 3 4.5 3 5 .5.5 2.5 1.5 4 2h4z" stroke-linejoin="round"/>
  <path fill="#e7b861" stroke="#e7b861" stroke-width=".7" d="M727 515v1l4-2 4-2h-2c-.5-.5-3-1.5-5-2-2-1-5-1.5-6-1-.5 0-2 .5-3 1h-1l2 1c1.5 0 3.5.5 4 1l2 2 1 1z" stroke-linejoin="round"/>
  <path fill="#f2d86f" stroke="#f2d86f" stroke-width=".7" d="M1110 512c12.5-12 14.5-22.5 12-29-2-6.5-5-14-6-15l-2-3 4 17c2 8 1 19.5-2 23l-6 7zm15-1c8-3 12-7 13-10 1.5-3 2.5-6 2-6h-1l-3 1c-1.5.5-3.5 1-4 1l-1 2c-.5.5-2.5 4-4 7l-3 5h1z" stroke-linejoin="round"/>
  <path fill="#c4ab58" stroke="#c4ab58" stroke-width=".7" d="M1059 506h12c.5 0 .5-1 0-2v-3l-1 1h-12l-1 2c0 1 .5 2 1 2h1z" stroke-linejoin="round"/>
  <path fill="#d46b40" stroke="#d46b40" stroke-width=".7" d="M372 454c14-9 26.5-11 34-10 8 1 24 2 32 2 8-.5 21.5-2.5 27-4 5.5-2 11-11 11-18 .5-7.5 1-23.5 1-32v-35c0-9 5.5-21 11-24 6-3 19.5-6.5 27-7 8-.5 23 .5 30 2 7.5 1 21.5 4 28 6 7 2 19 8 24 12 5 3.5 16.5 7.5 23 8 6.5 0 21-.5 29-1 8-1 23.5-3 31-4s22.5-2.5 30-3c8-.5 23.5-2 31-3 8-1 21 .5 26 3 5.5 2.5 18.5 5.5 26 6l32 2c8.5 0 24.5 1.5 32 3 7.5 1 22.5 2 30 2 8 0 22.5-.5 29-1 7-.5 19-4.5 24-8 5-4 15-11 20-14 5.5-3.5 15.5-11 20-15 5-4 15-11.5 20-15 5.5-3.5 17-8.5 23-10 6.5-1.5 20.5-3.5 28-4 7.5-1 21.5-3 28-4 7-1.5 20.5-4.5 27-6 7-1.5 20-4.5 26-6 6.5-1.5 20-4.5 27-6 7-2 22-3 30-2 8 .5 21 4.5 26 8s16 10 22 13c6 2.5 17.5 4 23 3 6-1 16.5 1.5 21 5 5 3.5 17 7 24 7 7.5 0 21.5 2 28 4s21 4 29 4c8.5 0 24.5-.5 32-1 8-.5 23.5-1 31-1l15-1v-72h-15c-7-.5-22.5-.5-31 0-8.5 0-25 1-33 2-8 .5-24 2-32 3l-30 4c-7 1-16.5-4-19-10s-1.5-16 2-20c3.5-4.5 15-9.5 23-10 8-1 23-3.5 30-5 7.5-1.5 15-7 15-11 0-4.5-8.5-9-17-9-8-.5-24.5-.5-33 0-8 .5-22.5 1.5-29 2-6 .5-20.5 1.5-29 2-8 .5-24 2-32 3-8 .5-22.5 3-29 5s-15.5 8.5-18 13c-2 4.5 4 10 12 11 8 .5 24 .5 32 0 8-1 23.5-2.5 31-3s18.5 4 22 9c3.5 4.5 3.5 13 0 17-3.5 3.5-15.5 7.5-24 8-8 .5-24.5 1.5-33 2-8 .5-24.5 1.5-33 2h-31c-7 0-21 2-28 4-6.5 2-19 6.5-25 9-6 2-19 5.5-26 7-6.5 1.5-20 1.5-27 0s-18.5-7-23-11c-4.5-4.5-16.5-10.5-24-12-7-1.5-22.5-3-31-3l-34-2c-8-.5-24.5-1-33-1-8-.5-23.5-1.5-31-2-7-.5-22.5-.5-31 0-8 .5-24.5 1.5-33 2-8.5 0-25.5.5-34 1-8 .5-24.5 1.5-33 2-8 0-24.5.5-33 1-8 .5-24 .5-32 0l-15-1 6-3c3-2 12.5-6 19-8 7-2 14-6.5 14-9s-8-5-16-5c-7.5 0-20.5 3-26 6-5.5 2.5-17 7.5-23 10-5.5 2.5-18.5 4.5-26 4-7.5-1-22.5-2-30-2s-23-.5-31-1c-8-1-24.5-1.5-33-1-8.5 0-19.5 6-22 12-2.5 5.5-5 20-5 29 0 8.5-1.5 24-3 31s-9.5 14.5-16 15c-6.5 0-20.5-1.5-28-3-7-1.5-22.5-3-31-3-8 0-19.5 5.5-23 11-3.5 5-8 20-9 30l-1 20-2-16c-.5-8-2-24-3-32-.5-8-3.5-22-6-28-2.5-6.5-12-12.5-19-12-6.5.5-19 3.5-25 6s-19.5 6-27 7c-7.5.5-21.5-1-28-3-6.5-2.5-20-7-27-9-6.5-2-18 0-23 4-5 3.5-12.5 13.5-15 20-2 6-11 13.5-18 15-7 1-20.5.5-27-1-6.5-2-21.5-4-30-4-8 0-24 1-32 2-7.5 1-23 2-31 2s-24.5-2-33-4l-16-5v122l10 2c5 1 15 3.5 20 5l20 4c5.5 1 16.5 1.5 22 1 6-.5 17.5-2 23-3 6-1 17.5-2.5 23-3 6-.5 17.5-1 23-1 6 0 17 1 22 2 5 .5 15.5 1 21 1 5.5-.5 12-6 13-11 1.5-5 4-15.5 5-21 1-6 4.5-15.5 7-19 3-3.5 10.5-8.5 15-10 5-2 15.5-4.5 21-5 6-.5 17.5.5 23 2 5.5 1 15.5 2.5 20 3 5 .5 15.5 1.5 21 2 6 .5 17 1.5 22 2 5.5.5 14.5 3.5 18 6 4 2.5 8.5 11 9 17l2 22c1 5.5 2 17 2 23 .5 6 1.5 18.5 2 25l2 12 3-22 3-23z" stroke-linejoin="round"/>
  <path fill="#4e4624" stroke="#4e4624" stroke-width=".7" d="M546 501l8-2h1c0-.5.5-1 1-1h10v-1h-1v-2h-2c-.5-.5-4-1.5-7-2-2.5-.5-5.5-1-6-1-.5-.5-2.5-2-4-3l-2-3h-1c-.5 0-1 1-1 2v2l1 5c1 2.5 2 5.5 2 6h1z" stroke-linejoin="round"/>
  <path fill="#2e2915" stroke="#2e2915" stroke-width=".7" d="M562 501l15-1 6-1c3-.5 7-2 8-3l2-3-1-1-1-1-3 1h-3l1 1h1l-2 2c-.5.5-5 1.5-9 2-3.5.5-8 1-9 1h-11c-.5 0-1 .5-1 1l3 1 4 1z" stroke-linejoin="round"/>
  <path fill="#e7b861" stroke="#e7b861" stroke-width=".7" d="M690 502l4-5-5-3c-2-1.5-6.5-2-9-1-2 1-.5 4 3 6l7 3z" stroke-linejoin="round"/>
  <path fill="#2e2915" stroke="#2e2915" stroke-width=".7" d="M1409 499c7.5-2 11.5-4 13-5l4-2-6 3c-3 1.5-7.5 3.5-9 4h-2z" stroke-linejoin="round"/>
  <path fill="#f2d86f" stroke="#f2d86f" stroke-width=".7" d="M995 498l3 1h2l2-1-3-1c-1-1-3-2-4-2-1-.5-3.5-.5-5 0s-2 1.5-1 2c1 0 3 .5 4 1h2z" stroke-linejoin="round"/>
  <path stroke="#000" stroke-width=".7" d="M566 497v1h1c1 0 5.5-.5 9-1 4-.5 8.5-1.5 9-2l2-2h-1l-1-1-7 1h-8l-3 1h-2v3h1z" stroke-linejoin="round"/>
  <path fill="#8e7e40" stroke="#8e7e40" stroke-width=".7" d="M1133 497l6-2h1c.5-.5 2-3 3-5 1.5-2 1-6.5-1-9s-4.5-5-5-5l-1-1v3c.5 1 .5 3 0 4s-2 2.5-3 3l-2 1v4c.5 2 1 5 1 6v1h1z" stroke-linejoin="round"/>
  <path fill="#e7b861" stroke="#e7b861" stroke-width=".7" d="M800 495c18-2 29-4 34-5 5.5-1.5 15.5-4.5 20-6 5-2 13-7 16-10 3.5-3.5 9.5-10 12-13 3-3.5 8-11 10-15s7-10 10-12c3-2.5 7-10 8-15 1-5.5 5.5-14 9-17 3.5-3.5 11-8 15-9 4-1.5 11.5-6 15-9 3.5-3.5 10.5-9 14-11 4-2.5 13.5-4.5 19-4h11l5 2c2.5 1 5.5 2.5 6 3h1l4 1h5l3-1c2-.5 5-2 6-3l3-2 3-1c1.5-.5 4-1.5 5-2l2-1h-4c-1.5-.5-2.5-1.5-2-2l1-1h-16c-8 0-22.5-1.5-29-3-6-1.5-18-2.5-24-2-6 0-18 3-24 6-5.5 2.5-16 9-21 13-4.5 4-13.5 12.5-18 17-4 4.5-11 15-14 21-3 5.5-12.5 13.5-19 16-6 2.5-19.5 5-27 5s-23-.5-31-1c-8-1-24-2.5-32-3-7.5-.5-22-1-29-1h-28c-7.5-.5-22.5-2-30-3l-30-4c-7.5-1.5-22.5-3-30-3-7 0-20-2-26-4-6-2.5-19.5-6.5-27-8-7-1.5-22-3.5-30-4-7.5-1-23-1-31 0-7.5 1-20 6-25 10l-9 8 2 5c1 2 2 7 2 10l1 6v3c0 1-.5 6-1 10v16l1 2 1-2c1-1 3 0 4 2 1 1.5 2 3.5 2 4l3-7c1.5-4 1-7.5-1-7l-4 1 12-4c6.5-2.5 18-6.5 23-8 5.5-1.5 16-3.5 21-4 5.5-1 17.5 0 24 2 7 1.5 18 5.5 22 8 4.5 2.5 10.5 8.5 12 12 2 3 7 5.5 10 5l6-1v-1l1-1 8-5c4.5-3 14.5-5.5 20-5 6 0 17 1 22 2s16 3 22 4 15.5 4.5 19 7c4 2 12.5 5 17 6s13 4 17 6 19 5 30 6l23 1z" stroke-linejoin="round"/>
  <path fill="#8e7e40" stroke="#8e7e40" stroke-width=".7" d="M562 494l3 1v-1h2l3-1-1-1-1-1-2-2c-.5-1-3-3-5-4s-7.5-5-11-8l-6-6-1 4v8l1 3 2 3c1.5 1 3.5 2.5 4 3 .5 0 3.5.5 6 1l6 1z" stroke-linejoin="round"/>
  <path fill="#4e4624" stroke="#4e4624" stroke-width=".7" d="M571 493l14-1h3l3-1 1-3 2-4h-2c-.5-.5-3.5-1.5-6-2-2.5-1-8.5 1-12 4l-6 5 1 1 1 1h1z" stroke-linejoin="round"/>
  <path fill="#e7b861" stroke="#e7b861" stroke-width=".7" d="M643 492l2 1 2-1 2-1-2-1-4-2c-1-.5-1-2.5 0-4 1.5-1.5 2-3.5 1-4-.5-.5-2.5.5-4 2-1 1.5-2 4-2 5v1l2 2 3 2z" stroke-linejoin="round"/>
  <path fill="#df9451" stroke="#df9451" stroke-width=".7" d="M1058 487c25.5-.5 38.5-4.5 43-8 4.5-4 3.5-9.5-2-11-5.5-2-18.5-3-26-2-7 .5-20.5 1-27 1-6 0-20-.5-28-1-8-1-20 1-24 4-4 2.5-3 8.5 2 12 5.5 3.5 23.5 6.5 36 6l26-1z" stroke-linejoin="round"/>
  <path fill="#8e7e40" stroke="#8e7e40" stroke-width=".7" d="M489 488l2 1v-2c.5-1.5 1-4.5 1-6l1-3c0-.5-1-2.5-2-4-1-2-3-3-4-2l-1 2 1 5c.5 2 1 5.5 1 7l1 2z" stroke-linejoin="round"/>
  <path fill="#c4ab58" stroke="#c4ab58" stroke-width=".7" d="M1131 485v1l2-1c1-.5 2.5-2 3-3s.5-3 0-4v-3l-3-2c-1.5-1.5-5-3.5-7-4s-2.5 2-1 5c1.5 2.5 3.5 6.5 4 8l2 3zm-625-1l2-1 3-4 4-5-5 5-4 5z" stroke-linejoin="round"/>
  <path fill="#e7b861" stroke="#e7b861" stroke-width=".7" d="M530 481c3-6.5 1.5-10-1-11l-4-2 2 4c1.5 1.5 2 4 1 5-1 .5-1 2 0 3l2 1z" stroke-linejoin="round"/>
  <path fill="#c4ab58" stroke="#c4ab58" stroke-width=".7" d="M1379 479c.5-6 2-9 3-10l2-3h-1c0-.5-2-1-4-1l-3-1-3 2c-1.5 1-3.5 3-4 4l-1 1 4 2c2 1 4.5 3 5 4l1 2h1z" stroke-linejoin="round"/>
  <path fill="#f2d86f" stroke="#f2d86f" stroke-width=".7" d="M1205 470c4.5-2 6-4.5 6-6l1-3-4-4c-1.5-2-4.5-6.5-6-9-1-3 1-6 4-6l6-1 1-11c.5-6-1-18.5-3-25l-4-14-2 6c-1 2.5-3 12-4 19-.5 6.5-3.5 19.5-6 26-2 6.5-.5 17 3 21l8 7z" stroke-linejoin="round"/>
  <path fill="#2e2915" stroke="#2e2915" stroke-width=".7" d="M1361 472l7-1 1-1c.5-1 2.5-3 4-4l3-2-1-2c-.5-1-3 0-5 2-2 1.5-4.5 3-5 3 0-.5-.5-1.5-1-2v-7l1-7 1-1-1-1v-1l-3-2c-1.5-1-4 1-5 4l-1 6v2c0 .5-1.5 2-3 3-1 1-3.5 2-5 2h-3l3 2c1.5 1 5.5 3.5 8 5l5 2z" stroke-linejoin="round"/>
  <path fill="#4e4624" stroke="#4e4624" stroke-width=".7" d="M1366 467c6-5 8.5-6 9-5l1 2 3 1c2 0 4 .5 4 1h2c.5 0 1.5-.5 2-1l2-2v-2c0-1-.5-2.5-1-3v-1h-1v-2c0-.5-1.5-3.5-3-6l-2-5-1 1-1 1c0 .5-2.5 2.5-5 4-2 1-4.5 2-5 2v-5l-2 2-2 1-1 1-1 7v7c.5.5 1 1.5 1 2h1z" stroke-linejoin="round"/>
  <path fill="#2e2915" stroke="#2e2915" stroke-width=".7" d="M1414 467l3 1 1-1 2-2h-1c0-.5.5-1.5 1-2l1-2 1-1c0-.5-2-1-4-1-2-.5-5-1.5-6-2l-4-4-3-6c-.5-1-2-2.5-3-3l-2-1 1 4 3 6 3 6c1 1.5 2 4 2 5v1l2 1 3 1z" stroke-linejoin="round"/>
  <path fill="#8e7e40" stroke="#8e7e40" stroke-width=".7" d="M1419 464l1 1 5-1c2.5-1 6.5-2 8-2l3-1 2-1 2-1v-28l-4 1h-4v1c.5 0 1 2 1 4 0 1.5-1.5 4.5-3 6l-4 4c-.5 1-1.5 4-2 6 0 2-.5 5-1 6l-1 1-1 1-1 2-1 1z" stroke-linejoin="round"/>
  <path fill="#2e2915" stroke="#2e2915" stroke-width=".7" d="M1389 462v1l3-1c1.5-1 3.5-2.5 4-3 .5-1 1-5 1-8 0-3.5-.5-7.5-1-8 0-1-.5-2.5-1-3l-1-1v3l-2 4c-1 1.5-2.5 5-3 7l-1 4v1c.5.5 1 2 1 3v1z" stroke-linejoin="round"/>
  <path fill="#c4ab58" stroke="#c4ab58" stroke-width=".7" d="M1035 460c5 0 7-.5 7-1 .5-1 2-2.5 3-3l3-1h-1l-1-1h-4c-1.5 0-4.5.5-6 1s-5 2-7 3c-1.5.5-3.5 1-4 1h-1l1 1h10z" stroke-linejoin="round"/>
  <path fill="#e7b861" stroke="#e7b861" stroke-width=".7" d="M1212 461v-20l-6 1c-3 0-5 3-4 6 1.5 2.5 4.5 7 6 9l4 4z" stroke-linejoin="round"/>
  <path fill="#6f6332" stroke="#6f6332" stroke-width=".7" d="M1422 459v1l1-1c.5-1 1-4 1-6 .5-2 1.5-5 2-6l4-4c1.5-1.5 3-4.5 3-6 0-2-.5-4-1-4v-1l-1 1h-4l-3-1h-19l-3 4c-1 1.5-2 4-2 5v2l2 1c1 .5 2.5 2 3 3l3 6 4 4c1 .5 4 1.5 6 2h4z" stroke-linejoin="round"/>
  <path fill="#2e2915" stroke="#2e2915" stroke-width=".7" d="M1020 458l4 1h1c.5 0 2.5-.5 4-1 2-1 5.5-2.5 7-3s4.5-1 6-1h4-1c0-.5-4-.5-8 0s-12 1-16 1h-14c-3 0-8.5.5-11 1h-5 6c.5 0 4.5.5 8 1h8c.5 0 2.5.5 4 1h3z" stroke-linejoin="round"/>
  <path fill="#f2d86f" stroke="#f2d86f" stroke-width=".7" d="M1370 452c.5 0 3-1 5-2 2.5-1.5 5-3.5 5-4l1-1 1-1-2-3-2-3h-1c0-.5-2-3.5-4-6l-4-5v18l1 2v5zm-148-13c5-6 6.5-12 6-16 0-4-1-9-2-10s-3-1-4 0c-1 .5-2 5-2 9 .5 4 1 10.5 1 13l1 4zm38 0c1.5-9.5 1.5-16 1-19l-1-7h-1c0-.5-1-1-2-1-.5 0-1.5 3-2 6l-1 5v1c0 .5 1 4 2 7 1.5 3 3 6.5 3 7l1 1z" stroke-linejoin="round"/>
  <path fill="#e7b861" stroke="#e7b861" stroke-width=".7" d="M1410 432h14c0-.5-2-1-4-1-2-.5-5.5-1-7-1-1-.5-2-1.5-2-2 0-1-1-2-2-2l-1-1-2 1c-1 0-3 .5-4 1h-1l2 3 2 2h5z" stroke-linejoin="round"/>
  <path fill="#f2d86f" stroke="#f2d86f" stroke-width=".7" d="M1089 427c.5-9 0-14.5-1-17-1-3-3.5-4.5-5-3-1 1-1 5 0 8 1.5 3 3.5 7.5 4 9l2 3z" stroke-linejoin="round"/>
  <path fill="#e7b861" stroke="#e7b861" stroke-width=".7" d="M1295 426l3 1 1-1 1-1-1-1v-2c0-.5-1.5-1-3-1h-2v3l1 2z" stroke-linejoin="round"/>
  <path fill="#c4ab58" stroke="#c4ab58" stroke-width=".7" d="M1401 427c2-.5 4-1 5-1l2-1 2-1c1.5-.5 2-1.5 1-2-.5-.5-3-1.5-5-2-1.5-1-4-1-5 0-.5 1-1 3.5-1 5l1 2zm-101-2c3.5 1 7 .5 9 0l5-1-2-1c-.5-1-1-3-1-4l1-2v-1c0-.5-1-1-2-1-.5-.5-3-2-5-3-1.5-1-3.5-1-4 0-.5.5-3.5 1-6 1-2 0-4.5-.5-5-1 0-1-.5-2-1-2v3l2 6 1 2h4c1.5 0 3 .5 3 1v2l1 1z" stroke-linejoin="round"/>
  <path fill="#2e2915" stroke="#2e2915" stroke-width=".7" d="M1252 423h2l1-5c.5-3 1.5-6 2-6 1 0 2 .5 2 1h1l-3-3c-1-2-5-3-8-2-2.5.5-3.5 3-2 5 2 2 4 5.5 4 7l1 3zm102 0l2 1 3-3 3-3v1h2c.5-.5 0-2-1-3l-1-3-2-1-2-2v2c0 .5-1.5 2-3 3s-3 2.5-3 3c.5.5 1 2 1 3l1 2z" stroke-linejoin="round"/>
  <path fill="#f2d86f" stroke="#f2d86f" stroke-width=".7" d="M1188 408l-2-5-1-4c-.5-2 .5-6.5 2-9l4-5-3-6c-1-3.5-2.5-9-3-11v-4h-3l-3-1-6 5c-2.5 2-12 7.5-19 11l-13 6 1 3 2 3 2-2 2-3v2c.5 1 .5 4.5 0 7 0 2.5-.5 6.5-1 8-.5 1-1.5 2-2 2h-1l-1 4v4l1 1 3-1c2-.5 5.5-2 7-3l4-3 1-1c.5-1 1.5-5.5 2-9 .5-4 2-8 3-8h3l3 3c1.5 1 3.5 0 4-2l2-5v-1c0-1 1-5 2-8l2-6-1 3v8c.5 2 .5 7.5 0 11l-1 6 2 7c1.5 3 3.5 7.5 4 9l2 3 1-4 1-5z" stroke-linejoin="round"/>
  <path fill="#8e7e40" stroke="#8e7e40" stroke-width=".7" d="M1316 420c.5-1.5 3.5-2 6-2s5.5-.5 6-1-1-1.5-3-2l-3-1h-3c0-.5-2.5-2.5-5-4s-9-3-13-3c-4-.5-8.5-1.5-9-2v-1l-2 3-1 3c.5 0 1 1 1 2 .5.5 3 1 5 1 2.5 0 5.5-.5 6-1 .5-1 2.5-1 4 0 2 1 4.5 2.5 5 3 1 0 2 .5 2 1v1l2 2 2 1z" stroke-linejoin="round"/>
  <path fill="#c4ab58" stroke="#c4ab58" stroke-width=".7" d="M1319 413c.5 1 1.5 1 2 1h1l-2-1-1-1h-2l-2-2-4-4c-1-1.5-2.5-3-3-3h-1v-1l-4-1c-2-.5-5-1-6-1-1-.5-3 .5-4 2l-1 2v1c.5.5 5 1.5 9 2 4 0 10.5 1.5 13 3l5 3z" stroke-linejoin="round"/>
  <path fill="#e7b861" stroke="#e7b861" stroke-width=".7" d="M1316 411l3 1h-1c-.5-.5-1-2-1-3 .5-1.5-.5-3.5-2-4-1-1-3.5-2-5-2l-3-1v1h1c.5 0 2 1.5 3 3l4 4 1 1z" stroke-linejoin="round"/>
  <path fill="#2e2915" stroke="#2e2915" stroke-width=".7" d="M1133 408l6-7c.5-.5 2 .5 3 2l2 2h1c.5 0 1.5-1 2-2 .5-1.5 1-5.5 1-8 .5-2.5.5-6 0-7v-2l-2 3-2 2v1l-6 2c-2.5 1-6.5 3.5-8 5l-2 2 1 3 3 3 1 1z" stroke-linejoin="round"/>
  <path fill="#c4ab58" stroke="#c4ab58" stroke-width=".7" d="M1273 409l4-3v-1c0-.5-1-2-2-3-.5-1-.5-2 0-2l2-1-3-2c-1-1-3.5-2-5-2h-4l2 4c1 1.5 3 5 4 7l2 3z" stroke-linejoin="round"/>
  <path fill="#2e2915" stroke="#2e2915" stroke-width=".7" d="M1358 409c0-4.5 1-6 2-6l3-1h1l2-1-8-2-8-3 4 7 4 6z" stroke-linejoin="round"/>
  <path fill="#8e7e40" stroke="#8e7e40" stroke-width=".7" d="M1373 406c3-8 5.5-9.5 7-8l3 2v1h1l-3-7c-1.5-3.5-9-8-15-9l-11-2 1 2c.5.5 4 1.5 7 2 3 0 6.5.5 7 1 1 .5 1.5 2 1 3v9c.5 1 1 3 1 4l1 2zm-89-10c-13-6-17.5-6-18-4l-1 3h4c1.5 0 4 1 5 2l3 2h1c1 0 3-.5 4-1l2-2z" stroke-linejoin="round"/>
  <path fill="#2e2915" stroke="#2e2915" stroke-width=".7" d="M1031 402c1.5-9.5.5-13-1-13-1.5-.5-2.5 2.5-2 6 1 3 2 6.5 2 7h1z" stroke-linejoin="round"/>
  <path fill="#e7b861" stroke="#e7b861" stroke-width=".7" d="M1428 396l12-6v-46l-16 2c-7.5.5-22.5 1-30 1-7 0-19.5-.5-25-1-5.5-1-17-2-23-2-6-.5-18.5-3-25-5s-18.5-7-24-10c-5.5-3.5-16.5-10-22-13-5-3-17-5.5-24-5-7 0-18-2.5-22-5-4-3-13-9.5-18-13s-16.5-8.5-23-10c-6.5-2-20.5-3-28-2-7.5.5-21.5 3.5-28 6-6.5 2-20.5 5.5-28 7-7 1.5-21.5 3-29 3-7-.5-19.5 2.5-25 6-5.5 3-17.5 7.5-24 9-6 1.5-17 5-22 7-4.5 2-12.5 7.5-16 11l-6 7 11-1c5.5-.5 16-.5 21 0 5 0 14.5.5 19 1 5 .5 15.5.5 21 0 6-.5 17 2.5 22 6 5 3 15.5 4 21 2s15.5-3.5 20-3c5 .5 14-2 18-5 4-3.5 11-11 14-15 3-4.5 4.5-10.5 3-12-1.5-2 3-4 9-4s16.5 4.5 21 9c4.5 4 7.5 13 6 18-1 5-6.5 14.5-11 19-4.5 4-14 10-19 12-4.5 2-12 7-15 10-2.5 3-11 6-17 6h-12v1l2 2h1l7 1c3.5.5 7 1.5 7 2h5l5-1 13-6c7-3.5 16.5-9 19-11l6-5v-3c.5-1.5 3-4 5-5 2.5-1 5.5-2.5 6-3s3-1.5 5-2l4-2h1l10-9c5.5-5 15.5-12 20-14 4.5-2.5 13-2.5 17 0 4.5 2.5 13.5 6.5 18 8 5 1 14.5 5.5 19 9l18 12c5 3 15.5 7 21 8 5.5.5 14 5 17 9 3.5 4 10.5 7.5 14 7 4-1 13 1.5 18 5 5.5 3 22 8 33 10l23 3z" stroke-linejoin="round"/>
  <path fill="#4e4624" stroke="#4e4624" stroke-width=".7" d="M947 396l8-2c0-.5.5-1.5 1-2l2-1c.5 0 2-1.5 3-3l3-3-1 1c-.5 0-3.5 1.5-6 3l-6 3c-.5 0-2 1-3 2l-1 2z" stroke-linejoin="round"/>
  <path fill="#c4ab58" stroke="#c4ab58" stroke-width=".7" d="M1353 387l18 8v-4c.5-1 0-2.5-1-3-.5-.5-4-1-7-1-3-.5-6.5-1.5-7-2l-1-2-16 1-15 1 14 1 15 1z" stroke-linejoin="round"/>
  <path fill="#2e2915" stroke="#2e2915" stroke-width=".7" d="M955 393v1l4-1 5-2 1-1c.5-.5 4-1.5 7-2 3.5-.5 7.5-1.5 8-2l2-2h-2c-.5-.5-1.5-2.5-2-4v-3h-1l-1 1c-.5 0-3.5 1.5-6 3-2 1-4.5 2.5-5 3l-1 1-3 3c-1 1.5-2.5 3-3 3l-2 1-1 1z" stroke-linejoin="round"/>
  <path fill="#6f6332" stroke="#6f6332" stroke-width=".7" d="M1090 392h17c0-.5-1-1-2-1h-6l-4-1c.5 0 2-.5 3-1l3-2-1 1-2 1c-.5 0-3.5.5-6 1l-4 1 1 1h1z" stroke-linejoin="round"/>
  <path fill="#2e2915" stroke="#2e2915" stroke-width=".7" d="M1107 391v1h7c3.5 0 8-1 9-2l3-2 2-1 3-1c0-.5-3.5-1.5-7-2l-7-1-1 1-4 2-6 3c-1 0-2.5.5-3 1v1h4zm-22-1l3 1 4-1c2.5-.5 5.5-1 6-1l2-1 1-1-1-2-1-3h-16v7l1 1h1z" stroke-linejoin="round"/>
  <path fill="#4e4624" stroke="#4e4624" stroke-width=".7" d="M1095 390l8 1v-1c.5-.5 2-1 3-1l6-3 4-2 1-1h-1l-2-2v-1l-5 1h-6v1h-4l1 3 1 2-3 2c-1 .5-2.5 1-3 1z" stroke-linejoin="round"/>
  <path fill="#c8422e" stroke="#c8422e" stroke-width=".7" d="M365 339c10.5-15.5 22-21 30-21 8.5 0 24 1.5 31 3 7.5 1.5 21.5 3 28 3 6.5-.5 14.5-8 16-15s3-22.5 3-31c0-9 2.5-23.5 5-29 2.5-6 13.5-12 22-12 8.5-.5 25 0 33 1 8 .5 23.5 1 31 1s22.5 1 30 2c7.5.5 20.5-1.5 26-4 6-2.5 17.5-7.5 23-10 5.5-3 18.5-6 26-6 8 0 16 2.5 16 5s-7 7-14 9c-6.5 2-16 6-19 8l-6 3 15 1c8 .5 24 .5 32 0 8.5-.5 25-1 33-1 8.5-.5 25-1.5 33-2 8.5-.5 25.5-1 34-1 8.5-.5 25-1.5 33-2 8.5-.5 24-.5 31 0 7.5.5 23 1.5 31 2 8.5 0 25 .5 33 1l34 2c8.5 0 24 1.5 31 3 7.5 1.5 19.5 7.5 24 12 4.5 4 16 9.5 23 11s20.5 1.5 27 0c7-1.5 20-5 26-7 6-2.5 18.5-7 25-9 7-2 21-4 28-4h31c8.5-.5 25-1.5 33-2 8.5-.5 25-1.5 33-2 8.5-.5 20.5-4.5 24-8 3.5-4 3.5-12.5 0-17-3.5-5-14.5-9.5-22-9s-23 2-31 3c-8 .5-24 .5-32 0-8-1-14-6.5-12-11 2.5-4.5 11.5-11 18-13s21-4.5 29-5c8-1 24-2.5 32-3 8.5-.5 23-1.5 29-2 6.5-.5 21-1.5 29-2 8.5-.5 25-.5 33 0 8.5 0 17 4.5 17 9 0 4-7.5 9.5-15 11-7 1.5-22 4-30 5-8 .5-19.5 5.5-23 10-3.5 4-4.5 14-2 20s12 11 19 10l30-4c8-1 24-2.5 32-3 8-1 24.5-2 33-2 8.5-.5 24-.5 31 0h15V134h-2c-1-.5-3-2-4-3-.5-1.5-1.5-3.5-2-4 0-1 1.5-2.5 3-3l4-1h1V84l-13 5c-6.5 2-15 9.5-17 15-2 5-9 13.5-14 17-4.5 3.5-17 8-25 9-8 .5-23 .5-30 0-7-1-21.5-1-29 0s-28 1-41 0c-12.5-1-29.5-4-34-6l-16-10c-4-2.5-13.5-6-19-7-5.5-1.5-16-4.5-21-6-4.5-1.5-14-5-19-7l-18-8c-4-2-13-6-18-8l-18-8c-4-2-12-7-16-10-3.5-3-11.5-4.5-16-3-4 1-13 .5-18-1l-20-6c-5-1.5-15.5-4.5-21-6-5-1.5-15-4-20-5-5-1.5-15.5-4.5-21-6-5-1.5-15.5-4-21-5-5-1-15.5-3-21-4-5.5-1.5-16.5-4-22-5-5-1-15.5-3-21-4-5.5-1.5-17.5-3-24-3-6-.5-18.5-.5-25 0h-25c-6.5 0-19-.5-25-1-6-1-17-4-22-6l-9-5h-33l9 4c5 1.5 16 5 22 7 6.5 2 19.5 6.5 26 9 6.5 2 20 5.5 27 7s22.5 3.5 31 4c8.5 0 25 1 33 2 8 .5 23 2.5 30 4 7.5 1.5 23 4 31 5 8 .5 23 2.5 30 4s21 5 28 7c7 1.5 21 5 28 7l28 6c7.5 1.5 21 4 27 5 6 .5 18 3.5 24 6s10 8.5 8 12c-1.5 3.5-10 8-17 9-7 .5-22 .5-30 0l-32-4-30-4c-7-1.5-22.5-3-31-3-8.5-.5-24.5 0-32 1-7.5.5-23.5 1.5-32 2-8.5 0-25 1-33 2l-32 2c-8 .5-23.5 0-31-1-7.5-1.5-23-4-31-5-7.5-1-23-2.5-31-3-8-1-25-2-34-2-8.5 0-25 1-33 2-7.5.5-23 2-31 3-7.5 1-23 3-31 4-7.5 1-22 3-29 4-6.5 1-22 2-31 2-8.5 0-25.5.5-34 1h-33c-8.5-.5-19.5 5.5-22 12-2.5 6-7 16.5-9 21-2 4-1.5 14.5 1 21 2.5 6 8 16.5 11 21 3.5 4 15.5 8 24 8h70c9 0 21.5 4 25 8 3.5 3.5 2 10-3 13s-18 7-26 8c-8 .5-24.5 1.5-33 2h-34c-8.5-.5-28.5 0-40 1s-29.5 2-36 2h-26c-6.5 0-19.5.5-26 1-6 0-17-1.5-22-3-4.5-2-15-4.5-21-5-6-1-17-3.5-22-5-4.5-1.5-14.5-2-20-1-5.5.5-16.5 1-22 1-5 0-13.5-3.5-17-7-3-3.5-10-9.5-14-12s-13.5-6-19-7-15 .5-19 3c-3.5 2-8.5 9-10 14s-7.5 12-12 14-15.5 4.5-22 5c-6 .5-18 .5-24 0-5.5-.5-16.5-2.5-22-4l-20-6c-4.5-1.5-14.5-3.5-20-4l-22-4c-5-1.5-17.5-4.5-25-6l-15-4v135l16 5c8.5 2 25 4 33 4s23.5-1 31-2c8-1 24-2 32-2 8.5 0 23.5 2 30 4 6.5 1.5 20 2 27 1 7-1.5 16-9 18-15 2.5-6.5 10-16.5 15-20 5-4 16.5-6 23-4 7 2 20.5 6.5 27 9 6.5 2 20.5 3.5 28 3 7.5-1 21-4.5 27-7s18.5-5.5 25-6c7-.5 16.5 5.5 19 12 2.5 6 5.5 20 6 28 1 8 2.5 24 3 32l2 16 1-20 2-20z" stroke-linejoin="round"/>
  <path fill="#c4ab58" stroke="#c4ab58" stroke-width=".7" d="M979 383l3 1 5-1 12-2 6-1h1c.5-.5.5-2 0-3l-1-3h-1c-.5-.5-3.5-2-6-3l-5-2-1 1c-.5 0-2 .5-3 1l-6 3c-2 .5-4.5 1.5-5 2v4l1 3z" stroke-linejoin="round"/>
  <path fill="#e7b861" stroke="#e7b861" stroke-width=".7" d="M1099 382h4v-1l-19-6c-9.5-3.5-26-8-33-9l-13-3 6 1c3 0 6 .5 6 1l1 1 4 2c2.5 1 6 3 7 4l2 1 5 2 6 2 4 3 5 2h15z" stroke-linejoin="round"/>
  <path fill="#2e2915" stroke="#2e2915" stroke-width=".7" d="M1249 383l2-2-1-5c-.5-3 .5-8.5 2-11 1.5-3 1.5-8.5 0-11l-3-5v6c0 1.5-.5 4.5-1 6l-1 3-7 2c-3 1-6.5 3-7 4l-1 2 2 2 9 6 6 3z" stroke-linejoin="round"/>
  <path fill="#c4ab58" stroke="#c4ab58" stroke-width=".7" d="M1064 373c-3-2-6.5-4-9-5l-4-2-2 1c-.5 0-3 .5-5 1h-3l2-1 2-1h-3c-1.5 0-3.5-.5-4-1v-2h-4l-3-1-1 1c-.5.5.5 1.5 2 2h4l-2 1c-1 .5-3.5 1.5-5 2l-3 1h9l2 2c1.5.5 7 2 11 3l8 1 4-1 4-1z" stroke-linejoin="round"/>
  <path fill="#d46b40" stroke="#d46b40" stroke-width=".7" d="M1124 359c-18-5-29-7.5-34-8-5-1-16-1.5-22-1-6 0-8.5 3.5-5 7 4 3 13.5 8 19 10 6 2 19.5 1 27-2l15-6z" stroke-linejoin="round"/>
  <path fill="#2e2915" stroke="#2e2915" stroke-width=".7" d="M1210 372l7-5h-2l-1-1-2 1h-7c-2.5-.5-6-.5-7 0h-1l2 2 3 2 1-1c1-.5 3 0 4 1l3 1z" stroke-linejoin="round"/>
  <path fill="#8e7e40" stroke="#8e7e40" stroke-width=".7" d="M1041 368c5-.5 7.5-1 8-1l2-1-1-1c0-.5-3-1-6-1l-6-1v2c.5.5 2.5 1 4 1h3l-2 1-2 1zm156-1c2-.5 5.5-.5 8 0h7l2-1-1-1-1-2h-3c-1.5-.5-4-1-5-1-.5-.5-.5-2 0-3l1-3h-2c-.5 0-1-.5-1-1 .5-1 0-3-1-4l-1-3h-1l-4 2c-2 .5-4.5 1.5-5 2s-3.5 2-6 3c-2 1-4.5 3.5-5 5v3l3 1h3l2 1c1.5 0 4.5.5 6 1l4 1z" stroke-linejoin="round"/>
  <path fill="#2e2915" stroke="#2e2915" stroke-width=".7" d="M1206 362l6 1 3-1c1.5-.5 3.5-2 4-3l2-2h-3c-1-.5-3-1-4-1h-9l-1 3c-.5 1-.5 2.5 0 3h2z" stroke-linejoin="round"/>
  <path fill="#d46b40" stroke="#d46b40" stroke-width=".7" d="M1166 341l11-12-12 1c-6 0-15.5 5.5-19 11l-6 11 13-5 13-6zm-130 16c-1-10.5-7-15-13-16-6-1.5-13.5 1-15 5-1 4 5.5 9 13 10l15 1z" stroke-linejoin="round"/>
  <path fill="#c4ab58" stroke="#c4ab58" stroke-width=".7" d="M1232 355c3 1 5 1 6 1h3v-3h-1c0-.5.5-2.5 1-4l2-3c.5-.5 1.5-2.5 2-4 1-1.5.5-3-1-3h-5l-2 1c-.5 0-2.5 1.5-4 3l-3 3h-1l-1 2v5c0 1 1 2 2 2h2z" stroke-linejoin="round"/>
  <path fill="#e7b861" stroke="#e7b861" stroke-width=".7" d="M1226 345l3 1h1l3-3c1.5-1.5 3.5-3 4-3l2-1-4-1c-1.5-.5-3.5-1.5-4-2v-2l-1 3c-.5 1.5-1.5 4-2 5 0 .5-.5 1.5-1 2l-1 1z" stroke-linejoin="round"/>
  <path fill="#8e7e40" stroke="#8e7e40" stroke-width=".7" d="M1130 302l15 1v-1h1l-5-1-4-2v-1l-4 2-3 2z" stroke-linejoin="round"/>
  <path fill="#c4ab58" stroke="#c4ab58" stroke-width=".7" d="M1145 302v1l6-2 6-2v-1h-1v-5h-3c-1.5 0-6.5 1.5-10 3l-6 2v1l4 2 5 1h-1z" stroke-linejoin="round"/>
  <path stroke="#000" stroke-width=".7" d="M1156 297l1 1h25l-7-3-6-3-7 1h-6v4z" stroke-linejoin="round"/>
  <path fill="#c8422e" stroke="#c8422e" stroke-width=".7" d="M656 285c25.5-.5 41-1.5 48-2l14-2-13-3c-6-1.5-20.5-2.5-29-2-8 0-24 1-32 2l-16 1 14 3 14 3z" stroke-linejoin="round"/>
  <path fill="#d46b40" stroke="#d46b40" stroke-width=".7" d="M750 224c9.5-1.5 14.5-4 16-6 2-2 1-4.5-2-5s-9.5 0-13 1c-3.5.5-5.5 3.5-4 6l3 4z" stroke-linejoin="round"/>
  <path fill="#bd191c" stroke="#bd191c" stroke-width=".7" d="M479 212c25.5 1 42.5 1 51 1 8.5-.5 25-1.5 33-2 8-1 21-5 26-8s6.5-9.5 3-13c-3.5-4-16-8-25-8h-70c-8.5 0-20.5-4-24-8-3-4.5-8.5-15-11-21-2.5-6.5-3-17-1-21 2-4.5 6.5-15 9-21 2.5-6.5 13.5-12.5 22-12h33c8.5-.5 25.5-1 34-1 9 0 24.5-1 31-2 7-1 21.5-3 29-4 8-1 23.5-3 31-4 8-1 23.5-2.5 31-3 8-1 24.5-2 33-2 9 0 26 1 34 2 8 .5 23.5 2 31 3 8 1 23.5 3.5 31 5 7.5 1 23 1.5 31 1l32-2c8-1 24.5-2 33-2 8.5-.5 24.5-1.5 32-2 7.5-1 23.5-1.5 32-1 8.5 0 24 1.5 31 3l30 4 32 4c8 .5 23 .5 30 0 7-1 15.5-5.5 17-9 2-3.5-2-9.5-8-12s-18-5.5-24-6c-6-1-19.5-3.5-27-5l-28-6c-7-2-21-5.5-28-7-7-2-21-5.5-28-7s-22-3.5-30-4c-8-1-23.5-3.5-31-5-7-1.5-22-3.5-30-4-8-1-24.5-2-33-2-8.5-.5-24-2.5-31-4s-20.5-5-27-7c-6.5-2.5-19.5-7-26-9-6-2-17-5.5-22-7l-9-4H0v14h65c7 0 20 .5 26 1 6 0 18 1 24 2 6 .5 17.5 1 23 1 6 0 18 1 24 2 6 .5 16.5-.5 21-2 5-1.5 16-3.5 22-4 6-1 18-1.5 24-1 6 0 17.5 1.5 23 3 6 1 16.5 3.5 21 5 5 1.5 14 5.5 18 8 4.5 2.5 10 9.5 11 14 1.5 4.5-.5 12.5-4 16-3 3.5-10.5 9-15 11-4 2-13.5 5.5-19 7l-22 4c-5 1-15.5 3.5-21 5-5.5 1-16 3.5-21 5-5 1-18.5 4-27 6-8 2-24 3.5-32 3s-24-.5-32 0c-7.5.5-23 1.5-31 2-8 0-24-.5-32-1-8-1-23.5-2-31-2L0 98v88l15 4c7.5 1.5 20 4.5 25 6l22 4c5.5.5 15.5 2.5 20 4l20 6c5.5 1.5 16.5 3.5 22 4 6 .5 18 .5 24 0 6.5-.5 17.5-3 22-5s10.5-9 12-14 6.5-12 10-14c4-2.5 13.5-4 19-3s15 4.5 19 7 11 8.5 14 12c3.5 3.5 12 7 17 7 5.5 0 16.5-.5 22-1 5.5-1 15.5-.5 20 1 5 1.5 16 4 22 5 6 .5 16.5 3 21 5 5 1.5 16 3 22 3 6.5-.5 19.5-1 26-1h26c6.5 0 24.5-1 36-2l23-2z" stroke-linejoin="round"/>
  <path fill="#bd191c" stroke="#bd191c" stroke-width=".7" d="M643 206c24-2 40-3.5 48-4 8.5-.5 25-1.5 33-2 8-1 24-2 32-2 8.5-.5 25-1.5 33-2 8.5-.5 25.5-1 34-1 9 0 26 .5 34 1l34 2c8.5 0 25 .5 33 1l16 1-6-5c-2.5-2.5-13-6-21-7-7.5-1-23.5-2.5-32-3l-32-2c-8-1-24-2.5-32-3s-24.5-1.5-33-2c-8-.5-24.5-1.5-33-2-8-.5-25-1-34-1h-34c-8.5-.5-24-1.5-31-2s-20.5 0-27 1c-6.5.5-14 8.5-15 16-1 7 6.5 14.5 15 15l18 1zm434-32c18-.5 32.5-.5 41 0h34c8.5-.5 24-2 31-3 7.5-1.5 23-3.5 31-4 8-1 23.5-2.5 31-3 7.5-1 15.5-6.5 16-11 .5-5-7.5-10.5-16-11-8-.5-24.5-1-33-1s-25.5.5-34 1c-8.5 0-25.5.5-34 1-8 .5-23.5 2-31 3l-30 2c-7 .5-22 2-30 3-7.5.5-23 2-31 3-8 .5-21 3-26 5l-9 4 15 3c7.5 1 30 3.5 45 5l30 3z" stroke-linejoin="round"/>
  <path fill="#d46b40" stroke="#d46b40" stroke-width=".7" d="M680 162h50c9 0 24.5-2 31-4 6.5-2.5 9.5-9 6-13-3-4.5-12.5-10.5-19-12-6.5-2-20.5-5.5-28-7-7-1.5-21.5-3.5-29-4-7.5-1-22.5-2-30-2-7 0-21.5.5-29 1s-16 8-17 15c-.5 7 4.5 17 10 20 6 3 22.5 6 33 6h22zm158-4c7.5-8 4-14-2-17-5.5-3-17-3.5-23-1l-12 4 18 7 19 7zm63-2c24.5-1.5 41-2.5 49-3 8.5-.5 23-3.5 29-6 6.5-2.5 10.5-10 8-15s-12.5-11-20-12c-7.5-1.5-22-1.5-29 0-7 1-21.5 3.5-29 5-7 1.5-19.5 6.5-25 10-5 3.5-3.5 10.5 3 14l14 7z" stroke-linejoin="round"/>
  <path fill="#bd191c" stroke="#bd191c" stroke-width=".7" d="M1280 155c9-2 12-5 12-7 0-2.5-4-4-8-3-3.5.5-6.5 3.5-6 6l2 4z" stroke-linejoin="round"/>
  <path fill="#d46b40" stroke="#d46b40" stroke-width=".7" d="M589 150c-1.5-18.5-9-27-16-29-6.5-2-21.5-4-30-4-8 0-22.5 2.5-29 5-6 2-11.5 8.5-11 13 1 4.5 8.5 11 15 13 7 2 28 3.5 42 3l29-1z" stroke-linejoin="round"/>
  <path fill="#c8422e" stroke="#c8422e" stroke-width=".7" d="M340 150c3.5-19.5.5-30-4-34-4.5-4.5-16.5-8.5-24-8-7.5 0-23 1-31 2-7.5.5-23 2-31 3-8 .5-22.5 3.5-29 6-6 2.5-8.5 9-5 13 4 4 15.5 9 23 10 8 1 24 2.5 32 3s29 2 42 3l27 2zm109-9l-2-9 1 5 1 4z" stroke-linejoin="round"/>
  <path fill="#d46b40" stroke="#d46b40" stroke-width=".7" d="M1297 132c22.5-3 37-3 44-2 7 .5 22 .5 30 0 8-1 20.5-5.5 25-9 5-3.5 12-12 14-17 2-5.5 10.5-13 17-15l13-5v-6l-10 4c-4.5 2-15.5 6.5-22 9-6 2-18.5 6.5-25 9-6 2.5-18.5 7.5-25 10-6.5 2-20.5 5.5-28 7-7 1.5-28 1.5-42 0-13.5-2-25.5-10-24-16 1.5-6.5 7-17.5 11-22 4.5-4.5 13.5-13 18-17 5-4 15-11.5 20-15 5-4 15-11.5 20-15s15.5-10 21-13c5.5-3.5 14.5-10 18-13l7-6h-74l-7 11c-3.5 5-10 13-13 16l-13 13c-3.5 3.5-10.5 10-14 13-3 2.5-10 8-14 11s-11.5 8.5-15 11-16.5 7.5-26 10c-9.5 2-24.5 2.5-30 1s-15-5-19-7-13-6-18-8c-4.5-2.5-13-7-17-9s-12.5-6.5-17-9-11.5-8.5-14-12-9-5-13-3c-3.5 2-13 1.5-19-1s-16.5-6.5-21-8-14-5-19-7c-4.5-2-15.5-6-22-8s-18.5-6.5-24-9l-10-5H761l9 5c5 2 16 5 22 6 6 .5 18.5 1 25 1h25c6.5-.5 19-.5 25 0 6.5 0 18.5 1.5 24 3 5.5 1 16 3 21 4 5.5 1 16.5 3.5 22 5 5.5 1 16 3 21 4 5.5 1 16 3.5 21 5 5.5 1.5 16 4.5 21 6 5 1 15 3.5 20 5 5.5 1.5 16 4.5 21 6l20 6c5 1.5 14 2 18 1 4.5-1.5 12.5 0 16 3 4 3 12 8 16 10l18 8c5 2 14 6 18 8l18 8c5 2 14.5 5.5 19 7 5 1.5 15.5 4.5 21 6 5.5 1 15 4.5 19 7l16 10c4.5 2 21.5 5 34 6l26 2zm139 1l4 1v-11h-1l-4 1c-1.5.5-3 2-3 3 .5.5 1.5 2.5 2 4l2 2z" stroke-linejoin="round"/>
  <path fill="#c8422e" stroke="#c8422e" stroke-width=".7" d="M372 131l6-3-3 2-3 1z" stroke-linejoin="round"/>
  <path fill="#df9451" stroke="#df9451" stroke-width=".7" d="M1316 120c21.5-4.5 35.5-8 42-10 6.5-2.5 19-7.5 25-10 6.5-2.5 19-7 25-9 6.5-2.5 17.5-7 22-9l10-4V21l-13-6c-6-3.5-14-9-16-11l-4-4h-28l-7 6c-3.5 3-12.5 9.5-18 13-5.5 3-16 9.5-21 13s-15 11-20 15c-5 3.5-15 11-20 15-4.5 4-13.5 12.5-18 17-4 4.5-9.5 15.5-11 22-1.5 6 10.5 14 24 16l28 3z" stroke-linejoin="round"/>
  <path fill="#c8422e" stroke="#c8422e" stroke-width=".7" d="M190 93c15-3.5 25.5-6 31-7 5.5-1.5 16-4 21-5l22-4c5.5-1.5 15-5 19-7 4.5-2 12-7.5 15-11 3.5-3.5 5.5-11.5 4-16-1-4.5-6.5-11.5-11-14-4-2.5-13-6.5-18-8-4.5-1.5-15-4-21-5-5.5-1.5-17-3-23-3-6-.5-18 0-24 1-6 .5-17 2.5-22 4-4.5 1.5-15 2.5-21 2-6-1-18-2-24-2-5.5 0-17-.5-23-1-6-1-18-2-24-2-6-.5-19-1-26-1H0v84l15 1c7.5 0 23 1 31 2 8 .5 24 1 32 1 8-.5 23.5-1.5 31-2 8-.5 24-.5 32 0s24-1 32-3l17-4z" stroke-linejoin="round"/>
  <path fill="#e7b861" stroke="#e7b861" stroke-width=".7" d="M1335 103c21-3.5 33.5-8 39-11 6-3 11-12.5 10-19-.5-6.5-6.5-16-12-19s-18-4-25-2c-7 1.5-19.5 6.5-25 10-5.5 3-15.5 10.5-20 15-4.5 4-7 12.5-5 17 2.5 4.5 13 9 21 9h17z" stroke-linejoin="round"/>
  <path fill="#df9451" stroke="#df9451" stroke-width=".7" d="M1222 80c10.5-7.5 18-13 22-16s11-8.5 14-11c3.5-3 10.5-9.5 14-13l13-13c3-3 9.5-11 13-16l7-11h-15l-6 7c-3 3-9 9.5-12 13s-10.5 11.5-15 16c-4 4.5-13 13-18 17-4.5 3.5-21 10.5-33 14-11.5 3-30 4.5-37 3-7-2-19.5-7-25-10-5.5-3.5-17-9.5-23-12l-22-12c-5.5-3.5-16.5-9.5-22-12-5-2.5-16-9.5-22-14l-12-10h-83l10 5c5.5 2.5 17.5 7 24 9s17.5 6 22 8c5 2 14.5 5.5 19 7s15 5.5 21 8 15.5 3 19 1c4-2 10.5-.5 13 3s9.5 9.5 14 12 13 7 17 9 12.5 6.5 17 9c5 2 14 6 18 8s13.5 5.5 19 7 20.5 1 30-1l19-5z" stroke-linejoin="round"/>
  <path fill="#c8422e" stroke="#c8422e" stroke-width=".7" d="M502 77c24-2 40-3.5 48-4 8-1 23-3.5 30-5 7.5-1.5 20.5-2.5 26-2s18.5 0 26-1c8-1 23.5-3 31-4 7.5-1.5 22-4.5 29-6 7.5-1.5 22.5-4 30-5 8-1 22-4 28-6 6.5-2.5 8-8.5 3-12-5-4-18-9-26-10l-30-4c-7.5-1.5-23-3.5-31-4-8-1-24-2-32-2s-21 1-26 2c-4.5 1-17 2-25 2l-32-2c-8-1-24-2.5-32-3-8-1-23.5-1-31 0-7 .5-16.5 7.5-19 14-2 6.5-3.5 21-3 29 1 8 10.5 18 19 20l17 3z" stroke-linejoin="round"/>
  <path fill="#e7b861" stroke="#e7b861" stroke-width=".7" d="M1230 60c14-11 23-19.5 27-24 4.5-4.5 12-12.5 15-16s9-10 12-13l6-7h-247l12 10c6 4.5 17 11.5 22 14 5.5 2.5 16.5 8.5 22 12l22 12c6 2.5 17.5 8.5 23 12 5.5 3 18 8 25 10 7 1.5 25.5 0 37-3l24-7z" stroke-linejoin="round"/>
  <path fill="#d46b40" stroke="#d46b40" stroke-width=".7" d="M1440 21V0h-33l4 4c2 2 10 7.5 16 11l13 6z" stroke-linejoin="round"/>
</svg>
