<svg xmlns="http://www.w3.org/2000/svg" viewBox="0 0 1440 1440" version="1">
  <path d="M0 0h1440v1440H0z"/>
  <path fill="#fff" stroke="#fff" stroke-width="1.5" d="M0 1440h111v-1l-1-1v-4c0-1 .5-2 1-2l1-1v2c.5 1 1.5 3.5 2 5l1 2h75v-9l1-5-1 1c-.5 0-3.5-.5-6-1l-4-1-5-4-4-4-1-1c0-.5-1-3.5-2-6l-1-6-1-1c0-.5-1-3.5-2-6l-2-6-1-1c0-.5-1-3.5-2-6l-2-5-1-1c0-.5 1-1 2-1l2-1 3 6 3 5 1 1c.5 0 2 2 3 4l2 4v2c0 .5 1 4 2 7l2 5 1 1c.5 0 2 2.5 3 5l2 5 1 1h7l6-1 1 6 1 5-1 1c0 .5-.5 2.5-1 4v3h17v-1l1-1 2-2 1-1c.5-.5 3-2 5-3l5-3h1c.5-.5 3.5-2 6-3l5-2h1c.5-.5 3.5-2 6-3l5-2h1c1-.5 4.5-2 7-3l5-2h1c.5-.5 3.5-1.5 6-2l6-2h1c1-.5 4.5-1.5 7-2l6-2h1c1 0 4.5-1 7-2l5-2h2c1 0 4.5-.5 7-1l5-2h1c1-.5 4.5-1.5 7-2l6-2h1c.5-.5 3.5-2 6-3l5-2h1c1-.5 4.5-1.5 7-2l6-2h1c.5-.5 3.5-1.5 6-2l6-2h1l6-3 5-2h1c1-.5 5-.5 8 0l6 1h1c1 0 4-1.5 6-3l4-3 1-1c.5-.5 3-2.5 5-4l4-3h1c.5-.5 3-2 5-3l5-3h1c1-.5 4.5-1.5 7-2l5-2 1-1c.5-.5 4-1 7-1h15l7-1 1 1c1 0 4.5 1 7 2l6 1 1 1c.5 0 3.5 1 6 2l6 1 1 1c.5.5 2.5 3 4 5l3 3v2c.5.5 1.5 4 2 7l2 5v2c0 .5-2 3-4 5l-3 3-1 1c-.5.5-3.5 1-6 1h-7c-.5 0-3-1-5-2l-3-3-2 1c-.5 0-3.5 1-6 2l-4 2-2 1c-.5 0-3-.5-5-1l-4-1-1-1c0-.5-1.5-3-3-5l-3-4-1 2c0 .5-2 3-4 5l-3 3-1 1c0 .5-2 3-4 5l-3 3-1 1c-.5.5-2.5 1-4 1l-3-1h1c1-.5 1-1.5 0-2l-1-2h-2c-.5 0-4 .5-7 1h-5l-1 1c-.5.5-3 2.5-5 4l-4 3h-2c-.5 0-3 1.5-5 3l-4 3-2 1c-.5 0-2.5 2-4 4l-2 4h-1c-.5 0-2-1.5-3-3l-1-4-1 1c0 .5-2 3-4 5l-3 3-1 1c-.5.5-2.5 3-4 5l-3 4-1 1c-.5 0-1.5 1-2 2v2h271v-1l-1-4v-4h2c1 0 2 1.5 2 3l1 2 1 1c1 .5 3.5 0 5-1l3-2 1-2c.5-1 2-3 3-4l2-2-1 2c0 1-.5 4.5-1 7v5h6l-1-4v-9c0-2-1-5-2-6l-2-3h-4c-1.5-.5-5-1-7-1h-4l3-1c1.5-.5 5-1 7-1h8l4-1-3-1-2-2h-3c-1-.5-4-1-6-1h-3l-3-1c-1.5-.5-4.5-2-6-3l-2-2-2-2c-1-1-3-2-4-2l-1-1h11l3-1 1-2c1-1.5 2.5-5 3-7l1-4v-3l1-3-2 2-2 1-2 3c-.5 1.5-2 4-3 5l-2 2-3 2c-1.5.5-4.5 1-6 1h-2l2-2c1.5-1 4-3 5-4l2-2h-4c-1.5 0-4.5 1-6 2l-2 1-4 1c-2 .5-5.5 2-7 3l-2 1-3 2c-1 1-4 2-6 2h-4l-4-1c-1.5-.5-5-.5-7 0l-3 1-3 2-4 4-2 2 2 1c1.5.5 2 1.5 1 2l-2 1-2-1-1-2-1-1c-.5-.5-1-3.5-1-6v-6c0-1-1.5-4-3-6l-2-5-1-1c0-.5-2-2.5-4-4l-4-4-1-1v-1l1 4 1 4v1c.5.5-.5 3-2 5l-3 4v-1c0-.5-1-1.5-2-2l-2-1-1 1c-.5 0-3 1-5 2l-3 1-1-1c0-.5.5-4 1-7l2-6v-1c.5-.5 3-2.5 5-4l4-3h1c.5-.5 4-1 7-1h7c1-.5 5-1 8-1l7-1h13l1 1c.5 0 3.5.5 6 1l6 1 1 1h1-3l-2-1-1 1c-.5 0-1.5 1.5-2 3v2l1 1c1 0 4.5.5 7 1l5 1h1c1 0 1.5-1 1-2l-1-2h1c.5-.5 4-.5 7 0h7c1 0 5-.5 8-1l6-1v-1c.5-.5 2.5 0 4 1l4 1-1 1c-.5.5-1.5 2-2 3v25l6-1 7-2 4 3 5 3-1 6-1 6 2 2 2 1 3-5 4-5 2-2 3-3-1 7-1 6-6 3-6 3-4 5-3 5 2 3 2 3h4v-1l1-1 2-4 3-4h1c.5-.5 3-2 5-3l5-3h1c.5-.5 2.5-2 4-3l3-3-5-1-5-2v-1c.5-.5 2-3.5 3-6l3-5 3-5 4-5h1l1-1v3l1 2-1 1c0 .5-1.5 3.5-3 6l-2 5 2 7 2 6v1c.5.5-.5 3-2 5l-2 4-4 4-4 4h30v-1l-1-1v-2l1-1 2-2 5 2 5 1-1 2-1 2h13v-2l1-1 1 2 1 1h701V597h-1v-1h-1l-1-6-1-6-7-1-6-1v-6l5-3 5-4 3 1 4 1v-5h-1v-1h-5l-5-1h2c1-.5 3.5-1 5-1h4v-38l-3 1c-1 .5-3 2-4 3l-1 1-2 3c-1 1.5-3 3.5-4 4h-1l2 4c1 1.5 1.5 4 1 5v1l-3 3c-1.5 1-4.5 2.5-6 3l-2 1v-2c.5-1 2-2.5 3-3l2-1-3-1c-1-.5-3-.5-4 0l-2 1-5 1c-2.5.5-6.5 1-8 1l-2-1h-5c-2.5-.5-6-1.5-7-2l-1-2-3-2c-1.5-1.5-4-2-5-1l-1 2h-3c-1 0-1.5-.5-1-1l2-2 2-3c1.5-1.5 2.5-4 2-5v-3l-2-4c-.5-2.5-1.5-6-2-7v-3l-1-4c-.5-2.5-.5-6 0-7l1-2-1-4c-.5-2.5-1.5-6-2-7l-1-3-2-3c-1-2-3-4.5-4-5l-1-2-3-3c-1-1.5-3-3.5-4-4l-1-2-4-2-6-3-2-1-4-1-6-3-2-1v-1l1-1-3 1h-3l-4 2c-1.5 1-4 2.5-5 3l-2 1-3 2c-1.5.5-3.5 1-4 1h-1l1-2c1-1.5 2.5-3.5 3-4l2-2v-3c.5-1.5 0-2.5-1-2l-2 1-4 2c-1.5 1-4 3-5 4l-2 1-4 2c-1.5 1-4 3-5 4l-1 1 2 4c1 1.5 2.5 3.5 3 4l1 1v12l-2-3c-.5-1.5-1.5-4-2-5l-1-2-2-3c-1-2-1.5-4.5-1-5l1-2 2-3c1-2 3-4.5 4-5l2-1 3-2c2-1 3.5-2.5 3-3v-2l-4 1c-2 .5-5 1.5-6 2l-2 1-3 3c-1 1.5-2.5 4-3 5v1l-2-3c-.5-1.5-2-4-3-5l-1-2-4-1c-2-1-5-1-6 0l-1 1-1-4c-.5-2.5-2-5.5-3-6l-2-1-2-4c-.5-2.5-1.5-6-2-7l-1-2-2-4c-.5-2-1.5-5-2-6l-1-2-3 2c-1.5.5-2.5 2.5-2 4l1 2 1 4 3 6 1 2h-2l-4-2-1-2-4-1c-1.5-1-4-1-5 0l-1 1-1 2v5c0 1.5.5 5 1 7l1 3v2c0 1-1 3.5-2 5l-2 3-2 3c-.5 1-.5 2.5 0 3l2 1 2-1c1.5-1 4-3 5-4l3-2 1 1c1 .5.5 2-1 3l-3 1-3 2c-1 .5-3.5 2-5 3l-3 1-2 2c-1 1-3.5 3-5 4l-3 2-2 3c-.5 1-2 2.5-3 3h-3c-.5 0-2 .5-3 1l-2 1-1 1-4 1c-2 .5-5 1.5-6 2h-2l1-1 6-1 6-2v-1l1-1 4-4 4-4 2-6 3-6v-8l1-9 1-7 1-8-1-7-1-8-2-7-1-8-2-6-2-7-4-5-4-5-1 4v4l2 7 2 6 1 7 1 7v6l1 6-2 8-1 7v17l-2 6-1 6-4-1-3-2v3l-3-6-3-6 1-6 2-6 1-7 2-7 1-7 2-8 1-7 2-7-2-7-1-8-3-6-2-6-3-6-2-6-4 1h-3l2 6 3 6 1 8 2 7 1 7 2 7-1 8-1 7-3 6-3 6-2 1h-2l-3 1-3 1-2-6-2-7h-5v3l1 2-3 1h-3l-3 1-3 1-1-4-1-5v-2l1-2 4-5 4-5 2-2 2-3-1 7-1 7 2-4 3-4v-6l1-6-1-7-1-7-2-2-1-2-4 6-3 5-2 5-2 4-4 5-3 5-1 8v7l-3-3-2-3 1-7 1-7 2-6 3-6-1-5-1-6h-1v-1l6-1 6-2 6-3 6-3 1 3 1 2 2 2 3 2 1-7 2-8 3-4 3-5 5-4 5-4 3-5 3-6-3 2-3 1-5 4-5 4-6 2-5 2-4 6-3 5-6 3-5 3-6-2-5-2-5-4-4-5-1 6v6l-3 4-2 3-6 1-5 1-6-1-6-2-8 1-8 1h-6l-6-1-6-3-6-3-4-3-3-3-6-3-5-3h-9l-8-1-7-1-7-2-7 3-6 2 4 2 4 1 5-1 6-1-1 2v1l-5 4-5 3-6-3-6-3-6-2-6-3-3 2-2 2-9 1h-8l-6 3-6 2 2 1 2 1 6-2 7-2h15l3 3 3 3-5 4-5 3-7 1-7 1-6 3-6 2-2-3-2-4-5 5-4 4-4 5-4 4-4 6-3 5-3 6-2 6-2 6-1 6-4 6-3 5-3 6-3 5-5 5-4 4v-3l1-3 4-4 4-5h-4l-4 5-4 4-3 5-3 5-4 5-4 4-2 7-1 7-1 9v8l-1 8-1 7 2 4 2 4 2-6 3-6 1-7 1-8 1-8 1-8 1-7 2-7 4-2 5-3h7l-3 6-2 6-2 7-2 7-4 5-3 5-1 8v7l-4 5-3 5-3 6-3 5 1 8 2 7v8l1 8 2 7 3 6 3 6 3 5 3 5 4 5 4 5 4 5 5 4 5 3 4 5 5 4 3 5 4 5 4 5 4 4 5 4 6 3 5 4 5 3 5 4 6 3 4 5 4 4-5-3-4-3h-4l-3-1 3 5 4 5h-3l-3-1v2l1 1 1 3c1 1 3 3.5 4 5l2 2 2 2 6 2h4l-2 2c-1 .5-3.5 2-5 3l-3 2-3 1c-1.5.5-2.5 0-2-1l1-2h1c.5-.5 1-1.5 1-2l1-2-2-2c-1-1-3.5-3-5-4l-2-2-3-1c-1-1-3-2-4-2h-2l-2 2c-1 .5-4 .5-6 0l-3-2-3 1c-1.5.5-4 3-5 5l-1 3-2 2c-.5 1-2 3.5-3 5l-2 3-2 2c-1 1-3 3.5-4 5l-2 2-2-2c-1-1-3.5-3-5-4l-2-3-3-1c-1-.5-3.5-1-5-1l-2-1 2 2 2 2-3-1-2-2-2-2c-.5-1-2.5-1.5-4-1h-4c-1 0-2 1.5-2 3l1 3v1c0 .5-1.5 0-3-1l-2-3-3-1c-1-.5-4-1-6-1l-3-1 1 3 4 4 2 2 1 2c.5.5 2.5 1.5 4 2l3 1v3c.5 1 1 3.5 1 5l1 3v2c0 1-1.5 2.5-3 3h-2l1 2c1 1 3.5 1 5 0l3-2 2-1c1.5-1 4-3 5-4l3-3 2-1c1-1 1.5-2.5 1-3v-1h-1l-5 3c-2 1-4.5 2-5 2l1-2 1-2 2-1c1.5-1 4-1.5 5-1l2 1 2 1 3 1-4 3-3 3-1 1c-.5 0-3 1.5-5 3l-4 2-4 5-4 4h-2c-.5 0-2 .5-3 1l-1 1-2 3-2 2-4-5-3-5-1-1c0-.5-2-3-4-5l-3-4 5 2 5 1-1-1c0-.5 1-.5 2 0h2v1l1 1 1-2 2-2-1-1v-4l1-3v1c.5.5 2.5 1 4 1l4-1h-1c-.5-.5-3-2.5-5-4l-4-4-1-1c0-.5-2.5-1-5-1h-5v1l1 1-3-2-3-2h-1c-.5-.5-3 .5-5 2l-3 3-1 1c-.5 0-2.5-1.5-4-3l-3-3h-2c-.5 0 0-2.5 1-5l3-5v-1l1-1-4 1h-5c-.5 0-3 .5-5 1l-4 1-1-1c0-.5-3-1.5-6-2l-6-2h-1c-.5-.5-3 .5-5 2l-3 2-1 1c0 .5-1 3.5-2 6l-2 4h-1c-.5-.5-3 .5-5 2l-4 3-1 1h-4l-2-1h-1l-1-2v-2h1c1 0 3.5-1.5 5-3l3-3v-1c.5-.5 3-2 5-3l5-2v-1c.5-.5 0-1-1-1l-1-1-1 1c-.5 0-2.5-1-4-2l-2-3h1c.5-.5-.5-1-2-1l-3-1-1-1c0-.5-2-2.5-4-4l-3-4h-1c-.5-.5-1 1-1 3l1 4v1c.5.5 1 2 1 3v2l-1-1c0-.5-2-2.5-4-4l-3-4v1c.5.5 1.5 4 2 7l2 6v1c.5.5.5 3 0 5v3h-1c-.5-.5-2-3.5-3-6l-2-6-1-1c0-.5-2-2.5-4-4l-3-4-1-1v-1l-1 3v2l-1-1c0-.5-3-1.5-6-2l-6-2h-1c-.5-.5-3-2.5-5-4l-3-4h-2c-.5 0-2.5-.5-4-1l-3-2h-1l-1-1 2 5 2 5v1c.5.5 0 1-1 1h-2v-1c0-1-2-4-4-6l-3-4-1 1c0 .5.5 4 1 7l2 5h-1l-5-5-3-4v-1c0-1-.5-5-1-8l-1-6-1-1v-1 8h-1l-4 2-4 1h-1c-.5-.5.5-2.5 2-4l3-3v-1c.5-.5-2-1-5-1h-5l-1-1v-2l1-2h-1c-.5-.5-3-2.5-5-4l-3-4h-1c-.5-.5-1 .5-1 2l1 3h-1c-.5-.5-3.5-2-6-3l-4-3h-1c-.5-.5-4.5-1.5-8-2l-6-1h-2c-.5 0-3-1.5-5-3l-4-3-1-1c0-.5-2-1-4-1h-4l-1 1v1-4l1-4h-1c-.5-.5-3.5-2-6-3l-4-3h-1c-.5-.5-3-2-5-3l-4-3c0-.5-1.5-1.5-3-2l-2-2v2c0 .5 1 2.5 2 4l2 3-1 1c-.5 0-2.5.5-4 1h-3l-1-1c0-.5-1.5-2-3-3l-2-3-1 1v1l-3-4-3-5h-1c-.5-.5-3-.5-5 0l-4 1c0-.5-1.5-1.5-3-2l-2-2-2 1c-.5 0-3 2-5 4l-3 3-1 1c-.5 0-3.5 1.5-6 3l-4 2-1 1c-.5 0 0-1.5 1-3l3-3h1c.5-.5 3-2 5-3l5-3v-1c.5-.5 3.5-1.5 6-2l6-2 1-1c.5-.5 1-3 1-5v-5c.5-.5 1.5-3 2-5l2-5v-1c.5-.5-.5-2-2-3l-3-3v1l-3 4-3 4-1 1c-.5 0-3 .5-5 1h-3l-1-1c0-1-2-2.5-4-3l-3-2h-1l-3 5-2 4-1 1v1l1-3 1-4-1-1c0-.5-1.5 0-3 1l-2 1-1 1c-.5 0-2.5 2-4 4l-3 4h-1c-.5 0-1.5-1-2-2v-3l-1 1c0 .5-2 2.5-4 4l-4 3h-2c-.5 0-3.5 1.5-6 3l-5 2v1c.5.5 3.5 1 6 1h6c.5-.5 3 .5 5 2l5 2h2c1 0 2-2 2-4l1-5h1c1 0 4-1.5 6-3l4-3h1c.5-.5 2-1.5 3-2l2-2-1 1c0 .5.5 2.5 1 4l2 2-1 1c-.5 0-1 1.5-1 3l1 2 1-1c.5-.5 2-1.5 3-2l3-2-1 1c0 .5-1.5 3-3 5l-3 4-1 1c-.5 0-3.5 1.5-6 3l-4 3-1 1c0 .5-1.5 1.5-3 2l-3 1h-2c-.5 0-2.5-1.5-4-3l-2-4-1-1c-.5-.5-2.5-1-4-1h-3v1c.5.5 2.5 3 4 5l3 4-1 1c0 .5-2-1-4-3l-3-4h-1c-.5-.5-3-2.5-5-4l-4-3-1-1c0-.5-1.5-3-3-5l-2-5-2 1c-.5 0-3 2-5 4l-3 3-1 1c-.5 0-1-.5-1-1v-2c.5-.5 2.5-3 4-5l4-4h1c.5-.5 3 0 5 1l5 1c.5 0 .5-2 0-4l-1-4-1-1-1-1 3 4 4 3-1 1c0 .5 2 1.5 4 2l4 1h1c.5-.5 2-2.5 3-4l3-3v-1c0-1-2.5-2-5-2l-4-1-1-1c0-.5-2-2.5-4-4l-4-3-1-1c-.5-.5-3-2.5-5-4l-3-4h-1c-.5-.5.5-2.5 2-4l4-4v-1c.5-.5 2.5 0 4 1l4 2 1 1c.5 0 2.5 2 4 4l4 3v1c.5.5 3 2.5 5 4l4 3 1 1c1 0 3.5-1.5 5-3l4-4-1-1c0-.5-1.5-3-3-5l-2-5v-1c0-1-1-3.5-2-5l-1-3h-1c-.5-.5.5-2 2-3l4-3h1c.5-.5 3-2.5 5-4l4-3v-1c0-.5-3-.5-6 0l-6 1-1 1h-13c-.5 0-3 1-5 2l-3 2v-1c0-1-1.5-1.5-3-1h-2l-1 1c-.5 0-3 2-5 4l-3 3-1 1-5 5-3 3-1 1c-.5 0-3.5 1.5-6 3l-4 2-1 1c0 .5-.5 4.5-1 8l-1 6h-1v-11c0-1-.5-5-1-8v-7l-1-1c0-1-.5-5-1-8v-25c0-1-.5-5-1-8l-1-7v-17l-1-1v-31l-1-1c0-.5-.5-4-1-7v-8c0-1-.5-5.5-1-9v-8c0-1-.5-5-1-8v-7h-1c-.5-.5-1.5 2-2 5l-1 6v2c0 1-.5 5.5-1 9v33l1 7v36c0 1 .5 5 1 8l1 6v45l1 6v37c0 .5.5 4 1 7l1 6v28l1 6v2c0 .5.5 4 1 7l1 6v28l1 6v20c0 .5-.5 4.5-1 8v7c.5.5.5 4.5 0 8v8c0 1-1 4.5-2 7l-2 5h-7l-1 1c0 .5-2 1-4 1l-4-1-1 1c-.5 0-3 1.5-5 3l-3 2h-8l-4-1-2 1c-.5 0-3 1-5 2l-3 1-1 1c-.5 0-3.5 1-6 2l-4 1-1 1v1l4 1h4l1 1 2 1h-5l-4-1-1-1-1-1-1-1c0-.5-2-1-4-1l-3-1-2-1-2-1 2 3 3 3 1 2c1 .5 2 2 2 3v1l-2-1-6-3-4-2h-2c-1 0-1.5 1.5-1 3l1 2-1 1-4-2-3-3-2 1c-.5 0 0 2 1 4l2 3 1 2c1 .5 2.5 2 3 3l1 1-2 1c-1 .5-1.5 2-1 3l1 2-1 2c-.5 1-1 3.5-1 5v2l-2 2c-.5.5-3 2.5-5 4l-3 2v-2c0-1 1-2.5 2-3l3-1-1-1c0-1-.5-4-1-6l-1-5v-3c0-1.5-1-5-2-7l-1-5v-3c0-1.5-.5-5.5-1-8v-5l1-1c1-1 1.5-4.5 1-7l-1-5-1-2v-34c0-1.5-.5-5.5-1-8l-1-5-1-2v-14l-1-2c-.5-1-1-5-1-8v-40l-1-2v-18c0-1.5-.5-5.5-1-8v-5l-1-2v-35c0-1.5-.5-5.5-1-8v-43c0-1.5-.5-5.5-1-8v-6l-1-2v-15c0-1.5-.5-5.5-1-8v-8c0-1.5-.5-5.5-1-8v-6l-1 1c-.5.5-1 4-1 7v51l1 5v47l1 5v3c.5 1 1 5 1 8v34l1 5v11l1 5v3c.5 1 1 5 1 8v26c.5 1 1 5 1 8v58l1 2c.5 1 1 5 1 8v34l1 5v38c.5 1 1 4.5 1 7l1 5-1 3c0 1-.5 4-1 6l-1 3v-29l-1-5c-.5-2.5-1-6.5-1-8v-20l-1-5v-11l-1-5c0-3-.5-7-1-8v-38l-1-5v-28l-1-5c-.5-2.5-1-6.5-1-8v-3l-1-5v-35c0-3-.5-6.5-1-7l-1-2v-17l-1-5v-29l-1-5c-.5-2.5-1-6.5-1-8v-26c0-3-.5-7-1-8v-8c0-3-.5-7-1-8v-3l-1-5v-17c0-3-.5-7-1-8v-9c0-3-.5-7-1-8v-2l-1-5v-11l-1-5v-12l-1-5c-.5-2.5-1.5-6-2-7v-2l-1 4c-.5 2-1 5.5-1 7v37l1 5c.5 2.5 1 6.5 1 8v26c.5 2.5 1 6.5 1 8v9c.5 2.5 1 6.5 1 8v8c.5 2.5 1 6.5 1 8v26c.5 2.5 1 6.5 1 8v20l1 5c.5 2.5 1 6.5 1 8v16l1 2v59c.5 2.5 1 6 1 7l1 2v6c0 3-.5 5.5-1 5l-1-2-2-4c-1-2-3-4.5-4-5l-2-1-6 1c-2.5 0-5.5-1-6-2v-2l-2 1c-.5 0-1.5 1-2 2l-1 2-4-2c-2-1-5-1.5-6-1l-1 1-4 2c-2 1-4.5 3-5 4l-1 1-1 4-1 4 1-1 2-2 3-2c2-1.5 4.5-3 5-3h2l-1 1-2 1-2 1-3 3c-1.5 1.5-3.5 4-4 5l-1 1-3 2c-1.5 1-4 2.5-5 3l-1 1-3 4c-1 1.5-3 3.5-4 4l-2 1h-3c-1-.5-2.5-2-3-3v-2l-1-2v-3l1 2 1 2h3c2-.5 4-1.5 4-2v-2l-2-4c-1-2-3-4.5-4-5l-1-1h3c1.5 0 3.5-.5 4-1l2-2 3-3 4-4 1-2 1-3 2-4-2 2-1 1-4 2-6 3-1 1-4 3c-1.5 1-3.5 1.5-4 1l-1-2h-3c-1-.5-1.5-2-1-3l1-2-1-2c-.5-1-1.5-2-2-2l-1-1-3 3-5 5-1 1-2 3c-.5 1-1.5 1-2 0v-2l3-3 4-4 1-2v-1l1-2-2 1-2 1-3 4-2 3v-2l1-2 2-4c1-2 1-4 0-4l-1-1-3 3c-1 1-2.5 1.5-3 1l-1-2-4 2c-1.5.5-3 .5-3 0v-2l-3 2c-1.5 1-4 3-5 4l-1 1-4 2-6 3-1 1-5 2c-2 .5-5 1-6 1l-1-1 2-4c1-2 1-4.5 0-5l-1-1-3-1c-1-1-2.5-1-3 0l-1 1-2 5c-.5 2-1.5 5.5-2 7v2l-1 4c-.5 2-1.5 5-2 6l-1 1-3 4c-1 1.5-2 4-2 5l1 1-1 4c-.5 2-2 4-3 4h-1l1 3c.5 1.5 1.5 3.5 2 4h2l1-4 2-5h3l-2 6-2 5-1-1-1-1v13l-4 1c-1.5 0-3.5.5-4 1v1h-9v-1l3-4c1.5-2 3.5-3.5 4-3h1v-3c0-1.5-1-3-2-3h-1l-4 2c-2 .5-4.5 1.5-5 2h-1l-4 4-4 4v1l2 4c1 2 2 4.5 2 5l1 1 6 2c3 .5 6 .5 6 0l1-1-5-2c-2-1.5-4.5-3.5-5-4v-1l6 1c3.5.5 7.5 1 8 1h2l5 2c2.5 1 5.5 2.5 6 3h1-7l-1-1-5 2c-2 1-3.5 2.5-3 3h1l4 2c2.5.5 5.5 1.5 6 2h1l-2 2c-.5 1-1.5 2-2 2l-1-1h-6c-2.5-.5-6-1-7-1h-1v-2c0-1-1-2-2-2h-1l-7 1c-3 .5-6.5 1-7 1l-1-1-5-2c-2.5-1-5-1-5 0v1l-1 1c0 .5-.5 1-1 1l-1-1-4-3c-2-1.5-5-3-6-3h-1l-4-2c-1.5-1.5-3.5-2.5-4-2h-1l-5 2-5 1h1l1-1 3-3c2-2 4.5-4 5-4l1-1-4 1c-2 0-4.5.5-5 1v1l-5 3c-2 1-4.5 2.5-5 3v1l-2 1-2 1-2 3-2 3-3 2-3 2-3-3-3-4-6 2-6 1 1 2 2 2v-1h1l1-1-1 1-1 1 1 2 1 1 1 4c1 2 1.5 4.5 1 5l-1 1-3 3c-1 1.5-2.5 2.5-3 2l-1-2-4-3c-1.5-1.5-4-3-5-3l-1-1-1 2c-.5.5-2 1.5-3 2H59l-5 2c-2 1-5 2-6 2h-2c0-.5.5-1.5 1-2l2-1v-2c.5-1 .5-2.5 0-3l-1-1-4-3c-1.5-1.5-3-2.5-3-2v1h-2c-1-.5-2.5-1.5-3-2l-1-2h-3c-1.5-.5-4-.5-5 0h-1l-2 5c-1 2-1.5 5-1 6l1 1 1 5c1 2.5 1.5 6 1 7v1l-2 2c-1 .5-2.5.5-3 0v-2l-2-5c-.5-2.5-1.5-6-2-7v-2l-2 3c-.5 1.5-.5 3.5 0 4l1 1 1 5c1 2.5 1 5 0 5h-1l-2-5c-.5-2.5-1.5-5.5-2-6v-2h-2c-1-.5-2.5-1.5-3-2v-6c.5-2 1-4.5 1-5v-2l-4 2-4 1v13h2c1 0 2 .5 2 1l-2 3-2 3v620z" stroke-linejoin="round"/>
  <path stroke="#000" stroke-width="1.5" d="M111 1439v1h4l-1-2c-.5-1.5-1.5-4-2-5v-2l-1 1c-.5 0-1 1-1 2v4l1 1zm79 0v1h6v-3c.5-1.5 1-3.5 1-4l1-1-1-5-1-6-6 1h-7l-1-1-2-5c-1-2.5-2.5-5-3-5l-1-1-2-5c-1-3-2-6.5-2-7v-2l-2-4c-1-2-2.5-4-3-4l-1-1-3-5-3-6-2 1c-1 0-2 .5-2 1l1 1 2 5c1 2.5 2 5.5 2 6l1 1 2 6c1 2.5 2 5.5 2 6l1 1 1 6c1 2.5 2 5.5 2 6l1 1 4 4 5 4 4 1c2.5.5 5.5 1 6 1l1-1-1 5v8zm23 0v1h136v-2l1-6c1-3 2-6.5 2-7v-1l3-3 4-4v19l-1 2v2h4v-2c.5-1 1.5-2 2-2l1-1 3-4c1.5-2 3.5-4.5 4-5l1-1 3-3c2-2 4-4.5 4-5l1-1 1 4c1 1.5 2.5 3 3 3h1l2-4c1.5-2 3.5-4 4-4l2-1 4-3c2-1.5 4.5-3 5-3h2l4-3c2-1.5 4.5-3.5 5-4l1-1h5c3-.5 6.5-1 7-1h2l1 2c1 .5 1 1.5 0 2h-1l3 1c1.5 0 3.5-.5 4-1l1-1 3-3c2-2 4-4.5 4-5l1-1 3-3c2-2 4-4.5 4-5l1-2 3 4c1.5 2 3 4.5 3 5l1 1 4 1c2 .5 4.5 1 5 1l2-1 4-2c2.5-1 5.5-2 6-2l2-1 3 3c2 1 4.5 2 5 2h7c2.5 0 5.5-.5 6-1l1-1 3-3c2-2 4-4.5 4-5v-2l-2-5c-.5-3-1.5-6.5-2-7v-2l-3-3c-1.5-2-3.5-4.5-4-5l-1-1-6-1c-2.5-1-5.5-2-6-2l-1-1-6-1c-2.5-1-6-2-7-2l-1-1-7 1h-15c-3 0-6.5.5-7 1l-1 1-5 2c-2.5.5-6 1.5-7 2h-1l-5 3c-2 1-4.5 2.5-5 3h-1l-4 3c-2 1.5-4.5 3.5-5 4l-1 1-4 3c-2 1.5-5 3-6 3h-1l-6-1c-3-.5-7-.5-8 0h-1l-5 2-6 3h-1l-6 2c-2.5.5-5.5 1.5-6 2h-1l-6 2c-2.5.5-6 1.5-7 2h-1l-5 2c-2.5 1-5.5 2.5-6 3h-1l-6 2c-2.5.5-6 1.5-7 2h-1l-5 2c-2.5.5-6 1-7 1h-2l-5 2c-2.5 1-6 2-7 2h-1l-6 2c-2.5.5-6 1.5-7 2h-1l-6 2c-2.5.5-5.5 1.5-6 2h-1l-5 2c-2.5 1-6 2.5-7 3h-1l-5 2c-2.5 1-5.5 2.5-6 3h-1l-5 2c-2.5 1-5.5 2.5-6 3h-1l-5 3c-2 1-4.5 2.5-5 3l-1 1-2 2-1 1z" stroke-linejoin="round"/>
  <path fill="#fff" stroke="#fff" stroke-width="1.5" d="M349 1440h9v-2l1-2v-19l-4 4-3 3v1c0 .5-1 4-2 7l-1 6v2z" stroke-linejoin="round"/>
  <path stroke="#000" stroke-width="1.5" d="M633 1439v1h17v-5c.5-2.5 1-6 1-7l1-2-2 2c-1 1-2.5 3-3 4l-1 2-3 2c-1.5 1-4 1.5-5 1l-1-1-1-2c0-1.5-1-3-2-3h-2v4l1 4z" stroke-linejoin="round"/>
  <path stroke="#000" stroke-width="1.5" d="M656 1440h6l-2-3-2-3 3-5 4-5 6-3 6-3 1-6 1-7-3 3-2 2-4 5-3 5-2-1-2-2 1-6 1-6-5-3-4-3-7 2-6 1v-23l-1 3v3l-1 4c-.5 2-2 5.5-3 7l-1 2-3 1h-11l1 1c1 0 3 1 4 2l2 2 2 2c1.5 1 4.5 2.5 6 3l3 1h3c2 0 5 .5 6 1h3l2 2 3 1-4 1h-8c-2 0-5.5.5-7 1l-3 1h4c2 0 5.5.5 7 1h4l2 3c1 1 2 4 2 6v9l1 4zm10-1v1h17l4-4 4-4 2-4c1.5-2 2.5-4.5 2-5v-1l-2-6-2-7 2-5c1.5-2.5 3-5.5 3-6l1-1-1-2v-3l-1 1h-1l-4 5-3 5-3 5c-1 2.5-2.5 5.5-3 6v1l5 2 5 1-3 3c-1.5 1-3.5 2.5-4 3h-1l-5 3c-2 1-4.5 2.5-5 3h-1l-3 4-2 4-1 1zm47 0v1h10l1-2 1-2-5-1-5-2-2 2-1 1v2l1 1zm23 0v1h3l-1-1-1-2-1 1v1zm-599-14l-1-10v-8l1-8-1-8v-24l-3-6-2-7-1-6-1-7v7l1 7 2 7 2 7-1 8v24l-1 7v7l2 5 3 5zm10 0l1-12-3 4-2 4 2 2 2 2zm406-7l3-6-2 3-1 3zm408-3l-4-5 1 3 1 2h2zm-366-1l9-6-4 1h-4l-1 3v2z" stroke-linejoin="round"/>
  <path stroke="#000" stroke-width="1.5" d="M614 1414h15l2-1 2-2-5-4-5-4-5 2-4 2v7zm-44-3c3-1.5 2.5-2.5 1-3l-2-1 2-2 4-4 3-2 3-1c2-.5 5.5-.5 7 0l4 1h4c2 0 5-1 6-2l3-2 2-1c1.5-1 5-2.5 7-3l4-1 2-1c1.5-1 4.5-2 6-2h4l-2 2c-1 1-3.5 3-5 4l-2 2h2c1.5 0 4.5-.5 6-1l3-2 2-2c1-1 2.5-3.5 3-5l2-3 2-1 2-2v-2c.5-1 1.5-2.5 2-3l1-1-4-1c-1.5-1-3.5-1.5-4-1v1l-6 1c-3 .5-7 1-8 1h-7c-3-.5-6.5-.5-7 0h-1l1 2c.5 1 0 2-1 2h-1l-5-1c-2.5-.5-6-1-7-1l-1-1v-2c.5-1.5 1.5-3 2-3l1-1 2 1h3-1l-1-1-6-1c-2.5-.5-5.5-1-6-1l-1-1h-13l-7 1c-3 0-7 .5-8 1h-7c-3 0-6.5.5-7 1h-1l-4 3c-2 1.5-4.5 3.5-5 4v1l-2 6c-.5 3-1 6.5-1 7l1 1 3-1c2-1 4.5-2 5-2l1-1 2 1c1 .5 2 1.5 2 2v1l3-4c1.5-2 2.5-4.5 2-5v-1l-1-4-1-4v1l1 1 4 4c2 1.5 4 3.5 4 4l1 1 2 5c1.5 2 3 5 3 6v6c0 2.5.5 5.5 1 6l1 1 1 2 2 1zm-53-12l7-8-2-3-1-3-2 7-1 6-1 1zm154 0l-1-2v1l1 1zm-58-1h1-1zm-444-17l14-1 5-3 5-4h-18l-6 1h-6l3 4 3 3zm622-14v-9l-3-5-3-6-4-5-3-6-4-4-3-4v6l1 5 3 6 3 5 3 6 3 5 3 3 4 3zm-635-1h13l7-1 8-1-1-2v-3l-7-1-6-1-6-3-6-3-1 2v2l-5-3-5-4-3-3-3-3-4-3-3-3v5l1 4 2 6 3 6 4 1 5 1 6 1h7l-3 2-2 2-1 1v1zm764-1l14-1 6-2 7-2 5-3 6-4 6-2 6-3 4-4 5-5 4-4 5-4 6-2 7-2 6-3 6-3 1-4 2-4 2-6 3-7 3-5 4-5 3-5 4-5 3-5 4-6 3-5 3-6-3-6-3-6-5-4-4-4-6-2-6-3-6-3-6-3-6-2-6-3-6-3-6-3-6-2-6-3-5-3-5-4-6-3-6-3-6-3-5-3-6-3-6-3-6 2-6 1-6 3-5 3-7 3-6 2-6 3-5 3-8 1-8 1-7 2-7 1-7 2-7 1-7 3-6 2-6 3-6 2-6 4-5 3-6 3-5 3-6 3-5 3-5 5-4 4-1 6v6l4 5 4 5 4 4 5 4 4 5 4 4 3 6 3 6 4 5 4 4 3 6 3 6 3 4 4 4 3-5 3-6-3-5-2-6-4-5-3-5-1-7-1-7 1-7 1-8-1-6v-6l-4-1-4-1 1 7 2 7-1 9v8l-3 1h-3l-3-4-3-5 1-8 1-8 2-6 2-7 5-2 6-3 5 3 6 3 5 3 6 3 5 4 6 3 6-2 7-2 6-3 6-3 5-3 6-3 4-4 5-4h3l4-1-4 5-4 4-5 5-4 4-4 5-4 4-4 5-3 5-5 5-4 4-3 6-3 5 1 7 2 6 4 2 4 1 4-3 5-3-2 6-1 5-1 7v7l4 5 4 5 2-1 3-1 5-3 5-4 2-6 3-7-1-1v-1l-1-3-1-3v-17l3 4 3 3 4 5 4 5 5 3 5 2-3 6-2 5-5 4-4 4-4 5-3 5 2 6 2 6 5 3 6 3 5 1h5z" stroke-linejoin="round"/>
  <path stroke="#000" stroke-width="1.5" d="M123 1364v-13l-1-7-1-8-2-7-1-8 2-5 3-5 4-5 4-5 3-5 3-6 4-3 4-4h4l5-1 3-5 4-5 5-3 5-3-1-6-1-7-5-2-4-2-4 2-3 1-4 5-3 5-7 2-7 2-5 4-5 3-5 4-4 4-5 5-4 4-3 5-2 5 2 7 3 6 3 6 3 5 2 6 3 6v9l1 8 3 6 3 5h1zm681-9l6-3-4-5-3-5-3-6-3-6-3-5-3-6-4-5-3-6-3-5-3-6-4-4-4-5-5-2-4-3 2 7 2 6 3 6 4 5 4 4 5 4 2 6 3 6 3 6 4 5 3 6 3 5 2 3 3 3zm190-1l3-2-2 1-1 1zm-912-14l3-10-2-6-2-7-3-3-3-3 2 4 3 4v8l1 7v3l1 3zm808-4l9-6 3-5 3-6-5 5-4 4-3 4-3 4z" stroke-linejoin="round"/>
  <path stroke="#000" stroke-width="1.5" d="M127 1331l1-8-1 4v4z" stroke-linejoin="round"/>
  <path fill="#fff" stroke="#fff" stroke-width="1.5" d="M873 1312l2-5-1 3-1 2zm-756-2c.5-7.5 1-13 1-16v-7l-3 5c-1.5 2.5-2 8-1 11 1.5 3 3 6.5 3 7zm692-8l-1-10v5l1 5z" stroke-linejoin="round"/>
  <path stroke="#000" stroke-width="1.5" d="M832 1296l1-10 3 3 4 3 3-4 3-4-2-4-1-4-7-2-6-3-3 1-2 1-1 6v11l1 4 3 1 4 1z" stroke-linejoin="round"/>
  <path fill="#fff" stroke="#fff" stroke-width="1.5" d="M896 1288c9.5-1.5 15.5-3.5 18-5 2.5-2 4.5-5 4-6s-3.5 0-6 2c-2.5 1.5-8 4.5-11 6l-6 3h1z" stroke-linejoin="round"/>
  <path stroke="#000" stroke-width="1.5" d="M39 1281l4-11-1-7v-7l-4 1h-3l-2 7-1 7 3 5 3 5h1zm134 0l11-4 4-4 4-5 5-4 5-4 5-3 5-4h4v-6l1-6-4-3-3-3-5 2-5 2-5 4-4 4-3 6-3 6-3 6-2 6-1-6v-6l-1 1-3 6-3 5-4 4-4 4 4 1 5 1zm129-1l3-6-3-5-3-6-4-5-4-5-1 2v2l3 6 3 6 3 6 3 5zm-22-28l1-12-5-4-4-4-6 1h-5v3l5-1 6-2 2 6 3 6 1 4 2 3z" stroke-linejoin="round"/>
  <path stroke="#000" stroke-width="1.5" d="M262 1249l8-7-5 1-4 1v3l1 2zm-20-2l7-8-1-2-1-3-3 5-3 5v2l1 1z" stroke-linejoin="round"/>
  <path fill="#fff" stroke="#fff" stroke-width="1.5" d="M207 1246l3-6-2 3-1 3z" stroke-linejoin="round"/>
  <path stroke="#000" stroke-width="1.5" d="M1424 996v-5 5zm-19-15l-3-10-4-4-4-5 3 6 3 6 2 4 3 3zM77 978l9-6 5-3 6-3 5-3 5-3 5 2 6 2 4-1 4-1-5-3-4-3-4-4-4-5-6 4-5 3v-4l1-4-6 4-5 3-5 2-4 2-6-2-5-2 1 6 2 5 4 4 5 4 3-1 3-1-5 2-4 2-2 1-1 1 1 1 2 1zm-23-5l3-2 4-3 4-4-4 1-4 1-1-1-1-2 1-2 2-3-6 3-5 3-4 2-3 2 6 3 7 2h1zm56-7h-1 1zm917-8l13-2h-3l-1-2-1-2 4-4 4-5 5-3 6-4 5-3 5-4 4-4 5-4 5-4 5-4 3-5 4-5 3-5 4-6 3-5 4-5 3-5 4-5 5-4 5-4 3-5 4-5 3-6 3-6 3-5 4-5 3-2 3-3 4-5 4-5 3-5 4-5 3-6 3-6 3-5 3-6 3-5 4-5 3-6 3-6 1-2 2-2 3-4 3-4 3-5 4-5 5-3 5-4 4-4 5-5 3-5 4-5 2-5 2-5-1-3v-3l6-1 7-1-5-2-5-2v-9l-4 3-3 2-4 5-4 4-5 4-4 4-4 6-3 5-5 3-4 3-2 3-1 2-4 4-3 4-5 4-4 4-5 5-4 4-4 5-4 4-4 5-4 5-5 4-4 4-6 3-6 2-7 2-7 2h-6l-6-1-5-4-5-4-4-4-4-5-4-4-3-4-2 4-2 4v8l1 8 3 4 3 4 4 4 5 4v9l4 5 5 4h-5l-5-1-5-4-4-5-4-4-4-5-3 1h-3l-3 6-3 6-2 7-2 6-3 7-2 6-1 8v8l-1 8-1 7-2 7-2 7-3 6-2 6-2 8-1 7-1 8-1 7-1 8v8l-3 1-3 1v-17l1-7 2-8 1-7 2-7 1-7 2-7 1-8 1-8 1-7 2-7 1-8 1-8 2-6 2-7 1-7 2-7-3-1-3-1-5 4-4 4-5 5-4 4-4 5-4 4-2 7-2 6-3 7-2 6-2 7-1 7-1 9v29l1 8 2 7 2 7 2 6 3 6 4 5 5 4 1 1h1zm-903-1l9-6 4 2 5 2 1-3 1-3-6-2-5-2-2-2-2-2-2 2-1 2-5 1h-5l1 3 2 2 2 3 3 3zm258-87c1.5-5 2-8 2-9l1-3-1-5c0-2.5-.5-6-1-7v-38l-1-5v-34c0-3-.5-7-1-8l-1-2v-58c0-3-.5-7-1-8v-26c0-3-.5-7-1-8v-3l-1-5v-11l-1-5v-34c0-3-.5-7-1-8v-3l-1-5v-47l-1-5v-51c0-3 .5-6.5 1-7l1-1v6c.5 2.5 1 6.5 1 8v8c.5 2.5 1 6.5 1 8v15l1 2v6c.5 2.5 1 6.5 1 8v43c.5 2.5 1 6.5 1 8v35l1 2v5c.5 2.5 1 6.5 1 8v18l1 2v40c0 3 .5 7 1 8l1 2v14l1 2 1 5c.5 2.5 1 6.5 1 8v34l1 2 1 5c.5 2.5 0 6-1 7l-1 1v5c.5 2.5 1 6.5 1 8v3l1 5c1 2 2 5.5 2 7v3l1 5c.5 2 1 5 1 6l1 1-3 1c-1 .5-2 2-2 3v2l3-2c2-1.5 4.5-3.5 5-4l2-2v-2c0-1.5.5-4 1-5l1-2-1-2c-.5-1 0-2.5 1-3l2-1-1-1c-.5-1-2-2.5-3-3l-1-2-2-3c-1-2-1.5-4-1-4l2-1 3 3 4 2 1-1-1-2c-.5-1.5 0-3 1-3h2l4 2 6 3 2 1v-1c0-1-1-2.5-2-3l-1-2-3-3-2-3 2 1 2 1 3 1c2 0 4 .5 4 1l1 1v-1l1-1 4-1c2.5-1 5.5-2 6-2l1-1 3-1c2-1 4.5-2 5-2l2-1 4 1h8l3-2c2-1.5 4.5-3 5-3l1-1 4 1c2 0 4-.5 4-1l1-1h7l2-5c1-2.5 2-6 2-7v-8c.5-3.5.5-7.5 0-8v-7c.5-3.5 1-7.5 1-8v-20l-1-6v-28l-1-6c-.5-3-1-6.5-1-7v-2l-1-6v-28l-1-6c-.5-3-1-6.5-1-7v-37l-1-6v-45l-1-6c-.5-3-1-7-1-8v-36l-1-7v-33c.5-3.5 1-8 1-9v-2l1-6c.5-3 1.5-5.5 2-5h1v7c.5 3 1 7 1 8v8c.5 3.5 1 8 1 9v8c.5 3 1 6.5 1 7l1 1v31l1 1v17l1 7c.5 3 1 7 1 8v25c.5 3 1 7 1 8l1 1v7c.5 3 1 7 1 8v11h1l1-6c.5-3.5 1-7.5 1-8l1-1 4-2c2.5-1.5 5.5-3 6-3l1-1 3-3 5-5 1-1 3-3c2-2 4.5-4 5-4l1-1h2c1.5-.5 3 0 3 1v1l3-2c2-1 4.5-2 5-2h13l1-1 6-1c3-.5 6-.5 6 0v1l-4 3c-2 1.5-4.5 3.5-5 4h-1l-4 3c-1.5 1-2.5 2.5-2 3h1l1 3c1 1.5 2 4 2 5v1l2 5c1.5 2 3 4.5 3 5l1 1-4 4c-1.5 1.5-4 3-5 3l-1-1-4-3c-2-1.5-4.5-3.5-5-4v-1l-4-3c-1.5-2-3.5-4-4-4l-1-1-4-2c-1.5-1-3.5-1.5-4-1v1l-4 4c-1.5 1.5-2.5 3.5-2 4h1l3 4c2 1.5 4.5 3.5 5 4l1 1 4 3c2 1.5 4 3.5 4 4l1 1 4 1c2.5 0 5 1 5 2v1l-3 3c-1 1.5-2.5 3.5-3 4h-1l-4-1c-2-.5-4-1.5-4-2l1-1-4-3-3-4 1 1 1 1 1 4c.5 2 .5 4 0 4l-5-1c-2-1-4.5-1.5-5-1h-1l-4 4c-1.5 2-3.5 4.5-4 5v2c0 .5.5 1 1 1l1-1 3-3c2-2 4.5-4 5-4l2-1 2 5c1.5 2 3 4.5 3 5l1 1 4 3c2 1.5 4.5 3.5 5 4h1l3 4c2 2 4 3.5 4 3l1-1-3-4c-1.5-2-3.5-4.5-4-5v-1h3c1.5 0 3.5.5 4 1l1 1 2 4c1.5 1.5 3.5 3 4 3h2l3-1c1.5-.5 3-1.5 3-2l1-1 4-3c2.5-1.5 5.5-3 6-3l1-1 3-4c1.5-2 3-4.5 3-5l1-1-3 2c-1 .5-2.5 1.5-3 2l-1 1-1-2c0-1.5.5-3 1-3l1-1-2-2c-.5-1.5-1-3.5-1-4l1-1-2 2c-1 .5-2.5 1.5-3 2h-1l-4 3c-2 1.5-5 3-6 3h-1l-1 5c0 2-1 4-2 4h-2l-5-2c-2-1.5-4.5-2.5-5-2h-6c-2.5 0-5.5-.5-6-1v-1l5-2c2.5-1.5 5.5-3 6-3h2l4-3c2-1.5 4-3.5 4-4l1-1v3c.5 1 1.5 2 2 2h1l3-4c1.5-2 3.5-4 4-4l1-1 2-1c1.5-1 3-1.5 3-1l1 1-1 4-1 3v-1l1-1 2-4 3-5h1l3 2c2 .5 4 2 4 3l1 1h3c2-.5 4.5-1 5-1l1-1 3-4 3-4v-1l3 3c1.5 1 2.5 2.5 2 3v1l-2 5c-.5 2-1.5 4.5-2 5v5c0 2-.5 4.5-1 5l-1 1-6 2c-2.5.5-5.5 1.5-6 2v1l-5 3c-2 1-4.5 2.5-5 3h-1l-3 3c-1 1.5-1.5 3-1 3l1-1 4-2c2.5-1.5 5.5-3 6-3l1-1 3-3c2-2 4.5-4 5-4l2-1 2 2c1.5.5 3 1.5 3 2l4-1c2-.5 4.5-.5 5 0h1l3 5 3 4v-1l1-1 2 3c1.5 1 3 2.5 3 3l1 1h3c1.5-.5 3.5-1 4-1l1-1-2-3c-1-1.5-2-3.5-2-4v-2l2 2c1.5.5 3 1.5 3 2l4 3c2 1 4.5 2.5 5 3h1l4 3c2.5 1 5.5 2.5 6 3h1l-1 4v4-1l1-1h4c2 0 4 .5 4 1l1 1 4 3c2 1.5 4.5 3 5 3h2l6 1c3.5.5 7.5 1.5 8 2h1l4 3c2.5 1 5.5 2.5 6 3h1l-1-3c0-1.5.5-2.5 1-2h1l3 4c2 1.5 4.5 3.5 5 4h1l-1 2v2l1 1h5c3 0 5.5.5 5 1v1l-3 3c-1.5 1.5-2.5 3.5-2 4h1l4-1 4-2h1v-8 1l1 1 1 6c.5 3 1 7 1 8v1l3 4 5 5h1l-2-5c-.5-3-1-6.5-1-7l1-1 3 4c2 2 4 5 4 6v1h2c1 0 1.5-.5 1-1v-1l-2-5-2-5 1 1h1l3 2c1.5.5 3.5 1 4 1h2l3 4c2 1.5 4.5 3.5 5 4h1l6 2c3 .5 6 1.5 6 2l1 1v-2l1-3v1l1 1 3 4c2 1.5 4 3.5 4 4l1 1 2 6c1 2.5 2.5 5.5 3 6h1v-3c.5-2 .5-4.5 0-5v-1l-2-6c-.5-3-1.5-6.5-2-7v-1l3 4c2 1.5 4 3.5 4 4l1 1v-2c0-1-.5-2.5-1-3v-1l-1-4c0-2 .5-3.5 1-3h1l3 4c2 1.5 4 3.5 4 4l1 1 3 1c1.5 0 2.5.5 2 1h-1l2 3c1.5 1 3.5 2 4 2l1-1 1 1c1 0 1.5.5 1 1v1l-5 2c-2 1-4.5 2.5-5 3v1l-3 3c-1.5 1.5-4 3-5 3h-1v2l1 2h1l2 1h4l1-1 4-3c2-1.5 4.5-2.5 5-2h1l2-4c1-2.5 2-5.5 2-6l1-1 3-2c2-1.5 4.5-2.5 5-2h1l6 2c3 .5 6 1.5 6 2l1 1 4-1c2-.5 4.5-1 5-1h5l4-1-1 1v1l-3 5c-1 2.5-1.5 5-1 5h2l3 3c1.5 1.5 3.5 3 4 3l1-1 3-3c2-1.5 4.5-2.5 5-2h1l3 2 3 2-1-1v-1h5c2.5 0 5 .5 5 1l1 1 4 4c2 1.5 4.5 3.5 5 4h1l-4 1c-1.5 0-3.5-.5-4-1v-1l-1 3v4l1 1-2 2-1 2 1 1 1 1-1 1c-.5 0-1-.5-1-1v-2l-1-1v-1h-2c-1-.5-2-.5-2 0l1 1-5-1-5-2 3 4c2 2 4 4.5 4 5l1 1 3 5 4 5 2-2 2-3 1-1c1-.5 2.5-1 3-1h2l4-4 4-5 4-2c2-1.5 4.5-3 5-3l1-1 3-3 4-3-3-1-2-1v1c.5.5 0 2-1 3l-2 1-3 3c-1 1-3.5 3-5 4l-2 1-3 2c-1.5 1-4 1-5 0l-1-2h2c1.5-.5 3-2 3-3v-2l-1-3c0-1.5-.5-4-1-5v-3l-3-1c-1.5-.5-3.5-1.5-4-2l-1-2-2-2-4-4-1-3 3 1c2 0 5 .5 6 1l3 1 2 3c1.5 1 3 1.5 3 1v-1l-1-3c0-1.5 1-3 2-3h4c1.5-.5 3.5 0 4 1l2 2 2 2 3 1-2-2-2-2 2 1c1.5 0 4 .5 5 1l3 1 2 3c1.5 1 4 3 5 4l2 2 2-2c1-1.5 3-4 4-5l2-2 2-3c1-1.5 2.5-4 3-5l2-2 1-3c1-2 3.5-4.5 5-5l3-1 3 2c2 .5 5 .5 6 0l2-2h2c1 0 3 1 4 2l3 1 2 2c1.5 1 4 3 5 4l2 2-1 2c0 .5-.5 1.5-1 2h-1l-1 2c-.5 1 .5 1.5 2 1l3-1 3-2c1.5-1 4-2.5 5-3l2-2h-4l-6-2-2-2-2-2c-1-1.5-3-4-4-5l-1-3-1-1v-2h-1l-3-3c-.5-1-1-2.5-1-3l1-1 2 4 2 3 3 1h3l-4-5-3-5 3 1h4l4 3 5 3-4-4-4-5-6-3-5-4-5-3-5-4-6-3-5-4-4-4-4-5-4-5-3-5-5-4-4-5-5-3-5-4-4-5-4-5-4-5-3-5-3-5-3-6-3-6-2-7-1-8v-8l-2-7-1-8 3-5 3-6 3-5 4-5v-7l1-8 3-5 4-5 2-7 2-7 2-6 3-6h-7l-5 3-4 2-2 7-1 7-1 8-1 8-1 8-1 7-3 6-2 6-2-4-2-4 1-7 1-8v-8l1-9 1-7 2-7 4-4 4-5 3-5 3-5 4-4 4-5h4l-4 5-4 4-1 3v3l4-4 5-5 3-5 3-6 3-5 4-6 1-6 2-6 2-6 3-6 3-5 4-6 4-4 4-5 4-4 5-5 2 4 2 3 6-2 6-3 7-1 7-1 5-3 5-4-3-3-3-3h-15l-7 2-6 2-2-1-2-1 6-2 6-3h8l9-1 2-2 3-2 6 3 6 2 6 3 6 3 5-3 5-4v-1l1-2-6 1-5 1-4-1-4-2 6-2 7-3 7 2 7 1 8 1h9l5 3 6 3 3 3 4 3 6 3 6 3 6 1h6l8-1 8-1 6 2 6 1 5-1 6-1 2-3 3-4v-6l1-6 4 5 5 4 5 2 6 2 5-3 6-3 3-5 4-6 5-2 6-2 5-4 5-4 3-1 3-2-3 6-3 5-5 4-5 4-3 5-3 4-2 8-1 7-3-2-2-2-1-2-1-3-6 3-6 3-6 2-6 1v1h1l1 6 1 5-3 6-2 6-1 7-1 7 2 3 3 3v-7l1-8 3-5 4-5 2-4 2-5 3-5 4-6 1 2 2 2 1 7 1 7-1 6v6l-3 4-2 4 1-7 1-7-2 3-2 2-4 5-4 5-1 2v2l1 5 1 4 3-1 3-1h3l3-1-1-2v-3h5l2 7 2 6 3-1 3-1h2l2-1 3-6 3-6 1-7 1-8-2-7-1-7-2-7-1-8-3-6-2-6h3l4-1 2 6 3 6 2 6 3 6 1 8 2 7-2 7-1 7-2 8-1 7-2 7-1 7-2 6-1 6 3 6 3 6v-3l3 2 4 1 1-6 2-6v-17l1-7 2-8-1-6v-6l-1-7-1-7-2-6-2-7v-4l1-4 4 5 4 5 2 7 2 6 1 8 2 7 1 8 1 7-1 8-1 7-1 9v8l-3 6-2 6-4 4-4 4-1 1v1l2-1c1-.5 2.5-1 3-1h3c1-.5 2.5-2 3-3l2-3 3-2c1.5-1 4-3 5-4l2-2 3-1c1.5-1 4-2.5 5-3l3-2 3-1c1.5-1 2-2.5 1-3l-1-1-3 2c-1 1-3.5 3-5 4l-2 1-2-1c-.5-.5-.5-2 0-3l2-3 2-3c1-1.5 2-4 2-5v-2l-1-3c-.5-2-1-5.5-1-7v-4h-1l-1 2c0 1-1.5 4-3 6l-2 4h-1c-.5 0-.5-2.5 0-5l2-5 2-6 2-7 3 1 3 1-2 5-2 4v-1l1-2 1-1c1-1 3.5-1 5 0l4 1 1 2 4 2h2l-1-2-3-6-1-4-1-2c-.5-1.5.5-3.5 2-4l3-2 1 2c.5 1 1.5 4 2 6l2 4 1 2c.5 1 1.5 4.5 2 7l2 4 2 1c1 .5 2.5 3.5 3 6l1 4 1-1c1-1 4-1 6 0l4 1 1 2c1 1 2.5 3.5 3 5l2 3v-1c.5-1 2-3.5 3-5l3-3 2-1c1-.5 4-1.5 6-2l4-1v2c.5.5-1 2-3 3l-3 2-2 1c-1 .5-3 3-4 5l-2 3-1 2c-.5.5 0 3 1 5l2 3 1 2c.5 1 1.5 3.5 2 5l2 3v-12l-1-1c-.5-.5-2-2.5-3-4l-2-4 1-1c1-1 3.5-3 5-4l4-2 2-1c1-1 3.5-3 5-4l4-2 2-1c1-.5 1.5.5 1 2v3l-2 2c-.5.5-2 2.5-3 4l-1 2h1c.5 0 2.5-.5 4-1l3-2 2-1c1-.5 3.5-2 5-3l4-2h3l3-1-1 1v1l2 1 6 3 4 1 2 1 6 3 4 2 1 2c1 .5 3 2.5 4 4l3 3 1 2c1 .5 3 3 4 5l2 3 1 3c.5 1 1.5 4.5 2 7l1 4-1 2c-.5 1-.5 4.5 0 7l1 4v3c.5 1 1.5 4.5 2 7l2 4v3c.5 1-.5 3.5-2 5l-2 3-2 2c-.5.5 0 1 1 1h3l1-2c1-1 3.5-.5 5 1l3 2 1 2c1 .5 4.5 1.5 7 2h5l2 1c1.5 0 5.5-.5 8-1l5-1 2-1c1-.5 3-.5 4 0l3 1-2 1c-1 .5-2.5 2-3 3v2l2-1c1.5-.5 4.5-2 6-3l3-3v-1c.5-1 0-3.5-1-5l-2-4h1c1-.5 3-2.5 4-4l2-3 1-1c1-1 3-2.5 4-3l3-1v-10l-5 1h-5l5-3 5-4V373h-7c-1-.5-1.5-2-1-3l2-2h6V0H0v443l2 1h2l-2 1-2 1v162l5 1c2.5.5 4.5 2 4 3v1l-5 1H0v133h1c1-.5 2.5 0 3 1l1 1-3 1-2 1v42h3l1-1 2-1-2 3-1 3H0v3l4-1 4-2v2c0 .5-.5 3-1 5v6c.5.5 2 1.5 3 2h2v2c.5.5 1.5 3.5 2 6l2 5h1c1 0 1-2.5 0-5l-1-5-1-1c-.5-.5-.5-2.5 0-4l2-3v2c.5 1 1.5 4.5 2 7l2 5v2c.5.5 2 .5 3 0l2-2v-1c.5-1 0-4.5-1-7l-1-5-1-1c-.5-1 0-4 1-6l2-5h1c1-.5 3.5-.5 5 0h3l1 2c.5.5 2 1.5 3 2h2v-1c0-.5 1.5.5 3 2l4 3 1 1c.5.5.5 2 0 3v2l-2 1c-.5.5-1 1.5-1 2h2c1 0 4-1 6-2l5-2h17c1-.5 2.5-1.5 3-2l1-2 1 1c1 0 3.5 1.5 5 3l4 3 1 2c.5.5 2-.5 3-2l3-3 1-1c.5-.5 0-3-1-5l-1-4-1-1-1-2-2-2-1-2 6-1 6-2 3 4 3 3 3-2 3-2 2-3 2-3-2 2-2 1h-3v-2l1-2h1c1 0 2.5.5 3 1h2l2-1 2-1v-1c.5-.5 3-2 5-3l5-3v-1c.5-.5 3-1 5-1l4-1-1 1c-.5 0-3 2-5 4l-3 3-1 1h-1l5-1 5-2h1c.5-.5 2.5.5 4 2l4 2h1c1 0 4 1.5 6 3l4 3 1 1c.5 0 1-.5 1-1l1-1v-1c0-1 2.5-1 5 0l5 2 1 1c.5 0 4-.5 7-1l7-1h1c1 0 2 1 2 2v2h1c1 0 4.5.5 7 1h6l1 1c.5 0 1.5-1 2-2l2-2h-1c-.5-.5-3.5-1.5-6-2l-4-2h-1c-.5-.5 1-2 3-3l5-2 1 1h7-1c-.5-.5-3.5-2-6-3l-5-2h-2c-.5 0-4.5-.5-8-1l-6-1v1c.5.5 3 2.5 5 4l5 2-1 1c0 .5-3 .5-6 0l-6-2-1-1c0-.5-1-3-2-5l-2-4v-1l4-4 4-4h1c.5-.5 3-1.5 5-2l4-2h1c1 0 2 1.5 2 3v3h-1c-.5-.5-2.5 1-4 3l-3 4v1h9v-1c.5-.5 2.5-1 4-1l4-1v-13h-2c-.5-.5-1.5-2.5-2-4l-1-3h1c1 0 2.5-2 3-4l1-4-1-1c0-1 1-3.5 2-5l3-4 1-1c.5-1 1.5-4 2-6l1-4v-2c.5-1.5 1.5-5 2-7l2-5 1-1c.5-1 2-1 3 0l3 1 1 1c1 .5 1 3 0 5l-2 4 1 1c1 0 4-.5 6-1l5-2 1-1 6-3 4-2 1-1c1-1 3.5-3 5-4l3-2v2c0 .5 1.5.5 3 0l4-2 1 2c.5.5 2 0 3-1l3-3 1 1c1 0 1 2 0 4l-2 4-1 2v2l2-3 3-4 2-1 2-1-1 2v1l-1 2-4 4-3 3v2c.5 1 1.5 1 2 0l2-3 1-1 5-5 3-3 1 1c.5 0 1.5 1 2 2l1 2-1 2c-.5 1 0 2.5 1 3h3l1 2c.5.5 2.5 0 4-1l4-3 1-1 6-3 4-2 1-1 2-2-2 4-1 3-1 2-4 4-3 3-2 2c-.5.5-2.5 1-4 1h-3l1 1c1 .5 3 3 4 5l2 4v2c0 .5-2 1.5-4 2h-3l-1-2-1-2v3l1 2v2c.5 1 2 2.5 3 3h3l2-1c1-.5 3-2.5 4-4l3-4 1-1c1-.5 3.5-2 5-3l3-2 1-1c.5-1 2.5-3.5 4-5l3-3 2-1 2-1 1-1h-2c-.5 0-3 1.5-5 3l-3 2-2 2-1 1 1-4 1-4 1-1c.5-1 3-3 5-4l4-2 1-1c1-.5 4 0 6 1l4 2 1-2c.5-1 1.5-2 2-2l2-1v2c.5 1 3.5 2 6 2l6-1 2 1c1 .5 3 3 4 5l2 4 1 2c.5.5 1-2 1-5v-6l-1-2c0-1-.5-4.5-1-7v-59l-1-2v-16c0-1.5-.5-5.5-1-8l-1-5v-20c0-1.5-.5-5.5-1-8v-26c0-1.5-.5-5.5-1-8v-8c0-1.5-.5-5.5-1-8v-9c0-1.5-.5-5.5-1-8v-26c0-1.5-.5-5.5-1-8l-1-5v-37c0-1.5.5-5 1-7l1-4v2c.5 1 1.5 4.5 2 7l1 5v12l1 5v11l1 5v2c.5 1 1 5 1 8v9c.5 1 1 5 1 8v17l1 5v3c.5 1 1 5 1 8v8c.5 1 1 5 1 8v26c0 1.5.5 5.5 1 8l1 5v29l1 5v17l1 2c.5.5 1 4 1 7v35l1 5v3c0 1.5.5 5.5 1 8l1 5v28l1 5v38c.5 1 1 5 1 8l1 5v11l1 5v20c0 1.5.5 5.5 1 8l1 5v29z" stroke-linejoin="round"/>
  <path stroke="#000" stroke-width="1.5" d="M74 825l4-3h-5l-5-1 3 2 3 2zm369 0l7-4 2-1 3-1 5 1 5 1 1-4 1-5 3-5 4-5-3 2-2 1-4 5-4 4-3-1-3-1h-10l-2 2-2 1 4 2 4 1-3 4-3 3z" stroke-linejoin="round"/>
  <path fill="#fff" stroke="#fff" stroke-width="1.5" d="M1143 825c-1.5-6.5-5-9.5-8-10l-6-2 3 3c2 1 5.5 4 7 6l4 3z" stroke-linejoin="round"/>
  <path stroke="#000" stroke-width="1.5" d="M431 820l10-5-8 1-7 1 2 2 3 1zM0 819v1l2-3 2-3c0-.5-1-1-2-1H0v6z" stroke-linejoin="round"/>
  <path fill="#fff" stroke="#fff" stroke-width="1.5" d="M1108 816l7-2-7-1c-3.5-1-9-2-11-2l-3-1 6 3c3 1 6.5 2.5 7 3h1z" stroke-linejoin="round"/>
  <path stroke="#000" stroke-width="1.5" d="M132 812l8-3-2 1h-1l-3 1-2 1zm53-1l10-5 1-2 2-2-6 1-6 1-1 4v3zm-45-3v1l-1-2v-3l-4-1-4-2h-6l6 3 6 2 1 1 2 1z" stroke-linejoin="round"/>
  <path fill="#fff" stroke="#fff" stroke-width="1.5" d="M75 799c8-4.5 14-7.5 17-9s8.5-3 11-3l5-1-5-3c-2.5-2-7.5-3.5-10-3s-5 .5-5 0c0-1-3-.5-6 1-2.5 1-7.5 4-10 6-2 2-8 3.5-12 3-3.5-.5-8-1-9-1s0 2.5 2 5c2 2 8.5 4.5 13 5h9z" stroke-linejoin="round"/>
  <path stroke="#000" stroke-width="1.5" d="M157 802l4-5-2 3-2 2zm9 0l11-2 5-2 5-3-3 1h-2l-7 2-6 2-2 1-1 1z" stroke-linejoin="round"/>
  <path fill="#fff" stroke="#fff" stroke-width="1.5" d="M0 796v1h3l1-3 2-3-2 1-1 1H0v3z" stroke-linejoin="round"/>
  <path stroke="#000" stroke-width="1.5" d="M426 796l9 1-2-1-1-1h-4l-4-1 1 1 1 1zm-332-1v1l1-1 1-1-1 1h-1zm386-2l6-9-3 1h-3v8z" stroke-linejoin="round"/>
  <path fill="#fff" stroke="#fff" stroke-width="1.5" d="M113 789h2l2-1 2-2h-2c-.5-.5-2-1-3-1h-1l-1 2v2h1z" stroke-linejoin="round"/>
  <path stroke="#000" stroke-width="1.5" d="M871 778l10-5-2 1h-2l-3 2-3 2z" stroke-linejoin="round"/>
  <path fill="#fff" stroke="#fff" stroke-width="1.5" d="M104 776l-2-1 1 1h1z" stroke-linejoin="round"/>
  <path stroke="#000" stroke-width="1.5" d="M868 773l8-7-5 2-5 1 1 2 1 2zm-15-3l10-5 6-1 7-1-1-3v-4l-4-5-3-5-3 5-2 5-4 6-3 5-2 2-1 1zm-635-3v-11 11zm878-3v-3 3z" stroke-linejoin="round"/>
  <path fill="#fff" stroke="#fff" stroke-width="1.5" d="M435 762l2-9-2 4c-.5 2-1 4.5-1 5h1z" stroke-linejoin="round"/>
  <path stroke="#000" stroke-width="1.5" d="M211 759l4-11h-3l-2 5-1 4 1 1 1 1zm103 0l7-4 2-1 3-1-5-3-4-4 3-4 3-5 3-5 4-5-4 2-4 2-4 4-3 4-3 5-3 5 2 5 3 5zm772 0l8-7 4-4 5-4 5-3 6-4 5-3 5-4 4-4 5-4v-12l-2-6-2-7-1-7-1-7-1-8v-27l1-7 3-5 3-6 1-7 2-8-1-8v-16l1-8 1-7 2-8 1-7 1-8-2-7-1-8h-17l-7 2-6 2-6-1-5-2-4-2-3-2-5-3-4-4 1 4 2 4h-13l-6-3-6-3-3-5-3-6 5 2 5 2h2l2-1 4-4 5-4 6-2 7-3 7 1 8 1h8l9-1 4 1h9l5-2 5-2 3-5 4-5-3-6-2-7-4-4-4-5-7-1-7-2 2 7 2 7-3 2-2 2-3-6-2-7-3-5-3-6-5-4-4-4-7 1-7 1-6 3-5 3-8-1-8-1-6-2-6-3-8 1-7 1h-9l-8-1-8-1-7-1-7 2-7 2-7 2-6 2-3 6-3 5-3 6-3 6 1 8 1 7 5 2 5 2 7 1 8 1 6 3 6 2 4 5 5 4 1-6 2-6-6-2-5-3-7-2-6-2-4-3-3-3 7 1 7 1 6 2 7 2 4 5 4 5 1 6 1 5-1 7-1 6-4 6-3 5-4 5-4 4-7 3-6 2-4-3-4-4h7l7-1 4-4 5-5 2-3 2-4-7 1h-6l-4-4-4-5-4-4-3-4-3 6-2 5h-3l-3-1h-2l-1-1-2 7-1 7-1 8v26l1 7 2 7 1 8 2 7 1 7 2 7 2 7 2 6 3 6 3 6 3 6 3 5h6l5 3 6 3h25l9-1h-4l-4-1h-18l-7-1-7-2-4-4-4-5 1-2 1-2 3 5 4 5 8 1 8 1h7l7-1 7 1h7l4 2 5 1 7 2 7 1 8 1h17l8-1 2 4 2 3-8 2-7 1h-17l-8-1-7-2-6 2-6 1-8 1-7 1-8-1-8-1h-8l-8-1-3 3-2 2 2 2 3 2 3 5 3 4 3 5 3 5 2 6 3 6 3 6 3 6 4 5 4 4 6 2 7 2 8 1h9l8 1h8l7-1 8-2 4-4 5-4 4-4 5-4-1 5v4h2l2-1-1 3v3l-5 4-5 4-6 3-5 3-7 2-6 1 4 3 4 2v1l1 1zm-196-2l3-2-2 1-1 1z" stroke-linejoin="round"/>
  <path fill="#fff" stroke="#fff" stroke-width="1.5" d="M1189 752c5-6 9-10 11-12 2-2.5 2.5-6 1-7-1-1.5-4-.5-6 2-1.5 2.5-6 6.5-9 8-2.5 1.5-3 4.5-1 6l4 3zM0 750v1l2-1 3-1-1-1c-.5-1-2-1.5-3-1H0v3z" stroke-linejoin="round"/>
  <path stroke="#000" stroke-width="1.5" d="M329 750l-4-3 2 2 2 1zm583 0l1-6-6-1-5-1v3l1 2 4 2 5 1zm13-2l9-6-4 2-4 1-1 2v1zm-586-1l10-5-1-2-1-3-3-3-2-4-1 3v3l-1 6-1 5zm501-5l5-10-5-4-4-4-6-3-6-3 4 5 4 4 1 4 2 4 2 4 3 3z" stroke-linejoin="round"/>
  <path fill="#fff" stroke="#fff" stroke-width="1.5" d="M880 742l2-1-1-1-1-1v3z" stroke-linejoin="round"/>
  <path stroke="#000" stroke-width="1.5" d="M917 742l8-7v-1l1-1-5 4-5 4v1h1zm-588-1l7-8-1 1h-1l-3 4-2 3zm-111-1l6-9 1-6 1-7-2 7-2 7-2 4-2 4zm634-1l-2-9 1 5 1 4zm-47-2v-9h-3l1 5 2 4zm4-2l6-3h5l-2-3-1-4-4 2-3 2-1 3v3zm131 0l-3-10-1 3v3l2 2 2 2zm-25-1l3-2-2 1-1 1zm227 0l10-5 4-1 5-1-2-4-1-5-1 3v3l-6 3-5 3-2 2-2 2z" stroke-linejoin="round"/>
  <path fill="#fff" stroke="#fff" stroke-width="1.5" d="M1092 731l1-6-1 3v3z" stroke-linejoin="round"/>
  <path stroke="#000" stroke-width="1.5" d="M900 730c.5 0 3-1 5-2l5-3h1l-2-1c-1-.5-3.5 0-5 1l-2 1-1 2-1 2z" stroke-linejoin="round"/>
  <path fill="#fff" stroke="#fff" stroke-width="1.5" d="M1123 722l5-8-2 2c-1 .5-2.5 2.5-3 4v2z" stroke-linejoin="round"/>
  <path stroke="#000" stroke-width="1.5" d="M944 718l4-3-2 2-2 1zm16 0v-7h-7l3 4 4 3z" stroke-linejoin="round"/>
  <path fill="#fff" stroke="#fff" stroke-width="1.5" d="M213 713l1-12-1 6v6zm855-6c10.5-2 15-4 16-5s-2-2.5-6-3c-3.5-.5-11.5-1-16-1h-17c-4-.5-12.5-1-17-1-4 0-7.5 1.5-7 3s5 3.5 9 4c4 0 15.5 1 23 2l15 1z" stroke-linejoin="round"/>
  <path stroke="#000" stroke-width="1.5" d="M751 702l-3-2 1 1 2 1zm-8-3v-1 1zm13 0l-2-1 1 1h1z" stroke-linejoin="round"/>
  <path fill="#fff" stroke="#fff" stroke-width="1.5" d="M1020 694h-1 1zm-53-8l2 1-2-3-2-4-1 1c0 .5.5 2 1 3l2 2zm-751-11v-1 1z" stroke-linejoin="round"/>
  <path stroke="#000" stroke-width="1.5" d="M692 675l1-2-5-3-5-4 1 2 1 2 3 3 4 2zm-187-7l2-9-4-3-3-3 1 6 2 5 1 2 1 2zm6-2l6-7-3 4-3 3z" stroke-linejoin="round"/>
  <path fill="#fff" stroke="#fff" stroke-width="1.5" d="M213 662v-7 7z" stroke-linejoin="round"/>
  <path stroke="#000" stroke-width="1.5" d="M618 661l7-8 4-4 4-5h-4l-4 5-3 5-2 4-2 3zm45 0l-3-2 1 1 2 1zm-50-1l4-9-3-5-2-5v6l1 5v8z" stroke-linejoin="round"/>
  <path fill="#fff" stroke="#fff" stroke-width="1.5" d="M709 658l10-1-7-2c-3-1-7-1-8 0-.5.5.5 1.5 2 2l3 1z" stroke-linejoin="round"/>
  <path stroke="#000" stroke-width="1.5" d="M512 655l7-6-3-5-3-6h-4l1 7 1 6v2l1 2z" stroke-linejoin="round"/>
  <path fill="#fff" stroke="#fff" stroke-width="1.5" d="M216 648c1.5-9.5 1-12.5 0-12-1 0-1.5 3-1 6l1 6zm831-4c9.5-3 15.5-5.5 18-7 3-2 6.5-7 7-10 1-3 1.5-9 1-12 0-3-1.5-8-3-10s-2.5-7-2-10l1-7-3 6c-1.5 3-3 8.5-3 11 .5 2.5 0 6.5-1 8-.5 1.5-4 4.5-7 6s-10.5 3-15 3c-4 0-12-.5-16-1-3.5-1-10-3.5-13-5-2.5-1.5-7-2.5-9-2-2 0-2 2.5 0 5l8 10c2 2 6.5 6 9 8s10.5 5 16 6l12 1z" stroke-linejoin="round"/>
  <path stroke="#000" stroke-width="1.5" d="M575 643l2-3-1 2-1 1zm10-1l8-7-4 3-4 2v2zm458-4l13-2 5-3 5-4-6 1-6 1h-17l-1 3-1 2 4 1 4 1zm-525-1l6-6-1 1h-1l-6-2-5-2-1 2v1l4 3 4 3zm46-1l12-3 1-2 1-2-3 3-3 2-4 1-4 1z" stroke-linejoin="round"/>
  <path fill="#fff" stroke="#fff" stroke-width="1.5" d="M1111 634c8-3 11.5-6.5 12-9l2-5-4 5c-2 2.5-5.5 6-7 7l-3 2z" stroke-linejoin="round"/>
  <path stroke="#000" stroke-width="1.5" d="M497 633v-3 3zm27-3v1l2-1 3-2-3 1-2 1zm54-2v1l4-3 5-4-5 3-4 3zm-61-2l2-11-1 6-1 5zm-18-2l3-10-2 5-1 5z" stroke-linejoin="round"/>
  <path fill="#fff" stroke="#fff" stroke-width="1.5" d="M0 613v1h4l5-1v-1c.5-1-1.5-2.5-4-3l-5-1v5zm601-9c3-9.5 5-16 6-19 1.5-3.5 3-10.5 3-14 0-4-1-11.5-2-15-.5-3.5-1.5-10-2-13 0-3.5-1-10-2-13-1-3.5-3-5.5-4-4-.5 1-1 4.5-1 7 0 2 .5 7.5 1 11 .5 3 2 9.5 3 13s1.5 10 1 13c-.5 2.5-1.5 9.5-2 14 0 4-1.5 11-3 14-1.5 2.5-2 5.5-1 6h3z" stroke-linejoin="round"/>
  <path stroke="#000" stroke-width="1.5" d="M1439 596l1 1v-19l-5 2-5 1h-1c-.5-.5-.5-2 0-3 1-1.5 3-3.5 4-4l3-1h2l2-1v-1l-4-1-3-1-5 4-5 3v6l6 1 7 1 1 6 1 6h1z" stroke-linejoin="round"/>
  <path fill="#fff" stroke="#fff" stroke-width="1.5" d="M621 595l5-10-2 2c-1 .5-2.5 3-3 5v3zm-39-11c-6-6.5-7-9-6-9s4.5 1.5 7 3c2.5 1 5.5.5 6-1 1-1.5-1-4.5-4-6s-7.5-6-9-9c-1-3-5-5-8-4s-6 4.5-6 7c.5 2.5 3 7 5 9 2.5 2 7 6.5 9 9s4.5 4 5 3l1-2zm-55-1l-3-10-1 4c0 2 1 4.5 2 5l2 1zm69 0l2-3-1 2-1 1zm832-3l2 1 5-1 5-2v-6l-2 1h-2l-3 1c-1 .5-3 2.5-4 4l-1 2z" stroke-linejoin="round"/>
  <path stroke="#000" stroke-width="1.5" d="M545 577l-4-7h-2l-1-1 2 3 3 3 1 1 1 1z" stroke-linejoin="round"/>
  <path fill="#fff" stroke="#fff" stroke-width="1.5" d="M621 569c3-6.5 4.5-12.5 5-16 .5-4-.5-8.5-2-9-1-1-2.5 2-3 6-.5 3.5-1 10-1 13l1 6z" stroke-linejoin="round"/>
  <path stroke="#000" stroke-width="1.5" d="M536 568l2 1-3-1-2-2 1 1 2 1z" stroke-linejoin="round"/>
  <path fill="#fff" stroke="#fff" stroke-width="1.5" d="M1085 565c-3-5-6-9-8-11-2-2.5-7-6.5-10-8l-6-3 3 4c2 2 6 6.5 8 9 2 2 6 5.5 8 7l5 2z" stroke-linejoin="round"/>
  <path stroke="#000" stroke-width="1.5" d="M1439 565l1 1v-3h-4c-1.5 0-4 .5-5 1h-2l5 1h5zm-27-3l-1-2v1l1 1zm-52-6l2-7-3 1-2 1 1 3 2 2z" stroke-linejoin="round"/>
  <path fill="#fff" stroke="#fff" stroke-width="1.5" d="M1120 554c9-2 11-4.5 10-6s-5.5-2-9-1c-3.5.5-10.5 0-14-1-3-1-6-.5-6 1s4.5 4 9 5l10 2z" stroke-linejoin="round"/>
  <path stroke="#000" stroke-width="1.5" d="M1358 541v-1l-5-4-4-4-4-5-3-6-3-6-2-6v-17l1-4 1-4-5-3-4-3 3 6 4 5-3 6-3 5 1 6 2 6 3 6 3 6 3 5 4 5 5 4 6 3z" stroke-linejoin="round"/>
  <path fill="#fff" stroke="#fff" stroke-width="1.5" d="M1412 541c-1-7.5-1-13.5-1-17v-8l-3 6c-1 2.5-1 8.5 0 12 1 3 2.5 6.5 3 7h1zm-349-2c-1.5-3.5-4.5-7-7-9-2-2-6-4-8-4l-3-1 4 4c2.5 2 7 5.5 9 7l5 3z" stroke-linejoin="round"/>
  <path stroke="#000" stroke-width="1.5" d="M1366 539l4-11-1-7-1-8-2-7-1-8-2-5-1-5-4-4-4-5-6-3-5-4-2 1h-2l5 4 6 3v6l1 6v22l1 8 3 5 4 5 3 4 4 3z" stroke-linejoin="round"/>
  <path fill="#fff" stroke="#fff" stroke-width="1.5" d="M1423 533l7-8-3 3c-1 1.5-2.5 3.5-3 4l-1 1zm-800-1l-1-4v2l1 2zm244-4c2-3 .5-6-2-8-2-2-6-5-8-6l-4-2 3 5c2 2.5 5.5 6.5 7 8l4 3z" stroke-linejoin="round"/>
  <path stroke="#000" stroke-width="1.5" d="M1129 525l13-2-6 1-5 1h-2z" stroke-linejoin="round"/>
  <path fill="#fff" stroke="#fff" stroke-width="1.5" d="M608 509c-1-12-2-19.5-3-23l-2-7-1 6c0 3 .5 10 1 14 .5 3.5 2 8 3 9l2 1zm10 6v-5 5z" stroke-linejoin="round"/>
  <path stroke="#000" stroke-width="1.5" d="M1141 515l8-7-3 2-2 2-2 2-1 1z" stroke-linejoin="round"/>
  <path fill="#fff" stroke="#fff" stroke-width="1.5" d="M1430 516l10-1v-6l-5 4-5 3zm-387-2l7-8-3 1c-1 .5-2.5 2.5-3 4l-1 3zm-152-7l5-10-2 2c-1 .5-2.5 3-3 5v3zm223 0c6.5-4.5 8.5-9 8-12l-1-7-2 7c-.5 3-2 7.5-3 9l-2 3zm-17-5c-1-3-4-5-7-6-3-1.5-10-2-14-1-3.5.5-7 2-7 3 .5 1 5 2 9 2 4-.5 10.5 0 13 1l6 1z" stroke-linejoin="round"/>
  <path stroke="#000" stroke-width="1.5" d="M1192 495c3-.5 6-1.5 8-2l4-1 1-1-6 2-6 1-1 1z" stroke-linejoin="round"/>
  <path fill="#fff" stroke="#fff" stroke-width="1.5" d="M994 486c-6-6.5-10.5-9.5-13-10-2-1-5 .5-6 3-1 2 0 4 2 4 2-.5 6 1.5 8 4 2.5 2 6 3 7 2l2-3z" stroke-linejoin="round"/>
  <path stroke="#000" stroke-width="1.5" d="M1288 492l1-8-3-2-2-2 2 6 2 6zm10-4l6-9-2-2-1-2-2 7-1 6zm-54-4l-2-3 1 2 1 1zm12-6l9-6-2-1-2-2-3 5-2 4zm67 0h-3 3zm-80-3l4-3-2 2-2 1z" stroke-linejoin="round"/>
  <path fill="#fff" stroke="#fff" stroke-width="1.5" d="M877 464l5-6-1 1-3 3-1 2zm5-6c5-6.5 8-12 9-15 1-3.5 3.5-10 5-13s4-9 5-12l3-6-3 4c-1.5 1.5-5 6-7 9-1.5 2.5-4.5 8-6 11-1 3-3.5 9-5 12s-2.5 7-2 8l1 2z" stroke-linejoin="round"/>
  <path stroke="#000" stroke-width="1.5" d="M1175 454l-2-3v1l1 1 1 1z" stroke-linejoin="round"/>
  <path fill="#fff" stroke="#fff" stroke-width="1.5" d="M1225 452h2l2-4c1.5-2 3-5 3-6l1-2h1l2-4 2-5-3-1-3-1-2 7-2 6-2 5-1 5zm-323-3c6-5 8-8.5 8-10v-4l-3 6c-1.5 3-3.5 6.5-4 7l-1 1zm366-16c-1-12-1.5-19.5-2-23s-3.5-9-6-11c-2-2-6.5-6-9-8-2-2-7-5-10-6-2.5-1.5-7.5-5-10-7l-4-4 2 4c1 2 4 6 6 8 2.5 2 7 6 9 8 2.5 2 7 6.5 9 9 2.5 2 5.5 7.5 6 11 1 3.5 2 11.5 2 16 .5 4 2.5 7 4 6l3-3zm125 3c-2.5-10.5-3-15-3-16s1-1.5 2-1c1.5.5 1.5-2 0-5-1-3-4.5-8-7-10-2-2.5-3.5-6-3-7 .5-1.5-1.5-5-4-7-2-2.5-7.5-5.5-11-6l-7-2 3 2c2 1 5 4 6 6 1.5 1.5 3 4.5 3 6 .5 1.5 1.5 6.5 2 10l4 12 6 12c1.5 2.5 4.5 5.5 6 6h3zM0 445v1l2-1 2-1H2l-2-1v2z" stroke-linejoin="round"/>
  <path stroke="#000" stroke-width="1.5" d="M1020 442l-4-1 2 1h2zm7-1l8-7 1-2 1-3 2 4 3 3-2-6-2-7 1-4 2-4 5 4 6 3 4 1 5 1 4 3 5 2-1-7-1-8 1 1h1l3 6 3 6 1 7 1 6 6 1 6 1 3-4 4-4v-17l2-6 3-7 6-2 7-2 4 5 5 4 2 5 3 5 4 3 4 2-1-6-1-6-2-5-2-6 4-3 5-4h-15l-7-1-7-2-8 1-8 1-7-1-6-1 4 4 5 3h5l5-1-4 5-4 4-5-3-5-3-5-4-4-4-6-3-6-3-7-1-7-2-7 2-7 1-7 2-6 1h-7l-7-1h-8l-7-1-7 1h-7l-6 3-5 3-6 3-6 3-4 5-4 4-4 6-3 5v2l3-4 3-5 4-4 4-5 6-3 6-3 6-1 6-2-6 4-5 3-6 3-5 3-3 6-3 5 3-2 4-3 3-1 4-1 6-2 7-3 7 2 7 1 4 3 5 3 5-3 6-4 3 1 4 1 3 3 4 2 3 2 3 1-3 5-3 4 1 7 1 6z" stroke-linejoin="round"/>
  <path stroke="#000" stroke-width="1.5" d="M1100 438l4-11-2 2-2 1-2 2-1 2 1 2 2 2z" stroke-linejoin="round"/>
  <path fill="#fff" stroke="#fff" stroke-width="1.5" d="M1349 436c7.5-3.5 9-6 8-7-1-1.5-3.5-.5-5 2l-3 5z" stroke-linejoin="round"/>
  <path stroke="#000" stroke-width="1.5" d="M990 432l5-4-5-1-5-2-6-3-5-4-4 2-4 1 5 1h5l5 4 6 3 1 2 2 1zm-55-4l5-6-1 1-1 1-2 2-1 2z" stroke-linejoin="round"/>
  <path fill="#fff" stroke="#fff" stroke-width="1.5" d="M1229 426l4-9-2 3-3 3v2l1 1zm-3-2l2-1-2-2-1-3v3l1 3zm50 0c2-7.5 1-12.5-1-15l-3-5 1 6c.5 3 1.5 8 2 10l1 4z" stroke-linejoin="round"/>
  <path stroke="#000" stroke-width="1.5" d="M1120 413l-4-3 2 2 2 1z" stroke-linejoin="round"/>
  <path fill="#fff" stroke="#fff" stroke-width="1.5" d="M482 399c0-12.5.5-21 1-25s-.5-7-2-6c-1 1-2.5 6-3 10v17c0 4.5 1 8 2 7l2-3zm752 7c3.5-1.5 3-4 1-6-1.5-2-5-4-7-4l-3-1 3 5c2 2.5 4.5 5.5 5 6h1zm-310-6c9-2 14-5 16-7l4-5-2 1c-.5 0-3.5 2-6 4-2.5 1.5-7 4-9 5l-3 2zm316-2c-1.5-5-2.5-6.5-3-6-.5 0 0 1.5 1 3l2 3zm-324-1l2-3-1 2-1 1zm48-11l11-4h-2c-.5 0-3 1-5 2l-4 2z" stroke-linejoin="round"/>
  <path stroke="#000" stroke-width="1.5" d="M1054 373l-6-3 3 2 3 1z" stroke-linejoin="round"/>
  <path fill="#fff" stroke="#fff" stroke-width="1.5" d="M1206 373l-5-6 1 2 3 3 1 1zm225-1l5 1h4v-5h-6l-2 2-1 2zm-285-12c-6-6.5-11-10.5-14-12-2.5-2-8-5.5-11-7l-10-6c-2.5-2-6-5-7-6l-2-2 2 6c1.5 3 5.5 8 8 10 3 1.5 8.5 4.5 11 6 3 1.5 8.5 5 11 7 2.5 1.5 6.5 3.5 8 4h4zm52 3c8-3 14.5-3 18-2l7 1-4-3c-1.5-2-6.5-3.5-10-3-3.5 0-8 2-9 4l-2 3zm97-8c-5.5-6-7.5-9-8-10 0-1.5-2.5-5-5-7-2-2-6.5-6-9-8-2-2-5.5-4-7-4s-2.5 1.5-2 3l1 2-6-3c-3-1.5-5.5-1.5-5 0 .5 1 3.5 4 6 6 2.5 1.5 7.5 5 10 7 3 1.5 8.5 5 11 7 2.5 1.5 7.5 5 10 7l5 4-1-2v-2zm-203-4c-6-5-10.5-9-13-11s-8-3-11-2l-6 1 6 3c3 1 8 4.5 10 7s6.5 4.5 9 4l5-2zm168 2c-1.5-5-5-8.5-8-10l-5-3 2 3c1 1.5 4 5 6 7l5 3zm-213-4c-1-7.5-4-11-7-12-2.5-1-7.5-1-10 0l-4 1 7 2c3.5.5 8.5 3 10 5l4 4zm-54-5c9.5-3 16-5.5 19-7s8-4.5 10-6l4-4-7 1c-3 .5-9 2.5-12 4l-12 6c-3 1-5 3-4 4l2 2zm149-3c3-9.5 6-15 8-17s1.5-5.5-1-7c-2.5-2-8.5-4.5-12-5-3.5-1-9-2-11-2h-4l5 3c3 1.5 8 5.5 10 8s2.5 8 1 11c-1 3-5 5.5-8 5l-6-2 9 3 9 3zm50-1v-1 1zm-5-3c0-6.5-1-8.5-2-8-.5.5-.5 3 0 5l2 3zm45-2c10.5-.5 14.5-2 15-3 1-1-2-2-6-2-3.5-.5-10.5 0-14 1l-7 1 4 2c2 .5 5 1 6 1h2zm-19-5c8-3 14.5-4.5 18-5 3.5-1 8.5-3 10-4l4-3-7 1c-3.5 0-10.5 1-14 2-3 1-7.5 4-9 6l-2 3zm-125-12c2-1.5 5-2.5 7-3s5-1.5 6-2c1-1 3-3.5 4-5 1.5-1.5-1.5-3-6-3-4-.5-12.5-1-17-1-4 0-11 1.5-14 3s-5 4.5-4 6c1 1-.5 4-3 6-2.5 1.5-5.5 4-6 5s2 1 5 0c3-1.5 9-2.5 12-2 3.5 0 9-1 11-2l5-2zm-61 1c9-.5 14.5-2.5 17-4 3-2 7.5-5.5 9-7l3-4-6 3c-2.5 1.5-8 4-11 5-2.5.5-8.5 2-12 3l-7 1 3 2 4 1zm136-2c1.5-3.5-1.5-6-5-7-3-1-8.5-1-11 0l-4 1 6 3c3 1 8 2.5 10 3h4zm20-3c-3-3.5-7-6-10-7l-6-3 3 3c1.5 1.5 5.5 4 8 5l5 2zm14-1l16 1-3-1c-1.5-1-5.5-1.5-8-1l-5 1zm-11-5l11-2-8-1-7-1 2 2 2 2zm-36-3c10.5-2 17.5-2.5 21-2 4 0 11.5-.5 15-1 4-.5 9.5-2 11-3 1.5-1.5-.5-3.5-4-4l-7-2h-9c-4-.5-12.5-1-17-1s-12.5 1-16 2l-6 1-5 3-5 3 11 2 11 2zm-31-6c10.5-2 15-3 16-3l3-1 3-4 3-5-6 3c-3 1-9.5 3-13 4s-10 3.5-13 5l-6 2h6l7-1zm97-3c-3-5-7.5-8-11-9-3-1-8-1-10 0l-3 1 7 1c4 .5 10 2.5 12 4l5 3zm-30-4v1l5-1 5-1-7-2c-3-1-10-2.5-14-3-3.5-1-6.5-.5-6 1 .5 1 4.5 3 8 4 3.5.5 7.5 1 8 1h1zm89-117v-3 3zm118-81c9-3.5 14.5-6.5 17-8l6-4-6 2c-3 .5-9 2.5-12 4-3 1-6 3-6 4l1 2z" stroke-linejoin="round"/>
</svg>
