<svg xmlns="http://www.w3.org/2000/svg" viewBox="0 0 1440 1440" version="1">
  <path d="M0 0h1440v1440H0z"/>
  <path stroke="#000" stroke-width=".7" d="M0 1439v1h211l1-2 1-2v-1c.5-1 3.5-3.5 6-5 3-1.5 6.5-3 7-3l1-1v-1l1-1 4-2c2-1.5 6.5-4 9-5l6-2h1c.5-.5 4-2 7-3 3-1.5 7.5-3 9-3l3-1 3-1c2-1 6-2 8-2h7l3-1 1-1 2-1 1-1c.5-.5 4-2 7-3l7-2h1l6-2c3-1 8.5-2.5 11-3l5-1 2-1c1-.5 3.5-.5 5 0h5c1-.5 3.5-1.5 5-2l4-1 2-1c1.5-1 6.5-3 10-4l8-2 5-2c2.5-1 8-2 11-2h8c1.5 0 6-1.5 9-3s6.5-3 7-3l2-1 4-2c2-1.5 5.5-4.5 7-6l4-4h1c.5-.5 2-1.5 3-2l3-1 6-2 6-2h1l2 1h12c4.5 0 9.5-.5 10-1l1-1h6c3.5 0 9 1.5 11 3l5 2 1 1c1 0 4.5 2.5 7 5l5 4 1 1 1 1 2 5c1 2 2 7 2 10v9l-2 3c-1 1-5.5 3-9 4l-7 2h-4l-3-1-6 1c-2.5 0-6.5.5-8 1h-11l-6-2-5-3v-1c0-1-2.5 0-5 2s-5.5 5-6 6l-1 2-4 6c-2 2.5-5 6-6 7l-2 2-2 2c-.5 1-1.5 1-2 0 0-1-1.5-3.5-3-5l-2-3-1-1c-.5-.5-2.5-2-4-3l-3-3-3 1-2 1-1 1v1l-2 3c-.5 1-3 4.5-5 7l-3 4-6 3-5 3-2 3-2 3-2 2-2 2v1h282l1-4 1-4h3c1.5-.5 5.5-2.5 8-4l6-3h1l6-2c3-1.5 7-2 8-1l3 1v2c.5 1-1.5 4.5-4 7l-5 5v1l-1 1-1 1h756V462h-9l-3 1c-1 0-4.5.5-7 1l-4 1-1-3c-.5-1.5-2.5-4-4-5l-2-2-2-2c-1-1.5-3-3-4-3h-1v4l1 3v5c.5 2.5.5 6 0 7v1l-2 4c-.5 2 0 6.5 1 9l2 5-2-1c-.5-1-3-5-5-8l-3-7-2-1-1-1h-1c-.5-.5-3.5-3-6-5l-5-5 2 3 4 6 2 2v2l1 1c.5 0 2.5 3 4 6 1.5 2.5 3 7 3 9l1 3 1 3c1 1 2 4.5 2 7l1 5 1 2 1 2 2 4c1.5 1.5 2.5 4 2 5v1l-1 4v4l-2 1-1 1h-2c-.5-.5-2.5-3-4-5l-2-5-1-1v-1l-2-1c-.5-1-2-2-3-2h-1l-1 1h-1l3 2 3 1 2 2c1 1 2 4 2 6l1 4-2-3c-.5-1.5-4-3.5-7-4l-6-1-2-6c-.5-3.5-1.5-9.5-2-12l-1-5-1-2-1-2 2 2c1 .5 2.5 1.5 3 2l1 1 3 1h3l-1-1c0-.5-1-2.5-2-4l-2-4-2-1c-.5-1-1.5-4-2-6v-5l-2-1c-.5-1-2-2.5-3-3l-1-2h-2c-.5 0 0 2.5 1 5l2 5-4-3c-1.5-2-5-5.5-7-7l-3-3-1-1c-.5-.5-.5-3.5 0-6s1-5.5 1-6v-2l2-2 2-2 1-1-5-4c-2.5-2.5-7-5-9-5l-3-1h-4c-2-.5-4.5-1-5-1l-1-1h-7l-2 1c-.5 0-2 .5-3 1h-1l-10-1-9-2h-1c-.5-.5-4-1.5-7-2l-5-2-2-2-2-2-1-3c-.5-1.5-2.5-6-4-9l-3-7-3 3c-1 1-2 5-2 8v8l-2 4-1 4-2-4-2-4-1-2v-14c0-2-.5-5-1-6v-3l-2-4c-1-2-4-5.5-6-7l-4-4-1-5c-.5-2.5-2-6-3-7l-2-2h-3l-2-1-5-3c-2.5-1.5-6-3.5-7-4l-1-1-5-1c-2-1-5.5-3.5-7-5l-3-4h-2c-.5 0-.5 2.5 0 5 1 2.5.5 5.5-1 6l-3 1-4-1c-1.5-1-3-.5-3 1v2l1 1 1 1-1 2c-.5.5-3.5-1-6-3l-4-5-1-1v-2h-2c-.5-.5-2-1-3-1l-2-1 1 6 1 5 2 8c1 3.5 2 9 2 11l1 3v4l1 4-3-4-2-5-2 1c-1 0-1.5 2-1 4l1 4 1 3c.5 1 1 3 1 4l1 1v4c.5 2 .5 6 0 8v3l-2 2-1 2v-14l-1-1-1-1-3-6c-1-3.5-2.5-8-3-9v-2l-1-1-1-1v2c0 .5-.5 5-1 9v14l1 4c1 1.5 3.5 4 5 5l3 1-4 1-3 1-3-6c-1-3-2.5-8-3-10v-7c0-2-.5-7.5-1-11-.5-4-2-8-3-8h-1l-2 4c-1 2-2.5 4.5-3 5v2l-1 4v4l-1 2c0 .5-2 3-4 5-1.5 2-3.5 3-4 2l-1-2-1-1v-1l-3-4-2-4v-5c.5-2-.5-4-2-4-1.5-.5-3.5-1-4-1h-3l-1 1c-.5.5-3 2-5 3l-4 1-1-1v-1l-4-1c-2-.5-7 0-10 1l-6 1-1 1c-.5 0-2 3-3 6-1 2.5-2.5 6.5-3 8v3l-2-4-2-5 2-5 3-5-4-1-3-1-2-1-1-1-3-3-2-4 1 1h4l-3-2c-1.5-1.5-3-3.5-3-4l1-2v-2h-2l-1-1h-7c-2 0-5.5-.5-7-1l-3-1-4-1c-2-.5-4.5-1-5-1v-1h-1l-1-1h-13l-4 2c-1.5.5-4 1.5-5 2h-1l-2 1c-.5 0-2.5 1-4 2l-2 2-3 1h-7c-2-.5-7-1-10-1h-19l-7-1-1-1-1-1-2 1-4 2-1 1-1 1c-.5.5-.5 1 0 1h1l-1 2c0 .5-2.5 2.5-5 4l-5 2-6 3-6 3-2 3-2 2-4 5c-1.5 2.5-4.5 6.5-6 8l-2 3-1 3-1 2-1 1c0 .5-2 2.5-4 4l-3 3-4 5c-2 2.5-5 6.5-6 8l-2 2-1 3c-.5 1.5-3 5.5-5 8-1.5 2.5-3.5 5.5-4 6h-1l-3 5c-1.5 2-4 6-5 8l-2 4v3c0 1-.5 5.5-1 9l-1 7-1 3v2l-1 4c0 1.5-.5 6-1 9l-1 5-1 3-1 2-2 1c-.5.5-3 .5-5 0s-5-1-6-1l-1-1-2 3c-1 1-4.5 3-7 4l-4 1h-4l-3-1-1 1h-1l-4 3c-1.5 1-3.5 2.5-4 3l-1 1-2 5c-.5 2.5.5 7 2 9l3 4v2c.5.5 2.5 4 4 7 2 2.5 5 5.5 6 6l2 1 3 2 4 2 2 1c1.5 0 2-1 1-2l-1-3-1-2c-.5-1 1.5-3 4-4l5-3h-1l-1-1-2-4c-.5-2 .5-4 2-4l4-1 2 1c1 0 2 1 2 2l1 1 2 7 2 7 1-1c1-.5 1.5-3 1-5v-6l-3-7c-1-4-1.5-8.5-1-9l1-2 2 4c1.5 1.5 3 3.5 3 4l1 4c.5 1.5 1 4 1 5l1 2 1 6c.5 2.5 2 7.5 3 10l2 5 1 1c.5 0 2 3.5 3 7l4 8 2 2 2 3c1.5 1 5 4.5 7 7l4 4 1 2 1 1 4 2c2 1 4 3 4 4v2l1 3c.5 1-1.5 3-4 4-2 1-4 1.5-4 1v-1l-1-1c0-1-1-3-2-4l-1-3-4-4-3-4-1 4-1 4-5 3-4 3-6-2c-3-1-8.5-2-11-2l-4-1v1h1l6 2 6 1-3 1-3 1h-3c-1.5-.5-4-1.5-5-2l-2-1h-1l-3 2-2 2-1 3-1 2-1-2c-.5-1.5-3-3-5-3-1.5 0-3 1-3 2l1 1-4-1c-1.5-1-4.5-.5-6 1l-2 3-1 1c-.5.5-2.5.5-4 0-1-1-2.5-2-3-2l-1-1-4 3c-1.5 1-4.5 1-6 0l-3-2v3c0 1-1 1-2 0l-2-2h-4c-2-.5-7.5-1-11-1l-6-1-2-1c-.5-.5.5-2 2-3l3-3h-2l-1-1-2 1h-1l-3 5-3 4-4-1c-2-.5-6-.5-8 0h-6c-.5 0-4.5-1-8-2-3-1-7-2.5-8-3l-1-2v-1l-5-2c-2-1-7.5-2.5-11-3l-6-1-7-1-7-1-4-1-4-2-4-2c-2-1-6-4-8-6l-3-4-3-2c-1.5-1.5-2-4-1-5l2-3 3-1c1.5-1 1-2.5-1-3l-4-1-2 1h-3c-1-.5-1-1.5 0-2 1.5-1 5.5-3 8-4l5-2h1l1-1 3-2c2-1.5 5.5-1.5 7 0l3 2v2c.5.5 2-2 3-5 1.5-3.5 3.5-7.5 4-8l1-2 3 1c2 0 7 .5 10 1h7c.5-.5 4.5 0 8 1 3.5.5 8.5 1 10 1h4l-2-3c-.5-2-1.5-6.5-2-9l-1-5 2-2c1.5-1 4-1 5 0l2 1v1l1 1 2 4c1 2 3 7 4 10l2 5v2c0 .5.5 2 1 3l2 1 2-4 2-5 3-4 3-5-2-4-2-4-2-2c-.5-1-2.5-4-4-6l-3-4v-1l-5-2-5-2h-3c-1.5 0-4.5.5-6 1l-2 1-3 3c-1 1.5-3 1.5-4 0l-2-3 5-4c2.5-2 6.5-4.5 8-5l4-1h-7l-3 2-6 2h-3l-1 2-1 1-2 5c-1 2-3 3.5-4 3l-1-2-4-2c-2-1-6-4-8-6l-3-4-3-7c-1.5-3.5-3.5-8-4-9l-1-2v-1l-2-2c-.5-1.5-2.5-4-4-5l-2-2-1 4v4l-4-2c-2-1-4.5-1.5-5-1v1l-4-2c-2-1.5-5-4-6-5l-1-3-2 1h-5c-1.5-.5-6.5-2-10-3-3-1-6.5-2-7-2l-1-1h-2l-2-1c-.5-.5-3-2-5-3l-4-2v3c0 1-1 2-2 2h-2l1 2c.5.5 2 2.5 3 4l2 3-1-1-1-1-4 2c-1.5 1-5 3.5-7 5l-3 3v-1c0-1-.5-5.5-1-9-.5-4-1-9.5-1-11v-4l-2 2c-1 1-2.5 4-3 6l-1 4v7l-1 3v31c.5 3 1 9.5 1 13v6l-1 2c0 .5-.5 4-1 7v16l-2-1c-1-1-2-3.5-2-5v-8c.5-2.5 1-9 1-13v-9l-1-2c-.5-1-1.5-3.5-2-5l-1-4v-25l-1-4c0-2-.5-8-1-12l-1-9-2-5c-1-3-3-8-4-10l-2-4v3c.5 1 1.5 5.5 2 9 1 3.5 2 8 2 9v2l-1 3v2l-1-2v-2l-2-1-2-2-3 2-3 1-3-2c-1-1.5-4-3-6-3h-3l-4 1c-2 .5-5 2-6 3l-2 2-6 1c-3 0-7.5 1-9 2l-2 1 1 1 2 1-1 1-1 1-5-2c-2.5-1.5-5.5-3.5-6-4v-2h-2l-1-1-2 1c-.5.5-3.5 2.5-6 4-2 1.5-4.5 3.5-5 4l-1 1-3 3-3 2 1-2 2-4 2-3 2-3c1-1.5 3.5-4 5-5l3-3h-1l-6 2-5 1-2 3c-.5 1.5-1.5 3.5-2 4l-1 1-4 2c-2 .5-4-.5-4-2v-3l-2 1c-1 0-3.5 1-5 2l-3 1-1 2c-.5 1-1.5 2-2 2l-1-1-2 2c-.5.5-1-2.5-1-6l1-8-2-6c-.5-3-1.5-7-2-8v-3l-2-2c-.5-1-1-3.5-1-5l1-3v-5l1-5v-2c0-1.5-.5-7-1-11 0-4-.5-9-1-10v-16l-1 6-1 6v31c.5 2 1 8.5 1 13v20l-1 7-1 6v10l1 9v3l1 3v45l1 3v3l1 2v11c.5 4 1 10 1 12v22l1 7v10c0 5-.5 11.5-1 13v3l1 4c.5 2 1 8 1 12v8l-1 8v18l1 6c1 2.5 1.5 7.5 1 10v5l-1-1c-.5-.5-2.5-3-4-5l-2-5h-1c-.5-.5-1-2.5-1-4v-3l-1-3c0-2-2.5-3.5-5-3l-4 1 2-5c1.5-2.5 2.5-6 2-7l-1-3-1 2c-.5.5-2.5 4-4 7-1.5 2.5-3.5 6-4 7l-1 1h-3c-1.5-.5-4-3.5-5-6l-1-6h-1c-.5-.5-4-2-7-3-2.5-1-5-1-5 0l1 2-4-2c-1.5-1-5.5 0-8 2l-4 4 1-5c1-3 2-7 2-8v-3l-3 2c-1 .5-5 3-8 5l-6 3-1 4c0 1.5-1.5 2.5-3 2l-3-1-1-1c-.5-1-4-2-7-2-2.5-.5-4.5-1.5-4-2l1-1 4-2c2-1.5 6-2.5 8-2h6c.5-.5-1.5-1.5-4-2l-4-2-1-1v-2l1-1 2-1 1-1-7 2c-3.5 1-8.5 2-10 2h-2l-1-3-1-4-2-3c-.5-2-1-6-1-8v-8c.5-2 .5-8 0-12v-13c0-1.5-.5-6.5-1-10-.5-4-1-9-1-10v-38h-1c-.5-.5-1-4-1-7v-37l-1 4c-.5 2-1 5.5-1 7v39c.5 4.5 1 11 1 13v29l1 1v21l1 5v2c.5.5 1 5.5 1 10v40l1 1v12c.5 2 1 6.5 1 9v46c.5 4 1 9 1 10v31c0 1-.5 4-1 6l-1 4-1-4c-.5-2.5-1.5-9-2-13v-17c0-4.5-.5-11-1-13v-32l-1-3c0-1.5-.5-7.5-1-12v-9l-1-7c0-4-.5-10.5-1-13v-6l-1-2v-17l-1-3v-5c0-1.5-.5-7-1-11v-36l1-4-1-3c-.5-1.5-1.5-7.5-2-12v-26l-1-4-1-4v-33c0-1-.5-6.5-1-11l-1-9-1-7v-19l-1-2c0-1-.5-6-1-10 0-4.5-.5-9.5-1-10v-3l-1 7v36l1 9v18l1 2v3l1 2v62c0 3-1 6-2 6l-1-1-1-1v-2l-1 5v9l1 2v6c.5 2.5 1 8.5 1 12l1 7-2-2c-.5-1-4-4-7-6l-6-4-2-1c-1-1-1.5-3-1-4l2-3-2-1c-1-.5-5.5-1-9-1-3 0-7 .5-8 1l-1 1-5-1c-2.5-.5-5-2.5-5-4l1-3v-1l1-1-5 4-6 6-2 1 1-3c1-1.5 1-3 0-3h-1v-4c.5-2 1-6 1-8v-4l-2-2c-.5-1.5-3-2.5-5-2h-4l-4 5-3 4v-4l1-1c.5-1 1.5-5 2-8 1-3 1-5.5 0-5l-1 1-3 3c-1.5 1-3 .5-3-1v-3l-2-2-1-3-2-3c-.5-1.5-5-3-9-3l-7-1-5 2-4 2-2 1c-.5.5-2.5.5-4 0l-2-2-3-2c-1-1-4 0-6 2l-4 4-1 1-2 3c-.5 1-2-.5-3-3l-2-6-2 6c-.5 3-2 7.5-3 9l-1 3v-3l-1-1c0-1-1-3.5-2-5l-1-4-1 3v2l-1 4c0 1.5.5 4 1 5l1 1-1 4v10c.5 2.5 1 5.5 1 6v12l-2 4c-1 2-2 6-2 8l1 4v17l1 9 1 7c.5 3.5.5 9.5 0 12l-1 4v7l-2-5c-1-3-2.5-6.5-3-7v-2l-2-2c-1-1.5-3.5-1.5-5 0l-2 2-1 1-1 1 4 1c2.5.5 5 2.5 5 4v3l-2 4c-.5 1.5-2.5 4-4 5l-2 1-1-5c0-3-1.5-5-3-4l-3 1-3 1h-3l4-3 5-3h-1l-1-1-6 1c-2.5.5-8 1.5-11 2l-5 1-1 1c-.5.5-2.5 2-4 3l-3 1-1-3c0-2-1-5-2-6l-2-3-3 2c-1 1-5.5 3.5-9 5l-6 2-6 3c-2.5 1-6.5 2.5-8 3h-2l2-1c1-.5 4.5-2.5 7-4 3-1.5 6-3.5 6-4v-1l4-2 4-3-6 1-6 1-4 1-3 1-2 2c-.5 1-2.5 1.5-4 1l-3-1-2 1h-9c-3.5 0-7.5-.5-8-1l-1-1-1 1c0 .5-1 1.5-2 2h-1l-1-1c0-.5-3-2.5-6-4s-7.5-2.5-9-2l-2 1-3 2c-1.5 1-5.5 3.5-8 5l-4 3 2-3c1-1.5 1-3 0-3h-1l-2 1c-.5 0-4.5.5-8 1-3 0-6.5-.5-7-1v-1h-4l-7 1-7 1 3 1 3 1 3 1c1.5.5 5.5 2.5 8 4l6 3-4 4c-2 1.5-4.5 2.5-5 2l-1-1-4-3c-2-1.5-6.5-4-9-5l-5-2h-2c-.5 0-2.5-.5-4-1l-2-2-1-1c0-.5-2-2.5-4-4l-3-3H0v3l3 3c2 1 5 3 6 4l2 2-2 1c-.5.5-3 1-5 1l-4-1v728z" stroke-linejoin="round"/>
  <path fill="#d10017" stroke="#d10017" stroke-width=".7" d="M211 1440h10l10-7c5.5-4 17-10.5 23-13 6.5-2.5 19-7 25-9l26-8c6.5-2.5 19-5.5 25-6s17.5-3 23-5l24-8c6-2.5 17-5 22-5 5.5 0 17-6.5 23-13l12-13-3 1c-1 .5-2.5 1.5-3 2h-1l-4 4c-1.5 1.5-5 4.5-7 6l-4 2-2 1c-.5 0-4 1.5-7 3s-7.5 3-9 3h-8c-3 0-8.5 1-11 2l-5 2-8 2c-3.5 1-8.5 3-10 4l-2 1-4 1c-1.5.5-4 1.5-5 2h-2l-11 4c-5 1.5-17 4.5-24 6l-13 3-2 1-1 1-3 1h-3l-9 4c-4.5 1.5-18.5 6.5-28 10l-18 7-1 1c-.5 0-4 1.5-7 3-2.5 1.5-5.5 4-6 5v1l-1 2-1 2z" stroke-linejoin="round"/>
  <path fill="#fe0000" stroke="#fe0000" stroke-width=".7" d="M221 1440h97l7-10c3.5-5 9-9.5 11-9 2.5 0 6 .5 7 1 1.5 0 5.5-3 8-6 3-3.5 8.5-3.5 11 0 2.5 3 7.5 3 10 0 3-3.5 9.5-8 13-9 4-1.5 11-6 14-9s10-7.5 14-9 11.5-3.5 15-4c4-1 9-.5 10 1 1.5 1 6-1 9-4s10-4 14-2 9 0 10-4-.5-11-3-14c-2.5-3.5-9.5-8.5-14-10l-8-3-6 2-6 2-12 13c-6 6.5-17.5 13-23 13-5 0-16 2.5-22 5l-24 8c-5.5 2-17 4.5-23 5s-18.5 3.5-25 6l-26 8c-6 2-18.5 6.5-25 9-6 2.5-17.5 9-23 13l-10 7z" stroke-linejoin="round"/>
  <path fill="#d10017" stroke="#d10017" stroke-width=".7" d="M318 1440h28l5-6c3-3.5 10-7.5 14-8 4-1 11.5-3 15-4s11.5-5.5 16-9c4.5-4 15-10 21-12 6-2.5 16-6.5 20-8 4.5-1.5 14-2.5 19-2 5 0 15-3 20-6s15-10 20-14l11-8-5-4c-2.5-2.5-6-5-7-5l-1-1-5-2c-2-1.5-7.5-3-11-3h-6l-1 1c-.5.5-5.5 1-10 1h-12l-2-1h-1l8 3c4.5 1.5 11.5 6.5 14 10 2.5 3 4 10 3 14s-6 6-10 4-11-1-14 2-7.5 5-9 4c-1-1.5-6-2-10-1-3.5.5-11 2.5-15 4s-11 6-14 9-10 7.5-14 9c-3.5 1-10 5.5-13 9-2.5 3-7.5 3-10 0-2.5-3.5-8-3.5-11 0-2.5 3-6.5 6-8 6-1-.5-4.5-1-7-1-2-.5-7.5 4-11 9l-7 10z" stroke-linejoin="round"/>
  <path fill="#970033" stroke="#970033" stroke-width=".7" d="M346 1440h30v-1l2-2 2-2 2-3 2-3 3-4c1.5-2 3-5 3-6 .5-1 3-3 5-4s4.5-2.5 5-3c1-1 2.5-2 3-2l2-1v-1l1-1 2-1 3-1v-1c.5-.5 2-1.5 3-2l3-1v-1c.5-1 2-1.5 3-1 1.5 0 4.5 1.5 6 3 1.5 1 4 3 5 4l2 1 3-2 4-2 1-2c.5-1 3.5-4 6-6s5-3 5-2v1l11-2c6-1 21.5-3 31-4l19-3v-5c0-3-1-8-2-10l-2-5-1-1-1-1-11 8c-5 4-15 11-20 14s-15 6-20 6c-5-.5-14.5.5-19 2-4 1.5-14 5.5-20 8-6 2-16.5 8-21 12-4.5 3.5-12.5 8-16 9s-11 3-15 4c-4 .5-11 4.5-14 8l-5 6z" stroke-linejoin="round"/>
  <path fill="#30005f" stroke="#30005f" stroke-width=".7" d="M658 1440h26l1-1 1-1v-1l5-5c2.5-2.5 4.5-6 4-7v-2l-3-1c-1-1-5-.5-8 1l-6 2h-1l-6 3c-2.5 1.5-6.5 3.5-8 4h-3l-1 4-1 4z" stroke-linejoin="round"/>
  <path fill="#14002e" stroke="#14002e" stroke-width=".7" d="M384 1429l11-6 3-4c2-2.5 4.5-6 5-7l2-3-2 1c-.5 0-2 1-3 2-.5.5-3 2-5 3s-4.5 3-5 4c0 1-1.5 4-3 6l-3 4zm-157-3c27.5-10.5 41.5-15.5 46-17l9-4h-4c-2 0-6 1-8 2l-3 1-3 1c-1.5 0-6 1.5-9 3-3 1-6.5 2.5-7 3h-1l-6 2c-2.5 1-7 3.5-9 5l-4 2-1 1v1zm198-4l3-4 2-2c1-1 4-4.5 6-7l4-6-4 2-3 2-1 2c-.5.5-2 1-3 1-.5 0-2-.5-3-1l-4-2c-.5-1-2-3-3-4l-2-2-3 1c-1 .5-2.5 1.5-3 2v1l3 3c1.5 1 3.5 2.5 4 3l1 1 2 3c1.5 1.5 3 4 3 5l1 2z" stroke-linejoin="round"/>
  <path fill="#060072" stroke="#060072" stroke-width=".7" d="M684 1415c4.5-6.5 7.5-11.5 9-14l4-5-4 2c-2 1-5.5 5-7 8-1.5 2.5-3 6-3 7l1 2z" stroke-linejoin="round"/>
  <path fill="#30005f" stroke="#30005f" stroke-width=".7" d="M428 1410c2 0 3.5-.5 4-1l1-2-2-1c-1-1-3.5-3-5-4-1.5-1.5-4.5-3-6-3-1-.5-2.5 0-3 1v1l2 2c1 1 2.5 3 3 4l4 2 2 1z" stroke-linejoin="round"/>
  <path fill="#14002e" stroke="#14002e" stroke-width=".7" d="M643 1406c10.5-.5 14.5-2.5 15-4l2-3-7 2c-3 .5-8 1-10 1-1.5 0-4-.5-5-1l-1-2 1 3c.5 1 2 2.5 3 3l2 1zm-71-4c7.5-3.5 13-4.5 16-4 3.5.5 8.5.5 10 0l3-1h-7c-1-.5-4.5-1.5-7-2s-6-.5-7 0c-1 0-3.5 1.5-5 3l-2 2-1 1v1zm-281 0c20-4.5 32-7.5 37-9l11-4h-3c-1.5-.5-4-.5-5 0l-2 1-5 1c-2.5.5-8 2-11 3l-6 2h-1l-7 2c-3 1-6.5 2.5-7 3l-1 1z" stroke-linejoin="round"/>
  <path fill="#30005f" stroke="#30005f" stroke-width=".7" d="M513 1400c8-3 10.5-7 10-10l-1-7-3 7c-1 3-3 7-4 8l-2 2z" stroke-linejoin="round"/>
  <path fill="#62004d" stroke="#62004d" stroke-width=".7" d="M463 1399c4.5-2 6.5-3 7-3 .5-.5 4-1.5 7-2s6.5-.5 7 0l2 2 2 1 3 1h4l7-2c3.5-1 8-3 9-4l2-3v-4l-19 3c-9.5 1-25 3-31 4l-11 2 5 3 6 2z" stroke-linejoin="round"/>
  <path fill="#14002e" stroke="#14002e" stroke-width=".7" d="M463 1399h11c1.5-.5 5.5-1 8-1l6-1-2-1-2-2c-.5-.5-4-.5-7 0s-6.5 1.5-7 2c-.5 0-2.5 1-4 2l-3 1z" stroke-linejoin="round"/>
  <path fill="#30005f" stroke="#30005f" stroke-width=".7" d="M573 1400c3.5-3.5 6-5 7-5 1-.5 4.5-.5 7 0s6 1.5 7 2h7l4-2c2.5-1 7.5-3.5 10-5 3-1.5 9-4 12-5l6-3 2-2 2-3h-12l-13 1c-6 0-18 3.5-24 7l-11 6-2 5-2 4z" stroke-linejoin="round"/>
  <path fill="#14002e" stroke="#14002e" stroke-width=".7" d="M626 1394c7.5-3.5 11.5-7.5 13-10l4-8 2-2-3 2c-1.5.5-3.5 1-4 1h-1l-2 3-2 2-1 2c0 .5-2 3.5-4 6l-3 4h1zm-49-3c17-9.5 29-13 35-13l13-1h1l2-2 2-1-6 1c-2.5 0-8-.5-11-1-3-1-7.5-3-9-4l-3-2-1 2c0 1-2 1.5-4 1-1.5-.5-4.5 0-6 1l-2 2 3 2c1.5.5-.5 4-4 7s-8 6.5-9 7l-1 1z" stroke-linejoin="round"/>
  <path fill="#d10017" stroke="#d10017" stroke-width=".7" d="M508 1384v-7 7z" stroke-linejoin="round"/>
  <path fill="#14002e" stroke="#14002e" stroke-width=".7" d="M578 1378l10-4h-4c-1 0-3.5-.5-5-1l-2-1c0-.5 2.5-2.5 5-4l5-3 1-1-6 1c-3 0-9.5 1.5-13 3l-6 2h4c2.5 0 6 1.5 7 3 1.5 1.5 3 3.5 3 4l1 1z" stroke-linejoin="round"/>
  <path fill="#060072" stroke="#060072" stroke-width=".7" d="M176 1376c11 0 15.5-1 16-2l2-2-8 1c-4 .5-8.5 1.5-9 2l-1 1z" stroke-linejoin="round"/>
  <path fill="#fe0000" stroke="#fe0000" stroke-width=".7" d="M494 1376c6.5-4.5 7.5-7.5 6-9-1-1.5-3 0-4 3l-2 6z" stroke-linejoin="round"/>
  <path fill="#09004c" stroke="#09004c" stroke-width=".7" d="M625 1377h13c.5 0 2.5-.5 4-1l3-2h-3c-1-.5-4.5-.5-7 0h-5l-2 1-2 2h-1z" stroke-linejoin="round"/>
  <path fill="#30005f" stroke="#30005f" stroke-width=".7" d="M582 1374h6l2-2c1.5-1 4.5-1.5 6-1 2 .5 4 0 4-1l1-2c0-.5-3.5-1.5-7-2l-6-2-1 1-5 3c-2.5 1.5-5 3.5-5 4l2 1 3 1z" stroke-linejoin="round"/>
  <path fill="#62004d" stroke="#62004d" stroke-width=".7" d="M923 1365l10-2 1-1c.5-1 1.5-2 2-2 1-.5 4.5-1.5 7-2 3-1 6.5-2.5 7-3s3.5-1.5 6-2c2.5-1 5.5-2 6-2 1-.5 2.5-1 3-1h1l8-6c4.5-3 15-8.5 21-11 6-3 13.5-7 15-8l4-2h1c.5-.5 1-1.5 1-2 .5-.5 1.5-4 2-7 1-3 2-6.5 2-7 .5-.5 1-3 1-5l1-4-8 12c-3.5 5.5-13.5 13.5-20 16-6 2.5-17.5 8.5-23 12-5 3.5-16.5 9.5-23 12-6 2.5-22.5 4-33 3l-21-2 2 4c1 2 8 5.5 14 7l13 3z" stroke-linejoin="round"/>
  <path fill="#30005f" stroke="#30005f" stroke-width=".7" d="M932 1364c9.5-1.5 15.5-3.5 18-5 3-1.5 8.5-4.5 11-6l5-3h-1c-.5 0-2 .5-3 1-.5 0-3.5 1-6 2-2.5.5-5.5 1.5-6 2s-4 2-7 3c-2.5.5-6 1.5-7 2-.5 0-1.5 1-2 2l-1 1-1 1z" stroke-linejoin="round"/>
  <path fill="#970033" stroke="#970033" stroke-width=".7" d="M936 1355c18.5-7.5 30-13.5 35-17 5.5-3.5 17-9.5 23-12 6.5-2.5 16.5-10.5 20-16l8-12v-1l2-2 1-1 1-2c.5-1.5 1.5-3 2-3 .5-.5 2-3 3-5 1.5-2.5 3-5.5 3-6l4-4 3-3 1-13c.5-6.5-4-16.5-9-20-4.5-4-11.5-8.5-14-9l-5-2 9 8c4.5 3.5 11 11 13 15 2.5 3.5 2.5 11.5 0 16-2 4.5-7.5 14-11 19s-9.5 14-12 18c-2 3.5-9 9.5-14 12-4.5 2.5-15 8-21 11-5.5 2.5-15 7.5-19 10-3.5 2-12.5 6-18 8-5 2-17.5 2-25 0s-10.5-8-6-12c5-4 15-11.5 20-15l11-7-9 4c-4 1.5-12 1.5-16 0-4-2-12.5-6.5-17-9-4-2.5-10-3.5-12-2-1.5 1.5-4.5-1-6-5-1.5-4.5-4-14-5-19-.5-5.5 3-15.5 7-20 4.5-4.5 11.5-14.5 14-20l5-12-9 7c-4 3.5-14.5 9.5-21 12-6 2.5-18.5 5.5-25 6-6 0-18-3-24-6-5.5-3-15.5-1.5-20 3-4.5 4-13 10.5-17 13-3.5 2.5-10 1-13-3l-5-8-1 3c-.5 1.5-1 4.5-1 6l1 3 7 6c4 3 13 1.5 18-3l11-9h2l6-5c3.5-3 11-3 15 0 4.5 2.5 14 6 19 7 5.5.5 15.5-.5 20-2l9-4h5l6-1-8 10c-4 4.5-8.5 9.5-9 10v1l-5 9c-2.5 4-1.5 13 2 18 3.5 4.5 6.5 15 6 21 0 6 5.5 7 11 2l12-10v-7c.5-.5 2 0 3 1 1.5.5 3.5 1.5 4 2s1 1.5 1 2h1l3 4 5 5c.5 0 0 2.5-1 5-.5 2-1.5 4.5-2 5l-5 4c-2 1.5-5.5 6-7 9-1 3-2 6.5-2 7v1l21 2 21 2z" stroke-linejoin="round"/>
  <path fill="#060072" stroke="#060072" stroke-width=".7" d="M783 1357c.5-7.5-.5-13-2-16-1-3-4.5-7.5-7-9l-4-4 2 7c1 3 3.5 9 5 12l4 8 2 2z" stroke-linejoin="round"/>
  <path fill="#d10017" stroke="#d10017" stroke-width=".7" d="M931 1348c15.5-6 24.5-10 28-12 4-2.5 13.5-7.5 19-10 6-3 16.5-8.5 21-11 5-2.5 12-8.5 14-12 2.5-4 8.5-13 12-18s9-14.5 11-19c2.5-4.5 2.5-12.5 0-16-2-4-8.5-11.5-13-15l-9-8-12-6c-5.5-3.5-17-9.5-23-12l-24-12c-5.5-3-17.5-7-24-8-6.5-1.5-18.5-.5-24 2s-13.5 6-16 7l-4 2-15 6c-7 2.5-18 5-22 5h-7l-7 1h-7l-12 7c-6 3-17.5 9.5-23 13-5.5 3-15 9.5-19 13l-7 6 5 8c3 4 9.5 5.5 13 3 4-2.5 12.5-9 17-13 4.5-4.5 14.5-6 20-3 6 3 18 6 24 6 6.5-.5 19-3.5 25-6 6.5-2.5 17-8.5 21-12l9-7-5 12c-2.5 5.5-9.5 15.5-14 20-4 4.5-7.5 14.5-7 20 1 5 3.5 14.5 5 19 1.5 4 4.5 6.5 6 5 2-1.5 8-.5 12 2 4.5 2.5 13 7 17 9 4 1.5 12 1.5 16 0l9-4-11 7c-5 3.5-15 11-20 15-4.5 4-1.5 10 6 12l15 4z" stroke-linejoin="round"/>
  <path fill="#30005f" stroke="#30005f" stroke-width=".7" d="M887 1346l3-4-3-2c-1-1-5.5-2-9-2h-8c0-.5-1-1.5-2-2l-1-1 2 3c1.5 1.5 6 4 9 5 3.5 1 7.5 2.5 8 3h1z" stroke-linejoin="round"/>
  <path fill="#060072" stroke="#060072" stroke-width=".7" d="M797 1342c3-6.5 2-11.5 0-14-1.5-2.5-5-7.5-7-10-1.5-3-5.5-7.5-8-9l-5-4 2 6c1.5 2.5 4 8 5 11l6 12c1.5 2.5 4 6 5 7l2 1z" stroke-linejoin="round"/>
  <path fill="#62004d" stroke="#62004d" stroke-width=".7" d="M890 1342c5-6.5 8-10 9-11l2-2-2-2c-.5-1-1.5-2-2-2 0-.5 1.5-2 3-3 2-1 4.5-2 5-2h1v-1c.5-.5-.5-2-2-3l-3-2h-2c-.5-.5-2-1-3-1h-2l-12 10c-5.5 5-11 4-11-2 .5-6-2.5-16.5-6-21-3.5-5-4.5-14-2-18l5-9-3 2c-1 .5-4 3.5-6 6-2 2-5.5 7-7 10s-3 6.5-3 7v3c.5 1 2 3.5 3 5s3.5 3.5 5 4l6 2c2 .5 4 2 4 3s-.5 2.5-1 3l-1 1v3c0 1.5.5 5.5 1 8l1 5 1 1c1 .5 2 1.5 2 2h8c3.5 0 8 1 9 2l3 2z" stroke-linejoin="round"/>
  <path fill="#fe0000" stroke="#fe0000" stroke-width=".7" d="M922 1339c9.5-1.5 16-3 19-4 3-1.5 8.5-5 11-7s3-6.5 1-9c-1.5-2.5-6.5-3.5-10-2-3 1-8.5 4-11 6-2.5 1.5-7.5 5-10 7-2 2-3 5.5-2 7l2 2z" stroke-linejoin="round"/>
  <path fill="#30005f" stroke="#30005f" stroke-width=".7" d="M826 1324c0-9.5-.5-14-1-15l-1-2-2-1-3-3-2-4-1-2h-1v-5c.5-2 1-4.5 1-5v-6l-2 4c-.5 2-3 3.5-5 3l-3-2-1 1c0 .5-.5 1.5-1 2v1l-2-4c-1-2-2.5-4-3-4l-1-1-3 3c-1 1.5-4.5 1.5-7 0-2-1.5-4.5-3-5-3 0-.5-1.5-2-3-3l-3-2 5 7c3 3.5 10 12 14 17 4 4.5 11 15 14 21 3 5.5 8.5 9 11 7l5-4z" stroke-linejoin="round"/>
  <path fill="#4a0038" stroke="#4a0038" stroke-width=".7" d="M908 1329v1c.5-.5 1.5-3 2-5 1-2.5 1.5-5 1-5l-5-5-3-4-1 2-1 1 3 2c1.5 1 2.5 2.5 2 3v3l1 4 1 3z" stroke-linejoin="round"/>
  <path fill="#30005f" stroke="#30005f" stroke-width=".7" d="M1014 1329c9-2 12.5-5 13-7l2-4-3-4c-1-2.5-4-.5-6 4l-3 9-2 1-1 1z" stroke-linejoin="round"/>
  <path fill="#060072" stroke="#060072" stroke-width=".7" d="M114 1328c0-8-.5-11.5-1-12l-1-1-4-1-3-2v2c0 .5 1.5 4 3 7 2 2.5 4.5 5.5 5 6l1 1z" stroke-linejoin="round"/>
  <path fill="#30005f" stroke="#30005f" stroke-width=".7" d="M901 1329l5-7v-2h-1c-.5 0-3 1-5 2-1.5 1-3 2.5-3 3 .5 0 1.5 1 2 2l2 2z" stroke-linejoin="round"/>
  <path fill="#14002e" stroke="#14002e" stroke-width=".7" d="M1017 1327c5-13.5 8-15.5 9-13l3 4 1-7c.5-4 1-10.5 1-13 .5-3 1-6.5 1-7v-1l-4 2-3 2-1 1-2 2v1l-1 4c0 2-.5 4.5-1 5 0 .5-1 4-2 7-.5 3-1.5 6.5-2 7 0 .5-.5 1.5-1 2h-1l1 2 2 2z" stroke-linejoin="round"/>
  <path fill="#30005f" stroke="#30005f" stroke-width=".7" d="M859 1320l6-1 1-1c.5-.5 1-2 1-3s-2-2.5-4-3l-6-2c-1.5-.5-4-2.5-5-4s-2.5-4-3-5v-2l-1 5c0 2 2.5 6 5 8s5 5 5 6l1 2z" stroke-linejoin="round"/>
  <path fill="#fe0000" stroke="#fe0000" stroke-width=".7" d="M1000 1307c12-14 16.5-24.5 17-30 .5-6 .5-18 0-24 0-6-5.5-15.5-11-19-5-3.5-15.5-10-21-13-5-3.5-16-10-22-13-5.5-3-17-9-23-12-5.5-3-15-3-19 0-4 2.5-5.5 11-3 17 2.5 5.5 10.5 14 16 17s12.5 10.5 14 15c2 4.5 5 14 6 19 1.5 5 5.5 15.5 8 21 2.5 5 13 13 21 16l17 6z" stroke-linejoin="round"/>
  <path fill="#30005f" stroke="#30005f" stroke-width=".7" d="M112 1315c-3-6-4-8.5-4-9v-1l-3-5c-1-2.5-2-5.5-2-6 .5-.5 2.5-1.5 4-2 1.5-1 3-1 3 0 0 .5-.5 2.5-1 4v2h3c2-.5 7 1.5 10 4 3.5 2 10.5-1 14-6l7-11v-1h1c.5-.5 2.5-3 4-5s3.5-4 4-4c.5-.5 2-3.5 3-6s2-5.5 2-6c0-1 .5-4 1-6l2-4-1-1c0-.5-2-1-4-1h-3l-7 5c-3.5 2.5-12.5 8.5-18 12-5 3.5-14.5 11.5-19 16-4.5 4-7.5 13-6 18l3 10 3 2 4 1z" stroke-linejoin="round"/>
  <path fill="#770036" stroke="#770036" stroke-width=".7" d="M898 1313l3 1 1-1 1-2h-1c0-.5-.5-1.5-1-2s-2.5-1.5-4-2c-1-1-2.5-1.5-3-1v7h4z" stroke-linejoin="round"/>
  <path fill="#14002e" stroke="#14002e" stroke-width=".7" d="M824 1307c6-16.5 9-21 10-20l3 2-5-6c-2.5-3-4-7.5-3-9s6.5-1 11 1c5 1.5 9.5 3.5 9 4v1l-7-5c-3.5-2.5-11.5-9-16-13l-8-9v-1l-2 2-2 2 1 1h1l4 5c2 2 3.5 5.5 3 7l-1 2h1c1 0 2 2.5 2 5v5l-3 7c-1 3-3 7-4 8l-2 1 1 2 2 4 3 3 2 1zm-716-2l-2-11 1 2 2 2v-2c.5-1.5 1-3.5 1-4 0-1-1.5-1-3 0-1.5.5-3.5 1.5-4 2 0 .5 1 3.5 2 6l3 5z" stroke-linejoin="round"/>
  <path fill="#fe0000" stroke="#fe0000" stroke-width=".7" d="M905 1304c3-6.5 1.5-9.5-1-10-2-.5-3 2-2 5l3 5z" stroke-linejoin="round"/>
  <path fill="#060072" stroke="#060072" stroke-width=".7" d="M769 1301c1.5-8 .5-14-1-17-1-3-4-6.5-6-7-1.5-1-2.5 1.5-2 5 1 3.5 3.5 10 5 13l3 6h1z" stroke-linejoin="round"/>
  <path stroke="#000" stroke-width=".7" d="M815 1296l1 1 2-1c1-1 3-5 4-8l3-7v-5c0-2.5-1-5-2-5h-1l1-2c.5-1.5-1-5-3-7l-4-5v6c.5 1 .5 6 0 10v14c0 .5-.5 3-1 5v4z" stroke-linejoin="round"/>
  <path fill="#14002e" stroke="#14002e" stroke-width=".7" d="M149 1287c-2.5-.5-1.5-2 0-3 1.5-1.5 3-3.5 3-4s1.5-3 3-5c2-2.5 4-5.5 4-6s.5-2 1-3l2-3-1-2c-.5-1.5-1-4-1-5l1-3h-1l-2 4c-.5 2-1 5-1 6 0 .5-1 3.5-2 6s-2.5 5.5-3 6c-.5 0-2.5 2-4 4s-3.5 4.5-4 5h-1l3 2 3 1z" stroke-linejoin="round"/>
  <path fill="#62004d" stroke="#62004d" stroke-width=".7" d="M1025 1294l7-4 1-1c.5-1 2.5-4.5 4-7 1.5-3 3-7 3-8l1-3-3 3-4 4c0 .5-1.5 3.5-3 6-1 2-2.5 4.5-3 5-.5 0-1.5 1.5-2 3l-1 2z" stroke-linejoin="round"/>
  <path fill="#30005f" stroke="#30005f" stroke-width=".7" d="M840 1292c4.5-6.5 6.5-9.5 7-10l2-2v-1c.5-.5-4-2.5-9-4-4.5-2-10-2.5-11-1s.5 6 3 9l5 6 1 2 2 1z" stroke-linejoin="round"/>
  <path stroke="#000" stroke-width=".7" d="M804 1290c.5-1.5 1-2.5 1-3l1-1v-4c.5-2.5 1-6 1-7v-3l-1-1-1-1-4 2-3 1v8l1 1c.5 0 2 2 3 4l2 4z" stroke-linejoin="round"/>
  <path fill="#62004d" stroke="#62004d" stroke-width=".7" d="M813 1289l3-8v-8c.5-4 .5-9 0-10v-2l-3 9-3 9 2-11 2-11v-1l2-2 2-2 1 1c.5 0 3.5 2 6 4 3 1.5 8.5 4.5 11 6l5 3h1c1 0 5.5-.5 9-1s9.5-2.5 12-4l6-3 2-2 3-3-9 4c-4.5 1.5-14.5 2.5-20 2-5-1-14.5-4.5-19-7-4-3-11.5-3-15 0l-6 5v2c0 1 .5 5 1 8l1 5v3c0 1-.5 4.5-1 7v4l3 2 4 1z" stroke-linejoin="round"/>
  <path fill="#30005f" stroke="#30005f" stroke-width=".7" d="M35 1289c5-6 7.5-11.5 8-15 1-3.5 0-8.5-2-10-1.5-2-4.5-2-6 0-1.5 1.5-3 7.5-3 12 .5 4 1.5 9.5 2 11l1 2zm111-3l3 1 3-3c2-1.5 5.5-5.5 7-8 1.5-3 3.5-8.5 4-11l2-6-2 2-1 2-2 3c-.5 1-1 2.5-1 3s-2 3.5-4 6c-1.5 2-3 4.5-3 5s-1.5 2.5-3 4l-3 2z" stroke-linejoin="round"/>
  <path fill="#62004d" stroke="#62004d" stroke-width=".7" d="M793 1287l5-6v-11c.5-2 1-4.5 1-5 0-1 1-3.5 2-5l2-3-11 9c-5 4.5-14 6-18 3l-7-6 3 6c2 2.5 4.5 5.5 5 6l2 1 3 2c1.5 1 3 2.5 3 3 .5 0 3 1.5 5 3l5 3z" stroke-linejoin="round"/>
  <path fill="#970033" stroke="#970033" stroke-width=".7" d="M923 1277c12-14 16.5-23.5 17-28 1-4.5-5.5-8-13-7-7 1-16.5 8.5-19 15-2 6.5.5 15 5 17l10 3zm-113 2l6-18v-4h-1l-1-1v1l-2 11-2 11z" stroke-linejoin="round"/>
  <path fill="#4a0038" stroke="#4a0038" stroke-width=".7" d="M798 1273l7-3 1 1 1 1-1-5c-.5-3-1-7-1-8v-2h-2l-2 3c-1 1.5-2 4-2 5 0 .5-.5 3-1 5v3z" stroke-linejoin="round"/>
  <path fill="#14002e" stroke="#14002e" stroke-width=".7" d="M846 1269c9-2 14.5-4.5 17-6l5-4 1-1-6 3c-2.5 1.5-8.5 3.5-12 4s-8 1-9 1h-1l2 2 3 1z" stroke-linejoin="round"/>
  <path fill="#fe0000" stroke="#fe0000" stroke-width=".7" d="M780 1260c6.5-4.5 9.5-9 10-12 .5-3.5-2-5.5-5-4s-7.5 5.5-9 8c-1 2.5-.5 6 1 7l3 1z" stroke-linejoin="round"/>
  <path fill="#060072" stroke="#060072" stroke-width=".7" d="M160 1253h1l1-4c1-2-.5-4-3-4-2 0-5 1.5-6 3l-1 3h3c2 0 4 .5 4 1l1 1z" stroke-linejoin="round"/>
  <path fill="#14002e" stroke="#14002e" stroke-width=".7" d="M240 1249c4.5-6.5 7.5-11.5 9-14l4-5-4 2c-1.5.5-4.5 4-6 7-1 3-2.5 7-3 8v2zm-48-2c8-3 12-5.5 13-7l2-4-6 4c-2.5 1.5-6 4-7 5l-2 2z" stroke-linejoin="round"/>
  <path fill="#fe0000" stroke="#fe0000" stroke-width=".7" d="M863 1241c16.5-9.5 26-17.5 30-22 4.5-4.5 4-9-1-9-5-.5-17 .5-24 2l-26 6c-6.5 1.5-15 6.5-17 10-1.5 3.5 7 8.5 17 10l21 3z" stroke-linejoin="round"/>
  <path fill="#14002e" stroke="#14002e" stroke-width=".7" d="M829 1211v1h7l7-1c.5 0 2-.5 3-1 1.5-.5 5-1.5 7-2s5-1.5 6-2c1.5-.5 5-1.5 7-2l5-1-8 1c-3.5.5-11 2-15 3-3.5.5-10 2-13 3l-6 1z" stroke-linejoin="round"/>
  <path fill="#970033" stroke="#970033" stroke-width=".7" d="M843 1211c11 0 22-2.5 29-5l15-6-5 1c-2.5.5-6.5 1.5-8 2h-3l-5 1c-2 .5-5.5 1.5-7 2-1 .5-4 1.5-6 2s-5.5 1.5-7 2c-1 .5-2.5 1-3 1z" stroke-linejoin="round"/>
  <path fill="#30005f" stroke="#30005f" stroke-width=".7" d="M1026 960c10.5-.5 16.5-2.5 19-4 2.5-2 6.5-6 8-8l3-4-6 2c-3 .5-6 .5-6 0v-1l-3 5c-1.5 2.5-7 5.5-11 6l-7 1 1 2 2 1z" stroke-linejoin="round"/>
  <path fill="#62004d" stroke="#62004d" stroke-width=".7" d="M1038 955l6-10 2-2 2-2-5 1c-2 .5-5.5.5-7 0l-3-2-1 3c-.5 1.5-1.5 3-2 3h-1v-1h-6c-3 0-8-7-10-14-1.5-7 0-19.5 3-25 3-6 7.5-19 9-26s6-14.5 9-15l6-2v-1c.5-.5 1.5-3 2-5l1-5v-1c.5-.5 1.5-4.5 2-8l4-14c1-3.5 2-8.5 2-10l1-3-6 1c-3 .5-9.5 6-13 11s-10 16-13 22c-3 5.5-8.5 21.5-11 32l-4 21v9l2 12c1 5.5 5 16.5 8 22l7 11h1l7-1 8-1z" stroke-linejoin="round"/>
  <path fill="#970033" stroke="#970033" stroke-width=".7" d="M1029 945v-15c.5-1 1.5-5.5 2-9 1-4 2-9 2-10l1-3 1-4c.5-2.5 1.5-6 2-7l1-2v-15c.5-2 1-6 1-8 .5-2 1-5 1-6v-3l-6 2c-3 .5-7.5 8-9 15s-6 20-9 26c-3 5.5-4.5 18-3 25 2 7 7 14 10 14h6z" stroke-linejoin="round"/>
  <path stroke="#000" stroke-width=".7" d="M1029 946c1.5 0 2.5-1.5 3-3l1-3v-5c.5-3 1-6.5 1-7v-2l1-6c.5-3 1.5-8.5 2-11l2-5v-9h-1l-1 2c-.5 1-1.5 4.5-2 7l-1 4-1 3c0 1-1 6-2 10-.5 3.5-1.5 8-2 9v16z" stroke-linejoin="round"/>
  <path fill="#970033" stroke="#970033" stroke-width=".7" d="M1039 943l9-2 1-1c.5-.5 3.5-2.5 6-4 3-1.5 8-5 10-7l6-6 2-1 2-2c1-1 2-2.5 2-3 .5-1 2.5-3.5 4-5 1.5-2 3.5-4.5 4-5l4-2 3-2 1-3c1-1.5 3-5 4-7l3-5 7-11c4-6 7.5-16.5 7-21-.5-5-6-14-11-18-4.5-4-14-12-19-16-4.5-4-13-3.5-17 1s-10 16-12 23c-2 6.5-7 23.5-10 34l-6 21v3l-2 5c-.5 2.5-1.5 8-2 11l-1 6v2c0 .5-.5 4-1 7v5l3 2 3 1z" stroke-linejoin="round"/>
  <path fill="#62004d" stroke="#62004d" stroke-width=".7" d="M1073 922c6.5-5 11-9 13-11 2-2.5 4.5-5.5 5-6l1-2-3 2-4 2c-.5.5-2.5 3-4 5-1.5 1.5-3.5 4-4 5 0 .5-1 2-2 3l-2 2z" stroke-linejoin="round"/>
  <path fill="#14002e" stroke="#14002e" stroke-width=".7" d="M1004 911l1 1v-9l-1-2v-12c.5-3.5 1-8 1-9v-6l-1 4c-.5 2-1 8.5-1 13v14l1 6z" stroke-linejoin="round"/>
  <path fill="#30005f" stroke="#30005f" stroke-width=".7" d="M1005 903c6.5-31.5 12-47.5 15-53 3-6 9.5-17 13-22s10-10.5 13-11l6-1 1-1c1-1 2-3 2-4v-3l-1-1c0-.5-1.5-1-3-1s-4 1-5 2c-1 .5-3 2-4 3l-2 2-8 8c-4 3.5-11 13-14 19-2.5 6-7 17.5-9 23l-4 11v6c0 1-.5 5.5-1 9v12l1 2z" stroke-linejoin="round"/>
  <path fill="#62004d" stroke="#62004d" stroke-width=".7" d="M1039 901c9-31.5 14-48.5 16-55 2-7 8-18.5 12-23s12.5-5 17-1c5 4 14.5 12 19 16 5 4 10.5 13 11 18 .5 4.5-3 15-7 21l-7 11 6-7c3.5-4 10-11 13-14l7-6 4-10c2-5 1-13.5-2-17s-11-8-16-9c-4.5-1.5-14-5.5-19-8-4.5-2.5-15.5-3.5-22-2l-12 3-5 13c-2 6-4 16-4 20v7l-1 5v4l-1 4c0 2-1 5.5-2 7s-2.5 3-3 3-1.5 2-2 4v3l-1 4-1 3v6z" stroke-linejoin="round"/>
  <path fill="#270019" stroke="#270019" stroke-width=".7" d="M1038 895h1l1-3 1-4v-3c0-1.5.5-4.5 1-6 .5-2 1.5-4.5 2-5 1-1 2.5-3 3-4l2-3v-4l1-5-3 5-2 5-1-5c-.5-2.5-1-6.5-1-8v-3l-1 5c-.5 2-1.5 4.5-2 5v4c0 1-.5 4-1 6 0 2-.5 6-1 8v15z" stroke-linejoin="round"/>
  <path fill="#d10017" stroke="#d10017" stroke-width=".7" d="M1093 879l-1-16-6 6c-2.5 3-2 7 1 8l6 2z" stroke-linejoin="round"/>
  <path fill="#4a0038" stroke="#4a0038" stroke-width=".7" d="M1041 888c.5-5 1.5-7 2-7s2-1.5 3-3 2-5 2-7l1-4-2 3c-.5 1-2 3-3 4-.5.5-1.5 3-2 5-.5 1.5-1 4.5-1 6v3z" stroke-linejoin="round"/>
  <path fill="#30005f" stroke="#30005f" stroke-width=".7" d="M1126 861c3.5-8 5.5-11.5 6-12l2-2 2-3c1-2 2-4.5 2-5 .5-.5 2-3.5 3-6 1-3 2-6.5 2-7l1-1-12-4c-6-2-18.5-6-25-8s-15.5-5.5-18-7l-4-4h-20l-3 6c-1 3-2.5 7-3 8v2l12-3c6.5-1.5 17.5-.5 22 2 5 2.5 14.5 6.5 19 8 5 1 13 5.5 16 9s4 12 2 17l-4 10z" stroke-linejoin="round"/>
  <path fill="#14002e" stroke="#14002e" stroke-width=".7" d="M1134 847c5-6.5 9-10.5 11-12 2.5-1.5 5.5-5.5 6-8l1-5h-4l-2 2-2 1-1 1c0 .5-1 4-2 7-1 2.5-2.5 5.5-3 6 0 .5-1 3-2 5l-2 3z" stroke-linejoin="round"/>
  <path fill="#060072" stroke="#060072" stroke-width=".7" d="M383 817v-33c0-1-.5-6-1-10v-21l-1-2v-4h-2l-2-1v32c.5 2 1 8.5 1 13v17c.5 4 1.5 10.5 2 13l1 4 1-4 1-4z" stroke-linejoin="round"/>
  <path fill="#09004c" stroke="#09004c" stroke-width=".7" d="M1148 821v1h4v-3c.5-2-.5-3.5-2-3-1.5 0-3 1.5-3 3l1 2z" stroke-linejoin="round"/>
  <path fill="#14002e" stroke="#14002e" stroke-width=".7" d="M1036 812l4 1 2-2c1-1 3-2.5 4-3 1-1 3.5-2 5-2s3 .5 3 1l1 1 2-4c1-2.5.5-5-1-5-1 0-5 1.5-8 3s-7.5 5-9 7l-3 3zm29-10h20l2-5c1-2.5 1-8 0-11s-3.5-7.5-5-9l-2-4v3c0 1-.5 3.5-1 5s-2 4.5-3 6c-1 1-3 2.5-4 3s-2 0-2-1l1-3-1 1c-.5.5-2 4.5-3 8l-2 7z" stroke-linejoin="round"/>
  <path fill="#09004c" stroke="#09004c" stroke-width=".7" d="M1070 791c3-1.5 5-3 6-4 1-1.5 2.5-4.5 3-6s1-4 1-5v-3h-1v-1 4c0 .5-1.5 3.5-3 6-1 2.5-2.5 5-3 5v-4l1-3-2 3c-.5 1-1 2.5-1 3l-1 3v2z" stroke-linejoin="round"/>
  <path fill="#060072" stroke="#060072" stroke-width=".7" d="M1073 786c.5 1 2-1.5 3-4 1.5-2.5 3-5.5 3-6v-4l-1-5c-.5-2.5-2-4-3-3-.5.5-1 5-1 9v7l-1 3v3z" stroke-linejoin="round"/>
  <path fill="#14002e" stroke="#14002e" stroke-width=".7" d="M382 753v-25c0-2.5-.5-7-1-9v-5 37l1 2z" stroke-linejoin="round"/>
  <path fill="#30005f" stroke="#30005f" stroke-width=".7" d="M381 747v-40l-1-1v-17l-1-4v-18c0-2-.5-6-1-8v-24l-1 2c0 .5-.5 4-1 7v5l-2-3c-1-2-2-4.5-2-5s-.5-3-1-5v-4 20c.5 2.5 1 6.5 1 8v34l1 2v6c.5 2.5 1 9 1 13l1 7v9c.5 4.5 1 10.5 1 12l1 3 2 1h2z" stroke-linejoin="round"/>
  <path fill="#14002e" stroke="#14002e" stroke-width=".7" d="M1039 740h17-1c-.5-.5-4-1-7-1-2.5-.5-6.5-1-8-1-1 0-4.5-.5-7-1l-5-2 5 3 6 2z" stroke-linejoin="round"/>
  <path fill="#30005f" stroke="#30005f" stroke-width=".7" d="M1094 739c6.5-18 7-26.5 5-29l-4-6h-13c-.5 0-4.5.5-8 1h-6l-18-1c-8.5-1-20.5-3.5-24-5l-7-3-4 1c-1.5.5-3 .5-3 0v-2h-1l3 14c2 7 6.5 17 9 20l5 6 5 2c2.5.5 6 1 7 1 1.5 0 5.5.5 8 1 3 0 6.5.5 7 1h20l19-1z" stroke-linejoin="round"/>
  <path fill="#14002e" stroke="#14002e" stroke-width=".7" d="M488 735c.5-7.5 0-12.5-1-15l-1-6v-3l-5-4c-2.5-2.5-5.5-9.5-6-14 0-4.5-1-8.5-2-8-1 0-4.5 2-7 4-2 2-7.5 3-11 2-3-1.5-8.5-2-11-1-2.5.5-7 2-9 3-2 .5-11 0-18-1l-14-2 4 2c2.5.5 4.5 1.5 4 2h-6c-2-.5-6 .5-8 2l-4 2-1 1c-.5.5 1.5 1.5 4 2 3 0 6.5 1 7 2l1 1 3 1c1.5.5 3-.5 3-2l1-4 6-3c3-2 7-4.5 8-5l3-2v3c0 1-1 5-2 8l-1 5 4-4c2.5-2 6.5-3 8-2l4 2-1-2c0-1 2.5-1 5 0 3 1 6.5 2.5 7 3h1l1 6c1 2.5 3.5 5.5 5 6h3l1-1c.5-1 2.5-4.5 4-7 1.5-3 3.5-6.5 4-7l1-2 1 3c.5 1-.5 4.5-2 7l-2 5 4-1c2.5-.5 5 1 5 3l1 3v3c0 1.5.5 3.5 1 4h1l2 5c1.5 2 3.5 4.5 4 5l1 1z" stroke-linejoin="round"/>
  <path fill="#62004d" stroke="#62004d" stroke-width=".7" d="M1087 723c-15-11-28-15.5-36-16-8-1-19.5 2-23 6-3 4-.5 11 5 14 6 3 22.5 3.5 33 1l21-5z" stroke-linejoin="round"/>
  <path fill="#14002e" stroke="#14002e" stroke-width=".7" d="M48 714c-8.5-4.5-12.5-6.5-14-7l-3-1-3-1-3-1 7-1 7-1v-1l1-2-6 2c-3 .5-7 1-8 1l-2-1 2-1 2-1-3 1c-1 0-5 1.5-8 3l-5 3 2 2c1.5.5 3.5 1 4 1h2l5 2c2.5 1 7 3.5 9 5l4 3 1 1c.5.5 3-.5 5-2l4-4z" stroke-linejoin="round"/>
  <path fill="#30005f" stroke="#30005f" stroke-width=".7" d="M486 711v-15l1-8v-8c0-4-.5-10-1-12l-1-4v-3c.5-1.5 1-8 1-13v-10l-1-7v-11l-1-6v-7c0-.5-.5-4.5-1-8v-18l-1-3v-10h-1l-3 11c-1 5.5-14.5 13-27 15-12 1.5-36 1.5-48 0l-23-3v26c0 1 .5 6 1 10 .5 3.5 1 8.5 1 10v8c.5 2.5 1 6 1 7 .5 1 .5 4.5 0 7v7c0 1 .5 5 1 8 .5 2.5 1 5.5 1 6v1l1 4 1 3h2c1.5 0 6.5-1 10-2l7-2 2-1c1-.5 4-.5 6 0 2.5 0 4.5 1 4 2-.5.5-3.5 1.5-6 2h-10v2l1 1 14 2c7 1 16 1.5 18 1 2-1 6.5-2.5 9-3 2.5-1 8-.5 11 1 3.5 1 9 0 11-2 2.5-2 6-4 7-4 1-.5 2 3.5 2 8 .5 4.5 3.5 11.5 6 14l5 4z" stroke-linejoin="round"/>
  <path fill="#14002e" stroke="#14002e" stroke-width=".7" d="M1114 716c-3-6.5-5.5-9.5-7-10l-2-1 4 5c2.5 2 5 4.5 5 5v1zm-948-11l2-2 5-1c3-.5 8.5-1.5 11-2l6-1 1 1h1l-5 3-4 3h3l3-1 3-1c1.5-1 3 1 3 4l1 5 2-1c1.5-1 3.5-3.5 4-5l2-4v-3c0-1.5-2.5-3.5-5-4l-4-1 1-1 1-1-9-3c-4-1.5-11 .5-14 4l-6 6 2-9c1.5-4.5 1-9-1-9-2-.5-6.5-4-9-7s-4-7.5-3-9l2-4-11 5c-5 2.5-11 11-12 17-1 5.5.5 11.5 3 12h5l-4 3-4 2v1c0 .5-3 2.5-6 4-2.5 1.5-6 3.5-7 4l-2 1h2c1.5-.5 5.5-2 8-3l6-3 6-2c3.5-1.5 8-4 9-5l3-2 2 3c1 1 2 4 2 6l1 3 3-1 3-2zM8 712l3-2-2-2c-1-1-4-3-6-4l-3-3v10l4 1h4zm51-4c6.5-4.5 10.5-7 12-8l3-2 2-1c1.5-.5 6 .5 9 2s6 3.5 6 4l1 1h1c1-.5 2-1.5 2-2l1-1 1 1c.5.5 4.5 1 8 1h9l2-1 3 1c1.5.5 3.5 0 4-1l2-2-3-7c-1-3.5-6-4.5-10-2-3.5 2.5-7.5 6-8 7s-5 .5-9-1c-4-2-13-2-18 0-5 1.5-16 3.5-22 4l-12 1v1c.5.5 4 1 7 1 3.5-.5 7.5-1 8-1l2-1h1c1 0 1 1.5 0 3l-2 3z" stroke-linejoin="round"/>
  <path fill="#30005f" stroke="#30005f" stroke-width=".7" d="M23 700l5-1 3-1 3-1h1l2-1 9-1 10-1-8 3-7 2h-1l-1 2v1h4l12-1c6-.5 17-2.5 22-4 5-2 14-2 18 0 4 1.5 8.5 2 9 1s4.5-4.5 8-7c4-2.5 9-1.5 10 2l3 7 3-1 4-1 6-1 6-1h-5c-2.5-.5-4-6.5-3-12 1-6 7-14.5 12-17l11-5-2 4c-1 1.5.5 6 3 9s7 6.5 9 7c2 0 2.5 4.5 1 9l-2 9 6-6c3-3.5 10-5.5 14-4l9 3 2-2c1.5-1.5 4-1.5 5 0l2 2v2c.5.5 2 4 3 7l2 5v-7l1-4c.5-2.5.5-8.5 0-12l-1-7-1-9v-17l-1-4c0-2 1-6 2-8l2-4v-12l-3 1c-1.5 0-1.5-5 0-10l3-11-1-1c-.5-1-1-3.5-1-5l1-4v-2l1-3v-2c0-1 1.5-2.5 3-3l3-2-1 2c0 .5-.5 4-1 7v11l1-3c1-1.5 2.5-6 3-9l2-6 2 6c1 2.5 2.5 4 3 3l2-3 1-1-2-5c-.5-2.5 3-9 7-13l8-8h1c1-.5 4-1.5 6-2l5-1h3c1.5-.5 7-.5 11 0 4 0 8.5.5 9 1h2l2 2 2 1-6 9c-2.5 4-10 7.5-15 7-5-1-10.5 0-11 2l-1 4 4-2 5-2 7 1c4 0 8.5 1.5 9 3l2 3 1 3 2 2 4-2c2.5-1 6.5-.5 8 1s7.5 3.5 12 4c5 0 14.5 1.5 19 3 5 1 9.5.5 9-1s0-3.5 1-4 5 3.5 8 8l6 9-1 1-5 1-4 1-1 1c0 .5-.5 1-1 1-.5-.5-1 .5-1 2v2l9-4c4.5-2.5 10.5-6 12-7 2-1 4-10.5 4-19v-53l-10-4c-4.5-2-17-4.5-25-5-7.5-.5-22-3-29-5-6.5-2-20.5-5.5-28-7-7-1.5-21-1.5-28 0s-18.5 7.5-23 12c-4.5 4-11 15-13 22-1.5 7-10.5 15-18 16-7 1-21.5 3.5-29 5-7 1.5-21.5 2-29 1s-21.5-1.5-28-1c-6 .5-18.5 3.5-25 6-6 2.5-20.5 5.5-29 6-8.5 0-24.5 1-32 2l-15 1v112h4l3 3c2 1.5 4 3.5 4 4l1 1 5-3 6-3z" stroke-linejoin="round"/>
  <path fill="#14002e" stroke="#14002e" stroke-width=".7" d="M1068 704v1h6c3.5-.5 7.5-1 8-1h13-1c-.5-.5-4.5-1.5-8-2-3-1-9-1-12 0-2.5 1-5.5 2-6 2z" stroke-linejoin="round"/>
  <path stroke="#000" stroke-width=".7" d="M14 703l7-10-1 1-1 1h-3c-1 0-2.5-1-3-2v-2l-2 2-2 2 1 3 1 2 1 2 2 1z" stroke-linejoin="round"/>
  <path fill="#14002e" stroke="#14002e" stroke-width=".7" d="M1254 703c-3-5-7.5-8-11-9-3-1-6-1-6 0s3 3 6 4c3.5 1 8 3 9 4l2 1z" stroke-linejoin="round"/>
  <path stroke="#000" stroke-width=".7" d="M24 701c3 1 7 .5 10 0l6-2h3l3-1 2 1h2l-6-1c-3-1-6.5-2-7-2l-2 1h-1l-3 1-3 1-2 1-2 1z" stroke-linejoin="round"/>
  <path fill="#14002e" stroke="#14002e" stroke-width=".7" d="M56 694l-19 2c.5 0 4 1 7 2l6 1h-2l-2-1-3 1h-2l7-2 8-3z" stroke-linejoin="round"/>
  <path stroke="#000" stroke-width=".7" d="M452 699l-11-10 5 5 6 5z" stroke-linejoin="round"/>
  <path fill="#14002e" stroke="#14002e" stroke-width=".7" d="M1012 698l7-2h-3c-1-.5-1-3 0-5l3-4v-1h-1l-3 5-3 4v3zm-998-3h5l1-1 1-1-3 1c-1 0-2-3-2-6l1-6-3 4-4 6-1 3 2-2 2-2v2l1 2z" stroke-linejoin="round"/>
  <path fill="#09004c" stroke="#09004c" stroke-width=".7" d="M1011 694v1h1l3-4 3-5h15l-5-1c-2.5-.5-6-1-7-1-.5-.5-1-1.5-1-2l1-1-5 3c-2 1-4.5 4-5 6v4z" stroke-linejoin="round"/>
  <path fill="#14002e" stroke="#14002e" stroke-width=".7" d="M1103 693c5-3 8.5-5 10-6 2-1 4.5-4.5 5-7l1-5-1 3c-.5 1-3.5 2-6 2-2 0-6 2.5-8 5l-3 4 1 2 1 2z" stroke-linejoin="round"/>
  <path fill="#30005f" stroke="#30005f" stroke-width=".7" d="M1108 680c6.5 0 9.5-1 10-2l1-3v-5c0-3 1-9 2-12 1.5-3 1.5-5.5 0-5h-2l-4 9c-1.5 4.5-6 13-9 17l-6 8v1l1 1 3-4 4-5z" stroke-linejoin="round"/>
  <path fill="#14002e" stroke="#14002e" stroke-width=".7" d="M380 689v-23c0-4.5-.5-9.5-1-10v-2l-1-5v-5 15c.5 2 1 6 1 8v18l1 4zm22-2h10c2.5-.5 5.5-1.5 6-2 .5-1-1.5-2-4-2-2-.5-5-.5-6 0l-2 1-1 1-2 1-1 1z" stroke-linejoin="round"/>
  <path fill="#060072" stroke="#060072" stroke-width=".7" d="M1033 686l8 1v-1h3c1.5-.5 5.5-1 8-1l5-1c.5-.5 0-1.5-1-2l-1-1h-6c-3-.5-10-1-14-1h-12l-1 1h-1l-1 1c0 .5.5 1.5 1 2 1 0 4.5.5 7 1l5 1z" stroke-linejoin="round"/>
  <path fill="#09004c" stroke="#09004c" stroke-width=".7" d="M1041 686v1h7c4-.5 10-1.5 12-2l5-1-2-1c-1-.5-2.5-1-3-1h-3l-2-1 1 1c1 .5 1.5 1.5 1 2l-5 1c-2.5 0-6.5.5-8 1h-3z" stroke-linejoin="round"/>
  <path fill="#14002e" stroke="#14002e" stroke-width=".7" d="M1064 678c-24-.5-34.5 0-37 1l-4 1h12c4 0 11 .5 14 1h6l2 1h3c.5 0 2 .5 3 1l2 1h3l4-1-4-2-4-3zm36 9c9-12 13.5-20.5 15-25l4-9-1-1v-1l-2 4c-1 1.5-2 3.5-2 4s-2.5 2-5 3c-2.5.5-6 1-7 1-.5 0-2 .5-3 1l-2 1 4 2c2 1 1.5 5-1 8-2 3-3 7.5-2 9l2 3z" stroke-linejoin="round"/>
  <path stroke="#000" stroke-width=".7" d="M137 685l2-7-1 4-1 3z" stroke-linejoin="round"/>
  <path fill="#14002e" stroke="#14002e" stroke-width=".7" d="M385 681c0-1.5-.5-4.5-1-7-.5-3-1-7-1-8v-7c.5-2.5.5-6 0-7 0-1-.5-4.5-1-7v-5 10c.5 4 .5 10 0 12v8c0 2 .5 6 1 8l2 3zm-13-4v-17c0-1.5-.5-5.5-1-8v-20h-1v-1 27c.5 4 1 9.5 1 11v5l1 3zm-193-11c3-8 3-11 2-11-.5 0-1.5 3-2 6v5z" stroke-linejoin="round"/>
  <path fill="#30005f" stroke="#30005f" stroke-width=".7" d="M1087 666l10-1 2-1c1-.5 2.5-1 3-1 1 0 4.5-.5 7-1 2.5-1 5-2.5 5-3s1-2.5 2-4l2-4v-1c.5-1 2-3.5 3-5l3-3v-2c0-1 .5-2.5 1-3 1-1 3-4 4-6s2.5-4.5 3-5c1-.5 2.5-3 3-5l2-5v-16c.5-8 2-23.5 3-31 1.5-7.5-.5-19-4-23-3-4-13-8.5-20-9-6.5-1-18-4.5-23-7-4.5-2.5-11-4-13-3l-3 2-7 1h-7l3-1c2-1 6-5 8-8 2.5-3.5 11-7 17-7l13-1h12c1-.5 3 0 4 1l2 1 8-5c4.5-3 10.5-10.5 12-15 1.5-5-1.5-14-6-18l-9-9 1 7c.5 3 0 10-1 14l-1 7-4-13c-2-7-9.5-17.5-15-21-5-3.5-11.5-6-13-5l-2 1 9 4c5 2 12 9.5 14 15 2 5 1 16-2 22-2.5 6-9.5 9-14 6-4.5-3.5-16-6.5-23-6-7 0-19 3.5-24 7s-6.5 12.5-3 18c3.5 5 13 12.5 19 15 6 2 17 8 22 12 5 3.5 17 6.5 24 6 7-1 15.5 3.5 17 9 2 5 2.5 17.5 1 25-1 7.5-5.5 20.5-9 26-3 5.5-11 14-16 17-5 2.5-13.5 10.5-17 16-3.5 5-14.5 9.5-22 9s-29-2.5-43-4-32-8-36-13c-3.5-5-10.5-15.5-14-21l-6-11 4 16c2.5 7.5 8 20.5 11 26 3.5 5.5 15 11.5 23 12s24 .5 32 0c8.5-.5 24.5 0 32 1l16 1z" stroke-linejoin="round"/>
  <path fill="#62004d" stroke="#62004d" stroke-width=".7" d="M1053 658c22.5 1.5 33.5-3 37-8 3.5-5.5 12-13.5 17-16 5-3 13-11.5 16-17 3.5-5.5 8-18.5 9-26 1.5-7.5 1-20-1-25-1.5-5.5-10-10-17-9-7 .5-19-2.5-24-6-5-4-16-10-22-12-6-2.5-15.5-10-19-15-3.5-5.5-2-14.5 3-18s17-7 24-7c7-.5 18.5 2.5 23 6 4.5 3 11.5 0 14-6 3-6 4-17 2-22-2-5.5-9-13-14-15l-9-4-5 2c-2 1-7.5 2.5-11 3s-9.5.5-12 0l-4-1h-17c-8-.5-18.5-1.5-21-2l-4-1h-3c-1.5-.5-7-1-11-1h-10l-8 6c-4 3-10.5 11-13 16-2.5 4.5-3 13.5-1 18 2.5 4 9.5 5 14 2 4.5-3.5 14-3.5 19 0 5.5 3.5 11.5 13.5 12 20 1 6.5-2 18-6 23-3.5 5-13.5 10-20 10-6-.5-16 4.5-20 10l-8 11v4c0 1.5.5 7 1 11 1 3.5 2.5 10.5 3 14l2 7 6 11c3.5 5.5 10.5 16 14 21 4 5 22 11.5 36 13l28 3z" stroke-linejoin="round"/>
  <path fill="#970033" stroke="#970033" stroke-width=".7" d="M1025 654l9-4-6-2c-3-1.5-5.5-.5-5 2l2 4z" stroke-linejoin="round"/>
  <path fill="#14002e" stroke="#14002e" stroke-width=".7" d="M753 653c.5-7.5-1-11-3-12l-3-2 3 6c1.5 3 3 6.5 3 7v1z" stroke-linejoin="round"/>
  <path fill="#62004d" stroke="#62004d" stroke-width=".7" d="M376 649c.5-8 1-11.5 1-12l1-2v-7l-1-1v-1l-1-14c0-7.5-.5-21-1-27v-12h-1l-3-1c-1-.5-2-2-2-3v-9c0-3-.5-7-1-8l-1-2v6c.5 2.5 1 9 1 13v34c.5 4.5 1.5 10.5 2 12l1 3-1 4v10h1v4c.5 2 1 4.5 1 5s1 3 2 5l2 3z" stroke-linejoin="round"/>
  <path fill="#14002e" stroke="#14002e" stroke-width=".7" d="M861 637l5-4-11-1c-5.5-1-14.5-2-18-2-3 0-7.5 1.5-9 3s-5 2.5-7 2c-1.5-1-9.5-2-16-2h-13l1 1h2l-3 3c-1.5 1-2.5 2.5-2 3l2 1 6 1c3.5 0 9 .5 11 1h4l2 2c1 1 2 1 2 0v-3l3 2c1.5 1 4.5 1 6 0l4-3 1 1c.5 0 2 1 3 2 1.5.5 3.5.5 4 0l1-1 2-3c1.5-1.5 4.5-2 6-1l4 1-1-1c0-1 1.5-2 3-2 2 0 4.5 1.5 5 3l1 2 1-2 1-3zm-501 10c-1-10.5-1.5-16.5-2-19v-6l-1-2v-2l-5 5-5 4 5-5 5-6v-5l1-5v2l1 1 1 1c1 0 2-3 2-6v-62l-1-2v-3 53c0 8.5-2 18-4 19-1.5 1-7.5 4.5-12 7l-9 4h-5c.5-.5 0-1-1-1-1-.5-2-1.5-2-2 0-1 1.5-2 3-2 2-.5 5-1 6-1h2l4-1 5-1h-5l-1-1h-2l-4-2c-1.5-1-5.5-3.5-8-5l-4-4-6 3c-2.5 1.5-5 2.5-5 2l1-1v-2c0-1 1-2.5 2-3l2-2 6 2c3 1 8 3 10 4l4 1 2 1c1 .5 3.5 2.5 5 4l4 2-6-9c-3-4.5-7-8.5-8-8s-1.5 2.5-1 4-4 2-9 1c-4.5-1.5-14-3-19-3-4.5-.5-10.5-2.5-12-4s-5.5-2-8-1l-4 2v3c0 1.5 1.5 2 3 1l3-3 1-1c1-.5 1 2 0 5-.5 3-1.5 7-2 8l-1 1v4l3-4 4-5h4c2-.5 4.5.5 5 2l2 2v4c0 2-.5 6-1 8v4h1c1 0 1 1.5 0 3l-1 3 2-1 6-6 5-4-1 1v1l-1 3c0 1.5 2.5 3.5 5 4l5 1 1-1c1-.5 5-1 8-1 3.5 0 8 .5 9 1l2 1-2 3c-.5 1 0 3 1 4l2 1 6 4c3 2 6.5 5 7 6l2 2zm689-3l7-4-3 1c-1 0-6 .5-10 1h-8l-5-2-8-6-3-3-1-1-3-3-1-3v3c0 1.5 2 5 4 7 2.5 2 11.5 5.5 18 7l13 3zm-266-1l6-9-8 1-14 2c-3.5 0-10.5-3-14-6s-11.5-8-16-10l-9-4 3 2c1.5 1 6.5 5.5 10 9l7 7 1 2c1 .5 5 2 8 3 3.5 1 7.5 2 8 2h6c2-.5 6-.5 8 0l4 1z" stroke-linejoin="round"/>
  <path stroke="#000" stroke-width=".7" d="M1035 642h8c4-.5 9-1 10-1l3-1 4-2 4-2 3-4 3-5-1-4c0-2.5-.5-6-1-7l-1-3-1 1-4 3-3 3-7 1-6 1h-23l-5 1-4 1 1 3 3 3 1 1 3 3 8 6 5 2z" stroke-linejoin="round"/>
  <path fill="#14002e" stroke="#14002e" stroke-width=".7" d="M1124 642c5-6.5 8.5-11.5 10-14 1.5-3 3-7.5 3-9v-3l-2 5c-.5 2-2 4.5-3 5-.5.5-2 3-3 5s-3 5-4 6c-.5.5-1 2-1 3v2zm-434-2c9.5-1.5 14-2 15-2h3l-7-1c-3.5-.5-9-.5-11 0-1.5.5-2.5 1.5-2 2l2 1z" stroke-linejoin="round"/>
  <path fill="#30005f" stroke="#30005f" stroke-width=".7" d="M844 630l22 3h3l3-1h-1v-1h-1v-1l-2-3c-.5-1.5 5-4 11-5s13-1 14 0c1.5 1 4 3.5 5 5l2 2 1-4 1-4 3 4 4 4 3 2c1.5.5 3.5.5 4 0 1-1 1-2.5 0-3-1-1-2.5-3-3-4l-1-2-1-1-1-2-4-4c-2-2.5-5.5-6-7-7l-2-3-2-2-4-8c-1-3.5-2.5-7-3-7l-1-1-2-5c-1-2.5-2.5-7.5-3-10l-1-6-1-2c0-1-.5-3.5-1-5l-1-4-1 2c-.5 1-1 3.5-1 5v9c.5 2 0 4.5-1 5l-1 1-2-7-2-7-2 7c-.5 3.5-4.5 8.5-8 10l-7 2-4-2-3-2-2-1c-1-.5-4-3.5-6-6-1.5-3-3.5-6.5-4-7v-2h-1c-.5-.5-2-1.5-3-2s-3-2-4-3c-.5-1.5-2.5-3.5-4-4-1.5-1-4-2-5-2l-1-1 1 6 1 5 7 7c4 3 1 8-6 10-6.5 1.5-17 2.5-21 2-3.5-1-11 0-15 2-3.5 1.5-7.5 4-8 5l-1 1-2-1c-.5-1-1-2.5-1-3v-2l-2-5c-1-3-3-8-4-10l-2-4-1-1v-1 7c.5 3-3 7.5-7 9s-13.5 3-19 3c-5-.5-13.5 2-17 5-3 3-6 9-6 12 0 2.5.5 9.5 1 14l1 8-4-7c-1.5-4-7-8.5-11-9s-7.5 2.5-7 6c1 3 6 9 10 12l9 5 7 1 7 1 6 1c3.5.5 9 2 11 3l5 2v1l-7-7c-3.5-3.5-8.5-8-10-9l-3-2 9 4c4.5 2 12.5 7 16 10s10.5 6 14 6l14-2 8-1h1l2-1h13c6.5 0 14.5 1 16 2 2 .5 5.5-.5 7-2s6-3 9-3h7z" stroke-linejoin="round"/>
  <path fill="#14002e" stroke="#14002e" stroke-width=".7" d="M913 639c6.5-3 8.5-5 8-6l-1-3v-2c0-1-2-3-4-4l-4-2 1 2c.5 1 2 3 3 4 1 .5 1 2 0 3-.5.5-2.5.5-4 0l-3-2 1 3c1 1 2 3 2 4l1 1v2zm-42-4l6 1 3-1 3-1-6-1-6-2v1h1l-3 1h-2l2 1 2 1zm29-6c-3-3.5-5.5-6-7-7-1-1-8-1-14 0s-11.5 3.5-11 5l2 3 4 1c2.5 0 8 1 11 2l6 2 4-3 5-3zm164 7h2c0-.5.5-1 1-1 .5-.5 2-2.5 3-4s2-4.5 2-6c.5-1.5.5-5 0-7s-1.5-4.5-2-5v-2l-2 1c-.5 0-1 .5-1 1l1 3c.5 1 1 4.5 1 7l1 4-3 5-3 4z" stroke-linejoin="round"/>
  <path fill="#30005f" stroke="#30005f" stroke-width=".7" d="M1066 635v1l4-4c2-2 3.5-8 3-12 0-4-.5-8-1-8h-1l-1-1v2c.5.5 1.5 3 2 5s.5 5.5 0 7c0 1.5-1 4.5-2 6s-2.5 3.5-3 4h-1z" stroke-linejoin="round"/>
  <path fill="#14002e" stroke="#14002e" stroke-width=".7" d="M711 634h15l-2-1c-1-1-4-2-6-2h-3v1c.5.5 0 1-1 1h-5l1 1h1zm324 0c11 0 18-1 21-2l7-2-8 1h-16c-4 0-7 1-6 2l2 1z" stroke-linejoin="round"/>
  <path fill="#30005f" stroke="#30005f" stroke-width=".7" d="M713 633c2 0 2.5-.5 2-1v-1c0-.5-3-2-6-3-3-1.5-6.5-3-7-3l-1-1-3 1c-1.5.5-2.5 1.5-2 2 .5 0 2.5 1 4 2l3 1 3 1c1.5.5 3 1.5 3 2h4zm-356-15v-2l-5 6-5 5 5-4 5-5z" stroke-linejoin="round"/>
  <path fill="#14002e" stroke="#14002e" stroke-width=".7" d="M213 623c0-.5-.5-3.5-1-6v-10l1-4-3 11c-1.5 5-1.5 10 0 10l3-1zm486 6l4 1-3-1c-1.5-1-3.5-2-4-2-.5-.5.5-1.5 2-2l3-1-2-1c-.5-.5-4 .5-7 2l-5 2 6 1 6 1zm-476-3c5-6 5-8 3-8-2-.5-4 1.5-4 4l1 4z" stroke-linejoin="round"/>
  <path fill="#270019" stroke="#270019" stroke-width=".7" d="M377 626v-28c0-2-.5-8.5-1-13v-39c0-1.5.5-5 1-7l1-4v-5l-1-4v-18h-1v2c0 1-.5 5.5-1 9v66c.5 6 1 19.5 1 27l1 14z" stroke-linejoin="round"/>
  <path fill="#14002e" stroke="#14002e" stroke-width=".7" d="M712 626c-13-8-18-14-19-17-.5-3.5 3-6.5 7-6s9.5 5 11 9l4 7-1-8c-.5-4.5-1-11.5-1-14 0-3 3-9 6-12 3.5-3 12-5.5 17-5 5.5 0 15-1.5 19-3s7.5-6 7-9v-7l-2-1c-1-1-3.5-1-5 0l-2 2 1 5c.5 2.5 1.5 7 2 9l2 3h-4c-1.5 0-6.5-.5-10-1-3.5-1-7.5-1.5-8-1h-7c-3-.5-8-1-10-1l-3-1-1 2c-.5.5-2.5 4.5-4 8-1 3-2.5 5.5-3 5v-2l-3-2c-1.5-1.5-5-1.5-7 0l-3 2 2 1h2l-4 3-6 3c-1 0-2.5.5-3 1h-1l4 1c2 .5 2.5 2 1 3l-3 1-2 3c-1 1-.5 3.5 1 5l3 2 3 4c2 2 6 5 8 6l4 2 4 2 4 1z" stroke-linejoin="round"/>
  <path fill="#09004c" stroke="#09004c" stroke-width=".7" d="M331 620h5v-2c0-1.5.5-2.5 1-2 .5 0 1-.5 1-1l1-1h-2c-1 0-4 .5-6 1-1.5 0-3 1-3 2 0 .5 1 1.5 2 2 1 0 1.5.5 1 1z" stroke-linejoin="round"/>
  <path fill="#14002e" stroke="#14002e" stroke-width=".7" d="M485 620v-11c0-2-.5-8-1-12v-11l-1-2v-3 18c.5 3.5 1 7.5 1 8v7l1 6z" stroke-linejoin="round"/>
  <path fill="#4a0038" stroke="#4a0038" stroke-width=".7" d="M1059 619v1l3-3 4-3 1-1c0-.5.5-1 1-1l2-1 1 1h1l-1-3v-4l-3 4c-1.5 2-4.5 5.5-6 7l-3 3z" stroke-linejoin="round"/>
  <path fill="#970033" stroke="#970033" stroke-width=".7" d="M1060 611c9.5-10.5 18-10.5 23-7 5.5 3.5 16 4.5 21 2 5.5-2.5 8.5-10.5 6-16-2-6-10-14.5-16-17-6-3-16-10-20-14l-7-8-1-1v-1l-12-6c-5.5-3.5-15.5-5-20-3-4.5 1.5-13.5 7.5-18 12-4 4-14.5 9.5-21 11-6 1.5-15 8.5-18 14-2.5 5.5-2.5 17.5 0 24 2.5 6 11.5 12 18 12 6.5-.5 20 .5 27 2s20 1.5 26 0l12-4z" stroke-linejoin="round"/>
  <path fill="#d10017" stroke="#d10017" stroke-width=".7" d="M1053 612c6.5-19.5 10.5-31.5 12-37 2-5.5-1-15-6-19-4.5-4-14.5-7-20-6-5 .5-13 7-16 13-2.5 6-7.5 18.5-10 25-2.5 6 6 15 17 18l23 6z" stroke-linejoin="round"/>
  <path stroke="#000" stroke-width=".7" d="M342 611c2 1 3.5 1 4 1h2l1-1-4-2c-1.5-1.5-4-3.5-5-4l-2-1-4-1c-2-1-7-3-10-4l-6-2-2 2c-1 .5-2 2-2 3v2l-1 1c0 .5 2.5-.5 5-2l6-3 4 4c2.5 1.5 6.5 4 8 5l4 2h2z" stroke-linejoin="round"/>
  <path fill="#14002e" stroke="#14002e" stroke-width=".7" d="M883 607c-1.5-6.5-4-10-6-11l-4-3 3 6c1.5 3 4 6.5 5 7l2 1z" stroke-linejoin="round"/>
  <path fill="#62004d" stroke="#62004d" stroke-width=".7" d="M476 590l5-22v-41l-1-9v-10l1-6 1-7-1-7c-.5-4-1-9-1-10s-.5-5-1-8v-7l-1 14c-.5 7-7.5 16.5-14 19-6.5 2-21.5 4-30 4-8 0-26.5 2-37 4l-20 4v18l1 4v17c.5 8.5 1 21 1 25l1 7v12l23 3c12 1.5 36 1.5 48 0l25-4z" stroke-linejoin="round"/>
  <path fill="#14002e" stroke="#14002e" stroke-width=".7" d="M734 593l-8-9 11 4 11 3-13-4-12-4 5 5 6 5zm-517 5v-8c.5-3 1-6.5 1-7l1-2-3 2c-1.5.5-3 2-3 3v2l1 4c1 1.5 2 4 2 5l1 1z" stroke-linejoin="round"/>
  <path fill="#30005f" stroke="#30005f" stroke-width=".7" d="M678 596l4 1h1l2-1h1c.5-.5 2-1 3-1l6-3 4-3h-2l-2-1-1 1h-1l-5 2c-2.5 1-6.5 3-8 4l-2 1z" stroke-linejoin="round"/>
  <path fill="#14002e" stroke="#14002e" stroke-width=".7" d="M616 589v-10l-1-11c-.5-6-2.5-18.5-4-25l-2-13v12l1 4c.5 1.5 1.5 4 2 5l1 2v9c0 4-.5 10.5-1 13v8c0 1.5 1 4 2 5l2 1zm175-11c11 2.5 21.5 1.5 28 0 7-2 10-7 6-10l-7-7 1 2 1 1 1 5c1 2 .5 3.5-1 3l-2-1-3-2c-1.5-1-5-3.5-7-5l-3-4-1 5c-.5 2-2.5 3.5-4 3l-2-2 1 2c1 1 .5 2-1 2l-2-1-2 1c-1 0-3 1.5-4 3l-1 2-1-2c0-1-1-2-2-2l-2-1-3 5-3 4-2 5-2 4 1-1c.5-1 4.5-3.5 8-5l8-4zm-560 10c6-6 9-7 10-6l3 2 2 2c1.5.5 3.5.5 4 0l2-1 1-4c.5-2 6-3 11-2 5 .5 12.5-3 15-7l6-9-8 1-8 1h-7c-3 0-8 1-10 2l-4 2-2 1c-1 .5-4 3.5-6 6-2 2-4.5 4-5 4h-1v-4c0-2 1-5 2-6l2-2 3-1c1.5-1 3-2.5 3-3v-2l-8 8c-4 4-7.5 10.5-7 13l2 5z" stroke-linejoin="round"/>
  <path fill="#62004d" stroke="#62004d" stroke-width=".7" d="M0 586c22.5-2 38.5-3 47-3 8.5-.5 23-3.5 29-6 6.5-2.5 19-5.5 25-6 6.5-.5 20.5 0 28 1s22 .5 29-1c7.5-1.5 22-4 29-5 7.5-1 16.5-9 18-16 2-7 8.5-18 13-22 4.5-4.5 16-10.5 23-12s21-1.5 28 0c7.5 1.5 21.5 5 28 7 7 2 21.5 4.5 29 5 8 .5 20.5 3 25 5l10 4-1-2v-18l-1-9v-14l-1-5v-23l-17 1c-8.5.5-25.5 1-34 1-8 0-23-1.5-30-3-7-2-21.5-3-29-2s-21.5 4.5-28 7c-6.5 2-15.5 10.5-18 17-2.5 6-12.5 12.5-20 13-7 .5-22 2-30 3-7.5 1-22 3.5-29 5s-22 3.5-30 4c-7.5.5-22.5 2-30 3-7 1-26.5 3.5-39 5l-24 2v64z" stroke-linejoin="round"/>
  <path fill="#14002e" stroke="#14002e" stroke-width=".7" d="M867 577l3-14-1-1c0-1-1-2-2-2l-2-1-4 1c-1.5 0-2.5 2-2 4l2 4 1 1h1l-5 3c-2.5 1-4.5 3-4 4l1 2 1 3c1 1 .5 2-1 2l-2-1 7-2 7-3z" stroke-linejoin="round"/>
  <path stroke="#000" stroke-width=".7" d="M234 580c1.5 0 4-2 6-4 2-2.5 5-5.5 6-6l2-1 4-2c2-1 7-2 10-2h7l8-1 8-1-2-1-2-2h-2c-.5-.5-5-1-9-1-4-.5-9.5-.5-11 0h-3l-5 1c-2 .5-5 1.5-6 2h-1v2c0 .5-1.5 2-3 3l-3 1-2 2c-1 1-2 4-2 6v4z" stroke-linejoin="round"/>
  <path fill="#30005f" stroke="#30005f" stroke-width=".7" d="M616 579c.5-9 1-12.5 1-13l1-2v-6c0-3.5-.5-10-1-13v-31l1-3v-7l1-11 2-11 2 5c1.5 2.5 5.5 8 8 11l5 6-1-6c0-3 5-6.5 10-7 5.5-.5 17 1.5 23 4 6.5 2.5 16 6 19 7 3 .5 9.5 2 13 3l7 2h2l1 1c1 0 4.5 2 7 4 2.5 1.5 2.5 4.5 0 6-2 1.5-4.5 2.5-5 2l-1-2-4-3c-1.5-2-4-4.5-5-5l-2-1-1 1 2 2c1.5 1 3.5 3.5 4 5l2 2v1l5 8c2.5 4 10 10 15 12l10 4 1-1 1-2h3l6-2 3-2 4-1c2.5-1 9-1 13 0 4.5.5 13.5.5 18 0 5-1 16-2 22-2h15l3-1v-1l3-1 4-1 2-1c1.5-.5 4-1 5-1 1.5-.5 4-.5 5 0h3l-2 1c-.5.5-3 2-5 3s-5 2-6 2h-2l-5 2c-2.5.5-6.5 1.5-8 2l-3 1 1 3c.5 1 6 .5 11-1l11-4h1l1-1 6-6c3.5-3.5 9.5-7 12-7l6-1 1 1 1 1 4 2c2 1 4.5 1.5 5 1l1-2 1-5c.5-3 1-7.5 1-9l1-4v-2l1-3 3-15c2-7.5 7-20 10-25 3.5-5.5 12.5-17 18-23l12-13 1-2 1-3 2-3c1.5-1.5 4.5-5.5 6-8l4-5 2-2 2-3 2-2c1-1.5 4.5-4.5 7-6 2.5-2 7-5 9-6l5-2 1-1 4-2 2-1v-1c.5-.5 2.5-1.5 4-2l6-2c1.5-1 5-2 7-2s3-1 2-2-4.5-2-7-2h-4l-14 4c-6.5 1.5-16.5 6-20 9-3 3-10.5 8-15 10-4.5 1.5-12 6.5-15 10-2.5 3.5-6.5 12.5-8 18-1 5.5-5 13-8 15-3 1.5-7 1-8-1l-1-4-4 10c-1.5 4.5-5 13.5-7 18s-7.5 12.5-11 16c-3 3-11 8-16 10l-20 6c-5 1-16 3-22 4-6 .5-23.5.5-35 0-11-1-28-5-34-8-5.5-3-17.5-8-24-10-6.5-2.5-20.5-6-28-7-7-1.5-21.5-4.5-29-6-7-1.5-21-1-28 1-6.5 2-17 3.5-21 3-3.5-.5-12.5-4-18-7-5-3-17-7.5-24-9-6.5-2-20.5-2.5-28-1-7.5 1-25.5 5.5-36 9l-21 6-1 2v1l3 7c1.5 3.5 3.5 9 4 11 1 2 4 3 6 2l4-2h1c.5-.5 2-1.5 3-2l2-1h25l-11 5c-5 2-12.5 5.5-15 7l-5 3-2 1c-1 .5-3 2-4 3l-1 1v1h1l3-1c1.5-1 4-2 5-2l2-1 3-3c2-1.5 4.5-2.5 5-2h5l5-1 6-2 1-1c1-.5 3.5.5 5 2 1.5 1 3 3 3 4v3c.5.5 3.5 2.5 6 4l5 2 1-1 1-1-6-10-5-11 6 4 6 3-5-7-5-8 7 5c4 2.5 12 6 16 7s10.5.5 13-1c2.5-2 9 0 13 4l8 7v2l1 2v-2l1-3v-2c0-1-1-5.5-2-9-.5-3.5-1.5-8-2-9v-3l2 4c1 2 3 7 4 10l2 5 1 9c.5 4 1 10 1 12l1 4v13l2 13c1.5 6.5 3.5 19 4 25l1 11z" stroke-linejoin="round"/>
  <path fill="#4a0038" stroke="#4a0038" stroke-width=".7" d="M378 578l2 1-1-7c0-4-.5-16.5-1-25v-17 48z" stroke-linejoin="round"/>
  <path stroke="#000" stroke-width=".7" d="M263 577l20-5-6 1h-6l-4 2-4 2z" stroke-linejoin="round"/>
  <path fill="#970033" stroke="#970033" stroke-width=".7" d="M374 573v-77l1 3 1 2v7h1l20-4c10.5-2 29-4 37-4 8.5 0 23.5-2 30-4 6.5-2.5 13.5-12 14-19l1-14 1-24 2-25v-4l1-1 12-2c6-1.5 18-3.5 24-4s18 0 24 1c6 .5 17.5 2 23 3 5.5.5 16.5 2.5 22 4 5.5 1 15 4 19 6 4.5 1.5 14 3 19 3 5.5-.5 16.5 0 22 1l22 4c6 .5 17.5 2 23 3 6 .5 17.5 1 23 1s16.5.5 22 1 16.5.5 22 0c6-.5 17.5 0 23 1 5.5.5 17 2 23 3l24 2c6 .5 17.5.5 23 0 6-1 15.5-5 19-8s9.5-9.5 12-13c3-4 8.5-11.5 11-15 3-4 9-11 12-14 3.5-3.5 10.5-9.5 14-12 4-3 12-8.5 16-11 4-3 12.5-7.5 17-9 5-1.5 15-1.5 20 0 5 1 14 4 18 6 4.5 1.5 16 2.5 23 2l14-2 1 1c1 0 3.5.5 5 1l3 1 11 1c6 .5 17 4 22 7 5 2.5 15.5 6 21 7l12 2h3l4-1 12 1c6 .5 15-2.5 18-6s10-6.5 14-6 10-3.5 12-8c2.5-5 9-12 13-14s8.5-8 9-12c1-4.5-1-12-4-15s-9-7.5-12-9c-3-2-8-3-10-2s-7 5.5-10 9l-6 6-2 2c-.5.5-1.5 3-2 5 0 1.5-1 4.5-2 6-.5 1.5-2 4-3 5l-2 1-7 3c-3.5 1.5-13 1.5-19 0-6-2-17-2-22 0l-9 3 8 3c4 1.5 12.5 2.5 17 2 4.5-1 12.5 1 16 4 4 3 5.5 9 3 12-2.5 2.5-13.5 4-22 3s-22.5-4-28-6-7-7.5-3-11l9-8-12-3c-5.5-2-16-6-21-8-5-2.5-14.5-4.5-19-4s-14 2-19 3c-4.5 1-14 1-19 0-5-1.5-4.5-6 1-9 5.5-3.5 16.5-8 22-9 6-1 17.5-5 23-8s18-7.5 25-9c7-2 21-4.5 28-5 7.5-.5 22-2.5 29-4 7.5-1.5 21.5-5 28-7 6.5-2.5 19.5-3.5 26-2 7 1 21 3.5 28 5 7 1 17.5 7 21 12 3.5 4.5 14.5 10 22 11 7.5.5 20.5 2.5 26 4s16 6.5 21 10c5.5 3.5 17 9.5 23 12 6.5 2.5 19.5 4.5 26 4 7-.5 18.5.5 23 2 5 1.5 17 4.5 24 6 7.5 1 25 .5 35-1l20-3v-35l-14 2c-6.5.5-19 1-25 1-6-.5-20.5-.5-29 0h-26c-4.5-.5-14-3-19-5-5-2.5-17.5-4.5-25-4-7 0-17-2-20-4s-10.5-5.5-15-7c-4-1.5-13.5-3-19-3s-15-2-19-4-12.5-7-17-10c-4-3-16-6.5-24-7-7.5-1-19.5-.5-24 1s-14.5 5-20 7c-5.5 1.5-17.5 4-24 5-6 .5-17 1.5-22 2s-15.5 3-21 5c-5.5 1.5-18.5 3.5-26 4s-19 2-23 3-13 4.5-18 7c-5 2-15 7.5-20 11s-13.5 10-17 13c-3 2.5-10.5 8-15 11-4 3-13 9.5-18 13s-15 8.5-20 10c-4.5 1-15 1-21 0-6-1.5-19.5-3-27-3s-20.5-.5-26-1c-5-1-17-2-24-2-7-.5-21.5-1.5-29-2s-18.5-3.5-22-6-12.5-4-18-3c-5 1-18.5 2-27 2s-22 .5-27 1-16 2.5-22 4c-6 1-20 2.5-28 3s-21 2-26 3c-4.5.5-13-2-17-5-4-3.5-14.5-9-21-11-6-2.5-16.5-6.5-21-8-4-2-15-4.5-22-5-6.5-.5-21.5-.5-30 0-8 0-20.5 1.5-25 3s-9.5 10-10 17v31c0 8.5-.5 23-1 29 0 5.5-1 17.5-2 24-.5 6.5-8 13-15 13s-19.5.5-25 1-17.5.5-24 0c-6.5-1-19.5 0-26 2-6 1.5-12 9-12 15s-2 14.5-4 17c-2 2-5-2-6-8l-1-13v3c0 1.5-.5 3.5-1 4v3c.5.5 1 5.5 1 10 .5 4 1 9 1 10l1 2v19l1 7 1 9c.5 4.5 1 10 1 11v6c.5 2 1 5 1 6v2l1 2c.5 1 1 5 1 8v9c0 1 1 2.5 2 3l3 1z" stroke-linejoin="round"/>
  <path fill="#4a0038" stroke="#4a0038" stroke-width=".7" d="M368 577c0-12-.5-18.5-1-21v-8c0-1-.5-4-1-6v-5 32l1 4 1 4z" stroke-linejoin="round"/>
  <path stroke="#000" stroke-width=".7" d="M789 575c2-3.5 4-5 5-5l2-1 2 1c1.5 0 2-1 1-2l-1-2 2 2c1.5.5 3.5-1 4-3l1-5 3 4c2 1.5 5.5 4 7 5l3 2 2 1c1.5.5 2-1 1-3l-1-5-1-1-1-2-1-5-1-6-3-2-2-2-3-1c-1.5-1-6-2-9-2l-6-1-7-1-6-1 3 2 4 1 1 3c1 1 .5 5-1 8l-3 5v11l2 1c1 0 2 1 2 2l1 2z" stroke-linejoin="round"/>
  <path fill="#30005f" stroke="#30005f" stroke-width=".7" d="M963 574c12-16.5 22-21.5 28-21 6.5 0 16.5-5 20-10 4-5 7-16.5 6-23-.5-6.5-6.5-16.5-12-20-5-3.5-14.5-3.5-19 0-4.5 3-11.5 2-14-2-2-4.5-1.5-13.5 1-18 2.5-5 9-13 13-16l8-6-13 8c-6.5 4-14 15.5-15 23-1 7-1.5 15.5-1 17l1 2 1 2c1 .5 2.5 1.5 3 2s3.5.5 6 0c2.5-1 6-2 7-2s4.5 1 7 2 5 2.5 5 3h1l5 10 6 10-10-5c-5-2.5-10.5-5.5-11-6v-2h-3c-1.5 0-3.5 1-4 2s-1.5 4-2 6c-.5 1.5-1.5 3-2 3v-9l1-5-5 5c-2.5 2-6 12-7 20-.5 8-1 19.5-1 23v7z" stroke-linejoin="round"/>
  <path fill="#4a0038" stroke="#4a0038" stroke-width=".7" d="M374 573h1v-48h-1v48z" stroke-linejoin="round"/>
  <path fill="#14002e" stroke="#14002e" stroke-width=".7" d="M784 570v-11l3-5c1.5-3 2-7 1-8l-1-3-4-1-3-2 6 1 7 1 6 1c3 0 7.5 1 9 2l3 1 2 2 3 2 1 1c1 0 3.5 1 5 2 1.5.5 3.5 2.5 4 4 1 1 3 2.5 4 3s2.5 1.5 3 2h1l-3-4c-1.5-2-2.5-6.5-2-9l2-5 1-1c.5-.5 2.5-2 4-3l4-3-11 4c-5 1.5-10.5 2-11 1l-1-3h-4l-1-1h-7 3c1.5-.5 5.5-1.5 8-2l5-2h-13c-6 0-17 1-22 2-4.5.5-13.5.5-18 0-4-1-10.5-1-13 0l-4 1h7l-4 1c-1.5.5-5.5 3-8 5l-5 4 2 3c1 1.5 3 1.5 4 0l3-3 2-1c1.5-.5 4.5-1 6-1h6c2 0 6 1 8 2l5 2h-6v1l3 4c1.5 2 3.5 5 4 6l2 2 2 4 2 4z" stroke-linejoin="round"/>
  <path fill="#14002e" stroke="#14002e" stroke-width=".7" d="M845 568c-3-6.5-5.5-11.5-7-14l-3-6 1 4c.5 2 2.5 7 4 10 1.5 2.5 3.5 5.5 4 6h1z" stroke-linejoin="round"/>
  <path fill="#4a0038" stroke="#4a0038" stroke-width=".7" d="M481 568h1v-35l-1-3v-3 41z" stroke-linejoin="round"/>
  <path fill="#14002e" stroke="#14002e" stroke-width=".7" d="M876 565c0-4.5.5-7 1-8l1-2c0-.5-1.5-2.5-3-4l-2-4-1 2c-.5.5 0 5 1 9l3 7z" stroke-linejoin="round"/>
  <path fill="#4a0038" stroke="#4a0038" stroke-width=".7" d="M1079 560c3.5-1.5 2.5-4 0-6-2-2-6.5-4-9-4l-4-1v1l1 1 1 1c.5 0 3 2 5 4l5 4h1z" stroke-linejoin="round"/>
  <path fill="#14002e" stroke="#14002e" stroke-width=".7" d="M737 544c-15-6-22.5-12-25-16l-5-8 1 2c.5 1 2.5 5.5 4 9l3 7 3 4c2 2 6 5 8 6l4 2 1 2c1 .5 3-1 4-3l2-5zm-482 7c9.5-1.5 16.5-2.5 20-3l7-2h-8c-3.5-.5-10 .5-13 2-2.5 1.5-5.5 3-6 3zm851 0c11 0 14.5-1 14-2 0-1-4-1.5-8-1-3.5 0-7 1-7 2l1 1z" stroke-linejoin="round"/>
  <path fill="#30005f" stroke="#30005f" stroke-width=".7" d="M777 549c-7-3-11-4-13-4h-3l5 2 5 2h6zm6-4c-4-3-9-4.5-13-5-3.5-.5-7-.5-7 0 .5 0 4.5 1 8 2 3.5.5 8 1.5 9 2l3 1z" stroke-linejoin="round"/>
  <path fill="#14002e" stroke="#14002e" stroke-width=".7" d="M1358 542l10-5-5-2c-2.5-1.5-5.5-3.5-6-4l-1-1v5c0 2.5.5 5.5 1 6l1 1z" stroke-linejoin="round"/>
  <path stroke="#000" stroke-width=".7" d="M812 538c1.5 1 2.5 1 3 1h2l3-1c1.5-.5 5.5-1.5 8-2l5-2c0-.5 1-1.5 2-2l3-2h-5l-4 1-3 1v1l-3 1h-2l-5 2c-2.5.5-6.5 1.5-8 2h-3 7z" stroke-linejoin="round"/>
  <path fill="#14002e" stroke="#14002e" stroke-width=".7" d="M735 536c3.5-3 2.5-6 0-8-2-2-4.5-2-5 0 0 1.5 1 4.5 2 6l3 2zm114 1c6.5-2 10-4 11-5l2-3 1 1c1 0 4 .5 6 1s4.5.5 5 0l2-1 1-2 1-3-1 2c-.5.5-3 0-5-1l-4-2 1 2c.5.5.5 1.5 0 2l-5-2c-2-1.5-4.5-4.5-5-6l-1-4 2 1c1 .5 3 2 4 3l2 2-6 1c-2.5 0-8.5 3.5-12 7l-6 6 3 1h4z" stroke-linejoin="round"/>
  <path fill="#30005f" stroke="#30005f" stroke-width=".7" d="M1368 537c1.5-6 2-11 2-14v-7l-1-2c0-1-.5-5.5-1-9v-7l-3-6c-1-3-4-8-6-10-2-2.5-5.5-5.5-7-6l-2-1-1 2v2l1 2c.5 1 1.5 3.5 2 5l1 2-2 1c-.5.5-1.5 5-2 9v16l1 6 1 1c.5.5 2 3 3 5l2 4 1 1c.5.5 3.5 2.5 6 4l5 2z" stroke-linejoin="round"/>
  <path fill="#14002e" stroke="#14002e" stroke-width=".7" d="M1077 529c4.5-9.5 11-13.5 16-14l11-2-13 1c-6 0-14.5 3.5-17 7-2 3-6 7-8 8l-3 1h7l7-1zm-244 4v1h2c1 0 4-1 6-2s4.5-2.5 5-3l2-1h-3c-1-.5-3.5-.5-5 0-1 0-3.5.5-5 1l-2 1h5l-3 2-2 1zm143 0c1.5-5 2.5-8 3-9s2.5-2 4-2h3l-3-1c-1.5-1-4-2-5-2h-2l-1 5v9h1zm420-9l-4-4-3-1-3-2h1l1-1-3-3c-1-1.5-2.5-3.5-3-4 0-.5.5-1 1-1 1-.5 2.5-.5 3 0s1-.5 1-2v-3h-3l-3-1-1-1c-.5-.5-2-1.5-3-2l-2-2 1 2 1 2 1 5c.5 2.5 1.5 8.5 2 12l2 6 6 1c3 .5 6.5 2.5 7 4l2 3-1-4v-4z" stroke-linejoin="round"/>
  <path fill="#14002e" stroke="#14002e" stroke-width=".7" d="M1403 531v-9c.5-1.5 1.5-3 2-3 1 0 2 .5 2 1v1-1c.5-1-.5-3.5-2-5l-2-4-1-2-1-2v3c.5 1 .5 3.5 0 5 0 1.5-2 3.5-4 4h-3v1l1 1 2 5c1.5 2 3.5 4.5 4 5h2z" stroke-linejoin="round"/>
  <path fill="#30005f" stroke="#30005f" stroke-width=".7" d="M1403 530v1l1-1 2-1v-4l1-4v-1c0-.5-1-1-2-1-.5 0-1.5 1.5-2 3v8z" stroke-linejoin="round"/>
  <path stroke="#000" stroke-width=".7" d="M869 528c.5-.5.5-1.5 0-2l-1-2-1-1-1-1-2-2c-1-1-3-2.5-4-3l-2-1 1 4c.5 1.5 3 4.5 5 6l5 2z" stroke-linejoin="round"/>
  <path fill="#14002e" stroke="#14002e" stroke-width=".7" d="M1015 527c3-8 2-13.5 0-16l-3-5 2 5c1 2.5 1.5 5 1 5h-2l1 5c.5 2.5 1 5.5 1 6z" stroke-linejoin="round"/>
  <path stroke="#000" stroke-width=".7" d="M374 524v1h1v-6c.5-3.5 1-8 1-9v-9l-1-2-1-3v28z" stroke-linejoin="round"/>
  <path fill="#30005f" stroke="#30005f" stroke-width=".7" d="M1401 518c.5-4.5.5-7 0-8v-3l-1-5c0-2.5-1-6-2-7l-1-3-1-3c0-2-1.5-6.5-3-9-1.5-3-3.5-6-4-6l-1-1v-2l-8-1c-3.5-1-6 1.5-5 5l3 7v5c.5 2 1.5 5 2 6l2 1 2 4c1 1.5 2 3.5 2 4l1 1v3c0 1.5-.5 2.5-1 2s-2-.5-3 0c-.5 0-1 .5-1 1 .5.5 2 2.5 3 4l3 3h1c1 0 2.5 1 3 2l2 1h3l4-1z" stroke-linejoin="round"/>
  <path fill="#970033" stroke="#970033" stroke-width=".7" d="M0 522c36.5-3.5 56-6 63-7 7.5-1 22.5-2.5 30-3 8-.5 23-2.5 30-4s21.5-4 29-5c8-1 23-2.5 30-3 7.5-.5 17.5-7 20-13 2.5-6.5 11.5-15 18-17 6.5-2.5 20.5-6 28-7s22 0 29 2c7 1.5 22 3 30 3 8.5 0 25.5-.5 34-1l17-1-1-5v-15c.5-2 1.5-3.5 2-3h1l-1-12c-.5-6-4-17.5-7-23-3-6-12.5-12.5-19-13s-18.5-1.5-24-2-17-2-23-3c-6-1.5-20-3.5-28-4-7.5-1-20.5-1-26 0-5 .5-14 4.5-18 8-3.5 3.5-8.5 14-10 21s-4.5 19-6 24c-1 4.5-8 10-14 11-5.5 1-17 1.5-23 1-5.5-1-17-2-23-2s-19 .5-26 1c-7 0-21.5 1.5-29 3-7 1-19.5 2-25 2s-16.5-1.5-22-3c-5-2-16.5-5-23-6l-13-3v79z" stroke-linejoin="round"/>
  <path fill="#14002e" stroke="#14002e" stroke-width=".7" d="M698 518l1-8 1-1v-3c0-1.5 1-2 2-1l2 1 1 1h2l-7-2c-3.5-1-10-2.5-13-3-3-1-12.5-4.5-19-7-6-2.5-17.5-4.5-23-4-5 .5-10 4-10 7l1 6-5-6c-2.5-3-6.5-8.5-8-11l-2-5-2 11-1 11 1-4c.5-2 2-5 3-6l2-2v4c0 1.5.5 7 1 11 .5 3.5 1 8 1 9v1l3-3c2-1.5 5.5-4 7-5l4-2 1 1 1 1-2-3c-1-1.5-2.5-3.5-3-4l-1-2h2c1 0 2-1 2-2v-3l4 2c2 1 4.5 2.5 5 3l2 1-1-1v-2l-2-1c-.5-1 .5-2 2-2h4l5 1c2.5 0 6 .5 7 1h3l4 2c2 .5 4 2 4 3 .5.5 1 2 1 3v1l1 3c1 1 4 3.5 6 5l4 2v-1c.5-.5 3 0 5 1l4 2zm15 3c6.5-4.5 6.5-7.5 4-9-2.5-2-6-4-7-4l-1-1 1 5c1 2 2 4.5 2 5l1 1h-2l1 2 1 1zm663 0c-1-9-2.5-15-4-18-1-3-2.5-5.5-3-5h-1v7c.5 3.5 1 8 1 9l1 2v-12l2 5c1 2 2.5 6 3 8l1 4zm-27-2l1 1-1-6v-16c.5-4 1.5-8.5 2-9l2-1-2-1c-1-1-2.5 1.5-3 5 0 3.5-.5 11-1 15 0 4 .5 9 1 10l1 2z" stroke-linejoin="round"/>
  <path stroke="#000" stroke-width=".7" d="M713 518c-1-1.5-2-4-3-6l-1-5h-4l-1-1-2-1c-1-1-2-.5-2 1v3l2 1c1 .5 3.5 3 5 5l4 3h2z" stroke-linejoin="round"/>
  <path fill="#14002e" stroke="#14002e" stroke-width=".7" d="M1108 517c10.5-.5 14-1 14-1v-1l-2-1c-1-1-3-1.5-4-1h-2l-1 1c-.5.5-2 1.5-3 2l-2 1z" stroke-linejoin="round"/>
  <path stroke="#000" stroke-width=".7" d="M1014 516c1.5 0 1-2.5 0-5l-2-5-2-1-1-1-4 2-4 1 6 5 6 4h1z" stroke-linejoin="round"/>
  <path fill="#14002e" stroke="#14002e" stroke-width=".7" d="M1412 516c3-6.5 2-10 0-11-2-1.5-3.5.5-3 4 1 3 2 6.5 2 7h1zm-441-2c9.5-1.5 16-1 19 0l6 1h-1c0-.5-2.5-2-5-3s-6-2-7-2-4.5 1-7 2c-2.5.5-5.5.5-6 0s-2-1.5-3-2l-1-2 2 3 3 3zm80-1c8-3 12-5.5 13-7l3-3-6 3c-3 1.5-7 4-8 5l-2 2zm-559-6c1.5 1 2.5 0 3-1l1-2h-1v-2l1-2c.5-1 1-2.5 1-3l1-1 1-4c1-2 2-4.5 2-5l1-1-4 2c-2 1-5 0-6-2-.5-2-2.5-7.5-4-11l-3-7h-1l-1 3c0 1.5.5 4 1 5l2 2v3c.5 1 1.5 5 2 8l2 6-1 8c0 3.5.5 6.5 1 6l2-2zm24 5l6-5 1-1c.5-.5 3-2.5 5-4 2.5-1.5 5.5-3.5 6-4l2-1 1 1h2v-1c0-1-1.5-3-3-4-1.5-1.5-4-2.5-5-2l-1 1h1l-3 3c-1.5 1-4 3.5-5 5l-2 3-2 3-2 4-1 2zm-10-6l8-3 1-1c.5-.5 1.5-2.5 2-4l2-3h-5c-.5-.5-3 .5-5 2l-3 3v6z" stroke-linejoin="round"/>
  <path fill="#30005f" stroke="#30005f" stroke-width=".7" d="M668 506l7 1h1l2-1v-1c0-1-.5-2.5-1-3 0-1-2-2.5-4-3l-4-2v1c0 .5-1 1-2 1h-8c-1.5-.5-4.5-1-6-1h-3v2l1 1h2l1 1c.5 0 4 1 7 2l7 2z" stroke-linejoin="round"/>
  <path fill="#14002e" stroke="#14002e" stroke-width=".7" d="M596 494l4 3-8-7c-4-4-10.5-6-13-4-2.5 1.5-9 2-13 1s-12-4.5-16-7l-7-5 5 8 5 7-6-3-6-4 5 11 6 10-2-1-1-1 2-1c1.5-1 6-2 9-2l6-1 2-2c1-1 4-2.5 6-3l4-1h3c2 0 5 1.5 6 3l3 2 3-1 3-2z" stroke-linejoin="round"/>
  <path fill="#d10017" stroke="#d10017" stroke-width=".7" d="M372 474c0-18 6-25.5 12-27 6.5-2 19.5-3 26-2 6.5.5 18.5.5 24 0s18-1 25-1 14.5-6.5 15-13c1-6.5 2-18.5 2-24 .5-6 1-20.5 1-29v-31c.5-7 5.5-15.5 10-17s17-3 25-3c8.5-.5 23.5-.5 30 0 7 .5 18 3 22 5 4.5 1.5 15 5.5 21 8 6.5 2 17 7.5 21 11 4 3 12.5 5.5 17 5 5-1 18-2.5 26-3s22-2 28-3c6-1.5 17-3.5 22-4s18.5-1 27-1 22-1 27-2c5.5-1 14.5.5 18 3s14.5 5.5 22 6 22 1.5 29 2c7 0 19 1 24 2 5.5.5 18.5 1 26 1s21 1.5 27 3c6 1 16.5 1 21 0 5-1.5 15-6.5 20-10s14-10 18-13c4.5-3 12-8.5 15-11 3.5-3 12-9.5 17-13s15-9 20-11c5-2.5 14-6 18-7s15.5-2.5 23-3 20.5-2.5 26-4c5.5-2 16-4.5 21-5s16-1.5 22-2c6.5-1 18.5-3.5 24-5 5.5-2 15.5-5.5 20-7s16.5-2 24-1c8 .5 20 4 24 7 4.5 3 13 8 17 10s13.5 4 19 4 15 1.5 19 3c4.5 1.5 12 5 15 7s13 4 20 4c7.5-.5 20 1.5 25 4 5 2 14.5 4.5 19 5h26c8.5-.5 23-.5 29 0 6 0 18.5-.5 25-1l14-2v-72h-17c-8.5-.5-25 0-33 1-8 .5-24 2-32 3-8 .5-24 2-32 3-7.5.5-22.5 2-30 3-7.5.5-16.5-6-18-13-1.5-7.5 1.5-18 6-21 5-3 17.5-7 25-8 7.5-1.5 22-4 29-5 7.5-1.5 13.5-7 12-11-1.5-4.5-12-9-21-9-8.5 0-25 .5-33 1-8 0-22.5 1-29 2-6 1-20.5 2.5-29 3-8 0-23.5 1.5-31 3-7.5 1-22 4-29 6-7 1.5-14.5 7.5-15 12 0 4.5 8 9.5 16 10 8.5.5 24.5.5 32 0 8-1 23.5-2.5 31-3 7.5-1 17.5 4 20 10 3 6 1 15-4 18-4.5 3-17 7-25 8-8 .5-24.5 1-33 1s-25.5.5-34 1c-8.5 0-24 .5-31 1-6.5.5-20 3-27 5-7 1.5-20 5.5-26 8-5.5 2.5-18 6-25 7s-21 0-28-2c-6.5-2-18-8-23-12-4.5-4-16.5-9-24-10-7.5-1.5-23.5-3-32-3-8.5-.5-25-1.5-33-2s-24.5-1-33-1c-8.5-.5-24.5-1.5-32-2-7-.5-22.5-.5-31 0-8 .5-24.5 1.5-33 2-8.5 0-25 .5-33 1s-24.5 1.5-33 2c-8.5 0-25.5.5-34 1-8 .5-24 .5-32 0l-15-1 10-4c5-2.5 16.5-6.5 23-8 7-2 12.5-6.5 11-9-1.5-3-11-5-19-4-8 .5-21.5 3.5-27 6-5 2.5-16.5 7.5-23 10-6 2.5-19.5 4.5-27 4-7-1-21.5-2.5-29-3-7-.5-22.5-1-31-1-8.5-.5-25.5-1-34-1-8 0-17.5 7.5-19 15-1.5 7-3 22.5-3 31s-2.5 23.5-5 30c-2.5 6-11.5 12-18 12-6.5-.5-20.5-2-28-3-7.5-1.5-23.5-3-32-3-8 0-18.5 6.5-21 13-2 6-5.5 19-7 26l-2 14-2-16c-.5-8-2-24-3-32-.5-8-4.5-20-8-24-3.5-4.5-14-7.5-21-6-6.5 1-19.5 4.5-26 7-6 2.5-20 4.5-28 4-7.5-.5-21.5-3-28-5-6.5-2.5-20.5-6.5-28-8-7-1.5-17 3-20 9-2.5 5.5-9 16-13 21-4 4.5-15 9.5-22 10-6.5.5-20.5-.5-28-2-7-1.5-21.5-2-29-1-7 .5-22 1.5-30 2-8 0-24.5.5-33 1-8 .5-22.5-1.5-29-4l-12-6v122l13 3c6.5 1 18 4 23 6 5.5 1.5 16.5 3 22 3s18-1 25-2c7.5-1.5 22-3 29-3 7-.5 20-1 26-1s17.5 1 23 2c6 .5 17.5 0 23-1 6-1 13-6.5 14-11 1.5-5 4.5-17 6-24s6.5-17.5 10-21c4-3.5 13-7.5 18-8 5.5-1 18.5-1 26 0 8 .5 22 2.5 28 4 6 1 17.5 2.5 23 3s17.5 1.5 24 2 16 7 19 13c3 5.5 6.5 17 7 23l1 12v12l1 3 1 13c1 6 4 10 6 8l4-5z" stroke-linejoin="round"/>
  <path stroke="#000" stroke-width=".7" d="M495 502v1l1-1c1-1 3-2.5 4-3l2-1c0-.5.5-2 1-3l2-3-1 1h-1l2-3c1.5-1.5 3-4 3-5l1-2h-1l-2 1c-1 .5-2.5 1.5-3 2h-1l-1 1c0 .5-1 3-2 5l-1 4-1 1c0 .5-.5 2-1 3l-1 2z" stroke-linejoin="round"/>
  <path fill="#14002e" stroke="#14002e" stroke-width=".7" d="M882 502c1.5-10.5 2-15 2-16v-3l2-4c1-2 3.5-6 5-8l3-5h1c.5-.5 2.5-3.5 4-6 2-2.5 4.5-6.5 5-8l1-3 2-2c1-1.5 4-5.5 6-8l4-5 3-3c2-1.5 4-3.5 4-4l1-1-12 13c-5.5 6-14.5 17.5-18 23-3 5-8 17.5-10 25l-3 15z" stroke-linejoin="round"/>
  <path stroke="#000" stroke-width=".7" d="M665 499c3 0 4-.5 4-1v-1h-3c-1-.5-4.5-1-7-1l-5-1h-4c-1.5 0-2.5 1-2 2l2 1h3c1.5 0 4.5.5 6 1h6z" stroke-linejoin="round"/>
  <path fill="#14002e" stroke="#14002e" stroke-width=".7" d="M502 497v1l5-3c2.5-1.5 10-5 15-7l11-5h-24l-1 2c0 1-1.5 3.5-3 5l-2 3h1l1-1-2 3-1 2z" stroke-linejoin="round"/>
  <path fill="#62004d" stroke="#62004d" stroke-width=".7" d="M800 495c18-2 29-4 34-5l20-6c5-2 13-7 16-10 3.5-3.5 9-11.5 11-16s5.5-13.5 7-18l4-10 1 4c1 2 5 2.5 8 1 3-2 7-9.5 8-15 1.5-5.5 5.5-14.5 8-18 3-3.5 10.5-8.5 15-10 4.5-2 12-7 15-10 3.5-3 13.5-7.5 20-9l14-4h3c2-.5 4.5-1 5-1 1 0 5 .5 8 1 3.5.5 7 1.5 7 2 .5 0 1 1 1 2l1 2 4 1h5l6-4c3-2 6.5-4 7-4h3l3-1 4-1h-2c-.5-.5-2.5-2-4-3l-3-3-14 2c-7 .5-18.5-.5-23-2-4-2-13-5-18-6-5-1.5-15-1.5-20 0-4.5 1.5-13 6-17 9-4 2.5-12 8-16 11-3.5 2.5-10.5 8.5-14 12-3 3-9 10-12 14-2.5 3.5-8 11-11 15-2.5 3.5-8.5 10-12 13s-13 7-19 8c-5.5.5-17 .5-23 0l-24-2c-6-1-17.5-2.5-23-3-5.5-1-17-1.5-23-1-5.5.5-16.5.5-22 0s-16.5-1-22-1-17-.5-23-1c-5.5-1-17-2.5-23-3l-22-4c-5.5-1-16.5-1.5-22-1-5 0-14.5-1.5-19-3-4-2-13.5-5-19-6-5.5-1.5-16.5-3.5-22-4-5.5-1-17-2.5-23-3-6-1-18-1.5-24-1s-18 2.5-24 4l-12 2v5c.5 2 1 6 1 8 0 1.5.5 5.5 1 8 .5 2 1 5 1 6v29l21-6c10.5-3.5 28.5-8 36-9 7.5-1.5 21.5-1 28 1 7 1.5 19 6 24 9 5.5 3 14.5 6.5 18 7 4 .5 14.5-1 21-3 7-2 21-2.5 28-1 7.5 1.5 22 4.5 29 6 7.5 1 21.5 4.5 28 7 6.5 2 18.5 7 24 10 6 3 23 7 34 8l23 1z" stroke-linejoin="round"/>
  <path fill="#270019" stroke="#270019" stroke-width=".7" d="M482 495v-20c0-4.5-.5-11-1-13v-31l1-6 1-6-1-2v-3l-2 25-1 24v7c.5 3 1 7 1 8s.5 6 1 10l1 7z" stroke-linejoin="round"/>
  <path fill="#14002e" stroke="#14002e" stroke-width=".7" d="M1136 494c2-6 1.5-7.5 0-7-1.5 0-2.5 2-2 4l2 3z" stroke-linejoin="round"/>
  <path fill="#270019" stroke="#270019" stroke-width=".7" d="M359 494v-22l1-7c.5-.5 1-2.5 1-4v-3l-1-3v-12h-1c-.5-.5-1.5 1-2 3v15l1 5v23l1 5z" stroke-linejoin="round"/>
  <path fill="#970033" stroke="#970033" stroke-width=".7" d="M1058 487c25.5-.5 38.5-4.5 43-8 4.5-4 3.5-9.5-2-11-5.5-2-18.5-3-26-2-7 .5-20.5 1-27 1-6.5-.5-21-1.5-29-2-8-1-19.5 1.5-23 5-3.5 3-1.5 9.5 4 13 5.5 3 23 5.5 35 5l25-1z" stroke-linejoin="round"/>
  <path fill="#30005f" stroke="#30005f" stroke-width=".7" d="M1405 488c-3-7.5-3.5-12-3-14l2-4v-1c.5-1 .5-4.5 0-7v-5l-1-2c-.5-1.5 1.5-3.5 4-4s6.5-1.5 8-2c2-.5 2.5-5 1-9s3.5-6 10-4l14 3v-46l-24 2c-12 .5-29-2.5-34-6-5-4-17.5-9.5-25-11-7-1.5-22-6.5-30-10l-16-8-5-2c-2.5-1-6-3.5-7-5l-2-4-11-6c-5-3.5-16-10-22-13-5.5-3-19-6-27-6l-15-1-1 2v4c0 .5-.5 1.5-1 2 0 .5-1.5 3-3 5s-4 4-5 4c-.5 0-4 .5-7 1l-5 1h-1l-1 1c-.5.5-2 2.5-3 4l-1 3 3 2c1.5.5 9.5 0 16-1 6.5-1.5 19-4.5 25-6l13-3-8 2c-4 .5-15.5 2.5-23 4l-14 3 5 3c3 1 12.5 2.5 19 3h13v-1l-4-4-4-5 9 3c5 1.5 11.5 5 13 7l4 3 2 3c1.5 1.5 2.5 3 2 3l-1-1h-4l-3-1 3 7c2 3.5 3.5 8 3 9-.5.5-2 .5-3 0l-2-1v-1h-2l-1-1-3-1-3-1h-4c-1.5 0-3 .5-3 1l1 1 2 1h3l2 2c1 1 2.5 4.5 3 7l1 5 4 4c2 1.5 5 5 6 7l2 4v3c.5 1 1 4 1 6v8c.5 2 2.5 6 4 8 1.5 1.5 3 2.5 3 2l1-2v-8c0-3 1-7 2-8l3-3 3 7c1.5 3 3.5 7.5 4 9l1 3 2 2 2 2 3-3c2-2 7.5-4 11-4 3.5-.5 7-3.5 7-6l1-6 4 7 5 7 5 1 5 1 7 1c3.5.5 8.5.5 10 0l4-2v-2c.5-1 1-3 1-4v-3l-2-4c-.5-2.5.5-5.5 2-6l3-1v-1l-1-1-1-2-5-3-5-3 12 6 13 5v1l1-11c1-5.5-4-12-10-13l-12-2 3-2c1.5-1.5 10 2 17 7l14 10 3 6c2 2.5 4.5 6.5 5 8l1 2v5c0 2.5.5 8 1 11l1 6 1 14c.5 6.5-.5 13.5-2 14l-2 1 1 1 2 1 3 7c2 3 4.5 7 5 8l2 1z" stroke-linejoin="round"/>
  <path fill="#14002e" stroke="#14002e" stroke-width=".7" d="M1373 486c-3-7.5-3.5-10-3-10h2l1 2c1 .5 2.5 2 3 3l2 1-3-7c-1-3.5 1.5-6 5-5l8 1-2-2-4-6-2-3 5 5c2.5 2 5.5 4.5 6 5h1l2-1c1.5-.5 2.5-7.5 2-14l-1-14v3l-2 4c-.5 2-2 6-3 8l-1 3-1-2c0-1-1.5-4.5-3-7-1.5-3-3.5-6.5-4-7v-2l-4-3-6-8-3-4-1-1v-1 6l5 6c2.5 3 2.5 10 0 14s-6.5 9-8 10l-2 2 3-13c2-6.5 3.5-13 3-13v-1 4l1 1-2 5-1 5-2-4-2-4-1-1c0-.5-1-1-2-1-.5-.5-2-.5-3 0h-2l-6-1-5-1 1 1c.5.5 2.5 1.5 4 2l3 1h-3c-1-.5-4.5-1-7-1h-4l1 1c.5 0 3 .5 5 1h4l3 1c2 0 6.5 2.5 9 5l5 4-1 1-2 2-2 2v2c0 .5-.5 3.5-1 6s-.5 5.5 0 6l1 1 3 3c2 1.5 5.5 5 7 7l4 3z" stroke-linejoin="round"/>
  <path fill="#060072" stroke="#060072" stroke-width=".7" d="M1346 478l3 1v-2l1-2-2-2c-1-1-5.5-2.5-9-3l-7-2 4 3c2 1.5 5.5 4 7 5l3 2z" stroke-linejoin="round"/>
  <path fill="#30005f" stroke="#30005f" stroke-width=".7" d="M1201 475c-2.5-5-3-9-3-11 0-2.5 1-5 2-5 1.5-.5 3.5 1 4 3 .5 1.5.5 5 0 7v5l1 1 3-10c1.5-5.5 3.5-18.5 4-26 .5-8-.5-23-2-30l-3-15-2 4c-1 1.5-3 11-4 19-1 7.5-2.5 16.5-3 18l-1 3-1 4c0 2-.5 6-1 8-.5 1.5-2 3.5-3 4-.5 0-1.5 1.5-2 3v2l1 5c.5 2.5 3 6.5 5 8l5 3z" stroke-linejoin="round"/>
  <path fill="#14002e" stroke="#14002e" stroke-width=".7" d="M1201 475h4l-1-1v-5c.5-2 .5-5.5 0-7-.5-2-2.5-3.5-4-3-1 0-2 2.5-2 5 0 2 .5 6 1 8l2 3z" stroke-linejoin="round"/>
  <path fill="#270019" stroke="#270019" stroke-width=".7" d="M484 468h1v-1l1-2v-27h-1c0-.5-.5-2.5-1-4l-1-4v5c.5 1 1 6 1 10 .5 4 1 9.5 1 11v2l-1 5v5z" stroke-linejoin="round"/>
  <path fill="#30005f" stroke="#30005f" stroke-width=".7" d="M1367 458c7.5-12 7.5-19 5-22l-5-6v3l1 2v1c.5 0-1 6.5-3 13l-3 13 2-2 3-2z" stroke-linejoin="round"/>
  <path fill="#14002e" stroke="#14002e" stroke-width=".7" d="M1426 463l5-1h9v-23l-14-3c-6.5-2-11.5 0-10 4s1 8.5-1 9c-1.5.5-5.5 1.5-8 2s-4.5 2.5-4 4l1 2-1-3v-4h1c1 0 3 1.5 4 3l2 2 2 2c1.5 1 3.5 3.5 4 5l1 3 4-1 5-1z" stroke-linejoin="round"/>
  <path fill="#30005f" stroke="#30005f" stroke-width=".7" d="M1060 462c-5.5-3.5-8-5-9-5l-1-1h-11c-1 0-3.5 1-5 2l-3 1h-13l4 1c2.5.5 13 1.5 21 2h17z" stroke-linejoin="round"/>
  <path stroke="#000" stroke-width=".7" d="M1389 459c2-5 3.5-9 4-11l2-4v-3l-1-6c-.5-3-1-8.5-1-11v-5l-1-2c-.5-1.5-3-5.5-5-8l-3-6h-1v-1l-3-2c-1.5-1-3.5 0-4 2l-1 4v3c.5 1.5 0 5.5-1 8l-1 4-1-3-1-4v-1l-3-3c-1-2-2.5-4.5-3-5l-1-2-3-3-2-4 2 4 2 4-7-1c-3-.5-5.5 0-5 1l2 1 1 2 2 1 1 2 1 1 2 4 3 3-4 3-4 2v3c0 1-.5 3-1 4v2l-4 2c-1.5.5-6.5.5-10 0l-7-1-5-1-5-1 1 3c1 1 3 2 4 2h3l3 1h3l3 1h3l5 1 6 1h2c1-.5 2.5-.5 3 0 1 0 2 .5 2 1l1 1 2 4 2 4 1-5 2-5-1-1v-4l-1-2v-9 1l1 1 3 4 6 8 4 3v2c.5.5 2.5 4 4 7 1.5 2.5 3 6 3 7l1 2z" stroke-linejoin="round"/>
  <path fill="#14002e" stroke="#14002e" stroke-width=".7" d="M1031 458v1l3-1c1.5-1 4-2 5-2h11l-4-1c-1.5-.5-6 0-9 1-2.5.5-5.5 1.5-6 2zm157 0l2 1v-2c.5-1.5 1.5-3 2-3 1-.5 2.5-2.5 3-4 .5-2 1-6 1-8l1-4-2 6c-1 2.5-3.5 6.5-5 8-1 1.5-2 4-2 5v1zm-281-2c6.5-4.5 10-9 11-12l3-6-3 3c-1.5 1.5-5 5.5-7 8-1.5 2.5-3.5 5.5-4 6v1z" stroke-linejoin="round"/>
  <path fill="#62004d" stroke="#62004d" stroke-width=".7" d="M1205 452c3-8 1.5-10.5-1-10-2 .5-3 3.5-2 6l3 4z" stroke-linejoin="round"/>
  <path fill="#14002e" stroke="#14002e" stroke-width=".7" d="M1229 428l-4-5v6c.5 2.5.5 5.5 0 6 0 .5-1 3.5-2 6-.5 2-1.5 3.5-2 3v-13l-1 3c0 1 2 0 4-2l5-4z" stroke-linejoin="round"/>
  <path fill="#30005f" stroke="#30005f" stroke-width=".7" d="M1222 445c2-6.5 3-9.5 3-10 .5-.5.5-3.5 0-6v-7c0-1-1-5.5-2-9l-1-8-1 7c-.5 3-1 9.5-1 13l1 6v13l1 1z" stroke-linejoin="round"/>
  <path fill="#14002e" stroke="#14002e" stroke-width=".7" d="M1324 443c2-.5 3.5-1 4-1l2-1-11-1-10-2h11c5.5-.5 12.5-1 14-1h3-3l-3-1h-3c-1 0-3-1-4-2l-1-3-5-7-4-7-1 6c0 2.5-3.5 5.5-7 6-3.5 0-9 2-11 4l-3 3 5 2c3 .5 6.5 1.5 7 2h1l9 2 10 1z" stroke-linejoin="round"/>
  <path fill="#30005f" stroke="#30005f" stroke-width=".7" d="M1330 441h11c2.5 0 6 .5 7 1h3l-3-1c-1.5-.5-3.5-1.5-4-2l-1-1h-3l-3-1h-3c-1.5 0-8.5.5-14 1h-11l10 2 11 1z" stroke-linejoin="round"/>
  <path fill="#14002e" stroke="#14002e" stroke-width=".7" d="M1184 432c-4.5-2-7-4.5-8-6l-1-4v-14c.5-4 1-8.5 1-9v-2l1 1 1 1v-3h-1v-1l-1-1v-2l-8 5-7 5v-1c.5-.5 2-3 3-5l2-4h1c1 0 2.5 4 3 8 .5 3.5 1 9 1 11v7c.5 2 2 7 3 10l3 6 3-1 4-1zm75 10l1-1c0-.5-.5-1.5-1-2l-2-4c-.5-1.5-1.5-5-2-7s-1-5.5-1-7c0-2 1-4.5 2-5 1-1 2.5-1.5 3-1l1 1v-1c0-1-2.5-4-5-6-2-2-4-2.5-4-1 .5 1.5 1 7 1 11 .5 3.5 2 10.5 3 14 1 3 2.5 7 3 8l1 1z" stroke-linejoin="round"/>
  <path fill="#30005f" stroke="#30005f" stroke-width=".7" d="M1260 440v1l1-7c.5-3.5.5-9.5 0-12l-1-6-1-1c-.5-.5-2 0-3 1-1 .5-2 3-2 5 0 1.5.5 5 1 7s1.5 5.5 2 7l2 4 1 1z" stroke-linejoin="round"/>
  <path fill="#14002e" stroke="#14002e" stroke-width=".7" d="M1272 440l3-8-1 2c0 .5-1.5-.5-3-2-1.5-2-3.5-6-4-8v-5 11l1 2 2 4 2 4z" stroke-linejoin="round"/>
  <path fill="#4a0038" stroke="#4a0038" stroke-width=".7" d="M485 437v1h1v-2c0-1-.5-4-1-6-.5-2.5-1-6.5-1-8 0-2-.5-6-1-8v-5l-1 1v7l1 2v11l1 4 1 3z" stroke-linejoin="round"/>
  <path fill="#060072" stroke="#060072" stroke-width=".7" d="M1092 436c0-8-1-13.5-2-16l-1-5h-1c-.5 0-1.5 1.5-2 3l-1 2 1 3c.5 1 2 5 3 8l3 5z" stroke-linejoin="round"/>
  <path fill="#14002e" stroke="#14002e" stroke-width=".7" d="M1186 432l3-4v-3c.5-2 .5-6 0-8v-4 4c0 2-1 3.5-2 3l-1-2v14z" stroke-linejoin="round"/>
  <path fill="#30005f" stroke="#30005f" stroke-width=".7" d="M1097 420c.5-4.5 2-8.5 3-11 1-3 2.5-6 3-6l1-1 6-1c3-1 8-1.5 10-1l4 1v-1c0-1-.5-2-1-2s-4-.5-7-1c-2.5-1-8.5-.5-12 1l-6 3-3 5-2 5 2 5 2 4z" stroke-linejoin="round"/>
  <path fill="#14002e" stroke="#14002e" stroke-width=".7" d="M1304 412c18.5 6 25 7 25 6 .5-1-5.5-4.5-12-7-6-2.5-18.5-7-25-9l-12-5 5 11c2.5 5 8.5 8.5 12 7l7-3z" stroke-linejoin="round"/>
  <path fill="#30005f" stroke="#30005f" stroke-width=".7" d="M1189 421v-8l-1-1c0-1-.5-3-1-4l-1-3-1-4c-.5-2 0-4 1-4l2-1 2 5 3 4-1-4v-4l-1-3c0-2-1-7.5-2-11l-2-8-1-5-1-6-2 3-3 3-1 1v11c.5 3.5.5 9 0 11l-1 3v5c.5 1 2 5.5 3 9l3 6 1 1 1 1 1 2 2 1z" stroke-linejoin="round"/>
  <path fill="#14002e" stroke="#14002e" stroke-width=".7" d="M1152 422c5-6 7-8.5 7-9l1-2v-4l1-4-1 2c0 .5-2 2.5-4 4-2 1-4.5 3-5 4l-2 2v2l1 1 1 2 1 2zm203 1l8-5-3-3-2-4v1l-3 1c-1.5.5-2.5 3.5-2 6l2 4zm21-11l-1-6 1-4c.5-2 2.5-3 4-2l3 2v1h1l-14-10c-7-5-15.5-8.5-17-7l-3 2 12 2c6 1 11 7.5 10 13l-1 11 1 4 1 3 1-4 2-5zm-292 7l1 1 1-2c.5-1.5 1.5-3 2-3h1l-3-6-2-6-2 5c-.5 2-.5 6 0 8l2 3z" stroke-linejoin="round"/>
  <path fill="#30005f" stroke="#30005f" stroke-width=".7" d="M1149 416c.5-1.5 1.5-2.5 2-3 .5-1 3-3 5-4 2-1.5 4-3.5 4-4l1-2v-1l7-5 8-5-1-7v-8l1-5 2-5v-2c.5-1.5 1.5-4 2-5l1-3-3 3c-1 1.5-3 4-4 5-1 .5-3 2.5-4 4l-1 2h1l-2 4-1 3-10 3c-5 1.5-13 6.5-16 10l-6 7h2l5-1c3-.5 5 2 4 5l-2 6 2 4 3 4z" stroke-linejoin="round"/>
  <path fill="#14002e" stroke="#14002e" stroke-width=".7" d="M1371 413l-25-11 5 3 5 3-2-1-1-2-2-1c-.5-1 2-1.5 5-1l7 1-2-4-2-4 2 4 3 3 1 2c.5.5 2 3 3 5l3 3zm-227-5c3-9 1-11.5-2-11l-5 1h1c.5 0 2.5.5 4 1 1.5 0 2.5 2 2 4v5z" stroke-linejoin="round"/>
  <path fill="#770036" stroke="#770036" stroke-width=".7" d="M479 404c2-9 2.5-16 2-20v-8l-2 7c-.5 3-1 9.5-1 13 .5 3.5 1 7.5 1 8z" stroke-linejoin="round"/>
  <path fill="#14002e" stroke="#14002e" stroke-width=".7" d="M1133 400l2-2 6-7c3-3.5 11-8.5 16-10l10-3-3 1h-7l-3-1h2c1-.5 2.5-1.5 3-2l2-1-6 1c-3 0-6.5.5-7 1l-4 4c-1.5 2-3.5 4.5-4 5l-3 1h-3l-3 1c-1.5.5-3.5 1-4 1l-1 2c0 1-2.5 2-5 2l-4-1h-3c-1.5-.5-3.5-1-4-1h-1l1-2c.5-1 2-2.5 3-3l2-1h-4c-2-.5-8-.5-12 0-4 0-10-.5-12-1l-4-1-1 2c0 .5 1.5 2.5 3 4l3 2h-2l9 2 9 1-8 2-8 1 1 1 2 1 3 1 4 1 6-3c3.5-1.5 9.5-2 12-1 3 .5 6.5 1 7 1s1 1 1 2v2l1 1 4-1 4-2zm-190 0l12-6 5-2c2.5-1.5 5-3.5 5-4l1-2h-1c-.5 0-.5-.5 0-1l1-1-5 2c-2 1-6.5 4-9 6-2.5 1.5-6 4.5-7 6l-2 2z" stroke-linejoin="round"/>
  <path fill="#30005f" stroke="#30005f" stroke-width=".7" d="M1104 394l-18-3h-2l-1-1 2 4 3 3 8-1 8-2z" stroke-linejoin="round"/>
  <path fill="#62004d" stroke="#62004d" stroke-width=".7" d="M1440 393v-49l-20 3c-10 1.5-27.5 2-35 1-7-1.5-19-4.5-24-6-4.5-1.5-16-2.5-23-2-6.5.5-19.5-1.5-26-4-6-2.5-17.5-8.5-23-12-5-3.5-15.5-8.5-21-10s-18.5-3.5-26-4c-7.5-1-18.5-6.5-22-11-3.5-5-14-11-21-12-7-1.5-21-4-28-5-6.5-1.5-19.5-.5-26 2-6.5 2-20.5 5.5-28 7-7 1.5-21.5 3.5-29 4-7 .5-21 3-28 5-7 1.5-19.5 6-25 9s-17 7-23 8c-5.5 1-16.5 5.5-22 9-5.5 3-6 7.5-1 9 5 1 14.5 1 19 0 5-1 14.5-2.5 19-3s14 1.5 19 4c5 2 15.5 6 21 8l12 3v1l9-3c5-2 16-2 22 0 6 1.5 15.5 1.5 19 0l7-3v-1c.5-.5 1.5-2 2-3 1-1.5 2-5 2-7 .5-2 2-5 3-6 1-1.5 2.5-2.5 3-2h1l6-6c3-3.5 8-8 10-9s7 0 10 2c3 1.5 9 6 12 9s5 10.5 4 15c-.5 4-5 10-9 12s-10.5 9-13 14c-2 4.5-8 8.5-12 8s-11 2.5-14 6-12 6.5-18 6l-12-1v1c.5.5 3 2 5 3l4 1 3 1c1.5 0 5 .5 7 1l4 1h3l3-1c.5-.5 2.5-3 4-5l4-4c.5-.5 4-1 7-1l6-1h1c.5-.5 2.5-1.5 4-2l3-2 1-2c1-1.5 3-3.5 4-4 1-1 3-3.5 4-5l3-3 2-1c1-1 3.5-3 5-4s3.5-2 4-2h2l1-3c1-1.5 2.5-3.5 3-4l1-1-1-1c0-.5 1.5-3 3-5 2-2.5 6.5-6.5 9-8 2.5-2 6.5-4 8-4l4-1 15 1c8 0 21.5 3 27 6 6 3 17 9.5 22 13l11 6 2 2 4 4c1.5.5 4 2 5 3l3 2 16 8c8 3.5 23 8.5 30 10 7.5 1.5 20 7 25 11 5 3.5 22 6.5 34 6l24-2z" stroke-linejoin="round"/>
  <path fill="#14002e" stroke="#14002e" stroke-width=".7" d="M964 396c8-3 13.5-5 16-6l5-3-7 3c-3 1-8 3-10 4l-4 2zm64-1l3-8-3 2c-1.5.5-2.5 2.5-2 4l2 2z" stroke-linejoin="round"/>
  <path stroke="#000" stroke-width=".7" d="M1177 395l1 1 1-3c.5-2 .5-7.5 0-11v-11l-1-2v-2l-2 5-1 5v8l1 7v2l1 1zm-60-3c6.5 1 9 0 9-1l1-2c.5 0 2.5-.5 4-1l3-1-4-1c-2-.5-5.5-1-7-1l-3-1v1h-5l-2 1c-1 .5-2.5 2-3 3l-1 2h1c.5 0 2.5.5 4 1h3z" stroke-linejoin="round"/>
  <path fill="#fe0000" stroke="#fe0000" stroke-width=".7" d="M365 343c6.5-18.5 17-25 25-25 8.5 0 24.5 1.5 32 3 7.5 1 21.5 2.5 28 3 6.5 0 15.5-6 18-12 2.5-6.5 5-21.5 5-30s1.5-24 3-31c1.5-7.5 11-15 19-15 8.5 0 25.5.5 34 1 8.5 0 24 .5 31 1 7.5.5 22 2 29 3 7.5.5 21-1.5 27-4 6.5-2.5 18-7.5 23-10 5.5-2.5 19-5.5 27-6 8-1 17.5 1 19 4 1.5 2.5-4 7-11 9-6.5 1.5-18 5.5-23 8l-10 4 15 1c8 .5 24 .5 32 0 8.5-.5 25.5-1 34-1 8.5-.5 25-1.5 33-2s24.5-1 33-1c8.5-.5 25-1.5 33-2 8.5-.5 24-.5 31 0 7.5.5 23.5 1.5 32 2 8.5 0 25 .5 33 1s24.5 1.5 33 2c8.5 0 24.5 1.5 32 3 7.5 1 19.5 6 24 10 5 4 16.5 10 23 12 7 2 21 3 28 2s19.5-4.5 25-7c6-2.5 19-6.5 26-8 7-2 20.5-4.5 27-5 7-.5 22.5-1 31-1 8.5-.5 25.5-1 34-1s25-.5 33-1c8-1 20.5-5 25-8 5-3 7-12 4-18-2.5-6-12.5-11-20-10-7.5.5-23 2-31 3-7.5.5-23.5.5-32 0-8-.5-16-5.5-16-10 .5-4.5 8-10.5 15-12 7-2 21.5-5 29-6 7.5-1.5 23-3 31-3 8.5-.5 23-2 29-3 6.5-1 21-2 29-2 8-.5 24.5-1 33-1 9 0 19.5 4.5 21 9 1.5 4-4.5 9.5-12 11-7 1-21.5 3.5-29 5-7.5 1-20 5-25 8-4.5 3-7.5 13.5-6 21 1.5 7 10.5 13.5 18 13 7.5-1 22.5-2.5 30-3 8-1 24-2.5 32-3 8-1 24-2.5 32-3 8-1 24.5-1.5 33-1h17V134h-1c-.5-.5-2.5-1.5-4-2-1-1-2-3-2-4s1-2.5 2-3c1.5-.5 3.5-1 4-1l1-1V84l-12 5c-6 2-15 9-18 14-2.5 5-9 14-13 18-4 3.5-16 8-24 9-8 .5-23.5 0-31-1-7-1-21.5-.5-29 1-7 1-27.5 1-41 0-13-1-30-4-34-6s-12.5-6.5-17-9c-4-3-13-7.5-18-9-4.5-1.5-14.5-4-20-5-5.5-1.5-15.5-5-20-7-4-2-13-6-18-8-4.5-2-13-6-17-8-4-2.5-13-6.5-18-8-5-2-14-6.5-18-9-3.5-2.5-11.5-4.5-16-4s-13.5-.5-18-2-14.5-4.5-20-6-16-4-21-5c-5-1.5-15.5-4-21-5-5.5-1.5-16-4.5-21-6-4.5-1.5-14.5-4-20-5-5.5-1.5-16.5-4-22-5-5-1-15.5-3-21-4-5.5-1.5-16.5-4-22-5-5-1-16.5-2.5-23-3s-18.5-.5-24 0-18 1-25 1-19.5-.5-25-1c-5.5-1-16.5-4-22-6l-10-5H0v321l12 6c6.5 2.5 21 4.5 29 4 8.5-.5 25-1 33-1 8-.5 23-1.5 30-2 7.5-1 22-.5 29 1 7.5 1.5 21.5 2.5 28 2 7-.5 18-5.5 22-10 4-5 10.5-15.5 13-21 3-6 13-10.5 20-9 7.5 1.5 21.5 5.5 28 8 6.5 2 20.5 4.5 28 5 8 .5 22-1.5 28-4 6.5-2.5 19.5-6 26-7 7-1.5 17.5 1.5 21 6 3.5 4 7.5 16 8 24 1 8 2.5 24 3 32l2 16 2-14 3-14z" stroke-linejoin="round"/>
  <path fill="#14002e" stroke="#14002e" stroke-width=".7" d="M1264 378l-7-14v-1l-4-2c-1.5-1.5-3-2-3-1v2l-2-2c-1-1-3-2-4-2l-1-1h-13c-6.5-.5-16-2-19-3l-5-3 14-3c7.5-1.5 19-3.5 23-4l8-2-13 3c-6 1.5-18.5 4.5-25 6-6.5 1-14.5 1.5-16 1l-3-2h-2c-.5 0-2.5 1-4 2s-4 3-5 4l-2 1-1 3c-.5 1-1.5 3.5-2 5v4l1 2 1-1 3-3 2-3 2 1c1 0 2.5.5 3 1h2l4 3c2 1 4.5 2.5 5 3l1 1v-2c0-1.5 1.5-2 3-1l4 1 3-1c1.5-.5 2-3.5 1-6-.5-2.5-.5-5 0-5h2l3 4c1.5 1.5 5 4 7 5l5 1 1 1c1 .5 4.5 2.5 7 4l5 3-1-1c0-.5 1.5-1 3-1h4l1-2c.5-1 1.5-2 2-2h2l1 3 2 4 1 1 2 1c1 .5 2.5.5 3 0l1-2zm-274 5h11c3 0 8 .5 10 1h4v-4h-8l-4-1 1-1 1-2 1-1-1-2c0-1-.5-2-1-2 0-.5-3.5-1.5-7-2-3-.5-7-1-8-1-.5 0-3 .5-5 1h-3 4c2.5 0 6 1 7 2s0 2-2 2-5.5 1-7 2l-6 2c-1.5.5-3.5 1.5-4 2v1l1 1 1 1 7 1h8z" stroke-linejoin="round"/>
  <path fill="#4a0038" stroke="#4a0038" stroke-width=".7" d="M1091 385c12-.5 18-.5 20 0h9v-1l-4-1c-2-1-4.5-2.5-5-3v-1l-4 1h-3l-1 2c0 .5-5 .5-10 0l-10-1v2l4 1 4 1z" stroke-linejoin="round"/>
  <path fill="#30005f" stroke="#30005f" stroke-width=".7" d="M1015 384l6-1 2-2c1.5-1 3.5-2 4-2l2-1-1-1c-.5-1-3.5-.5-6 1l-5 3h-2v3z" stroke-linejoin="round"/>
  <path fill="#62004d" stroke="#62004d" stroke-width=".7" d="M1103 383l1-3-12-2c-5.5-1-16-4.5-21-7-5-3-16-6.5-22-7l-11-1h8c1.5 0 4.5 1.5 6 3l6 3c1 .5 3.5 2 5 3 2 1 4.5 2.5 5 3h2l4 3 4 2h2l1 1h2l10 1 10 1z" stroke-linejoin="round"/>
  <path fill="#30005f" stroke="#30005f" stroke-width=".7" d="M982 381c10.5-.5 14-1.5 14-2 0-1-3.5-1.5-7-1s-7 1.5-7 2v1z" stroke-linejoin="round"/>
  <path stroke="#000" stroke-width=".7" d="M1015 380v1h2c0-.5 1-1.5 2-2 1.5-1 5-3.5 7-5l5-3-1-1v-2h-2c-.5 0-4 2-7 4l-6 4h-5l-4-1-1 1-1 2-1 1 4 1h8z" stroke-linejoin="round"/>
  <path fill="#14002e" stroke="#14002e" stroke-width=".7" d="M1017 380v1l5-3c2.5-1.5 5.5-2 6-1l1 1h1c1-.5 3.5-1.5 5-2l4-2h13l-3-1c-1-.5-3.5-1-5-1-1 0-4.5-.5-7-1-2-1-4.5-2-5-2v-1h-2v2l1 1-5 3c-2 1.5-5.5 4-7 5l-2 1zm52 0h9l-4-2-4-3h-16v1c.5 0 3 .5 5 1l4 1 3 1 3 1z" stroke-linejoin="round"/>
  <path stroke="#000" stroke-width=".7" d="M1154 378c5 1 8.5 1 10 1l3-1 1-3 2-4h-1l-3 2c-1.5.5-3.5 1.5-4 2h-1l-2 1c-.5.5-2 1.5-3 2h-2z" stroke-linejoin="round"/>
  <path fill="#30005f" stroke="#30005f" stroke-width=".7" d="M1202 378l2-3-1-1-1-1-1-1c-.5-.5-3-2-5-3l-4-3v2l1 1 4 5 5 4z" stroke-linejoin="round"/>
  <path stroke="#000" stroke-width=".7" d="M1258 378v1l-1-1-2-4-1-3h-2c-.5 0-1.5 1-2 2l-1 2 3 1 3 1 1 1h2z" stroke-linejoin="round"/>
  <path fill="#30005f" stroke="#30005f" stroke-width=".7" d="M1057 375h3v-1c0-.5-1.5-2-3-3s-4-2.5-5-3-3.5 0-5 1c-1 1-3.5 1.5-5 1-1-1-4-2-6-2h-4v1c.5 0 3 1 5 2 2.5.5 6 1 7 1 1.5 0 4 .5 5 1l3 1 1 1h4z" stroke-linejoin="round"/>
  <path fill="#4a0038" stroke="#4a0038" stroke-width=".7" d="M1060 375h10-2c-.5-.5-3-2-5-3-1.5-1-4-2.5-5-3l-6-3c-1.5-1.5-4.5-3-6-3h-8l-3-1c-1.5-.5-4-1-5-1l-1-1 3 3c1.5 1 3.5 2.5 4 3h2l-4 1-3 1h5c2 0 5 1 6 2 1.5.5 4 0 5-1 1.5-1 4-1.5 5-1s3.5 2 5 3 3 2.5 3 3v1z" stroke-linejoin="round"/>
  <path fill="#d10017" stroke="#d10017" stroke-width=".7" d="M1118 374c7.5-8 6-14 2-17-3.5-3-11.5-5-16-4-4.5.5-13-.5-17-2l-8-3v-1l-9 8c-4 3.5-2.5 9 3 11s19.5 5 28 6l17 2z" stroke-linejoin="round"/>
  <path stroke="#000" stroke-width=".7" d="M1235 368l9-8h-19l4 3 5 3v1l1 1zm29-3c1.5 1 .5-.5-1-2l-2-3h-1c-.5-.5-2.5-2-4-3l-3-2-2-1c-.5-1-4.5-2.5-8-3-3-1-6.5-1.5-7-1h-1l4 3 4 3v1l1 1c1 0 3 1 4 2l2 2v-2c0-1 1.5-.5 3 1l4 2v1l3 1h4z" stroke-linejoin="round"/>
  <path fill="#14002e" stroke="#14002e" stroke-width=".7" d="M1311 360c-4-3-6.5-4.5-8-5l-4-4-2-2 2 4c1 1.5 4.5 4 7 5l5 2z" stroke-linejoin="round"/>
  <path fill="#d10017" stroke="#d10017" stroke-width=".7" d="M1166 341c9-8 6-11 0-11-5.5 0-15 5-19 10l-7 10 13-4 13-5z" stroke-linejoin="round"/>
  <path fill="#14002e" stroke="#14002e" stroke-width=".7" d="M1259 359l2 1-4-3c-1.5-2-8-5.5-13-7l-9-3 4 5 4 4-4-3-4-3h1c.5-.5 4 0 7 1 3.5.5 7.5 2 8 3l2 1 3 2 3 2z" stroke-linejoin="round"/>
  <path fill="#d10017" stroke="#d10017" stroke-width=".7" d="M1035 357c.5-12-5-16.5-11-17-6-1-14 2-16 6-1.5 4 4.5 9 12 10l15 1z" stroke-linejoin="round"/>
  <path fill="#4a0038" stroke="#4a0038" stroke-width=".7" d="M1136 342c3-2 4.5-4.5 5-6 1-1.5 2-4.5 2-6 .5-2 1.5-4.5 2-5l2-2h-1c-.5-.5-2 .5-3 2-1 1-2.5 4-3 6 0 2-1 5.5-2 7-.5 1-1.5 2.5-2 3v1zm63 0h1v-2c0-1 1.5-3 3-4 1.5-1.5 4-3.5 5-4s4-1.5 6-2c2-1 4.5-2 5-2l2-1v-2l1-2-4 1c-1.5 0-5.5 2-8 4-2.5 1.5-7 5.5-9 8-1.5 2-3 4.5-3 5l1 1z" stroke-linejoin="round"/>
  <path fill="#62004d" stroke="#62004d" stroke-width=".7" d="M1200 341v1l5-1c3-.5 6.5-1 7-1 1 0 3.5-2 5-4s3-4.5 3-5c.5-.5 1-1.5 1-2v-2l-2 1c-.5 0-3 1-5 2-2 .5-5 1.5-6 2s-3.5 2.5-5 4c-1.5 1-3 3-3 4v1z" stroke-linejoin="round"/>
  <path fill="#14002e" stroke="#14002e" stroke-width=".7" d="M1231 335l14-1-6-2c-2.5-1-6.5-.5-8 1-1 1-1.5 2-1 2h1z" stroke-linejoin="round"/>
  <path fill="#4a0038" stroke="#4a0038" stroke-width=".7" d="M1087 329c1.5-6.5 1.5-10.5 1-12l-1-3c0-.5-1-1-2-1-.5-.5-1.5 0-2 1 0 1-1 2-2 2l-2-1h-6c-2.5 0-6.5 2-8 4l-3 3 7-2c3.5-1 9.5 0 12 2 2.5 1.5 5 4 5 5l1 2zm55-9c-1-4.5-4.5-6.5-8-7l-7-2 5 3c2.5 1.5 6 4 7 5l3 1z" stroke-linejoin="round"/>
  <path fill="#14002e" stroke="#14002e" stroke-width=".7" d="M1119 317h6-1c0-.5-1-1.5-2-2-1-1-2.5-2-3-2l-3-2-3-2-2 1-2 1 5 3 5 3z" stroke-linejoin="round"/>
  <path fill="#270019" stroke="#270019" stroke-width=".7" d="M1083 316c.5-3 1.5-3.5 2-3 1 0 2 .5 2 1l1-1 2-1h-1c-.5-.5-2-1-3-1-.5-.5-2.5-1.5-4-2-1.5-1-5-2.5-7-3-1.5-.5-3 0-3 1 .5.5-1 1.5-3 2h-5l-2 3c-1 1.5 1.5 2.5 5 2s8-.5 9 0l3 1 2 1h2z" stroke-linejoin="round"/>
  <path fill="#4a0038" stroke="#4a0038" stroke-width=".7" d="M1107 316l2-5 2-1 2-1h-1c0-.5-4-1.5-8-2l-7-1 4 4 5 5 1 1z" stroke-linejoin="round"/>
  <path fill="#30005f" stroke="#30005f" stroke-width=".7" d="M1124 316l1 1-3-4c-1.5-2.5-4.5-4.5-6-4h-3l3 2 3 2c.5 0 2 1 3 2l2 1z" stroke-linejoin="round"/>
  <path fill="#4a0038" stroke="#4a0038" stroke-width=".7" d="M1035 315c9-2 14.5-4.5 17-6l6-3-6 1c-3 .5-9 2.5-12 4-2.5 1.5-5 3.5-5 4zm53-4l2 1-4-3c-2-1.5-8-3.5-12-4-3.5-.5-8 .5-9 2l-1 2h5c2-.5 3.5-1.5 3-2 0-1 1.5-1.5 3-1 2 .5 5.5 2 7 3 1.5.5 3.5 1.5 4 2h2zm40-9c12 1 19 .5 22 0 3.5-.5 9-1 11-1l5-1h-10l-1-1-4-2-3-2 1-1v-1l-4 3c-2 1.5-7.5 4-11 5l-6 1z" stroke-linejoin="round"/>
  <path stroke="#000" stroke-width=".7" d="M1155 299c2 1 5 1 7 1h19l-2-3-1-4h-29v1l-1 1 3 2 4 2z" stroke-linejoin="round"/>
  <path fill="#4a0038" stroke="#4a0038" stroke-width=".7" d="M1136 293c9-2 15.5-3.5 19-4 4-.5 10-1.5 12-2l5-2-8 1c-3.5.5-11 1.5-15 2-4 0-9.5 1.5-11 3l-2 2z" stroke-linejoin="round"/>
  <path fill="#30005f" stroke="#30005f" stroke-width=".7" d="M1157 292v1h21l-4-2c-2-1-7.5-1-11 0l-6 1z" stroke-linejoin="round"/>
  <path fill="#fe0000" stroke="#fe0000" stroke-width=".7" d="M656 285c25.5-.5 41-1.5 48-2l14-2-13-3c-6-1.5-20.5-2.5-29-2-8 0-24 1-32 2l-16 1 14 3 14 3z" stroke-linejoin="round"/>
  <path fill="#d10017" stroke="#d10017" stroke-width=".7" d="M750 224c9.5-1.5 14.5-4 16-6 2-2 1-4.5-2-5s-9.5 0-13 1c-3.5.5-5.5 3.5-4 6l3 4zm-69-62h50c9 0 24-2.5 30-5 6.5-2.5 9-9 5-13-3.5-4.5-13.5-10.5-20-12-6.5-2-20.5-5-28-6-7.5-1.5-22.5-3.5-30-4-7-.5-21.5-1-29-1-7.5-.5-22.5 0-30 1-7 .5-14 8.5-14 16 0 7 6 16.5 12 19 6.5 2.5 23 5 33 5h21zm156-5c8-7.5 5-13-1-16-5.5-3-17-3.5-23-1l-12 4 18 7 18 6zm63-1c24.5-1.5 40-2.5 47-3 7.5-.5 22-2.5 29-4 7-2 13-9.5 12-15s-9.5-12.5-17-14c-7-1.5-21.5-2-29-1-7 1-21.5 3.5-29 5-7.5 1-21 5-27 8-5.5 3-13 10.5-15 15s4 9 12 9h17zm-309-8c-5.5-18-14-25.5-21-27-7-2-22-3.5-30-3-7.5.5-21.5 3.5-28 6-6 2-10 8.5-8 13 2 4 11 10 18 12 7 1.5 27.5 2 41 1l28-2zm708-16c21.5-3.5 36-4 43-3 7.5 1 23 1.5 31 1 8-1 20-5.5 24-9 4-4 10.5-13 13-18 3-5 12-12 18-14l12-5v-6l-10 4c-4.5 1.5-15.5 5.5-22 8l-24 10c-6 2.5-19 7-26 9-6.5 2-20 6-27 8-7 1.5-28 1.5-42 0-14-2-26.5-10-25-16 1.5-6.5 7-17.5 11-22 4.5-4.5 13.5-13 18-17 5-4 15-11.5 20-15 5-4 15-11.5 20-15s15.5-10 21-13c5.5-3.5 14.5-10 18-13l7-6h-74l-7 10c-3.5 5-11.5 14.5-16 19l-14 14c-3 3-10 9.5-14 13-4 3-13 10-18 14-4.5 3.5-13 9-17 11s-18 4-28 4-26.5-2.5-33-5l-24-10c-6-3-17.5-9-23-12s-15.5-10.5-20-15c-4-4.5-13-7.5-18-6-5 1-16.5 0-23-2-6.5-2.5-19-7-25-9-5.5-2-17-6.5-23-9s-19.5-8-27-11l-15-6H761l10 5c5.5 2 16.5 5 22 6 5.5.5 18 1 25 1s19.5-.5 25-1 17.5-.5 24 0 18 2 23 3c5.5 1 16.5 3.5 22 5 5.5 1 16 3 21 4 5.5 1 16.5 3.5 22 5 5.5 1 15.5 3.5 20 5 5 1.5 15.5 4.5 21 6 5.5 1 16 3.5 21 5 5 1 15.5 3.5 21 5s15.5 4.5 20 6 13.5 2.5 18 2 12.5 1.5 16 4c4 2.5 13 7 18 9 5 1.5 14 5.5 18 8 4 2 12.5 6 17 8 5 2 14 6 18 8 4.5 2 14.5 5.5 20 7 5.5 1 15.5 3.5 20 5 5 1.5 14 6 18 9 4.5 2.5 13 7 17 9s21 5 34 6l27 2zm139 1l2 1v-11l-1 1c-.5 0-2.5.5-4 1-1 .5-2 2-2 3s1 3 2 4l3 1z" stroke-linejoin="round"/>
  <path fill="#970033" stroke="#970033" stroke-width=".7" d="M1317 120c21-5 34.5-9 41-11 7-2 20-6.5 26-9l24-10c6.5-2.5 17.5-6.5 22-8l10-4V21l-9-4c-4-2-12-7-16-10l-8-7h-28l-7 6c-3.5 3-12.5 9.5-18 13-5.5 3-16 9.5-21 13s-15 11-20 15c-5 3.5-15 11-20 15-4.5 4-13.5 12.5-18 17-4 4.5-9.5 15.5-11 22-1.5 6 11 14 25 16l28 3z" stroke-linejoin="round"/>
  <path fill="#62004d" stroke="#62004d" stroke-width=".7" d="M1336 104c21.5-4.5 34.5-9 40-12 5.5-3.5 9.5-13.5 8-20-1-6.5-8-15.5-14-18-5.5-3-18-4-25-2-6.5 2-18.5 7.5-24 11-5.5 3-15.5 10.5-20 15-4 4.5-5.5 13.5-3 18 2.5 4 13 8 21 8h17z" stroke-linejoin="round"/>
  <path fill="#970033" stroke="#970033" stroke-width=".7" d="M1211 85c12-6 20.5-11.5 25-15 5-4 14-11 18-14 4-3.5 11-10 14-13l14-14c4.5-4.5 12.5-14 16-19l7-10h-14l-8 10c-4 4.5-12.5 13.5-17 18-4 4.5-13 13-18 17-4.5 4-14 12-19 16-5 3.5-21.5 8-33 9-11 .5-28.5-1-35-3-6-2-17.5-7-23-10-5.5-3.5-17-9.5-23-12s-16.5-9-21-13c-4.5-4.5-15.5-11-22-13-6-2-16.5-7.5-21-11l-8-8h-83l15 6c7.5 3 21 8.5 27 11s17.5 7 23 9c6 2 18.5 6.5 25 9 6.5 2 18 3 23 2 5-1.5 14 1.5 18 6 4.5 4.5 14.5 12 20 15s17 9 23 12l24 10c6.5 2.5 23 5 33 5h20z" stroke-linejoin="round"/>
  <path fill="#62004d" stroke="#62004d" stroke-width=".7" d="M1219 68c15-11 24.5-19 29-23 5-4 14-12.5 18-17 4.5-4.5 13-13.5 17-18l8-10h-248l8 8c4.5 3.5 15 9 21 11 6.5 2 17.5 8.5 22 13 4.5 4 15 10.5 21 13s17.5 8.5 23 12c5.5 3 17 8 23 10 6.5 2 24 3.5 35 3l23-2z" stroke-linejoin="round"/>
  <path fill="#d10017" stroke="#d10017" stroke-width=".7" d="M1440 21V0h-33l8 7c4 3 12 8 16 10l9 4z" stroke-linejoin="round"/>
</svg>
