<svg xmlns="http://www.w3.org/2000/svg" viewBox="0 0 1440 1440" version="1">
  <path fill="#D6D1B1" d="M0 0h1440v1440H0z"/>
  <path fill="#190d06" stroke="#000" stroke-width="3" d="M0 1440h107l10-5 11-5 2-3 3-4-1-1-1-2v-5l-2-18-1-19-1-1v-1l-10-26-10-26-6-11-6-11 48-30 49-30 5-5 5-5 40-3 41-3v1l35 59 35 58 1 1 1 1 37 2 38 2 10-2 10-2 147 47 148 47h695V637l-5-3-4-4-49-79-48-80-1-1v-1l-10-2-10-3-104-7-104-7 17 13 18 12 7 12 7 11-3 6-2 5v3l1 2-5 41-5 41v9l1 8 1 7 2 6 1 2 1 1-8 15-7 15v2l54 25 54 25-4 5-3 4-13 12-13 12-32 52-32 52h-2l-4 7-3 6-27 36-26 36-2 1h-2l-19 16-19 15-17-28-17-28 15-51 15-52 2-3 2-4 8-6 8-7 2-17 3-18-18-8-18-9-6-10-6-11-1 1h-1l-197-22-197-22-63-16-62-17v1h1l1 9 1 8-1 1v30l-1 24-1 23-1 28v37l-22 30-21 30-33-13-33-14-1-7v-8l-2-7-1-8-9-26-8-27h-1l-160 49-159 48-20-6-19-6v607z" stroke-linejoin="round"/>
  <path fill="#291509" stroke="#000" stroke-width="3" d="M107 1440h25l10-8 10-8-9-2-8-3-2 1h-2l1 2 1 1-3 4-2 3-11 5-10 5z" stroke-linejoin="round"/>
  <path fill="#190d06" stroke="#000" stroke-width="3" d="M132 1440h51l-3-4-2-4-13-6-13-7v5l-10 8-10 8z" stroke-linejoin="round"/>
  <path fill="#754909" stroke="#000" stroke-width="3" d="M183 1440h23l2-4 2-4-11-17-10-17 7-4 8-4v-1l-3-6-2-6-2 2-2 2-12 2-11 2-4-2-4-2 7 26 7 25 2 4 3 4z" stroke-linejoin="round"/>
  <path fill="#ba8309" stroke="#000" stroke-width="3" d="M188 1440h7-7z" stroke-linejoin="round"/>
  <path fill="#e2a115" stroke="#000" stroke-width="3" d="M206 1440h13l97-37 98-38-42 12-41 12-17 6-16 5-24 7-24 7-10 4-9 3-5 3-5 2-6 3-5 3-2 4-2 4z" stroke-linejoin="round"/>
  <path fill="#e5a22b" stroke="#000" stroke-width="3" d="M219 1440h122l56-45 56-46-2-1-1-2-10 2-10 2-8 8-8 7-98 38-97 37z" stroke-linejoin="round"/>
  <path fill="#e2a115" stroke="#000" stroke-width="3" d="M321 1440h11-11zm20 0h38l12-13 13-13 11 1h12l11-7 12-8h17l7-2 7-2 17-10 17-10v-3l-2-4-2-5-2-2-2-2-6-3-5-3-22-2-21-3-56 46-56 45z" stroke-linejoin="round"/>
  <path fill="#291509" stroke="#000" stroke-width="3" d="M379 1440h7l53-10 53-11-4-4-4-4-8-3-8-4h-8l-8-1-1-1-1-2-12 8-11 7h-12l-11-1-13 13-12 13z" stroke-linejoin="round"/>
  <path fill="#190d06" stroke="#000" stroke-width="3" d="M386 1440h157l-21-10-21-11h-9l-53 11-53 10z" stroke-linejoin="round"/>
  <path fill="#291509" stroke="#000" stroke-width="3" d="M543 1440h87v-4l-3-5-3-6-12-6-12-7v-3l1-1-9-3-8-3-4 5-3 5-8-5-7-5-13-3-13-3-18 12-17 11 21 11 21 10z" stroke-linejoin="round"/>
  <path fill="#190d06" stroke="#000" stroke-width="3" d="M546 1440h24-24zm33 0h30-30z" stroke-linejoin="round"/>
  <path fill="#754909" stroke="#000" stroke-width="3" d="M630 1440h9l-4-5-3-6-1 4-1 3v4z" stroke-linejoin="round"/>
  <path fill="#976509" stroke="#000" stroke-width="3" d="M639 1440h16l-1-4v-5l-11-1-11-1 3 6 4 5z" stroke-linejoin="round"/>
  <path fill="#ba8309" stroke="#000" stroke-width="3" d="M655 1440h21l8-10 9-10v-5l-1-1-1-2h-22l-2 2-1 2-6 8-6 7v5l1 4z" stroke-linejoin="round"/>
  <path fill="#e5a22b" stroke="#000" stroke-width="3" d="M676 1440h8l4-10 5-10-9 10-8 10z" stroke-linejoin="round"/>
  <path fill="#754909" stroke="#000" stroke-width="3" d="M684 1440h24l-3-9-2-9-5-3-5-4v5l-5 10-4 10z" stroke-linejoin="round"/>
  <path fill="#522b0a" stroke="#000" stroke-width="3" d="M708 1440h14l-10-9-9-9 2 9 3 9z" stroke-linejoin="round"/>
  <path fill="#291509" stroke="#000" stroke-width="3" d="M722 1440h23l-148-47-147-47 1 2 2 1 21 3 22 2 5 3 6 3 2 2 2 2 35 1h35l9 1 9 1 2 2 2 1 12 2 13 1 8-2 8-3v10l1 10 2 4 2 3 19 2 19 2 2 7 2 6 1 2 1 1 5 4 5 3 9 9 10 9z" stroke-linejoin="round"/>
  <path fill="#522b0a" stroke="#000" stroke-width="3" d="M210 1432l11-6-7-5-7-6-1-4-1-5-8-4-8-4 10 17 11 17zm-77-9l-5 7 2-3 3-4zm497 13l2-7 5-5 5-5 4-1 4-1-13 4-13 4 3 6 3 5z" stroke-linejoin="round"/>
  <path fill="#754909" stroke="#000" stroke-width="3" d="M654 1431l12-15-8 6-7 5-5-4-4-4-5 5-5 5 11 1 11 1z" stroke-linejoin="round"/>
  <path fill="#291509" stroke="#000" stroke-width="3" d="M178 1432l-14-51-1-5v-5l-4-3-3-4h-9l-9 7-8 7h-2l1 19 2 18 8-1 8-1 2 3 3 3 13 7 13 6zm43-6l10-5-14-15-13-16-8 4-7 4 8 4 8 4 1 5 1 4 7 6 7 5zm430 1l1-11-1 1h-1l-4 1-4 1 4 4 5 4z" stroke-linejoin="round"/>
  <path fill="#522b0a" stroke="#000" stroke-width="3" d="M666 1416l3-4-3-1-2-2-6 1h-6v6l-1 6v5l7-5 8-6z" stroke-linejoin="round"/>
  <path fill="#291509" stroke="#000" stroke-width="3" d="M1440 1424v-12 12z" stroke-linejoin="round"/>
  <path fill="#522b0a" stroke="#000" stroke-width="3" d="M577 1412l-15-10 7 5 8 5z" stroke-linejoin="round"/>
  <path fill="#754909" stroke="#000" stroke-width="3" d="M624 1425l26-8h1l1-1v-6l1-6 1-7-3-1-2-1-2-3-2-4-1-10v-10l-8 3-8 2-13-1-12-2-2-1-2-2 5 7 6 7v4l1 4-5 10-5 9-1 1v3l12 7 12 6z" stroke-linejoin="round"/>
  <path fill="#ba8309" stroke="#000" stroke-width="3" d="M152 1424v-5l-3-3-2-3-6 3-6 3 8 3 9 2z" stroke-linejoin="round"/>
  <path fill="#190d06" stroke="#000" stroke-width="3" d="M231 1421l19-7 34-20 35-20 10-14 11-15-68-40-68-40-10 6-10 6-9 11-9 11-1 1-12 18-12 18 6 4 7 3 23 11 24 10 1 13 2 12v1l13 16 14 15z" stroke-linejoin="round"/>
  <path fill="#522b0a" stroke="#000" stroke-width="3" d="M600 1412v-3 3z" stroke-linejoin="round"/>
  <path fill="#754909" stroke="#000" stroke-width="3" d="M131 1420l4-1 6-3 6-3-8 1-8 1v5z" stroke-linejoin="round"/>
  <path fill="#522b0a" stroke="#000" stroke-width="3" d="M501 1419l35-23v-1l-6 3-5 3-21 5-20 5 4 4 4 4h9z" stroke-linejoin="round"/>
  <path fill="#754909" stroke="#000" stroke-width="3" d="M207 1415l-2-9 1 5 1 4z" stroke-linejoin="round"/>
  <path fill="#976509" stroke="#000" stroke-width="3" d="M427 1415l-23-1 11 1h12z" stroke-linejoin="round"/>
  <path fill="#754909" stroke="#000" stroke-width="3" d="M577 1412l7-10-24-3-24-4v1l13 3 13 3 7 5 8 5z" stroke-linejoin="round"/>
  <path fill="#291509" stroke="#000" stroke-width="3" d="M250 1414l48-14 16-5 17-6 41-12 42-12 8-7 8-8-38-2-37-2h-8l-7-1-11 15-10 14-35 20-34 20z" stroke-linejoin="round"/>
  <path fill="#754909" stroke="#000" stroke-width="3" d="M484 1411l41-10-12 1-11 1-17 1h-17l8 4 8 3zm185 1h22l-2-6-2-7-17-1-16-1 5 6 5 6 2 2 3 1z" stroke-linejoin="round"/>
  <path fill="#976509" stroke="#000" stroke-width="3" d="M502 1403l-21-7-7 2-7 2-8 2-7 1 8 1h25l17-1z" stroke-linejoin="round"/>
  <path fill="#ba8309" stroke="#000" stroke-width="3" d="M652 1410l12-1-5-6-5-6-1 7-1 6zm-68-8l17 6 5-9 5-10-1-4v-4l-6-7-5-7-9-1-9-1-26 11-26 10-7-5-7-5-17 10-17 10 10 4 11 3 11-1 12-1 5-3 6-3 24 4 24 3zm-117-2h-17l1 2 1 1 7-1 8-2z" stroke-linejoin="round"/>
  <path fill="#522b0a" stroke="#000" stroke-width="3" d="M687 1399l-38-4 2 1 3 1 16 1 17 1zm-389 1l33-11-17 6-16 5z" stroke-linejoin="round"/>
  <path fill="#e5a22b" stroke="#000" stroke-width="3" d="M507 1360l-11-6 5 3 6 3zm104 29l-1-8v4l1 4z" stroke-linejoin="round"/>
  <path fill="#976509" stroke="#000" stroke-width="3" d="M195 1381l-23 4 11-2 12-2z" stroke-linejoin="round"/>
  <path fill="#291509" stroke="#000" stroke-width="3" d="M201 1364l-2 12v1l2 6 3 6-2-12-1-13z" stroke-linejoin="round"/>
  <path fill="#754909" stroke="#000" stroke-width="3" d="M581 1365l-70-1 2 5 2 4 7 7 7 6 26-10 26-11zm-434-1h9l3 4 4 3 18 3 18 2 1-6 1-6-24-10-23-11-7-3-6-4-4-9-4-9-13 3-12 3 5 10 5 9v7l1 7v3l1 3 5 8 5 7 8-7 9-7z" stroke-linejoin="round"/>
  <path fill="#522b0a" stroke="#000" stroke-width="3" d="M645 1388l-1-20v10l1 10z" stroke-linejoin="round"/>
  <path fill="#291509" stroke="#000" stroke-width="3" d="M1051 1246l2 17-3 8-2 7-6 11-5 11-2 4-2 3 3 11 4 11-13 10-13 9-4 4-3 4h-9v2l-4 2-4 1-18 2-17 1-8 2-7 2-9 4-8 3-11-2-10-3-3 3-2 2-7 3-6 2 83-67 84-67z" stroke-linejoin="round"/>
  <path fill="#ba8309" stroke="#000" stroke-width="3" d="M195 1381l4-4v-1l-18-2-18-3v5l1 5 4 2 4 2 11-2 12-2z" stroke-linejoin="round"/>
  <path fill="#976509" stroke="#000" stroke-width="3" d="M529 1386l-14-13v3l7 5 7 5z" stroke-linejoin="round"/>
  <path fill="#522b0a" stroke="#000" stroke-width="3" d="M897 1375l-11-4v-6l-2 7-1 7v1h1l6-2 7-3z" stroke-linejoin="round"/>
  <path fill="#291509" stroke="#000" stroke-width="3" d="M883 1379l3-14v-5l1-6-20-22-20-22-3-5-2-5h-16l-2 1-2 1v4l4 3 5 3 11 18 12 17v3l14 15 15 14z" stroke-linejoin="round"/>
  <path fill="#522b0a" stroke="#000" stroke-width="3" d="M128 1378h2l-5-7-5-8 3 7 4 6v1l1 1z" stroke-linejoin="round"/>
  <path fill="#754909" stroke="#000" stroke-width="3" d="M897 1375l5-5-8 1h-8l5 2 6 2z" stroke-linejoin="round"/>
  <path fill="#522b0a" stroke="#000" stroke-width="3" d="M628 1373l-25-3 12 2 13 1z" stroke-linejoin="round"/>
  <path fill="#291509" stroke="#000" stroke-width="3" d="M832 1319l-27 18v3l1 3 2 4 3 3-5 2-4 1-5-3-5-4-1 3-1 2-2 7-2 7 23-23 23-23zm-705 57l-7-13-1-3v-3l-1-7v-7l-5-9-5-10h-1l10 26 10 26z" stroke-linejoin="round"/>
  <path fill="#976509" stroke="#000" stroke-width="3" d="M923 1375l-34-14-1-3-1-4-1 6v11h8l8-1 10 3 11 2z" stroke-linejoin="round"/>
  <path fill="#ba8309" stroke="#000" stroke-width="3" d="M923 1375l17-7v-2l-26-2-25-3 17 7 17 7z" stroke-linejoin="round"/>
  <path fill="#522b0a" stroke="#000" stroke-width="3" d="M811 1350l-9 3 4-1 5-2z" stroke-linejoin="round"/>
  <path fill="#e2a115" stroke="#000" stroke-width="3" d="M940 1366l37-16 15-10 15-10 18-26 18-27 5-7 5-7-1-8-1-9-80-25-79-25-3 2-3 1-7 2-6 2-20 2-19 1-35 44-35 44 2-3 2-3 5-4 5-4 1 1 1 1 1 1h1l3 5 4 4 11 13 11 12 6 6 7 6-1-11-1-12v-4l-3-2-3-3 21-14 22-15v11l-6 16-6 15 20 22 20 22 1 4 1 3 25 3 26 2z" stroke-linejoin="round"/>
  <path fill="#976509" stroke="#000" stroke-width="3" d="M940 1368l15-4 7-2 8-3h14l14-1v-2l1-8 2-9-12 6-12 5-19 8-18 8v2z" stroke-linejoin="round"/>
  <path fill="#ba8309" stroke="#000" stroke-width="3" d="M786 1365l4-14-9-9-9-9 7 16 7 16z" stroke-linejoin="round"/>
  <path fill="#522b0a" stroke="#000" stroke-width="3" d="M990 1361l-20-2-8 3-7 2 17-1 18-2z" stroke-linejoin="round"/>
  <path fill="#ba8309" stroke="#000" stroke-width="3" d="M147 1364h9-9z" stroke-linejoin="round"/>
  <path fill="#754909" stroke="#000" stroke-width="3" d="M990 1361l8-3-14 1h-14l10 1 10 1z" stroke-linejoin="round"/>
  <path fill="#ba8309" stroke="#000" stroke-width="3" d="M118 1343l1 14-1-7v-7z" stroke-linejoin="round"/>
  <path fill="#976509" stroke="#000" stroke-width="3" d="M854 1347v3-3z" stroke-linejoin="round"/>
  <path fill="#754909" stroke="#000" stroke-width="3" d="M1007 1356l-4-17h-2l-2 9-1 8h9z" stroke-linejoin="round"/>
  <path fill="#976509" stroke="#000" stroke-width="3" d="M811 1350l-5-7-8-1-8-2 1 3 1 3 5 4 5 3 4-1 5-2z" stroke-linejoin="round"/>
  <path fill="#522b0a" stroke="#000" stroke-width="3" d="M1007 1356l7-8-2-6-2-7-4 2-3 2 2 9 2 8z" stroke-linejoin="round"/>
  <path fill="#e5a22b" stroke="#000" stroke-width="3" d="M892 1196l-6 3 3-1 3-2z" stroke-linejoin="round"/>
  <path fill="#522b0a" stroke="#000" stroke-width="3" d="M355 1346l-2-2-7 1h-6l7 1h8z" stroke-linejoin="round"/>
  <path fill="#ba8309" stroke="#000" stroke-width="3" d="M1001 1339l6-9-15 10-15 10 12-5 12-6z" stroke-linejoin="round"/>
  <path fill="#754909" stroke="#000" stroke-width="3" d="M790 1351l2-5-1-3-1-3-4-4-3-4h-8l-7-1 2 1 2 1 9 9 9 9z" stroke-linejoin="round"/>
  <path fill="#ba8309" stroke="#000" stroke-width="3" d="M806 1343l-1-6-2-4-1-5-5-7-5-8-2 1h-2l-2 7-2 7-1 2v2l3 4 4 4 8 2 8 1z" stroke-linejoin="round"/>
  <path fill="#754909" stroke="#000" stroke-width="3" d="M1040 1329v-8l-5 8-5 7h-10l-10-1 2 7 2 6 13-9 13-10z" stroke-linejoin="round"/>
  <path fill="#291509" stroke="#000" stroke-width="3" d="M340 1345l13-1-35-58-35-59-1 3v2l-35 13-35 12-4 1h-4v7l68 40 68 40z" stroke-linejoin="round"/>
  <path fill="#976509" stroke="#000" stroke-width="3" d="M1030 1336l-23-6-3 5-3 4h2l3-2 4-2 10 1h10z" stroke-linejoin="round"/>
  <path fill="#291509" stroke="#000" stroke-width="3" d="M141 1336l13 7-7-3-6-4z" stroke-linejoin="round"/>
  <path fill="#976509" stroke="#000" stroke-width="3" d="M832 1319l-1-3-4 7-3 6-7-6-6-6-2-1-2-1-3 7-2 6 1 5 2 4 13-9 14-9z" stroke-linejoin="round"/>
  <path fill="#522b0a" stroke="#000" stroke-width="3" d="M87 1323l-8 7 4-3 4-4z" stroke-linejoin="round"/>
  <path fill="#291509" stroke="#000" stroke-width="3" d="M141 1336l24-36h-4l-3-1h-5l-10 7-10 6h-1v3l1 3 4 9 4 9z" stroke-linejoin="round"/>
  <path fill="#ba8309" stroke="#000" stroke-width="3" d="M1030 1336l10-15-4-6-3-7 5-15 5-16-18 27-18 26 11 3 12 3z" stroke-linejoin="round"/>
  <path fill="#522b0a" stroke="#000" stroke-width="3" d="M783 1332l1-4-3-2-2-3-7 3-6 3 1 1 1 1 7 1h8z" stroke-linejoin="round"/>
  <path fill="#754909" stroke="#000" stroke-width="3" d="M79 1330l8-7-4-5-3-6-2 4-2 3 1 6 2 5z" stroke-linejoin="round"/>
  <path fill="#291509" stroke="#000" stroke-width="3" d="M766 1329l13-6-7-11-7-11v14l1 14zm41-14l-11-7-2 3-2 2 5 8 5 7 2-6 3-7z" stroke-linejoin="round"/>
  <path fill="#ba8309" stroke="#000" stroke-width="3" d="M824 1329l7-13v-4l-5-3-4-3 1 12 1 11z" stroke-linejoin="round"/>
  <path fill="#522b0a" stroke="#000" stroke-width="3" d="M1040 1329l-7-22v1l3 7 4 6v8z" stroke-linejoin="round"/>
  <path fill="#976509" stroke="#000" stroke-width="3" d="M784 1328l4-14h2l2-1 2-2 2-3-3-2-2-3-6 1-6 1-6-8-5-9-2 3-2 3v4l1 3 7 11 7 11 2 3 3 2z" stroke-linejoin="round"/>
  <path fill="#ba8309" stroke="#000" stroke-width="3" d="M133 1318l-1-6 2-5 2-5 10-9 10-10 2-1 2-1v-1l10-1 10-1h2l2-1 10-6 10-6v-7l5-5 6-5-2-8-2-8h-9l-5 5-5 5-17 2-17 1-10 8-9 7-22 21-22 21 6 11 6 11h1l12-3 13-3z" stroke-linejoin="round"/>
  <path fill="#522b0a" stroke="#000" stroke-width="3" d="M76 1319l4-7-2 4-2 3z" stroke-linejoin="round"/>
  <path fill="#ba8309" stroke="#000" stroke-width="3" d="M811 1317l-22-25 1 6 1 5 2 3 3 2 5 4 6 3 2 1 2 1z" stroke-linejoin="round"/>
  <path fill="#754909" stroke="#000" stroke-width="3" d="M132 1312h1l10-6 10-7h5l1-9 1-9-2 1-2 1-10 10-10 9-2 5-2 5z" stroke-linejoin="round"/>
  <path fill="#522b0a" stroke="#000" stroke-width="3" d="M133 1312l20-13-10 7-10 6z" stroke-linejoin="round"/>
  <path fill="#e5a22b" stroke="#000" stroke-width="3" d="M136 1302l20-19-10 10-10 9z" stroke-linejoin="round"/>
  <path fill="#976509" stroke="#000" stroke-width="3" d="M847 1310l12-31-3 2-2 1-10 3-9 3 3 6 4 6 2 5 3 5zm186-2v-1l2-3 2-4 5-11 6-11 2-7 3-8-5 7-5 7-5 16-5 15z" stroke-linejoin="round"/>
  <path fill="#522b0a" stroke="#000" stroke-width="3" d="M791 1303l-2-11-4-4-3-5h-1l-1-1-1-1-1-1v13l1 12 6-1 6-1z" stroke-linejoin="round"/>
  <path fill="#754909" stroke="#000" stroke-width="3" d="M779 1305l-1-25-5 4-5 4 5 9 6 8z" stroke-linejoin="round"/>
  <path fill="#291509" stroke="#000" stroke-width="3" d="M782 1283l-2-1 1 1h1zm-687 19l44-42 9-7 10-8 17-1 17-2-49 30-48 30z" stroke-linejoin="round"/>
  <path fill="#754909" stroke="#000" stroke-width="3" d="M822 1302l4-2 4-6 5-6 9-3 10-3 1-6 1-6-20 14-20 13 3 3 3 2z" stroke-linejoin="round"/>
  <path fill="#522b0a" stroke="#000" stroke-width="3" d="M842 1300l-7-12-5 6-4 6h16zm-677 0l1-1 3-8 3-8-6-1-6-2v1l-1 9-1 9 3 1h4zm872 0l11-22-6 11-5 11z" stroke-linejoin="round"/>
  <path fill="#291509" stroke="#000" stroke-width="3" d="M166 1299l18-22-2 1h-2l-4 3-4 2-3 8-3 8z" stroke-linejoin="round"/>
  <path fill="#976509" stroke="#000" stroke-width="3" d="M816 1297l40-27 1-1 2-1-22 15-21 14z" stroke-linejoin="round"/>
  <path fill="#754909" stroke="#000" stroke-width="3" d="M42 1283l-4 1-5-3-4-4 6 3 7 3z" stroke-linejoin="round"/>
  <path fill="#522b0a" stroke="#000" stroke-width="3" d="M305 1271l-7 10 3-5 4-5z" stroke-linejoin="round"/>
  <path fill="#ba8309" stroke="#000" stroke-width="3" d="M38 1284l4-8 2-1 2-1-11-8-10-8 2 10 2 9 4 4 5 3z" stroke-linejoin="round"/>
  <path fill="#754909" stroke="#000" stroke-width="3" d="M305 1271l-7 10 3-5 4-5z" stroke-linejoin="round"/>
  <path fill="#e5a22b" stroke="#000" stroke-width="3" d="M38 1284l4-1v-7l-2 4-2 4z" stroke-linejoin="round"/>
  <path fill="#754909" stroke="#000" stroke-width="3" d="M172 1283l8-5-10 1-10 1 6 2 6 1z" stroke-linejoin="round"/>
  <path fill="#291509" stroke="#000" stroke-width="3" d="M854 1282l5-3v-11l-2 1-1 1-1 6-1 6z" stroke-linejoin="round"/>
  <path fill="#754909" stroke="#000" stroke-width="3" d="M46 1274l-8-28-7 6-6 6 10 8 11 8z" stroke-linejoin="round"/>
  <path fill="#522b0a" stroke="#000" stroke-width="3" d="M282 1232l-43 11-14-5-14-6 2 8 2 8-2 5-1 4 35-12 35-13z" stroke-linejoin="round"/>
  <path fill="#754909" stroke="#000" stroke-width="3" d="M139 1260l19-15-10 8-9 7z" stroke-linejoin="round"/>
  <path fill="#522b0a" stroke="#000" stroke-width="3" d="M25 1258l13-12-7 6-6 6z" stroke-linejoin="round"/>
  <path fill="#754909" stroke="#000" stroke-width="3" d="M204 1258l8-1 1-4 2-5-6 5-5 5zm78-26l1-5v-1l-22 9-22 8 21-5 22-6z" stroke-linejoin="round"/>
  <path fill="#291509" stroke="#000" stroke-width="3" d="M239 1243l44-17-41 3-40 3h9l14 6 14 5zm634-40l-39 3 19-1 20-2zm567-172v-5 5zm0-14v-18 18zM0 947v50-50z" stroke-linejoin="round"/>
  <path fill="#522b0a" stroke="#000" stroke-width="3" d="M1410 988l-15-11 7 6 8 5z" stroke-linejoin="round"/>
  <path fill="#754909" stroke="#000" stroke-width="3" d="M1410 988l-15-11 7 6 8 5z" stroke-linejoin="round"/>
  <path fill="#522b0a" stroke="#000" stroke-width="3" d="M156 958zM0 960v15-15z" stroke-linejoin="round"/>
  <path fill="#291509" stroke="#000" stroke-width="3" d="M1076 934l-19 15-10 8-9 8 19-15 19-16z" stroke-linejoin="round"/>
  <path fill="#754909" stroke="#000" stroke-width="3" d="M105 959l2-11-1 6-1 5z" stroke-linejoin="round"/>
  <path fill="#e2a115" stroke="#000" stroke-width="3" d="M1038 965v-3l25-22 25-22 4-7 5-7-47 3-46 2 17 28 17 28z" stroke-linejoin="round"/>
  <path fill="#754909" stroke="#000" stroke-width="3" d="M1038 965l19-16-10 7-9 6v3z" stroke-linejoin="round"/>
  <path fill="#ba8309" stroke="#000" stroke-width="3" d="M1038 962l19-13 9-7 10-8h2l2-1 4-7 4-8-25 22-25 22z" stroke-linejoin="round"/>
  <path fill="#291509" stroke="#000" stroke-width="3" d="M107 948l-2 11 1-5 1-6zm973-15l53-72-18 22-18 21-5 7-4 7-4 8-4 7zm-634-75l21-30 22-30h-3l-31 28-30 28-7 2-7 2v-1l7-1 7-2-19-10-19-10-4-1-3-2 33 14 33 13zm994 56v-9 9z" stroke-linejoin="round"/>
  <path fill="#ba8309" stroke="#000" stroke-width="3" d="M1004 909l93-5 18-21 18-22 3-6 4-7-49-24-48-25-5 4-4 3-15 52-15 51z" stroke-linejoin="round"/>
  <path fill="#190d06" stroke="#000" stroke-width="3" d="M411 858v-1 1z" stroke-linejoin="round"/>
  <path fill="#291509" stroke="#000" stroke-width="3" d="M358 748l-89-34 1 7 2 7-2-7-1-7-26 1-25 1v2l-109 50L0 817v16l19 6 20 6 159-48 160-49z" stroke-linejoin="round"/>
  <path fill="#522b0a" stroke="#000" stroke-width="3" d="M411 857v1l7-2 7-2-7 2-7 1z" stroke-linejoin="round"/>
  <path fill="#291509" stroke="#000" stroke-width="3" d="M1206 744l-19 31-6 6-5 5-6 7-5 6-5 15-5 14-7 10-6 10 32-52 32-52z" stroke-linejoin="round"/>
  <path fill="#522b0a" stroke="#000" stroke-width="3" d="M425 854l61-56-17 4-16 3-11 1-10 1-23 14-22 13 19 10 19 10z" stroke-linejoin="round"/>
  <path fill="#976509" stroke="#000" stroke-width="3" d="M1140 848h2l6-10 7-10 5-14 5-15 5-6 6-7 4-9 5-9v-2l-13-2-13-2-37 3-36 2-1-1-1-1-5 7-5 7-2 1-1 1-5 7-5 6-9 3-9 2 48 25 49 24z" stroke-linejoin="round"/>
  <path fill="#291509" stroke="#000" stroke-width="3" d="M1009 714l-20-46h-1l-41-27-41-28 2 7 3 6 12 14 12 14 10 9 10 8-13 18-13 17-13-6-12-6-6 2-6 2-4-2-3-2-61-6-61-7-5-1-5-1-1-2v-2l-3 1h-3l-15-2-14-3-4-7-3-7-8-5-7-5-31-80-30-80h-7l-10 22-9 22-63-12-63-13-1 2v32l2 24 2 24h2l2 10 3 10-1 1-2 13-1 12v1l1 1 1 1 62 17 63 16 197 22 197 22z" stroke-linejoin="round"/>
  <path fill="#754909" stroke="#000" stroke-width="3" d="M387 834l45-27 7-4 7-5 3 4 4 3 16-3 17-4h3v-9l-3-2-2-3v-2l1-3 2-23 3-23 1-23 1-24-1-11-1-11-1-14-1-15v-1l-1-23v-23h-2l1 44 2 44-2 15-1 15v11l-51 24-51 24-2 26-2 25v8l1 7 3 2 4 1z" stroke-linejoin="round"/>
  <path fill="#522b0a" stroke="#000" stroke-width="3" d="M218 718L0 786v31l109-49 109-50z" stroke-linejoin="round"/>
  <path fill="#754909" stroke="#000" stroke-width="3" d="M1155 828l10-29-5 15-5 14z" stroke-linejoin="round"/>
  <path fill="#ba8309" stroke="#000" stroke-width="3" d="M383 765l102-48v-11l1-15 2-15-2-44-1-44-2-24-2-24-3-7-2-8-238-35L0 455v244l40-1 41-2h43l21 12 21 12 22-31 22-32-1-2v-2l1-19 1-20-1-8-1-8 1-23 2-23 12-6 12-7 4-8 4-9h2l2-1h11l8 2 8 2 24 18 24 17h10l10-1v1l1 1 5 5 6 5 5 21 6 20 3 42 3 42 1 20 2 19v14l1 13v39l1 8 2 7 2-25 2-26z" stroke-linejoin="round"/>
  <path fill="#291509" stroke="#000" stroke-width="3" d="M453 805l-7-7-7 5-7 4 10-1 11-1z" stroke-linejoin="round"/>
  <path fill="#754909" stroke="#000" stroke-width="3" d="M218 718v-2l78 10 79 9-2-19-1-20-14-23-14-23-8-19-7-19h-3l-3-2-2-2 4 2 4 2h37l-6-20-5-21-6 1h-6l-4 2-3 2-7-8-6-8-24-17-24-18-9-1-9-1-7 1h-7l-4 8-3 7-12 7-12 6-2 23-1 23 1 8 1 8-1 20-1 19v2l1 2-22 32-22 31-83 2-83 1v7l6 1h6l-6 4-6 4v14l5 1 6 1-6 2-5 2v27l109-34 109-34z" stroke-linejoin="round"/>
  <path fill="#522b0a" stroke="#000" stroke-width="3" d="M432 807l14-9-7 5-7 4z" stroke-linejoin="round"/>
  <path fill="#754909" stroke="#000" stroke-width="3" d="M1034 806l9-7 9-2 9-3-12 3-11 2-2 4-2 3z" stroke-linejoin="round"/>
  <path fill="#291509" stroke="#000" stroke-width="3" d="M376 801v-39l-9-7-8-7 8 27 9 26z" stroke-linejoin="round"/>
  <path fill="#754909" stroke="#000" stroke-width="3" d="M1159 762l-9 9-22 8-22 7-10-9-10-10 36-2 37-3z" stroke-linejoin="round"/>
  <path fill="#522b0a" stroke="#000" stroke-width="3" d="M1038 799l23-5 5-6 5-7-9 3-8 2-8 7-8 6zm112-28l-44 15 22-7 22-8z" stroke-linejoin="round"/>
  <path fill="#291509" stroke="#000" stroke-width="3" d="M489 789l1-56-3 23-2 23-1 3v2l2 3 3 2zm582-8l3-2-8-14-7-14-3 18-2 17 8-2 9-3z" stroke-linejoin="round"/>
  <path fill="#522b0a" stroke="#000" stroke-width="3" d="M484 784l1-5-1 3v2zm622 2l13-48-11 4-11 4-7 10-6 9 1 1 1 1 10 10 10 9z" stroke-linejoin="round"/>
  <path fill="#291509" stroke="#000" stroke-width="3" d="M1150 771l-5-6h1l6-3 6-3 9-8 10-9 6-6 7-6 4-2 4-3 1-3 2-4 3-8 4-8 5-4 5-5 9-5 9-5 1 14 2 14-54-25-54-25-1 7-1 7 1 16 1 15-6 16-6 16-7 24-6 24 22-7 22-8z" stroke-linejoin="round"/>
  <path fill="#754909" stroke="#000" stroke-width="3" d="M1176 786l11-11 1-22 2-23-7 6-6 6-10 9-9 8v2l1 1 13 2 13 2v2l-5 9-4 9z" stroke-linejoin="round"/>
  <path fill="#291509" stroke="#000" stroke-width="3" d="M1440 766v-3 3z" stroke-linejoin="round"/>
  <path fill="#754909" stroke="#000" stroke-width="3" d="M1074 779l10-14 6-9 7-10-3-1-3-1h-22l-5 2-5 2v3l7 14 8 14z" stroke-linejoin="round"/>
  <path fill="#190d06" stroke="#000" stroke-width="3" d="M1145 765h1-1z" stroke-linejoin="round"/>
  <path fill="#976509" stroke="#000" stroke-width="3" d="M485 717l-102 48 51-24 51-24z" stroke-linejoin="round"/>
  <path fill="#522b0a" stroke="#000" stroke-width="3" d="M1187 775l19-31 11-12 12-12-16 3-15 2-4 3-4 2-2 23-1 22z" stroke-linejoin="round"/>
  <path fill="#ba8309" stroke="#000" stroke-width="3" d="M1185 768v-2 2z" stroke-linejoin="round"/>
  <path fill="#522b0a" stroke="#000" stroke-width="3" d="M11 755l-6-1-5-1v6l5-2 6-2zm1139 16l9-9-1-1v-2l-6 3-6 3h-1l2 3 3 3zm-774-9l-1-27-79-9-78-10 25-1 26-1 44 17 45 17h1l8 7 9 7z" stroke-linejoin="round"/>
  <path fill="#976509" stroke="#000" stroke-width="3" d="M1090 744h-21 21z" stroke-linejoin="round"/>
  <path fill="#291509" stroke="#000" stroke-width="3" d="M1059 751v-3l-11-3-10-4-8-3-7-4 18 9 18 8z" stroke-linejoin="round"/>
  <path fill="#976509" stroke="#000" stroke-width="3" d="M1059 748l10-4-16-1-15-2 10 4 11 3z" stroke-linejoin="round"/>
  <path fill="#ba8309" stroke="#000" stroke-width="3" d="M1090 744h1l-12-21-11-21-5-2-4-2-3 2-2 1-5 1-5 1h-1l-1-1-7-3-6-3-13 2-12 2 3 7 4 6 6 11 6 10 7 4 8 3 15 2 16 1h21z" stroke-linejoin="round"/>
  <path fill="#976509" stroke="#000" stroke-width="3" d="M1097 746l33-30h-1l-1-1-2-27-1-27 4-13 5-14-18 24-18 24-15 10-15 10 11 21 12 21 3 1 3 1z" stroke-linejoin="round"/>
  <path fill="#754909" stroke="#000" stroke-width="3" d="M1097 746l22-8 5-11 6-11-17 15-16 15z" stroke-linejoin="round"/>
  <path fill="#522b0a" stroke="#000" stroke-width="3" d="M1190 730l-13 12 6-6 7-6z" stroke-linejoin="round"/>
  <path fill="#291509" stroke="#000" stroke-width="3" d="M1206 744l26-24h-3l-12 12-11 12z" stroke-linejoin="round"/>
  <path fill="#976509" stroke="#000" stroke-width="3" d="M166 720l-42-24H81l-41 2-40 1v24l83-1 83-2z" stroke-linejoin="round"/>
  <path fill="#e2a115" stroke="#000" stroke-width="3" d="M1044 703l-2-1 1 1h1z" stroke-linejoin="round"/>
  <path fill="#754909" stroke="#000" stroke-width="3" d="M1229 720h3l3-4 4-5-2-14-1-14-9 17-9 16v-23l-5 5-5 4-4 8-3 8-2 4-1 3 15-2 16-3z" stroke-linejoin="round"/>
  <path fill="#522b0a" stroke="#000" stroke-width="3" d="M1131 706l-3 9 1 1h1l-6 11-5 11 6-16 6-16z" stroke-linejoin="round"/>
  <path fill="#976509" stroke="#000" stroke-width="3" d="M12 731l-12-1v9l6-4 6-4z" stroke-linejoin="round"/>
  <path fill="#190d06" stroke="#000" stroke-width="3" d="M272 728l-3-14 1 7 2 7z" stroke-linejoin="round"/>
  <path fill="#976509" stroke="#000" stroke-width="3" d="M210 657l-44 63 22-31 22-32zm1008 59l9-16 9-17-9 5-9 5v23z" stroke-linejoin="round"/>
  <path fill="#754909" stroke="#000" stroke-width="3" d="M929 706l-3-8 1-6 1-6 13-7 14-8-10-8-10-9-12-14-12-14-3-6-2-7-2-2-1-2-2 1h-2l-3 16-3 16 5 26 6 26 12 6 13 6z" stroke-linejoin="round"/>
  <path fill="#522b0a" stroke="#000" stroke-width="3" d="M1201 718l7-16-4 8-3 8z" stroke-linejoin="round"/>
  <path fill="#754909" stroke="#000" stroke-width="3" d="M1128 715l3-9-1-15-1-16-2-7-2-7 1 27 2 27z" stroke-linejoin="round"/>
  <path fill="#522b0a" stroke="#000" stroke-width="3" d="M955 671l-27 15-1 6-1 6 1 4 2 4 13-17 13-18z" stroke-linejoin="round"/>
  <path fill="#754909" stroke="#000" stroke-width="3" d="M1009 714l2-1-4-6-3-7 12-2 13-2 6 3 7 3 1 1h1l5-1 5-1 2-1 3-2 4 2 5 2 15-10 15-10-9-6-9-7-3 1h-2l-7 5-6 5-16 3-15 3 2-5 3-5-13-3-13-3h-3l-3-1h-8l-7-1 10 23 10 23z" stroke-linejoin="round"/>
  <path fill="#522b0a" stroke="#000" stroke-width="3" d="M904 694l-11-52-4-2-4-2-14 4-13 3-3 4-2 3-16 3-15 2-4-3-3-4-24 2-24 2h-1l-25 9-24 8 14 3 15 2h3l3-1v2l1 2 5 1 5 1 61 7 61 6 3 2 4 2 6-2 6-2z" stroke-linejoin="round"/>
  <path fill="#976509" stroke="#000" stroke-width="3" d="M485 706l3-30-2 15-1 15z" stroke-linejoin="round"/>
  <path fill="#522b0a" stroke="#000" stroke-width="3" d="M1054 701l5-3-3 2-2 1z" stroke-linejoin="round"/>
  <path fill="#976509" stroke="#000" stroke-width="3" d="M1004 700l25-4-13 2-12 2z" stroke-linejoin="round"/>
  <path fill="#754909" stroke="#000" stroke-width="3" d="M892 698l-7-4 3 2 4 2z" stroke-linejoin="round"/>
  <path fill="#291509" stroke="#000" stroke-width="3" d="M926 698l2-12-1 6-1 6z" stroke-linejoin="round"/>
  <path fill="#976509" stroke="#000" stroke-width="3" d="M372 696l-6-84h-37l7 19 8 19 14 23 14 23z" stroke-linejoin="round"/>
  <path fill="#754909" stroke="#000" stroke-width="3" d="M763 681l-10-2 5 1 5 1z" stroke-linejoin="round"/>
  <path fill="#976509" stroke="#000" stroke-width="3" d="M1062 680l-26-4-3 5-2 5 15-3 16-3z" stroke-linejoin="round"/>
  <path fill="#ba8309" stroke="#000" stroke-width="3" d="M1134 634l7-21-1-8v-9l1-18 2-18-5-10-4-10h-17l-17-1v-2l-3-3-2-3h-3l-2-1-5 2-5 1-4-8-3-9 14 1h34l3-1 4-1-8-27-8-28h-18l-17-1-11-1-10-1h-45l-8-2-8-2-8 3-8 3-8 14-8 14 1 12 2 11 13 1 13 1 2 1h3l-2 12-2 11v-3l-1-1-1-1h-9l-9-1-4 2-4 1-1 32v31l33 36 34 35 24 1 25 1 9 7 9 6 18-24 18-24z" stroke-linejoin="round"/>
  <path fill="#291509" stroke="#000" stroke-width="3" d="M492 686v-29l-1 4-1 3 1 11 1 11z" stroke-linejoin="round"/>
  <path fill="#976509" stroke="#000" stroke-width="3" d="M1004 669l-15-3-1 1v1h1l7 1h8zm94 13l-18-13 9 7 9 6z" stroke-linejoin="round"/>
  <path fill="#522b0a" stroke="#000" stroke-width="3" d="M1036 676l26 4 6-5 7-5-23-1-23-2h-1v-1l-9 2-9 2 13 3 13 3z" stroke-linejoin="round"/>
  <path fill="#754909" stroke="#000" stroke-width="3" d="M815 650l-48 4 24-2 24-2zm-63 25l-6 1h3l3-1z" stroke-linejoin="round"/>
  <path fill="#190d06" stroke="#000" stroke-width="3" d="M988 668l1-2-8-18-7-18-5-17-5-17v-31l1-32v-11l1-12-2-11-1-12 8-14 8-14 8-3 8-3 2-1 3-1 17-3 18-4 6 3 7 2 4 4 4 4 10 1 11 1 3-4 3-5h-1l-2-21-1-21-78 11-77 10h-1l-10 90-10 90 1 2 2 2 41 28 41 27z" stroke-linejoin="round"/>
  <path fill="#522b0a" stroke="#000" stroke-width="3" d="M1129 675l2-14v-2l-1-4v-5l-3 6-2 5 2 7 2 7z" stroke-linejoin="round"/>
  <path fill="#976509" stroke="#000" stroke-width="3" d="M1075 670l5-1-25-1-24-1h-2l23 2 23 1z" stroke-linejoin="round"/>
  <path fill="#754909" stroke="#000" stroke-width="3" d="M766 654l-61-16 2 10 3 9 3 7 4 7 24-8 25-9z" stroke-linejoin="round"/>
  <path fill="#ba8309" stroke="#000" stroke-width="3" d="M1004 669l6 1 9-2 9-2-27-18-27-18 7 18 8 18 7 2 8 1z" stroke-linejoin="round"/>
  <path fill="#754909" stroke="#000" stroke-width="3" d="M853 652l-31 5 15-2 16-3z" stroke-linejoin="round"/>
  <path fill="#e2a115" stroke="#000" stroke-width="3" d="M1029 667h2l-34-35-33-36 5 17 5 17 27 18 27 18v1h1z" stroke-linejoin="round"/>
  <path fill="#522b0a" stroke="#000" stroke-width="3" d="M490 664l2-7v-1l1-1-1-8-1-9h-1v-1l-1-1-1-1 1 15 1 14z" stroke-linejoin="round"/>
  <path fill="#754909" stroke="#000" stroke-width="3" d="M1125 661l5-11 2-4 2-4 5-8 5-8-2-6-1-7-4 11-3 10-5 14-4 13z" stroke-linejoin="round"/>
  <path fill="#291509" stroke="#000" stroke-width="3" d="M1131 659l15-30-6 7-6 6-2 4-2 4v5l1 4z" stroke-linejoin="round"/>
  <path fill="#522b0a" stroke="#000" stroke-width="3" d="M710 657l-5-19-5 5-5 4 7 5 8 5z" stroke-linejoin="round"/>
  <path fill="#ba8309" stroke="#000" stroke-width="3" d="M822 657l31-5 2-3 3-4 13-3 14-4 4 2 4 2 3-16 3-16-1-1-1-1-62-14-62-15h-2l-33 30-33 29 30 8 31 8h1l24-2 24-2 3 4 4 3z" stroke-linejoin="round"/>
  <path fill="#e5a22b" stroke="#000" stroke-width="3" d="M476 525l5-15v-2l1-2-1-6v-6l221-56 222-56 4 4 5 3h2l3-1-1-7v-7l115-3 116-3 11-12 12-12-3-14-2-14-6-6-6-6-17 20-17 19-19-4-18-4-2-3-1-3v-4l1-4-17-12-16-13 32-4 32-4 1-1 2-2 8-5 9-5h10l11-1h41l19 12 19 12 27 16 28 15 5 5 6 5 2 1 2 1 12 7 12 7 5 2 5 1 42-12 42-13V0H0v455l238 35 238 35z" stroke-linejoin="round"/>
  <path fill="#291509" stroke="#000" stroke-width="3" d="M493 655l-2-17 1 9 1 8z" stroke-linejoin="round"/>
  <path fill="#522b0a" stroke="#000" stroke-width="3" d="M695 647l76-68h2l53-2 54-3 1-46 1-46-82 14-81 14-43-11-42-12 30 80 31 80z" stroke-linejoin="round"/>
  <path fill="#754909" stroke="#000" stroke-width="3" d="M885 638l-27 7 13-3 14-4z" stroke-linejoin="round"/>
  <path fill="#522b0a" stroke="#000" stroke-width="3" d="M935 654l-24-28 12 14 12 14z" stroke-linejoin="round"/>
  <path fill="#976509" stroke="#000" stroke-width="3" d="M209 653l2-39-1 20-1 19z" stroke-linejoin="round"/>
  <path fill="#522b0a" stroke="#000" stroke-width="3" d="M296 640l-2-1 1 1h1z" stroke-linejoin="round"/>
  <path fill="#976509" stroke="#000" stroke-width="3" d="M0 638v5-5z" stroke-linejoin="round"/>
  <path fill="#291509" stroke="#000" stroke-width="3" d="M1440 637v-4l-5-1-4-2 4 4 5 3z" stroke-linejoin="round"/>
  <path fill="#754909" stroke="#000" stroke-width="3" d="M695 647l10-9 33-29 33-30-38 34-38 34z" stroke-linejoin="round"/>
  <path fill="#291509" stroke="#000" stroke-width="3" d="M308 644l-10-11-2 3-2 3 1 1h1l6 2 6 2z" stroke-linejoin="round"/>
  <path fill="#522b0a" stroke="#000" stroke-width="3" d="M317 632l-5-5-7 3-7 3 5 6 5 5 4-6 5-6zm817 10l12-13-1-1-1-2-5 8-5 8z" stroke-linejoin="round"/>
  <path fill="#291509" stroke="#000" stroke-width="3" d="M317 632l-5-5 2 3 3 2z" stroke-linejoin="round"/>
  <path fill="#190d06" stroke="#000" stroke-width="3" d="M1440 633v-15l-5 6-4 6 4 2 5 1z" stroke-linejoin="round"/>
  <path fill="#522b0a" stroke="#000" stroke-width="3" d="M488 634l3-25 1-1-3-10-2-10v23l1 23z" stroke-linejoin="round"/>
  <path fill="#291509" stroke="#000" stroke-width="3" d="M1431 630l9-12V508l-8-6-8-6-5 8-4 8-4 5-4 5-1 1h-1v1l1 1 3 4 3 4-7 6-7 5-12-3-12-4-11-3-11-3-4-7-4-8 1-13 2-13-6-8-5-9-1-1-1-1 48 80 49 79z" stroke-linejoin="round"/>
  <path fill="#754909" stroke="#000" stroke-width="3" d="M897 608l-17-34-54 3-53 2 62 15 62 14z" stroke-linejoin="round"/>
  <path fill="#190d06" stroke="#000" stroke-width="3" d="M492 608l-1 1 1-1zm948 4v-9 9z" stroke-linejoin="round"/>
  <path fill="#976509" stroke="#000" stroke-width="3" d="M326 612h3l-4-2-4-2 2 2 3 2z" stroke-linejoin="round"/>
  <path fill="#291509" stroke="#000" stroke-width="3" d="M899 610l4-1 10-90 10-90-6 2-6 2h-1l-5 9-4 9-10 16-9 15-1 46-1 46 8 17 9 17 1 1 1 1z" stroke-linejoin="round"/>
  <path fill="#976509" stroke="#000" stroke-width="3" d="M209 598l3-46-2 23-1 23zm127-22l7-4h6l6-1-6-5-5-5-1-1v-1l-10 1h-10l6 8 7 8z" stroke-linejoin="round"/>
  <path fill="#291509" stroke="#000" stroke-width="3" d="M1140 596l10-82-4 3-4 2-8 1h-8l-3-1-2-2h-20l1 2 2 2 8 5 9 4 11 15 11 15-2 18-1 18zm-864-14l-9 6 4-3 5-3zm-11 6l23-21h-9l-4 3-4 3-3 8-3 7z" stroke-linejoin="round"/>
  <path fill="#522b0a" stroke="#000" stroke-width="3" d="M265 588h2l4-3 5-3 6-7 6-8-12 11-11 10z" stroke-linejoin="round"/>
  <path fill="#ba8309" stroke="#000" stroke-width="3" d="M336 576l7-4-4 2-3 2z" stroke-linejoin="round"/>
  <path fill="#522b0a" stroke="#000" stroke-width="3" d="M279 567l-8 6 4-3 4-3z" stroke-linejoin="round"/>
  <path fill="#754909" stroke="#000" stroke-width="3" d="M343 559l1 2-1-1v-1z" stroke-linejoin="round"/>
  <path fill="#522b0a" stroke="#000" stroke-width="3" d="M1412 533l-9 7-3 2-2 2 7-5 7-6z" stroke-linejoin="round"/>
  <path fill="#754909" stroke="#000" stroke-width="3" d="M1143 560l-22-30-11 4-10 3v2l17 1h17l4 10 5 10z" stroke-linejoin="round"/>
  <path fill="#522b0a" stroke="#000" stroke-width="3" d="M627 487l-19 44 9-22 10-22zm771 57l-24-7 12 4 12 3z" stroke-linejoin="round"/>
  <path fill="#754909" stroke="#000" stroke-width="3" d="M882 482l19-31 4-9 5-9h1l6-2 6-2h1l-1-9-1-9 7-2 7-3 4-7 5-8 10-7 11-7 3 1h4l22 3 22 2h2l3-1 7-5 7-6 32 8 33 7 21 6 21 6 15-11 15-11v-8h-5l-116 3-115 3v7l1 7-3 1h-2l-5-3-4-4-222 56-221 56 34-18 35-19 29 37 29 37 9-22 10-22h7l42 12 43 11 81-14 82-14z" stroke-linejoin="round"/>
  <path fill="#976509" stroke="#000" stroke-width="3" d="M1134 540l-34-1 17 1h17z" stroke-linejoin="round"/>
  <path fill="#754909" stroke="#000" stroke-width="3" d="M1412 533l-6-8-2 8-1 7 4-3 5-4z" stroke-linejoin="round"/>
  <path fill="#976509" stroke="#000" stroke-width="3" d="M997 513v1l7 10 8 9-10 2-9 1 2-11 2-12z" stroke-linejoin="round"/>
  <path fill="#754909" stroke="#000" stroke-width="3" d="M1398 544l5-4-16-7-16-7-9-19-8-20-4 2-3 1-2 13-1 13 4 8 4 7 11 3 11 3 12 4 12 3z" stroke-linejoin="round"/>
  <path fill="#976509" stroke="#000" stroke-width="3" d="M275 525l-16-4-2 1-1 1h1l9 1 9 1zm1131 0l-1-2-13-28-12-28-7-6-6-7-1 1v1l-1 16-1 15 3 20 4 19 16 7 16 7 1-7 2-8z" stroke-linejoin="round"/>
  <path fill="#754909" stroke="#000" stroke-width="3" d="M481 540v-30l-3 8-2 7 2 8 3 7z" stroke-linejoin="round"/>
  <path fill="#976509" stroke="#000" stroke-width="3" d="M236 539l7-15v-1l1-1-4 9-4 8z" stroke-linejoin="round"/>
  <path fill="#190d06" stroke="#000" stroke-width="3" d="M1100 537l21-7-9-4-8-5-5 5-4 5 2 3 3 3z" stroke-linejoin="round"/>
  <path fill="#291509" stroke="#000" stroke-width="3" d="M993 536l19-3-8-9-7-10v-1h-3l-2-1-2 5-1 5 2 6 2 5v3z" stroke-linejoin="round"/>
  <path fill="#976509" stroke="#000" stroke-width="3" d="M1080 533h-11l2-8 2-9 3 9 4 8z" stroke-linejoin="round"/>
  <path fill="#754909" stroke="#000" stroke-width="3" d="M1080 533l10-3-11 2-10 1h11z" stroke-linejoin="round"/>
  <path fill="#ba8309" stroke="#000" stroke-width="3" d="M1371 526l-7-39-1-1-1-1h-8v2l8 20 9 19z" stroke-linejoin="round"/>
  <path fill="#190d06" stroke="#000" stroke-width="3" d="M989 522v4l1 3 1 2 1 1 1 1-2-5-2-6z" stroke-linejoin="round"/>
  <path fill="#522b0a" stroke="#000" stroke-width="3" d="M1352 531l-8-15 4 8 4 7zm-387 2l8-3 8-2 8-2v-4l1-5 2-5-13-1-13-1-1 12v11z" stroke-linejoin="round"/>
  <path fill="#754909" stroke="#000" stroke-width="3" d="M1012 533l-15-19 7 10 8 9zm57 0l32-16h-14l-14-1-2 9-2 8z" stroke-linejoin="round"/>
  <path fill="#522b0a" stroke="#000" stroke-width="3" d="M1069 533l21-3 2 1h3l4-5 5-5-2-2-1-2-16 8-16 8z" stroke-linejoin="round"/>
  <path fill="#976509" stroke="#000" stroke-width="3" d="M991 531l-2-5-8 2-8 2 9 1h9z" stroke-linejoin="round"/>
  <path fill="#522b0a" stroke="#000" stroke-width="3" d="M608 531l-58-74-35 19-34 18v6l1 6 63 13 63 12zm-351-8h-1l-4-1-4-1-2 1h-2l-1 1v1h7l7-1zm885-4l-16 1h8l8-1z" stroke-linejoin="round"/>
  <path fill="#754909" stroke="#000" stroke-width="3" d="M256 523l3-2h-11l4 1 4 1z" stroke-linejoin="round"/>
  <path fill="#ba8309" stroke="#000" stroke-width="3" d="M1405 523l2-1v-2l1-2 1-7 2-7-1-3v-3l-2-5-2-5-1-1v-2l-7-5-7-6-6-3-5-4 12 28 13 28z" stroke-linejoin="round"/>
  <path fill="#522b0a" stroke="#000" stroke-width="3" d="M1415 512l-7 6-1 2v2l4-5 4-5z" stroke-linejoin="round"/>
  <path fill="#754909" stroke="#000" stroke-width="3" d="M1126 520l16-1 4-2 4-3-1-2v-3l1-10 1-11-6-6-5-7-18-12-17-13-6-2-5-2-6 2-5 2-3 5-3 4 17 1h18l8 28 8 27-4 1-3 1 2 2 3 1z" stroke-linejoin="round"/>
  <path fill="#976509" stroke="#000" stroke-width="3" d="M1112 460l16 55-8-27-8-28z" stroke-linejoin="round"/>
  <path fill="#754909" stroke="#000" stroke-width="3" d="M1408 518l7-6 4-8 5-8-7 4-6 4-2 7-1 7z" stroke-linejoin="round"/>
  <path fill="#522b0a" stroke="#000" stroke-width="3" d="M1149 509l5-11-2-5-1-5-1 11-1 10zm291-1v-33l-24-27-23-27v29l4 10 4 9 2 8 2 8v2l1 1 2 5 2 5v3l1 3 6-4 7-4 8 6 8 6z" stroke-linejoin="round"/>
  <path fill="#976509" stroke="#000" stroke-width="3" d="M1410 498l-4-10 2 5 2 5z" stroke-linejoin="round"/>
  <path fill="#291509" stroke="#000" stroke-width="3" d="M1313 464l-34-25-2-17-2-17 1-1 1-1-6-7-5-8-7-2-6-3h-1v-1l-4-21-4-22h-4l-4 8-3 7 1 2 2 1-5 9-4 8-6-5-6-5 1-5 1-5-17 2-17 2-1 4-1 4-4 5-4 5-15 11-15 11-21-6-21-6-33-7-32-8-7 6-7 5-3 1h-2l-22-2-22-3h-4l-3-1-11 7-10 7-5 8-4 7-7 3-7 2 1 9 1 9 77-10 78-11 1 21 2 21 6-2 6-2 5 2 6 2 104 7 104 7zm-159 34l-14-23 5 7 6 6 1 5 2 5z" stroke-linejoin="round"/>
  <path fill="#e2a115" stroke="#000" stroke-width="3" d="M0 478v11-11z" stroke-linejoin="round"/>
  <path fill="#522b0a" stroke="#000" stroke-width="3" d="M1347 490l7-3v-2h-2l-2-1-7-5-7-6 5 9 6 8z" stroke-linejoin="round"/>
  <path fill="#291509" stroke="#000" stroke-width="3" d="M963 487l16-28-8 14-8 14z" stroke-linejoin="round"/>
  <path fill="#754909" stroke="#000" stroke-width="3" d="M1366 456l-30 17 7 6 7 5 6 1h6l1 1 1 1 1-15 1-16zm74 19V333l-42 13-42 12-4 13-4 13-8 6-7 6-1 1v1l7 19 8 18 10 8 11 8-1 2v1l6 7 7 6 5 4 6 3 5-2 5-3-4-9-4-10-1-3v-4l-10-9-10-9h-1v-1l2-6 2-6 4-3 5-4h1l4 8 4 8 23 27 24 27z" stroke-linejoin="round"/>
  <path fill="#976509" stroke="#000" stroke-width="3" d="M1405 485l-4-16-5 3-5 2 7 6 7 5zm-55-1l4 1h8-6l-6-1z" stroke-linejoin="round"/>
  <path fill="#522b0a" stroke="#000" stroke-width="3" d="M882 482l19-31-10 16-9 15z" stroke-linejoin="round"/>
  <path fill="#754909" stroke="#000" stroke-width="3" d="M1216 447l10-22-3-8-3-8h-4l-3-1 1 20 2 19z" stroke-linejoin="round"/>
  <path fill="#522b0a" stroke="#000" stroke-width="3" d="M1366 456l1-2v-1l1-2-11-8-10-8-1 1-1 1-10 10-10 9 4 7 4 6v1l1 1 1 1 1 1 15-8 15-9z" stroke-linejoin="round"/>
  <path fill="#291509" stroke="#000" stroke-width="3" d="M1325 456l-12 8 10 3 10 2-4-6-4-7z" stroke-linejoin="round"/>
  <path fill="#522b0a" stroke="#000" stroke-width="3" d="M1313 464l12-8-23-8-23-9 17 13 17 12z" stroke-linejoin="round"/>
  <path fill="#ba8309" stroke="#000" stroke-width="3" d="M1440 463v-11 11z" stroke-linejoin="round"/>
  <path fill="#976509" stroke="#000" stroke-width="3" d="M1056 457l-8-8-6 2-5 2-13 2-13 2h45z" stroke-linejoin="round"/>
  <path fill="#754909" stroke="#000" stroke-width="3" d="M1011 457l26-4h-5l-16-1-16-1-3 1-2 1 8 2 8 2zm314-1l20-19-19-16-18-17-3-1-3-2-30-37-29-38-2-1-2-2v8l1 8h4l4 22 4 21v1h1l6 3 7 2 5 8 6 7-1 1-1 1 2 17 2 17 23 9 23 8z" stroke-linejoin="round"/>
  <path fill="#522b0a" stroke="#000" stroke-width="3" d="M1032 453h5l5-2 6-2-7-2-6-3-2 5-1 4z" stroke-linejoin="round"/>
  <path fill="#291509" stroke="#000" stroke-width="3" d="M1032 453l3-9-18 4-17 3 16 1 16 1z" stroke-linejoin="round"/>
  <path fill="#522b0a" stroke="#000" stroke-width="3" d="M1082 450h1l5-2 6-2-6 2-6 2z" stroke-linejoin="round"/>
  <path fill="#291509" stroke="#000" stroke-width="3" d="M1393 450v-29l-4-8-4-8h-1l-5 4-4 3-2 6-2 6v1h1l10 9 10 9v4l1 3z" stroke-linejoin="round"/>
  <path fill="#522b0a" stroke="#000" stroke-width="3" d="M1216 447l10-22-5 11-5 11zm176-4l-20-18 10 9 10 9z" stroke-linejoin="round"/>
  <path fill="#976509" stroke="#000" stroke-width="3" d="M1345 437l2-2-8-18-7-19-12 3-12 3 18 17 19 16z" stroke-linejoin="round"/>
  <path fill="#ba8309" stroke="#000" stroke-width="3" d="M910 433h1-1z" stroke-linejoin="round"/>
  <path fill="#976509" stroke="#000" stroke-width="3" d="M1277 403l-2 2 1-1 1-1z" stroke-linejoin="round"/>
  <path fill="#522b0a" stroke="#000" stroke-width="3" d="M1371 424l4-12-2 6-2 6zm-151-15l-7-1 3 1h4zm173 12l-8-16 4 8 4 8zm-471-10l14-5-7 3-7 2zm453 1l9-7-5 4-4 3z" stroke-linejoin="round"/>
  <path fill="#190d06" stroke="#000" stroke-width="3" d="M1227 374l-5-10h-7l6 5 6 5z" stroke-linejoin="round"/>
  <path fill="#ba8309" stroke="#000" stroke-width="3" d="M1308 404l24-6v-1l1-1 7-6 8-6 4-13 4-13-5-1-5-2-12-7-12-7-2-1-2-1-6-5-5-5-28-15-27-16-19-12-19-12h-41l4 6 4 6 5 6 5 5 24 12 24 12v2l2 2 2 1 29 38 30 37 3 2 3 1z" stroke-linejoin="round"/>
  <path fill="#976509" stroke="#000" stroke-width="3" d="M1302 401l-59-75 29 38 30 37zm46-17l-15 12 7-6 8-6z" stroke-linejoin="round"/>
  <path fill="#522b0a" stroke="#000" stroke-width="3" d="M1143 398l-42-12 21 6 21 6z" stroke-linejoin="round"/>
  <path fill="#ba8309" stroke="#000" stroke-width="3" d="M933 389l-9-7 4 4 5 3z" stroke-linejoin="round"/>
  <path fill="#522b0a" stroke="#000" stroke-width="3" d="M1266 388l-13-5 6 3 7 2zm-321 3l21-14-11 7-10 7z" stroke-linejoin="round"/>
  <path fill="#ba8309" stroke="#000" stroke-width="3" d="M938 388l-1-14v7l1 7z" stroke-linejoin="round"/>
  <path fill="#522b0a" stroke="#000" stroke-width="3" d="M1017 383l-44-5 22 3 22 2zm5-1l14-11-7 6-7 5zm230 0l-8-43 4 22 4 21zm-71-16l-8 2v8l4-5 4-5zm55-9l-14 7 2 5 3 5 4-8 5-9z" stroke-linejoin="round"/>
  <path fill="#ba8309" stroke="#000" stroke-width="3" d="M1173 368l8-2 1-4 1-4 2-1 3-1 1-6 2-6-12 12-11 12h5z" stroke-linejoin="round"/>
  <path fill="#754909" stroke="#000" stroke-width="3" d="M1222 364l14-7-2-1-1-2-1-6v-6l-2-1-1-1 5-9 5-10-24-12-24-12h-3l-22 1h-21l-10-1-10-1h-57l16 13 17 12-1 4v4l1 3 2 3 18 4 19 4 17-19 17-20 6 6 6 6 2 14 3 14-2 6-1 6 6-5 6-5h9l4 4 4 4-1 5-1 5h7z" stroke-linejoin="round"/>
  <path fill="#522b0a" stroke="#000" stroke-width="3" d="M1217 354l-8-8h-9l-6 5-6 5-3 1-2 1 17-2 17-2z" stroke-linejoin="round"/>
  <path fill="#754909" stroke="#000" stroke-width="3" d="M1346 355l-24-14 12 7 12 7z" stroke-linejoin="round"/>
  <path fill="#522b0a" stroke="#000" stroke-width="3" d="M1233 354l7-15-1-8v-10l-5 10-5 9 1 1 2 1v6l1 6z" stroke-linejoin="round"/>
  <path fill="#ba8309" stroke="#000" stroke-width="3" d="M1140 343l-37-8 18 4 19 4zm60 3h9-9z" stroke-linejoin="round"/>
  <path fill="#291509" stroke="#000" stroke-width="3" d="M1232 342l-3-2 1 1 2 1z" stroke-linejoin="round"/>
  <path fill="#754909" stroke="#000" stroke-width="3" d="M1318 339l-11-10 5 5 6 5z" stroke-linejoin="round"/>
  <path fill="#522b0a" stroke="#000" stroke-width="3" d="M1126 310l-9 7 4-3 5-4z" stroke-linejoin="round"/>
  <path fill="#ba8309" stroke="#000" stroke-width="3" d="M1100 329l1-8-1 4v4z" stroke-linejoin="round"/>
  <path fill="#291509" stroke="#000" stroke-width="3" d="M1126 310l-9 7 4-3 5-4zm-39-2l-8 7 4-3 4-4z" stroke-linejoin="round"/>
  <path fill="#ba8309" stroke="#000" stroke-width="3" d="M1186 316l-12-12 6 6 6 6z" stroke-linejoin="round"/>
  <path fill="#522b0a" stroke="#000" stroke-width="3" d="M1079 315l8-7-4 4-4 3zm66-17l43-1h3l-5-5-5-6-25 3-24 3-4 2-3 2 10 1 10 1z" stroke-linejoin="round"/>
  <path fill="#ba8309" stroke="#000" stroke-width="3" d="M1125 296l7-4v-4l-32 4-32 4h57z" stroke-linejoin="round"/>
  <path fill="#291509" stroke="#000" stroke-width="3" d="M1188 297l-43 1h21l22-1z" stroke-linejoin="round"/>
  <path fill="#e2a115" stroke="#000" stroke-width="3" d="M1252 298l-38-24 19 12 19 12z" stroke-linejoin="round"/>
  <path fill="#754909" stroke="#000" stroke-width="3" d="M1181 286l-8-12-11 1h-10l-9 5-8 5-2 2-1 1v4l24-3 25-3z" stroke-linejoin="round"/>
  <path fill="#ba8309" stroke="#000" stroke-width="3" d="M1135 285l17-10-9 5-8 5z" stroke-linejoin="round"/>
  <path fill="#754909" stroke="#000" stroke-width="3" d="M1248 0h-111 111z" stroke-linejoin="round"/>
</svg>
